<svg xmlns="http://www.w3.org/2000/svg" width="518.215" height="501.299" viewBox="0 0 518.215 501.299">
  <g id="banner" transform="translate(-17 -30.183)">
    <g id="freepik--background-simple--inject-101" transform="translate(23.3 30.183)">
      <path id="Path_40536" data-name="Path 40536" d="M28.234,193.812s21.61-91.336,106.772-135.769S321.73,32.515,404.433,45.582s135.308,76.338,129.684,152.237S461.8,280.893,410.876,356.994s-53.56,104.4-135.589,139.384S87.912,473.8,47.4,371.768,28.234,193.812,28.234,193.812Z" transform="translate(-22.612 -30.183)" fill="#ded4b7"/>
      <path id="Path_40537" data-name="Path 40537" d="M28.234,193.812s21.61-91.336,106.772-135.769S321.73,32.515,404.433,45.582s135.308,76.338,129.684,152.237S461.8,280.893,410.876,356.994s-53.56,104.4-135.589,139.384S87.912,473.8,47.4,371.768,28.234,193.812,28.234,193.812Z" transform="translate(-22.612 -30.183)" fill="#fff" opacity="0.9"/>
    </g>
    <g id="freepik--Graphics--inject-101" transform="translate(32.672 42.09)">
      <path id="Path_40538" data-name="Path 40538" d="M413.6,147.82a1.7,1.7,0,1,1,1.7-1.7,1.7,1.7,0,0,1-1.7,1.7Z" transform="translate(15.748 -28.082)" fill="#27292c"/>
      <path id="Path_40539" data-name="Path 40539" d="M429.475,147.82a1.7,1.7,0,1,1,1.7-1.7,1.7,1.7,0,0,1-1.7,1.7Z" transform="translate(17.695 -28.082)" fill="#27292c"/>
      <path id="Path_40540" data-name="Path 40540" d="M444.585,147.82a1.7,1.7,0,1,1,1.7-1.7,1.7,1.7,0,0,1-1.7,1.7Z" transform="translate(19.548 -28.082)" fill="#27292c"/>
      <path id="Path_40541" data-name="Path 40541" d="M413.6,163.013a1.706,1.706,0,1,1,1.7-1.706,1.706,1.706,0,0,1-1.7,1.706Z" transform="translate(15.745 -26.222)" fill="#27292c"/>
      <path id="Path_40542" data-name="Path 40542" d="M429.478,163.013a1.706,1.706,0,1,1,1.7-1.706,1.706,1.706,0,0,1-1.7,1.706Z" transform="translate(17.692 -26.222)" fill="#27292c"/>
      <path id="Path_40543" data-name="Path 40543" d="M444.588,163.013a1.706,1.706,0,1,1,1.7-1.706,1.706,1.706,0,0,1-1.7,1.706Z" transform="translate(19.545 -26.222)" fill="#27292c"/>
      <circle id="Ellipse_228" data-name="Ellipse 228" cx="1.695" cy="1.695" r="1.695" transform="translate(427.648 150.43)" fill="#27292c"/>
      <circle id="Ellipse_229" data-name="Ellipse 229" cx="1.695" cy="1.695" r="1.695" transform="translate(445.475 150.43)" fill="#27292c"/>
      <circle id="Ellipse_230" data-name="Ellipse 230" cx="1.695" cy="1.695" r="1.695" transform="translate(462.438 150.43)" fill="#27292c"/>
      <path id="Path_40544" data-name="Path 40544" d="M429.478,193.373a1.706,1.706,0,1,1,1.7-1.7,1.706,1.706,0,0,1-1.7,1.7Z" transform="translate(17.692 -22.5)" fill="#27292c"/>
      <circle id="Ellipse_231" data-name="Ellipse 231" cx="1.695" cy="1.695" r="1.695" transform="translate(427.648)" fill="#27292c"/>
      <circle id="Ellipse_232" data-name="Ellipse 232" cx="1.695" cy="1.695" r="1.695" transform="translate(445.475)" fill="#27292c"/>
      <circle id="Ellipse_233" data-name="Ellipse 233" cx="1.695" cy="1.695" r="1.695" transform="translate(462.438)" fill="#27292c"/>
      <path id="Path_40545" data-name="Path 40545" d="M413.6,59.373a1.706,1.706,0,1,1,1.7-1.7A1.706,1.706,0,0,1,413.6,59.373Z" transform="translate(15.745 -38.93)" fill="#27292c"/>
      <path id="Path_40546" data-name="Path 40546" d="M429.478,59.373a1.706,1.706,0,1,1,1.7-1.7A1.706,1.706,0,0,1,429.478,59.373Z" transform="translate(17.692 -38.93)" fill="#27292c"/>
      <path id="Path_40547" data-name="Path 40547" d="M444.588,59.373a1.706,1.706,0,1,1,1.7-1.7A1.706,1.706,0,0,1,444.588,59.373Z" transform="translate(19.545 -38.93)" fill="#27292c"/>
      <path id="Path_40548" data-name="Path 40548" d="M413.6,74.553a1.706,1.706,0,1,1,1.7-1.7A1.706,1.706,0,0,1,413.6,74.553Z" transform="translate(15.745 -37.069)" fill="#27292c"/>
      <path id="Path_40549" data-name="Path 40549" d="M429.478,74.553a1.706,1.706,0,1,1,1.7-1.7A1.706,1.706,0,0,1,429.478,74.553Z" transform="translate(17.692 -37.069)" fill="#27292c"/>
      <path id="Path_40550" data-name="Path 40550" d="M444.588,74.553a1.706,1.706,0,1,1,1.7-1.7A1.706,1.706,0,0,1,444.588,74.553Z" transform="translate(19.545 -37.069)" fill="#27292c"/>
      <circle id="Ellipse_234" data-name="Ellipse 234" cx="1.695" cy="1.695" r="1.695" transform="translate(445.475 51.135)" fill="#27292c"/>
      <path id="Path_40551" data-name="Path 40551" d="M32.689,218.7a1.706,1.706,0,1,1,1.684-1.7A1.706,1.706,0,0,1,32.689,218.7Z" transform="translate(-30.96 -19.394)" fill="#27292c"/>
      <path id="Path_40552" data-name="Path 40552" d="M48.568,218.7a1.706,1.706,0,1,1,1.7-1.7,1.706,1.706,0,0,1-1.7,1.7Z" transform="translate(-29.012 -19.394)" fill="#27292c"/>
      <path id="Path_40553" data-name="Path 40553" d="M63.678,218.7a1.706,1.706,0,1,1,1.7-1.7,1.706,1.706,0,0,1-1.7,1.7Z" transform="translate(-27.159 -19.394)" fill="#27292c"/>
      <path id="Path_40554" data-name="Path 40554" d="M32.686,233.88a1.7,1.7,0,1,1,1.684-1.7,1.7,1.7,0,0,1-1.684,1.7Z" transform="translate(-30.958 -17.531)" fill="#27292c"/>
      <circle id="Ellipse_235" data-name="Ellipse 235" cx="1.695" cy="1.695" r="1.695" transform="translate(17.861 212.96)" fill="#27292c"/>
      <path id="Path_40555" data-name="Path 40555" d="M63.675,233.88a1.7,1.7,0,1,1,1.7-1.7A1.7,1.7,0,0,1,63.675,233.88Z" transform="translate(-27.157 -17.531)" fill="#27292c"/>
      <path id="Path_40556" data-name="Path 40556" d="M32.689,249.073a1.706,1.706,0,1,1,1.684-1.706,1.706,1.706,0,0,1-1.684,1.706Z" transform="translate(-30.96 -15.67)" fill="#27292c"/>
      <path id="Path_40557" data-name="Path 40557" d="M48.568,249.073a1.706,1.706,0,1,1,1.7-1.706,1.706,1.706,0,0,1-1.7,1.706Z" transform="translate(-29.012 -15.671)" fill="#27292c"/>
      <path id="Path_40558" data-name="Path 40558" d="M63.678,249.073a1.706,1.706,0,1,1,1.7-1.706,1.706,1.706,0,0,1-1.7,1.706Z" transform="translate(-27.159 -15.671)" fill="#27292c"/>
      <path id="Path_40559" data-name="Path 40559" d="M48.568,264.253a1.706,1.706,0,1,1,1.7-1.706,1.706,1.706,0,0,1-1.7,1.706Z" transform="translate(-29.012 -13.809)" fill="#27292c"/>
      <path id="Path_40560" data-name="Path 40560" d="M136.689,64.7a1.706,1.706,0,1,1,1.684-1.7,1.706,1.706,0,0,1-1.684,1.7Z" transform="translate(-18.208 -38.276)" fill="#27292c"/>
      <path id="Path_40561" data-name="Path 40561" d="M152.568,64.7a1.706,1.706,0,1,1,1.7-1.7,1.706,1.706,0,0,1-1.7,1.7Z" transform="translate(-16.26 -38.276)" fill="#27292c"/>
      <path id="Path_40562" data-name="Path 40562" d="M167.678,64.7a1.706,1.706,0,1,1,1.7-1.7A1.706,1.706,0,0,1,167.678,64.7Z" transform="translate(-14.407 -38.276)" fill="#27292c"/>
      <path id="Path_40563" data-name="Path 40563" d="M136.686,79.88a1.7,1.7,0,1,1,1.684-1.7A1.7,1.7,0,0,1,136.686,79.88Z" transform="translate(-18.206 -36.413)" fill="#27292c"/>
      <circle id="Ellipse_236" data-name="Ellipse 236" cx="1.695" cy="1.695" r="1.695" transform="translate(134.612 40.077)" fill="#27292c"/>
      <path id="Path_40564" data-name="Path 40564" d="M167.675,79.88a1.7,1.7,0,1,1,1.7-1.7A1.7,1.7,0,0,1,167.675,79.88Z" transform="translate(-14.405 -36.413)" fill="#27292c"/>
      <path id="Path_40565" data-name="Path 40565" d="M136.689,95.073a1.706,1.706,0,1,1,1.684-1.706,1.706,1.706,0,0,1-1.684,1.706Z" transform="translate(-18.208 -34.553)" fill="#27292c"/>
      <path id="Path_40566" data-name="Path 40566" d="M152.568,95.073a1.706,1.706,0,1,1,1.7-1.706,1.706,1.706,0,0,1-1.7,1.706Z" transform="translate(-16.26 -34.553)" fill="#27292c"/>
      <path id="Path_40567" data-name="Path 40567" d="M167.678,95.073a1.706,1.706,0,1,1,1.7-1.706,1.706,1.706,0,0,1-1.7,1.706Z" transform="translate(-14.407 -34.553)" fill="#27292c"/>
      <circle id="Ellipse_237" data-name="Ellipse 237" cx="1.695" cy="1.695" r="1.695" transform="translate(134.612 74.16)" fill="#27292c"/>
    </g>
    <g id="freepik--Plant--inject-101" transform="translate(442.964 239.895)">
      <line id="Line_248" data-name="Line 248" y1="136.891" transform="translate(42.188 46.072)" fill="none" stroke="#27292c" stroke-linecap="round" stroke-linejoin="round" stroke-width="1"/>
      <path id="Path_40568" data-name="Path 40568" d="M437.606,371.249s-7.207-10.294-16.469-15.436-24.7-5.153-24.7-5.153S404.669,380.477,437.606,371.249Z" transform="translate(-396.44 -200.6)" fill="#938c78"/>
      <path id="Path_40569" data-name="Path 40569" d="M434,371.249s7.207-10.294,16.469-15.436,24.7-5.153,24.7-5.153S466.96,380.477,434,371.249Z" transform="translate(-391.835 -200.6)" fill="#938c78"/>
      <path id="Path_40570" data-name="Path 40570" d="M437.606,338.247s-7.207-10.283-16.469-15.436-24.7-5.142-24.7-5.142S404.669,347.475,437.606,338.247Z" transform="translate(-396.44 -204.645)" fill="#938c78"/>
      <path id="Path_40571" data-name="Path 40571" d="M434,338.247s7.207-10.283,16.469-15.436,24.7-5.142,24.7-5.142S466.96,347.475,434,338.247Z" transform="translate(-391.835 -204.645)" fill="#938c78"/>
      <path id="Path_40572" data-name="Path 40572" d="M437.606,305.249S430.4,294.954,421.137,289.8s-24.7-5.142-24.7-5.142S404.669,314.465,437.606,305.249Z" transform="translate(-396.44 -208.693)" fill="#938c78"/>
      <path id="Path_40573" data-name="Path 40573" d="M434,305.249s7.207-10.294,16.469-15.447,24.7-5.142,24.7-5.142S466.96,314.465,434,305.249Z" transform="translate(-391.835 -208.693)" fill="#938c78"/>
      <path id="Path_40574" data-name="Path 40574" d="M437.606,272.249s-7.207-10.294-16.469-15.436-24.7-5.153-24.7-5.153S404.669,281.454,437.606,272.249Z" transform="translate(-396.44 -212.739)" fill="#938c78"/>
      <path id="Path_40575" data-name="Path 40575" d="M434,272.249s7.207-10.294,16.469-15.436,24.7-5.153,24.7-5.153S466.96,281.454,434,272.249Z" transform="translate(-391.835 -212.739)" fill="#938c78"/>
      <path id="Path_40576" data-name="Path 40576" d="M434.946,263.028s-8.229-11.08-8.644-21.678,6.545-24.361,6.545-24.361S458.094,237.837,434.946,263.028Z" transform="translate(-392.781 -216.99)" fill="#938c78"/>
      <path id="Path_40577" data-name="Path 40577" d="M415.66,377.69H455.6l-9.991,109.241h-19.96Z" transform="translate(-394.083 -197.286)" fill="#263238" stroke="#263238" stroke-linecap="round" stroke-linejoin="round" stroke-width="1"/>
    </g>
    <g id="freepik--Character--inject-101" transform="translate(186.827 71.514)">
      <path id="Path_40666" data-name="Path 40666" d="M142.015,152.72a88.19,88.19,0,0,0-7.667-5.108c-3.581-2.043-4.861-6.646-4.861-9.464s-.763-5.871-.247-7.667.763-17.883,2.548-18.4,12.551,11.664,17.12,19.421a40.627,40.627,0,0,1,5.366,14.066Z" transform="translate(-31.087 -61.474)" fill="#fff" stroke="#263238" stroke-linecap="round" stroke-linejoin="round" stroke-width="1"/>
      <path id="Path_40667" data-name="Path 40667" d="M127.65,123.207l10.227,19.578a1.572,1.572,0,0,0,2.515.359l5.613-5.8a1.583,1.583,0,0,0,.258-1.819l-10.216-19.769a1.56,1.56,0,0,0-2.537-.348L127.9,121.4A1.572,1.572,0,0,0,127.65,123.207Z" transform="translate(-31.283 -61.127)" fill="#263238" stroke="#263238" stroke-linecap="round" stroke-linejoin="round" stroke-width="1"/>
      <path id="Path_40668" data-name="Path 40668" d="M146.973,124.663s-1.426-5.243-2.47-6.6-10.429-1.942-11.226.236a2.818,2.818,0,0,0,2.335,3.974,49.73,49.73,0,0,0,5.49.4l3.57,2.582Z" transform="translate(-30.601 -60.888)" fill="#fff" stroke="#263238" stroke-linecap="round" stroke-linejoin="round" stroke-width="1"/>
      <path id="Path_40669" data-name="Path 40669" d="M150.9,125.141s-3.581-4.086-5.119-4.85-10.216,2.807-9.958,5.108a2.818,2.818,0,0,0,3.828,2.56,50.361,50.361,0,0,0,5.108-2.043l4.345.763Z" transform="translate(-30.259 -60.479)" fill="#fff" stroke="#263238" stroke-linecap="round" stroke-linejoin="round" stroke-width="1"/>
      <path id="Path_40670" data-name="Path 40670" d="M147.636,130.043a23.309,23.309,0,0,0-3.57,1.538c-1.28.763-4.1,2.3-4.6-.505s6.388-6.646,6.388-6.646,6.129-2.043,6.388,2.548-2.3,11.754-2.56,12.528" transform="translate(-29.815 -60.014)" fill="#fff" stroke="#263238" stroke-linecap="round" stroke-linejoin="round" stroke-width="1"/>
      <path id="Path_40671" data-name="Path 40671" d="M148.092,207.215s14.785,16.132,28.222,14.448,12.1-22.52,8.745-31.927S153.132,136.3,153.132,136.3l-14.459,16.132,9.755,23.193s-8.072-14.122-11.765-17.479a55.739,55.739,0,0,0-4.7-4.03" transform="translate(-30.732 -58.503)" fill="#ded4b7" stroke="#263238" stroke-linecap="round" stroke-linejoin="round" stroke-width="1"/>
      <line id="Line_261" data-name="Line 261" x2="8.397" y2="22.845" transform="translate(117.697 117.122)" fill="#fff" stroke="#263238" stroke-linecap="round" stroke-linejoin="round" stroke-width="1"/>
      <path id="Path_40672" data-name="Path 40672" d="M151.778,243.088s5.2,19.5,4.221,49.081-5.2,60.464-5.523,63.068-5.523,63.383-5.523,78.987-.7,24.406-.7,24.406l2.245,21.128L124.05,477.8s.7-36.754-3.536-53.661-5.2-26.651-2.919-40.953a241.912,241.912,0,0,1,5.523-25.685s.651-28.6-.326-37.383-2.93-17.872-2.93-17.872-10.721,47.778-16.581,66.638S85.331,432.3,83.052,442.407s-4.49,34.453-4.49,34.453l-18.209-.977s-3.435-31.254.46-61.149a425.654,425.654,0,0,1,14.594-68.266c4.232-13.651,6.5-46.487,6.5-60.138s-2.245-19.5.326-29.906a159.074,159.074,0,0,1,6.186-19.174s41.6,2.245,47.778,1.291a85.219,85.219,0,0,1,13.977-.64Z" transform="translate(-39.683 -46.125)" fill="#263238" stroke="#263238" stroke-linecap="round" stroke-linejoin="round" stroke-width="1"/>
      <path id="Path_40673" data-name="Path 40673" d="M104.07,341.3s-12.2-2.245-20.342,0,7.768,9.25,13.314,9.25S103.711,345,104.07,341.3Z" transform="translate(-36.924 -33.49)" fill="#fff" stroke="#263238" stroke-linecap="round" stroke-linejoin="round" stroke-width="1"/>
      <path id="Path_40674" data-name="Path 40674" d="M142.032,344.309s-24.046-4.064-19.612,1.852,14.437,9.25,15.548,9.25,3.368,1.471,3.693-1.123S142.032,344.309,142.032,344.309Z" transform="translate(-31.969 -33.166)" fill="#fff" stroke="#263238" stroke-linecap="round" stroke-linejoin="round" stroke-width="1"/>
      <path id="Path_40675" data-name="Path 40675" d="M104.078,137.488s-14.021,5.4-19.724,10.249-2.93,14.021,1.123,30.209,16.188,64.449,16.188,70.388a98.978,98.978,0,0,0,1.347,13.752,61.228,61.228,0,0,0,20.207.808c11.866-1.347,27.235-2.155,27.235-2.155a57.017,57.017,0,0,0,1.448-26.112c-5.826-31.77-11.967-59.914-18.714-73.946s-5.613-17.524-16.177-21.835S104.078,137.488,104.078,137.488Z" transform="translate(-36.966 -58.478)" fill="#fff" stroke="#263238" stroke-linecap="round" stroke-linejoin="round" stroke-width="1"/>
      <path id="Path_40676" data-name="Path 40676" d="M116.914,137.453s13.213,16.458,11.327,30.21-20.768,14.291-29.39.269-6.477-25.618-1.617-29.121S111.256,132.064,116.914,137.453Z" transform="translate(-35.511 -58.713)" fill="#fff" stroke="#263238" stroke-linecap="round" stroke-linejoin="round" stroke-width="1"/>
      <path id="Path_40677" data-name="Path 40677" d="M130.78,172.151s9.744,41.671,9.071,79.986-1.336,88.058-.662,89.394,41.671-15.122,46.027-17.468-8.408-45.376-13.112-57.478-19.814-55.738-19.814-55.738-9.744-46.027-13.471-51.427-9.082-8.4-12.775-11.08S130.78,172.151,130.78,172.151Z" transform="translate(-31.572 -57.05)" fill="#ded4b7" stroke="#263238" stroke-linecap="round" stroke-linejoin="round" stroke-width="1"/>
      <circle id="Ellipse_240" data-name="Ellipse 240" cx="2.279" cy="2.279" r="2.279" transform="translate(140.699 257.74)" fill="#fff" stroke="#263238" stroke-linecap="round" stroke-linejoin="round" stroke-width="1"/>
      <circle id="Ellipse_241" data-name="Ellipse 241" cx="2.279" cy="2.279" r="2.279" transform="translate(135.49 229.787)" fill="#fff" stroke="#263238" stroke-linecap="round" stroke-linejoin="round" stroke-width="1"/>
      <path id="Path_40678" data-name="Path 40678" d="M159.79,249.065a2.245,2.245,0,1,1-2.245-2.245A2.245,2.245,0,0,1,159.79,249.065Z" transform="translate(-27.87 -44.952)" fill="#fff" stroke="#263238" stroke-linecap="round" stroke-linejoin="round" stroke-width="1"/>
      <path id="Path_40679" data-name="Path 40679" d="M116.69,139.89s17.142,8.408,20.207,12.1-4.412,22.823-4.412,22.823Z" transform="translate(-32.604 -58.063)" fill="#ded4b7" stroke="#263238" stroke-linecap="round" stroke-linejoin="round" stroke-width="1"/>
      <path id="Path_40680" data-name="Path 40680" d="M126.56,145.11a139.2,139.2,0,0,1,.7,20.207l4.019,8.891s7.4-19.163,4.367-22.856C134.362,149.78,130.534,147.366,126.56,145.11Z" transform="translate(-31.394 -57.423)" fill="#fff" stroke="#263238" stroke-linecap="round" stroke-linejoin="round" stroke-width="1"/>
      <path id="Path_40681" data-name="Path 40681" d="M116.092,162.256s-1.347-4.311,6.736-16.716,9.7-14.291,9.7-14.291l-34.8-5.4s-2.436,21.577-2.436,22.385" transform="translate(-35.228 -59.784)" fill="#fff" stroke="#263238" stroke-linecap="round" stroke-linejoin="round" stroke-width="1"/>
      <path id="Path_40682" data-name="Path 40682" d="M131.036,131.028l-21.419-3.368-2.077,2.492a83.478,83.478,0,0,0,17.322,9.767C129.9,132.364,131.036,131.028,131.036,131.028Z" transform="translate(-33.726 -59.562)" fill="#263238" stroke="#263238" stroke-linecap="round" stroke-linejoin="round" stroke-width="1"/>
      <path id="Path_40683" data-name="Path 40683" d="M128.564,92.94s5.613,7.286,5.13,10.788a6.5,6.5,0,0,0,3.188,7.016c1.886.808,5.119,1.617,4.311,3.5a33.744,33.744,0,0,1-2.694,4.592s4.311,15.1,1.617,16.985-9.711,2.425-14.291,2.425-14.762-1.886-14.762-1.886-10.249-11.866-9.711-21.33,7.555-16.446,12.135-19.084S128.564,92.94,128.564,92.94Z" transform="translate(-34.487 -63.819)" fill="#fff" stroke="#263238" stroke-linecap="round" stroke-linejoin="round" stroke-width="1"/>
      <path id="Path_40684" data-name="Path 40684" d="M127.218,107.679c.629,1.269.64,2.548,0,2.84s-1.594-.505-2.245-1.774-.64-2.537,0-2.829S126.6,106.411,127.218,107.679Z" transform="translate(-31.648 -62.236)" fill="#263238"/>
      <path id="Path_40685" data-name="Path 40685" d="M125.35,118.41s1.617,3.5,7.555,1.617" transform="translate(-31.542 -60.697)" fill="none" stroke="#263238" stroke-linecap="round" stroke-linejoin="round" stroke-width="1"/>
      <path id="Path_40686" data-name="Path 40686" d="M122,103.792a6.186,6.186,0,0,1,7.275-2.155" transform="translate(-31.953 -62.805)" fill="none" stroke="#263238" stroke-linecap="round" stroke-linejoin="round" stroke-width="1"/>
      <path id="Path_40687" data-name="Path 40687" d="M90.568,146.51s12.135,29.94,16.716,54.75,11.6,60.947,11.058,80.357-3.783,65.269-6.208,67.155-41.256.269-53.885-4.311S41.521,339.06,41.8,336.9s12.4-84.948,13.471-94.389S67.139,166.47,67.139,166.47s3.772-7.555,9.7-12.135a70.2,70.2,0,0,1,13.73-7.825Z" transform="translate(-41.788 -57.251)" fill="#ded4b7" stroke="#263238" stroke-linecap="round" stroke-linejoin="round" stroke-width="1"/>
      <path id="Path_40688" data-name="Path 40688" d="M75.868,296.11s.741,8.891,1.123,10a70.824,70.824,0,0,1,2.245,7.78c.37,2.245-5.613-1.123-6.668-2.964l-1.123-1.852s-4.075,4.816-5.927,5.557-5.927-2.245-6.668-3.7-4.1-1.471-4.816-5.186a35.284,35.284,0,0,1,0-9.262Z" transform="translate(-40.324 -38.908)" fill="#fff" stroke="#263238" stroke-linecap="round" stroke-linejoin="round" stroke-width="1"/>
      <path id="Path_40689" data-name="Path 40689" d="M64.666,167.53s-5.546,19.242-6.657,32.185S49.87,311.808,49.87,311.808s1.123,3.693,12.573,5.175,15.907-1.482,16.648-3.693S95.74,188.68,95.74,188.68" transform="translate(-40.797 -54.674)" fill="#ded4b7" stroke="#263238" stroke-linecap="round" stroke-linejoin="round" stroke-width="1"/>
      <path id="Path_40690" data-name="Path 40690" d="M101.081,183.994S91.1,174.833,79.5,172.4s-16.188,1.358-16.188,1.358-5.389-4.053-3.5-8.9,8.633-7.016,8.633-7.016,2.425-1.886,8.633-6.2a30.232,30.232,0,0,1,11.327-5.13S100.261,176.45,101.081,183.994Z" transform="translate(-39.627 -57.251)" fill="#ded4b7" stroke="#263238" stroke-linecap="round" stroke-linejoin="round" stroke-width="1"/>
      <path id="Path_40691" data-name="Path 40691" d="M59.814,163.618c-1.886,4.85,3.5,8.9,3.5,8.9s4.591-3.783,16.188-1.358,21.577,11.6,21.577,11.6C91.1,154.985,68.447,156.6,68.447,156.6S61.7,158.757,59.814,163.618Z" transform="translate(-39.627 -56.016)" fill="#fff" stroke="#263238" stroke-linecap="round" stroke-linejoin="round" stroke-width="1"/>
      <path id="Path_40692" data-name="Path 40692" d="M78.748,445.573s2.964-8.509-.37-9.621-15.481-1.482-16.6,1.111a10.754,10.754,0,0,0-1.123,5.175c0,1.482-2.245-1.123-2.245,3.368s.359,12.944.359,12.944-11.091,7.4-12.573,11.473-.37,9.98,2.245,10.35,35.924,0,35.924,0,1.482-1.841,1.482-8.139-1.482-17.378-1.482-17.378,4.816-9.25,2.245-10.732S78.748,445.573,78.748,445.573Z" transform="translate(-41.329 -21.866)" fill="#fff" stroke="#263238" stroke-linecap="round" stroke-linejoin="round" stroke-width="1"/>
      <path id="Path_40693" data-name="Path 40693" d="M85.764,469.14H45.552c-.18,3.368.932,6.736,2.863,7.028,2.582.37,35.924,0,35.924,0S85.6,474.6,85.764,469.14Z" transform="translate(-41.329 -17.693)" fill="#fff" stroke="#263238" stroke-linecap="round" stroke-linejoin="round" stroke-width="1"/>
      <path id="Path_40694" data-name="Path 40694" d="M77.1,444.794l-1.852,11.832-15.166-1.471-1.111-13.7" transform="translate(-39.681 -21.087)" fill="#fff" stroke="#263238" stroke-linecap="round" stroke-linejoin="round" stroke-width="1"/>
      <path id="Path_40695" data-name="Path 40695" d="M131.031,449.8s-13.7-4.434-15.537-2.964-3.368,4.49-2.245,5.927l2.245,2.952S111,471.626,112.9,474.589s12.573,4.8,20.712,4.8,15.537-1.841,18.5-.37,20.712,3.7,23.676,1.482,2.593-11.832-.741-11.832-19.971-7.028-24.046-11.1a24.024,24.024,0,0,1-5.546-8.88s.37-9.25-1.123-12.2-9.621-3.7-11.1.37S131.031,449.8,131.031,449.8Z" transform="translate(-33.126 -21.997)" fill="#fff" stroke="#263238" stroke-linecap="round" stroke-linejoin="round" stroke-width="1"/>
      <path id="Path_40696" data-name="Path 40696" d="M175.788,476.58c1.246-.932,1.9-3.188,1.987-5.478-7.858,2.245-19.242.988-23.07-.438-11.72-4.345-14.066-1.852-22.205-1.852-5.995,0-15.4-1.807-19.938-2.762-.2,2.1-.157,3.817.337,4.614,1.852,2.964,12.573,4.8,20.712,4.8s15.537-1.841,18.5-.37S172.824,478.8,175.788,476.58Z" transform="translate(-33.124 -18.072)" fill="#fff" stroke="#263238" stroke-linecap="round" stroke-linejoin="round" stroke-width="1"/>
      <path id="Path_40697" data-name="Path 40697" d="M129,448.08l9.61,9.621s2.593-5.916,5.927-7.768" transform="translate(-31.095 -20.275)" fill="#fff" stroke="#263238" stroke-linecap="round" stroke-linejoin="round" stroke-width="1"/>
      <path id="Path_40698" data-name="Path 40698" d="M116.915,102.31s-3.5,5.613-.539,7.016,7.005,4.041,5.613,7.544-8.083,5.13-4.311,8.094,10.249,6.208,7.016,9.711-6.736,3.233-6.208,5.613,4.041,4.591,1.347,7.016-7.275-3.5-9.441-2.155,2.167,7.275-2.425,8.891-9.98-5.613-12.135-4.041-.808,4.861-6.466,5.613-7.016-4.053-9.172-4.053-8.9,2.155-9.172-2.155,2.223-10.4,4.906-10.4,3.772,1.886,3.233-1.123-3.772-4.85,0-6.466a24.54,24.54,0,0,1,5.927-1.9s1.347-5.613,13.213-15.369S116.915,102.31,116.915,102.31Z" transform="translate(-38.206 -62.671)" fill="#263238" stroke="#263238" stroke-linecap="round" stroke-linejoin="round" stroke-width="1"/>
      <path id="Path_40699" data-name="Path 40699" d="M95.389,83.985s2.425.539,5.13-3.5S98.352,67,88.922,67,67.346,80.752,71.387,86.152s11.6,2.694,12.674,2.694S95.389,83.985,95.389,83.985Z" transform="translate(-38.257 -67)" fill="#fff" stroke="#263238" stroke-linecap="round" stroke-linejoin="round" stroke-width="1"/>
      <path id="Path_40700" data-name="Path 40700" d="M124.562,87.394a47.913,47.913,0,0,0-17.8-5.939c-10.519-1.347-18.6.539-24,6.736a32.073,32.073,0,0,0-8.083,22.654c.269,8.891,6.466,15.638,6.466,15.638S98.674,107.331,109.2,100.6s16.457-11.327,16.457-11.327Z" transform="translate(-37.759 -65.278)" fill="#fff" stroke="#263238" stroke-linecap="round" stroke-linejoin="round" stroke-width="1"/>
      <path id="Path_40701" data-name="Path 40701" d="M81.929,134.225a1.269,1.269,0,0,0,2.133.09c2.447-3.525,9.5-12.225,25.337-23.126,20.768-14.291,24-14.83,24-14.83s-6.736-9.98-8.891-11.327-22.385,9.7-33.981,21.027-14.291,17.266-12.944,20.207C78.494,128.3,80.638,132.025,81.929,134.225Z" transform="translate(-37.438 -64.803)" fill="#fff" stroke="#263238" stroke-linecap="round" stroke-linejoin="round" stroke-width="1"/>
      <line id="Line_262" data-name="Line 262" x2="5.175" y2="9.25" transform="translate(41.999 55.524)" fill="none" stroke="#263238" stroke-linecap="round" stroke-linejoin="round" stroke-width="1"/>
      <line id="Line_263" data-name="Line 263" x2="4.446" y2="7.398" transform="translate(44.581 52.931)" fill="none" stroke="#263238" stroke-linecap="round" stroke-linejoin="round" stroke-width="1"/>
      <line id="Line_264" data-name="Line 264" x2="6.287" y2="8.498" transform="translate(47.174 48.867)" fill="none" stroke="#263238" stroke-linecap="round" stroke-linejoin="round" stroke-width="1"/>
      <line id="Line_265" data-name="Line 265" x2="5.557" y2="7.768" transform="translate(51.979 46.645)" fill="none" stroke="#263238" stroke-linecap="round" stroke-linejoin="round" stroke-width="1"/>
      <line id="Line_266" data-name="Line 266" x2="8.139" y2="9.991" transform="translate(57.536 39.247)" fill="none" stroke="#263238" stroke-linecap="round" stroke-linejoin="round" stroke-width="1"/>
      <line id="Line_267" data-name="Line 267" x2="3.334" y2="4.075" transform="translate(69.739 36.653)" fill="none" stroke="#263238" stroke-linecap="round" stroke-linejoin="round" stroke-width="1"/>
      <line id="Line_268" data-name="Line 268" x2="3.323" y2="4.434" transform="translate(80.841 25.191)" fill="none" stroke="#263238" stroke-linecap="round" stroke-linejoin="round" stroke-width="1"/>
    </g>
    <g id="freepik--Floor--inject-101" transform="translate(17 529.54)">
      <line id="Line_269" data-name="Line 269" x2="513.034" fill="none" stroke="#263238" stroke-miterlimit="10" stroke-width="1"/>
    </g>
  </g>
</svg>
