<svg xmlns="http://www.w3.org/2000/svg" width="62" height="62" viewBox="0 0 62 62">
  <g id="cloud_service" transform="translate(-1 -1)">
    <path id="Path_40794" data-name="Path 40794" d="M14,29a3,3,0,1,0-3-3A3,3,0,0,0,14,29Zm0-4a1,1,0,1,1-1,1A1,1,0,0,1,14,25Z"/>
    <path id="Path_40795" data-name="Path 40795" d="M17,39H15V33h2V31H11v2h2v6H11v2h6Z"/>
    <path id="Path_40796" data-name="Path 40796" d="M49,13c-.02,0-.039,0-.059,0A8.99,8.99,0,0,0,35.763,6.064,11.981,11.981,0,0,0,14,13v.062A8.012,8.012,0,0,0,7,21c0,.021,0,.041,0,.061A13.02,13.02,0,1,0,26.637,29H43.03V27H26a12.976,12.976,0,0,0-16.9-7.032A5.991,5.991,0,0,1,14.95,15l1.2,0-.1-1.091c-.026-.3-.046-.6-.046-.911A9.985,9.985,0,0,1,34.123,7.2,8.975,8.975,0,0,0,31,14h2a7,7,0,0,1,13.961-.73A7.926,7.926,0,0,0,43.286,15.4l1.428,1.4a6,6,0,1,1,7.85,9.027l1.189,1.607A8,8,0,0,0,49,13ZM25,32A11,11,0,1,1,14,21,11.013,11.013,0,0,1,25,32Z"/>
    <path id="Path_40797" data-name="Path 40797" d="M28,25a3,3,0,1,0-3-3A3,3,0,0,0,28,25Zm0-4a1,1,0,1,1-1,1A1,1,0,0,1,28,21Z"/>
    <path id="Path_40798" data-name="Path 40798" d="M26,7V5a8.007,8.007,0,0,0-7.669,10.285l1.918-.57A6,6,0,0,1,26,7Z"/>
    <path id="Path_40799" data-name="Path 40799" d="M48,57H32V55H48a1,1,0,0,0,1-1V50h2v4A3,3,0,0,1,48,57Z"/>
    <path id="Path_40800" data-name="Path 40800" d="M63,34.219l-2.416-.6,1.281-2.134-5.346-5.347-2.136,1.281L53.781,25H46.219l-.6,2.416L43.48,26.135l-5.346,5.347,1.281,2.134-2.415.6v7.562l2.415.6-1.28,2.135,5.346,5.347,2.136-1.281.6,2.415h7.562l.6-2.416,2.136,1.281,5.346-5.347-1.28-2.135,2.414-.6ZM50,44a6,6,0,1,1,6-6A6,6,0,0,1,50,44Z" fill="#ded4b7"/>
    <path id="Path_40801" data-name="Path 40801" d="M50,45a7,7,0,1,1,7-7A7.008,7.008,0,0,1,50,45Zm0-12a5,5,0,1,0,5,5A5.006,5.006,0,0,0,50,33Z"/>
    <path id="Path_40802" data-name="Path 40802" d="M10,55H20v2H10Z"/>
    <path id="Path_40803" data-name="Path 40803" d="M6,61a5,5,0,1,1,5-5A5.006,5.006,0,0,1,6,61Z" fill="#ded4b7"/>
    <path id="Path_40804" data-name="Path 40804" d="M26,63a7,7,0,1,1,7-7A7.008,7.008,0,0,1,26,63Zm0-9a2,2,0,1,0,2,2A2,2,0,0,0,26,54Z" fill="#ded4b7"/>
    <path id="Path_40805" data-name="Path 40805" d="M26,59a3,3,0,1,1,3-3A3,3,0,0,1,26,59Zm0-4a1,1,0,1,0,1,1A1,1,0,0,0,26,55Z"/>
    <path id="Path_40806" data-name="Path 40806" d="M44,25a3,3,0,1,1,3-3A3,3,0,0,1,44,25Zm0-4a1,1,0,1,0,1,1A1,1,0,0,0,44,21Z"/>
    <path id="Path_40807" data-name="Path 40807" d="M36,25a3,3,0,1,1,3-3A3,3,0,0,1,36,25Zm0-4a1,1,0,1,0,1,1A1,1,0,0,0,36,21Z"/>
    <path id="Path_40808" data-name="Path 40808" d="M37,14H35a5.006,5.006,0,0,1,5-5v2A3,3,0,0,0,37,14Z"/>
  </g>
</svg>
