<svg xmlns="http://www.w3.org/2000/svg" width="50.5" height="50.501" viewBox="0 0 50.5 50.501">
  <g id="deployment" transform="translate(-2 -1.999)">
    <path id="Path_3292" data-name="Path 3292" d="M50.817,17.991a2.525,2.525,0,0,0-2.525-2.525H40.717A13.474,13.474,0,0,0,40.632,14c-.019-.18-.056-.356-.084-.535-.045-.3-.09-.589-.154-.883-.048-.218-.109-.432-.168-.647-.066-.241-.133-.48-.212-.715s-.161-.455-.253-.68-.175-.421-.27-.633-.2-.444-.319-.662-.235-.421-.358-.627-.225-.389-.35-.577c-.22-.33-.456-.648-.7-.957-.042-.052-.077-.109-.12-.161a13.647,13.647,0,0,0-1.01-1.094c-.045-.043-.093-.084-.14-.126q-.483-.459-1.01-.868c-.028-.021-.051-.046-.079-.067l-.493-.375L34.9,4.4A13.426,13.426,0,0,0,15.2,9.475l-.014,0-.168.353c-.009.021-.016.043-.025.064q-.264.578-.472,1.183c-.019.052-.04.1-.057.156-.128.385-.236.777-.328,1.178-.018.073-.04.146-.056.219-.084.375-.14.757-.189,1.144-.011.09-.031.178-.041.269a13.693,13.693,0,0,0-.067,1.42H6.208a2.525,2.525,0,0,0-2.525,2.525V47.45H2v2.525A2.525,2.525,0,0,0,4.525,52.5h45.45A2.525,2.525,0,0,0,52.5,49.975V47.45H50.817Zm-35.29-3.7a11.665,11.665,0,0,1,.866-3.381,5.227,5.227,0,0,1,5.276,2.069l.4.555a5.2,5.2,0,0,1,.976,3.04,6.919,6.919,0,0,0,4.106,6.318h0a6.578,6.578,0,0,1,3.527,3.842c-.258.084-.518.148-.779.209l-.077.02c-.185.042-.373.073-.56.106s-.365.061-.55.084c-.14.018-.279.035-.421.047-.344.03-.69.053-1.042.053a11.8,11.8,0,0,1-11.78-11.783C15.467,15.069,15.488,14.676,15.526,14.288ZM27.25,28.933c.425,0,.848-.024,1.27-.064.242-.023.476-.064.714-.1.168-.025.331-.045.495-.077.316-.059.625-.135.933-.215.077-.021.157-.039.234-.061.337-.1.673-.206,1-.327.035-.013.072-.022.108-.035l.395-.149c.034-.014.068-.024.1-.039l.186-.07,0-.018a13.531,13.531,0,0,0,6.7-6.494l.018-.008.123-.273c.008-.018.013-.036.021-.054.065-.144.129-.289.189-.435h6.041V44.083H8.733V20.516h6.041A13.481,13.481,0,0,0,27.25,28.933ZM38.1,20.043l-1.161.58a2.6,2.6,0,0,1-2.455-.068l-.375-.214a2.6,2.6,0,0,1-.55-4.1,4.293,4.293,0,0,0,.691-5.158l-.519-.9a2.6,2.6,0,0,1,.747-3.41l.385-.275a11.992,11.992,0,0,1,.875.827c.072.075.141.154.21.231q.29.316.555.649.153.2.3.4c.13.178.253.361.374.547.107.168.21.337.309.505s.183.337.269.505c.1.191.193.382.279.578.075.168.14.337.205.513.077.2.157.4.223.607.061.189.109.383.161.576s.109.387.151.589c.05.239.084.482.12.726.024.16.056.316.073.479a11.985,11.985,0,0,1,.07,1.246c0,.4-.021.793-.06,1.178a11.73,11.73,0,0,1-.873,3.4ZM27.25,3.683a11.691,11.691,0,0,1,6.185,1.773,4.27,4.27,0,0,0-1.162,5.555l.517.9a2.609,2.609,0,0,1-.421,3.132,4.287,4.287,0,0,0,.9,6.753l.375.215a4.242,4.242,0,0,0,3.049.463,11.834,11.834,0,0,1-4.454,3.645,8.267,8.267,0,0,0-4.412-4.772h0a5.235,5.235,0,0,1-3.106-4.779,6.873,6.873,0,0,0-1.288-4.018l-.4-.556a6.9,6.9,0,0,0-5.716-2.856A11.772,11.772,0,0,1,27.25,3.683ZM5.367,17.991a.842.842,0,0,1,.842-.842H13.9a13.249,13.249,0,0,0,.327,1.683H7.05V45.766h40.4V18.833H40.273c.035-.136.074-.27.105-.407.012-.052.029-.1.04-.155.078-.368.134-.743.181-1.121h7.692a.842.842,0,0,1,.842.842V47.45H5.367Zm45.45,31.983a.842.842,0,0,1-.842.842H4.525a.842.842,0,0,1-.842-.842v-.842H50.817Z" fill="#ded4b7"/>
    <path id="Path_3293" data-name="Path 3293" d="M27.339,47.857h6.733V44.49h3.513l-6.88-8.027-6.88,8.027h3.513Zm3.367-8.806,3.22,3.756H32.389v3.367H29.022V42.807H27.486Z" transform="translate(-3.456 -5.457)" fill="#ded4b7"/>
  </g>
</svg>
