<svg xmlns="http://www.w3.org/2000/svg" width="477.036" height="350.537" viewBox="0 0 477.036 350.537">
  <g id="four" transform="translate(-92.9 -41.617)">
    <g id="freepik--background-simple--inject-188" transform="translate(135.348 45.174)">
      <path id="Path_48597" data-name="Path 48597" d="M529.845,108.715c19.867,56.745,2.7,122.926-37.118,167.982S393.194,346.529,333.18,350.61c-42.821,2.914-99.674-4.694-135.376-28.517s-60.519-58.831-51.91-103.928c3.038-15.927,13.319-37.25,25.587-47.813,19.577-16.936,48.839-13.832,74.426-9.726s54.816,7.285,74.5-9.553c15.1-12.947,19.792-33.939,29.138-51.5,15.893-29.858,47.614-50.669,81.33-53.359a97.157,97.157,0,0,1,14.072-.091c36.381,2.417,68.218,25.413,83.168,58.673Z" transform="translate(-144.179 -45.914)" fill="rgba(222,212,183,0.2)"/>
    </g>
    <g id="freepik--Character--inject-188" transform="translate(178.617 61.509)">
      <rect id="Rectangle_4006" data-name="Rectangle 4006" width="213.651" height="306.612" rx="11.55" transform="translate(0 330.429) rotate(-90)" fill="#263238"/>
      <rect id="Rectangle_4007" data-name="Rectangle 4007" width="200.183" height="256.059" transform="translate(20.976 323.7) rotate(-90)" fill="#fff"/>
      <circle id="Ellipse_364" data-name="Ellipse 364" cx="8.195" cy="8.195" r="8.195" transform="matrix(0.229, -0.973, 0.973, 0.229, 281.377, 229.734)" fill="#455a64"/>
      <rect id="Rectangle_4008" data-name="Rectangle 4008" width="64.352" height="3.386" rx="1.22" transform="translate(8.824 255.78) rotate(-90)" fill="#455a64"/>
      <circle id="Ellipse_365" data-name="Ellipse 365" cx="20.686" cy="20.686" r="20.686" transform="matrix(0.55, -0.835, 0.835, 0.55, 47.68, 235.504)" fill="#ded4b7"/>
      <circle id="Ellipse_366" data-name="Ellipse 366" cx="20.686" cy="20.686" r="20.686" transform="matrix(0.55, -0.835, 0.835, 0.55, 47.68, 235.504)" fill="#fff" opacity="0.3"/>
      <path id="Path_48598" data-name="Path 48598" d="M279.738,336.739c.778-.066,1.49.828,1.589,1.937s-.472,2.094-1.258,2.16-1.49-.828-1.581-1.929S278.985,336.805,279.738,336.739Z" transform="translate(-210.577 -112.333)" fill="#263238"/>
      <path id="Path_48599" data-name="Path 48599" d="M295.606,336.41c-.778,0-1.457.828-1.507,2s.555,2.078,1.341,2.111,1.465-.828,1.507-1.995S296.392,336.443,295.606,336.41Z" transform="translate(-213.266 -112.276)" fill="#263238"/>
      <path id="Path_48600" data-name="Path 48600" d="M295.066,347.907c0,.24-3.857.439-8.609.439s-8.617-.2-8.617-.439,3.857-.447,8.617-.447S295.066,347.65,295.066,347.907Z" transform="translate(-210.467 -114.179)" fill="#263238"/>
      <path id="Path_48601" data-name="Path 48601" d="M281.083,333.765c-.05.248-1.035.24-2.185.422s-2.086.48-2.21.265.745-.927,2.078-1.134S281.083,333.534,281.083,333.765Z" transform="translate(-210.266 -111.735)" fill="#263238"/>
      <path id="Path_48602" data-name="Path 48602" d="M299.522,334.733c-.149.2-1.043-.265-2.194-.613s-2.144-.472-2.169-.728,1.1-.53,2.425-.116S299.68,334.559,299.522,334.733Z" transform="translate(-213.449 -111.7)" fill="#263238"/>
      <circle id="Ellipse_367" data-name="Ellipse 367" cx="21.44" cy="21.44" r="21.44" transform="translate(201.555 245.717) rotate(-80.95)" fill="#ded4b7"/>
      <circle id="Ellipse_368" data-name="Ellipse 368" cx="21.44" cy="21.44" r="21.44" transform="translate(201.555 245.717) rotate(-80.95)" opacity="0.3"/>
      <path id="Path_48603" data-name="Path 48603" d="M460.359,334.439c.828-.066,1.556.828,1.656,2s-.48,2.177-1.291,2.243-1.556-.828-1.656-2S459.548,334.505,460.359,334.439Z" transform="translate(-241.675 -111.936)" fill="#263238"/>
      <path id="Path_48604" data-name="Path 48604" d="M476.774,334.1c-.828,0-1.515.894-1.565,2.069s.579,2.152,1.391,2.185,1.515-.894,1.565-2.069S477.593,334.133,476.774,334.1Z" transform="translate(-244.456 -111.879)" fill="#263238"/>
      <path id="Path_48605" data-name="Path 48605" d="M476.221,345.316a14.811,14.811,0,0,1-2.483-1.308,13.849,13.849,0,0,0-6.382-1.573,15.927,15.927,0,0,0-6.4,1.656,14.117,14.117,0,0,1-2.558,1.225c-.074-.116.737-.828,2.268-1.771a13.9,13.9,0,0,1,6.672-1.995,12.591,12.591,0,0,1,6.705,1.912A6.408,6.408,0,0,1,476.221,345.316Z" transform="translate(-241.561 -113.162)" fill="#263238"/>
      <path id="Path_48606" data-name="Path 48606" d="M461.666,331.452c.074.091-.066.364-.422.671a3.469,3.469,0,0,1-1.656.828,3.179,3.179,0,0,1-1.862-.207c-.439-.2-.637-.43-.588-.538s1.117.108,2.293-.124S461.509,331.253,461.666,331.452Z" transform="translate(-241.343 -111.416)" fill="#263238"/>
      <path id="Path_48607" data-name="Path 48607" d="M480.833,332.429c0,.108-.2.315-.679.464a3.146,3.146,0,0,1-1.92-.066,3.865,3.865,0,0,1-1.581-1.051c-.315-.364-.43-.654-.348-.737s1.051.546,2.21.952S480.75,332.181,480.833,332.429Z" transform="translate(-244.641 -111.35)" fill="#263238"/>
      <path id="Path_48608" data-name="Path 48608" d="M419.346,409.743l4.967-2.458,4.851,2.7-.811-5.488,4.064-3.775-5.472-.927-2.334-5.033-2.566,4.917-5.5.662,3.874,3.965Z" transform="translate(-234.353 -122.325)" fill="#e0e0e0"/>
      <path id="Path_48609" data-name="Path 48609" d="M394.866,409.743l4.967-2.458,4.851,2.7-.811-5.488,4.064-3.775-5.472-.927-2.334-5.033-2.566,4.917-5.5.662,3.874,3.965Z" transform="translate(-230.137 -122.325)" fill="#ded4b7"/>
      <path id="Path_48610" data-name="Path 48610" d="M370.386,409.743l4.967-2.458,4.843,2.7-.8-5.488,4.064-3.775-5.472-.927-2.334-5.033-2.566,4.917-5.5.662,3.874,3.965Z" transform="translate(-225.921 -122.325)" fill="#ded4b7"/>
      <path id="Path_48611" data-name="Path 48611" d="M345.906,409.743l4.967-2.458,4.843,2.7-.8-5.488,4.064-3.775-5.472-.927-2.334-5.033-2.566,4.917-5.5.662,3.874,3.965Z" transform="translate(-221.705 -122.325)" fill="#ded4b7"/>
      <path id="Path_48612" data-name="Path 48612" d="M321.426,409.743l4.967-2.458,4.843,2.7-.8-5.488,4.064-3.775-5.472-.927-2.334-5.033-2.566,4.917-5.5.662,3.874,3.965Z" transform="translate(-217.489 -122.325)" fill="#ded4b7"/>
      <path id="Path_48613" data-name="Path 48613" d="M415.334,265.465c0,.124-22.234.224-49.667.224s-49.667-.1-49.667-.224,22.226-.215,49.667-.215S415.334,265.349,415.334,265.465Z" transform="translate(-217.038 -100.022)" fill="#263238"/>
      <path id="Path_48614" data-name="Path 48614" d="M396.3,258.263c0,.124-10.976.224-24.519.224s-24.527-.1-24.527-.224,10.976-.223,24.527-.223S396.3,258.139,396.3,258.263Z" transform="translate(-222.42 -98.78)" fill="#263238"/>
      <circle id="Ellipse_369" data-name="Ellipse 369" cx="28.244" cy="28.244" r="28.244" transform="matrix(0.307, -0.952, 0.952, 0.307, 117.351, 241.21)" fill="#ded4b7"/>
      <path id="Path_48615" data-name="Path 48615" d="M369,326.4c1.068-.083,2.036,1.093,2.169,2.641s-.637,2.864-1.705,2.955-2.045-1.093-2.169-2.632S367.935,326.49,369,326.4Z" transform="translate(-225.87 -110.552)" fill="#263238"/>
      <path id="Path_48616" data-name="Path 48616" d="M390.622,326c-1.068-.05-1.995,1.175-2.053,2.723s.753,2.839,1.821,2.881,1.995-1.175,2.061-2.723S391.7,326,390.622,326Z" transform="translate(-229.535 -110.483)" fill="#263238"/>
      <path id="Path_48617" data-name="Path 48617" d="M389.877,337.147c.05.05-.182.339-.637.828a16.1,16.1,0,0,1-2.119,1.912,15.082,15.082,0,0,1-3.733,2.045,13.169,13.169,0,0,1-5.182.828,15.115,15.115,0,0,1-5.091-1.176,21.738,21.738,0,0,1-3.75-1.962,11.35,11.35,0,0,1-3-2.483,32.623,32.623,0,0,1,3.311,1.92,26.265,26.265,0,0,0,3.717,1.747,15.829,15.829,0,0,0,4.843,1.051,13.311,13.311,0,0,0,4.867-.7,16.855,16.855,0,0,0,3.651-1.788c.96-.662,1.738-1.217,2.243-1.656S389.836,337.105,389.877,337.147Z" transform="translate(-225.711 -112.401)" fill="#263238"/>
      <path id="Path_48618" data-name="Path 48618" d="M369.651,318.619c-.05.248-1.4.157-3,.414s-2.864.745-2.988.522,1.068-1.118,2.856-1.391S369.734,318.387,369.651,318.619Z" transform="translate(-225.244 -109.12)" fill="#263238"/>
      <path id="Path_48619" data-name="Path 48619" d="M397.132,319.876c-.157.2-1.349-.513-2.955-.993s-2.988-.579-3-.828,1.482-.563,3.261,0S397.289,319.7,397.132,319.876Z" transform="translate(-229.985 -109.061)" fill="#263238"/>
      <path id="Path_48620" data-name="Path 48620" d="M366.333,334.7c.108,0,.29.273.315.828a3.228,3.228,0,0,1-.613,1.954,3.2,3.2,0,0,1-1.656,1.225c-.513.149-.828.075-.869,0,0-.248,1.043-.613,1.788-1.705S366.084,334.741,366.333,334.7Z" transform="translate(-225.22 -111.982)" fill="#263238"/>
      <path id="Path_48621" data-name="Path 48621" d="M396.984,337.363c0,.108-.215.281-.654.315a2.553,2.553,0,0,1-2.558-1.9c-.091-.43,0-.7.116-.712.248,0,.53.828,1.358,1.4S396.926,337.115,396.984,337.363Z" transform="translate(-230.425 -112.046)" fill="#263238"/>
      <path id="Path_48622" data-name="Path 48622" d="M408.2,327.369a4.976,4.976,0,0,0-.05-.571l-.108-1.656c0-.364-.041-.778-.066-1.225s-.149-.935-.223-1.465-.174-1.1-.273-1.705a19.324,19.324,0,0,0-.455-1.92,33.492,33.492,0,0,0-3.891-9.3,34.9,34.9,0,0,0-8.882-9.933l-1.515-1.118c-.53-.348-1.084-.671-1.656-1.01a17.508,17.508,0,0,0-1.705-.985l-1.813-.869-.919-.439-.969-.348-1.97-.72c-.662-.223-1.366-.364-2.053-.546a16.265,16.265,0,0,0-2.111-.48,32.29,32.29,0,0,0-4.412-.513c-.753,0-1.515-.1-2.276-.083l-2.31.116a6.145,6.145,0,0,0-1.167.075l-1.167.182c-.77.124-1.565.215-2.343.381a35.431,35.431,0,0,0-4.652,1.366,36.7,36.7,0,0,0-4.553,1.995c-.737.406-1.44.869-2.169,1.3-.356.232-.737.422-1.076.679l-1.026.77a39.886,39.886,0,0,0-3.957,3.361l-1.771,1.954-.447.5-.406.53-.828,1.068-.828,1.068-.7,1.151-.7,1.159-.348.579-.3.6-1.184,2.483-.944,2.583a34.535,34.535,0,0,0,0,22.011c.323.828.637,1.722.952,2.583s.786,1.656,1.184,2.483l.3.613.348.579.7,1.151.7,1.151.828,1.076.828,1.068.4.53.447.488,1.771,1.954a39.813,39.813,0,0,0,3.957,3.369l1.035.762c.339.265.72.455,1.076.687.728.43,1.432.894,2.169,1.3a38.557,38.557,0,0,0,9.2,3.361c.778.166,1.573.257,2.351.381l1.159.182c.389.05.778.05,1.167.074l2.31.116c.762,0,1.523-.058,2.276-.083a32.117,32.117,0,0,0,4.412-.513,17.746,17.746,0,0,0,2.111-.48c.7-.182,1.391-.331,2.061-.546l1.962-.72.969-.348.919-.439,1.813-.869a19.041,19.041,0,0,0,1.705-.985c.555-.339,1.117-.662,1.656-1.01l1.507-1.126a34.908,34.908,0,0,0,8.89-9.933,33.633,33.633,0,0,0,3.882-9.346,19.188,19.188,0,0,0,.455-1.912c.1-.6.19-1.175.273-1.705s.174-1.018.223-1.465.05-.828.066-1.225c.05-.72.083-1.275.108-1.656s.05-.571.05-.571v.571c0,.381-.041.944-.066,1.656a10.524,10.524,0,0,1-.05,1.233c-.05.406-.132.944-.2,1.473s-.166,1.109-.257,1.722a19.607,19.607,0,0,1-.439,1.92,33.227,33.227,0,0,1-3.833,9.412,34.974,34.974,0,0,1-8.907,10.033l-1.523,1.142c-.53.356-1.093.679-1.656,1.026a14.76,14.76,0,0,1-1.722.993l-1.821.886-.927.472-.977.356-1.978.728c-.679.232-1.382.373-2.078.563a18.213,18.213,0,0,1-2.136.5,32.694,32.694,0,0,1-4.462.522c-.753,0-1.523.108-2.293.1l-2.334-.116a6.106,6.106,0,0,1-1.184-.074l-1.175-.182c-.786-.124-1.589-.215-2.376-.381a38.022,38.022,0,0,1-4.71-1.374,37.461,37.461,0,0,1-4.6-2.012c-.753-.406-1.465-.877-2.2-1.316a11.514,11.514,0,0,1-1.093-.687l-1.043-.778a39.525,39.525,0,0,1-4.006-3.394l-1.8-1.978-.455-.5-.406-.538-.828-1.076-.828-1.093-.712-1.159-.712-1.167-.356-.588-.3-.621-1.2-2.483c-.323-.869-.637-1.747-.96-2.616a35,35,0,0,1,0-22.284l.96-2.616,1.2-2.483.306-.621.356-.588.712-1.167.712-1.159.828-1.084.828-1.084.406-.538.447-.5c.6-.654,1.2-1.316,1.8-1.97a40.706,40.706,0,0,1,4.007-3.4l1.043-.778c.348-.257.728-.455,1.093-.687.737-.43,1.457-.9,2.2-1.308a37.462,37.462,0,0,1,4.6-2.011,38.017,38.017,0,0,1,4.71-1.374c.786-.166,1.589-.257,2.376-.381l1.175-.182c.389-.05.786-.05,1.175-.075l2.334-.116c.778,0,1.54.066,2.3.1a32.685,32.685,0,0,1,4.462.521,20.481,20.481,0,0,1,2.136.488c.7.2,1.4.339,2.069.563l1.987.728.977.364.927.447,1.829.877c.613.281,1.151.679,1.714,1s1.126.671,1.656,1.026l1.523,1.142a34.975,34.975,0,0,1,8.907,10.016,33.285,33.285,0,0,1,3.841,9.387c.149.687.372,1.316.439,1.929s.174,1.184.257,1.722.157,1.018.2,1.473,0,.828.05,1.225c0,.728.05,1.283.066,1.656A3.782,3.782,0,0,1,408.2,327.369Z" transform="translate(-220.789 -104.651)" fill="#ded4b7"/>
      <rect id="Rectangle_4009" data-name="Rectangle 4009" width="256.059" height="12.773" transform="translate(20.976 123.516)" fill="#e0e0e0"/>
      <path id="Path_48623" data-name="Path 48623" d="M231.05,221.79a1.73,1.73,0,1,1-1.73-1.73A1.73,1.73,0,0,1,231.05,221.79Z" transform="translate(-201.813 -92.239)" fill="#fff"/>
      <path id="Path_48624" data-name="Path 48624" d="M237.99,221.79a1.73,1.73,0,1,1-1.73-1.73A1.73,1.73,0,0,1,237.99,221.79Z" transform="translate(-203.008 -92.239)" fill="#fff"/>
      <path id="Path_48625" data-name="Path 48625" d="M244.94,221.79a1.73,1.73,0,1,1-1.73-1.73,1.73,1.73,0,0,1,1.73,1.73Z" transform="translate(-204.205 -92.239)" fill="#fff"/>
      <path id="Path_48626" data-name="Path 48626" d="M455.711,277.635c0,.124-44.427.223-99.227.223s-99.235-.1-99.235-.223,44.427-.215,99.235-.215S455.711,277.519,455.711,277.635Z" transform="translate(-206.921 -102.118)" fill="#e0e0e0"/>
      <path id="Path_48627" data-name="Path 48627" d="M455.711,283.583c0,.116-44.427.215-99.227.215s-99.235-.1-99.235-.215,44.427-.224,99.235-.224S455.711,283.459,455.711,283.583Z" transform="translate(-206.921 -103.14)" fill="#e0e0e0"/>
      <path id="Path_48628" data-name="Path 48628" d="M338.133,199.026s-1.747-3.965-2.078-4.834c-.886-2.376-6.622-18.294-5.24-20.695,6.349-11.15,11.274-19.039,23.8-19.039l22.127-.149s20.96-4.271,35.735,43.409Z" transform="translate(-219.553 -80.899)" fill="#455a64"/>
      <path id="Path_48629" data-name="Path 48629" d="M282.513,203l28.972-6.242,34.055-17.9.124-24.444c-5.107-1.407-14.9,2.136-32.491,11.1l-26.15,13.5a15.48,15.48,0,0,0-4.511,24.006Z" transform="translate(-210.604 -80.882)" fill="#455a64"/>
      <path id="Path_48630" data-name="Path 48630" d="M357.911,267.65c-.422-1.374-.132-2.26,1.871-1.581,4.42,1.482,8.369.993,9.329.141s.083-2.483-1.358-2.359a17.442,17.442,0,0,1-4.652-.646,11.374,11.374,0,0,1-3.468-1.465c-.927-.588-1.722-1.142-2.425-1.656,0,0-4.081-2.947-5.356-5.314l-13.981,5.985,2.252,7a7.45,7.45,0,0,0,4.727,5.414c4,1.3,10.356.828,10.356.828,1.167-.762,5.662,5.745,7.028,8.038s2.98,2.583,3.51,1.184c.356-.96-3.642-8.087-5.033-10.331a27.159,27.159,0,0,1-2.8-5.256" transform="translate(-220.805 -98.217)" fill="#b77153"/>
      <path id="Path_48631" data-name="Path 48631" d="M350.067,277.075c0,.05-.348,0-.828-.2a3.452,3.452,0,0,1-1.465-1.424,3.584,3.584,0,0,1-.455-1.995c.05-.53.215-.828.265-.828a4.619,4.619,0,0,0,2.483,4.42Z" transform="translate(-222.43 -101.293)" fill="#995037"/>
      <path id="Path_48632" data-name="Path 48632" d="M355.463,277.353c0,.05-.331,0-.778-.223a3.468,3.468,0,0,1-1.366-1.4,3.551,3.551,0,0,1-.43-1.912c.05-.5.19-.828.248-.77a6.532,6.532,0,0,0,.571,2.483,6.722,6.722,0,0,0,1.755,1.821Z" transform="translate(-223.39 -101.364)" fill="#995037"/>
      <path id="Path_48633" data-name="Path 48633" d="M282.32,208.383s44.386,51.008,44.328,50.164,19.867-15.728,19.867-15.728L303.031,191Z" transform="translate(-211.238 -87.235)" fill="#455a64"/>
      <path id="Path_48634" data-name="Path 48634" d="M314.84,199.92a3.474,3.474,0,0,1,.315.3l.828.927,2.98,3.444c2.483,2.914,5.935,6.97,9.71,11.465s7.177,8.584,9.619,11.589l2.872,3.535.77.977c.166.223.257.348.24.356a1.7,1.7,0,0,1-.306-.3l-.828-.927c-.753-.828-1.755-2.028-2.98-3.444-2.483-2.914-5.943-6.97-9.718-11.465s-7.169-8.584-9.619-11.589l-2.872-3.535c-.306-.389-.563-.712-.762-.977a1.84,1.84,0,0,1-.248-.356Z" transform="translate(-216.838 -88.771)" fill="#263238"/>
      <path id="Path_48635" data-name="Path 48635" d="M408.045,202.826a14.986,14.986,0,0,0,.53-3.311,9.776,9.776,0,0,0-2.9-7.152c-1.076-1.134-2.235-2.111-3.17-3.137a9.553,9.553,0,0,1-1.987-3.1,5.472,5.472,0,0,1-.364-2.483,2.285,2.285,0,0,1,.232-.886,6.224,6.224,0,0,0,.422,3.228,10,10,0,0,0,1.995,2.939c.927.985,2.086,1.945,3.187,3.1a10.14,10.14,0,0,1,2.392,3.824,9.8,9.8,0,0,1,.505,3.642,8.55,8.55,0,0,1-.472,2.434,2.931,2.931,0,0,1-.372.894Z" transform="translate(-231.528 -85.816)" fill="#263238"/>
      <path id="Path_48636" data-name="Path 48636" d="M334.249,159.244s.223-.116.646-.306a18.433,18.433,0,0,1,1.92-.7,16.555,16.555,0,0,1,3.179-.646,10.811,10.811,0,0,1,4.288.4,9.991,9.991,0,0,1,4.379,2.814,11.589,11.589,0,0,1,2.665,5.389,20.447,20.447,0,0,1,.422,6.622,14.388,14.388,0,0,1-2.483,6.622,18.211,18.211,0,0,1-5.306,4.71c-1.945,1.225-3.9,2.218-5.753,3.2l-9.859,5.182-6.622,3.452-1.821.919a3.534,3.534,0,0,1-.654.29,5.4,5.4,0,0,1,.613-.372l1.78-.993,6.622-3.576,9.8-5.256c1.846-.985,3.808-1.995,5.72-3.212a17.988,17.988,0,0,0,5.182-4.594,13.931,13.931,0,0,0,2.384-6.448,20.339,20.339,0,0,0-.389-6.457,11.275,11.275,0,0,0-2.483-5.207,9.61,9.61,0,0,0-4.205-2.765,10.761,10.761,0,0,0-4.139-.455,17.069,17.069,0,0,0-3.154.571c-.828.24-1.5.455-1.937.613A3.384,3.384,0,0,1,334.249,159.244Z" transform="translate(-217.598 -81.471)" fill="#263238"/>
      <path id="Path_48637" data-name="Path 48637" d="M319.31,203.366a22.687,22.687,0,0,0-2.483-5.919,25.122,25.122,0,0,0-4.387-4.677,5.687,5.687,0,0,1,1.656,1.01,14.221,14.221,0,0,1,4.967,7.682A5.6,5.6,0,0,1,319.31,203.366Z" transform="translate(-216.425 -87.54)" fill="#263238"/>
      <path id="Path_48638" data-name="Path 48638" d="M393.767,195.513a5.365,5.365,0,0,1-.944.257,9.611,9.611,0,0,1-2.8.124,10.4,10.4,0,0,1-4.205-1.382,9.677,9.677,0,0,1-3.882-4.362,10.289,10.289,0,0,1-.538-7.044,5.794,5.794,0,0,1,2.343-3.245,2.906,2.906,0,0,1,2.119-.439,3.129,3.129,0,0,1,1.838,1.225,10.248,10.248,0,0,1,.993,8.832,10.48,10.48,0,0,1-2.483,4.139A9.578,9.578,0,0,1,381.9,196.1a9.867,9.867,0,0,1-9.271-2.218,9.677,9.677,0,0,1-2.773-8.41,8.386,8.386,0,0,1,1.656-3.891,4.213,4.213,0,0,1,1.656-1.267,2.665,2.665,0,0,1,2.036,0,3.791,3.791,0,0,1,2.16,3.013,6.358,6.358,0,0,1-.671,3.377,16.184,16.184,0,0,1-3.526,4.7,16.713,16.713,0,0,1-3.617,2.558,15.6,15.6,0,0,1-2.583,1.084c-.3.1-.538.149-.7.19a.977.977,0,0,1-.248.05.828.828,0,0,1,.232-.091c.157-.058.389-.124.687-.24a17.384,17.384,0,0,0,2.525-1.142A17.109,17.109,0,0,0,373,191.225a16.06,16.06,0,0,0,3.41-4.644,6.126,6.126,0,0,0,.613-3.212,3.46,3.46,0,0,0-1.962-2.715,2.3,2.3,0,0,0-1.755,0,3.8,3.8,0,0,0-1.49,1.159,7.913,7.913,0,0,0-1.589,3.717,9.263,9.263,0,0,0,2.665,8.03,9.429,9.429,0,0,0,8.841,2.061,9.039,9.039,0,0,0,4.139-2.318,10.025,10.025,0,0,0,2.409-3.932,10.761,10.761,0,0,0,.488-4.445,8.782,8.782,0,0,0-.455-2.127,6.135,6.135,0,0,0-.927-1.879,2.765,2.765,0,0,0-1.606-1.084,2.483,2.483,0,0,0-1.829.381,5.372,5.372,0,0,0-2.219,2.988,9.991,9.991,0,0,0,.464,6.813,9.4,9.4,0,0,0,3.733,4.28,10.215,10.215,0,0,0,4.1,1.424A11.315,11.315,0,0,0,393.767,195.513Z" transform="translate(-225.652 -85.233)" fill="#fafafa"/>
      <path id="Path_48639" data-name="Path 48639" d="M403.142,137.582a10.033,10.033,0,0,1-1.978-3.932,2.632,2.632,0,0,1-.05-1.432,1.093,1.093,0,0,1,1.068-.828c.5,0,.828.5,1.1.927a21.372,21.372,0,0,1,2.036,3.874,2.93,2.93,0,0,1,.24,1.175,1.184,1.184,0,0,1-.571,1,1.225,1.225,0,0,1-1.25-.166,3.7,3.7,0,0,1-.828-1" transform="translate(-231.683 -76.969)" fill="#995037"/>
      <path id="Path_48640" data-name="Path 48640" d="M405.6,136.245l-2.185-4.586a3.683,3.683,0,0,1-.455-1.424,1.242,1.242,0,0,1,.7-1.225,1.225,1.225,0,0,1,1.209.315,3.459,3.459,0,0,1,.737,1.076l1.035,2.012a6.438,6.438,0,0,1,.679,1.705,2.2,2.2,0,0,1-.339,1.763,1.349,1.349,0,0,1-1.656.389" transform="translate(-232.013 -76.551)" fill="#995037"/>
      <path id="Path_48641" data-name="Path 48641" d="M393.707,150.143s-3.046-3.949-3.311-6.026,2.276-5.794,7.748-6.622a13.377,13.377,0,0,0,5.629-1.92,1.763,1.763,0,0,0,.637-2.136c-.72-1.747-2.012-4.967-1.912-5.422.257-1.118.985-1.093,2.872,1.656s4.081,5.579,3.659,6.854-7.094,5.223-7.094,5.223l1.821,2.939Z" transform="translate(-229.847 -76.269)" fill="#b77153"/>
      <path id="Path_48642" data-name="Path 48642" d="M411.891,193.793l-21-41.149,13.526-7.574,28.41,45.032s1.5,2.881,3.593,6.25H412.6" transform="translate(-229.935 -79.325)" fill="#455a64"/>
      <path id="Path_48643" data-name="Path 48643" d="M404.138,145.07a1.946,1.946,0,0,1-.232.166l-.712.43-2.715,1.581-9.768,5.563.074-.248c2.045,4.139,4.7,8.981,7.376,14.221,3.982,7.74,7.45,14.834,9.851,20,1.209,2.583,2.169,4.685,2.823,6.134.306.7.555,1.258.737,1.656a3.012,3.012,0,0,1,.232.6,3.13,3.13,0,0,1-.315-.563c-.2-.414-.472-.96-.828-1.656l-2.947-6.076c-2.483-5.124-5.977-12.193-9.933-19.933-2.674-5.232-5.314-10.058-7.326-14.246l-.074-.166.157-.091,9.842-5.422,2.773-1.5.737-.381A.969.969,0,0,1,404.138,145.07Z" transform="translate(-229.848 -79.325)" fill="#263238"/>
      <path id="Path_48644" data-name="Path 48644" d="M338.972,206.339a25.439,25.439,0,0,1-3.5-9.669c.132,0,.7,2.2,1.656,4.859S339.087,206.281,338.972,206.339Z" transform="translate(-220.391 -88.211)" fill="#263238"/>
      <path id="Path_48645" data-name="Path 48645" d="M394.919,128.016a8.278,8.278,0,0,0,9.793-12.557c4.743-1.2,7.7-6.672,6.738-11.473s-5.24-8.543-10.024-9.577a10.761,10.761,0,0,0-5.546.141A6.821,6.821,0,0,0,391.74,98.1" transform="translate(-230.082 -70.549)" fill="#263238"/>
      <path id="Path_48646" data-name="Path 48646" d="M393.583,122.055c0,.05-.613.166-1.614.687a7.127,7.127,0,0,0-3.17,3.41,7.02,7.02,0,0,0,.53,6.672,6.687,6.687,0,0,0,1.324,1.507,6.572,6.572,0,0,0,1.771,1.1,6.953,6.953,0,0,0,8.021-1.829,6.747,6.747,0,0,0,1.117-1.763,6.864,6.864,0,0,0,.538-1.929,7.086,7.086,0,0,0-6.755-7.947c-1.134-.041-1.755.141-1.763.083a1.731,1.731,0,0,1,.447-.124,6.01,6.01,0,0,1,1.316-.132,7.272,7.272,0,0,1,7.193,8.162,6.539,6.539,0,0,1-.555,2.045,6.8,6.8,0,0,1-1.175,1.879,7.351,7.351,0,0,1-8.518,1.945,7.035,7.035,0,0,1-1.871-1.184,6.846,6.846,0,0,1-1.391-1.6,7.45,7.45,0,0,1-1.151-3.708,7.251,7.251,0,0,1,4.048-6.746,5.646,5.646,0,0,1,1.25-.455,1.821,1.821,0,0,1,.406-.075Z" transform="translate(-229.416 -75.316)" fill="#32cd32"/>
      <path id="Path_48647" data-name="Path 48647" d="M386.226,99.34A8.137,8.137,0,0,0,390.05,84.3,10.107,10.107,0,0,0,374.96,72.47a13.41,13.41,0,0,0-24.834,3.973,12.963,12.963,0,0,0-16.638,17.59,10.044,10.044,0,0,0,1.705,20.016,8.857,8.857,0,0,0,13.427,9.933,9.7,9.7,0,0,0,17.433-2" transform="translate(-218.467 -65.647)" fill="#263238"/>
      <path id="Path_48648" data-name="Path 48648" d="M381.84,141.547c.174-4.031.389-7.682.389-7.682s9.015-1.134,9.4-10.331-.53-30.371-.53-30.371L374.547,85.2,356.7,99.57l2.8,42.217a11.208,11.208,0,0,0,11.7,10.447h0A11.192,11.192,0,0,0,381.84,141.547Z" transform="translate(-224.047 -69.014)" fill="#b77153"/>
      <path id="Path_48649" data-name="Path 48649" d="M396.782,113.553c-.149.157-1.01-.563-2.243-.613s-2.152.579-2.276.414.083-.356.48-.654a2.914,2.914,0,0,1,1.829-.522,2.964,2.964,0,0,1,1.78.687C396.724,113.2,396.848,113.487,396.782,113.553Z" transform="translate(-230.166 -73.66)" fill="#263238"/>
      <path id="Path_48650" data-name="Path 48650" d="M380.262,113.553c-.149.157-1-.563-2.243-.613s-2.144.579-2.276.414.083-.356.48-.654a2.914,2.914,0,0,1,1.829-.522,2.964,2.964,0,0,1,1.78.687C380.2,113.2,380.328,113.487,380.262,113.553Z" transform="translate(-227.32 -73.66)" fill="#263238"/>
      <path id="Path_48651" data-name="Path 48651" d="M386.726,122.753a7.367,7.367,0,0,1,2.012-.306c.315,0,.613-.083.671-.306a1.846,1.846,0,0,0-.19-1.01q-.43-1.242-.894-2.608a46.417,46.417,0,0,1-1.987-6.813,47.182,47.182,0,0,1,2.483,6.622l.828,2.624a2.169,2.169,0,0,1,.141,1.333.828.828,0,0,1-.53.472,1.813,1.813,0,0,1-.53.058,7.542,7.542,0,0,1-2-.066Z" transform="translate(-229.149 -73.58)" fill="#263238"/>
      <path id="Path_48652" data-name="Path 48652" d="M385.058,143.187a21.92,21.92,0,0,1-11.928-3.907s2.806,6.7,11.771,6.167Z" transform="translate(-226.877 -78.328)" fill="#995037"/>
      <path id="Path_48653" data-name="Path 48653" d="M371.63,85.519a12.152,12.152,0,0,0,.166,14.072,7.063,7.063,0,0,0,5.571,3.1c2.21-.083,4.346-2.169,3.874-4.329a4.569,4.569,0,1,0,8.758.157,8.346,8.346,0,0,0,1.035,2.814,2.79,2.79,0,0,0,2.541,1.341c1.382-.182,2.185-1.656,2.483-3.038a12.475,12.475,0,0,0-3.518-11.49,15.082,15.082,0,0,0-11.49-4.031,19.2,19.2,0,0,0-11.283,4.967" transform="translate(-226.246 -68.821)" fill="#263238"/>
      <path id="Path_48654" data-name="Path 48654" d="M369.28,89.74a21.324,21.324,0,0,1,1.854,8.278,11.067,11.067,0,0,1-2.98,7.748,7.525,7.525,0,0,1-7.823,1.879,8.708,8.708,0,0,1-1.142,7.342c-1.54,2.045-4.569,3.021-6.813,1.788-2.036-1.109-2.914-3.576-3.2-5.877a18.824,18.824,0,0,1,20.471-21" transform="translate(-222.729 -69.796)" fill="#263238"/>
      <path id="Path_48655" data-name="Path 48655" d="M358.657,116.14c-1.225-.762-2.9-.141-3.874.927a5.29,5.29,0,0,0,5.265,8.675" transform="translate(-223.48 -74.285)" fill="#b77153"/>
      <path id="Path_48656" data-name="Path 48656" d="M358.777,123.557c0,.05-.406.108-1.043-.066a2.79,2.79,0,0,1-1.887-1.656,2.045,2.045,0,0,1,.05-1.473,2.211,2.211,0,0,1,.762-.9c.571-.373,1-.364,1.01-.315s-.373.174-.828.563a1.813,1.813,0,0,0-.588,1.987,2.765,2.765,0,0,0,1.581,1.531C358.437,123.433,358.785,123.491,358.777,123.557Z" transform="translate(-223.881 -74.856)" fill="#995037"/>
      <path id="Path_48657" data-name="Path 48657" d="M380.852,109c-.116.356-1.465.224-3.063.3s-2.93.273-3.071-.075,1.159-1.184,3.021-1.25S380.976,108.656,380.852,109Z" transform="translate(-227.149 -72.935)" fill="#263238"/>
      <path id="Path_48658" data-name="Path 48658" d="M396.853,108.6c-.141.124-.414,0-.737-.041a3.2,3.2,0,0,0-1.126-.066c-.48,0-1.01.132-1.415.124s-.687-.091-.737-.273.132-.4.472-.629a3.6,3.6,0,0,1,1.565-.546,2.086,2.086,0,0,1,1.78.629C396.961,108.168,396.986,108.483,396.853,108.6Z" transform="translate(-230.27 -72.794)" fill="#263238"/>
      <path id="Path_48659" data-name="Path 48659" d="M384.083,127.8a2.8,2.8,0,0,1,2.326-.331,1.738,1.738,0,0,1,1.151,1.9,1.854,1.854,0,0,1-.745,1.06,2.409,2.409,0,0,1-1.912.464,1.879,1.879,0,0,1-1.432-1.3,1.54,1.54,0,0,1,.753-1.722" transform="translate(-228.65 -76.273)" fill="#995037"/>
      <path id="Path_48660" data-name="Path 48660" d="M388.559,128.613a2.107,2.107,0,0,1-.886.381,3.965,3.965,0,0,1-2.334-.224,4.056,4.056,0,0,1-1.8-1.5c-.331-.5-.4-.877-.348-.9s.232.29.6.72a4.785,4.785,0,0,0,1.722,1.275,4.71,4.71,0,0,0,2.119.323C388.187,128.646,388.534,128.547,388.559,128.613Z" transform="translate(-228.606 -76.104)" fill="#263238"/>
      <path id="Path_48661" data-name="Path 48661" d="M364.094,132.846a13.9,13.9,0,0,0-.315-1.738,7.1,7.1,0,0,0-2.616-3.841,6.97,6.97,0,0,0-2.955-1.291,7.119,7.119,0,0,0-3.667.315,6.621,6.621,0,0,0-1.763.96,6.39,6.39,0,0,0-1.465,1.482,6.937,6.937,0,0,0,0,8.22,6.39,6.39,0,0,0,1.465,1.482,6.623,6.623,0,0,0,1.763.96,7.069,7.069,0,0,0,9.238-4.818c.29-1.093.257-1.738.315-1.73a2.759,2.759,0,0,1,0,.455,5.677,5.677,0,0,1-.157,1.316,7.127,7.127,0,0,1-2.6,4.048,7.285,7.285,0,0,1-3.079,1.407,7.376,7.376,0,0,1-3.874-.3,6.936,6.936,0,0,1-1.871-1,6.845,6.845,0,0,1-1.565-1.565,7.309,7.309,0,0,1,0-8.733,6.846,6.846,0,0,1,1.564-1.565,6.937,6.937,0,0,1,1.871-1,7.268,7.268,0,0,1,6.953,1.109,7.127,7.127,0,0,1,2.6,4.048,5.677,5.677,0,0,1,.157,1.316,2.83,2.83,0,0,1,0,.464Z" transform="translate(-222.808 -75.95)" fill="#32cd32"/>
      <path id="Path_48662" data-name="Path 48662" d="M393.559,84.66a.679.679,0,0,1,.232.058,1.772,1.772,0,0,1,.579.372,2.674,2.674,0,0,1,.737,2.417,3.46,3.46,0,0,1-2.864,2.533,7.193,7.193,0,0,1-4.851-1.159l-1.705-.985,1.871.613a2.028,2.028,0,0,1,1.3,1.457,2.575,2.575,0,0,1-.265,1.978,2.757,2.757,0,0,1-1.656,1.192,3.915,3.915,0,0,1-2.094-.05,7.144,7.144,0,0,1-3.609-3.112l-1.258-1.722,1.523,1.482a3.311,3.311,0,0,1,.828,3.129,3.394,3.394,0,0,1-1.838,2.326,4.437,4.437,0,0,1-4.71-.571,5.621,5.621,0,0,1-1.821-2.69,5.684,5.684,0,0,1-.2-.828,1.6,1.6,0,0,1,0-.3c.041,0,.091.4.356,1.084a5.72,5.72,0,0,0,1.813,2.483,4.189,4.189,0,0,0,4.379.455,3.038,3.038,0,0,0,1.614-2.086,2.922,2.922,0,0,0-.72-2.732l.323-.273a6.788,6.788,0,0,0,3.369,2.93,2.914,2.914,0,0,0,3.311-.944,1.981,1.981,0,0,0-.77-2.823l.166-.372a6.912,6.912,0,0,0,4.569,1.184,3.2,3.2,0,0,0,2.7-2.285,2.616,2.616,0,0,0-.588-2.276,3.147,3.147,0,0,0-.72-.488Z" transform="translate(-226.984 -68.921)" fill="#455a64"/>
      <path id="Path_48663" data-name="Path 48663" d="M365.5,99.568s0,.058-.108.157a3.826,3.826,0,0,1-.389.414,5.4,5.4,0,0,1-1.846,1.1,5.265,5.265,0,0,1-3.311.05,5.53,5.53,0,0,1-3.311-2.839l.348-.05a5.356,5.356,0,1,1-9.006-4.7l.29.306a5.488,5.488,0,0,1-3.477,1.267,6,6,0,0,1-3.27-.894,4.967,4.967,0,0,1-1.962-2.3,5.844,5.844,0,0,1-.406-2.558,5.629,5.629,0,0,1,1.358-3.361,3.592,3.592,0,0,1,1.01-.828,5.906,5.906,0,0,0-2.1,4.247,5.6,5.6,0,0,0,.439,2.417,4.669,4.669,0,0,0,1.854,2.111,5.62,5.62,0,0,0,3.071.828,5.174,5.174,0,0,0,3.212-1.175l.281.306a5.124,5.124,0,0,0-1.051,5.571,5.066,5.066,0,0,0,5.53,2.806,5.149,5.149,0,0,0,3.874-4.031l.091-.579.257.53a5.265,5.265,0,0,0,3.046,2.715,5.05,5.05,0,0,0,3.187,0,5.513,5.513,0,0,0,1.838-.977C365.338,99.75,365.5,99.551,365.5,99.568Z" transform="translate(-221.005 -69.037)" fill="#455a64"/>
      <path id="Path_48664" data-name="Path 48664" d="M347.342,118.181a2.07,2.07,0,0,1-.72.43,4.876,4.876,0,0,1-2.293.356,4.727,4.727,0,0,1-3.154-1.54,5.107,5.107,0,0,1-1.25-4.247l.381.166a8.509,8.509,0,0,1-3.1,2.541,6.622,6.622,0,0,1-3.021.637,6.051,6.051,0,0,1-2.773-.762,4.909,4.909,0,0,1-2.641-3.915,4.685,4.685,0,0,1,.828-3.1,3.4,3.4,0,0,1,.621-.629.828.828,0,0,1,.265-.166,5.158,5.158,0,0,0-.745.894,4.669,4.669,0,0,0-.679,2.98,4.594,4.594,0,0,0,2.55,3.617,5.935,5.935,0,0,0,5.405.074,8.145,8.145,0,0,0,2.955-2.392l.538-.7-.157.828a4.776,4.776,0,0,0,1.1,3.924,4.544,4.544,0,0,0,2.914,1.523,5.149,5.149,0,0,0,2.21-.223C347.068,118.306,347.325,118.157,347.342,118.181Z" transform="translate(-219.234 -72.932)" fill="#455a64"/>
      <path id="Path_48665" data-name="Path 48665" d="M406.552,98.65a2.857,2.857,0,0,1,.182,1.531,5.521,5.521,0,0,1-4.843,5.058,2.74,2.74,0,0,1-1.531-.116c0-.075.588,0,1.482-.19a5.687,5.687,0,0,0,4.578-4.793C406.568,99.238,406.477,98.658,406.552,98.65Z" transform="translate(-231.566 -71.331)" fill="#455a64"/>
      <path id="Path_48666" data-name="Path 48666" d="M411.83,109.12a1.581,1.581,0,0,1,.207.629,3.584,3.584,0,0,1-.174,1.813,2.831,2.831,0,0,1-2,1.846,2.889,2.889,0,0,1-1.656-.149,2.309,2.309,0,0,1-1.316-1.275l.414-.141a2.906,2.906,0,0,1,.108.828,3.311,3.311,0,0,1-2.078,2.947,2.748,2.748,0,0,1-1.656.074,3.162,3.162,0,0,1-1.242-.687,2.972,2.972,0,0,1-1-1.738,1.817,1.817,0,0,1,0-.728,2.486,2.486,0,0,0,.141.7,3.1,3.1,0,0,0,1.035,1.531,2.583,2.583,0,0,0,2.55.472,2.922,2.922,0,0,0,1.78-2.574,2.242,2.242,0,0,0-.091-.679l.422-.141a2.243,2.243,0,0,0,2.483,1.192,2.55,2.55,0,0,0,1.8-1.564,3.784,3.784,0,0,0,.29-1.656C411.83,109.352,411.756,109.128,411.83,109.12Z" transform="translate(-231.745 -73.134)" fill="#455a64"/>
      <path id="Path_48667" data-name="Path 48667" d="M383.021,124c.058,0,.091.19,0,.472a1.945,1.945,0,0,1-1.656,1.358c-.29,0-.464-.05-.455-.108a5.152,5.152,0,0,0,1.2-.671C382.673,124.563,382.9,124,383.021,124Z" transform="translate(-228.217 -75.696)" fill="#263238"/>
    </g>
    <g id="freepik--Floor--inject-188" transform="translate(92.9 391.723)">
      <path id="Path_48668" data-name="Path 48668" d="M569.936,464.775c0,.124-106.784.215-238.5.215S92.9,464.924,92.9,464.775s106.784-.215,238.535-.215S569.936,464.659,569.936,464.775Z" transform="translate(-92.9 -464.56)" fill="#263238"/>
    </g>
    <g id="freepik--Plant--inject-188" transform="translate(505.216 316.588)">
      <path id="Path_48669" data-name="Path 48669" d="M618.935,404.419c-2.069,2.947-6.084,1.97-7.947.174s-2.649-4.412-3.369-6.9c-1.656-5.687-3.311-11.655-2.069-17.45a9.675,9.675,0,0,1,2.235-4.743,5.033,5.033,0,0,1,4.793-1.6c2.028.53,3.311,2.483,4.2,4.4a41.662,41.662,0,0,1,4.139,17.847c0,2.881-.331,5.894-1.954,8.278" transform="translate(-593.427 -373.794)" fill="#ded4b7"/>
      <g id="Group_37858" data-name="Group 37858" transform="translate(11.689 0)" opacity="0.2">
        <path id="Path_48670" data-name="Path 48670" d="M618.935,404.419c-2.069,2.947-6.084,1.97-7.947.174s-2.649-4.412-3.369-6.9c-1.656-5.687-3.311-11.655-2.069-17.45a9.675,9.675,0,0,1,2.235-4.743,5.033,5.033,0,0,1,4.793-1.6c2.028.53,3.311,2.483,4.2,4.4a41.662,41.662,0,0,1,4.139,17.847c0,2.881-.331,5.894-1.954,8.278" transform="translate(-605.116 -373.794)"/>
      </g>
      <path id="Path_48671" data-name="Path 48671" d="M608.763,428.5a17.9,17.9,0,0,0-11.142-1.358c-2.012.339-4.139.944-5.488,2.483s-1.656,4.18-.058,5.48a5.24,5.24,0,0,0,3.46.877c2.939,0,6.2-.546,8.543,1.217,1.341,1.01,2.235,2.69,3.833,3.187a3.8,3.8,0,0,0,4.139-1.854,6.481,6.481,0,0,0,.472-4.776A7.276,7.276,0,0,0,608.763,428.5Z" transform="translate(-590.995 -382.92)" fill="#ded4b7"/>
      <path id="Path_48672" data-name="Path 48672" d="M628.217,410.617a10.641,10.641,0,0,1-1.656-9.875,19.039,19.039,0,0,1,5.853-8.493,31.458,31.458,0,0,1,10.48-6.184,11.026,11.026,0,0,1,4.718-.828,4.966,4.966,0,0,1,3.949,2.392c1.109,2.1.05,4.652-1.093,6.738a79.957,79.957,0,0,1-6.9,10.538c-2.061,2.665-4.429,5.29-7.574,6.49s-6.407,1.06-8.079-1.117" transform="translate(-597.03 -375.763)" fill="#ded4b7"/>
      <path id="Path_48673" data-name="Path 48673" d="M618.79,458.923a6.332,6.332,0,0,1-.19-1.341c-.091-.969-.215-2.2-.356-3.659a52.877,52.877,0,0,0-.828-5.364,41.592,41.592,0,0,0-1.953-6.341,23.177,23.177,0,0,0-3.237-5.728,12.078,12.078,0,0,0-4.089-3.4,11.457,11.457,0,0,0-3.444-1.076,6.441,6.441,0,0,1-1.333-.19,5.661,5.661,0,0,1,1.358,0,10.53,10.53,0,0,1,3.593.935,12.144,12.144,0,0,1,4.313,3.435,22.93,22.93,0,0,1,3.353,5.844,39.009,39.009,0,0,1,1.937,6.44,44.41,44.41,0,0,1,.712,5.439c.116,1.556.166,2.814.182,3.684a6.321,6.321,0,0,1-.017,1.324Z" transform="translate(-593.124 -383.78)" fill="#263238"/>
      <path id="Path_48674" data-name="Path 48674" d="M620.242,448.581a3.317,3.317,0,0,1,0-.621v-1.78c0-1.54,0-3.775-.083-6.54-.132-5.521-.613-13.137-1.531-21.522s-2.152-15.91-3.261-21.315c-.265-1.358-.53-2.574-.828-3.642s-.439-1.995-.637-2.74-.306-1.275-.414-1.73a2.144,2.144,0,0,1-.108-.621,3.079,3.079,0,0,1,.215.588l.513,1.705c.232.737.464,1.656.737,2.723s.571,2.276.828,3.634a202.372,202.372,0,0,1,3.435,21.34c.919,8.394,1.333,16.034,1.366,21.564,0,2.765,0,5.008-.091,6.556-.05.72-.083,1.308-.116,1.78a1.987,1.987,0,0,1-.025.621Z" transform="translate(-594.85 -376.252)" fill="#263238"/>
      <path id="Path_48675" data-name="Path 48675" d="M621.622,434.787a11.459,11.459,0,0,1,0-1.863c.075-1.192.24-2.922.571-5.033a67.482,67.482,0,0,1,1.656-7.342,65.49,65.49,0,0,1,3.046-8.683,46.358,46.358,0,0,1,9.006-14.031,23.312,23.312,0,0,1,2.127-1.97c.323-.273.613-.546.9-.762l.828-.571a12.064,12.064,0,0,1,1.565-1,57.956,57.956,0,0,0-5.124,4.578,48.606,48.606,0,0,0-8.783,14.023A75.606,75.606,0,0,0,622.591,428c-.406,2.086-.6,3.8-.745,4.967A11.452,11.452,0,0,1,621.622,434.787Z" transform="translate(-596.263 -377.193)" fill="#263238"/>
    </g>
    <g id="freepik--speech-bubble--inject-188" transform="translate(208.354 41.617)">
      <path id="Path_48676" data-name="Path 48676" d="M263.851,41.619a5.506,5.506,0,0,1-.579.075l-1.656.141a18.352,18.352,0,0,0-2.715.389c-.538.116-1.126.166-1.722.348s-1.242.364-1.912.555a31.878,31.878,0,0,0-9.106,4.644,32.474,32.474,0,0,0-8.882,10.116,34.767,34.767,0,0,0-4.213,20.148c.05.762.215,1.515.323,2.285a17.318,17.318,0,0,0,.464,2.293,32.391,32.391,0,0,0,3.559,8.99,31.961,31.961,0,0,0,15.256,13.551,29.6,29.6,0,0,0,10.678,2.276,28.8,28.8,0,0,0,11.1-1.755l1.084-.414.141-.05.132.058,15.728,7.765-.455.406-5.016-14.975-.058-.19.132-.141a33.343,33.343,0,0,0,8.054-13.741,34.3,34.3,0,0,0,1.026-14.544A33.451,33.451,0,0,0,283.809,49a34.767,34.767,0,0,0-7.74-4.8,33.583,33.583,0,0,0-6.515-1.97l-2.434-.381-1.8-.108-1.1-.075a1.847,1.847,0,0,1-.373-.041,1.581,1.581,0,0,1,.373,0h1.1l1.813.05,2.483.339a32.871,32.871,0,0,1,6.622,1.9,34.145,34.145,0,0,1,7.872,4.785,33.525,33.525,0,0,1,7.309,8.626A34.022,34.022,0,0,1,295.8,69.739a34.767,34.767,0,0,1-.993,14.793,33.839,33.839,0,0,1-8.17,14.023l.058-.331c1.656,4.8,3.311,9.809,5.033,14.966l.257.753-.712-.348-15.728-7.756h.273l-1.109.422a29.262,29.262,0,0,1-11.349,1.763,30.181,30.181,0,0,1-10.91-2.326,32.59,32.59,0,0,1-15.538-13.857,32.938,32.938,0,0,1-3.617-9.106,16.146,16.146,0,0,1-.455-2.334c-.108-.778-.281-1.54-.323-2.318a33.871,33.871,0,0,1-.116-4.569,35.106,35.106,0,0,1,1.316-8.534,34.487,34.487,0,0,1,3.129-7.318,32.681,32.681,0,0,1,9.106-10.19,31.555,31.555,0,0,1,9.23-4.586l1.945-.53a17.175,17.175,0,0,1,1.73-.315,16.879,16.879,0,0,1,2.74-.331l1.7-.083Z" transform="translate(-232.374 -41.617)" fill="#263238"/>
      <path id="Path_48677" data-name="Path 48677" d="M275.34,74.11h-2.293L267.965,67.2l-.05-4.578s-3.543-.174-3.063,5.794,0,4.462,0,4.462-7.516.116-8.137.778c-.447.48-.571,7.955-.6,12a4.387,4.387,0,0,0,3.212,4.429,3.452,3.452,0,0,0,.828.1c1.879,0,11.44-1.656,11.44-1.656l3.965-.05Z" transform="translate(-236.462 -45.234)" fill="#ded4b7"/>
      <path id="Path_48678" data-name="Path 48678" d="M286.141,74.89l-1.233,15.687-3.924.05-.174-15.355Z" transform="translate(-240.715 -47.347)" fill="#ded4b7"/>
    </g>
  </g>
</svg>
