<svg xmlns="http://www.w3.org/2000/svg" width="32.001" height="24" viewBox="0 0 32.001 24">
  <g id="gmail" transform="translate(0 -64)">
    <rect id="Rectangle_3536" data-name="Rectangle 3536" width="24" height="24" transform="translate(4 64)" fill="#eceff1"/>
    <path id="Path_39773" data-name="Path 39773" d="M256,157.9l12,9.476V148.672Z" transform="translate(-240 -79.38)" fill="#cfd8dc"/>
    <path id="Path_39774" data-name="Path 39774" d="M29,64H28L16,73.476,4,64H3a3,3,0,0,0-3,3V85a3,3,0,0,0,3,3H4V69.292l12,9.23L28,69.29V88h1a3,3,0,0,0,3-3V67A3,3,0,0,0,29,64Z" fill="#f44336"/>
  </g>
</svg>
