<svg xmlns="http://www.w3.org/2000/svg" width="686.564" height="549.733" viewBox="0 0 686.564 549.733">
  <g id="illustration" transform="translate(-1108.968 -6367)">
    <path id="Path_45854" data-name="Path 45854" d="M1309.237,231.555s-1.612,15.9-14.16,17c12.548,1.1,14.16,17,14.16,17s1.612-15.9,14.161-17C1310.849,247.455,1309.237,231.555,1309.237,231.555Z" transform="translate(-186.109 6623.66)" fill="#fff" opacity="0.2"/>
    <path id="Path_45855" data-name="Path 45855" d="M1313.528,231.555s-2.1,20.718-18.451,22.151c16.35,1.433,18.451,22.152,18.451,22.152s2.1-20.719,18.452-22.152C1315.629,252.273,1313.528,231.555,1313.528,231.555Z" transform="translate(-149.4 6386.508)" fill="#fff" opacity="0.2"/>
    <path id="Path_45856" data-name="Path 45856" d="M1317.745,231.555s-2.581,25.453-22.668,27.214c20.087,1.761,22.668,27.215,22.668,27.215s2.581-25.454,22.669-27.215C1320.326,257.008,1317.745,231.555,1317.745,231.555Z" transform="translate(-17.617 6135.445)" fill="#fff" opacity="0.2"/>
    <path id="Path_45857" data-name="Path 45857" d="M1317.745,231.555s-2.581,25.453-22.668,27.214c20.087,1.761,22.668,27.215,22.668,27.215s2.581-25.454,22.669-27.215C1320.326,257.008,1317.745,231.555,1317.745,231.555Z" transform="translate(419.383 6561.445)" fill="#fff" opacity="0.2"/>
    <path id="Path_45858" data-name="Path 45858" d="M1309.891,231.555s-1.687,16.634-14.814,17.785c13.127,1.151,14.814,17.786,14.814,17.786s1.687-16.635,14.815-17.786C1311.578,248.189,1309.891,231.555,1309.891,231.555Z" transform="translate(377.236 6349.875)" fill="#fff" opacity="0.2"/>
    <path id="Path_45843" data-name="Path 45843" d="M1745.981,263.522s-2.581,25.454-22.668,27.215c20.087,1.761,22.668,27.215,22.668,27.215s2.582-25.454,22.667-27.215C1748.563,288.976,1745.981,263.522,1745.981,263.522Z" transform="translate(-410.617 6449.445)" fill="#ded4b7"/>
    <path id="Path_45844" data-name="Path 45844" d="M1335.554,672.572a21.915,21.915,0,0,0-26.866-16.274,32.26,32.26,0,0,0-38.787-17.134,39.736,39.736,0,0,0-71.375,6.943,27.258,27.258,0,0,0-40.511,23.821c0,.893.045,1.775.13,2.645Z" transform="translate(30.903 5884.428)" fill="#fff" opacity="0.2"/>
    <path id="Path_45852" data-name="Path 45852" d="M1335.554,672.572a21.915,21.915,0,0,0-26.866-16.274,32.26,32.26,0,0,0-38.787-17.134,39.736,39.736,0,0,0-71.375,6.943,27.258,27.258,0,0,0-40.511,23.821c0,.893.045,1.775.13,2.645Z" transform="translate(401.903 5774.428)" fill="#fff" opacity="0.2"/>
    <path id="Path_45853" data-name="Path 45853" d="M1299.7,661.946a17.49,17.49,0,0,0-21.441-12.988,25.746,25.746,0,0,0-30.955-13.674,31.712,31.712,0,0,0-56.962,5.541,21.754,21.754,0,0,0-32.331,19.011c0,.712.036,1.416.1,2.111Z" transform="translate(189.828 5810.741)" fill="#fff" opacity="0.2"/>
    <path id="Path_45862" data-name="Path 45862" d="M1299.7,661.946a17.49,17.49,0,0,0-21.441-12.988,25.746,25.746,0,0,0-30.955-13.674,31.712,31.712,0,0,0-56.962,5.541,21.754,21.754,0,0,0-32.331,19.011c0,.712.036,1.416.1,2.111Z" transform="translate(495.828 5874.741)" fill="#fff" opacity="0.2"/>
    <g id="Group_37127" data-name="Group 37127" transform="translate(940.734 6138.358)">
      <path id="Path_45768" data-name="Path 45768" d="M471.144,1090.971H583.47l9.318-25.086a35.484,35.484,0,0,1,18.692-19.938,89.333,89.333,0,0,0,29.7-22.276,206.335,206.335,0,0,0,31.613-48.052l-69.612-.341s6.265-38.939-28.333-90.655a29.274,29.274,0,0,1-4.811-18.814l3.28-37.718s23.511-26.274,9.086-58.871c0,0-13.794-19.1-19.266-12.107,0,0-41.666,99.218-45.459,113.971s-8.852,24.026-3.794,70.392a280.994,280.994,0,0,1,1.8,30.928,109.753,109.753,0,0,1-10.551,46.713Z" transform="translate(-115.861 -312.596)" fill="#f6c19d"/>
      <path id="Path_45769" data-name="Path 45769" d="M575.909,1602.968c-10.426-11.575-24.909-9.748-40.141-15.028s-20.116-43.348-20.116-43.348l0-.005c.024,1.437.036,2.832.033,4.175a109.753,109.753,0,0,1-10.551,46.713l-33.989,71.854H583.47l9.318-25.086a35.484,35.484,0,0,1,18.692-19.938,87.423,87.423,0,0,0,24.943-17.3C605.485,1618.013,586.335,1614.543,575.909,1602.968Z" transform="translate(-115.861 -888.955)" fill="#f6c19d" opacity="0.2" style="mix-blend-mode: multiply;isolation: isolate"/>
      <g id="Group_37103" data-name="Group 37103" transform="translate(410.379 327.642)">
        <path id="Path_45770" data-name="Path 45770" d="M675.566,332.251c25.823,40.746,89.47,77.057,89.47,77.057s-50.595-4.109-75.7-36.807l9.1-7.54s-7.236.7-13.3,1.4C679.555,357.1,675.938,345.865,675.566,332.251Z" transform="translate(-675.566 -331.009)" fill="#ebebeb"/>
        <path id="Path_45771" data-name="Path 45771" d="M743.323,345.735c-3.927,1.782-9.736,4.5-9.736,4.5l5.6-8.042a65.239,65.239,0,0,0-20.8-10.665c-2.882,4.2-6.269,8.886-6.269,8.886l-.672-10.7a99.281,99.281,0,0,0-35.875-.822c25.823,40.746,89.47,77.057,89.47,77.057C764.749,376,755.633,357.31,743.323,345.735Z" transform="translate(-675.566 -327.642)" fill="#fff"/>
      </g>
      <g id="Group_37104" data-name="Group 37104" transform="translate(400.897 377.99)">
        <path id="Path_45772" data-name="Path 45772" d="M640.386,522.834a59.973,59.973,0,0,1,22.791-7.851c2.256,2.576,5.024,5.6,5.024,5.6l.154-6.064c28.783-1.379,53.05,16.749,53.05,16.749-16.471,10.02-30.645,12.83-42.324,12-.736-2.118-1.783-5.277-1.783-5.277l-1.954,4.881a53.1,53.1,0,0,1-14.878-4.416c1.036-2.532,2.123-5.425,2.123-5.425l-6.137,3.363A54.53,54.53,0,0,1,640.386,522.834Z" transform="translate(-640.386 -514.448)" fill="#fff"/>
        <path id="Path_45773" data-name="Path 45773" d="M679.081,563.993c-.736-2.118-1.783-5.277-1.783-5.277l-1.954,4.881a53.1,53.1,0,0,1-14.878-4.416c1.036-2.532,2.123-5.425,2.123-5.425l-6.137,3.363a54.53,54.53,0,0,1-16.065-13.561c33.488-3.827,81.019,8.438,81.019,8.438C704.934,562.015,690.76,564.825,679.081,563.993Z" transform="translate(-640.386 -535.171)" fill="#ebebeb"/>
      </g>
      <g id="Group_37105" data-name="Group 37105" transform="translate(670.691 370.672)">
        <path id="Path_45774" data-name="Path 45774" d="M1685.382,498.815l-2.428,18.3,13-9.492,39.783-20.324-30.772,2.817s-15.676,3.808-16.525,4.576A38.123,38.123,0,0,0,1685.382,498.815Z" transform="translate(-1671.756 -487.298)" fill="#938c78"/>
        <path id="Path_45775" data-name="Path 45775" d="M1641.406,487.765l63.979-.467-50.353,11.517Z" transform="translate(-1641.406 -487.298)" fill="#ded4b7"/>
        <path id="Path_45776" data-name="Path 45776" d="M1722.838,517.224l-16.764-13.466,46.55-16.461Z" transform="translate(-1688.645 -487.298)" fill="#ded4b7"/>
      </g>
      <g id="Group_37109" data-name="Group 37109" transform="translate(625.281 389.464)">
        <g id="Group_37106" data-name="Group 37106" transform="translate(52.039 0)">
          <path id="Path_45777" data-name="Path 45777" d="M1666.4,559.281a19.363,19.363,0,0,1,4.271-1.122l-.12-1.136a20.261,20.261,0,0,0-4.553,1.189Z" transform="translate(-1665.999 -557.023)" fill="#fff"/>
        </g>
        <g id="Group_37107" data-name="Group 37107" transform="translate(12.124 5.815)">
          <path id="Path_45778" data-name="Path 45778" d="M1517.9,676.956a72.048,72.048,0,0,0,7.407-4.3l.633.951a73.207,73.207,0,0,1-7.524,4.367Zm14.149-9.544a46.453,46.453,0,0,0,5.749-6.286l.912.688a47.555,47.555,0,0,1-5.891,6.442Zm10.165-13.558c.56-1.176,1.076-2.4,1.532-3.642.517-1.4.974-2.874,1.359-4.366l1.106.286c-.395,1.528-.863,3.034-1.393,4.475-.468,1.274-1,2.532-1.573,3.739Zm4.614-24.986,1.142-.026a73.915,73.915,0,0,1-.282,8.7l-1.137-.107A72.717,72.717,0,0,0,1546.83,628.868Zm-1.625-17.125,1.131-.162c.479,3.343.82,6.075,1.075,8.6l-1.137.115C1546.02,617.787,1545.68,615.07,1545.2,611.743Zm-1.279-8.6a42.04,42.04,0,0,1-.432-8.673l1.14.071a40.965,40.965,0,0,0,.421,8.432l.01.067-1.132.156Zm1.436-17.257a20.739,20.739,0,0,1,4.959-7.287l.785.83a19.616,19.616,0,0,0-4.687,6.889Z" transform="translate(-1517.902 -578.597)" fill="#fff"/>
        </g>
        <g id="Group_37108" data-name="Group 37108" transform="translate(0 107.682)">
          <path id="Path_45779" data-name="Path 45779" d="M1473.295,959.213c1.471-.511,2.92-1.047,4.307-1.593l-.419-1.063c-1.373.541-2.808,1.072-4.264,1.578Z" transform="translate(-1472.92 -956.557)" fill="#141414"/>
        </g>
      </g>
      <g id="Group_37110" data-name="Group 37110" transform="translate(618.045 369.353)">
        <path id="Path_45780" data-name="Path 45780" d="M1447.759,491.415s23.792-15.924,29.225-5.433-30.911,47.614-30.911,47.614Z" transform="translate(-1446.073 -482.405)" fill="#f6c19d"/>
        <path id="Path_45781" data-name="Path 45781" d="M1447.759,748.839s23.792-15.923,29.225-5.433-30.911,47.614-30.911,47.614Z" transform="translate(-1446.073 -670.449)" fill="#f6c19d"/>
        <path id="Path_45782" data-name="Path 45782" d="M1447.759,924.227s23.792-15.924,29.225-5.433-30.911,47.614-30.911,47.614Z" transform="translate(-1446.073 -798.566)" fill="#f6c19d"/>
      </g>
      <path id="Path_45783" data-name="Path 45783" d="M989.624,449.629H859.012A17.612,17.612,0,0,0,841.4,467.241V734.178a17.616,17.616,0,0,0,17.613,17.612H989.624a17.612,17.612,0,0,0,17.612-17.612V467.241A17.616,17.616,0,0,0,989.624,449.629Z" transform="translate(-386.325 -89.109)" fill="#141414"/>
      <path id="Path_45784" data-name="Path 45784" d="M827.306,1184.819s-23.624,57.831-21.333,68.766,16.628,25.557,51.8,20.683a540.222,540.222,0,0,0,59.486-11.391s1.47-78.047,0-82.006-64.713-32.051-67.2-32.051S827.306,1184.819,827.306,1184.819Z" transform="translate(-360.333 -599.855)" fill="#f6c19d" opacity="0.2" style="mix-blend-mode: multiply;isolation: isolate"/>
      <rect id="Rectangle_3762" data-name="Rectangle 3762" width="148.762" height="254.153" transform="translate(463.612 384.524)" fill="#fff"/>
      <g id="Group_37112" data-name="Group 37112" transform="translate(492.165 442.499)">
        <path id="Rectangle_3763" data-name="Rectangle 3763" d="M34.275,0h23.1A34.276,34.276,0,0,1,91.655,34.276V81.118A34.275,34.275,0,0,1,57.38,115.393H34.275A34.275,34.275,0,0,1,0,81.118V34.275A34.275,34.275,0,0,1,34.275,0Z" transform="translate(0 0)" fill="#dae7f7"/>
        <g id="Group_37111" data-name="Group 37111" transform="translate(10.694 31.21)">
          <path id="Path_45785" data-name="Path 45785" d="M1030.825,927.185l7.264,34.851a3.218,3.218,0,0,0,3.122,2.6h42.959a3.217,3.217,0,0,0,3.122-2.6l7.263-34.851Zm12.811,34.074a1.759,1.759,0,0,1-1.759-1.759l-2.439-24.7a1.759,1.759,0,1,1,3.518,0l2.439,24.7A1.759,1.759,0,0,1,1043.636,961.259Zm8.847,0h0a1.759,1.759,0,0,1-1.759-1.759l-.976-24.7a1.759,1.759,0,1,1,3.518,0l.976,24.7A1.759,1.759,0,0,1,1052.483,961.259Zm11.967-1.759a1.759,1.759,0,0,1-3.518,0V934.8a1.759,1.759,0,1,1,3.518,0Zm10.207,0a1.759,1.759,0,0,1-3.518,0l.976-24.7a1.759,1.759,0,1,1,3.518,0Zm8.847,0a1.759,1.759,0,0,1-3.518,0l2.439-24.7a1.759,1.759,0,1,1,3.518,0Z" transform="translate(-1027.557 -911.664)" fill="#ded4b7"/>
          <path id="Path_45786" data-name="Path 45786" d="M1086.151,922.37h-64.636a2.815,2.815,0,0,1-2.815-2.815h0a2.815,2.815,0,0,1,2.815-2.815h64.636a2.815,2.815,0,0,1,2.815,2.815h0A2.815,2.815,0,0,1,1086.151,922.37Z" transform="translate(-1018.699 -904.034)" fill="#938c78"/>
          <path id="Path_45787" data-name="Path 45787" d="M1070.962,882.515v-2.432a7.335,7.335,0,0,1,7.335-7.334h22.82a7.335,7.335,0,0,1,7.334,7.334v2.432a1.576,1.576,0,0,0,1.576,1.576h0a1.576,1.576,0,0,0,1.576-1.576v-2.432a10.487,10.487,0,0,0-10.487-10.486H1078.3a10.487,10.487,0,0,0-10.487,10.486v2.432a1.576,1.576,0,0,0,1.576,1.576h0A1.576,1.576,0,0,0,1070.962,882.515Z" transform="translate(-1054.574 -869.596)" fill="#ded4b7"/>
        </g>
      </g>
      <path id="Rectangle_3764" data-name="Rectangle 3764" d="M1.592,0H62.064a1.592,1.592,0,0,1,1.592,1.592v0a1.592,1.592,0,0,1-1.592,1.592H1.592A1.592,1.592,0,0,1,0,1.592v0A1.592,1.592,0,0,1,1.592,0Z" transform="translate(506.285 373.352)" fill="#fff"/>
      <path id="Path_45788" data-name="Path 45788" d="M727.5,850.852s.9,3.336,2.927,4.978l2.412-27.74s17.3-19.328,13.117-45.4a38.95,38.95,0,0,0-12.657-23.1c-3.875-3.406-8.131-5.682-10.639-2.478,0,0-19.594,46.658-33.131,80.74Z" transform="translate(-275.385 -312.596)" fill="#f6c19d"/>
      <g id="Group_37114" data-name="Group 37114" transform="translate(530.601 643.616)">
        <path id="Path_45789" data-name="Path 45789" d="M1136.24,1507.308a7.306,7.306,0,1,1-7.306-7.306A7.306,7.306,0,0,1,1136.24,1507.308Z" transform="translate(-1121.628 -1500.002)" fill="#dae7f7" opacity="0.3"/>
        <g id="Group_37113" data-name="Group 37113" transform="translate(4.262 4.262)">
          <path id="Path_45790" data-name="Path 45790" d="M1142.665,1521.9h-4.357a.866.866,0,0,1-.865-.865v-4.357a.866.866,0,0,1,.865-.865h4.357a.866.866,0,0,1,.865.865v4.357A.866.866,0,0,1,1142.665,1521.9Zm-4.357-5.852a.63.63,0,0,0-.63.63v4.357a.631.631,0,0,0,.63.63h4.357a.631.631,0,0,0,.63-.63v-4.357a.631.631,0,0,0-.63-.63Z" transform="translate(-1137.443 -1515.816)" fill="#dae7f7"/>
        </g>
      </g>
      <rect id="Rectangle_3765" data-name="Rectangle 3765" width="148.762" height="15.033" transform="translate(463.612 623.643)" fill="#d0e1f5"/>
      <rect id="Rectangle_3766" data-name="Rectangle 3766" width="148.762" height="13.487" transform="translate(463.612 384.524)" fill="#d0e1f5"/>
      <path id="Path_45791" data-name="Path 45791" d="M788.08,784.518c5.414-2.49,8.241-16.577,9.253-22.909-4.345-4.371-9.795-8.3-12.776-4.5,0,0-4.315,10.274-10.293,24.7C778.352,784.09,784.032,786.38,788.08,784.518Z" transform="translate(-337.284 -312.596)" fill="#f19a5e"/>
      <path id="Path_45792" data-name="Path 45792" d="M557.892,1752.381c11.885,7.3,50.149,29.137,89.714,33.791,2.318.273,3.948,2.4,3.263,4.233l-6.912,18.513a3.074,3.074,0,0,1-3.38,1.752c-11.66-1.416-59.771-8.658-93.621-34.844a3.031,3.031,0,0,1-1.207-3.4l7.054-18.893C553.466,1751.757,555.957,1751.192,557.892,1752.381Z" transform="translate(-170.245 -1040.286)" fill="#141414"/>
      <path id="Path_45793" data-name="Path 45793" d="M575.622,1797.144l-.131-.049a1.341,1.341,0,0,1-.787-1.725l2.128-5.7a1.341,1.341,0,0,1,1.726-.787l.131.049a1.342,1.342,0,0,1,.788,1.726l-2.128,5.7A1.342,1.342,0,0,1,575.622,1797.144Z" transform="translate(-191.447 -1067.346)"/>
      <path id="Path_45794" data-name="Path 45794" d="M602.028,1813.418l-.131-.049a1.341,1.341,0,0,1-.787-1.726l2.128-5.7a1.341,1.341,0,0,1,1.725-.787l.131.049a1.341,1.341,0,0,1,.787,1.726l-2.128,5.7A1.341,1.341,0,0,1,602.028,1813.418Z" transform="translate(-210.736 -1079.234)"/>
      <path id="Path_45795" data-name="Path 45795" d="M628.475,1829.582l-.131-.049a1.341,1.341,0,0,1-.787-1.725l2.128-5.7a1.341,1.341,0,0,1,1.725-.787l.131.048a1.342,1.342,0,0,1,.788,1.726l-2.128,5.7A1.342,1.342,0,0,1,628.475,1829.582Z" transform="translate(-230.056 -1091.041)"/>
      <path id="Path_45796" data-name="Path 45796" d="M655.693,1842.726l-.131-.049a1.341,1.341,0,0,1-.788-1.725l2.128-5.7a1.341,1.341,0,0,1,1.726-.788l.131.049a1.341,1.341,0,0,1,.787,1.725l-2.128,5.7A1.341,1.341,0,0,1,655.693,1842.726Z" transform="translate(-249.937 -1100.643)"/>
      <path id="Path_45797" data-name="Path 45797" d="M682.471,1858.007l-.131-.049a1.341,1.341,0,0,1-.788-1.725l2.128-5.7a1.341,1.341,0,0,1,1.726-.787l.131.049a1.342,1.342,0,0,1,.787,1.726l-2.128,5.7A1.341,1.341,0,0,1,682.471,1858.007Z" transform="translate(-269.498 -1111.805)"/>
      <path id="Path_45798" data-name="Path 45798" d="M710.429,1870.123l-.131-.049a1.342,1.342,0,0,1-.787-1.726l2.128-5.7a1.341,1.341,0,0,1,1.725-.788l.131.049a1.341,1.341,0,0,1,.787,1.726l-2.128,5.7A1.341,1.341,0,0,1,710.429,1870.123Z" transform="translate(-289.921 -1120.656)"/>
      <path id="Path_45799" data-name="Path 45799" d="M738.937,1880.766l-.131-.049a1.342,1.342,0,0,1-.788-1.726l2.128-5.7a1.342,1.342,0,0,1,1.726-.788l.131.049a1.341,1.341,0,0,1,.787,1.725l-2.128,5.7A1.341,1.341,0,0,1,738.937,1880.766Z" transform="translate(-310.746 -1128.43)"/>
      <path id="Path_45800" data-name="Path 45800" d="M768,1889.937l-.131-.049a1.341,1.341,0,0,1-.787-1.726l2.128-5.7a1.341,1.341,0,0,1,1.726-.787l.131.049a1.341,1.341,0,0,1,.788,1.725l-2.128,5.7A1.342,1.342,0,0,1,768,1889.937Z" transform="translate(-331.972 -1135.129)"/>
      <path id="Path_45801" data-name="Path 45801" d="M798.234,1895.942l-.131-.049a1.341,1.341,0,0,1-.787-1.726l2.128-5.7a1.341,1.341,0,0,1,1.725-.787l.131.049a1.341,1.341,0,0,1,.787,1.726l-2.128,5.7A1.341,1.341,0,0,1,798.234,1895.942Z" transform="translate(-354.061 -1139.516)"/>
      <path id="Path_45802" data-name="Path 45802" d="M827.676,1904.084l-.131-.049a1.341,1.341,0,0,1-.787-1.726l2.128-5.7a1.341,1.341,0,0,1,1.725-.787l.131.049a1.342,1.342,0,0,1,.787,1.726l-2.128,5.7A1.341,1.341,0,0,1,827.676,1904.084Z" transform="translate(-375.568 -1145.464)"/>
      <path id="Path_45803" data-name="Path 45803" d="M858.246,1909.207l-.131-.049a1.341,1.341,0,0,1-.787-1.726l2.128-5.7a1.341,1.341,0,0,1,1.726-.788l.131.049a1.341,1.341,0,0,1,.787,1.726l-2.128,5.7A1.341,1.341,0,0,1,858.246,1909.207Z" transform="translate(-397.898 -1149.206)"/>
      <path id="Path_45804" data-name="Path 45804" d="M888.856,1914.221l-.131-.049a1.341,1.341,0,0,1-.788-1.725l2.128-5.7a1.341,1.341,0,0,1,1.725-.788l.131.049a1.341,1.341,0,0,1,.787,1.725l-2.128,5.7A1.342,1.342,0,0,1,888.856,1914.221Z" transform="translate(-420.258 -1152.868)"/>
      <path id="Path_45805" data-name="Path 45805" d="M643.018,1825.45l.032-.087a1.658,1.658,0,0,1-.374-.09l-9.363-3.5a1.869,1.869,0,0,1-1-2.437l8.443-22.614a1.868,1.868,0,0,1,2.353-1.186l9.363,3.5a1.747,1.747,0,0,1,1.069,1.229q1.1.482,2.224.961a4.049,4.049,0,0,0-2.468-4.4l-9.363-3.5a4.146,4.146,0,0,0-5.222,2.631l-8.443,22.614a4.146,4.146,0,0,0,2.22,5.41l9.363,3.5a3.943,3.943,0,0,0,4.042-.872Q644.458,1826.043,643.018,1825.45Z" transform="translate(-231.885 -1070.486)" fill="#ac8cce"/>
      <path id="Path_45806" data-name="Path 45806" d="M654.392,1842.206l-4.073-1.521a1.529,1.529,0,0,0-1.067,2.857l4.073,1.52Z" transform="translate(-245.314 -1105.188)" fill="#fff"/>
      <g id="Group_37115" data-name="Group 37115" transform="translate(552.109 491.892)">
        <path id="Path_45807" data-name="Path 45807" d="M1274.957,1159.751s-20.092,1.686-20.795,7.025.843,14.753,19.811,16.579h19.647s-5.878-16.3-5.6-16.861S1274.957,1159.751,1274.957,1159.751Z" transform="translate(-1239.855 -1099.731)" fill="#f3a875"/>
        <path id="Path_45808" data-name="Path 45808" d="M1204.3,1076.726a5.451,5.451,0,0,0-2.123,7.549c9.246,15.946,46.01,79.317,49.324,84.472,3.793,5.9,13.067,19.811,43.837,26.977s43.415,27.82,43.415,27.82h94.839s-22.34-35.406-40.886-127.3c0,0-14.332-76.293-41.308-73.764,0,0-16.439-17.282-32.456-13.91,0,0-30.349-18.125-47.63-18.125L1229.8,941.39a12.011,12.011,0,0,0-16.4-1.942,7.862,7.862,0,0,0-3.206,5.056c-1.264,8.009,9.273,28.241,26.133,52.689s58.59,102.005,40.465,136.147a183.353,183.353,0,0,1-34.563-36.25C1228.809,1078.383,1213.032,1072.09,1204.3,1076.726Z" transform="translate(-1201.431 -937.06)" fill="#f6c19d"/>
        <path id="Path_45809" data-name="Path 45809" d="M1461.029,1135.219a172.846,172.846,0,0,1,15.546,15.2,179.411,179.411,0,0,1,19.781,25.994c6.156,10.146,10.218,19.041,12.139,30.212l-.124.025c-2.212-10.495-7.989-21.8-13.022-29.606a219.162,219.162,0,0,0-19.525-25.971c-4.415-5.092-10.013-11.107-14.881-15.765Z" transform="translate(-1390.999 -1081.811)" fill="#f19a5e"/>
        <path id="Path_45810" data-name="Path 45810" d="M1636.241,1201.91a46.842,46.842,0,0,1,12.01,9.108,58.114,58.114,0,0,1,9.1,12.141,59.292,59.292,0,0,1,5.7,14.061,57.336,57.336,0,0,1,1.907,14.949l-.126.01a73.589,73.589,0,0,0-2.733-14.677,66.578,66.578,0,0,0-5.845-13.722,65.029,65.029,0,0,0-8.735-12.089,56.1,56.1,0,0,0-11.338-9.672Z" transform="translate(-1519.005 -1130.528)" fill="#f19a5e"/>
        <path id="Path_45811" data-name="Path 45811" d="M1756.391,1252.693a41.782,41.782,0,0,1,9.922,11.889,53.575,53.575,0,0,1,5.666,14.451,44.954,44.954,0,0,1,1.322,10.228l-.125.018a76.2,76.2,0,0,0-2.152-9.974,69.765,69.765,0,0,0-5.756-14.152,56.584,56.584,0,0,0-8.932-12.366Z" transform="translate(-1606.777 -1167.624)" fill="#f19a5e"/>
        <path id="Path_45812" data-name="Path 45812" d="M1223.443,1474.609c.841-4.267-4.131-11.034-8.645-16.14a10.493,10.493,0,0,0-11.177-3.046,5.458,5.458,0,0,0-1.445,7.113c2.484,4.285,6.956,12,12.232,21.08C1218.359,1481.6,1222.665,1478.559,1223.443,1474.609Z" transform="translate(-1201.435 -1315.321)" fill="#f19a5e"/>
        <path id="Path_45813" data-name="Path 45813" d="M1263.362,962.057c2.4-.48,13.277-4.1,12.611-6.081h0l-10.73-12.681a12.221,12.221,0,0,0-8.179-4.274h0l-.051-.005c-.087-.008-.284-.022-.559-.022-1.439,0-4.982.411-5.76,4.307-.769,3.847,5.6,13.2,8.407,17.086A4.23,4.23,0,0,0,1263.362,962.057Z" transform="translate(-1237.369 -938.473)" fill="#f19a5e"/>
        <path id="Path_45814" data-name="Path 45814" d="M1475.932,1780.922h94.839s-14.646-23.216-30.067-80.832c-6.766,42.424-44.1,39.978-58.916,42.331-17.059,2.71-83.28-11.1-92.558-15.446,4.127,6.3,13.908,19.285,43.286,26.127C1463.287,1760.267,1475.932,1780.922,1475.932,1780.922Z" transform="translate(-1338.615 -1494.438)" fill="#f6c19d" opacity="0.2" style="mix-blend-mode: multiply;isolation: isolate"/>
        <path id="Path_45815" data-name="Path 45815" d="M1349.49,1188.71c18.595,29.878,51.957,98.512,35.451,128.455l10.955,10.814s27.68-30.665-16.368-98.29A450.919,450.919,0,0,0,1349.49,1188.71Z" transform="translate(-1309.585 -1120.885)" fill="#f6c19d" opacity="0.2" style="mix-blend-mode: multiply;isolation: isolate"/>
      </g>
      <g id="Group_37119" data-name="Group 37119" transform="translate(353.301 539.854)">
        <g id="Group_37116" data-name="Group 37116" transform="translate(9.895)">
          <path id="Path_45816" data-name="Path 45816" d="M504.123,1118.565a19.4,19.4,0,0,0-3.62-2.527l.505-1.024a20.212,20.212,0,0,1,3.862,2.687Z" transform="translate(-500.503 -1115.014)" fill="#fff"/>
        </g>
        <g id="Group_37117" data-name="Group 37117" transform="translate(0 9.617)">
          <path id="Path_45817" data-name="Path 45817" d="M479.117,1254.977a73.238,73.238,0,0,1-5.554-6.7l.923-.674a72.042,72.042,0,0,0,5.467,6.592Zm-10.161-14.094a47.57,47.57,0,0,1-3.3-8.08l1.093-.33a46.447,46.447,0,0,0,3.225,7.885Zm-4.982-16.655c-.123-1.331-.185-2.695-.185-4.052,0-1.535.08-3.11.237-4.681l1.137.114c-.154,1.533-.232,3.07-.232,4.567,0,1.322.061,2.651.18,3.948Zm2.737-17.015-1.1-.292a73.78,73.78,0,0,1,2.739-8.259l1.063.419A72.588,72.588,0,0,0,466.711,1207.213Zm6.181-15.989-1.027-.5c1.11-2.279,2.374-4.724,3.977-7.7l1.005.542C475.251,1186.528,473.994,1188.96,472.892,1191.224Zm8.1-15.24-1.009-.536.032-.059a40.959,40.959,0,0,0,3.307-7.768l1.095.327a42.072,42.072,0,0,1-3.4,7.99Zm3.494-16.7a19.613,19.613,0,0,0-2.02-8.083l1.023-.508a20.746,20.746,0,0,1,2.138,8.551Z" transform="translate(-463.789 -1150.695)" fill="#fff"/>
        </g>
        <g id="Group_37118" data-name="Group 37118" transform="translate(21.569 119.127)">
          <path id="Path_45818" data-name="Path 45818" d="M547.31,1560.848c-1.2-.987-2.379-1.991-3.492-2.982l.76-.853c1.1.982,2.265,1.975,3.457,2.953Z" transform="translate(-543.818 -1557.012)" fill="#fff"/>
        </g>
      </g>
      <g id="Group_37120" data-name="Group 37120" transform="translate(312.535 502.135)">
        <path id="Path_45819" data-name="Path 45819" d="M359.3,997.008l-1.511,18.4L347.1,1003.37l-34.562-28.307,29.473,9.286s14.51,7.049,15.176,7.98A38.142,38.142,0,0,1,359.3,997.008Z" transform="translate(-312.535 -975.064)" fill="#938c78"/>
        <path id="Path_45820" data-name="Path 45820" d="M374.956,989.1l-62.422-14.038,46.76,21.944Z" transform="translate(-312.535 -975.064)" fill="#ded4b7"/>
        <path id="Path_45821" data-name="Path 45821" d="M335.289,1010.632l19.24-9.6-41.994-25.968Z" transform="translate(-312.535 -975.064)" fill="#ded4b7"/>
      </g>
      <g id="Group_37126" data-name="Group 37126" transform="translate(483.023 573.36)">
        <path id="Rectangle_3776" data-name="Rectangle 3776" d="M10.39,0H99.551a10.39,10.39,0,0,1,10.39,10.39v0a10.39,10.39,0,0,1-10.39,10.39H10.389A10.389,10.389,0,0,1,0,10.39v0A10.39,10.39,0,0,1,10.39,0Z" transform="translate(0 0)" fill="#ded4b7"/>
        <g id="Group_37125" data-name="Group 37125" transform="translate(26.876 5.506)">
          <path id="Path_45831" data-name="Path 45831" d="M1050.708,1266.622a2.681,2.681,0,0,1-.107.777,2.285,2.285,0,0,1-.3.639,2.218,2.218,0,0,1-.466.5,2.684,2.684,0,0,1-.615.359,3.49,3.49,0,0,1-.732.218,4.89,4.89,0,0,1-.895.073h-2.334a.49.49,0,0,1-.3-.108.443.443,0,0,1-.141-.376v-7.971a.444.444,0,0,1,.141-.376.49.49,0,0,1,.3-.107h2.031a4.7,4.7,0,0,1,1.313.153,2.32,2.32,0,0,1,.853.442,1.828,1.828,0,0,1,.515.712,2.5,2.5,0,0,1,.172.953,2.389,2.389,0,0,1-.076.608,1.992,1.992,0,0,1-.224.535,1.821,1.821,0,0,1-.373.438,1.968,1.968,0,0,1-.515.318,2.178,2.178,0,0,1,.684.252,2.094,2.094,0,0,1,.556.467,2.187,2.187,0,0,1,.376.663A2.43,2.43,0,0,1,1050.708,1266.622Zm-1.789-4a1.816,1.816,0,0,0-.089-.587,1.093,1.093,0,0,0-.282-.446,1.277,1.277,0,0,0-.5-.28,2.847,2.847,0,0,0-.82-.1H1046v2.894h1.35a1.912,1.912,0,0,0,.744-.121,1.323,1.323,0,0,0,.469-.325,1.261,1.261,0,0,0,.272-.477A1.854,1.854,0,0,0,1048.919,1262.623Zm.539,4.068a1.8,1.8,0,0,0-.128-.7,1.333,1.333,0,0,0-.372-.511,1.643,1.643,0,0,0-.614-.314,3.358,3.358,0,0,0-.927-.107H1046v3.15h1.723a2.358,2.358,0,0,0,.71-.1,1.576,1.576,0,0,0,.534-.286,1.318,1.318,0,0,0,.362-.473A1.55,1.55,0,0,0,1049.458,1266.692Z" transform="translate(-1044.816 -1260.116)" fill="#27292c"/>
          <path id="Path_45832" data-name="Path 45832" d="M1080.051,1265.771a4.143,4.143,0,0,1-.238,1.454,2.984,2.984,0,0,1-.68,1.081,2.87,2.87,0,0,1-1.078.67,4.26,4.26,0,0,1-1.444.228,4.043,4.043,0,0,1-1.347-.214,2.852,2.852,0,0,1-1.043-.632,2.765,2.765,0,0,1-.67-1.047,4.13,4.13,0,0,1-.235-1.45v-5.547a.169.169,0,0,1,.027-.1.181.181,0,0,1,.1-.066,1.128,1.128,0,0,1,.18-.041,2.015,2.015,0,0,1,.29-.017,2.048,2.048,0,0,1,.283.017,1.032,1.032,0,0,1,.183.041.182.182,0,0,1,.093.066.169.169,0,0,1,.028.1v5.4a3.486,3.486,0,0,0,.152,1.085,2.039,2.039,0,0,0,.438.769,1.822,1.822,0,0,0,.691.463,2.5,2.5,0,0,0,.908.156,2.6,2.6,0,0,0,.922-.152,1.749,1.749,0,0,0,.684-.456,2.045,2.045,0,0,0,.428-.753,3.348,3.348,0,0,0,.149-1.05v-5.464a.168.168,0,0,1,.027-.1.183.183,0,0,1,.1-.066,1.129,1.129,0,0,1,.183-.041,2.025,2.025,0,0,1,.286-.017,1.966,1.966,0,0,1,.28.017,1.027,1.027,0,0,1,.18.041.2.2,0,0,1,.1.066.156.156,0,0,1,.031.1Z" transform="translate(-1065.635 -1260.004)" fill="#27292c"/>
          <path id="Path_45833" data-name="Path 45833" d="M1112.016,1268.695a1.51,1.51,0,0,1-.014.218.474.474,0,0,1-.048.156.24.24,0,0,1-.079.089.184.184,0,0,1-.1.028h-4.289a.488.488,0,0,1-.3-.108.443.443,0,0,1-.142-.376v-7.971a.444.444,0,0,1,.142-.376.488.488,0,0,1,.3-.107h4.241a.187.187,0,0,1,.1.028.2.2,0,0,1,.073.09.714.714,0,0,1,.045.155,1.315,1.315,0,0,1,.017.231,1.225,1.225,0,0,1-.017.218.644.644,0,0,1-.045.152.2.2,0,0,1-.073.087.193.193,0,0,1-.1.027h-3.5v2.8h3a.17.17,0,0,1,.1.031.253.253,0,0,1,.076.086.45.45,0,0,1,.045.152,1.672,1.672,0,0,1,.014.228,1.452,1.452,0,0,1-.014.214.443.443,0,0,1-.045.145.2.2,0,0,1-.076.079.2.2,0,0,1-.1.025h-3v3.2h3.544a.188.188,0,0,1,.1.028.253.253,0,0,1,.079.087.424.424,0,0,1,.048.151A1.635,1.635,0,0,1,1112.016,1268.695Z" transform="translate(-1090.272 -1260.116)" fill="#27292c"/>
          <path id="Path_45834" data-name="Path 45834" d="M1151.293,1268.638a.539.539,0,0,1-.046.235.465.465,0,0,1-.122.159.473.473,0,0,1-.168.09.647.647,0,0,1-.186.027h-.393a1.238,1.238,0,0,1-.325-.038.723.723,0,0,1-.264-.138,1.389,1.389,0,0,1-.25-.274,3.585,3.585,0,0,1-.265-.442l-2.727-5.084q-.214-.394-.431-.825t-.4-.839h-.014q.014.5.021,1.015t.007,1.029v5.394a.17.17,0,0,1-.029.094.184.184,0,0,1-.1.069,1.12,1.12,0,0,1-.182.042,2.453,2.453,0,0,1-.576,0,.989.989,0,0,1-.178-.042.183.183,0,0,1-.095-.069.172.172,0,0,1-.029-.094V1260.7a.459.459,0,0,1,.157-.393.557.557,0,0,1,.342-.118h.585a1.446,1.446,0,0,1,.345.035.727.727,0,0,1,.25.114.977.977,0,0,1,.214.222,2.927,2.927,0,0,1,.217.355l2.1,3.923q.194.359.374.7t.347.674q.167.331.33.652c.109.215.217.429.324.646h.007c-.009-.364-.015-.743-.017-1.136s0-.772,0-1.136v-4.849a.153.153,0,0,1,.03-.089.233.233,0,0,1,.1-.073.642.642,0,0,1,.183-.045,2.54,2.54,0,0,1,.3-.014,2.406,2.406,0,0,1,.277.014.6.6,0,0,1,.182.045.236.236,0,0,1,.094.073.154.154,0,0,1,.029.089Z" transform="translate(-1117.661 -1260.06)" fill="#27292c"/>
          <path id="Path_45835" data-name="Path 45835" d="M1184.539,1264.257a6.933,6.933,0,0,1-.256,1.956,4.09,4.09,0,0,1-.763,1.481,3.338,3.338,0,0,1-1.274.94,4.525,4.525,0,0,1-1.789.327,4.6,4.6,0,0,1-1.744-.3,3.055,3.055,0,0,1-1.215-.874,3.724,3.724,0,0,1-.715-1.423,7.347,7.347,0,0,1-.235-1.955,6.744,6.744,0,0,1,.256-1.921,3.982,3.982,0,0,1,.767-1.467,3.38,3.38,0,0,1,1.278-.933,4.5,4.5,0,0,1,1.789-.329,4.557,4.557,0,0,1,1.72.3,3.114,3.114,0,0,1,1.219.867,3.687,3.687,0,0,1,.725,1.409A7.071,7.071,0,0,1,1184.539,1264.257Zm-1.257.083a7.008,7.008,0,0,0-.134-1.413,3.259,3.259,0,0,0-.448-1.133,2.166,2.166,0,0,0-.839-.749,2.814,2.814,0,0,0-1.3-.27,2.65,2.65,0,0,0-1.3.29,2.431,2.431,0,0,0-.852.774,3.219,3.219,0,0,0-.469,1.129,6.331,6.331,0,0,0-.141,1.358,7.519,7.519,0,0,0,.13,1.45,3.23,3.23,0,0,0,.442,1.144,2.122,2.122,0,0,0,.831.746,2.874,2.874,0,0,0,1.308.266,2.706,2.706,0,0,0,1.31-.29,2.357,2.357,0,0,0,.855-.784,3.317,3.317,0,0,0,.462-1.143A6.6,6.6,0,0,0,1183.282,1264.34Z" transform="translate(-1141.043 -1259.76)" fill="#27292c"/>
          <path id="Path_45836" data-name="Path 45836" d="M1219.1,1268.811a.365.365,0,0,1-.083.155.352.352,0,0,1-.152.09,1.208,1.208,0,0,1-.238.045c-.094.009-.211.013-.349.013s-.264,0-.363-.013a1.21,1.21,0,0,1-.245-.045.307.307,0,0,1-.145-.09.431.431,0,0,1-.076-.155l-1.871-6.749h-.014l-1.727,6.749a.356.356,0,0,1-.069.155.3.3,0,0,1-.138.09,1.074,1.074,0,0,1-.232.045q-.142.013-.363.013c-.152,0-.279,0-.38-.013a1.228,1.228,0,0,1-.249-.045.3.3,0,0,1-.221-.245l-2.362-8.255a1.236,1.236,0,0,1-.045-.249.161.161,0,0,1,.055-.139.36.36,0,0,1,.19-.062q.131-.014.352-.014c.143,0,.256,0,.338.01a.659.659,0,0,1,.19.037.168.168,0,0,1,.09.077.442.442,0,0,1,.038.124l2.01,7.487h.007l1.907-7.473a.532.532,0,0,1,.051-.128.2.2,0,0,1,.1-.079.792.792,0,0,1,.2-.042,3.288,3.288,0,0,1,.336-.014,2.709,2.709,0,0,1,.307.014.758.758,0,0,1,.183.042.194.194,0,0,1,.1.079.517.517,0,0,1,.052.128l2.052,7.473h.014l1.969-7.48c.013-.046.027-.087.041-.122a.149.149,0,0,1,.087-.079.714.714,0,0,1,.187-.042,2.976,2.976,0,0,1,.321-.014,2.522,2.522,0,0,1,.328.017.339.339,0,0,1,.176.066.163.163,0,0,1,.052.138,1.544,1.544,0,0,1-.038.249Z" transform="translate(-1165.315 -1260.004)" fill="#27292c"/>
        </g>
      </g>
    </g>
  </g>
</svg>
