<svg xmlns="http://www.w3.org/2000/svg" width="62" height="62" viewBox="0 0 62 62">
  <g id="inventory_management" transform="translate(-1 -1)">
    <g id="Group_38657" data-name="Group 38657">
      <g id="Group_38656" data-name="Group 38656">
        <path id="Path_52963" data-name="Path 52963" d="M35,15H29V10h6Z" fill="#ded4b7"/>
      </g>
    </g>
    <g id="Group_38659" data-name="Group 38659">
      <g id="Group_38658" data-name="Group 38658">
        <path id="Path_52964" data-name="Path 52964" d="M25,7H15V2H25Z" fill="#ded4b7"/>
      </g>
    </g>
    <g id="Group_38661" data-name="Group 38661">
      <g id="Group_38660" data-name="Group 38660">
        <path id="Path_52965" data-name="Path 52965" d="M49,7H39V2H49Z" fill="#ded4b7"/>
      </g>
    </g>
    <g id="Group_38663" data-name="Group 38663">
      <g id="Group_38662" data-name="Group 38662">
        <path id="Path_52966" data-name="Path 52966" d="M53,55H45V48h8Z" fill="#ded4b7"/>
      </g>
    </g>
    <g id="Group_38665" data-name="Group 38665">
      <g id="Group_38664" data-name="Group 38664">
        <path id="Path_52967" data-name="Path 52967" d="M47,37H37V32H47Z" fill="#ded4b7"/>
      </g>
    </g>
    <g id="Group_38666" data-name="Group 38666">
      <path id="Path_52968" data-name="Path 52968" d="M61,3H59a2,2,0,0,0-2,2V21H55V1H33V9H31V1H9V21H7V5A2,2,0,0,0,5,3H3A2,2,0,0,0,1,5V63H63V5A2,2,0,0,0,61,3ZM35,3h8V7h2V3h8V21H41V9H35Zm4,18H25V11H39ZM11,3h8V7h2V3h8V9H23V21H11ZM57,23v2H7V23ZM21,59v2H9V59H7v2H3.105l.08-.8a7.974,7.974,0,0,1,7.96-7.2h7.71a7.974,7.974,0,0,1,7.96,7.2l.08.8H23V59ZM7,27H8.161A8.791,8.791,0,0,0,7,28.162Zm.15,12.2L8.2,40.6l1.6-1.2L8.179,37.239A5.927,5.927,0,0,1,7,33.7,6.7,6.7,0,0,1,13.7,27H23v2a4.066,4.066,0,0,1-4.21,4H16.107a1.077,1.077,0,0,1-1.053-.662,1.018,1.018,0,0,1,.141-.931A.99.99,0,0,1,16,31h1V29H16a3.006,3.006,0,0,0-2.859,3.925,2.765,2.765,0,0,0,.557.985l-.561,3.216A3.007,3.007,0,0,0,11,40a3.393,3.393,0,0,0,1,2.414l1,1v.35a2.6,2.6,0,0,1-1.046,2.1L9.683,44.724A4.834,4.834,0,0,1,7.15,39.2ZM19,51.007V49a5.969,5.969,0,0,0,4-1.54V51.9A10,10,0,0,0,19,51.007ZM23,43a4,4,0,0,1-4,4H17v4H13V47.568a4.59,4.59,0,0,0,2-3.805V42.585L13.415,41A1.4,1.4,0,0,1,13,40a1,1,0,0,1,1-1h.841l.707-4.052a3.217,3.217,0,0,0,.558.052h2.683a6.411,6.411,0,0,0,3.326-.913,28.841,28.841,0,0,1,2.708,6.383L23,41.382Zm5.806,17A10.013,10.013,0,0,0,28.652,59H33V57H28.018A9.939,9.939,0,0,0,25,53.1V47H35V61H28.905ZM37,47h2V61H37Zm-6-2V33H41v4h2V33H53V47H41V45ZM29,31V45H24.65A5.951,5.951,0,0,0,25,43v-.382l2.165-1.082-.194-.778a30.677,30.677,0,0,0-3.312-8A5.885,5.885,0,0,0,25,29V27H57V47H55V31ZM5,5V33.7a7.918,7.918,0,0,0,.81,3.443l-.086.172a6.855,6.855,0,0,0,3.065,9.2L11,47.618v3.389A9.956,9.956,0,0,0,3,55.2V5ZM41,61V49H57V61Zm20,0H59V5h2Z"/>
      <path id="Path_52969" data-name="Path 52969" d="M27,49h6v2H27Z"/>
      <path id="Path_52970" data-name="Path 52970" d="M27,53h6v2H27Z"/>
    </g>
  </g>
</svg>
