<svg xmlns="http://www.w3.org/2000/svg" width="239.979" height="46.152" viewBox="0 0 239.979 46.152">
  <g id="logo_white" transform="translate(21594.799 -4232.029)">
    <path id="Path_55637" data-name="Path 55637" d="M470.143,1362.21h-1.818l-2.719-5.276H451.687l-2.719,5.276H447.15l11.5-22.327Zm-17.628-6.886H464.78l-6.133-11.91Z" transform="translate(-21986.586 2915.566)" fill="#fff"/>
    <path id="Path_55638" data-name="Path 55638" d="M466.526,1356.93h-2.711l-2.719-5.276H447.661l-2.719,5.276h-2.711l12.148-23.592Zm-2.227-.794h.924l-10.845-21.063-10.846,21.063h.924l2.719-5.276h14.4Zm-3.137-6.092H447.6l6.784-13.175Zm-12.265-.794H459.86l-5.48-10.65Z" transform="translate(-21982.318 2921.251)" fill="#fff"/>
    <path id="Path_55639" data-name="Path 55639" d="M676.773,1349.15v1.61h-7.758v19.49H667.4v-19.49h-7.758v-1.61Z" transform="translate(-22170.947 2907.526)" fill="#fff"/>
    <path id="Path_55640" data-name="Path 55640" d="M666.81,1368.05H664.4v-19.491h-7.758v-2.4h17.92v2.4H666.81Zm-1.611-.794h.816v-19.49h7.758v-.816H657.441v.816H665.2Z" transform="translate(-22168.346 2910.129)" fill="#fff"/>
    <path id="Path_55641" data-name="Path 55641" d="M874.529,1349.15v1.61h-7.758v19.49H865.16v-19.49H857.4v-1.61Z" transform="translate(-22342.521 2907.526)" fill="#fff"/>
    <path id="Path_55642" data-name="Path 55642" d="M864.565,1368.05H862.16v-19.491H854.4v-2.4h17.92v2.4h-7.758Zm-1.611-.794h.816v-19.49h7.758v-.816H855.2v.816h7.758Z" transform="translate(-22339.918 2910.129)" fill="#fff"/>
    <path id="Path_55643" data-name="Path 55643" d="M1048.57,1362.21h-1.818l-2.719-5.276h-13.919l-2.719,5.276h-1.818l11.5-22.327Zm-17.628-6.886h12.265l-6.133-11.91Z" transform="translate(-22488.434 2915.566)" fill="#fff"/>
    <path id="Path_55644" data-name="Path 55644" d="M1044.95,1356.93h-2.711l-2.719-5.276h-13.436l-2.719,5.276h-2.711l12.147-23.592Zm-2.227-.794h.924l-10.845-21.063-10.846,21.063h.924l2.719-5.276H1040Zm-3.137-6.092h-13.568l6.784-13.175Zm-12.265-.794h10.963l-5.484-10.65Z" transform="translate(-22484.166 2921.251)" fill="#fff"/>
    <path id="Path_55645" data-name="Path 55645" d="M1272.06,1348.93v19.505h15.117v1.625h-16.743v-21.13Z" transform="translate(-22700.875 2907.721)" fill="#fff"/>
    <path id="Path_55646" data-name="Path 55646" d="M1284.98,1367.85h-17.536v-21.926h2.42v19.505h15.116Zm-16.742-.794h15.947v-.831h-15.116v-19.5h-.831Z" transform="translate(-22698.273 2910.324)" fill="#fff"/>
    <path id="Path_55647" data-name="Path 55647" d="M1472.5,1348.93v19.505h15.116v1.625h-16.742v-21.13Z" transform="translate(-22874.773 2907.721)" fill="#fff"/>
    <path id="Path_55648" data-name="Path 55648" d="M1485.41,1367.85h-17.537v-21.926h2.42v19.505h15.117Zm-16.743-.794h15.948v-.831H1469.5v-19.5h-.831Z" transform="translate(-22872.17 2910.324)" fill="#fff"/>
    <path id="Path_55649" data-name="Path 55649" d="M1685.93,1362.21h-1.818l-2.719-5.276h-13.92l-2.719,5.276h-1.818l11.5-22.327Zm-17.629-6.886h12.265l-6.132-11.91Z" transform="translate(-23041.408 2915.566)" fill="#fff"/>
    <path id="Path_55650" data-name="Path 55650" d="M1682.32,1356.93h-2.711l-2.719-5.276h-13.44l-2.719,5.276h-2.711l12.148-23.592Zm-2.227-.794h.924l-10.844-21.063-10.846,21.063h.924l2.719-5.276h14.4Zm-3.137-6.092h-13.567l6.784-13.175Zm-12.265-.794h10.963l-5.48-10.646Z" transform="translate(-23037.141 2921.251)" fill="#fff"/>
    <path id="Path_55651" data-name="Path 55651" d="M84.975,1162.97l-21.827,37.8,15.709-17.05,9.058-15.688Z" transform="translate(-21653.422 3069.059)" fill="#fff"/>
    <path id="Path_55652" data-name="Path 55652" d="M189.9,1211.98l-4.991,8.645,32.165,24.5-9.292-16.094-1.81-3.137-12.048-20.881Z" transform="translate(-21759.063 3032.589)" fill="#fff"/>
    <path id="Path_55653" data-name="Path 55653" d="M336.237,1448.86h6.883l-11.845-9.021Z" transform="translate(-21886.053 2828.845)" fill="#fff"/>
    <path id="Path_55654" data-name="Path 55654" d="M118.029,1341.4h27.916l-19.39-14.766Z" transform="translate(-21701.037 2927.062)" fill="#fff"/>
    <path id="Path_1796" data-name="Path 1796" d="M-21594.8,4277.71h5.893l13.25-23-15.684,17.062Z" transform="translate(0.002 -0.002)" fill="#fff"/>
  </g>
</svg>
