<svg xmlns="http://www.w3.org/2000/svg" width="429.129" height="183.501" viewBox="0 0 429.129 183.501">
  <g id="paper_image" transform="translate(-2.664 11.292)">
    <path id="Path_39716" data-name="Path 39716" d="M3.149,95.21a97.828,97.828,0,0,0,35.992,55.117c43.551,33.65,115.78,27.211,150.259-16.908,9.341-11.953,14.313-28.334,9.209-42.621-5.885-16.475-25.127-26.473-42.283-23.044s-30.756,19.038-33.134,36.371,5.865,35.373,19.71,46.07c19.778,15.281,47.312,15.349,71.947,11.127,26.749-4.584,54.211-13.006,78.7-25.981,22.8-12.081,55.519-31.589,61.094-59.122" fill="none" stroke="#fff" stroke-miterlimit="10" stroke-width="1" stroke-dasharray="3 5"/>
    <g id="Group_35979" data-name="Group 35979">
      <path id="Path_39717" data-name="Path 39717" d="M355.2,74.189,352.317,85.37l8.28-7.959Z" fill="#fff"/>
      <path id="Path_39718" data-name="Path 39718" d="M346.684,70.468l20.6-19.541,2.6,6.778L355.537,74.927l-3,10.623Z" fill="#fff"/>
      <path id="Path_39719" data-name="Path 39719" d="M369.7,57.714l-2.6-6.778,36.211-33.759Z" fill="#b2b2b2" opacity="0.6" style="mix-blend-mode: multiply;isolation: isolate"/>
      <path id="Path_39720" data-name="Path 39720" d="M355.537,74.927,373.471,53.4,385.4,92.1Z" fill="#fff"/>
      <path id="Path_39721" data-name="Path 39721" d="M403.318,17.269,385.22,92.2,373.291,53.5Z" fill="#b2b2b2" opacity="0.6" style="mix-blend-mode: multiply;isolation: isolate"/>
      <path id="Path_39722" data-name="Path 39722" d="M322.638,61.663l24.046,8.805,20.6-19.541Z" fill="#fff"/>
      <path id="Path_39723" data-name="Path 39723" d="M403.322,17.361,367.111,51.12,322.464,61.856Z" fill="#b2b2b2" opacity="0.6" style="mix-blend-mode: multiply;isolation: isolate"/>
      <path id="Path_39724" data-name="Path 39724" d="M403.5,17.169,385.4,92.1,373.471,53.4Z" fill="#fff"/>
      <path id="Path_39725" data-name="Path 39725" d="M369.881,57.706l-2.6-6.778L403.5,17.169Z" fill="#fff"/>
      <path id="Path_39726" data-name="Path 39726" d="M403.5,17.169,367.285,50.928,322.638,61.663Z" fill="#fff"/>
      <g id="Group_35977" data-name="Group 35977" opacity="0.7" style="mix-blend-mode: soft-light;isolation: isolate">
        <path id="Path_39727" data-name="Path 39727" d="M403.5,17.169l-2.471,2.258-2.83,2.6c-1.093,1-2.326,2.135-3.664,3.378s-2.791,2.585-4.326,4.006l-4.822,4.477-5.146,4.8-5.3,4.965-5.294,4.976-5.119,4.829c-1.661,1.565-3.258,3.086-4.775,4.528l-4.273,4.062c-1.326,1.256-2.534,2.414-3.6,3.441L349.1,68.145l-2.411,2.323,2.472-2.258,2.829-2.6c1.093-1,2.327-2.134,3.665-3.377l4.325-4.006c1.535-1.421,3.156-2.919,4.824-4.477s3.393-3.165,5.144-4.8,3.527-3.3,5.3-4.966l5.294-4.976,5.118-4.829,4.775-4.527,4.274-4.062c1.326-1.256,2.534-2.414,3.6-3.442s2.005-1.921,2.774-2.657Z" fill="#fff"/>
      </g>
      <g id="Group_35978" data-name="Group 35978" opacity="0.7" style="mix-blend-mode: soft-light;isolation: isolate">
        <path id="Path_39728" data-name="Path 39728" d="M403.5,17.169,401.4,19.622l-2.4,2.823c-.926,1.089-1.971,2.318-3.1,3.666s-2.36,2.805-3.659,4.347-2.669,3.168-4.078,4.857l-4.348,5.205L379.341,45.9l-4.468,5.392-4.317,5.23c-1.4,1.695-2.747,3.341-4.024,4.9l-3.6,4.4c-1.117,1.36-2.134,2.612-3.034,3.723s-1.687,2.078-2.334,2.875c-1.29,1.6-2.026,2.51-2.026,2.51l2.1-2.453,2.4-2.823c.926-1.089,1.971-2.318,3.1-3.666l3.659-4.347c1.3-1.542,2.67-3.168,4.079-4.857s2.866-3.433,4.347-5.2l4.479-5.382,4.467-5.391,4.316-5.23c1.4-1.7,2.747-3.342,4.025-4.9s2.485-3.034,3.6-4.4,2.134-2.612,3.035-3.722l2.334-2.875Z" fill="#fff"/>
      </g>
      <path id="Path_39729" data-name="Path 39729" d="M403.5,17.169l-.324.178.141-.17-.241.225L322.638,61.663l24.046,8.805L352.54,85.55l7.742-7.894L385.4,92.1Z" fill="none" stroke="#fff" stroke-miterlimit="10" stroke-width="1"/>
    </g>
  </g>
</svg>
