<svg xmlns="http://www.w3.org/2000/svg" width="62" height="62" viewBox="0 0 62 62">
  <g id="rating_reviews" transform="translate(-0.586 -1)">
    <g id="Group_37916" data-name="Group 37916" transform="translate(5 12.856)">
      <path id="Path_50182" data-name="Path 50182" d="M36,21.717A5.248,5.248,0,0,0,35.364,20l-1.925.014-.649-1.93a3.8,3.8,0,0,0-1.58,0l-.635,1.925L28.531,20A5.066,5.066,0,0,0,28,21.717l1.676,1.262-.614,1.959.317-.317a2.116,2.116,0,0,1,3.48.756l.827.623a4.029,4.029,0,0,0,1.281-.97l-.643-2.051Z" transform="translate(-5.207 -13)" fill="#ded4b7"/>
      <path id="Path_50183" data-name="Path 50183" d="M38.676,22.979,37,21.717A5.073,5.073,0,0,1,37.531,20l2.044.009.635-1.925a3.8,3.8,0,0,1,1.58,0l.649,1.93L44.364,20A5.225,5.225,0,0,1,45,21.716l-1.676,1.262.643,2.051a4.058,4.058,0,0,1-1.281.97L41,24.73,39.314,26a4.029,4.029,0,0,1-1.281-.97Z" transform="translate(-5.288 -13)" fill="#ded4b7"/>
      <path id="Path_50184" data-name="Path 50184" d="M47.676,22.979,46,21.717A5.073,5.073,0,0,1,46.531,20l2.044.009.635-1.925a3.8,3.8,0,0,1,1.58,0l.649,1.93L53.364,20A5.225,5.225,0,0,1,54,21.716l-1.676,1.262.643,2.051a4.058,4.058,0,0,1-1.281.97L50,24.73,48.314,26a4.029,4.029,0,0,1-1.281-.97Z" transform="translate(-5.414 -13)" fill="#ded4b7"/>
      <path id="Path_50185" data-name="Path 50185" d="M51,36v3H49v2H59V36Z" transform="translate(-5.414 -13)" fill="#ded4b7"/>
      <path id="Path_50186" data-name="Path 50186" d="M5,13V26h8V22h8V13Z" transform="translate(-5 -13)" fill="#ded4b7"/>
    </g>
    <path id="Path_50187" data-name="Path 50187" d="M59.606,1H3.977A2.984,2.984,0,0,0,1,3.98V41.728a2.984,2.984,0,0,0,2.98,2.98H5.553L.586,49.675,13.911,63l5.378-5.378-1.49-1.49.562-.562,3.763-.627A6.921,6.921,0,0,0,25.9,53l8.293-8.293H59.606a2.984,2.984,0,0,0,2.98-2.98V3.98A2.984,2.984,0,0,0,59.606,1ZM3.977,2.987H59.606a.994.994,0,0,1,.993.993V8.947H2.984V3.98A.994.994,0,0,1,3.977,2.987Zm3.477,42.8L6.375,44.708H7.951v.582Zm6.457,14.4L3.4,49.675l2.569-2.569L16.48,57.622ZM24.492,51.6a4.939,4.939,0,0,1-2.7,1.387l-4.391.731-1.013,1.013L8.859,47.192l1.079-1.079v-4.9A4.936,4.936,0,0,1,11.393,37.7l1.517-1.517A6.759,6.759,0,0,0,14.9,31.372V30.348a.56.56,0,0,1,.842-.449,4.815,4.815,0,0,1,2.138,4.006v.458L14.2,38.046l-.051.051,1.4,1.4.051-.051,4.265-4.265L29.89,25.167a1.114,1.114,0,0,1,1.9.788,1.105,1.105,0,0,1-.326.788l-5.96,5.96-2.363,2.363,1.4,1.4,2.363-2.363a1.114,1.114,0,0,1,1.575,1.575l-2.363,2.363,1.4,1.4,2.363-2.363a1.114,1.114,0,0,1,1.575,1.575L29.1,41.026l1.4,1.4,2.363-2.363a1.114,1.114,0,0,1,1.575,1.575ZM32.2,28.814l.668-.668a3.1,3.1,0,0,0-2.192-5.293,3.121,3.121,0,0,0-2.192.908L24.838,27.41V17.887a2.984,2.984,0,0,1,2.98-2.98H53.646a2.984,2.984,0,0,1,2.98,2.98v7.947a2.984,2.984,0,0,1-2.98,2.98h-2.4l-5.84,5.84a.427.427,0,0,1-.7-.291V28.814Zm27.4,13.907H36.117a3.076,3.076,0,0,0-2.349-4.956,3.094,3.094,0,0,0-2.98-2.98,3.1,3.1,0,0,0-1.835-2.721L30.216,30.8h12.5v3.562a2.4,2.4,0,0,0,4.094,1.7L52.07,30.8h1.575a4.972,4.972,0,0,0,4.967-4.967V17.887a4.972,4.972,0,0,0-4.967-4.967H27.818a4.972,4.972,0,0,0-4.967,4.967V29.4l-3.132,3.132a6.784,6.784,0,0,0-2.868-4.28,2.528,2.528,0,0,0-3.934,2.1v1.024a4.789,4.789,0,0,1-1.413,3.41L9.988,36.3a6.909,6.909,0,0,0-2.037,4.917v1.5H3.977a.994.994,0,0,1-.993-.993V10.934H60.6V41.728a.994.994,0,0,1-.993.993Z" transform="translate(0 0)"/>
    <path id="Path_50188" data-name="Path 50188" d="M5,5H7V7H5Z"/>
    <path id="Path_50189" data-name="Path 50189" d="M9,5h2V7H9Z"/>
    <path id="Path_50190" data-name="Path 50190" d="M13,5h2V7H13Z" transform="translate(-0.085)"/>
    <path id="Path_50191" data-name="Path 50191" d="M57,39h2v2H57Z" transform="translate(-0.414 -0.26)"/>
    <path id="Path_50192" data-name="Path 50192" d="M53,39h2v2H53Z" transform="translate(-0.414 -0.26)"/>
    <path id="Path_50193" data-name="Path 50193" d="M49,39h2v2H49Z" transform="translate(-0.332 -0.26)"/>
    <path id="Path_50194" data-name="Path 50194" d="M51,35h8v2H51Z" transform="translate(-0.414 -0.233)"/>
    <path id="Path_50195" data-name="Path 50195" d="M5,13H7v2H5Z" transform="translate(0 -0.082)"/>
    <path id="Path_50196" data-name="Path 50196" d="M9,13H21v2H9Z" transform="translate(0 -0.082)"/>
    <path id="Path_50197" data-name="Path 50197" d="M5,17H21v2H5Z" transform="translate(0 -0.11)"/>
    <path id="Path_50198" data-name="Path 50198" d="M5,21H21v2H5Z" transform="translate(0 -0.137)"/>
    <path id="Path_50199" data-name="Path 50199" d="M5,25h8v2H5Z" transform="translate(0 -0.164)"/>
  </g>
</svg>
