<svg xmlns="http://www.w3.org/2000/svg" width="516" height="350.576" viewBox="0 0 516 350.576">
  <g id="two" transform="translate(-1050 -1743)">
    <g id="freepik--background-simple--inject-34" transform="translate(1135.917 1772.465)">
      <path id="Path_47705" data-name="Path 47705" d="M188.184,140.715c-5.428,8.249-12.3,20.533-14.525,30.174-7.035,30.442-6.017,50.073,5.562,76.909,8.035,18.631,20.015,28.318,33.361,43.61,10.624,12.177,26.505,23.934,40.36,32.254,20.078,12.052,38.62,20.97,61,27.853,27.951,8.6,57.751,8.543,86.979,7.678,33.21-.973,67.892-3.321,96.415-20.372,28.3-16.917,47.592-48.056,50.127-80.926,1.366-17.73-2.241-36.468-13.391-50.306-10.525-13.043-26.782-20.533-43.4-23s-33.5-.375-49.913,3.008c-18.747,3.874-38.646,9.365-56.608,2.678-23.211-8.651-34.629-34.067-51.6-52.082a98.924,98.924,0,0,0-74.686-30.6c-27.719,1.036-52.207,11.606-69.633,33.12Z" transform="translate(-169.24 -107.546)" fill="rgba(222,212,183,0.2)"/>
    </g>
    <g id="freepik--Floor--inject-34" transform="translate(1050 2092.407)">
      <path id="Path_47706" data-name="Path 47706" d="M589,466.162c0,.134-115.538.232-258,.232s-258-.1-258-.232,115.511-.232,258.045-.232S589,466.037,589,466.162Z" transform="translate(-73 -465.93)" fill="#263238"/>
    </g>
    <g id="freepik--Screens--inject-34" transform="translate(1234.466 1743)">
      <path id="Path_47707" data-name="Path 47707" d="M384.284,241.406h-99l7.32-70.526h99.843Z" transform="translate(-280.236 -84.874)" fill="#263238"/>
      <path id="Path_47708" data-name="Path 47708" d="M378.643,241.406H279.63l7.32-70.526h99.843Z" transform="translate(-279.63 -84.874)" fill="#455a64"/>
      <path id="Path_47709" data-name="Path 47709" d="M375.381,238.437H283.51L290.3,173h92.648Z" transform="translate(-280.046 -85.101)" fill="#f5f5f5"/>
      <path id="Path_47710" data-name="Path 47710" d="M294.668,228.8c-.134,0,.777-9.865,2.035-21.988s2.366-21.961,2.491-21.943-.777,9.82-2.035,21.988S294.793,228.81,294.668,228.8Z" transform="translate(-281.242 -86.375)" fill="#263238"/>
      <path id="Path_47711" data-name="Path 47711" d="M312.292,187.292a45.912,45.912,0,0,1-9.222,0,45.914,45.914,0,0,1,9.222,0Z" transform="translate(-282.144 -86.61)" fill="#263238"/>
      <path id="Path_47712" data-name="Path 47712" d="M352.946,187.292c0,.125-8.222.232-18.372.232s-18.364-.107-18.364-.232,8.222-.232,18.364-.232S352.946,187.167,352.946,187.292Z" transform="translate(-283.554 -86.61)" fill="#ded4b7"/>
      <path id="Path_47713" data-name="Path 47713" d="M311.081,213.342a46,46,0,0,1-9.231,0A46,46,0,0,1,311.081,213.342Z" transform="translate(-282.013 -89.404)" fill="#263238"/>
      <path id="Path_47714" data-name="Path 47714" d="M351.726,213.342c0,.134-8.222.232-18.364.232s-18.372-.1-18.372-.232,8.222-.232,18.372-.232S351.726,213.217,351.726,213.342Z" transform="translate(-283.423 -89.404)" fill="#ded4b7"/>
      <path id="Path_47715" data-name="Path 47715" d="M337.706,225.352c0,.125-8.222.232-18.364.232s-18.372-.107-18.372-.232,8.222-.232,18.372-.232S337.706,225.227,337.706,225.352Z" transform="translate(-281.919 -90.692)" fill="#ded4b7"/>
      <path id="Path_47716" data-name="Path 47716" d="M316.44,194.639a43.823,43.823,0,0,1-6.49.241,43.823,43.823,0,0,1-6.49-.241,46.2,46.2,0,0,1,6.49-.232A46.2,46.2,0,0,1,316.44,194.639Z" transform="translate(-282.186 -87.395)" fill="#ded4b7"/>
      <path id="Path_47717" data-name="Path 47717" d="M316.03,205.428a46.2,46.2,0,0,1-6.49.232,46.2,46.2,0,0,1-6.49-.232,44.639,44.639,0,0,1,6.49-.232,44.636,44.636,0,0,1,6.49.232Z" transform="translate(-282.142 -88.552)" fill="#ded4b7"/>
      <path id="Path_47718" data-name="Path 47718" d="M328.32,220.838a90.857,90.857,0,0,1-12.98,0,44.53,44.53,0,0,1,6.49-.232,44.64,44.64,0,0,1,6.49.232Z" transform="translate(-283.46 -90.205)" fill="#ded4b7"/>
      <path id="Path_47719" data-name="Path 47719" d="M366.847,194.642c0,.134-7.419.241-16.569.241s-16.578-.107-16.578-.241,7.419-.232,16.578-.232S366.847,194.517,366.847,194.642Z" transform="translate(-285.43 -87.398)" fill="#263238"/>
      <path id="Path_47720" data-name="Path 47720" d="M355.387,206.052c0,.134-7.419.232-16.569.232s-16.578-.1-16.578-.232,7.419-.232,16.578-.232S355.387,205.927,355.387,206.052Z" transform="translate(-284.201 -88.622)" fill="#263238"/>
      <path id="Path_47721" data-name="Path 47721" d="M368.165,220.842c0,.125-7.419.232-16.569.232s-16.6-.116-16.6-.232,7.419-.232,16.578-.232S368.165,220.708,368.165,220.842Z" transform="translate(-285.569 -90.208)" fill="#263238"/>
      <path id="Path_47722" data-name="Path 47722" d="M334.266,234.052c0,.125-7.428.232-16.578.232s-16.578-.107-16.578-.232,7.428-.232,16.578-.232S334.266,233.918,334.266,234.052Z" transform="translate(-281.934 -91.625)" fill="#263238"/>
      <path id="Path_47723" data-name="Path 47723" d="M375.327,234.052c0,.125-7.419.232-16.569.232s-16.578-.107-16.578-.232,7.419-.232,16.578-.232S375.327,233.918,375.327,234.052Z" transform="translate(-286.34 -91.625)" fill="#263238"/>
      <path id="Path_47724" data-name="Path 47724" d="M334.257,238.342c0,.134-7.419.232-16.569.232s-16.578-.1-16.578-.232,7.419-.232,16.578-.232S334.257,238.217,334.257,238.342Z" transform="translate(-281.934 -92.086)" fill="#263238"/>
      <path id="Path_47725" data-name="Path 47725" d="M336.067,197.742c0,.125-7.419.232-16.569.232s-16.578-.107-16.578-.232,7.419-.232,16.578-.232S336.067,197.617,336.067,197.742Z" transform="translate(-282.128 -87.731)" fill="#263238"/>
      <path id="Path_47726" data-name="Path 47726" d="M329.123,194.691a39.423,39.423,0,0,1-8.543,0,37.977,37.977,0,0,1,8.543,0Z" transform="translate(-284.023 -87.402)" fill="#455a64"/>
      <path id="Path_47727" data-name="Path 47727" d="M309.975,216.882a39.342,39.342,0,0,1-8.535,0,39.344,39.344,0,0,1,8.535,0Z" transform="translate(-281.969 -89.784)" fill="#455a64"/>
      <path id="Path_47728" data-name="Path 47728" d="M309.715,220.842a39.344,39.344,0,0,1-8.535,0A39.342,39.342,0,0,1,309.715,220.842Z" transform="translate(-281.942 -90.208)" fill="#455a64"/>
      <path id="Path_47729" data-name="Path 47729" d="M382.521,180.8c0,.125-20.658.232-46.145.232s-46.145-.107-46.145-.232,20.658-.241,46.145-.241S382.521,180.667,382.521,180.8Z" transform="translate(-280.767 -85.912)" fill="#263238"/>
      <path id="Path_47730" data-name="Path 47730" d="M298.166,177.2a1.089,1.089,0,1,1-.316-.776A1.1,1.1,0,0,1,298.166,177.2Z" transform="translate(-281.383 -85.434)" fill="#fff"/>
      <path id="Path_47731" data-name="Path 47731" d="M303.426,177.2a1.089,1.089,0,1,1-.316-.776A1.1,1.1,0,0,1,303.426,177.2Z" transform="translate(-281.947 -85.434)" fill="#fff"/>
      <path id="Path_47732" data-name="Path 47732" d="M308.736,177.2a1.089,1.089,0,1,1-.316-.776A1.1,1.1,0,0,1,308.736,177.2Z" transform="translate(-282.517 -85.434)" fill="#fff"/>
      <path id="Path_47733" data-name="Path 47733" d="M529.356,243.365H425.21l7.7-74.2H537.944Z" transform="translate(-295.246 -84.691)" fill="#263238"/>
      <path id="Path_47734" data-name="Path 47734" d="M523.416,243.365H419.27l7.7-74.2H532Z" transform="translate(-294.609 -84.691)" fill="#455a64"/>
      <path id="Path_47735" data-name="Path 47735" d="M520,240.239H423.36L430.5,171.4h97.46Z" transform="translate(-295.047 -84.93)" fill="#ebebeb"/>
      <path id="Path_47736" data-name="Path 47736" d="M435.149,228.938c-.125,0,.839-10.374,2.151-23.131s2.491-23.1,2.616-23.077-.839,10.365-2.151,23.131S435.274,228.947,435.149,228.938Z" transform="translate(-296.311 -86.145)" fill="#263238"/>
      <path id="Path_47737" data-name="Path 47737" d="M453.694,185.281a50.83,50.83,0,0,1-9.7,0A48.958,48.958,0,0,1,453.694,185.281Z" transform="translate(-297.26 -86.393)" fill="#263238"/>
      <path id="Path_47738" data-name="Path 47738" d="M496.456,185.281c0,.125-8.651.232-19.328.232s-19.319-.107-19.319-.232,8.651-.241,19.319-.241S496.456,185.147,496.456,185.281Z" transform="translate(-298.743 -86.393)" fill="#ded4b7"/>
      <path id="Path_47739" data-name="Path 47739" d="M452.414,212.682a50.834,50.834,0,0,1-9.7,0,50.83,50.83,0,0,1,9.7,0Z" transform="translate(-297.123 -89.333)" fill="#263238"/>
      <path id="Path_47740" data-name="Path 47740" d="M495.176,212.682c0,.125-8.66.232-19.328.232s-19.319-.107-19.319-.232,8.651-.232,19.319-.232S495.176,212.557,495.176,212.682Z" transform="translate(-298.605 -89.333)" fill="#ded4b7"/>
      <path id="Path_47741" data-name="Path 47741" d="M480.426,225.312c0,.134-8.651.232-19.319.232s-19.328-.1-19.328-.232,8.651-.232,19.328-.232S480.426,225.187,480.426,225.312Z" transform="translate(-297.023 -90.688)" fill="#ded4b7"/>
      <path id="Path_47742" data-name="Path 47742" d="M458.01,192.972a100.462,100.462,0,0,1-13.65,0,100.459,100.459,0,0,1,13.65,0Z" transform="translate(-297.3 -87.219)" fill="#ded4b7"/>
      <path id="Path_47743" data-name="Path 47743" d="M457.62,204.352a96.75,96.75,0,0,1-13.65,0,100.459,100.459,0,0,1,13.65,0Z" transform="translate(-297.258 -88.44)" fill="#ded4b7"/>
      <path id="Path_47744" data-name="Path 47744" d="M470.55,220.572a100.462,100.462,0,0,1-13.65,0,100.457,100.457,0,0,1,13.65,0Z" transform="translate(-298.645 -90.179)" fill="#ded4b7"/>
      <path id="Path_47745" data-name="Path 47745" d="M511.08,192.972c0,.134-7.8.232-17.435.232s-17.435-.1-17.435-.232,7.8-.232,17.435-.232S511.08,192.883,511.08,192.972Z" transform="translate(-300.716 -87.219)" fill="#263238"/>
      <path id="Path_47746" data-name="Path 47746" d="M499.03,204.972c0,.134-7.811.232-17.435.232s-17.435-.1-17.435-.232,7.8-.232,17.435-.232S499.03,204.883,499.03,204.972Z" transform="translate(-299.424 -88.506)" fill="#263238"/>
      <path id="Path_47747" data-name="Path 47747" d="M512.47,220.572c0,.125-7.811.232-17.435.232s-17.435-.107-17.435-.232,7.8-.232,17.435-.232S512.47,220.438,512.47,220.572Z" transform="translate(-300.866 -90.179)" fill="#263238"/>
      <path id="Path_47748" data-name="Path 47748" d="M476.81,234.462c0,.125-7.8.232-17.435.232s-17.435-.107-17.435-.232,7.811-.232,17.435-.232S476.81,234.337,476.81,234.462Z" transform="translate(-297.04 -91.669)" fill="#263238"/>
      <path id="Path_47749" data-name="Path 47749" d="M520,234.462c0,.125-7.811.232-17.435.232s-17.435-.107-17.435-.232,7.8-.232,17.435-.232S520,234.337,520,234.462Z" transform="translate(-301.673 -91.669)" fill="#263238"/>
      <path id="Path_47750" data-name="Path 47750" d="M476.81,238.972c0,.125-7.8.232-17.435.232s-17.435-.107-17.435-.232,7.8-.232,17.435-.232S476.81,238.856,476.81,238.972Z" transform="translate(-297.04 -92.153)" fill="#263238"/>
      <path id="Path_47751" data-name="Path 47751" d="M478.7,196.272c0,.125-7.8.232-17.435.232s-17.435-.107-17.435-.232,7.8-.232,17.435-.232S478.7,196.147,478.7,196.272Z" transform="translate(-297.243 -87.573)" fill="#263238"/>
      <path id="Path_47752" data-name="Path 47752" d="M471.391,193.052a43.557,43.557,0,0,1-8.981,0,43.557,43.557,0,0,1,8.981,0Z" transform="translate(-299.236 -87.227)" fill="#455a64"/>
      <path id="Path_47753" data-name="Path 47753" d="M451.221,216.4a43.559,43.559,0,0,1-8.981,0A43.557,43.557,0,0,1,451.221,216.4Z" transform="translate(-297.073 -89.732)" fill="#455a64"/>
      <path id="Path_47754" data-name="Path 47754" d="M450.981,220.572a43.555,43.555,0,0,1-8.981,0,43.561,43.561,0,0,1,8.981,0Z" transform="translate(-297.047 -90.179)" fill="#455a64"/>
      <path id="Path_47755" data-name="Path 47755" d="M527.566,178.442c0,.134-21.729.232-48.538.232s-48.538-.1-48.538-.232,21.729-.232,48.538-.232S527.566,178.317,527.566,178.442Z" transform="translate(-295.812 -85.66)" fill="#263238"/>
      <path id="Path_47756" data-name="Path 47756" d="M438.833,174.662a1.143,1.143,0,1,1-.335-.817,1.152,1.152,0,0,1,.335.817Z" transform="translate(-296.46 -85.156)" fill="#fff"/>
      <path id="Path_47757" data-name="Path 47757" d="M444.363,174.662a1.143,1.143,0,1,1-.335-.817,1.152,1.152,0,0,1,.335.817Z" transform="translate(-297.053 -85.156)" fill="#fff"/>
      <path id="Path_47758" data-name="Path 47758" d="M449.9,174.662a1.143,1.143,0,1,1-.335-.817A1.152,1.152,0,0,1,449.9,174.662Z" transform="translate(-297.648 -85.156)" fill="#fff"/>
      <path id="Path_47759" data-name="Path 47759" d="M463.359,145.387H363.9l7.356-70.847h100.3Z" transform="translate(-288.669 -74.54)" fill="#263238"/>
      <path id="Path_47760" data-name="Path 47760" d="M457.689,145.387H358.23l7.356-70.847h100.3Z" transform="translate(-288.061 -74.54)" fill="#455a64"/>
      <path id="Path_47761" data-name="Path 47761" d="M454.412,142.411H362.13l6.82-65.741h93.067Z" transform="translate(-288.479 -74.768)" fill="#fafafa"/>
      <path id="Path_47762" data-name="Path 47762" d="M373.489,132.7c-.125,0,.795-9.909,2.053-22.086s2.375-22.059,2.509-22.042-.795,9.9-2.053,22.086S373.623,132.7,373.489,132.7Z" transform="translate(-289.697 -76.045)" fill="#263238"/>
      <path id="Path_47763" data-name="Path 47763" d="M391.207,90.972a46.359,46.359,0,0,1-9.267,0,46.361,46.361,0,0,1,9.267,0Z" transform="translate(-290.604 -76.278)" fill="#263238"/>
      <path id="Path_47764" data-name="Path 47764" d="M432.036,90.972c0,.125-8.258.232-18.453.232s-18.453-.107-18.453-.232,8.258-.232,18.453-.232S432.036,90.82,432.036,90.972Z" transform="translate(-292.019 -76.278)" fill="#ded4b7"/>
      <path id="Path_47765" data-name="Path 47765" d="M389.977,117.122a46.359,46.359,0,0,1-9.267,0,46.361,46.361,0,0,1,9.267,0Z" transform="translate(-290.473 -79.083)" fill="#263238"/>
      <path id="Path_47766" data-name="Path 47766" d="M430.816,117.122c0,.125-8.267.232-18.453.232s-18.453-.107-18.453-.232,8.258-.232,18.453-.232S430.816,116.988,430.816,117.122Z" transform="translate(-291.888 -79.083)" fill="#ded4b7"/>
      <path id="Path_47767" data-name="Path 47767" d="M416.736,129.182c0,.125-8.267.232-18.453.232s-18.453-.107-18.453-.232,8.258-.232,18.453-.232S416.736,129.057,416.736,129.182Z" transform="translate(-290.378 -80.376)" fill="#ded4b7"/>
      <path id="Path_47768" data-name="Path 47768" d="M395.324,98.342a91.6,91.6,0,0,1-13.034,0,91.6,91.6,0,0,1,13.034,0Z" transform="translate(-290.642 -77.068)" fill="#ded4b7"/>
      <path id="Path_47769" data-name="Path 47769" d="M394.954,109.172a91.6,91.6,0,0,1-13.034,0,91.6,91.6,0,0,1,13.034,0Z" transform="translate(-290.602 -78.23)" fill="#ded4b7"/>
      <path id="Path_47770" data-name="Path 47770" d="M407.294,124.652a91.6,91.6,0,0,1-13.034,0,91.6,91.6,0,0,1,13.034,0Z" transform="translate(-291.926 -79.89)" fill="#ded4b7"/>
      <path id="Path_47771" data-name="Path 47771" d="M446,98.342c0,.125-7.454.232-16.649.232s-16.649-.107-16.649-.232,7.445-.232,16.649-.232S446,98.208,446,98.342Z" transform="translate(-293.904 -77.068)" fill="#263238"/>
      <path id="Path_47772" data-name="Path 47772" d="M434.489,109.8c0,.125-7.454.232-16.649.232s-16.649-.107-16.649-.232,7.454-.232,16.649-.232S434.489,109.668,434.489,109.8Z" transform="translate(-292.669 -78.298)" fill="#263238"/>
      <path id="Path_47773" data-name="Path 47773" d="M447.329,124.652c0,.125-7.454.232-16.649.232s-16.649-.107-16.649-.232,7.454-.232,16.649-.232S447.329,124.518,447.329,124.652Z" transform="translate(-294.047 -79.89)" fill="#263238"/>
      <path id="Path_47774" data-name="Path 47774" d="M413.272,137.972c0,.125-7.454.232-16.649.232S380,138.052,380,137.972s7.454-.232,16.649-.232S413.272,137.794,413.272,137.972Z" transform="translate(-290.396 -81.319)" fill="#263238"/>
      <path id="Path_47775" data-name="Path 47775" d="M454.519,137.972c0,.125-7.454.232-16.649.232s-16.649-.107-16.649-.232,7.454-.232,16.649-.232S454.519,137.794,454.519,137.972Z" transform="translate(-294.818 -81.319)" fill="#263238"/>
      <path id="Path_47776" data-name="Path 47776" d="M413.269,142.232c0,.134-7.454.232-16.649.232s-16.649-.1-16.649-.232,7.454-.232,16.649-.232S413.269,142.107,413.269,142.232Z" transform="translate(-290.393 -81.776)" fill="#263238"/>
      <path id="Path_47777" data-name="Path 47777" d="M415.079,101.452c0,.125-7.454.232-16.649.232s-16.649-.107-16.649-.232,7.454-.232,16.649-.232S415.079,101.318,415.079,101.452Z" transform="translate(-290.587 -77.402)" fill="#263238"/>
      <path id="Path_47778" data-name="Path 47778" d="M408.109,98.382a39.753,39.753,0,0,1-8.579,0A39.753,39.753,0,0,1,408.109,98.382Z" transform="translate(-292.491 -77.073)" fill="#455a64"/>
      <path id="Path_47779" data-name="Path 47779" d="M388.839,120.672a39.754,39.754,0,0,1-8.579,0A39.752,39.752,0,0,1,388.839,120.672Z" transform="translate(-290.424 -79.464)" fill="#455a64"/>
      <path id="Path_47780" data-name="Path 47780" d="M388.619,124.652a39.754,39.754,0,0,1-8.579,0,39.753,39.753,0,0,1,8.579,0Z" transform="translate(-290.401 -79.89)" fill="#455a64"/>
      <path id="Path_47781" data-name="Path 47781" d="M461.737,84.422c0,.134-20.747.241-46.342.241s-46.4-.107-46.4-.241,20.747-.232,46.36-.232S461.737,84.3,461.737,84.422Z" transform="translate(-289.216 -75.575)" fill="#263238"/>
      <circle id="Ellipse_351" data-name="Ellipse 351" cx="1.098" cy="1.098" r="1.098" transform="translate(84.979 4.615)" fill="#fff"/>
      <circle id="Ellipse_352" data-name="Ellipse 352" cx="1.098" cy="1.098" r="1.098" transform="translate(89.693 4.615)" fill="#fff"/>
      <circle id="Ellipse_353" data-name="Ellipse 353" cx="1.098" cy="1.098" r="1.098" transform="translate(94.407 4.615)" fill="#fff"/>
    </g>
    <g id="freepik--Character--inject-34" transform="translate(1158.922 1833.202)">
      <rect id="Rectangle_3957" data-name="Rectangle 3957" width="7.749" height="10.57" transform="translate(73.999 248.278)" fill="#263238"/>
      <rect id="Rectangle_3958" data-name="Rectangle 3958" width="68.749" height="3.348" transform="translate(192.036 124.938) rotate(180)" fill="#263238"/>
      <path id="Path_47782" data-name="Path 47782" d="M415.746,309.724l12.9-48.324H374.957L363.28,309.724Z" transform="translate(-213.06 -184.786)" fill="#263238"/>
      <path id="Path_47783" data-name="Path 47783" d="M366.89,306.341h47.958L426.007,263.9H377.8Z" transform="translate(-213.447 -185.054)" fill="#f5f5f5"/>
      <path id="Path_47784" data-name="Path 47784" d="M380.093,273.11l-2.973,12.016h31.8l3.392-12.016Z" transform="translate(-214.544 -186.042)" fill="#e0e0e0"/>
      <path id="Path_47785" data-name="Path 47785" d="M406.007,271.3c0,.134-5.571.232-12.454.232s-12.454-.1-12.454-.232,5.571-.232,12.454-.232S406.007,271.177,406.007,271.3Z" transform="translate(-214.971 -185.823)" fill="#455a64"/>
      <path id="Path_47786" data-name="Path 47786" d="M391.583,275.652a54.458,54.458,0,0,1-10.043,0A54.453,54.453,0,0,1,391.583,275.652Z" transform="translate(-215.018 -186.289)" fill="#263238"/>
      <path id="Path_47787" data-name="Path 47787" d="M401.025,275.442a23.114,23.114,0,0,1-6.535,0A23.113,23.113,0,0,1,401.025,275.442Z" transform="translate(-216.408 -186.267)" fill="#263238"/>
      <path id="Path_47788" data-name="Path 47788" d="M408.7,278.092c0,.134-6.151.241-13.739.241s-13.739-.107-13.739-.241,6.151-.232,13.739-.232S408.7,277.985,408.7,278.092Z" transform="translate(-214.984 -186.551)" fill="#455a64"/>
      <path id="Path_47789" data-name="Path 47789" d="M389.487,280.322a42.78,42.78,0,0,1-8.927,0,42.779,42.779,0,0,1,8.927,0Z" transform="translate(-214.913 -186.79)" fill="#32cd32"/>
      <path id="Path_47790" data-name="Path 47790" d="M406.178,283.512c0,.125-5.7.232-12.739.232s-12.748-.107-12.748-.232,5.7-.232,12.748-.232S406.178,283.378,406.178,283.512Z" transform="translate(-214.927 -187.133)" fill="#455a64"/>
      <path id="Path_47791" data-name="Path 47791" d="M387.05,290.4a52.43,52.43,0,0,1-9.82,0,52.428,52.428,0,0,1,9.82,0Z" transform="translate(-214.556 -187.872)" fill="#455a64"/>
      <path id="Path_47792" data-name="Path 47792" d="M396.862,290.444a12.839,12.839,0,0,1-3.366.205,12.008,12.008,0,0,1-3.357-.268,12.838,12.838,0,0,1,3.366-.205,12.007,12.007,0,0,1,3.357.268Z" transform="translate(-215.941 -187.869)" fill="#263238"/>
      <path id="Path_47793" data-name="Path 47793" d="M402.658,290.192c0,.134-.643.232-1.428.232s-1.419-.1-1.419-.232.643-.232,1.419-.232S402.658,290.067,402.658,290.192Z" transform="translate(-216.978 -187.849)" fill="#263238"/>
      <path id="Path_47794" data-name="Path 47794" d="M380.534,293.162c0,.134-.705.232-1.571.232s-1.562-.1-1.562-.232.705-.232,1.562-.232S380.534,293.037,380.534,293.162Z" transform="translate(-214.574 -188.168)" fill="#32cd32"/>
      <path id="Path_47795" data-name="Path 47795" d="M390.511,293.162a30.255,30.255,0,0,1-7.481,0A30.252,30.252,0,0,1,390.511,293.162Z" transform="translate(-215.178 -188.168)" fill="#263238"/>
      <path id="Path_47796" data-name="Path 47796" d="M414.048,292.842c0,.134-4.464.232-9.99.232s-10-.1-10-.232,4.464-.232,10-.232S414.048,292.717,414.048,292.842Z" transform="translate(-216.361 -188.133)" fill="#455a64"/>
      <path id="Path_47797" data-name="Path 47797" d="M379.984,296.032c0,.125-.714.232-1.607.232s-1.607-.107-1.607-.232.714-.232,1.607-.232S379.984,295.9,379.984,296.032Z" transform="translate(-214.507 -188.476)" fill="#263238"/>
      <path id="Path_47798" data-name="Path 47798" d="M385.423,295.969a4.151,4.151,0,0,1-1.937.232,4.2,4.2,0,0,1-1.946-.232,4.348,4.348,0,0,1,1.946-.232A4.294,4.294,0,0,1,385.423,295.969Z" transform="translate(-215.018 -188.466)" fill="#263238"/>
      <path id="Path_47799" data-name="Path 47799" d="M400.826,295.712a85.575,85.575,0,0,1-12.6,0,85.554,85.554,0,0,1,12.6,0Z" transform="translate(-215.736 -188.441)" fill="#455a64"/>
      <path id="Path_47800" data-name="Path 47800" d="M391.808,300.7a125.289,125.289,0,0,1-15.248,0,61.405,61.405,0,0,1,7.624-.232A61.523,61.523,0,0,1,391.808,300.7Z" transform="translate(-214.484 -188.973)" fill="#455a64"/>
      <path id="Path_47801" data-name="Path 47801" d="M402.78,300.482a25.826,25.826,0,0,1-6.91,0,25.83,25.83,0,0,1,6.91,0Z" transform="translate(-216.556 -188.953)" fill="#32cd32"/>
      <path id="Path_47802" data-name="Path 47802" d="M417.043,300.482a70.869,70.869,0,0,1-11.463,0A70.876,70.876,0,0,1,417.043,300.482Z" transform="translate(-217.597 -188.953)" fill="#263238"/>
      <path id="Path_47803" data-name="Path 47803" d="M414.715,271.092c0,.134-.536.232-1.187.232s-1.187-.1-1.187-.232.536-.232,1.187-.232S414.715,270.985,414.715,271.092Z" transform="translate(-218.322 -185.8)" fill="#263238"/>
      <path id="Path_47804" data-name="Path 47804" d="M387.284,269.292a14.756,14.756,0,0,1-5.214,0A14.758,14.758,0,0,1,387.284,269.292Z" transform="translate(-215.075 -185.607)" fill="#32cd32"/>
      <path id="Path_47805" data-name="Path 47805" d="M426.418,266.953H378.21l.812-3.053H427.23Z" transform="translate(-214.661 -185.054)" fill="#ebebeb"/>
      <circle id="Ellipse_354" data-name="Ellipse 354" cx="0.527" cy="0.527" r="0.527" transform="translate(165.861 79.864)" fill="#fafafa"/>
      <circle id="Ellipse_355" data-name="Ellipse 355" cx="0.527" cy="0.527" r="0.527" transform="translate(167.673 79.864)" fill="#fafafa"/>
      <circle id="Ellipse_356" data-name="Ellipse 356" cx="0.527" cy="0.527" r="0.527" transform="translate(169.485 79.864)" fill="#fafafa"/>
      <rect id="Rectangle_3959" data-name="Rectangle 3959" width="114.306" height="66.696" transform="translate(156.202 129.437)" fill="#263238"/>
      <rect id="Rectangle_3960" data-name="Rectangle 3960" width="52.073" height="66.696" transform="translate(156.202 129.437)" fill="#455a64"/>
      <path id="Path_47806" data-name="Path 47806" d="M417.317,343.688a1.417,1.417,0,0,1,0-.339v-.973c0-.893,0-2.116-.045-3.7,0-3.223-.054-7.829-.089-13.507l.17.17-41.887.063.232-.232h0v18.506l-.214-.214,30,.1,8.713.062h.1l-8.668.054-30.148.107h-.223v-18.6h0l.232-.232,41.887.063h.17v.17c-.045,5.722-.071,10.365-.1,13.605V343.4A1.791,1.791,0,0,0,417.317,343.688Z" transform="translate(-214.345 -191.602)" fill="#263238"/>
      <path id="Path_47807" data-name="Path 47807" d="M400.44,335.331a2.322,2.322,0,0,0-.8-1.286,1.625,1.625,0,0,0-1.509-.187,1.589,1.589,0,0,0-1.018,1.473,1.607,1.607,0,0,0,1.018,1.473,1.652,1.652,0,0,0,1.509-.2,2.375,2.375,0,0,0,.8-1.286.681.681,0,0,1,0,.455,1.786,1.786,0,0,1-.634,1.089,1.937,1.937,0,0,1-1.857.33,1.982,1.982,0,0,1,0-3.75,1.937,1.937,0,0,1,1.857.321,1.786,1.786,0,0,1,.634,1.089C400.529,335.17,400.467,335.331,400.44,335.331Z" transform="translate(-216.635 -192.502)" fill="#263238"/>
      <path id="Path_47808" data-name="Path 47808" d="M417.316,366.53a1.616,1.616,0,0,1,0-.348v-.973c0-.893,0-2.116-.045-3.7,0-3.214-.054-7.82-.089-13.507l.17.17-41.887.071.232-.232h0v18.515l-.214-.223,30,.107,8.713.063h.1l-8.668.063-30.148.107h-.223V348.015h0c-.054,0,.437-.446.232-.241l41.887.071h.17v.125c-.045,5.731-.071,10.374-.1,13.614v4.606A1.227,1.227,0,0,0,417.316,366.53Z" transform="translate(-214.344 -194.045)" fill="#263238"/>
      <path id="Path_47809" data-name="Path 47809" d="M400.44,358.175a2.375,2.375,0,0,0-.8-1.259,1.586,1.586,0,1,0-1.509,2.758,1.625,1.625,0,0,0,1.509-.187,2.348,2.348,0,0,0,.8-1.286.682.682,0,0,1,0,.455,1.785,1.785,0,0,1-.634,1.089,1.937,1.937,0,0,1-1.857.33,1.982,1.982,0,0,1,0-3.749,1.937,1.937,0,0,1,1.857.33,1.786,1.786,0,0,1,.634,1.089C400.529,358.015,400.467,358.175,400.44,358.175Z" transform="translate(-216.635 -194.957)" fill="#263238"/>
      <path id="Path_47810" data-name="Path 47810" d="M417.317,389.378a1.417,1.417,0,0,1,0-.339v-.973c0-.893,0-2.116-.045-3.7,0-3.223-.054-7.829-.089-13.507l.17.17-41.887.063.232-.232h0v18.506l-.214-.214,30,.1,8.713.063h.1l-8.668.054-30.148.107h-.223v-18.6h0l.232-.232,41.887.063h.17v.17c-.045,5.722-.071,10.365-.1,13.605v4.615A.789.789,0,0,0,417.317,389.378Z" transform="translate(-214.345 -196.503)" fill="#263238"/>
      <path id="Path_47811" data-name="Path 47811" d="M400.44,381.022a2.322,2.322,0,0,0-.8-1.286,1.625,1.625,0,0,0-1.509-.187,1.584,1.584,0,1,0,1.509,2.759,2.375,2.375,0,0,0,.8-1.286.681.681,0,0,1,0,.455,1.786,1.786,0,0,1-.634,1.089,1.937,1.937,0,0,1-1.857.33,1.982,1.982,0,0,1,0-3.749,1.937,1.937,0,0,1,1.857.321,1.786,1.786,0,0,1,.634,1.089C400.529,380.861,400.467,381.022,400.44,381.022Z" transform="translate(-216.635 -197.404)" fill="#263238"/>
      <path id="Path_47812" data-name="Path 47812" d="M275.531,441.553l-76.391-.062V320.57h76.391Z" transform="translate(-195.453 -191.133)" fill="#263238"/>
      <rect id="Rectangle_3961" data-name="Rectangle 3961" width="274.658" height="6.338" transform="translate(0 124.786)" fill="#263238"/>
      <rect id="Rectangle_3962" data-name="Rectangle 3962" width="8.517" height="128.286" transform="translate(3.687 131.125)" fill="#263238"/>
      <rect id="Rectangle_3963" data-name="Rectangle 3963" width="8.517" height="128.322" transform="translate(261.991 131.125)" fill="#263238"/>
      <rect id="Rectangle_3964" data-name="Rectangle 3964" width="8.517" height="128.322" transform="translate(208.275 131.125)" fill="#263238"/>
      <path id="Path_47813" data-name="Path 47813" d="M233.876,315.332c0,.125-8.186.232-18.283.232s-18.283-.107-18.283-.232,8.186-.232,18.283-.232S233.876,315.2,233.876,315.332Z" transform="translate(-195.257 -190.546)" fill="#455a64"/>
      <path id="Path_47814" data-name="Path 47814" d="M326.136,458l.214-9.168-17.185-.518L308.71,461.7l1.062.1c4.731.411,24.1,1.732,27.291.893C340.634,461.728,326.136,458,326.136,458Z" transform="translate(-207.206 -204.835)" fill="#ded4b7"/>
      <g id="Group_37847" data-name="Group 37847" transform="translate(101.504 255.241)" opacity="0.4">
        <path id="Path_47815" data-name="Path 47815" d="M333.207,461.49s5.08,1.625,4.41,2.455-20.283.214-28.907-.8v-.384l22.881.893S332.18,461.5,333.207,461.49Z" transform="translate(-308.71 -461.49)" fill="#fff"/>
      </g>
      <path id="Path_47816" data-name="Path 47816" d="M308.45,462.89h.295l.893.08,3.116.232c2.634.179,6.249.366,10.3.5s7.678.161,10.32.152h0c-2.634,0-6.249-.089-10.311-.214s-7.669-.295-10.3-.437l-3.125-.161h-.893Z" transform="translate(-207.178 -206.399)" fill="#263238"/>
      <path id="Path_47817" data-name="Path 47817" d="M334.36,463.894a6.838,6.838,0,0,1,.634-1.473,7.436,7.436,0,0,1,1.1-1.161,2.785,2.785,0,0,0-1.732,2.634Z" transform="translate(-209.958 -206.224)" fill="#263238"/>
      <path id="Path_47818" data-name="Path 47818" d="M328.769,460.991a2.3,2.3,0,0,0,.562-.643,1.965,1.965,0,0,0,.393-.759c-.045-.027-.3.25-.562.643S328.725,460.956,328.769,460.991Z" transform="translate(-209.357 -206.045)" fill="#263238"/>
      <path id="Path_47819" data-name="Path 47819" d="M327.24,460.177a2.712,2.712,0,0,0,.616-.393c.3-.259.518-.5.482-.545s-.312.134-.616.393S327.2,460.132,327.24,460.177Z" transform="translate(-209.193 -206.006)" fill="#263238"/>
      <path id="Path_47820" data-name="Path 47820" d="M326.31,458.431a2.187,2.187,0,0,0,.893.143,1.955,1.955,0,0,0,.893-.071,2.231,2.231,0,0,0-.893-.143C326.712,458.341,326.31,458.368,326.31,458.431Z" transform="translate(-209.094 -205.912)" fill="#263238"/>
      <path id="Path_47821" data-name="Path 47821" d="M326,457.15a1.83,1.83,0,0,0,.991.321,1.785,1.785,0,0,0,1.036-.107,4.813,4.813,0,0,0-1.018-.1A4.544,4.544,0,0,0,326,457.15Z" transform="translate(-209.061 -205.783)" fill="#263238"/>
      <path id="Path_47822" data-name="Path 47822" d="M329.48,459.32a3.27,3.27,0,0,0,1.1,0,6.982,6.982,0,0,0,1.187-.223,3.384,3.384,0,0,0,.678-.259.589.589,0,0,0,.286-.33.429.429,0,0,0-.152-.446,2.035,2.035,0,0,0-2.526.509,2.071,2.071,0,0,0-.384.732.743.743,0,0,0,0,.295,3.152,3.152,0,0,1,.536-.893,1.956,1.956,0,0,1,.955-.58,1.786,1.786,0,0,1,1.321.125c.17.134.089.339-.107.455a3.773,3.773,0,0,1-.625.241,8.285,8.285,0,0,1-1.152.268C329.944,459.294,329.48,459.285,329.48,459.32Z" transform="translate(-209.434 -205.855)" fill="#263238"/>
      <path id="Path_47823" data-name="Path 47823" d="M329.624,459.309a1.081,1.081,0,0,0,.152-.759,1.786,1.786,0,0,0-.277-.821,1.107,1.107,0,0,0-.893-.589.437.437,0,0,0-.357.5,1.232,1.232,0,0,0,.179.5,3.035,3.035,0,0,0,.5.679,1.705,1.705,0,0,0,.616.473,6.571,6.571,0,0,1-.509-.571,3.784,3.784,0,0,1-.437-.669c-.143-.241-.241-.661.045-.705s.545.268.705.491a1.785,1.785,0,0,1,.295.732A3.57,3.57,0,0,1,329.624,459.309Z" transform="translate(-209.302 -205.782)" fill="#263238"/>
      <path id="Path_47824" data-name="Path 47824" d="M309,457.625c0,.045.5,0,1.268.089a5.356,5.356,0,0,1,4.392,3.723,12.706,12.706,0,0,1,.286,1.241.893.893,0,0,0,0-.348,5.855,5.855,0,0,0-.161-.893,5.223,5.223,0,0,0-4.517-3.83,4.707,4.707,0,0,0-.946,0,1.327,1.327,0,0,0-.321.018Z" transform="translate(-207.237 -205.829)" fill="#263238"/>
      <path id="Path_47825" data-name="Path 47825" d="M311.2,449.68a32.387,32.387,0,0,0-.259,3.526,31.6,31.6,0,0,0-.045,3.571,32.144,32.144,0,0,0,.259-3.526A29.266,29.266,0,0,0,311.2,449.68Z" transform="translate(-207.437 -204.982)" fill="#263238"/>
      <path id="Path_47826" data-name="Path 47826" d="M318.17,461.588a9.614,9.614,0,0,0,2.5.33,9.981,9.981,0,0,0,2.517-.125c0-.062-1.125,0-2.509-.08S318.179,461.535,318.17,461.588Z" transform="translate(-208.221 -206.257)" fill="#263238"/>
      <path id="Path_47827" data-name="Path 47827" d="M314.4,461.469s.08.241.187.5.161.5.223.491.1-.268,0-.562S314.436,461.434,314.4,461.469Z" transform="translate(-207.817 -206.246)" fill="#263238"/>
      <path id="Path_47828" data-name="Path 47828" d="M313,459.659a1.147,1.147,0,0,0,.232.411c.17.187.348.3.393.259s-.062-.214-.241-.4S313.071,459.624,313,459.659Z" transform="translate(-207.666 -206.051)" fill="#263238"/>
      <path id="Path_47829" data-name="Path 47829" d="M311,458.779c0,.063.241.063.491.161s.429.232.473.2-.089-.277-.4-.393S311,458.726,311,458.779Z" transform="translate(-207.452 -205.948)" fill="#263238"/>
      <path id="Path_47830" data-name="Path 47830" d="M309.58,458.355c0,.054.08.143.214.205s.277.063.295,0-.071-.152-.214-.205S309.607,458.3,309.58,458.355Z" transform="translate(-207.3 -205.908)" fill="#263238"/>
      <g id="Group_37848" data-name="Group 37848" transform="translate(101.7 249.51)" opacity="0.3">
        <path id="Path_47831" data-name="Path 47831" d="M309.028,456.9l17.176.241.036-2.071-17.31.732Z" transform="translate(-308.93 -455.07)"/>
      </g>
      <path id="Path_47832" data-name="Path 47832" d="M356.512,459.65v-9.177l-17.194-.062-.1,13.391,1.062.071c4.74.277,24.1,1.089,27.309.143C371.108,462.989,356.512,459.65,356.512,459.65Z" transform="translate(-210.479 -205.06)" fill="#ded4b7"/>
      <g id="Group_37849" data-name="Group 37849" transform="translate(128.705 256.473)" opacity="0.4">
        <path id="Path_47833" data-name="Path 47833" d="M363.632,462.87s5.115,1.5,4.464,2.339-20.265.759-28.916,0v-.384l22.89.295S362.632,462.915,363.632,462.87Z" transform="translate(-339.18 -462.87)" fill="#fff"/>
      </g>
      <path id="Path_47834" data-name="Path 47834" d="M338.92,465h.295l.848.054,3.125.152c2.634.107,6.249.205,10.311.223s7.677,0,10.32-.116l3.125-.116.848-.054h-.848l-3.125.045c-2.678,0-6.294.08-10.32.063s-7.669-.1-10.311-.161L340.063,465Z" transform="translate(-210.447 -206.625)" fill="#263238"/>
      <path id="Path_47835" data-name="Path 47835" d="M364.858,465.327a6.483,6.483,0,0,1,.589-1.491,6.935,6.935,0,0,1,1.071-1.2,2.3,2.3,0,0,0-1.25,1.089A2.267,2.267,0,0,0,364.858,465.327Z" transform="translate(-213.227 -206.372)" fill="#263238"/>
      <path id="Path_47836" data-name="Path 47836" d="M359.189,462.568a2.483,2.483,0,0,0,.545-.661c.259-.393.411-.732.366-.768s-.295.268-.545.661S359.135,462.532,359.189,462.568Z" transform="translate(-212.62 -206.211)" fill="#263238"/>
      <path id="Path_47837" data-name="Path 47837" d="M357.63,461.793a2.8,2.8,0,0,0,.607-.4c.295-.259.509-.518.473-.562s-.312.143-.607.4S357.594,461.749,357.63,461.793Z" transform="translate(-212.453 -206.177)" fill="#263238"/>
      <path id="Path_47838" data-name="Path 47838" d="M356.65,460.079a2.16,2.16,0,0,0,.893.116,2.053,2.053,0,0,0,.893-.089c0-.062-.393-.116-.893-.116S356.65,460,356.65,460.079Z" transform="translate(-212.349 -206.088)" fill="#263238"/>
      <path id="Path_47839" data-name="Path 47839" d="M356.32,458.8a1.785,1.785,0,0,0,1,.295,1.634,1.634,0,0,0,1.036-.134,6.256,6.256,0,0,0-1.018-.071A5.751,5.751,0,0,0,356.32,458.8Z" transform="translate(-212.313 -205.96)" fill="#263238"/>
      <path id="Path_47840" data-name="Path 47840" d="M359.85,460.877a2.954,2.954,0,0,0,1.1,0,5.67,5.67,0,0,0,1.178-.259,2.962,2.962,0,0,0,.678-.268.616.616,0,0,0,.277-.348.437.437,0,0,0-.17-.437,2.027,2.027,0,0,0-2.509.58,2.2,2.2,0,0,0-.366.732.661.661,0,0,0,0,.3,3.1,3.1,0,0,1,.509-.893,2.035,2.035,0,0,1,.946-.616,1.723,1.723,0,0,1,1.312.1c.179.134.107.339-.089.455a3.106,3.106,0,0,1-.616.259,8.326,8.326,0,0,1-1.143.295A4.675,4.675,0,0,0,359.85,460.877Z" transform="translate(-212.692 -206.019)" fill="#263238"/>
      <path id="Path_47841" data-name="Path 47841" d="M360,460.873a1.151,1.151,0,0,0,.125-.768,1.786,1.786,0,0,0-.295-.812,1.125,1.125,0,0,0-.893-.562.429.429,0,0,0-.339.509,1.205,1.205,0,0,0,.187.491,3.285,3.285,0,0,0,.518.67c.339.339.616.473.625.446s-.214-.2-.518-.545a4.334,4.334,0,0,1-.464-.67c-.152-.232-.25-.652,0-.7s.553.25.723.464a1.785,1.785,0,0,1,.312.723,4.464,4.464,0,0,1,.018.75Z" transform="translate(-212.557 -205.952)" fill="#263238"/>
      <path id="Path_47842" data-name="Path 47842" d="M339.33,459.729a6.489,6.489,0,0,1,1.268.054,5.437,5.437,0,0,1,2.767,1.152,5.5,5.5,0,0,1,1.723,2.455c.259.732.286,1.232.321,1.223a1.168,1.168,0,0,0,0-.348,5.184,5.184,0,0,0-.179-.893,5.24,5.24,0,0,0-4.615-3.714,5.154,5.154,0,0,0-.946,0C339.446,459.684,339.33,459.711,339.33,459.729Z" transform="translate(-210.491 -206.05)" fill="#263238"/>
      <path id="Path_47843" data-name="Path 47843" d="M341.336,451.73a29.972,29.972,0,0,0-.161,3.571,28.191,28.191,0,0,0,.045,3.571,32.48,32.48,0,0,0,.161-3.571,28.276,28.276,0,0,0-.045-3.571Z" transform="translate(-210.685 -205.202)" fill="#263238"/>
      <path id="Path_47844" data-name="Path 47844" d="M348.6,463.458a9.766,9.766,0,0,0,2.509.259,9.892,9.892,0,0,0,2.517-.2c0-.054-1.134,0-2.518,0S348.609,463.4,348.6,463.458Z" transform="translate(-211.485 -206.458)" fill="#263238"/>
      <path id="Path_47845" data-name="Path 47845" d="M344.82,463.429a4.9,4.9,0,0,0,.205.5c.107.259.179.491.241.482s.089-.268-.045-.562S344.865,463.394,344.82,463.429Z" transform="translate(-211.08 -206.456)" fill="#263238"/>
      <path id="Path_47846" data-name="Path 47846" d="M343.409,461.659c-.045,0,.071.214.25.4s.348.295.393.25-.071-.214-.25-.4S343.453,461.614,343.409,461.659Z" transform="translate(-210.927 -206.266)" fill="#263238"/>
      <path id="Path_47847" data-name="Path 47847" d="M341.38,460.829c0,.063.241.063.491.152s.437.223.482.187-.1-.277-.411-.384S341.362,460.775,341.38,460.829Z" transform="translate(-210.71 -206.168)" fill="#263238"/>
      <path id="Path_47848" data-name="Path 47848" d="M339.93,460.446c0,.054.08.143.223.205s.277.054.295,0-.08-.143-.223-.2S339.992,460.392,339.93,460.446Z" transform="translate(-210.555 -206.133)" fill="#263238"/>
      <g id="Group_37850" data-name="Group 37850" transform="translate(128.732 250.938)" opacity="0.3">
        <path id="Path_47849" data-name="Path 47849" d="M339.344,458.946l17.176-.205-.018-2.071-17.292,1.187Z" transform="translate(-339.21 -456.67)"/>
      </g>
      <path id="Path_47850" data-name="Path 47850" d="M316.07,283.876l6.883,20.72c1.857,5.6,6.749,6.562,12.65,6.562h38.289v-8.6l-34.977-4.99-8.338-21.3Z" transform="translate(-207.996 -186.381)" fill="#ffbe9d"/>
      <path id="Path_47851" data-name="Path 47851" d="M385.054,302.827l3.035-1.437s3.276-6.329,4.026-6.071.973,2.116-.339,5.017l4.035-1.152s8.749,4.044,8.365,4.589a2.043,2.043,0,0,1-3.009.893c-1.9-.946-4.41-2.125-4.41-2.125l-4.714,1.348,6.08.777,5.722,5.2a2.8,2.8,0,0,1-3.5-.08l-14.855,3.187-4.651.268v-8.6Z" transform="translate(-214.943 -188.423)" fill="#ffbe9d"/>
      <path id="Path_47852" data-name="Path 47852" d="M401.724,311.128c-.062,0-.339-.4-.893-.982a4.535,4.535,0,0,0-1.08-.839,4.375,4.375,0,0,0-1.607-.42,22.577,22.577,0,0,1-4.464-.759,22.454,22.454,0,0,1,4.517.3,4.321,4.321,0,0,1,1.785.509,4.106,4.106,0,0,1,1.116.991,2.58,2.58,0,0,1,.625,1.2Z" transform="translate(-216.321 -189.797)" fill="#eb996e"/>
      <path id="Path_47853" data-name="Path 47853" d="M399.5,312.009c-.062,0-.107-.3-.518-.393s-1.107-.161-1.785-.232a15.8,15.8,0,0,1-2.607-.259,5.24,5.24,0,0,1,2.678-.205,8.215,8.215,0,0,1,1.866.384.732.732,0,0,1,.446.473C399.58,311.937,399.527,312.018,399.5,312.009Z" transform="translate(-216.418 -190.088)" fill="#eb996e"/>
      <path id="Path_47854" data-name="Path 47854" d="M279.61,188.854l-2.08,42.119,18.033,1.7,1-10.177s6.356,1.571,8.285-4.312c1.241-3.758,2.339-33.2,2.339-33.2Z" transform="translate(-203.862 -176.588)" fill="#ffbe9d"/>
      <path id="Path_47855" data-name="Path 47855" d="M308.155,189.194c.5,3.946-5.008,6.249-5.008,6.249l-.964,9.329a18.165,18.165,0,0,0-2.589,0c.464-4.374-5.178-3.517-5.749-.536s2.678,4.785,2.678,4.785c-2.25,3.455-3.169,5.285-6.365,8.526-3.464,3.508-5.356,3.794-8.927,3.687l-3.937-.179s-1.41-3.366-2.437-11.32c-.491-3.821-3.482-8.838-2.625-15.051,2.41-17.667,19.337-15.8,19.337-15.8C300.415,179.071,306.995,180.053,308.155,189.194Z" transform="translate(-203.277 -175.928)" fill="#263238"/>
      <path id="Path_47856" data-name="Path 47856" d="M298,179.4c3.821.1,7.785.4,11.141,2.232s5.946,5.606,5.258,9.365l-1.91.348-.786-1.411v2.25l-3.357.937a24.6,24.6,0,0,0-2.982-8.133" transform="translate(-206.057 -175.99)" fill="#263238"/>
      <path id="Path_47857" data-name="Path 47857" d="M280.544,199.145a2.276,2.276,0,0,1-.295-.661,11.339,11.339,0,0,1-.482-1.919,14.034,14.034,0,0,1,3.758-12.079A10.907,10.907,0,0,1,285,183.174a2.195,2.195,0,0,1,.625-.384c.045.063-.777.678-1.857,1.91a15.4,15.4,0,0,0-3.1,5.517,15.56,15.56,0,0,0-.554,6.3C280.285,198.154,280.624,199.118,280.544,199.145Z" transform="translate(-204.081 -176.353)" fill="#455a64"/>
      <path id="Path_47858" data-name="Path 47858" d="M284.5,197.657a7.32,7.32,0,0,1-.705-2.16,17.971,17.971,0,0,1-.348-5.481,18.257,18.257,0,0,1,1.286-5.356,7.23,7.23,0,0,1,1.08-2.009,23.3,23.3,0,0,0-1.312,15.007Z" transform="translate(-204.489 -176.338)" fill="#455a64"/>
      <path id="Path_47859" data-name="Path 47859" d="M308.674,190.906c-.089,0-.241-1.089-.973-2.678a12.32,12.32,0,0,0-10.775-7.267c-1.785-.08-2.848.187-2.866.107a2.357,2.357,0,0,1,.75-.232,10.328,10.328,0,0,1,2.125-.2A11.9,11.9,0,0,1,308,188.13a10.289,10.289,0,0,1,.6,2.044,2.233,2.233,0,0,1,.071.732Z" transform="translate(-205.635 -176.123)" fill="#455a64"/>
      <path id="Path_47860" data-name="Path 47860" d="M281.29,175.58a4.687,4.687,0,0,1,2.589,1.536,4.6,4.6,0,0,1,1.518,2.6c-.125.054-.705-1.143-1.848-2.276S281.227,175.714,281.29,175.58Z" transform="translate(-204.265 -175.58)" fill="#263238"/>
      <path id="Path_47861" data-name="Path 47861" d="M285.93,175.6c.134.045-.143.991-.089,2.16s.375,2.08.25,2.143a3.018,3.018,0,0,1-.714-2.125,2.981,2.981,0,0,1,.553-2.178Z" transform="translate(-204.7 -175.582)" fill="#455a64"/>
      <path id="Path_47862" data-name="Path 47862" d="M305.954,274.679l2.937,9.972,18.694-8.454c-.67-2.089-3.767-11.391-9.677-26.157a25.38,25.38,0,0,0-19.381-15.614,111.093,111.093,0,0,0-17.855-1.785c-10.481.116-25.889,6.669-27.978,16.962-1.589,7.838-.062,21.685-.062,38.5L254,320.244l53.707,1.785Z" transform="translate(-201.12 -181.701)" fill="#ded4b7"/>
      <g id="Group_37851" data-name="Group 37851" transform="translate(51.538 98.383)" opacity="0.3">
        <path id="Path_47863" data-name="Path 47863" d="M252.74,286.379c6.535,1.339,13.239,0,19.9-.4,4.035-.241,8.517-.678,11.713,1.785,2.535,1.964,3.571,5.276,4.285,8.4,2.785,11.9,3.285,19.881,3.91,32.085l-32.326,1.964Z" transform="translate(-252.74 -285.784)"/>
      </g>
      <path id="Path_47864" data-name="Path 47864" d="M316.5,248.652c0,.134-14.105.232-31.5.232s-31.487-.1-31.487-.232,14.1-.232,31.487-.232S316.5,248.527,316.5,248.652Z" transform="translate(-201.286 -183.393)" fill="#fafafa"/>
      <path id="Path_47865" data-name="Path 47865" d="M320.233,258.762c0,.125-15.337.232-34.236.232s-34.236-.107-34.236-.232,15.319-.232,34.236-.232S320.233,258.637,320.233,258.762Z" transform="translate(-201.097 -184.478)" fill="#fafafa"/>
      <path id="Path_47866" data-name="Path 47866" d="M325.221,271.442c0,.134-16.355.232-36.531.232s-36.531-.1-36.531-.232,16.355-.232,36.531-.232S325.221,271.317,325.221,271.442Z" transform="translate(-201.14 -185.838)" fill="#fafafa"/>
      <path id="Path_47867" data-name="Path 47867" d="M309.257,285.122c0,.125-5.115.232-11.409.232s-11.418-.107-11.418-.232,5.106-.232,11.418-.232S309.257,284.988,309.257,285.122Z" transform="translate(-204.816 -187.305)" fill="#fafafa"/>
      <path id="Path_47868" data-name="Path 47868" d="M310.3,299.958c0,.125-5.356.187-11.945.134s-11.945-.2-11.945-.33,5.356-.187,11.945-.134S310.3,299.806,310.3,299.958Z" transform="translate(-204.814 -188.884)" fill="#fafafa"/>
      <path id="Path_47869" data-name="Path 47869" d="M310.881,311.986a3.573,3.573,0,0,1-.937.045l-2.562-.054c-2.16-.045-5.142-.107-8.436-.107s-6.249.054-8.436.1l-2.562.054a3.657,3.657,0,0,1-.946,0,3.571,3.571,0,0,1,.937-.143c.6-.062,1.473-.125,2.553-.187,2.16-.134,5.151-.241,8.454-.241s6.294.116,8.445.25c1.08.063,1.955.134,2.562.2a3.864,3.864,0,0,1,.928.089Z" transform="translate(-204.877 -190.154)" fill="#fafafa"/>
      <path id="Path_47870" data-name="Path 47870" d="M310.734,321.782c0,.125-5.267.232-11.766.232s-11.757-.107-11.757-.232,5.258-.232,11.757-.232S310.734,321.648,310.734,321.782Z" transform="translate(-204.9 -191.238)" fill="#fafafa"/>
      <path id="Path_47871" data-name="Path 47871" d="M309.8,238.742c0,.134-10.338.232-23.086.232s-23.1-.1-23.1-.232,10.338-.232,23.1-.232S309.8,238.617,309.8,238.742Z" transform="translate(-202.37 -182.33)" fill="#fafafa"/>
      <path id="Path_47872" data-name="Path 47872" d="M313.182,240.649c0,.054-.536.08-1.428.428a7.544,7.544,0,0,0-3.1,2.509,10.48,10.48,0,0,0-1.848,5.6,35.165,35.165,0,0,0,.571,7.356,119.628,119.628,0,0,0,3,13.168c.437,1.616.8,2.946,1.08,3.955a10.656,10.656,0,0,1,.348,1.464,8.463,8.463,0,0,1-.518-1.41c-.3-.893-.732-2.259-1.232-3.919a103.545,103.545,0,0,1-3.125-13.186,34.629,34.629,0,0,1-.536-7.463,10.588,10.588,0,0,1,2.018-5.758,7.293,7.293,0,0,1,3.294-2.482,5.426,5.426,0,0,1,1.1-.25,1.312,1.312,0,0,1,.375-.009Z" transform="translate(-206.956 -182.559)" fill="#263238"/>
      <path id="Path_47873" data-name="Path 47873" d="M333.735,278.57a17.544,17.544,0,0,1-2.634,1.518c-1.66.893-3.991,2.009-6.6,3.187s-5,2.16-6.749,2.83a18.646,18.646,0,0,1-2.875.973,20.535,20.535,0,0,1,2.75-1.277c1.714-.75,4.089-1.785,6.687-2.946s4.937-2.276,6.633-3.062a22.39,22.39,0,0,1,2.785-1.223Z" transform="translate(-207.868 -186.627)" fill="#263238"/>
      <path id="Path_47874" data-name="Path 47874" d="M272.809,331.36l64.17,2.268a19.149,19.149,0,0,1,18.462,19.426L352.762,444.7l-24.791-.821,1.848-85.81-57.019-1.5Z" transform="translate(-203.354 -192.29)" fill="#263238"/>
      <path id="Path_47875" data-name="Path 47875" d="M243.11,331.36l64.179,2.268a19.149,19.149,0,0,1,18.462,19.426L323.072,444.7l-25.122-1.991,2.2-84.64-57.019-1.5Z" transform="translate(-200.17 -192.29)" fill="#263238"/>
      <rect id="Rectangle_3965" data-name="Rectangle 3965" width="6.312" height="75.623" transform="translate(84.658 172.36)" fill="#455a64"/>
      <path id="Path_47876" data-name="Path 47876" d="M230.51,285.722v55.671a13.221,13.221,0,0,0,13.221,13.221h37.075V285.722a5.892,5.892,0,0,0-5.892-5.892H236.4A5.892,5.892,0,0,0,230.51,285.722Z" transform="translate(-198.818 -186.763)" fill="#455a64"/>
      <path id="Path_47877" data-name="Path 47877" d="M331.883,367.47H241.61a9.82,9.82,0,0,1,9.82-9.82h70.678a9.82,9.82,0,0,1,9.82,9.82Z" transform="translate(-200.009 -195.11)" fill="#455a64"/>
      <path id="Path_47878" data-name="Path 47878" d="M282.288,356.22a2.729,2.729,0,0,1,0,.429,5.732,5.732,0,0,1-.152,1.214,6.669,6.669,0,0,1-5.285,5.026,25.809,25.809,0,0,1-3.571.134h-8.115c-5.758,0-10.972,0-14.739-.054l-4.464-.062-1.214-.045a2.411,2.411,0,0,1-.429-.045,1.409,1.409,0,0,1,.429-.054l1.214-.045,4.464-.08c3.767-.045,8.981-.071,14.739-.08h8.106a27.848,27.848,0,0,0,3.508-.08,6.427,6.427,0,0,0,2.732-1.161,6.544,6.544,0,0,0,2.437-3.571A12.933,12.933,0,0,0,282.288,356.22Z" transform="translate(-200.299 -194.957)" fill="#263238"/>
      <path id="Path_47879" data-name="Path 47879" d="M298.249,368.839a66.214,66.214,0,0,1-11.079,0,66.206,66.206,0,0,1,11.079,0Z" transform="translate(-204.896 -196.282)" fill="#263238"/>
      <path id="Path_47880" data-name="Path 47880" d="M324.818,359.909a15.107,15.107,0,0,1-.553-2.678c-.3-1.714-.705-4.2-1.187-7.276s-.812-6.794-2.509-10.481a25.407,25.407,0,0,0-3.348-5.356,24.346,24.346,0,0,0-5.035-4.535,22.319,22.319,0,0,0-6.106-2.937,23.078,23.078,0,0,0-6.249-1.08c-4.08-.089-7.811-.071-10.918-.134s-5.633-.089-7.374-.143a14.458,14.458,0,0,1-2.678-.187,15.113,15.113,0,0,1,2.678-.179c1.741-.053,4.258-.107,7.374-.143s6.8-.116,10.945-.062a23.863,23.863,0,0,1,12.82,4.1,24.31,24.31,0,0,1,5.214,4.723,25.649,25.649,0,0,1,3.437,5.589c.205.473.375.964.562,1.437l.268.714c.063.241.134.482.2.723.134.473.268.946.393,1.41s.17.937.259,1.393c.312,1.83.482,3.508.7,5.062.393,3.08.705,5.589.893,7.311A15.178,15.178,0,0,1,324.818,359.909Z" transform="translate(-204.004 -191.576)" fill="#455a64"/>
      <path id="Path_47881" data-name="Path 47881" d="M317.631,457.665h-.893a26.86,26.86,0,1,0-53.72,0h-.888a27.753,27.753,0,1,1,55.506,0Z" transform="translate(-202.21 -202.861)" fill="#455a64"/>
      <path id="Path_47882" data-name="Path 47882" d="M266.29,462.08a4.151,4.151,0,1,1-1.216-2.944,4.16,4.16,0,0,1,1.216,2.944Z" transform="translate(-201.763 -205.866)" fill="#263238"/>
      <path id="Path_47883" data-name="Path 47883" d="M327.69,461.44a4.16,4.16,0,1,1-4.16-4.16,4.16,4.16,0,0,1,4.16,4.16Z" transform="translate(-208.35 -205.797)" fill="#263238"/>
      <path id="Path_47884" data-name="Path 47884" d="M317.519,453.332c0,.134-12.079.241-26.969.241s-26.969-.107-26.969-.241,12.07-.232,26.969-.232S317.519,453.207,317.519,453.332Z" transform="translate(-202.365 -205.349)" fill="#455a64"/>
    </g>
    <g id="freepik--Plants--inject-34" transform="translate(1166.547 1907.396)">
      <path id="Path_47885" data-name="Path 47885" d="M220.235,258.761a5.83,5.83,0,0,1,2.589,3.723,10.293,10.293,0,0,1-.143,4.633,17.588,17.588,0,0,1-4.821,7.892c-2.241-2.473-2.375-6.347-2.321-8.32.089-3.116,2.151-8.7,4.7-7.927" transform="translate(-204.835 -258.69)" fill="#ded4b7"/>
      <path id="Path_47886" data-name="Path 47886" d="M220.758,282.183a4.946,4.946,0,0,1,2.134-4.464,6.588,6.588,0,0,1,4.99-.946,2.768,2.768,0,0,1,2,1.2,2.116,2.116,0,0,1-.214,2.134,4.223,4.223,0,0,1-1.785,1.366c-2.33,1.107-4.785,1.785-7.142.732" transform="translate(-205.394 -260.614)" fill="#ded4b7"/>
      <path id="Path_47887" data-name="Path 47887" d="M216.54,289.061a9.625,9.625,0,0,1,.571-1.911,8.866,8.866,0,0,1,.991-1.937,18.942,18.942,0,0,1,1.553-2.151,9.9,9.9,0,0,1,3.892-2.839,7.371,7.371,0,0,1,1.419-.366,1.632,1.632,0,0,1,.536,0c0,.063-.75.143-1.866.616a10.587,10.587,0,0,0-3.723,2.839,21.437,21.437,0,0,0-1.553,2.1,10.22,10.22,0,0,0-1.036,1.857A13.727,13.727,0,0,1,216.54,289.061Z" transform="translate(-204.943 -260.958)" fill="#263238"/>
      <path id="Path_47888" data-name="Path 47888" d="M219.116,263.68a5.107,5.107,0,0,1,0,1.009c0,.643-.089,1.58-.17,2.732-.17,2.312-.446,5.5-.821,9.017s-.821,6.678-1.187,8.927c-.187,1.143-.339,2.062-.464,2.678a5.86,5.86,0,0,1-.223.982,5.222,5.222,0,0,1,.089-1.009c.1-.7.214-1.616.357-2.678.3-2.294.705-5.464,1.089-8.981s.678-6.633.893-8.99c.116-1.107.214-2.026.286-2.732A6.645,6.645,0,0,1,219.116,263.68Z" transform="translate(-204.912 -259.225)" fill="#263238"/>
      <path id="Path_47889" data-name="Path 47889" d="M215.227,282.591a11.605,11.605,0,0,0-6.5-8.347c-.893-.384-1.955-.625-2.634,0s-.5,1.785-.143,2.634a9.874,9.874,0,0,0,9.222,5.937" transform="translate(-203.774 -260.317)" fill="#ded4b7"/>
      <path id="Path_47890" data-name="Path 47890" d="M209.83,277.27a1.688,1.688,0,0,1,.473.232,15.123,15.123,0,0,1,4.615,4.107,8.2,8.2,0,0,1,1.08,2.41,8.035,8.035,0,0,1,.241,2.143,7.909,7.909,0,0,1-.17,1.437,1.938,1.938,0,0,1-.143.518c-.071,0,.089-.759.071-1.955a8.927,8.927,0,0,0-.295-2.062,8.462,8.462,0,0,0-1.071-2.3,14.658,14.658,0,0,0-3.258-3.33A15.8,15.8,0,0,1,209.83,277.27Z" transform="translate(-204.224 -260.683)" fill="#263238"/>
      <path id="Path_47891" data-name="Path 47891" d="M214.709,312.677h0a11.168,11.168,0,0,1-11.159-11.168V290.35h22.318v11.159A11.168,11.168,0,0,1,214.709,312.677Z" transform="translate(-203.55 -262.086)" fill="#263238"/>
      <path id="Path_47892" data-name="Path 47892" d="M225.877,296.471a2.1,2.1,0,0,1-.3.312l-.893.83-3.4,2.875-.08.063-.1-.054-6.437-3.866h.188l-6.062,3.857-.089.063-.089-.071-3.7-2.9-1.018-.821a1.875,1.875,0,0,1-.339-.321,1.535,1.535,0,0,1,.4.241c.286.205.643.464,1.071.759l3.776,2.8h-.179l5.99-3.946.1-.062.1.054h0l6.437,3.946h-.179l3.455-2.794.973-.768A2.734,2.734,0,0,1,225.877,296.471Z" transform="translate(-203.55 -262.716)" fill="#e0e0e0"/>
      <path id="Path_47893" data-name="Path 47893" d="M225.882,293.976a2.1,2.1,0,0,1-.3.312l-.893.83-3.366,2.9-.08.063-.1-.054-6.472-3.892h.187l-6.026,3.9-.089.063-.089-.071-3.7-2.9-1.018-.821a1.874,1.874,0,0,1-.339-.321,1.536,1.536,0,0,1,.4.241l1.071.759,3.776,2.8h-.179l5.99-3.946.1-.062.1.054h0l6.437,3.946h-.179l3.455-2.794.973-.768A2.066,2.066,0,0,1,225.882,293.976Z" transform="translate(-203.554 -262.454)" fill="#e0e0e0"/>
      <path id="Path_47894" data-name="Path 47894" d="M225.882,298.982a3.474,3.474,0,0,1-.3.321l-.893.821-3.366,2.9-.08.071-.1-.062-6.472-3.848h.187l-6.026,3.9-.089.063-.089-.062c-1.491-1.178-2.75-2.16-3.7-2.9l-1.018-.83c-.232-.2-.348-.3-.339-.321a1.949,1.949,0,0,1,.4.241c.286.214.643.464,1.071.768l3.776,2.794h-.179l5.99-3.946.1-.062.1.063h0l6.437,3.937h-.179l3.455-2.8.973-.759A1.724,1.724,0,0,1,225.882,298.982Z" transform="translate(-203.554 -262.995)" fill="#e0e0e0"/>
      <path id="Path_47895" data-name="Path 47895" d="M551.339,344.716c-4.624.75-6.7,6.428-6.249,11.1s2.33,9.24,1.785,13.891c-.652,5.919-5.124,10.918-5.642,16.846-.616,6.99,4.33,13.195,5.8,20.051.723,3.339.625,6.874,1.866,10.052a12.561,12.561,0,0,0,24.255-4.339c.1-5.356-3.214-10.418-2.812-15.775.295-3.955,2.616-7.7,2.125-11.606-.6-4.687-4.937-8.035-6.472-12.5s-.054-9.392-.589-14.087c-.946-8.418-5.615-14.284-14.061-13.614" transform="translate(-239.766 -267.914)" fill="#ded4b7"/>
      <path id="Path_47896" data-name="Path 47896" d="M526.086,390.39c-.795,7.8,2.678,16.962,6.669,23.72a37.192,37.192,0,0,0,17.471,15.176,2.541,2.541,0,0,0,2.517.071,2.491,2.491,0,0,0,.634-2,38.289,38.289,0,0,0-27.291-36.95" transform="translate(-238.135 -272.817)" fill="#938c78"/>
      <g id="Group_37852" data-name="Group 37852" transform="translate(287.837 117.573)" opacity="0.2">
        <path id="Path_47897" data-name="Path 47897" d="M526.086,390.39c-.795,7.8,2.678,16.962,6.669,23.72a37.192,37.192,0,0,0,17.471,15.176,2.541,2.541,0,0,0,2.517.071,2.491,2.491,0,0,0,.634-2,38.289,38.289,0,0,0-27.291-36.95" transform="translate(-525.972 -390.39)" fill="#938c78"/>
      </g>
      <path id="Path_47898" data-name="Path 47898" d="M561.281,447.269a1.783,1.783,0,0,1-.223-.429l-.562-1.286c-.464-1.107-1.169-2.678-2.062-4.687a166.189,166.189,0,0,0-7.74-14.989,168.557,168.557,0,0,0-9.266-14.114c-1.277-1.741-2.33-3.142-3.071-4.1-.339-.446-.625-.821-.839-1.116a2.469,2.469,0,0,1-.277-.4,2.853,2.853,0,0,1,.339.348l.893,1.062c.786.893,1.875,2.294,3.187,4.017a141.216,141.216,0,0,1,17.06,29.166c.893,1.991,1.518,3.616,1.937,4.749l.482,1.312a2.722,2.722,0,0,1,.143.464Z" transform="translate(-239.344 -274.507)" fill="#263238"/>
      <path id="Path_47899" data-name="Path 47899" d="M558.536,368.9a4.618,4.618,0,0,1,.089.75c0,.527.089,1.241.152,2.151.125,1.9.295,4.6.509,7.9.42,6.678,1.009,15.9,1.732,26.077s1.419,19.4,1.937,26.068c.25,3.3.455,5.99.607,7.9.063.893.107,1.616.143,2.143a4.469,4.469,0,0,1,0,.759s-.045-.259-.107-.75-.134-1.241-.232-2.143c-.179-1.9-.429-4.589-.741-7.883-.6-6.669-1.357-15.873-2.071-26.059s-1.241-19.408-1.607-26.112c-.152-3.312-.277-6-.366-7.91,0-.893-.054-1.625-.071-2.16a3.993,3.993,0,0,1,.027-.732Z" transform="translate(-241.625 -270.512)" fill="#263238"/>
      <path id="Path_47900" data-name="Path 47900" d="M550.5,439.75h19.542V454.1a9.383,9.383,0,0,1-9.383,9.374h0a9.374,9.374,0,0,1-9.365-8.874Z" transform="translate(-240.766 -278.111)" fill="#263238"/>
    </g>
    <g id="freepik--Lamp--inject-34" transform="translate(1356.609 1874.187)">
      <path id="Path_47901" data-name="Path 47901" d="M439.479,227.89l46.6,25.809-1.75,3.285-46.19-26.291,1.339-2.8" transform="translate(-418.777 -222.177)" fill="#ded4b7"/>
      <path id="Path_47902" data-name="Path 47902" d="M437.07,224.766l2.143-3.276,1.25.768-1.919,3.3Z" transform="translate(-418.662 -221.49)" fill="#ded4b7"/>
      <path id="Path_47903" data-name="Path 47903" d="M484.816,252.23l2.393,1.375-7.8,49.8-3.7.045Z" transform="translate(-422.807 -224.787)" fill="#ded4b7"/>
      <path id="Path_47904" data-name="Path 47904" d="M463.68,314.714s5.687-5.749,13.293-5.356a16.5,16.5,0,0,1,11.516,5.294Z" transform="translate(-421.516 -230.913)" fill="#ded4b7"/>
      <path id="Path_47905" data-name="Path 47905" d="M434.9,247.421,416.45,236.761l5.356-9.222a10.65,10.65,0,0,1,14.552-3.9h0a10.659,10.659,0,0,1,3.9,14.552Z" transform="translate(-416.45 -221.567)" fill="#ded4b7"/>
    </g>
  </g>
</svg>
