<svg id="whatsapp" xmlns="http://www.w3.org/2000/svg" width="30.235" height="30.235" viewBox="0 0 30.235 30.235">
  <path id="Path_3297" data-name="Path 3297" d="M15.118,0A15.118,15.118,0,1,0,30.235,15.118,15.119,15.119,0,0,0,15.118,0Zm.32,23.92h0a9.045,9.045,0,0,1-4.324-1.1l-4.8,1.258L7.6,19.389a9.049,9.049,0,1,1,7.841,4.531Zm0,0" fill="#1bd741"/>
  <path id="Path_3298" data-name="Path 3298" d="M141.6,124.469a7.516,7.516,0,0,0-6.377,11.513l.179.284-.76,2.773,2.848-.746.275.163a7.518,7.518,0,0,0,3.829,1.047h0a7.517,7.517,0,1,0,0-15.034Zm4.426,10.744a2.33,2.33,0,0,1-1.527,1.074,3.107,3.107,0,0,1-1.425-.089,13.074,13.074,0,0,1-1.29-.476,10.078,10.078,0,0,1-3.864-3.411,4.392,4.392,0,0,1-.924-2.337,2.532,2.532,0,0,1,.792-1.884.832.832,0,0,1,.6-.283c.151,0,.3,0,.433.008s.325-.053.509.388.641,1.564.7,1.677a.416.416,0,0,1,.019.4,6.438,6.438,0,0,1-.565.773c-.1.124-.231.235-.1.461a6.813,6.813,0,0,0,1.258,1.565,6.184,6.184,0,0,0,1.819,1.121c.226.113.358.094.49-.056s.565-.66.716-.886.3-.188.509-.113,1.319.622,1.546.735.377.17.433.264a1.883,1.883,0,0,1-.132,1.074Zm0,0" transform="translate(-126.157 -117.115)" fill="#1bd741"/>
</svg>
