<svg xmlns="http://www.w3.org/2000/svg" width="61.444" height="56" viewBox="0 0 61.444 56">
  <g id="four" transform="translate(0 -22.685)">
    <path id="Path_13678" data-name="Path 13678" d="M295.318,128.038a3.509,3.509,0,1,0-3.509-3.509A3.513,3.513,0,0,0,295.318,128.038Z" transform="translate(-256.792 -86.534)" fill="#073b4c"/>
    <path id="Path_13679" data-name="Path 13679" d="M196.829,49.406l3.161-.95a12.994,12.994,0,0,0,2.832,1.638l.758,3.21h8.677l.758-3.21a12.987,12.987,0,0,0,2.832-1.638l3.161.95,4.338-7.514-2.4-2.262a13.247,13.247,0,0,0,0-3.27l2.4-2.262-4.338-7.514-3.161.95a12.992,12.992,0,0,0-2.832-1.638l-.758-3.21H203.58l-.758,3.21a12.994,12.994,0,0,0-2.832,1.638l-3.161-.95L192.491,34.1l2.4,2.263a13.249,13.249,0,0,0,0,3.27l-2.4,2.263Zm11.089-18.521a7.109,7.109,0,1,1-7.109,7.109A7.117,7.117,0,0,1,207.918,30.885Z" transform="translate(-169.392)" fill="#073b4c"/>
    <path id="Path_13680" data-name="Path 13680" d="M154.1,284.127a4.768,4.768,0,0,0-6.77-.363l-8.417,7.644a7.68,7.68,0,0,1-7.62,6.807H119.853v-3.6h11.363a4.154,4.154,0,0,0,4.151-4.059,4.076,4.076,0,0,0-2.628-3.816,2.018,2.018,0,0,0-.715-.13h-9.71a12.51,12.51,0,0,0-15.648-1.77v19.72l7.857,2.656h22.225l17.1-16.491a4.756,4.756,0,0,0,.255-6.6Z" transform="translate(-93.866 -228.66)" fill="#073b4c"/>
    <path id="Path_13681" data-name="Path 13681" d="M4.72,268.126H0v26.547H4.72a5.162,5.162,0,0,0,4.48-2.6V270.731A5.162,5.162,0,0,0,4.72,268.126Z" transform="translate(0 -215.988)" fill="#073b4c"/>
  </g>
</svg>
