<svg xmlns="http://www.w3.org/2000/svg" width="56" height="56" viewBox="0 0 56 56">
  <g id="one" transform="translate(0 0)">
    <path id="Path_13671" data-name="Path 13671" d="M9.844,295.844H21.438a3.285,3.285,0,0,1,3.281,3.281v11.594h6.563V299.125a9.855,9.855,0,0,0-9.844-9.844H9.844V286L0,292.563l9.844,6.563Zm0,0" transform="translate(0 -254.719)" fill="#073b4c"/>
    <path id="Path_13672" data-name="Path 13672" d="M205.844,18.623V9.844h3.281L202.563,0,196,9.844h3.281V22.693a13.065,13.065,0,0,1,6.563-4.07Zm0,0" transform="translate(-174.563)" fill="#073b4c"/>
    <path id="Path_13673" data-name="Path 13673" d="M247.438,169.281H235.844A9.855,9.855,0,0,0,226,179.125v.466a13.065,13.065,0,0,1,6.563,4.07v-4.536a3.285,3.285,0,0,1,3.281-3.281h11.594v3.281l9.844-6.562L247.438,166Zm0,0" transform="translate(-201.281 -147.843)" fill="#073b4c"/>
  </g>
</svg>
