<svg xmlns="http://www.w3.org/2000/svg" width="56" height="56" viewBox="0 0 56 56">
  <g id="three" transform="translate(0 -0.001)">
    <path id="Path_13682" data-name="Path 13682" d="M.457,8.609a1.641,1.641,0,0,1,2.755-.775l6.044,6.047H13.9V9.238L7.864,3.205A1.642,1.642,0,0,1,8.632.451,11.712,11.712,0,0,1,19.7,3.436a11.483,11.483,0,0,1,2.667,11.949l18.47,18.47a11.483,11.483,0,0,1,11.949,2.667,11.891,11.891,0,0,1,3,11.07,1.641,1.641,0,0,1-2.755.775l-6.044-6.047H42.34v4.643L48.374,53a1.642,1.642,0,0,1-.769,2.754,11.709,11.709,0,0,1-11.064-2.983,11.483,11.483,0,0,1-2.667-11.949L15.4,22.346A11.483,11.483,0,0,1,3.455,19.679a11.891,11.891,0,0,1-3-11.07Z" transform="translate(-0.121 -0.097)" fill="#073b4c"/>
    <g id="Group_36832" data-name="Group 36832" transform="translate(0 0.002)">
      <path id="Path_13683" data-name="Path 13683" d="M28,267.6l-14,14a8.216,8.216,0,0,1-10.325,1.044L16.322,270A1.641,1.641,0,1,0,14,267.678L1.356,280.323A8.215,8.215,0,0,1,2.4,270l14-14Z" transform="translate(0 -227.999)" fill="#073b4c"/>
      <path id="Path_13684" data-name="Path 13684" d="M321.586,4.7l-4.641,9.281a1.64,1.64,0,0,1-1.236.891l-7.579,1.082-7.412,7.412-2.32-2.32,7.411-7.411,1.083-7.58a1.64,1.64,0,0,1,.891-1.236L317.064.174a1.642,1.642,0,0,1,1.893.307L321.279,2.8a1.642,1.642,0,0,1,.307,1.893Z" transform="translate(-265.758 -0.002)" fill="#073b4c"/>
    </g>
  </g>
</svg>
