<svg xmlns="http://www.w3.org/2000/svg" width="532.677" height="501.277" viewBox="0 0 532.677 501.277">
  <g id="careers" transform="translate(-22.5 -29.046)">
    <g id="freepik--background-simple--inject-36" transform="translate(54.178 29.046)">
      <path id="Path_40457" data-name="Path 40457" d="M529.68,246.533s12.607,89.381-51.316,160.477S312.283,498.9,229.978,517.837,75.494,499.856,53.441,430.182,91.4,329.374,111.8,242.728,124.452,129.9,188.886,68.295s184-49.2,258.805,26.746S529.68,246.533,529.68,246.533Z" transform="translate(-48.645 -29.046)" fill="#00d747"/>
      <path id="Path_40458" data-name="Path 40458" d="M529.68,246.533s12.607,89.381-51.316,160.477S312.283,498.9,229.978,517.837,75.494,499.856,53.441,430.182,91.4,329.374,111.8,242.728,124.452,129.9,188.886,68.295s184-49.2,258.805,26.746S529.68,246.533,529.68,246.533Z" transform="translate(-48.645 -29.046)" fill="#fff" opacity="0.9"/>
    </g>
    <g id="freepik--Window--inject-36" transform="translate(39.862 68.015)">
      <line id="Line_209" data-name="Line 209" x2="490.001" transform="translate(10.99 352.976)" fill="none" stroke="#263238" stroke-miterlimit="10" stroke-width="1"/>
      <line id="Line_210" data-name="Line 210" x2="490.001" transform="translate(10.99 260.216)" fill="none" stroke="#263238" stroke-miterlimit="10" stroke-width="1"/>
      <line id="Line_211" data-name="Line 211" x2="490.001" transform="translate(10.99 167.443)" fill="none" stroke="#263238" stroke-miterlimit="10" stroke-width="1"/>
      <line id="Line_212" data-name="Line 212" x2="490.001" transform="translate(10.99 74.67)" fill="none" stroke="#263238" stroke-miterlimit="10" stroke-width="1"/>
      <line id="Line_213" data-name="Line 213" y2="331.215" transform="translate(122.4 21.993)" fill="none" stroke="#263238" stroke-miterlimit="10" stroke-width="1"/>
      <line id="Line_214" data-name="Line 214" y2="331.215" transform="translate(416.924 21.993)" fill="none" stroke="#263238" stroke-miterlimit="10" stroke-width="1"/>
      <line id="Line_215" data-name="Line 215" x1="3.635" y2="3.842" transform="translate(129.694 144.77)" fill="none" stroke="#263238" stroke-miterlimit="10" stroke-width="1"/>
      <line id="Line_216" data-name="Line 216" x1="57.711" y2="60.872" transform="translate(137.73 79.266)" fill="none" stroke="#263238" stroke-miterlimit="10" stroke-width="1"/>
      <line id="Line_217" data-name="Line 217" x1="32.424" y2="33.323" transform="translate(166.616 89.174)" fill="none" stroke="#263238" stroke-miterlimit="10" stroke-width="1"/>
      <line id="Line_218" data-name="Line 218" x1="3.635" y2="3.842" transform="translate(425.884 144.77)" fill="none" stroke="#263238" stroke-miterlimit="10" stroke-width="1"/>
      <line id="Line_219" data-name="Line 219" x1="57.711" y2="60.872" transform="translate(433.92 79.266)" fill="none" stroke="#263238" stroke-miterlimit="10" stroke-width="1"/>
      <line id="Line_220" data-name="Line 220" x1="32.424" y2="33.323" transform="translate(462.806 89.174)" fill="none" stroke="#263238" stroke-miterlimit="10" stroke-width="1"/>
      <line id="Line_221" data-name="Line 221" x1="3.635" y2="3.842" transform="translate(0 332.114)" fill="none" stroke="#263238" stroke-miterlimit="10" stroke-width="1"/>
      <line id="Line_222" data-name="Line 222" x1="57.711" y2="60.884" transform="translate(8.036 266.598)" fill="none" stroke="#263238" stroke-miterlimit="10" stroke-width="1"/>
      <line id="Line_223" data-name="Line 223" x1="32.424" y2="33.323" transform="translate(36.922 276.507)" fill="none" stroke="#263238" stroke-miterlimit="10" stroke-width="1"/>
      <line id="Line_224" data-name="Line 224" x1="3.647" y2="3.842" transform="translate(47.73 65.516)" fill="none" stroke="#263238" stroke-miterlimit="10" stroke-width="1"/>
      <line id="Line_225" data-name="Line 225" x1="57.711" y2="60.872" transform="translate(55.766)" fill="none" stroke="#263238" stroke-miterlimit="10" stroke-width="1"/>
      <line id="Line_226" data-name="Line 226" x1="32.424" y2="33.323" transform="translate(84.664 9.908)" fill="none" stroke="#263238" stroke-miterlimit="10" stroke-width="1"/>
      <line id="Line_227" data-name="Line 227" x1="3.647" y2="3.842" transform="translate(317.623 65.516)" fill="none" stroke="#263238" stroke-miterlimit="10" stroke-width="1"/>
      <line id="Line_228" data-name="Line 228" x1="57.711" y2="60.872" transform="translate(325.659)" fill="none" stroke="#263238" stroke-miterlimit="10" stroke-width="1"/>
      <line id="Line_229" data-name="Line 229" x1="32.424" y2="33.323" transform="translate(354.557 9.908)" fill="none" stroke="#263238" stroke-miterlimit="10" stroke-width="1"/>
      <line id="Line_230" data-name="Line 230" x1="3.635" y2="3.842" transform="translate(234.175 241.141)" fill="none" stroke="#263238" stroke-miterlimit="10" stroke-width="1"/>
      <line id="Line_231" data-name="Line 231" x1="57.711" y2="60.872" transform="translate(242.211 175.637)" fill="none" stroke="#263238" stroke-miterlimit="10" stroke-width="1"/>
      <line id="Line_232" data-name="Line 232" x1="32.424" y2="33.323" transform="translate(271.096 185.545)" fill="none" stroke="#263238" stroke-miterlimit="10" stroke-width="1"/>
    </g>
    <g id="freepik--character-1--inject-36" transform="translate(209.435 152.624)">
      <path id="Path_40459" data-name="Path 40459" d="M208.871,156.68h68.008a22.491,22.491,0,0,1,22.491,22.491V375.524H186.38V179.159a22.491,22.491,0,0,1,22.491-22.479Z" transform="translate(-174.188 -125.09)" fill="#263238" stroke="#263238" stroke-linecap="round" stroke-linejoin="round" stroke-width="1"/>
      <path id="Path_40460" data-name="Path 40460" d="M314.537,450.582l-59.68-17.555V413.49h-3.368V341.36h-10.6V413.49H237.52V432.5l-59.68,18.078v2.857h.8a5.653,5.653,0,0,0-.693,2.747,5.811,5.811,0,1,0,8.96-4.863l.122-.122,54.708-6.577V452.5a5.811,5.811,0,1,0,8.972,0v-7.878l54.586,6.565a5.811,5.811,0,1,0,8.073,2.261h1.216Z" transform="translate(-176.03 -85.248)" fill="#263238" stroke="#263238" stroke-linecap="round" stroke-linejoin="round" stroke-width="1"/>
      <rect id="Rectangle_3607" data-name="Rectangle 3607" width="121.598" height="26.612" rx="7.28" transform="translate(8.934 250.313)" fill="#fff" stroke="#263238" stroke-linecap="round" stroke-linejoin="round" stroke-width="1"/>
      <rect id="Rectangle_3608" data-name="Rectangle 3608" width="84.457" height="46.964" transform="translate(28.519 207.155)" fill="#fff" stroke="#263238" stroke-linecap="round" stroke-linejoin="round" stroke-width="1"/>
      <path id="Path_40461" data-name="Path 40461" d="M230.475,189.91l-12.935,5.07s4.681,29.068,10.942,44.07,29.068,38.818,29.068,38.818,11.817-17.251,15.938-30.94-.182-52.143-.182-52.143a27.2,27.2,0,0,0-9.568-3.38C257.866,190.469,230.475,189.91,230.475,189.91Z" transform="translate(-167.466 -117.921)" fill="#fff" stroke="#263238" stroke-linecap="round" stroke-linejoin="round" stroke-width="1"/>
      <path id="Path_40462" data-name="Path 40462" d="M239.219,208.229l5.981,11.489-9.92,21.9,15.938,24,9.75-21.944-11.817-24.375,6.188-10.7-8.814-8.814Z" transform="translate(-163.639 -115.791)" fill="#263238" stroke="#263238" stroke-linecap="round" stroke-linejoin="round" stroke-width="1"/>
      <path id="Path_40463" data-name="Path 40463" d="M231.162,188.83l-4.134,1.131-3.939,6.93,9.726,27.573,15.95-16.5L266.2,225.776s2.067-27.755,2.067-30.94-2.808-4.316-4.863-4.863S231.162,188.83,231.162,188.83Z" transform="translate(-166.268 -118.154)" fill="#fff" stroke="#263238" stroke-linecap="round" stroke-linejoin="round" stroke-width="1"/>
      <path id="Path_40464" data-name="Path 40464" d="M236.946,189.76s1.787,24.935,12.157,46.879c5.361,11.306,15.379,27.2,15.379,26.637s9.933-30,10.309-39.949,2.249-31.135,2.249-31.135,19.233,7.659,23.828,10.322c7.124,4.121,16.121,5.057,15.938,9.933-.073,1.775,1.143,13.373,2.687,27.512.243,2.249,12.315,21.543,12.571,23.877,2.59,23.549-6.2,33.469-6.638,33.579-.742.182-16.315,0-16.315,0s8.449,38.441,9.726,40.508l1.313,2.055h-67l-2.8-8.437-2.492,8.437H178.992l9.191-41.821H178.055s-2.626-5.252.936-24.947,15.574-69.017,15.574-70.695S233.007,193.881,236.946,189.76Z" transform="translate(-176.185 -117.953)" fill="#32cd32" stroke="#263238" stroke-linecap="round" stroke-linejoin="round" stroke-width="1"/>
      <line id="Line_233" data-name="Line 233" x1="0.912" y2="44.338" transform="translate(74.17 169.248)" fill="#fff" stroke="#263238" stroke-linecap="round" stroke-linejoin="round" stroke-width="1"/>
      <path id="Path_40465" data-name="Path 40465" d="M268.455,270.455c11.075-10.309,15.95-30.94,15.95-30.94L274.46,235.2l9.568-4.693-8.267-35.256c-4.681-4.036-7.428-3.927-7.294-3.039,0,0-1.872,21.19-2.249,31.135s-10.334,39.426-10.334,39.985-11.027-14.9-15.379-26.637c-10.139-27.305-12.084-43.766-12.376-46.915a.292.292,0,0,0-.462-.219c-1.4.827-4.863,1.508-7.294,3.647-.681,4.863-1.556,11.914-2.164,19.671-1.118,14.443-1.118,20.813-1.118,20.813l12.935,3.2-9.191,5.252s10.127,10.309,18.564,18.005,14.054,10.492,14.054,10.492l-10.808,16.619S257.392,280.776,268.455,270.455Z" transform="translate(-167.563 -118.008)" fill="#32cd32" stroke="#263238" stroke-linecap="round" stroke-linejoin="round" stroke-width="1"/>
      <path id="Path_40466" data-name="Path 40466" d="M228.18,178.65v16.133s4.133,13.495,18.759,14.431c15.379,1,18.005-13.872,18.005-13.872V181.081S236.471,188.023,228.18,178.65Z" transform="translate(-165.17 -120.35)" fill="#fff" stroke="#263238" stroke-linecap="round" stroke-linejoin="round" stroke-width="1"/>
      <path id="Path_40467" data-name="Path 40467" d="M261.417,162.044s.559-7.294,5.057-7.294,4.51,8.437,3.38,11.817-6.942,5.811-8.814,3.185" transform="translate(-158.081 -125.506)" fill="#fff" stroke="#263238" stroke-linecap="round" stroke-linejoin="round" stroke-width="1"/>
      <path id="Path_40468" data-name="Path 40468" d="M250.778,130.725s-16.57-.608-22.3,3.647-4.523,15.671-4.523,19.282,2.711,34.648,4.523,39.171,15,11.4,26.5,8.753,15.063-10.844,15.659-15.063.608-36.472,0-44.885S258.9,131.625,250.778,130.725Z" transform="translate(-166.104 -130.695)" fill="#fff" stroke="#263238" stroke-linecap="round" stroke-linejoin="round" stroke-width="1"/>
      <path id="Path_40469" data-name="Path 40469" d="M270.815,144.925c0-1.337-.1-2.431-.17-3.355-.6-8.437-11.744-9.945-19.877-10.844,0,0-16.57-.608-22.3,3.647s-4.523,15.671-4.523,19.282c0,1.447.438,7.294,1.082,14.054a2.14,2.14,0,0,0,3.137-1.386c1.216-3.319-.6-6.322.912-10.54s2.1-6.93,5.726-9.045a31.05,31.05,0,0,1,7.221-3s-7.525,8.729,9.045,8.425C261.831,151.916,267.9,149.679,270.815,144.925Z" transform="translate(-166.106 -130.695)" fill="#263238" stroke="#263238" stroke-linecap="round" stroke-linejoin="round" stroke-width="1"/>
      <path id="Path_40470" data-name="Path 40470" d="M249.833,155.05s2.808,13.312.182,14.589-4.3,1.69-6.565-2.808" transform="translate(-161.876 -125.441)" fill="none" stroke="#263238" stroke-linecap="round" stroke-linejoin="round" stroke-width="1"/>
      <path id="Path_40471" data-name="Path 40471" d="M236.671,166.92s-.571,6.2,12,5.252" transform="translate(-163.339 -122.88)" fill="none" stroke="#263238" stroke-linecap="round" stroke-linejoin="round" stroke-width="1"/>
      <path id="Path_40472" data-name="Path 40472" d="M240.341,155.7c0,1.289-.547,2.346-1.216,2.346s-1.216-1.058-1.216-2.346.547-2.346,1.216-2.346S240.341,154.4,240.341,155.7Z" transform="translate(-163.071 -125.808)" fill="#263238"/>
      <path id="Path_40473" data-name="Path 40473" d="M255.841,155.7c0,1.289-.547,2.346-1.216,2.346s-1.216-1.058-1.216-2.346.547-2.346,1.216-2.346S255.841,154.4,255.841,155.7Z" transform="translate(-159.727 -125.808)" fill="#263238"/>
      <path id="Path_40474" data-name="Path 40474" d="M244.71,161.429H234.522a2.273,2.273,0,0,1-2.225-1.848l-1.337-7.161h16.874l-.875,7.027a2.273,2.273,0,0,1-2.249,1.982Z" transform="translate(-164.571 -126.009)" fill="none" stroke="#263238" stroke-linecap="round" stroke-linejoin="round" stroke-width="2"/>
      <path id="Path_40475" data-name="Path 40475" d="M262.612,161.429H252.424a2.261,2.261,0,0,1-2.225-1.848l-1.349-7.161h16.887l-.9,7.027a2.273,2.273,0,0,1-2.225,1.982Z" transform="translate(-160.711 -126.009)" fill="none" stroke="#263238" stroke-linecap="round" stroke-linejoin="round" stroke-width="2"/>
      <line id="Line_234" data-name="Line 234" x2="4.875" transform="translate(83.264 26.411)" fill="none" stroke="#263238" stroke-linecap="round" stroke-linejoin="round" stroke-width="2"/>
      <line id="Line_235" data-name="Line 235" x1="8.06" y2="3.562" transform="translate(58.329 26.411)" fill="none" stroke="#263238" stroke-linecap="round" stroke-linejoin="round" stroke-width="2"/>
      <path id="Path_40476" data-name="Path 40476" d="M227.479,162.044s-.559-7.294-5.07-7.294-4.5,8.437-3.368,11.817,6.93,5.811,8.814,3.185" transform="translate(-167.278 -125.506)" fill="#fff" stroke="#263238" stroke-linecap="round" stroke-linejoin="round" stroke-width="1"/>
      <path id="Path_40477" data-name="Path 40477" d="M270.4,239.264a21.044,21.044,0,0,0-9-5.021,6.784,6.784,0,0,0-3.392-.267c-1.508,0-8.984-2.7-10.857-3.258s-3,1.313-2.431,3.38,4.571,3.817,6.079,4.194.863.413.863.413,2.431,6.006,1.313,8.255-5.07,7.294-3.757,10.881,3.38,5.434,7.5,5.434,6.565.182,7.5,0,17.628,8.06,15.8,8.255-.754-16.692-.754-16.692Z" transform="translate(-161.633 -109.139)" fill="#fff" stroke="#263238" stroke-linecap="round" stroke-linejoin="round" stroke-width="1"/>
      <path id="Path_40478" data-name="Path 40478" d="M234.66,249.139s8.814-4.316,13.13-8.632,5.811-5.434,7.294-5.811,7.5-2.067,9-3.38,2.626,1.131.377,3a36.675,36.675,0,0,1-5.252,3.562c-.936.571-1.872,3.2-1.872,3.2s9.191-3.939,12.376-3,6.346,3.781,6.152,5.459-.778.875-2.845.681-5-1.082-7.294-.146-4.863,3.2-4.863,4.133,2.626,1.5,4.693,1.313,3.562-.754,5.617-.377,3.757,1.5,3.939,2.626-.742,1.118-3,1.313-6.188.377-7.5,1.313-8.06,4.121-6.93,5.252,1.8,1.131,4.048,1.131,4.656-1.726,5.969-1.629c1.763.134,2.711.267,2.711.267s3.124.134,2.845,1.362c-.438,1.969-1.483,2.03-6.018,2.237-3.55.17-4.5-.182-7.683.571a31.608,31.608,0,0,1-8.437,1.5c-5.447.377-15.2-2.249-15.2-2.249Z" transform="translate(-163.772 -109.068)" fill="#fff" stroke="#263238" stroke-linecap="round" stroke-linejoin="round" stroke-width="1"/>
      <path id="Path_40479" data-name="Path 40479" d="M266.594,236.487s-3.793-3.538-5.969-3.647-8.814,5.7-9.726,7.878,1.216,1.349,2.979.815,6.516-2.723,8.145-3.392a6.237,6.237,0,0,1,4.292-.45" transform="translate(-160.316 -108.66)" fill="#fff" stroke="#263238" stroke-linecap="round" stroke-linejoin="round" stroke-width="1"/>
      <path id="Path_40480" data-name="Path 40480" d="M270.7,242.5s-5.422-2.711-8.814-1.216-7.6,4.486-7.6,5.836.681,1.094,3.647.948,8.328-1.009,9.045-1.046a18.835,18.835,0,0,1,3.173.644" transform="translate(-159.538 -106.936)" fill="#fff" stroke="#263238" stroke-linecap="round" stroke-linejoin="round" stroke-width="1"/>
      <path id="Path_40481" data-name="Path 40481" d="M211.424,234.324l-4.693,25.129s40.7-8.072,42.2-6.942,2.857,30.953,2.857,30.953-52.556,9.179-58.744,11.246-12.571,2.431-14.82.559-2.431-6.565-.754-15.8,17.823-76.324,17.823-76.324" transform="translate(-176.351 -115.067)" fill="#32cd32" stroke="#263238" stroke-linecap="round" stroke-linejoin="round" stroke-width="1"/>
      <path id="Path_40482" data-name="Path 40482" d="M285.118,227.4l1.69,28.691-13.507-.559-1.3,23.78s37.226,8.668,39.293,9.726,1.69-1.118,4.121-4.693,4.51-11.246,4.316-14.589-7.878-14.589-8.06-14.066" transform="translate(-155.717 -109.833)" fill="#32cd32" stroke="#263238" stroke-linecap="round" stroke-linejoin="round" stroke-width="1"/>
      <line id="Line_236" data-name="Line 236" x2="12.571" transform="translate(131.091 146.258)" fill="none" stroke="#263238" stroke-linecap="round" stroke-linejoin="round" stroke-width="1"/>
      <line id="Line_237" data-name="Line 237" x1="16.692" y2="5.811" transform="translate(13.687 144.386)" fill="none" stroke="#263238" stroke-linecap="round" stroke-linejoin="round" stroke-width="1"/>
      <path id="Path_40483" data-name="Path 40483" d="M207.036,417.112s-2.723,11.708-6.528,15.8-7.294,6.808-7.076,10.066l.267,3.27H232.87V436.43c0-5.714-2.431-15.8-2.431-19.853s-24.485.267-24.485.267" transform="translate(-172.669 -69.395)" fill="#263238" stroke="#263238" stroke-linecap="round" stroke-linejoin="round" stroke-width="1"/>
      <path id="Path_40484" data-name="Path 40484" d="M194.367,435.29a5.228,5.228,0,0,0-.936,3.258l.267,3.27H232.87V435.29Z" transform="translate(-172.668 -64.984)" fill="#586166" stroke="#263238" stroke-linecap="round" stroke-linejoin="round" stroke-width="1"/>
      <path id="Path_40485" data-name="Path 40485" d="M243.186,339.116s3.805-24.205-2.723-35.354-29.384-11.428-42.162-3.817-17.75,20.1-13.13,36.144,15.306,16.364,15.306,16.364-2.723,22.029-2.723,30.734,9.252,62.841,9.252,62.841h26.953S242.638,350.543,243.186,339.116Z" transform="translate(-174.814 -95.307)" fill="#586166" stroke="#263238" stroke-linecap="round" stroke-linejoin="round" stroke-width="1"/>
      <line id="Line_238" data-name="Line 238" y1="22.309" x2="2.711" transform="translate(25.662 234.837)" fill="#fff" stroke="#263238" stroke-linecap="round" stroke-linejoin="round" stroke-width="1"/>
      <path id="Path_40486" data-name="Path 40486" d="M274.334,417.112s2.723,11.708,6.528,15.8,7.294,6.808,7.076,10.066l-.267,3.27H248.5V436.43c0-5.714,2.431-15.8,2.431-19.853s24.485.267,24.485.267" transform="translate(-160.787 -69.395)" fill="#263238" stroke="#263238" stroke-linecap="round" stroke-linejoin="round" stroke-width="1"/>
      <path id="Path_40487" data-name="Path 40487" d="M286.99,435.29a5.24,5.24,0,0,1,.948,3.258l-.267,3.27H248.5V435.29Z" transform="translate(-160.787 -64.984)" fill="#586166" stroke="#263238" stroke-linecap="round" stroke-linejoin="round" stroke-width="1"/>
      <path id="Path_40488" data-name="Path 40488" d="M241.976,339.116s-3.805-24.205,2.723-35.354,29.384-11.428,42.162-3.817,17.859,20.1,13.227,36.144-15.4,16.364-15.4,16.364,2.723,22.029,2.723,30.734-9.252,62.841-9.252,62.841H251.227S242.523,350.543,241.976,339.116Z" transform="translate(-162.432 -95.307)" fill="#586166" stroke="#263238" stroke-linecap="round" stroke-linejoin="round" stroke-width="1"/>
      <line id="Line_239" data-name="Line 239" x1="2.723" y1="22.309" transform="translate(119.529 234.837)" fill="#fff" stroke="#263238" stroke-linecap="round" stroke-linejoin="round" stroke-width="1"/>
    </g>
    <g id="freepik--Table--inject-36" transform="translate(62.475 108.219)">
      <path id="Path_40489" data-name="Path 40489" d="M288.638,94.17h53.808a5.738,5.738,0,0,1,5.738,5.738v24.971a5.738,5.738,0,0,1-5.738,5.738H326.29l4.219,11.428L317.22,130.618H288.638a5.738,5.738,0,0,1-5.738-5.738V99.908a5.738,5.738,0,0,1,5.738-5.738Z" transform="translate(-6.406 -94.17)" fill="#263238" stroke="#263238" stroke-linecap="round" stroke-linejoin="round" stroke-width="1"/>
      <circle id="Ellipse_223" data-name="Ellipse 223" cx="3.124" cy="3.124" r="3.124" transform="translate(319.483 14.419)" fill="#32cd32"/>
      <circle id="Ellipse_224" data-name="Ellipse 224" cx="3.124" cy="3.124" r="3.124" transform="translate(304.517 14.419)" fill="#32cd32"/>
      <circle id="Ellipse_225" data-name="Ellipse 225" cx="3.124" cy="3.124" r="3.124" transform="translate(289.563 14.419)" fill="#32cd32"/>
      <path id="Path_40490" data-name="Path 40490" d="M117.346,261.3,107.9,281.25h26.783l9.446-18.978Z" transform="translate(-44.159 -58.114)" fill="#263238" stroke="#263238" stroke-linecap="round" stroke-linejoin="round" stroke-width="1"/>
      <path id="Path_40491" data-name="Path 40491" d="M174.475,261.3H115.67l9.458,19.95h58.793Z" transform="translate(-42.483 -58.114)" fill="#fff" stroke="#263238" stroke-linecap="round" stroke-linejoin="round" stroke-width="1"/>
      <rect id="Rectangle_3609" data-name="Rectangle 3609" width="13.251" height="170.555" transform="translate(14.236 250.611)" fill="#a3a3a3" stroke="#263238" stroke-linecap="round" stroke-linejoin="round" stroke-width="1"/>
      <rect id="Rectangle_3610" data-name="Rectangle 3610" width="13.251" height="170.555" transform="translate(438.406 251.049)" fill="#a3a3a3" stroke="#263238" stroke-linecap="round" stroke-linejoin="round" stroke-width="1"/>
      <rect id="Rectangle_3611" data-name="Rectangle 3611" width="446.126" height="164.379" transform="translate(11.355 222.589)" fill="#a3a3a3" stroke="#263238" stroke-linecap="round" stroke-linejoin="round" stroke-width="1"/>
      <rect id="Rectangle_3612" data-name="Rectangle 3612" width="446.126" height="17.105" transform="translate(11.355 222.589)" fill="#263238" stroke="#263238" stroke-linecap="round" stroke-linejoin="round" stroke-width="1"/>
      <rect id="Rectangle_3613" data-name="Rectangle 3613" width="468.848" height="10.2" transform="translate(0 222.589)" fill="#fff" stroke="#263238" stroke-linecap="round" stroke-linejoin="round" stroke-width="1"/>
    </g>
    <g id="freepik--Plants--inject-36" transform="translate(46.116 154.976)">
      <path id="Path_40492" data-name="Path 40492" d="M76.876,459.067s-30.114-64.142-23.561-66,20.291,8.364,20.291,8.364S33.317,293.557,43.735,285.241s29.871,34.393,29.871,34.393-20.777-66-18.333-91.107S84.11,227.6,84.11,227.6s-21.142-90.171-1.52-94.827,18.978,103.191,18.978,103.191,6.443-77.15,14.309-55.778-8.668,92.967-8.668,92.967,10.784-24.169,16.777-1.86-11.914,112.468-11.914,112.468,15.221-14.868,16.643,3.72-31.5,76.275-31.5,76.275L78.59,465.571Z" transform="translate(-42.014 -132.629)" fill="#32cd32"/>
      <path id="Path_40493" data-name="Path 40493" d="M76.876,459.067s-30.114-64.142-23.561-66,20.291,8.364,20.291,8.364S33.317,293.557,43.735,285.241s29.871,34.393,29.871,34.393-20.777-66-18.333-91.107S84.11,227.6,84.11,227.6s-21.142-90.171-1.52-94.827,18.978,103.191,18.978,103.191,6.443-77.15,14.309-55.778-8.668,92.967-8.668,92.967,10.784-24.169,16.777-1.86-11.914,112.468-11.914,112.468,15.221-14.868,16.643,3.72-31.5,76.275-31.5,76.275L78.59,465.571Z" transform="translate(-42.014 -132.629)" fill="#fff" opacity="0.6"/>
      <path id="Path_40494" data-name="Path 40494" d="M81.2,451.784S56.1,407.167,60.752,398.8s18.564,11.124,18.564,11.124S47.707,330.9,52.363,323.488,71.815,348.58,71.815,348.58s-5.568-108.76,3.72-105.039S85.82,299.295,85.82,299.295s-5.58-123.64,2.8-119.92,7.428,141.293,7.428,141.293,16.765-52.982,19.525-28.764-21.385,89.235-21.385,89.235,23.245-51.122,26.029-24.169-18.589,77.15-18.589,77.15,8.364-20.449,8.364-9.288-6.5,25.093-6.5,25.093" transform="translate(-39.883 -122.563)" fill="none" stroke="#263238" stroke-linecap="round" stroke-linejoin="round" stroke-width="1"/>
      <rect id="Rectangle_3614" data-name="Rectangle 3614" width="53.14" height="45.979" transform="translate(22.085 328.869)" fill="#263238" stroke="#263238" stroke-miterlimit="10" stroke-width="1"/>
    </g>
    <g id="freepik--character-2--inject-36" transform="translate(356.666 149.486)">
      <path id="Path_40495" data-name="Path 40495" d="M346.01,148.564s-5.447,8.984-6.261,13.057.547,5.714-.547,8.7-5.7,3-5.7,5.994,3.258,5.714,4.352,6.528-.827,4.352,1.082,9.519,2.723,11.7,5.981,11.7a91.18,91.18,0,0,0,10.066-1.094l1.629,9.933,22.479-2.042s-.267-9.726,5.714-13.872,17.823-27.476,10.747-42.709S358.787,136.054,346.01,148.564Z" transform="translate(-289.68 -125.385)" fill="#fff" stroke="#263238" stroke-linecap="round" stroke-linejoin="round" stroke-width="1"/>
      <path id="Path_40496" data-name="Path 40496" d="M337.823,140.011a20.666,20.666,0,0,0-.875,7.392,29.822,29.822,0,0,0,4.352,13.543c2.772,4.583,9.41,7.5,11.051,12.388.535,1.629,1.9,5.981,5.7,7.076s3,1.082,1.909,8.425,2.176,14.686,8.7,16.595a19.452,19.452,0,0,0,17.956-3.805c5.167-4.085,14.954-20.947,15.233-36.18.474-26.953-26.09-40.119-50.052-36.837A16.327,16.327,0,0,0,337.823,140.011Z" transform="translate(-288.946 -128.114)" fill="#263238" stroke="#263238" stroke-linecap="round" stroke-linejoin="round" stroke-width="1"/>
      <path id="Path_40497" data-name="Path 40497" d="M367.143,194.374a25.615,25.615,0,0,0-10.48,2.431c-3.039,1.6-13.6,11.7-16.327,13.373s-7.89.815-4.863,2.176,5.167,1.629,10.334-.267,16.048-5.714,19.306-5.714,15.233,1.629,16.327,1.909,8.158,3.526,8.158,3.526-3.538-7.61-7.611-11.416S372.857,194.094,367.143,194.374Z" transform="translate(-289.453 -113.824)" fill="#fff" stroke="#263238" stroke-linecap="round" stroke-linejoin="round" stroke-width="1"/>
      <path id="Path_40498" data-name="Path 40498" d="M354.455,166.549a2.8,2.8,0,0,0-1.738,2.954,37.335,37.335,0,0,1-.182,10.8c-1.082,4.62,4.693,4.62,5.957-2.954C359.318,172.336,357.421,165.492,354.455,166.549Z" transform="translate(-285.603 -119.845)" fill="#fff" stroke="#263238" stroke-linecap="round" stroke-linejoin="round" stroke-width="1"/>
      <path id="Path_40499" data-name="Path 40499" d="M319.96,218.11s-3.258,1.629-3.526,9.519-13.884,63.388-14.7,72.093,3.817,14.406,11.7,17.409,22.856,7.878,25.53,6.528,7.89-29.384,9.787-41.627-20.947-54.708-22.029-56.3S321.869,218.39,319.96,218.11Z" transform="translate(-296.553 -108.698)" fill="#fff" stroke="#263238" stroke-linecap="round" stroke-linejoin="round" stroke-width="1"/>
      <line id="Line_240" data-name="Line 240" x1="14.966" y2="22.309" transform="translate(26.131 174.429)" fill="none" stroke="#263238" stroke-linecap="round" stroke-linejoin="round" stroke-width="1"/>
      <path id="Path_40500" data-name="Path 40500" d="M355,353.451,373.893,458a2.346,2.346,0,0,0,3.015,1.811h0a2.359,2.359,0,0,0,1.6-2.541L364.568,351.19Z" transform="translate(-285.042 -79.989)" fill="#fff" stroke="#263238" stroke-linecap="round" stroke-linejoin="round" stroke-width="1"/>
      <path id="Path_40501" data-name="Path 40501" d="M340.3,335.9s-7.076,95.472-7.076,98.195-7.294,31.281-7.294,31.281h19.537s1.9-3.805,1.9-11.7.827-24.752.827-26.381,21.762-85.965,21.762-85.965-1.094-8.437-11.708-13.373S341.929,333.721,340.3,335.9Z" transform="translate(-291.313 -85.278)" fill="#fff" stroke="#263238" stroke-linecap="round" stroke-linejoin="round" stroke-width="1"/>
      <path id="Path_40502" data-name="Path 40502" d="M347.361,436.023c0-7.209.681-21.883.8-25.628-9.057-5.082-14.674,1.69-14.674,1.69h0c-.158,2.431-.255,4.012-.255,4.328,0,2.723-7.294,31.281-7.294,31.281h19.525S347.361,443.913,347.361,436.023Z" transform="translate(-291.311 -67.624)" fill="#263238" stroke="#263238" stroke-linecap="round" stroke-linejoin="round" stroke-width="1"/>
      <path id="Path_40503" data-name="Path 40503" d="M345.1,445.393s1.9-3.805,1.9-11.7c0-2.93.122-7.112.255-11.282-1.884-2.2-5.957-5.568-10.309-.413-1.909,2.249-6.93,16.449-9.325,23.391Z" transform="translate(-290.949 -65.298)" fill="#4f4f4f" stroke="#263238" stroke-linecap="round" stroke-linejoin="round" stroke-width="1"/>
      <path id="Path_40504" data-name="Path 40504" d="M335.29,422.1l1.629,23.391h4.863l4.1-23.938S340.457,415.029,335.29,422.1Z" transform="translate(-289.294 -65.4)" fill="#263238" stroke="#263238" stroke-linecap="round" stroke-linejoin="round" stroke-width="1"/>
      <path id="Path_40505" data-name="Path 40505" d="M306.725,324.25s-8.437,9.252-9.252,17.142,28.29,91.4,28.29,91.4a21.409,21.409,0,0,1-4.62,9.519c-4.085,5.167-9.8,12.51-10.613,17.409s0,6.529,0,6.529h19.318s6.8-17.409,9.519-21.762,1.082-12.789.267-16.595-8.158-91.666-8.158-91.666S325.763,317.673,306.725,324.25Z" transform="translate(-297.456 -86.105)" fill="#fff" stroke="#263238" stroke-linecap="round" stroke-linejoin="round" stroke-width="1"/>
      <path id="Path_40506" data-name="Path 40506" d="M337.111,425.846c2.359-3.781,1.447-10.625.62-14.856a8.51,8.51,0,0,0-7.416-1.738c-5.714,1.362-6.808,4.863-6.808,4.863a21.409,21.409,0,0,1-4.62,9.519c-4.085,5.167-9.8,12.51-10.613,17.409s0,6.528,0,6.528h19.318S334.388,430.2,337.111,425.846Z" transform="translate(-295.201 -67.513)" fill="#263238" stroke="#263238" stroke-linecap="round" stroke-linejoin="round" stroke-width="1"/>
      <path id="Path_40507" data-name="Path 40507" d="M315.93,444.971h9.933s6.079-15.488,9.021-20.9c-1.459-1.337-5.872-4.754-10.115-1.41-5.167,4.085-5.714,14.151-7.063,17.956C317.061,442.406,316.416,443.889,315.93,444.971Z" transform="translate(-293.471 -64.877)" fill="#4f4f4f" stroke="#263238" stroke-linecap="round" stroke-linejoin="round" stroke-width="1"/>
      <path id="Path_40508" data-name="Path 40508" d="M323.2,422.772l1.094,22.309h3.526l5.981-21.762S328.367,417.885,323.2,422.772Z" transform="translate(-291.902 -64.986)" fill="#263238" stroke="#263238" stroke-linecap="round" stroke-linejoin="round" stroke-width="1"/>
      <path id="Path_40509" data-name="Path 40509" d="M328.15,258.129c4.523,15.27,8.583,43.9,8.583,46.575,0,4.863-14.224,32.983-14.224,32.983s-15.8,8.158-19.585,13.872a16.814,16.814,0,0,0-1.082,17.409c2.723,5.434,6.8,7.89,15.8,9.519s92.481,0,92.481,0,8.7-10.613,4.62-27.476c-1.9-7.854-3.963-14.674-6.249-24.205,0,0,8.972.267,15.5-5.179s6.808-13.872,6.808-20.12-4.109-58.5-4.109-63.656-.243-11.7-5.106-15.513-16.388-9.726-26.746-15.221c-8.145-4.292-14.139-3.538-20.667-3.538s-14.419,4.863-14.419,4.863-36.18,9.519-38.9,11.148-1.751,3.282-.754,9.288" transform="translate(-296.926 -111.844)" fill="#fff" stroke="#263238" stroke-linecap="round" stroke-linejoin="round" stroke-width="1"/>
      <path id="Path_40510" data-name="Path 40510" d="M394.766,230.64s-11.136,64.7-11.136,68.239,6.784,22.078,6.784,22.078" transform="translate(-278.866 -105.995)" fill="none" stroke="#263238" stroke-linecap="round" stroke-linejoin="round" stroke-width="1"/>
      <path id="Path_40511" data-name="Path 40511" d="M336.15,289c-2.675,8.6-13.641,30.247-13.641,30.247s-15.8,8.158-19.585,13.872a16.814,16.814,0,0,0-1.082,17.409c2.723,5.434,6.8,7.89,15.8,9.519s92.481,0,92.481,0,8.7-10.613,4.62-27.476c-1.9-7.854-3.963-14.674-6.249-24.205L401.69,289Z" transform="translate(-296.926 -93.405)" fill="#263238" stroke="#263238" stroke-miterlimit="10" stroke-width="1"/>
      <path id="Path_40512" data-name="Path 40512" d="M312.95,352.14,298.884,457.483a2.334,2.334,0,0,0,2.322,2.638h0a2.322,2.322,0,0,0,2.3-1.909l19.233-105.258Z" transform="translate(-297.153 -79.784)" fill="#fff" stroke="#263238" stroke-linecap="round" stroke-linejoin="round" stroke-width="1"/>
      <path id="Path_40513" data-name="Path 40513" d="M388.726,352.14l14.066,105.343a2.334,2.334,0,0,1-2.322,2.638h0a2.322,2.322,0,0,1-2.3-1.909L379,352.955Z" transform="translate(-279.864 -79.784)" fill="#fff" stroke="#263238" stroke-linecap="round" stroke-linejoin="round" stroke-width="1"/>
      <path id="Path_40514" data-name="Path 40514" d="M344.5,352.14,330.434,457.483a2.334,2.334,0,0,0,2.322,2.638h0a2.334,2.334,0,0,0,2.3-1.909l19.233-105.258Z" transform="translate(-290.346 -79.784)" fill="#fff" stroke="#263238" stroke-linecap="round" stroke-linejoin="round" stroke-width="1"/>
      <path id="Path_40515" data-name="Path 40515" d="M420.256,253H332.395s-2.432,20.667-1.082,38.356,4.352,40.253,3.805,54.708-8.7,22.309-8.7,22.309H306.828a3.525,3.525,0,0,0-3.538,3.526h0a3.538,3.538,0,0,0,3.538,3.538H412.6a60.227,60.227,0,0,0,8.972-34.539c-.815-20.668-8.972-44.07-6.261-60.665S420.256,253,420.256,253Z" transform="translate(-296.198 -101.172)" fill="#32cd32" stroke="#263238" stroke-linecap="round" stroke-linejoin="round" stroke-width="1"/>
      <path id="Path_40516" data-name="Path 40516" d="M383.324,149.268s-5.434,2.176-5.714,7.294-1.9,22.844-8.425,32.91,0,26.114,16.048,28.558,29.1-21.762,23.1-46.781S388.77,147.092,383.324,149.268Z" transform="translate(-282.523 -123.766)" fill="#263238" stroke="#263238" stroke-linecap="round" stroke-linejoin="round" stroke-width="1"/>
    </g>
    <g id="freepik--Floor--inject-36" transform="translate(23 529.824)">
      <line id="Line_241" data-name="Line 241" x2="531.677" fill="none" stroke="#263238" stroke-linecap="round" stroke-linejoin="round" stroke-width="1"/>
    </g>
  </g>
</svg>
