<svg xmlns="http://www.w3.org/2000/svg" width="62" height="62" viewBox="0 0 62 62">
  <g id="content_management" transform="translate(0.001)">
    <g id="Group_36783" data-name="Group 36783" transform="translate(7 4)">
      <path id="Path_40817" data-name="Path 40817" d="M66,280a10,10,0,1,0,10,10A10,10,0,0,0,66,280Zm0,16a6,6,0,1,1,6-6A6,6,0,0,1,66,296Zm0,0" transform="translate(-56 -249)" fill="#32cd32"/>
      <path id="Path_40818" data-name="Path 40818" d="M207,37V32H176V44h36V37Zm0,0" transform="translate(-161 -32)" fill="#32cd32"/>
      <path id="Path_40819" data-name="Path 40819" d="M176,144h36v10H176Zm0,0" transform="translate(-161 -130)" fill="#32cd32"/>
    </g>
    <path id="Path_40820" data-name="Path 40820" d="M94,311a7,7,0,1,0-7,7A7.008,7.008,0,0,0,94,311Zm-7,5a5,5,0,1,1,5-5A5.006,5.006,0,0,1,87,316Zm0,0" transform="translate(-70 -266)"/>
    <path id="Path_40821" data-name="Path 40821" d="M62,8.586,53.414,0H18V28H13.221l-.678,2.691a14.92,14.92,0,0,0-2.512,1.038L7.65,30.307,2.3,35.652l1.423,2.379A14.821,14.821,0,0,0,2.69,40.543L0,41.221V48.78l2.691.678A14.935,14.935,0,0,0,3.727,51.97L2.3,54.349,7.65,59.694l2.38-1.422a14.839,14.839,0,0,0,2.512,1.038L13.221,62H54.3l7.5-5-7.5-5-24.061.023a14.736,14.736,0,0,0,1.066-2.566L34,48.779V41.22l-2.691-.678a14.935,14.935,0,0,0-1.037-2.512l1.423-2.379-5.346-5.345-2.38,1.422a14.839,14.839,0,0,0-2.512-1.038L20.778,28H20V2H52v8h8V48H36.022v2H62ZM55,59.132V54.869L58.2,57ZM53,54v2H34v2H53v2H28V58h4V56H28V54ZM23.487,33.748l.509.294,2.039-1.219,3.141,3.14L27.957,38l.295.509a12.876,12.876,0,0,1,1.289,3.12l.151.568,2.307.58V47.22l-2.307.581-.151.568a12.915,12.915,0,0,1-1.289,3.12l-.1.179-.042.358-2.646,0a11,11,0,1,0-10.015,3.865,13.487,13.487,0,0,0,1.549.1l2,.01L19,54,17,53.99c-.491-.02-.893-.025-1.281-.079a9.008,9.008,0,1,1,8.207-3.162,1.944,1.944,0,0,0-.262,2.086A2,2,0,0,0,25.486,54H26v6H14.778L14.2,57.694l-.567-.152a12.829,12.829,0,0,1-3.119-1.29L10,55.958,7.963,57.177l-3.141-3.14L6.041,52l-.295-.509a12.876,12.876,0,0,1-1.289-3.12L4.307,47.8,2,47.221V42.78L4.307,42.2l.151-.568a12.915,12.915,0,0,1,1.289-3.12L6.041,38,4.823,35.963l3.141-3.14L10,34.042l.509-.294a12.845,12.845,0,0,1,3.119-1.29l.567-.152L14.778,30H19.22l.581,2.306.567.152a12.8,12.8,0,0,1,3.12,1.29ZM54,3.414,58.585,8H54Zm0,0"/>
    <path id="Path_40822" data-name="Path 40822" d="M176,144h2v2h-2Zm0,0" transform="translate(-154 -126)"/>
    <path id="Path_40823" data-name="Path 40823" d="M208,144h32v2H208Zm0,0" transform="translate(-182 -126)"/>
    <path id="Path_40824" data-name="Path 40824" d="M176,176h36v2H176Zm0,0" transform="translate(-154 -154)"/>
    <path id="Path_40825" data-name="Path 40825" d="M448,208h2v2h-2Zm0,0" transform="translate(-392 -182)"/>
    <path id="Path_40826" data-name="Path 40826" d="M176,208h32v2H176Zm0,0" transform="translate(-154 -182)"/>
    <path id="Path_40827" data-name="Path 40827" d="M344,240a8,8,0,1,0,8,8A8.009,8.009,0,0,0,344,240Zm-1,2.09V247h-4.91A6.01,6.01,0,0,1,343,242.09ZM338.09,249H343v4.91A6.01,6.01,0,0,1,338.09,249Zm6.91,4.91V242.09a5.993,5.993,0,0,1,0,11.82Zm0,0" transform="translate(-294 -210)"/>
    <path id="Path_40828" data-name="Path 40828" d="M168,432h2v2h-2Zm0,0" transform="translate(-147 -378)"/>
  </g>
</svg>
