<svg xmlns="http://www.w3.org/2000/svg" width="50.5" height="50.5" viewBox="0 0 50.5 50.5">
  <g id="development" transform="translate(-2 -2)">
    <path id="Path_3284" data-name="Path 3284" d="M49.975,12.1H40.717V2.842A.842.842,0,0,0,39.875,2H14.625a.842.842,0,0,0-.842.842V12.1H4.525A2.533,2.533,0,0,0,2,14.625V41.558a2.533,2.533,0,0,0,2.525,2.525H21.207l-.564,3.367h-.968a.853.853,0,0,0-.673.337l-2.525,3.367A.842.842,0,0,0,17.15,52.5h20.2a.842.842,0,0,0,.673-1.347L35.5,47.787a.853.853,0,0,0-.673-.337h-.968l-.564-3.367H49.975A2.533,2.533,0,0,0,52.5,41.558V14.625A2.533,2.533,0,0,0,49.975,12.1ZM15.467,3.683H39.033V20.517H15.467ZM34.4,49.134l1.263,1.683H18.833L20.1,49.134ZM22.352,47.45l.564-3.367h8.669l.564,3.367Zm28.465-5.892a.842.842,0,0,1-.842.842H4.525a.842.842,0,0,1-.842-.842V39.033H50.817Zm0-4.208H3.683V14.625a.842.842,0,0,1,.842-.842h9.258v7.575a.842.842,0,0,0,.842.842h25.25a.842.842,0,0,0,.842-.842V13.783h9.258a.842.842,0,0,1,.842.842Z" transform="translate(0 0)" fill="#32cd32"/>
    <path id="Path_3285" data-name="Path 3285" d="M48.925,28h-10.1a.842.842,0,0,0-.842.842v.842H31.25v-.842A.842.842,0,0,0,30.408,28h-5.05a.842.842,0,0,0-.842.842v.842H17.783v-.842A.842.842,0,0,0,16.942,28H6.842A.842.842,0,0,0,6,28.842v3.367a.842.842,0,0,0,.842.842h10.1a.842.842,0,0,0,.842-.842v-.842h6.733v.842a.842.842,0,0,0,.842.842h1.683v1.683H25.358a.842.842,0,0,0-.842.842v3.367a.842.842,0,0,0,.842.842h5.05a.842.842,0,0,0,.842-.842V35.575a.842.842,0,0,0-.842-.842H28.725V33.05h1.683a.842.842,0,0,0,.842-.842v-.842h6.733v.842a.842.842,0,0,0,.842.842h10.1a.842.842,0,0,0,.842-.842V28.842A.842.842,0,0,0,48.925,28ZM16.1,31.367H7.683V29.683H16.1Zm13.467,5.05V38.1H26.2V36.417Zm0-5.05H26.2V29.683h3.367Zm18.517,0H39.667V29.683h8.417Z" transform="translate(-0.633 -4.117)" fill="#32cd32"/>
    <path id="Path_3286" data-name="Path 3286" d="M25.3,7.293l-5.05,5.05a.842.842,0,0,0,0,1.19l5.05,5.05,1.19-1.19-4.455-4.455,4.455-4.455Z" transform="translate(-2.85 -0.838)" fill="#32cd32"/>
    <path id="Path_3287" data-name="Path 3287" d="M37.483,7.293l-1.19,1.19,4.455,4.455-4.455,4.455,1.19,1.19,5.05-5.05a.842.842,0,0,0,0-1.19Z" transform="translate(-5.43 -0.838)" fill="#32cd32"/>
    <rect id="Rectangle_3418" data-name="Rectangle 3418" width="15.97" height="1.682" transform="translate(23.924 19.408) rotate(-71.547)" fill="#32cd32"/>
  </g>
</svg>
