<svg xmlns="http://www.w3.org/2000/svg" width="50.495" height="50.333" viewBox="0 0 50.495 50.333">
  <g id="discover_design" transform="translate(0 -0.82)">
    <g id="Group_36239" data-name="Group 36239" transform="translate(35.555 36.317)">
      <g id="Group_36238" data-name="Group 36238">
        <path id="Path_3282" data-name="Path 3282" d="M369.642,360.806a.741.741,0,0,0-.808.161l-8.1,8.1a.741.741,0,0,0,.524,1.265h8.1a.741.741,0,0,0,.741-.741v-8.1A.741.741,0,0,0,369.642,360.806Zm-6.594,8.043,5.569-5.569v5.569Z" transform="translate(-360.517 -360.749)" fill="#32cd32"/>
      </g>
    </g>
    <g id="Group_36241" data-name="Group 36241" transform="translate(0 0.82)">
      <g id="Group_36240" data-name="Group 36240" transform="translate(0 0)">
        <path id="Path_3283" data-name="Path 3283" d="M50.038,24.494a.741.741,0,0,0-.808.161l-2.22,2.22V11.782a.741.741,0,0,0-.741-.741H40.574l2.067-2.067h0l1.992-1.992a2.26,2.26,0,0,0,0-3.2l-2.3-2.3a2.26,2.26,0,0,0-3.2,0L37.142,3.475,34.734,5.883l-5.158,5.158H6.57V3.709a.741.741,0,0,0-.741-.741A5.836,5.836,0,0,0,0,8.8V40.276a.743.743,0,0,0,.018.159,5.614,5.614,0,0,0,5.6,5.187H28.262L24,49.888a.741.741,0,0,0,.524,1.265H49.754a.741.741,0,0,0,.741-.741V25.179A.741.741,0,0,0,50.038,24.494ZM40.183,2.53a.778.778,0,0,1,1.1,0l2.3,2.3a.778.778,0,0,1,0,1.1L42.118,7.4,38.714,4ZM37.666,5.047l3.4,3.4-1.36,1.36-3.4-3.4Zm11.347,28.46H47.646a.741.741,0,1,0,0,1.482h1.367v2.233H47.646a.741.741,0,1,0,0,1.482h1.367v2.233H47.646a.741.741,0,1,0,0,1.482h1.367v2.233H47.646a.741.741,0,1,0,0,1.482h1.367v3.535H26.31L33.8,42.185a.741.741,0,0,0-1.048-1.048l-3,3H5.614a4.109,4.109,0,0,1-4.129-4q.006-.211.033-.419v0q.012-.1.03-.2l0-.022q.016-.087.035-.173l.011-.048q.017-.073.036-.145c.007-.026.014-.052.022-.078s.022-.075.034-.112.025-.074.038-.111.018-.051.028-.077c.018-.049.037-.1.057-.144l.017-.041c.025-.059.052-.118.079-.175l0-.007a4.363,4.363,0,0,1,3.033-2.372l.011,0c.061-.013.123-.023.186-.033l.031-.005c.056-.009.113-.015.17-.022l.048-.006c.055-.006.11-.009.166-.013l.053,0q.109-.005.219-.006a.741.741,0,0,0,.741-.741V29.814a.741.741,0,0,0-1.482,0v4.679A5.789,5.789,0,0,0,1.759,36.1c-.1.094-.188.192-.277.291V8.8A4.354,4.354,0,0,1,5.088,4.513V26.849h0a.741.741,0,1,0,1.482,0h0V12.523H28.094L24,16.62a.741.741,0,1,0,1.048,1.048l5.362-5.362h0l4.851-4.851,3.4,3.4-.4.4h0L23.317,26.2l-3.4-3.4,2.946-2.946a.741.741,0,0,0-1.048-1.048l-3.47,3.47a.744.744,0,0,0-.052.058l-.015.021c-.01.014-.021.028-.03.043l-.015.026c-.008.014-.016.028-.023.042l-.013.028c-.007.014-.013.029-.018.044l-.006.015-1.444,4.09-.984,2.789a.749.749,0,0,0-.029.113H13.244a.741.741,0,0,0,0,1.482H33.769a.741.741,0,1,0,0-1.482H19.043l4.52-1.6.011,0,.052-.022.02-.009.052-.029.017-.01c.018-.011.035-.024.052-.037l.013-.009a.745.745,0,0,0,.06-.054L39.092,12.523h6.436V28.357l-10.6,10.6a.741.741,0,0,0,0,1.048.757.757,0,0,0,.056.051.741.741,0,0,0,.992-.051h0L49.013,26.968ZM21.961,26.943l-2.123.749-1.414-1.414.749-2.123Z" transform="translate(0 -0.82)" fill="#32cd32"/>
      </g>
    </g>
  </g>
</svg>
