<svg xmlns="http://www.w3.org/2000/svg" width="235.316" height="227.681" viewBox="0 0 235.316 227.681">
  <g id="Polygon_3" data-name="Polygon 3" transform="matrix(0.848, 0.53, -0.53, 0.848, 82.667, 0)" fill="none" opacity="0.3">
    <path d="M81.338,15.014a10,10,0,0,1,17.324,0L171.348,141a10,10,0,0,1-8.662,15H17.314a10,10,0,0,1-8.662-15Z" stroke="none"/>
    <path d="M 89.99996948242188 40.02223968505859 L 34.62821960449219 136 L 145.3717803955078 136 L 89.99996948242188 40.02223968505859 M 89.99997711181641 10.01109313964844 C 93.36883544921875 10.01109313964844 96.73768615722656 11.67869567871094 98.66183471679688 15.01388549804688 L 171.3477478027344 141.0027923583984 C 175.1939239501953 147.6694641113281 170.3824615478516 156 162.6858825683594 156 L 17.3140869140625 156 C 9.61749267578125 156 4.806076049804688 147.6694641113281 8.652252197265625 141.0027923583984 L 81.33812713623047 15.01388549804688 C 83.26226806640625 11.67869567871094 86.63112640380859 10.01109313964844 89.99997711181641 10.01109313964844 Z" stroke="none" fill="#228b22"/>
  </g>
</svg>
