<svg xmlns="http://www.w3.org/2000/svg" xmlns:xlink="http://www.w3.org/1999/xlink" width="599.937" height="500.777" viewBox="0 0 599.937 500.777">
  <defs>
    <clipPath id="clip-path">
      <path id="Path_41048" data-name="Path 41048" d="M175.418,154.1h0l-7.765-51.445-23.012,4.715-11.478,7.4s-13.694,10.744-13.694,11.845,23.167,39.868,23.167,39.868A42.946,42.946,0,0,0,175.418,154.1Z" transform="translate(-119.47 -102.66)" fill="#fff" stroke="#263238" stroke-linecap="round" stroke-linejoin="round" stroke-width="1"/>
    </clipPath>
    <clipPath id="clip-path-2">
      <path id="Path_41055" data-name="Path 41055" d="M128.39,106.328a87.865,87.865,0,0,1,3.332,10.362c.734,3.7,10.729,10,11.831,10.362s1.849-11.845,1.849-11.845l-2.951-14.428Z" transform="translate(-128.39 -100.78)" fill="#fff" stroke="#263238" stroke-linecap="round" stroke-linejoin="round" stroke-width="1"/>
    </clipPath>
    <clipPath id="clip-path-3">
      <path id="Path_41063" data-name="Path 41063" d="M120.42,96.173s3.176,13.228,10,19.765,14.118,6.593,16.645-5.054c2.075-9.6-3.078-22.4-3.078-22.4S127.352,74.785,120.42,96.173Z" transform="translate(-120.42 -84.162)" fill="#fff" stroke="#263238" stroke-linecap="round" stroke-linejoin="round" stroke-width="1"/>
    </clipPath>
    <clipPath id="clip-path-4">
      <path id="Path_41076" data-name="Path 41076" d="M123.2,119.65l-12.8,51.529,37.553,10.645,1.849-6.664-24.664-11.379,8.372-29.647s-1.1-5.548-7.059-11.831" transform="translate(-110.4 -119.65)" fill="#fff" stroke="#263238" stroke-linecap="round" stroke-linejoin="round" stroke-width="1"/>
    </clipPath>
    <clipPath id="clip-path-5">
      <path id="Path_41080" data-name="Path 41080" d="M211.023,142.139l-28.433-5.972L153.55,102.61l4.292,26.993,17.816,16.969,35.8,1.638Z" transform="translate(-153.55 -102.61)" fill="#fff" stroke="#263238" stroke-linecap="round" stroke-linejoin="round" stroke-width="1"/>
    </clipPath>
    <clipPath id="clip-path-6">
      <path id="Path_41085" data-name="Path 41085" d="M491.989,402.475H133.1a7.934,7.934,0,0,1-7.934-7.934V193.732A7.934,7.934,0,0,1,133.1,185.8h.974a7.976,7.976,0,0,0,7.384-5l5.464-13.736a7.722,7.722,0,0,1,3.176-3.812,10.165,10.165,0,0,1,5.139-1.412h92.245a10.194,10.194,0,0,1,3.628.664,7.694,7.694,0,0,1,3.812,3.332l9.388,16a7.934,7.934,0,0,0,6.847,3.925H491.989a7.934,7.934,0,0,1,7.934,7.934V394.541a7.934,7.934,0,0,1-7.934,7.934Z" transform="translate(-125.17 -161.84)" fill="#32cd32" stroke="#263238" stroke-miterlimit="10" stroke-width="1"/>
    </clipPath>
    <clipPath id="clip-path-7">
      <rect id="Rectangle_3648" data-name="Rectangle 3648" width="397.242" height="246.254" rx="5.27" fill="#fff" stroke="#263238" stroke-miterlimit="10" stroke-width="1"/>
    </clipPath>
    <clipPath id="clip-path-8">
      <path id="Path_41105" data-name="Path 41105" d="M398.6,236.228l-3.332-9.967-3.741-5.125a.508.508,0,0,0-.932.311v14.767l2.824,3.713Z" transform="translate(-390.599 -220.908)" fill="#32cd32" stroke="#263238" stroke-miterlimit="10" stroke-width="1"/>
    </clipPath>
    <clipPath id="clip-path-9">
      <path id="Path_41109" data-name="Path 41109" d="M445.855,245.036a15.191,15.191,0,0,0-2.823,5.774c-.409,2.711.24,13.144.24,13.144l-14.541,1.638s1.1-10.6,1.158-12.367a15.727,15.727,0,0,1,7.694-10.447C442.579,240.321,446.829,241.521,445.855,245.036Z" transform="translate(-428.73 -241.483)" fill="#fff" stroke="#263238" stroke-miterlimit="10" stroke-width="1.004"/>
    </clipPath>
    <clipPath id="clip-path-10">
      <path id="Path_41113" data-name="Path 41113" d="M452.351,251.993c12.057-15.925-17.012-32.471-24.649-16.645a29.814,29.814,0,0,0-2.513,6.155c-1.158.706-4.235,2.6-4.8,3.12s1.412,1.864,2.5,2.527c-2.075,5.1-1.765,10.461-1.172,11.675,1.031,2.089,6.113,2.118,9.459,1.5s4.673-3.826,5.647-4.7,5.831.24,7.539.748S450.008,255.142,452.351,251.993Z" transform="translate(-420.29 -228.942)" fill="#fff" stroke="#263238" stroke-miterlimit="10" stroke-width="1"/>
    </clipPath>
    <clipPath id="clip-path-11">
      <path id="Path_41137" data-name="Path 41137" d="M430.45,261.156s-6.678,7.553-9.332,10.659-2.668,36.438-2.668,41.336-2.654,18.2,1.779,20.866,31.553,1.779,34.221-2.668,4.433-57.755,4-62.64a13.6,13.6,0,0,0-7.567-10.221C447.786,257.062,430.45,261.156,430.45,261.156Z" transform="translate(-417.662 -258.186)" fill="#fff" stroke="#263238" stroke-miterlimit="10" stroke-width="1"/>
    </clipPath>
  </defs>
  <g id="portfolio" transform="translate(-43.345 -74.473)">
    <g id="freepik--background-simple--inject-1--inject-130" transform="translate(84.398 74.473)">
      <path id="Path_41013" data-name="Path 41013" d="M503.924,92.765C434.042,52.826,372.15,85.706,341.19,120.718s-54.028,70.376-92.894,76.871-97.835-9.981-141.769,20.965S62.762,331.692,97.548,378.295s124.786,68.88,228.621,83.859a273.74,273.74,0,0,0,111.685-6.2l47.167-17.125c23.04-10.518,42.353-22.362,58.7-31.976,24.875-14.682,33.642-50.471,38.4-76.687a315.8,315.8,0,0,0-1.765-118.588C569.938,162.365,546.178,116.892,503.924,92.765Z" transform="translate(-72.424 -74.473)" fill="#00d747"/>
      <path id="Path_41014" data-name="Path 41014" d="M503.924,92.765C434.042,52.826,372.15,85.706,341.19,120.718s-54.028,70.376-92.894,76.871-97.835-9.981-141.769,20.965S62.762,331.692,97.548,378.295s124.786,68.88,228.621,83.859a273.74,273.74,0,0,0,111.685-6.2l47.167-17.125c23.04-10.518,42.353-22.362,58.7-31.976,24.875-14.682,33.642-50.471,38.4-76.687a315.8,315.8,0,0,0-1.765-118.588C569.938,162.365,546.178,116.892,503.924,92.765Z" transform="translate(-72.424 -74.473)" fill="#fff" opacity="0.9"/>
      <path id="Path_41015" data-name="Path 41015" d="M464.308,130.2c-1.581-26.089-19.4-34.645-30.692-22.221a22.052,22.052,0,0,0-4.052,22.588c3.967,10.715,10.786,29.732,14.852,44.612,5.986,21.967,3.981,38.936,10.969,29.958S466.3,163.148,464.308,130.2Z" transform="translate(74.02 -62.987)" fill="#32cd32" opacity="0.8"/>
      <path id="Path_41016" data-name="Path 41016" d="M464.308,130.2c-1.581-26.089-19.4-34.645-30.692-22.221a22.052,22.052,0,0,0-4.052,22.588c3.967,10.715,10.786,29.732,14.852,44.612,5.986,21.967,3.981,38.936,10.969,29.958S466.3,163.148,464.308,130.2Z" transform="translate(74.02 -62.987)" fill="#fff" opacity="0.8"/>
      <path id="Path_41017" data-name="Path 41017" d="M241.893,134.755c10.969-1.991,24.946-27.953,42.918-38.936s2-18.974-14.936-10.984c0,0-12.988,2.993-22.969,22.969S230.909,136.745,241.893,134.755Z" transform="translate(-5.061 -71.54)" fill="#32cd32"/>
      <path id="Path_41018" data-name="Path 41018" d="M241.893,134.755c10.969-1.991,24.946-27.953,42.918-38.936s2-18.974-14.936-10.984c0,0-12.988,2.993-22.969,22.969S230.909,136.745,241.893,134.755Z" transform="translate(-5.061 -71.54)" fill="#fff" opacity="0.8"/>
      <path id="Path_41019" data-name="Path 41019" d="M228.5,117.117c8.908-3.572,18.621-27.826,8.471-26.584a7.539,7.539,0,0,0-5.859,4.518C227.867,102.265,220.484,120.322,228.5,117.117Z" transform="translate(-9.643 -67.879)" fill="#32cd32"/>
      <path id="Path_41020" data-name="Path 41020" d="M228.5,117.117c8.908-3.572,18.621-27.826,8.471-26.584a7.539,7.539,0,0,0-5.859,4.518C227.867,102.265,220.484,120.322,228.5,117.117Z" transform="translate(-9.643 -67.879)" fill="#fff" opacity="0.8"/>
    </g>
    <g id="freepik--Shadow--inject-1--inject-130" transform="translate(72.025 554.017)">
      <ellipse id="Ellipse_253" data-name="Ellipse 253" cx="285.628" cy="10.616" rx="285.628" ry="10.616" fill="#32cd32"/>
      <ellipse id="Ellipse_254" data-name="Ellipse 254" cx="285.628" cy="10.616" rx="285.628" ry="10.616" fill="#fff" opacity="0.8"/>
    </g>
    <g id="freepik--Ladder--inject-1--inject-130" transform="translate(449.884 165.57)">
      <path id="Path_41021" data-name="Path 41021" d="M376.359,139a2.118,2.118,0,0,0-2.118,2.118v10.856h-38.7V141.118a2.118,2.118,0,1,0-4.235,0V414.577a2.118,2.118,0,1,0,4.235,0V353.4h38.7v61.172a2.118,2.118,0,1,0,4.235,0v-273.5A2.118,2.118,0,0,0,376.359,139Zm-2.118,210.212h-38.7V335.489h38.7Zm0-17.972h-38.7V317.532h38.7Zm0-17.958h-38.7V299.616h38.7Zm0-17.944h-38.7V281.729h38.7Zm0-17.929h-38.7V263.955h38.7Zm0-17.873h-38.7V246h38.7Zm0-17.788h-38.7V228.082h38.7Zm0-17.958h-38.7V210.125h38.7Zm0-17.915h-38.7V192.167h38.7Zm0-17.958h-38.7V174.181h38.7Zm0-17.972h-38.7V156.209h38.7Z" transform="translate(-331.31 -139)" fill="#fff"/>
    </g>
    <g id="freepik--Plant--inject-1--inject-130" transform="translate(43.345 304.506)">
      <path id="Path_41022" data-name="Path 41022" d="M108.112,311.421s31.694-43.384,16.235-53.647c-16.08-10.6-23.633,21.515-27.035,37.285-7.256,33.656-5.209,40.8-.339,33.4Z" transform="translate(-23.074 -229.895)" fill="#32cd32"/>
      <path id="Path_41023" data-name="Path 41023" d="M108.112,311.421s31.694-43.384,16.235-53.647c-16.08-10.6-23.633,21.515-27.035,37.285-7.256,33.656-5.209,40.8-.339,33.4Z" transform="translate(-23.074 -229.895)" fill="#fff" opacity="0.5"/>
      <path id="Path_41024" data-name="Path 41024" d="M117.93,328.595s44.061-30.748,32.753-45.4c-11.76-15.261-29.336,12.706-37.68,26.485-17.8,29.478-18.169,36.9-11.167,31.482Z" transform="translate(-21.005 -220.387)" fill="#32cd32"/>
      <path id="Path_41025" data-name="Path 41025" d="M117.93,328.595s44.061-30.748,32.753-45.4c-11.76-15.261-29.336,12.706-37.68,26.485-17.8,29.478-18.169,36.9-11.167,31.482Z" transform="translate(-21.005 -220.387)" fill="#fff" opacity="0.5"/>
      <path id="Path_41026" data-name="Path 41026" d="M117.767,349.417s38.118-17.125,31.609-29.972c-6.776-13.369-24.268,5.435-32.64,14.781-17.887,19.962-19.242,25.581-13.1,22.461Z" transform="translate(-19.882 -205.548)" fill="#32cd32"/>
      <path id="Path_41027" data-name="Path 41027" d="M117.767,349.417s38.118-17.125,31.609-29.972c-6.776-13.369-24.268,5.435-32.64,14.781-17.887,19.962-19.242,25.581-13.1,22.461Z" transform="translate(-19.882 -205.548)" fill="#fff" opacity="0.5"/>
      <path id="Path_41028" data-name="Path 41028" d="M119.365,374.785s38.118-17.125,31.624-29.972c-6.791-13.355-24.268,5.435-32.654,14.8-17.873,19.962-19.242,25.581-13.087,22.447Z" transform="translate(-19.221 -195.1)" fill="#32cd32"/>
      <path id="Path_41029" data-name="Path 41029" d="M119.365,374.785s38.118-17.125,31.624-29.972c-6.791-13.355-24.268,5.435-32.654,14.8-17.873,19.962-19.242,25.581-13.087,22.447Z" transform="translate(-19.221 -195.1)" fill="#fff" opacity="0.5"/>
      <path id="Path_41030" data-name="Path 41030" d="M98.7,314.567s-41.9-33.642-52.786-18.678C34.62,311.418,66.329,320.5,81.929,324.618c33.289,8.8,40.518,7.059,33.346,1.864Z" transform="translate(-43.267 -214.914)" fill="#32cd32"/>
      <path id="Path_41031" data-name="Path 41031" d="M98.7,314.567s-41.9-33.642-52.786-18.678C34.62,311.418,66.329,320.5,81.929,324.618c33.289,8.8,40.518,7.059,33.346,1.864Z" transform="translate(-43.267 -214.914)" fill="#fff" opacity="0.5"/>
      <path id="Path_41032" data-name="Path 41032" d="M100.02,331.9S52.275,307.255,44.58,324.1c-8,17.52,24.889,20.061,40.941,20.993,34.376,2,41.125-1.129,33.064-4.8Z" transform="translate(-43.345 -204.144)" fill="#32cd32"/>
      <path id="Path_41033" data-name="Path 41033" d="M100.02,331.9S52.275,307.255,44.58,324.1c-8,17.52,24.889,20.061,40.941,20.993,34.376,2,41.125-1.129,33.064-4.8Z" transform="translate(-43.345 -204.144)" fill="#fff" opacity="0.5"/>
      <path id="Path_41034" data-name="Path 41034" d="M101.576,353.322S60.635,333.558,54.522,348c-6.367,15.007,21.5,16.391,35.153,16.8,29.111.9,34.744-1.92,27.84-4.744Z" transform="translate(-39.126 -194.051)" fill="#32cd32"/>
      <path id="Path_41035" data-name="Path 41035" d="M101.576,353.322S60.635,333.558,54.522,348c-6.367,15.007,21.5,16.391,35.153,16.8,29.111.9,34.744-1.92,27.84-4.744Z" transform="translate(-39.126 -194.051)" fill="#fff" opacity="0.5"/>
      <path id="Path_41036" data-name="Path 41036" d="M102.895,372.5s-38.626-24-46.235-10.292c-7.92,14.245,19.652,18.579,33.176,20.442,28.856,3.981,34.744,1.793,28.235-1.835Z" transform="translate(-38.44 -187.77)" fill="#32cd32"/>
      <path id="Path_41037" data-name="Path 41037" d="M102.895,372.5s-38.626-24-46.235-10.292c-7.92,14.245,19.652,18.579,33.176,20.442,28.856,3.981,34.744,1.793,28.235-1.835Z" transform="translate(-38.44 -187.77)" fill="#fff" opacity="0.5"/>
      <path id="Path_41038" data-name="Path 41038" d="M98.867,294.444s-7.256-63.007-31.059-56.569c-24.72,6.72-4.024,38.6,6.48,54.014,22.32,32.809,30.536,36.424,28.772,26.174Z" transform="translate(-38.069 -237.413)" fill="#32cd32"/>
      <path id="Path_41039" data-name="Path 41039" d="M98.867,294.444s-7.256-63.007-31.059-56.569c-24.72,6.72-4.024,38.6,6.48,54.014,22.32,32.809,30.536,36.424,28.772,26.174Z" transform="translate(-38.069 -237.413)" fill="#fff" opacity="0.5"/>
      <path id="Path_41040" data-name="Path 41040" d="M67.86,254s36.226,67.878,41.845,99.388c6.466,36.2,7.511,76.631,3.049,108.311" transform="translate(-33.25 -230.583)" fill="none" stroke="#32cd32" stroke-linecap="round" stroke-linejoin="round" stroke-width="1.252"/>
      <line id="Line_310" data-name="Line 310" y1="54.353" x2="17.746" transform="translate(70.737 47.488)" fill="none" stroke="#32cd32" stroke-linecap="round" stroke-linejoin="round" stroke-width="1.252"/>
      <line id="Line_311" data-name="Line 311" y1="42" x2="33.402" transform="translate(76.454 80.805)" fill="none" stroke="#32cd32" stroke-linecap="round" stroke-linejoin="round" stroke-width="1.252"/>
      <line id="Line_312" data-name="Line 312" x1="48.367" y1="20.315" transform="translate(25.956 94.852)" fill="none" stroke="#32cd32" stroke-linecap="round" stroke-linejoin="round" stroke-width="1.252"/>
      <line id="Line_313" data-name="Line 313" y1="27.868" x2="36.367" transform="translate(80.647 123.384)" fill="none" stroke="#32cd32" stroke-linecap="round" stroke-linejoin="round" stroke-width="1.252"/>
      <line id="Line_314" data-name="Line 314" x1="37.991" y1="7.906" transform="translate(40.723 131.389)" fill="none" stroke="#32cd32" stroke-linecap="round" stroke-linejoin="round" stroke-width="1.252"/>
      <line id="Line_315" data-name="Line 315" x1="29.421" y1="4.659" transform="translate(51.113 163.732)" fill="none" stroke="#32cd32" stroke-linecap="round" stroke-linejoin="round" stroke-width="1.252"/>
      <line id="Line_316" data-name="Line 316" y1="17.732" x2="19.793" transform="translate(83.019 169.492)" fill="none" stroke="#32cd32" stroke-linecap="round" stroke-linejoin="round" stroke-width="1.252"/>
      <line id="Line_317" data-name="Line 317" x1="33.812" y1="8.499" transform="translate(48.812 186.702)" fill="none" stroke="#32cd32" stroke-linecap="round" stroke-linejoin="round" stroke-width="1.252"/>
      <path id="Path_41041" data-name="Path 41041" d="M84.13,383.01H124.1v8.273H120.61L113.4,436.417H94.831l-7.214-45.134H84.13Z" transform="translate(-26.551 -177.461)" fill="#32cd32"/>
      <path id="Path_41042" data-name="Path 41042" d="M84.13,383.01H124.1v8.273H120.61L113.4,436.417H94.831l-7.214-45.134H84.13Z" transform="translate(-26.551 -177.461)" fill="#fff" opacity="0.5"/>
    </g>
    <g id="freepik--character-1--inject-1--inject-130" transform="translate(138.011 80.547)">
      <path id="Path_41043" data-name="Path 41043" d="M138.911,82.085a13.016,13.016,0,0,0-12.96-2.584c-7.765,2.584-15.2,13.807-13.327,23.308,1.313,6.579,7.412,16.278,9.261,19.976s-.748,9.953-6.621,22.941-8.146,25.172,8.88,35.9,36.3-6.3,46.179-18.508-7.412-40.334-8.894-52.235S157.4,76.17,138.911,82.085Z" transform="translate(-110.181 -78.775)" fill="#263238"/>
      <path id="Path_41044" data-name="Path 41044" d="M169.8,139.1a40.772,40.772,0,0,1-32.612,11.774l-4.08,17.012,7.765,38.838,50.7-26.273L180.094,150.8Z" transform="translate(-101.049 -53.936)" fill="#32cd32" stroke="#263238" stroke-linecap="round" stroke-linejoin="round" stroke-width="1"/>
      <path id="Path_41045" data-name="Path 41045" d="M169.8,139.1a40.772,40.772,0,0,1-32.612,11.774l-4.08,17.012,7.765,38.838,50.7-26.273L180.094,150.8Z" transform="translate(-101.049 -53.936)" fill="#263238" opacity="0.3"/>
      <path id="Path_41046" data-name="Path 41046" d="M175.418,154.1h0l-7.765-51.445-23.012,4.715-11.478,7.4s-13.694,10.744-13.694,11.845,23.167,39.868,23.167,39.868A42.946,42.946,0,0,0,175.418,154.1Z" transform="translate(-106.665 -68.94)" fill="#fff"/>
      <g id="Group_36798" data-name="Group 36798" transform="translate(12.805 33.72)" clip-path="url(#clip-path)">
        <path id="Path_41047" data-name="Path 41047" d="M179.949,165.9l-10.362-11.845-7.765-51.445L138.881,107.4l-5.421,3.5,1.722,23.322a13.567,13.567,0,0,0,4.574,1.638c1.638,0,2.951-3.6,2.951-3.6l1.962-3.275a7.2,7.2,0,0,0,7.539.664c4.574-1.976,1.962-9.176,1.3-11.788s6.226-.988,6.226-.988,5.562,12.113,6.226,16.038-2.951,14.739-2.626,17.04.325,6.536-.974,7.849-5.9,8.471-5.9,8.471,19.327,1.638,21.289,1.638a16.6,16.6,0,0,0,2.824-.551Z" transform="translate(-113.709 -102.681)" fill="none" opacity="0.5"/>
      </g>
      <path id="Path_41049" data-name="Path 41049" d="M175.418,154.1h0l-7.765-51.445-23.012,4.715-11.478,7.4s-13.694,10.744-13.694,11.845,23.167,39.868,23.167,39.868A42.946,42.946,0,0,0,175.418,154.1Z" transform="translate(-106.665 -68.94)" fill="none" stroke="#263238" stroke-linecap="round" stroke-linejoin="round" stroke-width="1"/>
      <path id="Path_41050" data-name="Path 41050" d="M137.845,140.2s16.221-12.028,14.725-8.471-12.706,12.438-15.713,12.706S137.845,140.2,137.845,140.2Z" transform="translate(-99.968 -57.241)" fill="#32cd32" opacity="0.5"/>
      <path id="Path_41051" data-name="Path 41051" d="M137.58,123.666l.635.664,3.953,4.179,1.016,16.052,4.842-.762L144.2,128.762l6.127,12.734,5.1-5.1-10.955-9.939-.268-7.892-5.6-2.809" transform="translate(-99.208 -63.546)" fill="#263238"/>
      <path id="Path_41052" data-name="Path 41052" d="M132.674,109.008s-4.814,2.216-4.814,6.649,5.209,14.979,8.471,17.2,8.852-7.934,8.852-7.934,8.471,4.066,10.729.367-5.181-15.911-9.981-19.242S132.674,109.008,132.674,109.008Z" transform="translate(-103.211 -67.948)" fill="#fff" stroke="#263238" stroke-linecap="round" stroke-linejoin="round" stroke-width="1"/>
      <path id="Path_41053" data-name="Path 41053" d="M128.39,106.328a87.865,87.865,0,0,1,3.332,10.362c.734,3.7,10.729,10,11.831,10.362s1.849-11.845,1.849-11.845l-2.951-14.428Z" transform="translate(-102.992 -69.715)" fill="#fff"/>
      <g id="Group_36799" data-name="Group 36799" transform="translate(25.398 31.065)" clip-path="url(#clip-path-2)">
        <path id="Path_41054" data-name="Path 41054" d="M142.49,101.985a14.341,14.341,0,0,0-1.892-.4l-10.207,3.6-1.341,3.5c.678,1.892,1.539,4.433,2.061,6.494a11.365,11.365,0,0,0,5.831,2.442c3.064.212,5.76-2.16,7.666-5.068Z" transform="translate(-128.118 -100.446)" fill="#32cd32" opacity="0.5"/>
      </g>
      <path id="Path_41056" data-name="Path 41056" d="M128.39,106.328a87.865,87.865,0,0,1,3.332,10.362c.734,3.7,10.729,10,11.831,10.362s1.849-11.845,1.849-11.845l-2.951-14.428Z" transform="translate(-102.992 -69.715)" fill="none" stroke="#263238" stroke-linecap="round" stroke-linejoin="round" stroke-width="1"/>
      <path id="Path_41057" data-name="Path 41057" d="M124.86,100.68s-4.08-3.318-4.08,0,3.713,5.181,6.664,5.181" transform="translate(-106.126 -70.363)" fill="#fff" stroke="#263238" stroke-linecap="round" stroke-linejoin="round" stroke-width="1"/>
      <path id="Path_41058" data-name="Path 41058" d="M139.13,93.146s2.6-4.066,3.332.381a11.294,11.294,0,0,1-2.216,8.132Z" transform="translate(-98.57 -73.558)" fill="#fff" stroke="#263238" stroke-linecap="round" stroke-linejoin="round" stroke-width="1"/>
      <path id="Path_41059" data-name="Path 41059" d="M124.86,100.68s-4.08-3.318-4.08,0,3.713,5.181,6.664,5.181" transform="translate(-106.126 -70.363)" fill="#32cd32" stroke="#263238" stroke-linecap="round" stroke-linejoin="round" stroke-width="1" opacity="0.5"/>
      <path id="Path_41060" data-name="Path 41060" d="M139.13,93.146s2.6-4.066,3.332.381a11.294,11.294,0,0,1-2.216,8.132Z" transform="translate(-98.57 -73.558)" fill="#32cd32" stroke="#263238" stroke-linecap="round" stroke-linejoin="round" stroke-width="1" opacity="0.5"/>
      <path id="Path_41061" data-name="Path 41061" d="M120.42,96.173s3.176,13.228,10,19.765,14.118,6.593,16.645-5.054c2.075-9.6-3.078-22.4-3.078-22.4S127.352,74.785,120.42,96.173Z" transform="translate(-106.274 -76.557)" fill="#fff"/>
      <g id="Group_36800" data-name="Group 36800" transform="translate(14.146 7.604)" clip-path="url(#clip-path-3)">
        <path id="Path_41062" data-name="Path 41062" d="M128.81,84.175l2.584,6.494s4.066-.9,6.353,4.009,4.588,12.113,3.275,17.689c-1.256,5.308-4.235,7.059-8.824,7.186,5,2.132,9.529,0,11.407-8.7,2.075-9.6-3.078-22.4-3.078-22.4S134.895,83.836,128.81,84.175Z" transform="translate(-116.965 -84.163)" fill="#32cd32" opacity="0.5"/>
      </g>
      <path id="Path_41064" data-name="Path 41064" d="M120.42,96.173s3.176,13.228,10,19.765,14.118,6.593,16.645-5.054c2.075-9.6-3.078-22.4-3.078-22.4S127.352,74.785,120.42,96.173Z" transform="translate(-106.274 -76.557)" fill="none" stroke="#263238" stroke-linecap="round" stroke-linejoin="round" stroke-width="1"/>
      <path id="Path_41065" data-name="Path 41065" d="M129.935,97.9c.4.748.325,1.553-.155,1.807s-1.186-.155-1.567-.9-.325-1.539.155-1.793S129.554,97.167,129.935,97.9Z" transform="translate(-103.168 -71.297)" fill="#263238"/>
      <path id="Path_41066" data-name="Path 41066" d="M135.146,96.331c.282.791.1,1.581-.409,1.751s-1.158-.311-1.412-1.1-.1-1.581.409-1.751S134.864,95.568,135.146,96.331Z" transform="translate(-101.01 -72.013)" fill="#263238"/>
      <path id="Path_41067" data-name="Path 41067" d="M136.447,93.157a3.176,3.176,0,0,0-3.84.226c-2.033,1.581,1.807,9.5,1.807,9.5s.071,2.5-3.134,1.341" transform="translate(-101.802 -73.076)" fill="none" stroke="#263238" stroke-linecap="round" stroke-linejoin="round" stroke-width="0.5"/>
      <path id="Path_41068" data-name="Path 41068" d="M136.587,102.66a3.642,3.642,0,0,1-5.647,1.412" transform="translate(-101.942 -68.94)" fill="none" stroke="#263238" stroke-linecap="round" stroke-linejoin="round" stroke-width="0.5"/>
      <path id="Path_41069" data-name="Path 41069" d="M130.365,94.747s-3.614-3.4-5.2,3.162" transform="translate(-104.318 -72.562)" fill="none" stroke="#263238" stroke-linecap="round" stroke-linejoin="round" stroke-width="0.5"/>
      <path id="Path_41070" data-name="Path 41070" d="M145.834,85.572c-3.967-3.445-7.172-3.4-8.569-2.951a9.473,9.473,0,0,0-4.334-1.412c-11.1-1.482-12.579,7.059-12.579,15.176s-7.059,17.76-2.216,18.875a5.788,5.788,0,0,0,6.664-3.332s5.181-8.471,5.181-14.442,6.452-5.407,6.452-5.407h0a3.445,3.445,0,0,1,5.2-.593c2.936,2.513,3.275,5.464,5.647,6.226s6.339-3.049,6.339-3.049A55.85,55.85,0,0,0,145.834,85.572Z" transform="translate(-107.914 -77.843)" fill="#263238"/>
      <path id="Path_41071" data-name="Path 41071" d="M136.161,86.249s-4.461-3.586-8.471.438-3.572,11.633-4.913,16.56-4.927,5.816-4.927,5.816" transform="translate(-107.332 -76.304)" fill="none" stroke="#fff" stroke-linecap="round" stroke-linejoin="round" stroke-width="0.5"/>
      <path id="Path_41072" data-name="Path 41072" d="M132.789,85.392s-4.814-4.772-10.871,1.271c-4.616,4.631-2.555,7.666-3.459,15.275" transform="translate(-107.081 -76.788)" fill="none" stroke="#fff" stroke-linecap="round" stroke-linejoin="round" stroke-width="0.5"/>
      <path id="Path_41073" data-name="Path 41073" d="M132.41,84.456s8.471-4.024,12.085,6.268" transform="translate(-101.337 -76.755)" fill="none" stroke="#fff" stroke-linecap="round" stroke-linejoin="round" stroke-width="0.5"/>
      <path id="Path_41074" data-name="Path 41074" d="M123.2,119.65l-12.8,51.529,37.553,10.645,1.849-6.664-24.664-11.379,8.372-29.647s-1.1-5.548-7.059-11.831" transform="translate(-110.4 -61.945)" fill="#fff"/>
      <g id="Group_36801" data-name="Group 36801" transform="translate(0 57.705)" clip-path="url(#clip-path-4)">
        <path id="Path_41075" data-name="Path 41075" d="M148.554,173.156,123.89,161.778l8.372-29.647a22.757,22.757,0,0,0-3.148-6.9l-.8-.607v8.188c0,5.238-6.551,21.939-8.852,25.864s-5.887,8.838-5.887,8.838l7.2-3.275,27.289,10.927Z" transform="translate(-109.095 -117.604)" fill="#32cd32" opacity="0.5"/>
      </g>
      <path id="Path_41077" data-name="Path 41077" d="M123.2,119.65l-12.8,51.529,37.553,10.645,1.849-6.664-24.664-11.379,8.372-29.647s-1.1-5.548-7.059-11.831" transform="translate(-110.4 -61.945)" fill="none" stroke="#263238" stroke-linecap="round" stroke-linejoin="round" stroke-width="1"/>
      <path id="Path_41078" data-name="Path 41078" d="M211.023,142.139l-28.433-5.972L153.55,102.61l4.292,26.993,17.816,16.969,35.8,1.638Z" transform="translate(-92.632 -68.961)" fill="#fff"/>
      <g id="Group_36802" data-name="Group 36802" transform="translate(60.918 33.649)" clip-path="url(#clip-path-5)">
        <path id="Path_41079" data-name="Path 41079" d="M153.55,102.61l3.459,21.544,2.2,6.734.282.254c.833-.861,5.534-5.746,6.734-5.746S180.966,137.184,179,138.1l-1.976.974,33.727,5.562.24-2.584L182.618,136.1Z" transform="translate(-153.55 -102.61)" fill="#32cd32" opacity="0.5"/>
      </g>
      <path id="Path_41081" data-name="Path 41081" d="M211.023,142.139l-28.433-5.972L153.55,102.61l4.292,26.993,17.816,16.969,35.8,1.638Z" transform="translate(-92.632 -68.961)" fill="none" stroke="#263238" stroke-linecap="round" stroke-linejoin="round" stroke-width="1"/>
      <path id="Path_41082" data-name="Path 41082" d="M488.968,416.858,126.893,363.8a4.391,4.391,0,0,1-3.7-4.983l30.155-205.708a4.376,4.376,0,0,1,4.969-3.7l6.861,1a4.362,4.362,0,0,0,4.433-2.146l9.106-15.741a4.151,4.151,0,0,1,1.1-1.271,10.094,10.094,0,0,1,7.384-1.807l91.271,13.384a10.08,10.08,0,0,1,5.464,2.626,4.235,4.235,0,0,1,.932,1.412l8.118,20.1a4.362,4.362,0,0,0,3.431,2.7L520.394,202.51a4.391,4.391,0,0,1,3.713,4.969L493.952,413.174A4.391,4.391,0,0,1,488.968,416.858Z" transform="translate(-105.152 -57.953)" fill="#263238" stroke="#263238" stroke-miterlimit="10" stroke-width="1"/>
      <path id="Path_41083" data-name="Path 41083" d="M491.989,402.475H133.1a7.934,7.934,0,0,1-7.934-7.934V193.732A7.934,7.934,0,0,1,133.1,185.8h.974a7.976,7.976,0,0,0,7.384-5l5.464-13.736a7.722,7.722,0,0,1,3.176-3.812,10.165,10.165,0,0,1,5.139-1.412h92.245a10.194,10.194,0,0,1,3.628.664,7.694,7.694,0,0,1,3.812,3.332l9.388,16a7.934,7.934,0,0,0,6.847,3.925H491.989a7.934,7.934,0,0,1,7.934,7.934V394.541a7.934,7.934,0,0,1-7.934,7.934Z" transform="translate(-104.318 -44.572)" fill="#32cd32"/>
      <g id="Group_36803" data-name="Group 36803" transform="translate(20.852 117.268)" clip-path="url(#clip-path-6)">
        <path id="Path_41084" data-name="Path 41084" d="M491.989,402.475H133.1a7.934,7.934,0,0,1-7.934-7.934V193.732A7.934,7.934,0,0,1,133.1,185.8h.974a7.976,7.976,0,0,0,7.384-5l5.464-13.736a7.722,7.722,0,0,1,3.176-3.812,10.165,10.165,0,0,1,5.139-1.412h92.245a10.194,10.194,0,0,1,3.628.664,7.694,7.694,0,0,1,3.812,3.332l9.388,16a7.934,7.934,0,0,0,6.847,3.925H491.989a7.934,7.934,0,0,1,7.934,7.934V394.541a7.934,7.934,0,0,1-7.934,7.934Z" transform="translate(-125.17 -161.84)" fill="#263238" opacity="0.1"/>
      </g>
      <path id="Path_41086" data-name="Path 41086" d="M491.989,402.475H133.1a7.934,7.934,0,0,1-7.934-7.934V193.732A7.934,7.934,0,0,1,133.1,185.8h.974a7.976,7.976,0,0,0,7.384-5l5.464-13.736a7.722,7.722,0,0,1,3.176-3.812,10.165,10.165,0,0,1,5.139-1.412h92.245a10.194,10.194,0,0,1,3.628.664,7.694,7.694,0,0,1,3.812,3.332l9.388,16a7.934,7.934,0,0,0,6.847,3.925H491.989a7.934,7.934,0,0,1,7.934,7.934V394.541a7.934,7.934,0,0,1-7.934,7.934Z" transform="translate(-104.318 -44.572)" fill="none" stroke="#263238" stroke-miterlimit="10" stroke-width="1"/>
      <path id="Path_41087" data-name="Path 41087" d="M215.258,181.348H157.827a5.167,5.167,0,0,1-5.167-5.167h0A5.167,5.167,0,0,1,157.827,171h57.431a5.181,5.181,0,0,1,5.181,5.181h0a5.167,5.167,0,0,1-5.181,5.167Z" transform="translate(-92.999 -40.8)" fill="#fff"/>
      <path id="Path_41088" data-name="Path 41088" d="M491.989,427.291H133.1a7.934,7.934,0,0,1-7.934-7.934V218.548a7.934,7.934,0,0,1,7.934-7.934h.974a7.962,7.962,0,0,0,7.384-5l5.464-13.722a7.666,7.666,0,0,1,3.176-3.812,10.038,10.038,0,0,1,5.139-1.412h92.245a10.193,10.193,0,0,1,3.628.664,7.651,7.651,0,0,1,3.812,3.346l9.388,16.009a7.934,7.934,0,0,0,6.847,3.925H491.989a7.934,7.934,0,0,1,7.934,7.934V419.357A7.934,7.934,0,0,1,491.989,427.291Z" transform="translate(-104.318 -34.348)" fill="#263238" stroke="#263238" stroke-miterlimit="10" stroke-width="1"/>
      <path id="Path_41089" data-name="Path 41089" d="M234.433,154.064l-56.979-7.059a5.2,5.2,0,0,1-4.5-5.774h0a5.181,5.181,0,0,1,5.788-4.489L235.7,143.8a5.181,5.181,0,0,1,4.5,5.774h0a5.167,5.167,0,0,1-5.774,4.489Z" transform="translate(-84.659 -54.924)" fill="#32cd32"/>
      <path id="Path_41090" data-name="Path 41090" d="M234.433,154.064l-56.979-7.059a5.2,5.2,0,0,1-4.5-5.774h0a5.181,5.181,0,0,1,5.788-4.489L235.7,143.8a5.181,5.181,0,0,1,4.5,5.774h0a5.167,5.167,0,0,1-5.774,4.489Z" transform="translate(-84.659 -54.924)" fill="#fff" opacity="0.5"/>
      <path id="Path_41091" data-name="Path 41091" d="M215.258,206.182H157.827A5.167,5.167,0,0,1,152.66,201h0a5.181,5.181,0,0,1,5.167-5.181h57.431A5.181,5.181,0,0,1,220.439,201h0A5.181,5.181,0,0,1,215.258,206.182Z" transform="translate(-92.999 -30.58)" fill="#32cd32"/>
      <path id="Path_41092" data-name="Path 41092" d="M215.258,206.182H157.827A5.167,5.167,0,0,1,152.66,201h0a5.181,5.181,0,0,1,5.167-5.181h57.431A5.181,5.181,0,0,1,220.439,201h0A5.181,5.181,0,0,1,215.258,206.182Z" transform="translate(-92.999 -30.58)" fill="#fff" opacity="0.5"/>
      <rect id="Rectangle_3647" data-name="Rectangle 3647" width="397.242" height="246.254" rx="5.27" transform="translate(9.6 236.661)" fill="#fff"/>
      <g id="Group_36804" data-name="Group 36804" transform="translate(9.6 236.661)" clip-path="url(#clip-path-7)">
        <path id="Path_41093" data-name="Path 41093" d="M507.611,293.36A595.087,595.087,0,0,1,359.235,394.866c-80.259,38.386-172,64.842-225.445,78.466H500.157a7.44,7.44,0,0,0,7.454-7.44Z" transform="translate(-110.369 -227.078)" fill="#32cd32"/>
        <path id="Path_41094" data-name="Path 41094" d="M507.611,293.36A595.087,595.087,0,0,1,359.235,394.866c-80.259,38.386-172,64.842-225.445,78.466H500.157a7.44,7.44,0,0,0,7.454-7.44Z" transform="translate(-110.369 -227.078)" fill="#fff" opacity="0.2"/>
      </g>
      <rect id="Rectangle_3649" data-name="Rectangle 3649" width="397.242" height="246.254" rx="5.27" transform="translate(9.6 236.661)" fill="none" stroke="#263238" stroke-miterlimit="10" stroke-width="1"/>
      <path id="Path_41095" data-name="Path 41095" d="M121.27,266.782V256.9a7.454,7.454,0,0,1,7.454-7.44h16.165" transform="translate(-105.924 -8.493)" fill="none" stroke="#263238" stroke-miterlimit="10" stroke-width="1"/>
      <line id="Line_318" data-name="Line 318" y1="138.042" transform="translate(15.346 270.331)" fill="none" stroke="#263238" stroke-miterlimit="10" stroke-width="1"/>
      <path id="Path_41096" data-name="Path 41096" d="M400.471,401.4v15.628a7.44,7.44,0,0,1-7.44,7.454H380" transform="translate(0.612 54.07)" fill="none" stroke="#263238" stroke-miterlimit="10" stroke-width="1"/>
      <line id="Line_319" data-name="Line 319" y2="189.035" transform="translate(401.082 254.816)" fill="none" stroke="#263238" stroke-miterlimit="10" stroke-width="1"/>
      <rect id="Rectangle_3650" data-name="Rectangle 3650" width="125.831" height="67.976" rx="2.73" transform="translate(145.299 326.703)" fill="#263238" stroke="#263238" stroke-miterlimit="10" stroke-width="1"/>
      <rect id="Rectangle_3651" data-name="Rectangle 3651" width="125.831" height="20.668" rx="2.73" transform="translate(145.299 326.703)" fill="#fff" stroke="#263238" stroke-miterlimit="10" stroke-width="1"/>
      <path id="Path_41097" data-name="Path 41097" d="M137,165.909l2.584,4.814,5.492,3.953a2.132,2.132,0,0,0,2.4.085l.48-.311a1.68,1.68,0,0,0,.664-2.118l-3.12-7.172,2.1,1.638a1.624,1.624,0,0,0,2.245-.254h0a1.638,1.638,0,0,0,0-2.047l-4.9-6.2-6.127.946Z" transform="translate(-99.447 -46.03)" fill="#fff" stroke="#263238" stroke-miterlimit="10" stroke-width="1"/>
      <line id="Line_320" data-name="Line 320" x1="4.913" y1="6.452" transform="translate(43.652 121.969)" fill="none" stroke="#263238" stroke-linecap="round" stroke-linejoin="round" stroke-width="0.5"/>
      <line id="Line_321" data-name="Line 321" x1="3.854" y1="5.111" transform="translate(41.831 123.536)" fill="none" stroke="#263238" stroke-linecap="round" stroke-linejoin="round" stroke-width="0.5"/>
      <path id="Path_41098" data-name="Path 41098" d="M194.26,130.61l7.68.452,9.346,5.972s.522,1.821-.776,2.075-8.315-2.329-8.315-2.329l-7.5-.1Z" transform="translate(-75.869 -57.432)" fill="#fff" stroke="#263238" stroke-miterlimit="10" stroke-width="1"/>
      <path id="Path_41099" data-name="Path 41099" d="M194.54,134.466l8.061,3.642s1.3-1.821-.522-2.6l-2.654-1.821" transform="translate(-75.754 -56.163)" fill="#fff" stroke="#263238" stroke-linejoin="round" stroke-width="1"/>
    </g>
    <g id="freepik--character-2--inject-1--inject-130" transform="translate(521.798 281.205)">
      <path id="Path_41100" data-name="Path 41100" d="M398.6,236.228l-3.332-9.967-3.741-5.125a.508.508,0,0,0-.932.311v14.767l2.824,3.713Z" transform="translate(-378.811 -220.908)" fill="#fff"/>
      <path id="Path_41101" data-name="Path 41101" d="M452.075,275.341l-27.953.988a5.435,5.435,0,0,1-5.026-2.951L397.779,231.76s-4.8,2.6-5.167,3.7,15.784,41.6,20.739,54.042a5.435,5.435,0,0,0,5.266,3.417l31.242-1.327" transform="translate(-377.985 -216.439)" fill="#fff" stroke="#263238" stroke-miterlimit="10" stroke-width="1"/>
      <line id="Line_322" data-name="Line 322" x1="4.376" y2="1.807" transform="translate(17.464 20.502)" fill="#fff" stroke="#263238" stroke-miterlimit="10" stroke-width="0.75"/>
      <g id="Group_36805" data-name="Group 36805" transform="translate(14.621 15.321)" opacity="0.5">
        <path id="Path_41102" data-name="Path 41102" d="M452.075,275.341l-27.953.988a5.435,5.435,0,0,1-5.026-2.951L397.779,231.76s-4.8,2.6-5.167,3.7,15.784,41.6,20.739,54.042a5.435,5.435,0,0,0,5.266,3.417l31.242-1.327" transform="translate(-392.606 -231.76)" fill="#32cd32" stroke="#263238" stroke-miterlimit="10" stroke-width="1"/>
        <line id="Line_323" data-name="Line 323" x1="4.376" y2="1.807" transform="translate(2.844 5.181)" fill="#32cd32" stroke="#263238" stroke-miterlimit="10" stroke-width="0.75"/>
      </g>
      <path id="Path_41103" data-name="Path 41103" d="M398.6,236.228l-3.332-9.967-3.741-5.125a.508.508,0,0,0-.932.311v14.767l2.824,3.713Z" transform="translate(-378.811 -220.908)" fill="#32cd32"/>
      <g id="Group_36806" data-name="Group 36806" transform="translate(11.788 0)" clip-path="url(#clip-path-8)">
        <path id="Path_41104" data-name="Path 41104" d="M398.6,236.228l-3.332-9.967-3.741-5.125a.508.508,0,0,0-.932.311v14.767l2.824,3.713Z" transform="translate(-390.599 -220.908)" fill="#fff" opacity="0.5"/>
      </g>
      <path id="Path_41106" data-name="Path 41106" d="M398.6,236.228l-3.332-9.967-3.741-5.125a.508.508,0,0,0-.932.311v14.767l2.824,3.713Z" transform="translate(-378.811 -220.908)" fill="none" stroke="#263238" stroke-miterlimit="10" stroke-width="1"/>
      <path id="Path_41107" data-name="Path 41107" d="M445.855,245.036a15.191,15.191,0,0,0-2.823,5.774c-.409,2.711.24,13.144.24,13.144l-14.541,1.638s1.1-10.6,1.158-12.367a15.727,15.727,0,0,1,7.694-10.447C442.579,240.321,446.829,241.521,445.855,245.036Z" transform="translate(-363.11 -212.436)" fill="#fff"/>
      <g id="Group_36807" data-name="Group 36807" transform="translate(65.62 29.048)" clip-path="url(#clip-path-9)">
        <path id="Path_41108" data-name="Path 41108" d="M445.546,244.714c-2.64-.72-5.845-1.525-8.555-2.174a15.784,15.784,0,0,0-7.355,10.235c0,.678-.2,2.654-.4,4.828,1.412-.325,3.656-.819,5.322-1.115a23.367,23.367,0,0,0,3.882-.974l-.494,8.471h.325l4.744-.536s-.649-10.433-.24-13.144a14.837,14.837,0,0,1,2.767-5.591Z" transform="translate(-428.52 -241.048)" fill="#32cd32" opacity="0.5"/>
      </g>
      <path id="Path_41110" data-name="Path 41110" d="M445.855,245.036a15.191,15.191,0,0,0-2.823,5.774c-.409,2.711.24,13.144.24,13.144l-14.541,1.638s1.1-10.6,1.158-12.367a15.727,15.727,0,0,1,7.694-10.447C442.579,240.321,446.829,241.521,445.855,245.036Z" transform="translate(-363.11 -212.436)" fill="none" stroke="#263238" stroke-miterlimit="10" stroke-width="1.004"/>
      <path id="Path_41111" data-name="Path 41111" d="M452.351,251.993c12.057-15.925-17.012-32.471-24.649-16.645a29.814,29.814,0,0,0-2.513,6.155c-1.158.706-4.235,2.6-4.8,3.12s1.412,1.864,2.5,2.527c-2.075,5.1-1.765,10.461-1.172,11.675,1.031,2.089,6.113,2.118,9.459,1.5s4.673-3.826,5.647-4.7,5.831.24,7.539.748S450.008,255.142,452.351,251.993Z" transform="translate(-366.586 -217.6)" fill="#fff"/>
      <g id="Group_36808" data-name="Group 36808" transform="translate(53.704 11.342)" clip-path="url(#clip-path-10)">
        <path id="Path_41112" data-name="Path 41112" d="M439.685,244.19s.254,1.2-2.174,2.174-2.908.24-3.628,1.934a6.043,6.043,0,0,1-4.842,4.362,57.988,57.988,0,0,1-6.96.889c1.92,1.073,5.732.988,8.471.494,3.332-.607,4.673-3.826,5.647-4.7s5.831.24,7.539.748a3.107,3.107,0,0,0,1.214,0,13.242,13.242,0,0,0,1.129-4.489Z" transform="translate(-419.552 -222.663)" fill="#32cd32" opacity="0.5"/>
      </g>
      <path id="Path_41114" data-name="Path 41114" d="M452.351,251.993c12.057-15.925-17.012-32.471-24.649-16.645a29.814,29.814,0,0,0-2.513,6.155c-1.158.706-4.235,2.6-4.8,3.12s1.412,1.864,2.5,2.527c-2.075,5.1-1.765,10.461-1.172,11.675,1.031,2.089,6.113,2.118,9.459,1.5s4.673-3.826,5.647-4.7,5.831.24,7.539.748S450.008,255.142,452.351,251.993Z" transform="translate(-366.586 -217.6)" fill="none" stroke="#263238" stroke-miterlimit="10" stroke-width="1"/>
      <path id="Path_41115" data-name="Path 41115" d="M426.739,239.28c-.311.678-.833,1.1-1.172.946s-.367-.833,0-1.511.833-1.1,1.172-.946S427.05,238.6,426.739,239.28Z" transform="translate(-364.522 -213.978)" fill="#263238"/>
      <path id="Path_41116" data-name="Path 41116" d="M426.12,235.824s1.412-1.172,1.694,1.525" transform="translate(-364.185 -214.87)" fill="none" stroke="#263238" stroke-linecap="round" stroke-linejoin="round" stroke-width="0.5"/>
      <path id="Path_41117" data-name="Path 41117" d="M421.93,243.78s0,1.412,2.541,1.412" transform="translate(-365.91 -211.49)" fill="none" stroke="#263238" stroke-linecap="round" stroke-linejoin="round" stroke-width="0.5"/>
      <path id="Path_41118" data-name="Path 41118" d="M421.964,309.22l-1.115,13.807s-7.722,54.974-7.355,61.285,1.2,71.506,1.2,71.506L424,457.3l10.447-72.311,14.668-73.482Z" transform="translate(-369.389 -184.544)" fill="#32cd32" stroke="#263238" stroke-miterlimit="10" stroke-width="1"/>
      <path id="Path_41119" data-name="Path 41119" d="M421.964,309.22l-1.115,13.807s-7.722,54.974-7.355,61.285,1.2,71.506,1.2,71.506L424,457.3l10.447-72.311,14.668-73.482Z" transform="translate(-369.389 -184.544)" fill="#263238" opacity="0.2"/>
      <path id="Path_41120" data-name="Path 41120" d="M431.614,344.79s-3.572,21.021-6.268,31.327-2.682,20.583-2.682,31.765-4.023,31.793-4.023,31.793" transform="translate(-367.265 -169.898)" fill="none" stroke="#263238" stroke-miterlimit="10" stroke-width="0.75"/>
      <path id="Path_41121" data-name="Path 41121" d="M437.278,307.832c6.127-3.219,12.706-5.351,14.584-1.073,3.727,8.555-.734,21.558-.734,21.558l3.4,59.972,6.226,72.353-9.3-1.5s-14.287-61.059-16.518-64.786-5.746-56-5.746-56l-7.059-6.424" transform="translate(-365.828 -186.545)" fill="#32cd32" stroke="#263238" stroke-miterlimit="10" stroke-width="1"/>
      <g id="Group_36809" data-name="Group 36809" transform="translate(56.302 117.817)" opacity="0.2">
        <path id="Path_41122" data-name="Path 41122" d="M437.278,307.832c6.127-3.219,12.706-5.351,14.584-1.073,3.727,8.555-.734,21.558-.734,21.558l3.4,59.972,6.226,72.353-9.3-1.5s-14.287-61.059-16.518-64.786-5.746-56-5.746-56l-7.059-6.424" transform="translate(-422.13 -304.362)" fill="#263238"/>
      </g>
      <path id="Path_41123" data-name="Path 41123" d="M438,339c.212,13.906,1.623,20.6,2.725,24.268,1.341,4.475.889,12.974.889,16.941s-1.793-.889,2.245,17.464,6.706,43.849,6.706,43.849" transform="translate(-359.293 -172.282)" fill="none" stroke="#263238" stroke-miterlimit="10" stroke-width="0.75"/>
      <path id="Path_41124" data-name="Path 41124" d="M438,317.532s.438-.9,0,20.132v3.275" transform="translate(-359.293 -181.124)" fill="none" stroke="#263238" stroke-miterlimit="10" stroke-width="0.75"/>
      <path id="Path_41125" data-name="Path 41125" d="M423.881,314.7l-.3,6.3-1.454,4.376,2.174,2.541" transform="translate(-365.828 -182.288)" fill="none" stroke="#263238" stroke-linecap="round" stroke-linejoin="round" stroke-width="0.75"/>
      <path id="Path_41126" data-name="Path 41126" d="M421.35,317.36s3.642,3.642,13.1,2.541" transform="translate(-366.149 -181.192)" fill="none" stroke="#263238" stroke-linecap="round" stroke-linejoin="round" stroke-width="0.75"/>
      <path id="Path_41127" data-name="Path 41127" d="M444.6,319.559c7.059-1.412,7.511-3.36,9.953-5a20.372,20.372,0,0,0-1.412-7.807c-1.849-4.235-8.471-2.146-14.583,1.073l-2.965,4.687-15.911-1.3-.508,6.24a51.981,51.981,0,0,0,25.426,2.1Z" transform="translate(-367.047 -186.539)" fill="#263238"/>
      <path id="Path_41128" data-name="Path 41128" d="M420.665,312.28l-.155,2.485,4.038.932.311-3.261Z" transform="translate(-366.495 -183.284)" fill="#fff" stroke="#263238" stroke-miterlimit="10" stroke-width="0.75"/>
      <path id="Path_41129" data-name="Path 41129" d="M440.778,316.891l-.678-6.184,2.047-.678,1.031,5.492" transform="translate(-358.429 -184.211)" fill="#32cd32" stroke="#263238" stroke-miterlimit="10" stroke-width="1"/>
      <path id="Path_41130" data-name="Path 41130" d="M429.8,318.454l-1.369-7.214h3.431l1.369,6.184" transform="translate(-363.234 -183.712)" fill="#32cd32" stroke="#263238" stroke-miterlimit="10" stroke-width="1"/>
      <g id="Group_36810" data-name="Group 36810" transform="translate(65.196 125.819)" opacity="0.2">
        <path id="Path_41131" data-name="Path 41131" d="M440.778,316.891l-.678-6.184,2.047-.678,1.031,5.492" transform="translate(-423.625 -310.03)" fill="#263238"/>
        <path id="Path_41132" data-name="Path 41132" d="M429.8,318.454l-1.369-7.214h3.431l1.369,6.184" transform="translate(-428.43 -309.532)" fill="#263238"/>
      </g>
      <path id="Path_41133" data-name="Path 41133" d="M421.626,270.46s-1.172,7.835-4.687,21.176-7.059,29.336-7.059,29.336l1.962,8.216,5.859-8.612Z" transform="translate(-370.872 -200.504)" fill="#263238" stroke="#263238" stroke-miterlimit="10" stroke-width="1"/>
      <path id="Path_41134" data-name="Path 41134" d="M427.984,263.916s-8.216,1.948-8.993,5.859a32.466,32.466,0,0,0-.791,5.478l12.522-10.165,15.656-6.268Z" transform="translate(-367.446 -205.297)" fill="#263238" stroke="#263238" stroke-miterlimit="10" stroke-width="1"/>
      <path id="Path_41135" data-name="Path 41135" d="M430.45,261.156s-6.678,7.553-9.332,10.659-2.668,36.438-2.668,41.336-2.654,18.2,1.779,20.866,31.553,1.779,34.221-2.668,4.433-57.755,4-62.64a13.6,13.6,0,0,0-7.567-10.221C447.786,257.062,430.45,261.156,430.45,261.156Z" transform="translate(-367.668 -205.558)" fill="#fff"/>
      <g id="Group_36811" data-name="Group 36811" transform="translate(49.994 52.628)" clip-path="url(#clip-path-11)">
        <path id="Path_41136" data-name="Path 41136" d="M449.52,258.474a3.545,3.545,0,0,0-1.158-.254l-1.92,1a18.212,18.212,0,0,1,6.3,10.419,55.384,55.384,0,0,1-.24,17.915c-.96,6.536-16.461,0-13.553,2.428s13.793,6.536,14.287,8.711-5.393,5.8-7.511,6.056,1.412,5.082,3.628,9.191,1.412,9.882-3.628,13.807-16.744,5.859-21.8,6.056c-1.638,0-2.654.423-2.965.9,7.765,1.736,29.746.607,32.132-3.374,2.668-4.447,4.433-57.755,4-62.64a13.6,13.6,0,0,0-7.567-10.221Z" transform="translate(-416.304 -258.173)" fill="#32cd32" opacity="0.5"/>
      </g>
      <path id="Path_41138" data-name="Path 41138" d="M430.45,261.156s-6.678,7.553-9.332,10.659-2.668,36.438-2.668,41.336-2.654,18.2,1.779,20.866,31.553,1.779,34.221-2.668,4.433-57.755,4-62.64a13.6,13.6,0,0,0-7.567-10.221C447.786,257.062,430.45,261.156,430.45,261.156Z" transform="translate(-367.668 -205.558)" fill="none" stroke="#263238" stroke-miterlimit="10" stroke-width="1"/>
      <path id="Path_41139" data-name="Path 41139" d="M440.306,286.711c-7.158-2.231-13.426-8.471-13.426-8.471a30.283,30.283,0,0,0,12.085,18.353" transform="translate(-363.872 -197.301)" fill="#fff" stroke="#263238" stroke-linecap="round" stroke-linejoin="round" stroke-width="0.75"/>
      <path id="Path_41140" data-name="Path 41140" d="M446.859,254.94l-21.332,4.885-1.327,6.226,23.986-6.226Z" transform="translate(-364.976 -206.895)" fill="#fff" stroke="#263238" stroke-miterlimit="10" stroke-width="1"/>
      <path id="Path_41141" data-name="Path 41141" d="M429.172,423.876,427.93,414.5l-9.3-1.482-7.751,5.52-6.946,3.812v1.525Z" transform="translate(-373.322 -141.803)" fill="#263238" stroke="#263238" stroke-miterlimit="10" stroke-width="1"/>
      <path id="Path_41142" data-name="Path 41142" d="M457.648,424.207,456.49,415.5l-9.3-1.5-7.751,5.52-6.946,3.826v.861Z" transform="translate(-361.562 -141.399)" fill="#263238" stroke="#263238" stroke-miterlimit="10" stroke-width="1"/>
      <path id="Path_41143" data-name="Path 41143" d="M395.5,226.97l-5.732-3.318s-2.231-.268-1.271,2.216l5.732,4.419" transform="translate(-379.774 -219.781)" fill="#fff" stroke="#263238" stroke-linecap="round" stroke-linejoin="round" stroke-width="1"/>
      <path id="Path_41144" data-name="Path 41144" d="M397.13,235.173a5.734,5.734,0,0,0-1.172-1.835l-1.073-1.158h0l-5.831-7.228s-1.807-1.214-1.412,1.412l3.614,7.059-6.424-6.028s-1.214-1-1.214.409,5.831,7.638,5.831,7.638l-6.438-3.021s-1.412,1-.4,2,6.424,3.021,6.424,3.021l-4.814-.2s-1.412,1.2-.409,1.609,6.635,1.6,6.635,1.6a8.02,8.02,0,0,0,2.414,1.412l1.412,2.612,5.407-2.725Z" transform="translate(-382.249 -219.358)" fill="#fff" stroke="#263238" stroke-linecap="round" stroke-linejoin="round" stroke-width="1"/>
      <path id="Path_41145" data-name="Path 41145" d="M451.341,292.876l-32.216,7.553a7.242,7.242,0,0,1-8-4.5L390.79,239.455l5.407-2.725,22.461,41.6a5.026,5.026,0,0,0,5.421,2.555l24.635-6.96" transform="translate(-378.733 -214.393)" fill="#fff"/>
      <path id="Path_41146" data-name="Path 41146" d="M451.341,292.876l-32.216,7.553a7.242,7.242,0,0,1-8-4.5L390.79,239.455l5.407-2.725,22.461,41.6a5.026,5.026,0,0,0,5.421,2.555l24.635-6.96" transform="translate(-378.733 -214.393)" fill="none" stroke="#263238" stroke-miterlimit="10" stroke-width="1"/>
      <line id="Line_324" data-name="Line 324" x1="6.268" y2="3.134" transform="translate(14.231 27.659)" fill="none" stroke="#263238" stroke-miterlimit="10" stroke-width="0.75"/>
      <path id="Path_41147" data-name="Path 41147" d="M433.965,238.614s-3.431,3.431-1.722,6a17.1,17.1,0,0,1,2.287,4.842s-1.412,3.431-.282,3.431.565-2.569,2.569-1.991,4,4,2.287,5.139a19.512,19.512,0,0,1-4.038,1.694.96.96,0,0,0-.2,1.751,13.6,13.6,0,0,0,6.226,2.259,21.827,21.827,0,0,0,5.421-.565s5.647-7.708,9.713-9.713,2.287-11.139,2.287-12.282-4-3.713-4-3.713,1.144-2.569-4-8.273-14.852-6.861-15.134-4.856a2.823,2.823,0,0,0,1.144,2.824s-8.569-3.713-12.565.282S433.965,238.614,433.965,238.614Z" transform="translate(-365.366 -220.696)" fill="#263238" stroke="#263238" stroke-miterlimit="10" stroke-width="1"/>
      <path id="Path_41148" data-name="Path 41148" d="M430.84,233.6s6.946,8.471,17.238,9.289" transform="translate(-362.241 -215.682)" fill="none" stroke="#fff" stroke-linecap="round" stroke-linejoin="round" stroke-width="0.5"/>
      <path id="Path_41149" data-name="Path 41149" d="M429.1,235.43s3.233,9.4,16.6,12.085" transform="translate(-362.958 -214.928)" fill="none" stroke="#fff" stroke-linecap="round" stroke-linejoin="round" stroke-width="0.5"/>
    </g>
  </g>
</svg>
