<svg xmlns="http://www.w3.org/2000/svg" width="43.187" height="50" viewBox="0 0 43.187 50">
  <g id="play" transform="translate(-994 -1853)">
    <g id="play_1_" data-name="play (1)" transform="translate(994 1853)">
      <g id="Group_36807" data-name="Group 36807" transform="translate(0 0)">
        <path id="Path_13636" data-name="Path 13636" d="M74.822,19.23,45.291,1.027A6.828,6.828,0,0,0,34.883,6.841V43.083A6.9,6.9,0,0,0,41.7,50h.031a6.852,6.852,0,0,0,3.54-1.065,1.95,1.95,0,1,0-2.031-3.329,2.992,2.992,0,0,1-1.519.495,3.03,3.03,0,0,1-2.935-3.017V6.841a2.929,2.929,0,0,1,4.463-2.495l29.531,18.2a2.929,2.929,0,0,1-.013,5L51.413,40.619a1.95,1.95,0,1,0,2.036,3.326L74.8,30.874a6.828,6.828,0,0,0,.025-11.643Z" transform="translate(-34.883 0)" fill="#fff"/>
      </g>
    </g>
    <path id="Path_13636-2" data-name="Path 13636" d="M55.669,10.008,40.3.534A3.554,3.554,0,0,0,34.883,3.56V22.421a3.591,3.591,0,0,0,3.546,3.6h.016a3.566,3.566,0,0,0,1.842-.554,1.015,1.015,0,1,0-1.057-1.732,1.557,1.557,0,0,1-.79.257,1.577,1.577,0,0,1-1.528-1.57V3.56a1.524,1.524,0,0,1,2.323-1.3L54.6,11.736a1.524,1.524,0,0,1-.007,2.6l-16.112,9.8a1.015,1.015,0,0,0,1.06,1.731l16.111-9.8a3.554,3.554,0,0,0,.013-6.06Z" transform="translate(968.185 1865)" fill="#fff"/>
  </g>
</svg>
