<svg xmlns="http://www.w3.org/2000/svg" width="50.682" height="56" viewBox="0 0 50.682 56">
  <g id="two" transform="translate(-24.263)">
    <path id="Path_13674" data-name="Path 13674" d="M136.874,14.143a1.753,1.753,0,0,1-1.753-1.753V1.753a1.753,1.753,0,0,1,3.507,0V12.389A1.753,1.753,0,0,1,136.874,14.143Z" transform="translate(-98.709)" fill="#073b4c"/>
    <path id="Path_13675" data-name="Path 13675" d="M345.625,14.143a1.753,1.753,0,0,1-1.753-1.753V1.753a1.753,1.753,0,1,1,3.507,0V12.389A1.753,1.753,0,0,1,345.625,14.143Z" transform="translate(-284.583)" fill="#073b4c"/>
    <path id="Path_13676" data-name="Path 13676" d="M24.263,221.975v24.194a7.488,7.488,0,0,0,7.48,7.48H67.465a7.488,7.488,0,0,0,7.48-7.48V221.975Z" transform="translate(0 -197.649)" fill="#073b4c"/>
    <path id="Path_13677" data-name="Path 13677" d="M74.945,64.027V56a7.488,7.488,0,0,0-7.48-7.48H66.3V55.6a5.26,5.26,0,1,1-10.521,0V48.525H43.426V55.6a5.26,5.26,0,1,1-10.521,0V48.525H31.743A7.488,7.488,0,0,0,24.263,56v8.022H74.945Z" transform="translate(0 -43.207)" fill="#073b4c"/>
  </g>
</svg>
