<svg xmlns="http://www.w3.org/2000/svg" width="24" height="24"><g data-name="Group 39785"><path data-name="Path 55661" d="M19.078 0H4.922A4.927 4.927 0 0 0 0 4.922v14.156A4.927 4.927 0 0 0 4.922 24h14.156A4.927 4.927 0 0 0 24 19.078V4.922A4.927 4.927 0 0 0 19.078 0ZM7.39 18.493a1.172 1.172 0 0 1-2.03-1.172l.23-.4H8.3Zm-2.21-2.509a1.172 1.172 0 0 1 0-2.344h2.305l3.162-5.477L9.79 6.68a1.173 1.173 0 0 1 .429-1.6 1.173 1.173 0 0 1 1.6.429L12 5.82l.18-.312a1.172 1.172 0 1 1 2.03 1.172l-4.019 6.961h2.535l1.353 2.344Zm13.641 0h-.952l.772 1.337a1.172 1.172 0 1 1-2.03 1.172l-4.069-7.048L13.894 9.1l2.621 4.539h2.305a1.172 1.172 0 0 1 0 2.344Z" fill="#fff"/></g></svg>