<svg xmlns="http://www.w3.org/2000/svg" width="528.547" height="500.777" viewBox="0 0 528.547 500.777">
  <g id="banner" transform="translate(-69.084 -75.568)">
    <g id="freepik--background-simple--inject-334" transform="translate(69.084 81.901)">
      <path id="Path_53427" data-name="Path 53427" d="M571.337,281.35A576.085,576.085,0,0,0,556.6,221.141C538.635,163.858,502.934,105.888,441.584,86.4c-45.27-14.383-94.169-4.389-132.445,24.874-59.99,45.929-103.694,108.6-169.375,148.394-54.839,33.214-83.546,86.9-65.1,162.762s80.006,120.1,147.369,114.653c56.024-4.521,114.58.307,163.011,27.507,43.266,24.288,119.745,3.2,183-63.209,36.842-38.686,33.287-87.863,21.274-133.864C581.915,339.188,577.087,310.145,571.337,281.35Z" transform="translate(-69.084 -79.896)" fill="#ded4b7"/>
      <path id="Path_53428" data-name="Path 53428" d="M571.337,281.35A576.085,576.085,0,0,0,556.6,221.141C538.635,163.858,502.934,105.888,441.584,86.4c-45.27-14.383-94.169-4.389-132.445,24.874-59.99,45.929-103.694,108.6-169.375,148.394-54.839,33.214-83.546,86.9-65.1,162.762s80.006,120.1,147.369,114.653c56.024-4.521,114.58.307,163.011,27.507,43.266,24.288,119.745,3.2,183-63.209,36.842-38.686,33.287-87.863,21.274-133.864C581.915,339.188,577.087,310.145,571.337,281.35Z" transform="translate(-69.084 -79.896)" fill="#fff" opacity="0.7"/>
    </g>
    <g id="freepik--Plants--inject-334" transform="translate(76.715 75.568)">
      <path id="Path_53429" data-name="Path 53429" d="M143.681,102.3s6.848-5.4,8.589-8.867c1.463-2.926,2.575-7.126,1.039-10.242a5.853,5.853,0,0,0-8.325-2.678c-4.214,2.619-4.667,11.559-3.585,15.861C141.486,96.714,143.608,102.362,143.681,102.3Z" transform="translate(-43.454 -73.651)" fill="#ded4b7"/>
      <path id="Path_53430" data-name="Path 53430" d="M101.536,131.784c.278.263,5.165,3.79,5.194,3.716s2.721-8.281,2.268-12.144c-.38-3.292-1.785-7.316-4.8-9.145a5.853,5.853,0,0,0-8.413,2.37C93.708,121.088,98.273,128.784,101.536,131.784Z" transform="translate(-64.59 -58.096)" fill="#ded4b7"/>
      <path id="Path_53431" data-name="Path 53431" d="M205.434,100.75s-25.049,25.869-24.874,57.634S205.975,215.8,205.975,215.8s25.064-25.854,24.874-57.634S205.434,100.75,205.434,100.75Z" transform="translate(-25.084 -63.904)" fill="#ded4b7"/>
      <path id="Path_53432" data-name="Path 53432" d="M218.934,189.068a9.877,9.877,0,0,0,.907-1.127c1.814-2.765,3.38-6.789,2.209-10.1a5.853,5.853,0,0,0-7.96-3.614c-3.409,1.609-5.077,7.067-5.428,11.53-1.361-.307-2.59-.541-3.643-.732-.439-1.01-.893-2.019-1.361-3.043s-.834-2.122-1.273-3.2c-.6-1.58-1.127-3.248-1.668-4.916,1.975-.878,7.74-3.585,9.891-5.955s4.389-6.2,3.716-9.642a5.853,5.853,0,0,0-7.316-4.77c-4.77,1.463-7.565,9.92-7.652,14.354a16.263,16.263,0,0,0,.161,2.195c-.468-1.639-.966-3.277-1.39-4.96-1.229-4.755-2.326-9.642-3.438-14.529-.234-1.01-.483-2.034-.717-3.043,1.668-.746,7.945-3.614,10.242-6.1s4.389-6.2,3.716-9.642a5.853,5.853,0,0,0-7.316-4.77c-4.755,1.463-7.55,9.92-7.652,14.354,0,.146.088,1.273.2,2.531-.644-2.648-1.317-5.282-2.078-7.872a102.174,102.174,0,0,0-4.682-13.066c.6-.249,8.033-3.468,10.535-6.233,2.209-2.458,4.389-6.2,3.7-9.642a5.853,5.853,0,0,0-7.316-4.77c-4.755,1.463-7.55,9.92-7.652,14.354,0,.307.366,4.389.541,5.853a.614.614,0,0,1,0-.146,76.874,76.874,0,0,0-6.818-11.778,106.505,106.505,0,0,0-7.535-9.569c-2.473-2.926-4.9-5.3-7.067-7.447-1.185-1.156-2.3-2.195-3.336-3.146h.1c.088,0-2.312-5.531-2.5-5.853-2.224-3.833-8.779-9.935-13.622-8.881a5.853,5.853,0,0,0-4.272,7.623c1.083,3.336,4.77,5.575,7.886,6.657s10.242.571,11.954.41c1.053,1.024,2.18,2.122,3.395,3.351,2.122,2.195,4.492,4.7,6.891,7.579.644.775,1.3,1.624,1.946,2.443-1.375-1.156-3.307-2.692-3.512-2.824-3.731-2.37-12.364-4.77-16.168-1.609a5.853,5.853,0,0,0-.1,8.779c2.487,2.458,6.8,2.751,10.081,2.268s9.511-4.389,10.842-5.165a65.878,65.878,0,0,1,4.185,5.853,75.968,75.968,0,0,1,6.482,11.705c.1.234.176.5.278.732-.585-.688-4.068-4.2-4.389-4.389-3.453-2.78-11.705-6.1-15.9-3.38a5.853,5.853,0,0,0-1.053,8.677c2.209,2.721,6.453,3.482,9.759,3.365,3.819-.132,11.325-3.921,11.6-4.068a103.885,103.885,0,0,1,4.243,12.729c.849,3.2,1.595,6.482,2.3,9.774-.775-.878-4.024-4.141-4.287-4.389-3.453-2.765-11.705-6.1-15.9-3.365a5.853,5.853,0,0,0-1.053,8.677c2.209,2.707,6.453,3.482,9.759,3.365,3.731-.146,10.944-3.746,11.544-4.053l.966,4.507c1.01,4.9,2,9.818,3.131,14.632.4,1.668.834,3.307,1.273,4.945-1.214-1.273-3.468-3.541-3.687-3.716-3.453-2.765-11.705-6.1-15.9-3.365a5.853,5.853,0,0,0-1.053,8.677c2.209,2.707,6.453,3.482,9.759,3.351s9.452-3.014,11.179-3.848c.746,2.721,1.551,5.4,2.473,8,.424,1.112.775,2.283,1.244,3.321l.7,1.668-.863-.132s-.073,1.551.073,4.068c-3.643-2.59-8.9-4.828-12.32-3.263a5.853,5.853,0,0,0-2.356,8.413,6.029,6.029,0,0,0,.761,1.053,22.8,22.8,0,0,0,4.711,10.505c.19.2,2.663,2.5,3.951,3.643-1.244-.688-2.487-1.346-3.775-2.078-1.858-1.024-3.79-2.18-5.677-3.292l-2.926-1.844c-.995-.6-1.873-1.3-2.824-1.961-1.375-.98-2.751-2.078-4.111-3.16,1.156-1.844,4.477-7.316,4.96-10.447s.219-7.579-2.224-10.081a5.853,5.853,0,0,0-8.779,0c-3.19,3.8-.834,12.437,1.536,16.183a16.258,16.258,0,0,0,1.346,1.741c-1.3-1.1-2.6-2.195-3.892-3.365-3.643-3.292-7.316-6.76-10.886-10.242l-2.283-2.151c.995-1.536,4.638-7.389,5.15-10.71s.219-7.579-2.224-10.1a5.853,5.853,0,0,0-8.779,0c-3.19,3.8-.834,12.437,1.463,16.2.088.132.79,1.01,1.58,1.99-2-1.844-4.024-3.673-6.087-5.414a102.967,102.967,0,0,0-11.105-8.311c.366-.541,4.785-7.316,5.341-11,.5-3.277.219-7.579-2.224-10.1a5.853,5.853,0,0,0-8.779,0c-3.19,3.8-.834,12.437,1.463,16.2.161.263,2.707,3.438,3.643,4.536l-.132-.088a75.63,75.63,0,0,0-12.188-6.072,106.4,106.4,0,0,0-11.559-3.819C108.377,150.5,105,149.8,102,149.2c-1.624-.307-3.117-.571-4.507-.79h0s-4.989-3.351-5.326-3.512c-3.965-1.975-12.8-3.453-16.256.1a5.853,5.853,0,0,0,.819,8.779c2.736,2.18,7.052,2.019,10.242,1.185s8.779-5.15,10.242-6.233c1.463.263,2.926.556,4.682.907,2.926.673,6.335,1.463,9.92,2.531.966.278,1.975.629,2.926.951-1.785-.19-4.243-.41-4.477-.41-4.389.073-12.949,2.839-14.383,7.579a5.853,5.853,0,0,0,4.741,7.316c3.438.673,7.184-1.463,9.657-3.658s5.56-8.867,6.189-10.242c2.195.746,4.389,1.551,6.7,2.531a75.218,75.218,0,0,1,11.91,6.262c.2.132.424.307.629.454-.863-.249-5.706-1.258-6.057-1.288-4.389-.41-13.168,1.463-15.129,5.955a5.853,5.853,0,0,0,3.907,7.828c3.351,1.039,7.316-.658,10.008-2.59,3.1-2.224,7.316-9.525,7.418-9.8a106.125,106.125,0,0,1,10.564,8.281c2.473,2.195,4.9,4.536,7.316,6.891-1.141-.293-5.648-1.244-5.984-1.273-4.389-.41-13.168,1.463-15.129,5.97a5.853,5.853,0,0,0,3.907,7.813c3.351,1.039,7.316-.658,10.008-2.59,3.029-2.165,7.052-9.145,7.389-9.73,1.1,1.068,2.195,2.136,3.277,3.219,3.555,3.541,7.1,7.1,10.71,10.491,1.244,1.185,2.517,2.3,3.79,3.424-1.712-.4-4.843-1.039-5.121-1.068-4.389-.41-13.168,1.463-15.129,5.97a5.853,5.853,0,0,0,3.907,7.813c3.336,1.053,7.316-.658,9.993-2.575s6.218-7.74,7.184-9.379c2.136,1.844,4.287,3.643,6.5,5.311.966.688,1.9,1.463,2.926,2.078l2.853,1.9c1.99,1.244,3.833,2.385,5.721,3.482.936.571,1.844,1.083,2.78,1.609-1.683-.658-4.389-1.639-4.609-1.712-4.3-1.068-13.242-.615-15.861,3.6a5.853,5.853,0,0,0,2.678,8.325c3.146,1.536,7.316.454,10.242-1.039,3.263-1.653,8.164-7.711,8.779-8.457,2.283,1.3,4.507,2.531,6.613,3.658,5.619,3.014,10.535,5.414,14.339,7.2,12.378,10.71,29.79,11.881,29.79,11.881s.922-20.865-11.354-34.589a43.324,43.324,0,0,0-15-10.491ZM196.84,209.421c.38-.863,3.351-7.491,3.555-11.222l2.048-.424a48.285,48.285,0,0,0,7.682,18.363q-3.38-1.595-7.316-3.57c-1.887-.98-3.907-2.034-5.97-3.146Z" transform="translate(-74.299 -75.568)" fill="#ded4b7"/>
      <path id="Path_53433" data-name="Path 53433" d="M250.175,150.42s-20.879.629-33.653,13.915-12.612,34.15-12.612,34.15,20.865-.644,33.653-13.915S250.175,150.42,250.175,150.42Z" transform="translate(-14.269 -40.899)" fill="#ded4b7"/>
      <g id="Group_38951" data-name="Group 38951" opacity="0.5">
        <path id="Path_53434" data-name="Path 53434" d="M143.681,102.3s6.848-5.4,8.589-8.867c1.463-2.926,2.575-7.126,1.039-10.242a5.853,5.853,0,0,0-8.325-2.678c-4.214,2.619-4.667,11.559-3.585,15.861C141.486,96.714,143.608,102.362,143.681,102.3Z" transform="translate(-43.454 -73.651)" fill="#fff"/>
        <path id="Path_53435" data-name="Path 53435" d="M101.536,131.784c.278.263,5.165,3.79,5.194,3.716s2.721-8.281,2.268-12.144c-.38-3.292-1.785-7.316-4.8-9.145a5.853,5.853,0,0,0-8.413,2.37C93.708,121.088,98.273,128.784,101.536,131.784Z" transform="translate(-64.59 -58.096)" fill="#fff"/>
        <path id="Path_53436" data-name="Path 53436" d="M205.434,100.75s-25.049,25.869-24.874,57.634S205.975,215.8,205.975,215.8s25.064-25.854,24.874-57.634S205.434,100.75,205.434,100.75Z" transform="translate(-25.084 -63.904)" fill="#fff"/>
        <path id="Path_53437" data-name="Path 53437" d="M218.934,189.068a9.877,9.877,0,0,0,.907-1.127c1.814-2.765,3.38-6.789,2.209-10.1a5.853,5.853,0,0,0-7.96-3.614c-3.409,1.609-5.077,7.067-5.428,11.53-1.361-.307-2.59-.541-3.643-.732-.439-1.01-.893-2.019-1.361-3.043s-.834-2.122-1.273-3.2c-.6-1.58-1.127-3.248-1.668-4.916,1.975-.878,7.74-3.585,9.891-5.955s4.389-6.2,3.716-9.642a5.853,5.853,0,0,0-7.316-4.77c-4.77,1.463-7.565,9.92-7.652,14.354a16.263,16.263,0,0,0,.161,2.195c-.468-1.639-.966-3.277-1.39-4.96-1.229-4.755-2.326-9.642-3.438-14.529-.234-1.01-.483-2.034-.717-3.043,1.668-.746,7.945-3.614,10.242-6.1s4.389-6.2,3.716-9.642a5.853,5.853,0,0,0-7.316-4.77c-4.755,1.463-7.55,9.92-7.652,14.354,0,.146.088,1.273.2,2.531-.644-2.648-1.317-5.282-2.078-7.872a102.174,102.174,0,0,0-4.682-13.066c.6-.249,8.033-3.468,10.535-6.233,2.209-2.458,4.389-6.2,3.7-9.642a5.853,5.853,0,0,0-7.316-4.77c-4.755,1.463-7.55,9.92-7.652,14.354,0,.307.366,4.389.541,5.853a.614.614,0,0,1,0-.146,76.874,76.874,0,0,0-6.818-11.778,106.505,106.505,0,0,0-7.535-9.569c-2.473-2.926-4.9-5.3-7.067-7.447-1.185-1.156-2.3-2.195-3.336-3.146h.1c.088,0-2.312-5.531-2.5-5.853-2.224-3.833-8.779-9.935-13.622-8.881a5.853,5.853,0,0,0-4.272,7.623c1.083,3.336,4.77,5.575,7.886,6.657s10.242.571,11.954.41c1.053,1.024,2.18,2.122,3.395,3.351,2.122,2.195,4.492,4.7,6.891,7.579.644.775,1.3,1.624,1.946,2.443-1.375-1.156-3.307-2.692-3.512-2.824-3.731-2.37-12.364-4.77-16.168-1.609a5.853,5.853,0,0,0-.1,8.779c2.487,2.458,6.8,2.751,10.081,2.268s9.511-4.389,10.842-5.165a65.878,65.878,0,0,1,4.185,5.853,75.968,75.968,0,0,1,6.482,11.705c.1.234.176.5.278.732-.585-.688-4.068-4.2-4.389-4.389-3.453-2.78-11.705-6.1-15.9-3.38a5.853,5.853,0,0,0-1.053,8.677c2.209,2.721,6.453,3.482,9.759,3.365,3.819-.132,11.325-3.921,11.6-4.068a103.885,103.885,0,0,1,4.243,12.729c.849,3.2,1.595,6.482,2.3,9.774-.775-.878-4.024-4.141-4.287-4.389-3.453-2.765-11.705-6.1-15.9-3.365a5.853,5.853,0,0,0-1.053,8.677c2.209,2.707,6.453,3.482,9.759,3.365,3.731-.146,10.944-3.746,11.544-4.053l.966,4.507c1.01,4.9,2,9.818,3.131,14.632.4,1.668.834,3.307,1.273,4.945-1.214-1.273-3.468-3.541-3.687-3.716-3.453-2.765-11.705-6.1-15.9-3.365a5.853,5.853,0,0,0-1.053,8.677c2.209,2.707,6.453,3.482,9.759,3.351s9.452-3.014,11.179-3.848c.746,2.721,1.551,5.4,2.473,8,.424,1.112.775,2.283,1.244,3.321l.7,1.668-.863-.132s-.073,1.551.073,4.068c-3.643-2.59-8.9-4.828-12.32-3.263a5.853,5.853,0,0,0-2.356,8.413,6.029,6.029,0,0,0,.761,1.053,22.8,22.8,0,0,0,4.711,10.505c.19.2,2.663,2.5,3.951,3.643-1.244-.688-2.487-1.346-3.775-2.078-1.858-1.024-3.79-2.18-5.677-3.292l-2.926-1.844c-.995-.6-1.873-1.3-2.824-1.961-1.375-.98-2.751-2.078-4.111-3.16,1.156-1.844,4.477-7.316,4.96-10.447s.219-7.579-2.224-10.081a5.853,5.853,0,0,0-8.779,0c-3.19,3.8-.834,12.437,1.536,16.183a16.258,16.258,0,0,0,1.346,1.741c-1.3-1.1-2.6-2.195-3.892-3.365-3.643-3.292-7.316-6.76-10.886-10.242l-2.283-2.151c.995-1.536,4.638-7.389,5.15-10.71s.219-7.579-2.224-10.1a5.853,5.853,0,0,0-8.779,0c-3.19,3.8-.834,12.437,1.463,16.2.088.132.79,1.01,1.58,1.99-2-1.844-4.024-3.673-6.087-5.414a102.967,102.967,0,0,0-11.105-8.311c.366-.541,4.785-7.316,5.341-11,.5-3.277.219-7.579-2.224-10.1a5.853,5.853,0,0,0-8.779,0c-3.19,3.8-.834,12.437,1.463,16.2.161.263,2.707,3.438,3.643,4.536l-.132-.088a75.63,75.63,0,0,0-12.188-6.072,106.4,106.4,0,0,0-11.559-3.819C108.377,150.5,105,149.8,102,149.2c-1.624-.307-3.117-.571-4.507-.79h0s-4.989-3.351-5.326-3.512c-3.965-1.975-12.8-3.453-16.256.1a5.853,5.853,0,0,0,.819,8.779c2.736,2.18,7.052,2.019,10.242,1.185s8.779-5.15,10.242-6.233c1.463.263,2.926.556,4.682.907,2.926.673,6.335,1.463,9.92,2.531.966.278,1.975.629,2.926.951-1.785-.19-4.243-.41-4.477-.41-4.389.073-12.949,2.839-14.383,7.579a5.853,5.853,0,0,0,4.741,7.316c3.438.673,7.184-1.463,9.657-3.658s5.56-8.867,6.189-10.242c2.195.746,4.389,1.551,6.7,2.531a75.218,75.218,0,0,1,11.91,6.262c.2.132.424.307.629.454-.863-.249-5.706-1.258-6.057-1.288-4.389-.41-13.168,1.463-15.129,5.955a5.853,5.853,0,0,0,3.907,7.828c3.351,1.039,7.316-.658,10.008-2.59,3.1-2.224,7.316-9.525,7.418-9.8a106.125,106.125,0,0,1,10.564,8.281c2.473,2.195,4.9,4.536,7.316,6.891-1.141-.293-5.648-1.244-5.984-1.273-4.389-.41-13.168,1.463-15.129,5.97a5.853,5.853,0,0,0,3.907,7.813c3.351,1.039,7.316-.658,10.008-2.59,3.029-2.165,7.052-9.145,7.389-9.73,1.1,1.068,2.195,2.136,3.277,3.219,3.555,3.541,7.1,7.1,10.71,10.491,1.244,1.185,2.517,2.3,3.79,3.424-1.712-.4-4.843-1.039-5.121-1.068-4.389-.41-13.168,1.463-15.129,5.97a5.853,5.853,0,0,0,3.907,7.813c3.336,1.053,7.316-.658,9.993-2.575s6.218-7.74,7.184-9.379c2.136,1.844,4.287,3.643,6.5,5.311.966.688,1.9,1.463,2.926,2.078l2.853,1.9c1.99,1.244,3.833,2.385,5.721,3.482.936.571,1.844,1.083,2.78,1.609-1.683-.658-4.389-1.639-4.609-1.712-4.3-1.068-13.242-.615-15.861,3.6a5.853,5.853,0,0,0,2.678,8.325c3.146,1.536,7.316.454,10.242-1.039,3.263-1.653,8.164-7.711,8.779-8.457,2.283,1.3,4.507,2.531,6.613,3.658,5.619,3.014,10.535,5.414,14.339,7.2,12.378,10.71,29.79,11.881,29.79,11.881s.922-20.865-11.354-34.589a43.324,43.324,0,0,0-15-10.491ZM196.84,209.421c.38-.863,3.351-7.491,3.555-11.222l2.048-.424a48.285,48.285,0,0,0,7.682,18.363q-3.38-1.595-7.316-3.57c-1.887-.98-3.907-2.034-5.97-3.146Z" transform="translate(-74.299 -75.568)" fill="#fff"/>
        <path id="Path_53438" data-name="Path 53438" d="M250.175,150.42s-20.879.629-33.653,13.915-12.612,34.15-12.612,34.15,20.865-.644,33.653-13.915S250.175,150.42,250.175,150.42Z" transform="translate(-14.269 -40.899)" fill="#fff"/>
      </g>
      <path id="Path_53439" data-name="Path 53439" d="M205.25,186.872l20.5-18.436-.878-.98L205.235,185.1l-.1-24.142.1.073,17.353-25.357-1.1-.746-16.358,23.937-.263-58.117h-1.3l.161,39.447-13.051-11.3-.863.995,13.929,12.056.117,28.2-19.782-17.5-.878.98,20.66,18.289.117,25.678-14.866-11.661-.8,1.024,15.685,12.32.059,16.519h1.317l-.117-28.941Z" transform="translate(-23.861 -63.904)" fill="#fff"/>
      <path id="Path_53440" data-name="Path 53440" d="M196.8,171.292l-1.3-.146-1.653,14.588-8.808-9.832h.029l-2.239-17.675-1.3.176,1.99,15.8L161.64,149.74l-.98.878,14.851,16.592-9.408.117.029,1.317,10.535-.132,10.418,11.632-14.7.015v1.317l15.875-.015,9.467,10.579-10.374.629.088,1.3,11.4-.688,6.306,7.052.98-.878-11.105-12.408Z" transform="translate(-34.301 -41.214)" fill="#fff"/>
      <path id="Path_53441" data-name="Path 53441" d="M226.464,176.33l17.441-3.555-.263-1.288-15.6,3.175L250.8,151.017l-.951-.907-15.436,16.036-.819-9.364-1.3.117.907,10.505-10.827,11.252L221.255,164l-1.317.1,1.214,15.831-9.847,10.213-1.39-10.286-1.317.176,1.536,11.325-6.555,6.818.951.907,11.544-12,15.861.6.044-1.3-14.676-.571,9.145-9.511Z" transform="translate(-14.422 -41.043)" fill="#fff"/>
    </g>
    <g id="freepik--Characters--inject-334" transform="translate(107.242 131.786)">
      <ellipse id="Ellipse_1207" data-name="Ellipse 1207" cx="12.393" cy="12.525" rx="12.393" ry="12.525" transform="translate(178.032 3.131)" fill="#263238" stroke="#263238" stroke-linecap="round" stroke-linejoin="round" stroke-width="1"/>
      <path id="Path_53442" data-name="Path 53442" d="M250.853,148.11s5.853-.249,7.316,10.125,7.579,37.428,8.091,41.217-1.77,8.355-7.316,10.125-8.6-3.541-9.115-6.072-5.4-33.345-5.4-33.345Z" transform="translate(-26.029 -98.188)" fill="#263238" stroke="#263238" stroke-linecap="round" stroke-linejoin="round" stroke-width="1"/>
      <path id="Path_53443" data-name="Path 53443" d="M218,167.86S192.37,178.7,192.37,182.638s15.787,42.432,15.787,42.432l68.022-17.748-7.623-42.607S258.432,152.087,218,167.86Z" transform="translate(-50.142 -92.713)" fill="#ded4b7" stroke="#263238" stroke-linecap="round" stroke-linejoin="round" stroke-width="1"/>
      <path id="Path_53444" data-name="Path 53444" d="M234.67,150.114s-7.316,4.55-13.168,7.828S206.87,165.785,206.87,174.9s6.584,45.27,6.584,49.06a21.112,21.112,0,0,0,.249,5.063c0-.761,44.509-15.436,44.509-15.436a162.287,162.287,0,0,1,5.063-17.192c2.283-5.56,0-10.374,2.531-19.475s7.316-15.173,5.311-21.947-2.531-6.57-9.862-6.833S241.752,147.832,234.67,150.114Z" transform="translate(-43.426 -98.231)" fill="#263238" stroke="#263238" stroke-linecap="round" stroke-linejoin="round" stroke-width="1"/>
      <path id="Path_53445" data-name="Path 53445" d="M225.433,147.193s-3.292,1.77-4.565,9.862a156.129,156.129,0,0,0-1.258,19.475s13.651-7.579,15.685-7.842,16.695,5.853,16.695,5.853a135.578,135.578,0,0,0-5.062-19.738C243.9,146.681,228.462,143.652,225.433,147.193Z" transform="translate(-37.525 -99.289)" fill="#fff" stroke="#263238" stroke-linecap="round" stroke-linejoin="round" stroke-width="1"/>
      <path id="Path_53446" data-name="Path 53446" d="M221.86,145.35l.249.863c.98,3.424,4.653,16.095,6.833,22.4,2.531,7.316,6.321,10.374,6.321,10.374l3.79-15.129S224.128,149.388,221.86,145.35Z" transform="translate(-36.483 -99.466)" fill="#fff" stroke="#263238" stroke-linecap="round" stroke-linejoin="round" stroke-width="1"/>
      <path id="Path_53447" data-name="Path 53447" d="M236.543,123.245s-12.393-2.019-16.695,14.163,9.613,30.1,13.651,35.408,9.891,7.009,13.168,1.77c5.063-8.091,6.584-12.144,7.316-22.767s-.512-17.7-5.311-23.264a16.665,16.665,0,0,0-12.13-5.311Z" transform="translate(-37.793 -109.741)" fill="#fff" stroke="#263238" stroke-linecap="round" stroke-linejoin="round" stroke-width="1"/>
      <path id="Path_53448" data-name="Path 53448" d="M248.7,128.557a16.665,16.665,0,0,0-12.144-5.311s-12.393-2.019-16.695,14.163a25.649,25.649,0,0,0,.337,13.944c.454-1.156,1.141-2.063,2.195-2.063,3.029,0,3.292,4.3,4.3,4.053s5.048-3.79,4.3-7.082.249-4.8,5.56-4.8,6.57,2.268,8.34,1.77,3.043-4.053,4.814-4.053a5.955,5.955,0,0,1,4.185,1.931,22.4,22.4,0,0,0-5.194-12.554Z" transform="translate(-37.78 -109.741)" fill="#263238" stroke="#263238" stroke-linecap="round" stroke-linejoin="round" stroke-width="1"/>
      <path id="Path_53449" data-name="Path 53449" d="M226.521,146.625s-2.034-5.063-4.3-5.575-3.541,1.024-2.283,5.311,3.043,6.072,4.053,6.072,1.463-1.463,1.463-1.463" transform="translate(-37.603 -101.501)" fill="#fff" stroke="#263238" stroke-linecap="round" stroke-linejoin="round" stroke-width="1"/>
      <path id="Path_53450" data-name="Path 53450" d="M211.66,180.26s1.258,8.106,6.833,11.705,13.168,1.77,13.168,1.77" transform="translate(-41.207 -83.297)" fill="none" stroke="#263238" stroke-linecap="round" stroke-linejoin="round" stroke-width="1"/>
      <path id="Path_53451" data-name="Path 53451" d="M231,168.34s3.541,13.4,2.78,19.211" transform="translate(-32.25 -88.818)" fill="none" stroke="#263238" stroke-linecap="round" stroke-linejoin="round" stroke-width="1"/>
      <path id="Path_53452" data-name="Path 53452" d="M181.82,166.05s3.073,1.273,5.384,9.218,8.442,22.533,9.979,28.166,1.024,12.8-5.633,14.632-13.827-16.387-14.851-17.924-3.585-15.875-2.3-23.557S179.011,165.04,181.82,166.05Z" transform="translate(-58.628 -89.952)" fill="#fff" stroke="#263238" stroke-linecap="round" stroke-linejoin="round" stroke-width="1"/>
      <path id="Path_53453" data-name="Path 53453" d="M167.1,184.18s-40,39.022-40,44.875,23.542,54.254,30.126,53.157,36.213-32.672,36.213-32.672Z" transform="translate(-80.372 -81.481)" fill="#ded4b7" stroke="#263238" stroke-linecap="round" stroke-linejoin="round" stroke-width="1"/>
      <path id="Path_53454" data-name="Path 53454" d="M164.325,172.161a249.1,249.1,0,0,0-21.508,21.508c-8.969,10.491-8.194,28.166-5.384,40.193s7.945,46.09,14.339,47.377,11.53-12.291,22.8-21.947,20.236-17.924,21-24.332-.249-26.878.263-28.415a162.408,162.408,0,0,0,2.048-22.8c0-7.418-5.633-15.612-11.266-17.412S166.622,170.39,164.325,172.161Z" transform="translate(-76.467 -89.903)" fill="#fff" stroke="#263238" stroke-linecap="round" stroke-linejoin="round" stroke-width="1"/>
      <path id="Path_53455" data-name="Path 53455" d="M213.872,336.223s-8.281,17.031-20.133,27.873-30.448,24.259-30.448,24.259,19.606,6.2,23.747,6.716,3.087,2.575-1.551,4.653-10.33,3.614-23.235,3.614-21.157,0-21.684-3.1,7.755-10.842,13.944-17.031,29.936-44.919,32-46.982S203.03,327.444,213.872,336.223Z" transform="translate(-74.145 -13.1)" fill="#fff" stroke="#263238" stroke-linecap="round" stroke-linejoin="round" stroke-width="1"/>
      <path id="Path_53456" data-name="Path 53456" d="M187.041,377.009c-3.409-.424-17.295-4.7-22.094-6.189l-3.716,8.252a18.319,18.319,0,0,1-15.627-4.887c-3.087,3.351-5.311,6.336-5.048,7.989.527,3.1,8.779,3.1,21.684,3.1s18.582-1.551,23.235-3.614S191.167,377.521,187.041,377.009Z" transform="translate(-74.149 4.963)" fill="#263238" stroke="#263238" stroke-linecap="round" stroke-linejoin="round" stroke-width="1"/>
      <path id="Path_53457" data-name="Path 53457" d="M291.88,336.223s8.267,17.031,20.133,27.873,30.463,24.259,30.463,24.259-19.621,6.2-23.747,6.716-3.1,2.575,1.551,4.653,10.242,3.614,23.22,3.614,21.172,0,21.684-3.1-7.74-10.842-13.944-17.031-29.936-44.919-32-46.982S302.722,327.444,291.88,336.223Z" transform="translate(-4.053 -13.1)" fill="#fff" stroke="#263238" stroke-linecap="round" stroke-linejoin="round" stroke-width="1"/>
      <path id="Path_53458" data-name="Path 53458" d="M311.047,377.009c3.395-.424,17.295-4.7,22.094-6.189l3.716,8.252a18.334,18.334,0,0,0,15.612-4.887c3.073,3.351,5.311,6.336,5.033,7.989-.512,3.1-8.779,3.1-21.684,3.1s-18.582-1.551-23.22-3.614S306.921,377.521,311.047,377.009Z" transform="translate(3.629 4.963)" fill="#263238" stroke="#263238" stroke-linecap="round" stroke-linejoin="round" stroke-width="1"/>
      <path id="Path_53459" data-name="Path 53459" d="M111.106,341.734s7.228,13.417,6.716,18.07c-.424,3.79-9.452,32.731-12.744,43.207a2.634,2.634,0,0,0,2.751,3.409h0a2.634,2.634,0,0,0,2.268-1.814l14.441-44.29s2.575-3.1,10.842-4.638c6.321-1.2,37.808-2.678,52.176-3.307a10.242,10.242,0,0,1,10.783,9.291v.2c.454,5.955,10.242,36.755,12.466,43.573a1.639,1.639,0,0,0,1.829,1.112h0a1.639,1.639,0,0,0,1.331-1.961c-1.756-7.989-9.291-42.432-12.013-59.755,0,0-54.722,2.575-67.115-.527a77.4,77.4,0,0,1-21.157-8.779S110.594,335.545,111.106,341.734Z" transform="translate(-90.627 -11.382)" fill="#263238" stroke="#263238" stroke-linecap="round" stroke-linejoin="round" stroke-width="1"/>
      <path id="Path_53460" data-name="Path 53460" d="M111.019,278.775s-18.6,58.322-15.509,68.651,18.07,24.771,23.747,24.771,10.33-56.771,10.33-61.936-9.789-23.7-12.905-31.487S111.019,278.775,111.019,278.775Z" transform="translate(-95.164 -39.271)" fill="#ded4b7" stroke="#263238" stroke-linecap="round" stroke-linejoin="round" stroke-width="1"/>
      <path id="Path_53461" data-name="Path 53461" d="M204.337,355.91c-.19,5.853-1.1,10.33-3.541,10.33-4.638,0-55.234,5.15-67.1,4.638s-20.645-6.628-20.645-15.407.512-47.494,9.291-52.674,55.234-5.677,66.076-5.677c13.344,0,13.915,25.781,14.485,34.516C203.064,334.153,204.629,346.692,204.337,355.91Z" transform="translate(-86.879 -29.172)" fill="#ded4b7" stroke="#263238" stroke-linecap="round" stroke-linejoin="round" stroke-width="1"/>
      <path id="Path_53462" data-name="Path 53462" d="M168.117,345.015s33.038,1.039,35.613-4.126,0-16.007-6.7-18.07-34.589-.512-34.589-.512Z" transform="translate(-64.004 -17.766)" fill="#fff" stroke="#263238" stroke-linecap="round" stroke-linejoin="round" stroke-width="1"/>
      <path id="Path_53463" data-name="Path 53463" d="M112.459,310.165a68.491,68.491,0,0,0-2.575,21.231c.512,11.369,3.614,22.723,19.021,32.014s66.076-1.551,66.076-1.551l-3.614-67.627s-33.55-4.126-52.132-.512S113,308.1,112.459,310.165Z" transform="translate(-88.366 -31.434)" fill="#263238" stroke="#263238" stroke-linecap="round" stroke-linejoin="round" stroke-width="1"/>
      <path id="Path_53464" data-name="Path 53464" d="M283.394,141.872a41.3,41.3,0,0,0-8.574,13.549c-2.765,7.755-11.9,30.99-11.617,35.408s4.141,9.964,8.018,6.921,13.271-19.358,13.827-20.192,1.112-12.451,1.112-19.65S286.642,141.594,283.394,141.872Z" transform="translate(-17.338 -101.08)" fill="#fff" stroke="#263238" stroke-linecap="round" stroke-linejoin="round" stroke-width="1"/>
      <path id="Path_53465" data-name="Path 53465" d="M286.185,158.855c3.029-.585,72.192,14.632,72.192,22.43s-15.612,50.728-15.612,50.728L276.44,214.455S277.771,160.538,286.185,158.855Z" transform="translate(-11.204 -93.218)" fill="#ded4b7" stroke="#263238" stroke-linecap="round" stroke-linejoin="round" stroke-width="1"/>
      <path id="Path_53466" data-name="Path 53466" d="M310.339,135.961s-14.939-1.668-25.459,3.6-10.505,14.1-9.949,22.679,3.409,54.825,4.243,58.146,19.826,2.443,30.887,4.653,18.816-6.921,20.484-10.52,21.026-38.73,21.026-46.192S343.552,146.745,332.2,140.1a32.087,32.087,0,0,0-21.86-4.141Z" transform="translate(-11.991 -104.021)" fill="#fff" stroke="#263238" stroke-linecap="round" stroke-linejoin="round" stroke-width="1"/>
      <path id="Path_53467" data-name="Path 53467" d="M294.682,157.393l3.043,6.643-11.9,41.5,2.765,8.018,8.033-6.087,4.419-42.593,6.087-6.643-3.043-7.477Z" transform="translate(-6.855 -96.965)" fill="#263238" stroke="#263238" stroke-linecap="round" stroke-linejoin="round" stroke-width="1"/>
      <path id="Path_53468" data-name="Path 53468" d="M294.113,145.122a67.3,67.3,0,0,0-4.155,9.686,53.989,53.989,0,0,0-1.1,11.062s8.852-4.155,11.339-4.155,7.462,11.354,7.462,11.354,7.477-11.076,8.589-19.021-7.477-13.827-13.563-13.827a9.789,9.789,0,0,0-8.574,4.9Z" transform="translate(-5.451 -101.842)" fill="#fff" stroke="#263238" stroke-linecap="round" stroke-linejoin="round" stroke-width="1"/>
      <path id="Path_53469" data-name="Path 53469" d="M315.487,138.7s2.78-4.155,3.321-.278-2.765,6.906-4.7,8.018a2.926,2.926,0,0,1-3.321,0" transform="translate(4.706 -103.44)" fill="#fff" stroke="#263238" stroke-linecap="round" stroke-linejoin="round" stroke-width="1"/>
      <path id="Path_53470" data-name="Path 53470" d="M296.272,127.295s-2.765-2.209-4.389,2.209S293,139.468,293,139.468l2.765-5.853" transform="translate(-4.29 -108.084)" fill="#fff" stroke="#263238" stroke-linecap="round" stroke-linejoin="round" stroke-width="1"/>
      <path id="Path_53471" data-name="Path 53471" d="M294.756,154.295a2.795,2.795,0,0,0,2.765,3.585c3.6.278,11.061-7.462,11.617-9.13S294.756,154.295,294.756,154.295Z" transform="translate(-2.773 -98.007)" fill="#fff" stroke="#263238" stroke-linecap="round" stroke-linejoin="round" stroke-width="1"/>
      <path id="Path_53472" data-name="Path 53472" d="M309.228,116.327s-9.686,4.389-11.9,11.339S291.48,148.693,291.48,154s1.653,16.095,5.253,17.7,15.495-6.087,18.8-8.3,7.2-10.783,11.354-15.773,7.462-14.1,5.853-21.567S318.9,109.685,309.228,116.327Z" transform="translate(-4.238 -113.987)" fill="#fff" stroke="#263238" stroke-linecap="round" stroke-linejoin="round" stroke-width="1"/>
      <path id="Path_53473" data-name="Path 53473" d="M332.014,126.017c-1.668-7.477-13.841-16.329-23.513-9.686,0,0-9.686,4.389-11.9,11.339-1.053,3.292-2.414,8.194-3.555,13.007,1.887-2.926,5.019-7.974,5.209-9.13.278-1.668.278-1.946,2.209-1.946s5.531,5.531,10.52,6.643,11.617.278,11.617,3.043-3.877,7.2-1.39,8.574c1.946,1.083.2,4.814.38,6.438a58.526,58.526,0,0,1,4.609-6.716C330.346,142.609,333.667,133.479,332.014,126.017Z" transform="translate(-3.511 -113.99)" fill="#263238" stroke="#263238" stroke-linecap="round" stroke-linejoin="round" stroke-width="1"/>
      <path id="Path_53474" data-name="Path 53474" d="M297.016,134.181s9.686,4.7,14.383,6.365,9.408,3.585,7.74,6.628-7.184,4.389-10.505,3.043-2.487-8.3-4.389-8.574-3.307,3.321-6.906,3.321-7.477-5.531-6.921-9.408S297.016,134.181,297.016,134.181Z" transform="translate(-4.755 -105.007)" fill="#fff" stroke="#263238" stroke-linecap="round" stroke-linejoin="round" stroke-width="1"/>
      <line id="Line_440" data-name="Line 440" y1="6.365" x2="6.365" transform="translate(315.218 33.038)" fill="#fff" stroke="#263238" stroke-linecap="round" stroke-linejoin="round" stroke-width="1"/>
      <line id="Line_441" data-name="Line 441" y1="7.477" x2="3.307" transform="translate(287.286 21.42)" fill="#fff" stroke="#263238" stroke-linecap="round" stroke-linejoin="round" stroke-width="1"/>
      <path id="Path_53475" data-name="Path 53475" d="M352.8,173.84s-18.348,16.329-23.1,21.055-4.975,13.812-.454,15.846,18.8-6.335,21.055-8.15S358.68,174.967,352.8,173.84Z" transform="translate(11.743 -86.27)" fill="#263238" stroke="#263238" stroke-linecap="round" stroke-linejoin="round" stroke-width="1"/>
      <path id="Path_53476" data-name="Path 53476" d="M388.767,201.74s24.654,24.64,19.723,32.526-52.249,32.541-52.249,32.541l-8.881-38.452Z" transform="translate(21.644 -73.348)" fill="#ded4b7" stroke="#263238" stroke-linecap="round" stroke-linejoin="round" stroke-width="1"/>
      <path id="Path_53477" data-name="Path 53477" d="M361.458,172.918s-10.4-.907-14.251,1.58-6.57,25.591-7.316,39.4-2.487,24.874-1.58,27.61,24.449,32.38,27.8,36.462,30.8-37.589,34.648-45.972,1.361-16.095-3.629-27.61-15.612-22.2-21.947-28.078a14.631,14.631,0,0,0-13.724-3.395Z" transform="translate(17.334 -86.928)" fill="#263238" stroke="#263238" stroke-linecap="round" stroke-linejoin="round" stroke-width="1"/>
      <path id="Path_53478" data-name="Path 53478" d="M354.527,196.347l-.161.878c-.293,1.624-.922,5.341-1.463,9.54-.688,5.662-.454,13.168,1.361,13.168s25.576-17.207,26.03-32.819S356.341,189.792,354.527,196.347Z" transform="translate(24.046 -82.968)" fill="#fff" stroke="#263238" stroke-linecap="round" stroke-linejoin="round" stroke-width="1"/>
      <path id="Path_53479" data-name="Path 53479" d="M354.647,171.179s-2.268,8.369-2.268,9.73a29.383,29.383,0,0,0,.907,4.755s-3.848,6.116-3.395,6.789a12.7,12.7,0,0,0,1.8,1.814s-.439,8.6,1.361,10.418,9.291.673,9.291.673-3.629,4.536.454,4.755,14.939-8.779,18.114-14.032,2.926-14.719,0-19.475S360.529,165.283,354.647,171.179Z" transform="translate(22.799 -88.584)" fill="#fff" stroke="#263238" stroke-linecap="round" stroke-linejoin="round" stroke-width="1"/>
      <path id="Path_53480" data-name="Path 53480" d="M373.356,159.4s-17.441,2.268-20.6,9.057,4.068,15.173,9.276,16.314a33.914,33.914,0,0,0,8.6.893s-5.428,4.755-2.034,5.853,4.975.454,4.975,1.58-3.395,4.755-.454,4.989,3.848-4.989,5.662-3.848-.673,5.648.234,5.853,9.511-8.779,13.168-18.348-1.361-15.392-4.975-18.553S377.657,158.272,373.356,159.4Z" transform="translate(23.784 -93.118)" fill="#263238" stroke="#263238" stroke-linecap="round" stroke-linejoin="round" stroke-width="1"/>
      <path id="Path_53481" data-name="Path 53481" d="M367.308,188.236s3.175-7.316,5.209-5.648,1.361,6.789-.907,8.6-6.57-.234-6.57-.234" transform="translate(29.832 -82.333)" fill="#fff" stroke="#263238" stroke-linecap="round" stroke-linejoin="round" stroke-width="1"/>
      <path id="Path_53482" data-name="Path 53482" d="M352.82,201.134l7.243-3.614-1.127,10.857" transform="translate(24.172 -75.303)" fill="#fff" stroke="#263238" stroke-linecap="round" stroke-linejoin="round" stroke-width="1"/>
      <path id="Path_53483" data-name="Path 53483" d="M426.606,333.384s-13.022,25.635-12.51,30.287c.424,3.79,9.452,32.731,12.759,43.207a2.648,2.648,0,0,1-2.765,3.409h0a2.634,2.634,0,0,1-2.268-1.814l-14.427-44.29s-2.59-3.1-10.842-4.638c-6.335-1.2-37.808-2.678-52.191-3.307a10.242,10.242,0,0,0-10.769,9.291.966.966,0,0,0,0,.2c-.468,5.955-10.242,36.755-12.481,43.573a1.639,1.639,0,0,1-1.829,1.112h0a1.639,1.639,0,0,1-1.331-1.961c1.756-7.989,9.291-42.432,12.027-59.755,0,0,54.708,2.575,67.1-.527s26.966-21,26.966-21S427.118,327.18,426.606,333.384Z" transform="translate(8.006 -15.249)" fill="#263238" stroke="#263238" stroke-linecap="round" stroke-linejoin="round" stroke-width="1"/>
      <path id="Path_53484" data-name="Path 53484" d="M404.8,274.509s14.251,59.536,10.4,69.6-19.826,23.411-25.488,22.972-6.145-57.385-5.765-62.535,11.53-22.957,15.188-30.522S404.8,274.509,404.8,274.509Z" transform="translate(38.545 -41.37)" fill="#ded4b7" stroke="#263238" stroke-linecap="round" stroke-linejoin="round" stroke-width="1"/>
      <path id="Path_53485" data-name="Path 53485" d="M322.015,355.91c.176,5.853,1.1,10.33,3.526,10.33,4.653,0,55.234,5.15,67.115,4.638s20.6-6.628,20.6-15.407-.527-47.567-9.306-52.674-55.234-5.677-66.076-5.677c-13.344,0-13.929,25.781-14.485,34.516C323.229,334.153,321.679,346.692,322.015,355.91Z" transform="translate(9.883 -29.172)" fill="#ded4b7" stroke="#263238" stroke-linecap="round" stroke-linejoin="round" stroke-width="1"/>
      <path id="Path_53486" data-name="Path 53486" d="M410.764,310.03s-4.272,10.432-4.272,18.714-4.009,24.581-12.291,29.38-17.558,7.491-31.268,5.619-43.544-6.687-43.544-6.687,30.726-21.947,38.466-32.863,10.418-20.031,16.563-26.176S410.223,285.727,410.764,310.03Z" transform="translate(8.689 -31.314)" fill="#263238" stroke="#263238" stroke-linecap="round" stroke-linejoin="round" stroke-width="1"/>
      <ellipse id="Ellipse_1208" data-name="Ellipse 1208" cx="164.24" cy="126.929" rx="164.24" ry="126.929" transform="translate(71.368 107.82)" fill="#263238" stroke="#263238" stroke-linecap="round" stroke-linejoin="round" stroke-width="1"/>
      <ellipse id="Ellipse_1209" data-name="Ellipse 1209" cx="164.24" cy="126.929" rx="164.24" ry="126.929" transform="translate(71.368 104.016)" fill="#ded4b7" stroke="#263238" stroke-linecap="round" stroke-linejoin="round" stroke-width="1"/>
      <path id="Path_53487" data-name="Path 53487" d="M323.634,218.56l20.835,22.869-36.916,26.483L286.28,242.1Z" transform="translate(-6.646 -65.558)" fill="#fff" stroke="#263238" stroke-linecap="round" stroke-linejoin="round" stroke-width="1"/>
      <path id="Path_53488" data-name="Path 53488" d="M245.582,219.91,211.49,237.439l30.2,37,35.057-23.367Z" transform="translate(-41.286 -64.933)" fill="#fff" stroke="#263238" stroke-linecap="round" stroke-linejoin="round" stroke-width="1"/>
      <path id="Path_53489" data-name="Path 53489" d="M280.907,245.24,246.83,262.769l30.185,37,35.057-23.367Z" transform="translate(-24.918 -53.201)" fill="#fff" stroke="#263238" stroke-linecap="round" stroke-linejoin="round" stroke-width="1"/>
      <path id="Path_53490" data-name="Path 53490" d="M279.141,247.08,242.43,258.054l22.884,41.92,38.744-16.548Z" transform="translate(-26.956 -52.349)" fill="#fff" stroke="#263238" stroke-linecap="round" stroke-linejoin="round" stroke-width="1"/>
      <path id="Path_53491" data-name="Path 53491" d="M239.808,206.14s6.628-2.473,6.628-.819,0,3.307-2.926,4.141-12.832-1.244-10.345-2.487A14.852,14.852,0,0,1,239.808,206.14Z" transform="translate(-31.43 -71.954)" fill="#fff" stroke="#263238" stroke-linecap="round" stroke-linejoin="round" stroke-width="1"/>
      <path id="Path_53492" data-name="Path 53492" d="M220.114,157.1s-8.589,3.029-12.89,8.355-6.321,19.211-7.316,25.283-5.56,29.088-3.029,31.868,29.585,12.144,34.9,13.666,11.705,3.79,15.188,3.541a16.577,16.577,0,0,0,7.082-2.78s6.072,2.78,7.579,2.78,3.541-2.78,1.77-5.575-6.7-6.848-9.481-6.848-13.022,1.536-13.022,1.536-17.456-8.852-22.518-12.393a64.538,64.538,0,0,1-8.852-7.579l10.374-32.38" transform="translate(-48.403 -94.024)" fill="#263238" stroke="#263238" stroke-linecap="round" stroke-linejoin="round" stroke-width="1"/>
      <path id="Path_53493" data-name="Path 53493" d="M242.858,205.413c-2.78,0-13.022,1.536-13.022,1.536s-1.931-.966-4.682-2.4a12.51,12.51,0,0,0-4.682,5.94,14.909,14.909,0,0,0-.541,3.57l.79.234c5.311,1.463,11.705,3.79,15.188,3.541a16.578,16.578,0,0,0,7.082-2.78s6.072,2.78,7.579,2.78,3.541-2.78,1.77-5.575S245.638,205.413,242.858,205.413Z" transform="translate(-37.377 -72.047)" fill="#fff" stroke="#263238" stroke-linecap="round" stroke-linejoin="round" stroke-width="1"/>
      <path id="Path_53494" data-name="Path 53494" d="M158.71,174.316c-.775.234-6.657,6.657-7.169,14.09s5.121,19.709,6.145,21.757S157.437,215.8,160,215.8,170.5,204.018,170.5,204.018s8.955.512,9.979-1.785-7.169-15.114-8.955-20.484S163.07,173.043,158.71,174.316Z" transform="translate(-69.067 -86.176)" fill="#fff" stroke="#263238" stroke-linecap="round" stroke-linejoin="round" stroke-width="1"/>
      <path id="Path_53495" data-name="Path 53495" d="M156.61,172.26a51.577,51.577,0,0,1-1.024,10.491c-1.024,3.585-1.273,5.384,2.561,11.018A138.113,138.113,0,0,0,170.7,208.108s.512-5.853.775-9.218,5.37-5.384,6.394-6.921-5.633-2.561-8.194-7.169-2.561-12.539-6.145-13.315S157.956,168.676,156.61,172.26Z" transform="translate(-67.48 -87.954)" fill="#fff" stroke="#263238" stroke-linecap="round" stroke-linejoin="round" stroke-width="1"/>
      <path id="Path_53496" data-name="Path 53496" d="M193.611,167.474s7.169-2.048,5.853-9.218-14.339-12.539-28.415-11.266-20.484,10.505-21.772,19.723,8.442,18.172,9.467,19.709-.249,3.073,2.824,4.1a11.823,11.823,0,0,0,6.394,0,6.862,6.862,0,0,0,6.921,2.824c4.389-1.024,3.073-9.73,4.872-10.754s3.073-4.389,8.442-7.433S193.611,167.474,193.611,167.474Z" transform="translate(-70.155 -98.793)" fill="#263238" stroke="#263238" stroke-linecap="round" stroke-linejoin="round" stroke-width="1"/>
      <path id="Path_53497" data-name="Path 53497" d="M167.3,182.171s.512-4.1-4.609-4.609-3.833,4.389-2.809,6.657,4.594,4.1,4.594,4.1,1.288,5.853,3.087,6.394,12.539,5.121,14.632,4.389,4.1-10.242,4.1-10.242,3.585-1.8,3.585-3.585-1.595-6.95-1.595-8.164,2.824-4.872,3.336-7.682-2.561-8.457-2.561-8.457-1.288,4.609-5.384,4.609a31.707,31.707,0,0,1-8.194-1.273s2.048,5.37.512,7.682-4.1,1.785-4.609,2.809-.249,5.633-.512,6.657S168.841,186,167.3,182.171Z" transform="translate(-65.62 -92.231)" fill="#fff" stroke="#263238" stroke-linecap="round" stroke-linejoin="round" stroke-width="1"/>
      <path id="Path_53498" data-name="Path 53498" d="M181.64,197.527s1.273,10.242,3.833,14.339,13.315,19.972,13.315,19.972-.761,5.384,0,6.921a70.6,70.6,0,0,1,3.848,9.979c0,1.024,2.048,1.8,2.3.263a25.727,25.727,0,0,0,.263-3.585l4.389,6.657s2.312,1.785,3.073.249.263-9.73.775-13.051-2.048-7.945-4.1-9.993-4.609-5.633-5.384-6.394-4.1-12.8-5.633-21-5.633-13.315-8.706-13.827" transform="translate(-55.111 -79.684)" fill="#fff" stroke="#263238" stroke-linecap="round" stroke-linejoin="round" stroke-width="1"/>
      <path id="Path_53499" data-name="Path 53499" d="M207.715,240.856c.775-1.463.263-9.73.775-13.051s-2.048-7.945-4.1-9.993a60.62,60.62,0,0,1-4.17-4.931,16.724,16.724,0,0,0-8,5.033l1.668,2.458s-.761,5.384,0,6.921a70.6,70.6,0,0,1,3.848,9.979c0,1.024,2.048,1.8,2.3.263a25.723,25.723,0,0,0,.263-3.585l4.389,6.657S206.954,242.319,207.715,240.856Z" transform="translate(-50.211 -68.189)" fill="#fff" stroke="#263238" stroke-linecap="round" stroke-linejoin="round" stroke-width="1"/>
      <path id="Path_53500" data-name="Path 53500" d="M141.843,187.53a18.875,18.875,0,0,0-6.657,10.505c-1.785,7.169,4.1,36.36,5.633,44.8s9.218,36.579,11.53,38.408,29.19-1.536,38.92-3.321,30.726-9.218,35.116-10.505,6.657-7.93,7.93-9.218,4.1-5.633,2.561-7.169-5.853,0-7.682,0-5.121-.249-8.706-.249a8.15,8.15,0,0,0-7.682,6.145,15.158,15.158,0,0,1-2.561,5.37s-26.337,3.585-32,3.585a89.606,89.606,0,0,1-11.018-.761s-3.073-17.675-5.384-28.678-4.389-19.46-6.145-22.284" transform="translate(-76.782 -79.93)" fill="#fff" stroke="#263238" stroke-linecap="round" stroke-linejoin="round" stroke-width="1"/>
      <path id="Path_53501" data-name="Path 53501" d="M205.9,231.146c-1.785,0-5.121-.249-8.706-.249a8.15,8.15,0,0,0-7.682,6.145,15.158,15.158,0,0,1-2.561,5.37l-1.858.249a14.09,14.09,0,0,1,1.346,4.872,27.153,27.153,0,0,1-.337,5.531c7.579-2.4,14.632-4.843,16.987-5.531,4.389-1.273,6.657-7.93,7.93-9.218s4.1-5.633,2.561-7.169S207.7,231.146,205.9,231.146Z" transform="translate(-53.513 -60.045)" fill="#fff" stroke="#263238" stroke-linecap="round" stroke-linejoin="round" stroke-width="1"/>
      <path id="Path_53502" data-name="Path 53502" d="M187.47,266.522s6.6.541,8.779.541,17.324-1.639,15.129-4.112-18.728-4.682-18.728-4.682Z" transform="translate(-52.411 -47.166)" fill="#fff" stroke="#263238" stroke-linecap="round" stroke-linejoin="round" stroke-width="1"/>
      <path id="Path_53503" data-name="Path 53503" d="M225.234,253.76,177.14,276.029l18.685,37.925L243.1,290.046Z" transform="translate(-57.195 -49.255)" fill="#fff" stroke="#263238" stroke-linecap="round" stroke-linejoin="round" stroke-width="1"/>
      <path id="Path_53504" data-name="Path 53504" d="M188,263.354s5.765,0,7.14.834,7.14,6.043,7.974,4.667-2.473-4.667-3.848-6.043-2.751-2.473-2.751-2.473" transform="translate(-52.166 -46.207)" fill="#fff" stroke="#263238" stroke-linecap="round" stroke-linejoin="round" stroke-width="1"/>
      <path id="Path_53505" data-name="Path 53505" d="M161.492,249.45l49.528,12.905-7.755,11.354-52.132-6.189S138.769,250.489,161.492,249.45Z" transform="translate(-70.796 -51.251)" fill="#fff" stroke="#263238" stroke-linecap="round" stroke-linejoin="round" stroke-width="1"/>
      <path id="Path_53506" data-name="Path 53506" d="M144.422,251.8s-12.071,10.242-16.095,22.679-6.584,37.311-6.584,37.311-12.8,18.289-12.8,20.118,10.608,0,10.608,0l-10.242,17.558s0,14.632,8.047,22.313a34.34,34.34,0,0,0,28.166,9.145c8.779-1.463,24.874-21.216,26.7-22.313s-4.389-17.924-5.853-24.142,1.463-10.608,3.292-11.705,12.437-7.682,14.632-12.437,1.829-12.8,1.1-19.021-9.876-27.8-17.924-34.384S152.1,245.944,144.422,251.8Z" transform="translate(-88.783 -51.432)" fill="#fff" stroke="#263238" stroke-linecap="round" stroke-linejoin="round" stroke-width="1"/>
      <path id="Path_53507" data-name="Path 53507" d="M139.927,250.38s-5.487,8.047-5.487,13.9,4.755,15.363,8.413,19.753a75.11,75.11,0,0,0,6.95,7.316l8.047-1.829.366,6.218s1.829-3.292,6.95-1.1,8.413.732,8.413-.366a45.036,45.036,0,0,0,0-21.582c-2.926-12.8-6.218-15-10.974-19.753S146.877,246.357,139.927,250.38Z" transform="translate(-76.972 -51.845)" fill="#fff" stroke="#263238" stroke-linecap="round" stroke-linejoin="round" stroke-width="1"/>
      <path id="Path_53508" data-name="Path 53508" d="M141.476,251.161s-4.024,6.95-1.829,12.437,9.145,12.071,14.632,16.826,12.437,9.876,12.437,9.876a31.516,31.516,0,0,0-2.561-24.508C157.205,252.624,144.768,248.6,141.476,251.161Z" transform="translate(-74.864 -50.796)" fill="#fff" stroke="#263238" stroke-linecap="round" stroke-linejoin="round" stroke-width="1"/>
      <path id="Path_53509" data-name="Path 53509" d="M173.064,228.18a54.75,54.75,0,0,1,2.561,7.316v2.561s5.121,2.926,4.389,4.024-3.658,5.853-3.658,5.853A46.732,46.732,0,0,1,175.99,260c-1.1,4.755.366,6.95-3.658,6.95H162.09s-1.1,15.363-3.658,15.363-14.266-5.487-16.461-8.413-2.926-5.853-2.195-8.047a172.343,172.343,0,0,0,5.853-17.924c1.463-6.584,12.437-11.705,15-12.8S173.064,228.18,173.064,228.18Z" transform="translate(-74.628 -61.102)" fill="#fff" stroke="#263238" stroke-linecap="round" stroke-linejoin="round" stroke-width="1"/>
      <path id="Path_53510" data-name="Path 53510" d="M141.985,246.226s-8.779-1.463-13.168-.732-9.876,6.95-9.876,13.168,4.755,9.876,12.437,10.608,12.8-5.853,12.8-9.511a42.592,42.592,0,0,0-2.195-13.534Z" transform="translate(-84.151 -53.178)" fill="#263238" stroke="#263238" stroke-linecap="round" stroke-linejoin="round" stroke-width="1"/>
      <path id="Path_53511" data-name="Path 53511" d="M159.918,258.387s13.9-15,18.289-24.142,2.926-18.655-4.024-18.655-14.632-2.195-27.8,2.561-18.655,20.118-17.924,28.166,12.8,24.508,19.021,25.605,6.218-9.876,6.218-9.876Z" transform="translate(-79.772 -67.168)" fill="#263238" stroke="#263238" stroke-linecap="round" stroke-linejoin="round" stroke-width="1"/>
      <path id="Path_53512" data-name="Path 53512" d="M154.073,248.181s-3.292-7.316-7.316-5.121-.366,10.242,2.195,12.071,6.584-1.1,6.584-1.1" transform="translate(-72.097 -54.401)" fill="#fff" stroke="#263238" stroke-linecap="round" stroke-linejoin="round" stroke-width="1"/>
      <path id="Path_53513" data-name="Path 53513" d="M165.232,234.93s-1.463,4.755-3.292,5.487" transform="translate(-64.235 -57.976)" fill="none" stroke="#263238" stroke-linecap="round" stroke-linejoin="round" stroke-width="1"/>
      <path id="Path_53514" data-name="Path 53514" d="M185.018,280.418s-2.809-1.873-3.175.556,2.429,5.048,2.429,5.048-3.555-3.921-3.746-1.683,2.063,4.682,2.063,4.682-2.809-1.317-2.809-.19,3.936,5.048,4.111,6.906,3.746-3.921,4.492-8.4a7.14,7.14,0,0,0-3.365-6.921Z" transform="translate(-55.973 -37.227)" fill="#fff" stroke="#263238" stroke-linecap="round" stroke-linejoin="round" stroke-width="1"/>
      <path id="Path_53515" data-name="Path 53515" d="M179.69,308.913a60.312,60.312,0,0,0,1.829-9.876c0-2.926,3.292-8.047,4.755-10.974s-4.755-8.047-1.829-9.51,5.121,1.463,7.682,4.755,3.292,10.242,1.1,15a49.076,49.076,0,0,1-8.047,12.071,16.241,16.241,0,0,1-3.658,2.926Z" transform="translate(-56.014 -37.951)" fill="#fff" stroke="#263238" stroke-linecap="round" stroke-linejoin="round" stroke-width="1"/>
      <path id="Path_53516" data-name="Path 53516" d="M181.58,300.955v-9.262c0-4.638,2.6-11.486,2.6-11.486a2.6,2.6,0,0,1,2.853,3.292,32.409,32.409,0,0,0,.541,9" transform="translate(-55.139 -37.016)" fill="#fff" stroke="#263238" stroke-linecap="round" stroke-linejoin="round" stroke-width="1"/>
      <path id="Path_53517" data-name="Path 53517" d="M127.227,293.922s-5.121,7.316-2.561,15.363,39.14,56.7,44.261,56.7,42.066-47.919,44.261-50.845-7.316-10.242-7.316-10.242l-36.945,33.653s-9.876-39.505-13.9-46.821-13.534-8.047-13.534-8.047" transform="translate(-81.831 -35.397)" fill="#fff" stroke="#263238" stroke-linecap="round" stroke-linejoin="round" stroke-width="1"/>
      <path id="Path_53518" data-name="Path 53518" d="M247.489,186.9s5.048-5.56,10.359-6.584,8.091,2.531,6.584,8.852-6.321,7.843-9.115,7.594-7.316-1.463-8.589-4.8a4.463,4.463,0,0,1,.761-5.063Z" transform="translate(-25.182 -83.352)" fill="#263238" stroke="#263238" stroke-linecap="round" stroke-linejoin="round" stroke-width="1"/>
      <path id="Path_53519" data-name="Path 53519" d="M256.057,183.72s-10.871,1.463-13.4,3.292S234.3,198.644,234.3,199.9s3.541,2.531,5.311,2.531,6.335-6.072,6.335-6.072l-2.283,6.335s2.283-.263,2.531-1.273,3.79-7.843,3.79-7.843,6.584.263,8.355-2.78S261.368,185.739,256.057,183.72Z" transform="translate(-30.721 -81.694)" fill="#fff" stroke="#263238" stroke-linecap="round" stroke-linejoin="round" stroke-width="1"/>
      <path id="Path_53520" data-name="Path 53520" d="M265.814,172.31s-3.043,10.242-3.043,16.592,4.375,26.849,4.375,26.849a19.914,19.914,0,0,1-4.389,9.408c-3.6,3.877-2.487,9.13-.834,10.783s4.989,4.711,6.087,2.765.278-5.531,1.39-6.906,5.253-3.6,5.853-7.755-.278-16.87-.278-23.791,3.6-17.148-.278-24.332" transform="translate(-18.648 -86.979)" fill="#fff" stroke="#263238" stroke-linecap="round" stroke-linejoin="round" stroke-width="1"/>
      <path id="Path_53521" data-name="Path 53521" d="M275.247,199.844c-4.492-.893-6.965.629-8.281,2.268.132.629.219.995.219.995a19.914,19.914,0,0,1-4.389,9.408c-3.6,3.877-2.487,9.13-.834,10.783s4.989,4.711,6.087,2.765.278-5.531,1.39-6.906,5.253-3.6,5.853-7.755a96.351,96.351,0,0,0-.044-11.559Z" transform="translate(-18.629 -74.349)" fill="#fff" stroke="#263238" stroke-linecap="round" stroke-linejoin="round" stroke-width="1"/>
      <path id="Path_53522" data-name="Path 53522" d="M284.216,199.53,257.66,229.686l26.834,19.094,25.722-32.643Z" transform="translate(-19.902 -74.372)" fill="#fff" stroke="#263238" stroke-linecap="round" stroke-linejoin="round" stroke-width="1"/>
      <path id="Path_53523" data-name="Path 53523" d="M267.87,209.575s.278,9.408.278,10.8,3.043,3.043,3.321-.278a36.577,36.577,0,0,1,.556-5.531c.278-.834,1.931-6.087-.278-9.964" transform="translate(-15.173 -72.024)" fill="#fff" stroke="#263238" stroke-linecap="round" stroke-linejoin="round" stroke-width="1"/>
      <path id="Path_53524" data-name="Path 53524" d="M336.583,159.255s-7.462,8.3-11.061,16.095S319.157,203,319.157,203s-14.383,23.513-16.329,25.459-.819,1.653-5.531,3.863-10.783,3.321-11.617,4.711-3.877,8.018-4.7,8.852,1.1,2.487,2.209,1.375,4.975-5.531,4.975-5.531l-4.7,11.061a1.463,1.463,0,0,0,1.653,1.39,22.942,22.942,0,0,0,5.853-1.931s4.711-1.112,6.365-3.321,7.755-14.119,7.755-14.119,16.095-10.242,21.845-17.148a63.368,63.368,0,0,0,10.52-18.26c.819-2.765,11.061-33.462,10.783-38.452s-2.765-5.853-2.765-5.853" transform="translate(-9.191 -94.95)" fill="#fff" stroke="#263238" stroke-linecap="round" stroke-linejoin="round" stroke-width="1"/>
      <path id="Path_53525" data-name="Path 53525" d="M302.008,205.81c-.907,1.039-.878,1.185-4.711,2.926-4.7,2.224-10.783,3.321-11.617,4.711s-3.877,8.018-4.7,8.852,1.1,2.487,2.209,1.375,4.975-5.531,4.975-5.531l-4.7,11.061a1.463,1.463,0,0,0,1.653,1.39,22.943,22.943,0,0,0,5.853-1.931s4.711-1.112,6.365-3.321,7.755-14.119,7.755-14.119.995-.629,2.6-1.7A11.383,11.383,0,0,0,302.008,205.81Z" transform="translate(-9.191 -71.463)" fill="#fff" stroke="#263238" stroke-linecap="round" stroke-linejoin="round" stroke-width="1"/>
      <path id="Path_53526" data-name="Path 53526" d="M394.568,214.177s-6.116,11.544-7.243,16.095-2.926,9.511-2.926,9.511-11.325-1.814-21.055-2.926-23.542-3.629-26.951-4.3-9.73-2.5-11.091-1.361-.454.907,1.141,1.58a8.6,8.6,0,0,0,4.068.234s-2.268.673-4.755,1.58-7.023,2.487-7.7,3.395.907,4.082,3.395,4.082a44.675,44.675,0,0,1,5.662,0c1.361.219,2.034,1.58,6.57,1.58s10.857-3.629,10.857-3.629,21.289,9.745,33.287,11.778,13.812-.673,18.8-4.536,19.46-27.61,18.333-32.365a27.682,27.682,0,0,0-3.629-8.384" transform="translate(8.001 -71.139)" fill="#263238" stroke="#263238" stroke-linecap="round" stroke-linejoin="round" stroke-width="1"/>
      <path id="Path_53527" data-name="Path 53527" d="M349.419,227.134c-5.926-.966-11.12-1.917-13.037-2.3-3.395-.688-9.73-2.5-11.091-1.361s-.454.907,1.141,1.58a8.6,8.6,0,0,0,4.068.234s-2.268.673-4.755,1.58-7.023,2.487-7.7,3.395.907,4.082,3.395,4.082a44.686,44.686,0,0,1,5.662,0c1.361.219,2.034,1.58,6.57,1.58s10.857-3.629,10.857-3.629,1.668.761,4.316,1.9Z" transform="translate(7.996 -63.451)" fill="#fff" stroke="#263238" stroke-linecap="round" stroke-linejoin="round" stroke-width="1"/>
      <path id="Path_53528" data-name="Path 53528" d="M338.7,187.92s-10.637,5.209-14.719,8.779-14.266,26.483-14.485,28.063,7.7,2.5,8.6,2.048,16.987-19.021,21.055-22.2a5.853,5.853,0,0,0,2.268-7.009" transform="translate(4.102 -79.749)" fill="#263238" stroke="#263238" stroke-linecap="round" stroke-linejoin="round" stroke-width="1"/>
      <path id="Path_53529" data-name="Path 53529" d="M317.72,210.752a90.87,90.87,0,0,0-9.964,2.707c-2.721,1.141-9.057,9.291-7.477,9.745s5.853-4.755,5.853-4.755a39.5,39.5,0,0,0-3.848,6.789c-.454,1.814-.907,5.853.907,5.209s5.428-5.662,5.428-5.662,4.521-2.721,8.15-2.721,6.116-6.789,6.116-6.789,2.926-2.926,1.814-6.116S317.72,210.752,317.72,210.752Z" transform="translate(-0.278 -70.421)" fill="#fff" stroke="#263238" stroke-linecap="round" stroke-linejoin="round" stroke-width="1"/>
      <path id="Path_53530" data-name="Path 53530" d="M318.745,209.6a5.984,5.984,0,0,1-4.755-2.048c-1.814-2.253-2.926,0-2.926,2.268a3.2,3.2,0,0,0,2.253,2.926s-3.848,3.629-1.58,4.755a4.58,4.58,0,0,0,4.536-.673" transform="translate(4.813 -71.087)" fill="#fff" stroke="#263238" stroke-linecap="round" stroke-linejoin="round" stroke-width="1"/>
      <path id="Path_53531" data-name="Path 53531" d="M382.6,249.951s-11.222-2.136-15.232-2.926-17.1,4.55-20.835,5.853,0,2.414,4.009,3.2,12.013-.79,12.013-.79-8.779,3.731-6.672,4.272,6.409-.541,10.154-.8,7.477-3.746,7.477-3.746,17.909,8.779,20.045,8.779,5.341-6.409.79-9.086A64.369,64.369,0,0,0,382.6,249.951Z" transform="translate(20.55 -52.411)" fill="#fff" stroke="#263238" stroke-linecap="round" stroke-linejoin="round" stroke-width="1"/>
      <path id="Path_53532" data-name="Path 53532" d="M381.833,257.509a91.258,91.258,0,0,0-18.436,18.7c-7.755,10.959-9.086,33.126-7.477,39.505s2.663,13.885,10.418,19.021,13.359,7.213,26.717,0,20.309-31.253,19.021-49.747-12.554-31.268-18.436-32.863S381.833,257.509,381.833,257.509Z" transform="translate(25.33 -50.122)" fill="#fff" stroke="#263238" stroke-linecap="round" stroke-linejoin="round" stroke-width="1"/>
      <path id="Path_53533" data-name="Path 53533" d="M376.808,258.46s-4.814.541-7.213,3.746-1.609,4.272,0,5.077a4.126,4.126,0,0,1,1.858,2.926s-5.6,9.086-2.663,10.944,16.022-4.272,19.5-8.779,1.873-12.027-.263-14.163S376.808,258.46,376.808,258.46Z" transform="translate(31.174 -47.605)" fill="#fff" stroke="#263238" stroke-linecap="round" stroke-linejoin="round" stroke-width="1"/>
      <path id="Path_53534" data-name="Path 53534" d="M374.572,234.61a25.692,25.692,0,0,1-5.341,4.8c-2.136,1.068-4.8,2.136-2.663,3.746a33.654,33.654,0,0,1,3.468,2.926s-2.678,8.779-1.595,13.885a4.594,4.594,0,0,0,5.853,3.746s-.8,13.359-1.873,17.368,4.009,3.731,8.018,1.331,4.55-12.291,6.145-19.5,11.222-15.758,4.55-23.776S374.572,234.61,374.572,234.61Z" transform="translate(30.176 -58.476)" fill="#fff" stroke="#263238" stroke-linecap="round" stroke-linejoin="round" stroke-width="1"/>
      <path id="Path_53535" data-name="Path 53535" d="M417.21,230.892c-9.891-10.154-24.874-7.755-26.981-7.213,0,0-8.34-2.034-13.168-1.229s-6.628,14.632-3.687,22.328a12.656,12.656,0,0,0,5.6,6.526c-.483-.424-3.336-3.117-.585-5.253a12.788,12.788,0,0,1,5.648-2.663s-2.326,7.638-1.331,8.984c4.068,5.414-14.222,30.946-14.939,30.536,0,0,5.341,3.014,12.027,6.218,14.763,7.1,32.19-8.047,37.662-20.835C421.819,258.195,426.018,239.934,417.21,230.892Z" transform="translate(31.097 -63.844)" fill="#263238" stroke="#263238" stroke-linecap="round" stroke-linejoin="round" stroke-width="1"/>
      <path id="Path_53536" data-name="Path 53536" d="M307.51,254.18l-13.49,56.434,27.6,12.569,10.432-53.054Z" transform="translate(-3.061 -49.06)" fill="#fff" stroke="#263238" stroke-linecap="round" stroke-linejoin="round" stroke-width="1"/>
      <path id="Path_53537" data-name="Path 53537" d="M307.428,258.17,296.22,305.064l22.928,10.447,8.677-44.1Z" transform="translate(-2.042 -47.212)" fill="#263238" stroke="#263238" stroke-linecap="round" stroke-linejoin="round" stroke-width="1"/>
      <path id="Path_53538" data-name="Path 53538" d="M323.312,265.08l37.72,1.844-7.36,54.283-40.793-3.073Z" transform="translate(5.674 -44.012)" fill="#fff" stroke="#263238" stroke-linecap="round" stroke-linejoin="round" stroke-width="1"/>
      <path id="Path_53539" data-name="Path 53539" d="M327.6,282.139l2.736.117.278-1.756-2.692-.19Z" transform="translate(12.492 -36.958)" fill="#263238"/>
      <path id="Path_53540" data-name="Path 53540" d="M333.135,290.883l.439-2.678-3.8-.176-.41,2.59Z" transform="translate(13.307 -33.382)" fill="#263238"/>
      <path id="Path_53541" data-name="Path 53541" d="M328.428,276.982l.337-1.887-3.424-.234-.351,1.975Z" transform="translate(11.283 -39.482)" fill="#263238"/>
      <path id="Path_53542" data-name="Path 53542" d="M328.5,276.954l2.6.117.278-1.785-2.561-.176Z" transform="translate(12.908 -39.366)" fill="#263238"/>
      <path id="Path_53543" data-name="Path 53543" d="M327.12,285.143l2.78.2.4-2.531-2.765-.117Z" transform="translate(12.269 -35.851)" fill="#263238"/>
      <path id="Path_53544" data-name="Path 53544" d="M334.882,280.449l.439-2.619-3.936-.19-.4,2.546Z" transform="translate(14.062 -38.194)" fill="#263238"/>
      <path id="Path_53545" data-name="Path 53545" d="M325.91,271.951l3.409.161.5-2.926-3.38-.176Z" transform="translate(11.709 -42.191)" fill="#263238"/>
      <path id="Path_53546" data-name="Path 53546" d="M331.873,272.219l.454-2.9-2.429-.132-.5,2.912Z" transform="translate(13.325 -42.108)" fill="#263238"/>
      <path id="Path_53547" data-name="Path 53547" d="M325.84,272.16l-.41,2.3,3.409.234.41-2.385Z" transform="translate(11.486 -40.733)" fill="#263238"/>
      <path id="Path_53548" data-name="Path 53548" d="M331.083,277.627l-2.648-.117-.424,2.429,2.678.19Z" transform="translate(12.681 -38.255)" fill="#263238"/>
      <path id="Path_53549" data-name="Path 53549" d="M331.851,272.437l-2.517-.117-.424,2.414,2.546.176Z" transform="translate(13.098 -40.658)" fill="#263238"/>
      <path id="Path_53550" data-name="Path 53550" d="M334.013,285.664l.439-2.648-3.877-.176-.4,2.561Z" transform="translate(13.686 -35.786)" fill="#263238"/>
      <path id="Path_53551" data-name="Path 53551" d="M323.23,285.24l-2.795-.19-.366,2.034,2.809.132Z" transform="translate(9.004 -34.762)" fill="#263238"/>
      <path id="Path_53552" data-name="Path 53552" d="M322.8,287.712l-2.809-.132-.38,2.239,2.78.2Z" transform="translate(8.791 -33.591)" fill="#263238"/>
      <path id="Path_53553" data-name="Path 53553" d="M322.3,290.44l-2.78-.19-.351,2.019,2.78.132Z" transform="translate(8.587 -32.354)" fill="#263238"/>
      <path id="Path_53554" data-name="Path 53554" d="M321.88,292.9l-2.795-.132-.4,2.253,2.765.2Z" transform="translate(8.365 -31.187)" fill="#263238"/>
      <path id="Path_53555" data-name="Path 53555" d="M323.724,282.522l-2.824-.132-.38,2.224,2.795.2Z" transform="translate(9.212 -35.994)" fill="#263238"/>
      <path id="Path_53556" data-name="Path 53556" d="M324.649,277.332l-2.839-.132-.38,2.209,2.824.19Z" transform="translate(9.634 -38.398)" fill="#263238"/>
      <path id="Path_53557" data-name="Path 53557" d="M325.588,272.142l-2.868-.132-.38,2.195,2.839.19Z" transform="translate(10.055 -40.802)" fill="#263238"/>
      <path id="Path_53558" data-name="Path 53558" d="M324.155,280.04l-2.809-.19-.366,2.048,2.824.132Z" transform="translate(9.425 -37.171)" fill="#263238"/>
      <path id="Path_53559" data-name="Path 53559" d="M325.094,274.845l-2.838-.2-.366,2.078,2.838.132Z" transform="translate(9.847 -39.584)" fill="#263238"/>
      <path id="Path_53560" data-name="Path 53560" d="M336.189,272.64l-3.994-.19-.4,2.517,3.965.278Z" transform="translate(14.437 -40.598)" fill="#263238"/>
      <path id="Path_53561" data-name="Path 53561" d="M321.427,295.64l-2.751-.19-.556,3.1,2.751.278Z" transform="translate(8.101 -29.946)" fill="#263238"/>
      <path id="Path_53562" data-name="Path 53562" d="M330.63,282.247l3.877.176.278-1.639-3.892-.263Z" transform="translate(13.895 -36.861)" fill="#263238"/>
      <path id="Path_53563" data-name="Path 53563" d="M329,292.613l3.775.176.263-1.595-3.775-.263Z" transform="translate(13.14 -32.039)" fill="#263238"/>
      <path id="Path_53564" data-name="Path 53564" d="M329.81,287.427l3.833.176.263-1.609-3.819-.263Z" transform="translate(13.515 -34.447)" fill="#263238"/>
      <path id="Path_53565" data-name="Path 53565" d="M329.846,285.7l-2.824-.19-.322,1.814,2.868.132Z" transform="translate(12.075 -34.549)" fill="#263238"/>
      <path id="Path_53566" data-name="Path 53566" d="M332.705,293.4l-3.746-.176-.41,2.6,3.716.263Z" transform="translate(12.932 -30.978)" fill="#263238"/>
      <path id="Path_53567" data-name="Path 53567" d="M328.546,296.14l-.556,3.555,3.658.366.6-3.658Z" transform="translate(12.672 -29.626)" fill="#263238"/>
      <path id="Path_53568" data-name="Path 53568" d="M324.51,279.662l3.438.234.424-2.4-3.453-.146Z" transform="translate(11.06 -38.329)" fill="#263238"/>
      <path id="Path_53569" data-name="Path 53569" d="M325.668,271.937l.527-2.941-2.882-.146-.512,2.97Z" transform="translate(10.268 -42.266)" fill="#263238"/>
      <path id="Path_53570" data-name="Path 53570" d="M331.44,277.051l3.951.19.263-1.653-3.951-.278Z" transform="translate(14.27 -39.274)" fill="#263238"/>
      <path id="Path_53571" data-name="Path 53571" d="M332.25,272.222l4.009.19.468-2.868-4.038-.2Z" transform="translate(14.645 -42.039)" fill="#263238"/>
      <path id="Path_53572" data-name="Path 53572" d="M329.531,288.026l-2.882-.146-.439,2.473,2.926.2Z" transform="translate(11.848 -33.452)" fill="#263238"/>
      <path id="Path_53573" data-name="Path 53573" d="M326.6,287.881l-3.526-.161-.41,2.356,3.512.234Z" transform="translate(10.204 -33.526)" fill="#263238"/>
      <path id="Path_53574" data-name="Path 53574" d="M326.117,290.71l-.307,1.785,2.985.146.278-1.727Z" transform="translate(11.662 -32.141)" fill="#263238"/>
      <path id="Path_53575" data-name="Path 53575" d="M328.763,293.216l-3.014-.146-.439,2.5,3.058.2Z" transform="translate(11.431 -31.048)" fill="#263238"/>
      <path id="Path_53576" data-name="Path 53576" d="M321.74,295.28l3.541.249.424-2.458-3.556-.161Z" transform="translate(9.777 -31.122)" fill="#263238"/>
      <path id="Path_53577" data-name="Path 53577" d="M326.093,290.709l-3.526-.249-.336,1.917,3.541.161Z" transform="translate(10.004 -32.257)" fill="#263238"/>
      <path id="Path_53578" data-name="Path 53578" d="M323.15,287.191l3.512.161.322-1.844-3.5-.249Z" transform="translate(10.431 -34.665)" fill="#263238"/>
      <path id="Path_53579" data-name="Path 53579" d="M321.711,295.66l-.571,3.234,3.555.366.585-3.351Z" transform="translate(9.5 -29.848)" fill="#263238"/>
      <path id="Path_53580" data-name="Path 53580" d="M328.378,296.129l-3.073-.219-.585,3.409,3.117.307Z" transform="translate(11.158 -29.733)" fill="#263238"/>
      <path id="Path_53581" data-name="Path 53581" d="M327.874,280.309l-3.453-.249-.351,1.946,3.482.161Z" transform="translate(10.857 -37.074)" fill="#263238"/>
      <path id="Path_53582" data-name="Path 53582" d="M327.487,282.691,324,282.53l-.424,2.341,3.482.234Z" transform="translate(10.63 -35.93)" fill="#263238"/>
      <path id="Path_53583" data-name="Path 53583" d="M405.882,288.78s-3.438.322-9.291,5.077-29.117,45.358-29.117,45.358-21.113-13.168-26.454-16.826-9.613-10.418-12.554-14.427-3.482-4.55-7.491-4.814-6.935-2.926-7.477-1.068,1.068,2.678,2.136,3.2a8.136,8.136,0,0,0,2.926.541,10.242,10.242,0,0,1-7.213-1.609c-4.009-2.4-5.077-2.926-5.077-.263s2.926,6.95,5.077,9.613,14.427,3.746,14.427,3.746a227.828,227.828,0,0,0,14.968,24.874c8,11.222,25.108,23.25,29.922,21.64s30.185-33.389,37.135-42.212,16.095-19.241,13.885-25.108" transform="translate(2.612 -33.035)" fill="#fff" stroke="#263238" stroke-linecap="round" stroke-linejoin="round" stroke-width="1"/>
      <path id="Path_53584" data-name="Path 53584" d="M333.781,311.295c-2.092-2.619-3.892-5.3-5.355-7.316-2.926-4.009-3.482-4.55-7.491-4.814s-6.935-2.926-7.477-1.068,1.068,2.678,2.136,3.2a8.136,8.136,0,0,0,2.926.541,10.242,10.242,0,0,1-7.213-1.609c-4.009-2.4-5.077-2.926-5.077-.263s2.926,6.95,5.077,9.613,14.427,3.746,14.427,3.746.541,1.053,1.463,2.765a15.787,15.787,0,0,1,6.584-4.8Z" transform="translate(2.594 -29.023)" fill="#fff" stroke="#263238" stroke-linecap="round" stroke-linejoin="round" stroke-width="1"/>
    </g>
  </g>
</svg>
