<svg id="call" xmlns="http://www.w3.org/2000/svg" width="30" height="30" viewBox="0 0 30 30">
  <path id="Path_39753" data-name="Path 39753" d="M0,0H30V30H0Z" fill="none"/>
  <path id="Path_39754" data-name="Path 39754" d="M24.263,18.475a14.3,14.3,0,0,1-4.413-.7,1.222,1.222,0,0,0-1.262.3l-1.962,2.462A18.979,18.979,0,0,1,8.012,12L10.45,9.925a1.276,1.276,0,0,0,.3-1.275,13.941,13.941,0,0,1-.7-4.412A1.248,1.248,0,0,0,8.813,3H4.488C3.813,3,3,3.3,3,4.238A21.44,21.44,0,0,0,24.263,25.5,1.312,1.312,0,0,0,25.5,24.025V19.712a1.248,1.248,0,0,0-1.237-1.237Z" transform="translate(0.75 0.75)" fill="#14ab63"/>
</svg>
