<svg xmlns="http://www.w3.org/2000/svg" width="216.03" height="208" viewBox="0 0 216.03 208">
  <g id="e_commerce" transform="translate(-18.211 -28.88)">
    <g id="freepik--Floor--inject-3" transform="translate(18.211 112.251)">
      <path id="Path_54188" data-name="Path 54188" d="M201.614,226.74c-42.148-24.337-110.262-24.337-152.141,0s-41.651,63.793.5,88.125,110.267,24.337,152.141,0S243.767,251.077,201.614,226.74Z" transform="translate(-18.211 -208.488)" fill="#eee5cc"/>
    </g>
    <g id="freepik--Shadows--inject-3" transform="translate(32.697 151.264)">
      <path id="Path_54189" data-name="Path 54189" d="M443.4,338.449a12.39,12.39,0,0,1,11.224,0c3.091,1.792,3.073,4.7-.037,6.5a12.362,12.362,0,0,1-11.224,0C440.275,343.151,440.294,340.255,443.4,338.449Z" transform="translate(-259.267 -316.416)" fill="#e0e0e0"/>
      <path id="Path_54190" data-name="Path 54190" d="M160.965,317.189l-5.751-7.817a6.814,6.814,0,0,0-4.962-2.757l-8.476-.65-13.461-8.184,5.036-2.91a.464.464,0,0,0,0-.784l-2.093-1.193a2.729,2.729,0,0,0-2.711,0L79.181,321.437a.464.464,0,0,0,0,.784l2.042,1.179a2.72,2.72,0,0,0,2.725,0l21.427-12.375,13.28,7.617,1.736,4.888a7.719,7.719,0,0,0,7.269,5.129h12.394l8.411,4.855L168.787,321.7Z" transform="translate(-65.25 -292.534)" fill="#ded4b7"/>
      <path id="Path_54191" data-name="Path 54191" d="M325.665,323.4c-13.433-7.752-35.143-7.752-48.489,0-11.795,6.851-13.1,17.463-3.983,25.2-7.362-.464-14.984.928-20.605,4.21-9.864,5.733-9.813,15.026.116,20.758s25.994,5.728,35.835,0c7.845-4.563,9.409-11.377,4.725-16.859,11.307,1.639,23.752-.1,32.562-5.217C339.173,343.735,339.1,331.16,325.665,323.4Z" transform="translate(-154.335 -305.957)" fill="#ded4b7"/>
      <path id="Path_54192" data-name="Path 54192" d="M64.812,374.462a14.073,14.073,0,0,0-12.77,0c-3.514,2.042-3.5,5.357.042,7.4a14.073,14.073,0,0,0,12.77,0C68.367,379.818,68.353,376.5,64.812,374.462Z" transform="translate(-49.419 -335.611)" fill="#e0e0e0"/>
    </g>
    <g id="freepik--Windows--inject-3" transform="translate(37.595 28.88)">
      <path id="Path_54193" data-name="Path 54193" d="M136.521,30.3,139,28.88l.153,54.282,0,0L119.138,94.594l-.009-2.841-.149-51.441Z" transform="translate(-91.589 -28.88)" fill="#f0f0f0"/>
      <path id="Path_54194" data-name="Path 54194" d="M156.919,81.737,156.77,30.3l2.483-1.42.153,54.282,0,0-2.493-1.425Z" transform="translate(-111.837 -28.88)" opacity="0.1"/>
      <path id="Path_54195" data-name="Path 54195" d="M119.3,152.772l17.532-10.012,2.493,1.425-20.016,11.428Z" transform="translate(-91.76 -89.899)" opacity="0.2"/>
      <path id="Path_54196" data-name="Path 54196" d="M77.511,63.99l2.483-1.42.153,54.282,0,0L60.128,128.284l-.009-2.841L59.97,74Z" transform="translate(-59.97 -46.932)" fill="#f0f0f0"/>
      <path id="Path_54197" data-name="Path 54197" d="M97.909,115.427,97.76,63.99l2.483-1.42.153,54.282,0,0L97.9,115.431Z" transform="translate(-80.219 -46.932)" opacity="0.1"/>
      <path id="Path_54198" data-name="Path 54198" d="M60.29,186.462,77.822,176.45l2.493,1.425L60.3,189.3Z" transform="translate(-60.141 -107.95)" opacity="0.2"/>
    </g>
    <g id="freepik--Clock--inject-3" transform="translate(133.75 37.807)">
      <path id="Path_54199" data-name="Path 54199" d="M293.679,56.866h0a1.823,1.823,0,0,1-.149-.116h0Z" transform="translate(-281.271 -52.74)" fill="none"/>
      <path id="Path_54200" data-name="Path 54200" d="M295.608,58.5h0Z" transform="translate(-282.369 -53.678)" fill="none"/>
      <path id="Path_54201" data-name="Path 54201" d="M282.759,51.472a1.111,1.111,0,0,1-.209-.042l.2.037Z" transform="translate(-275.388 -49.889)" fill="none"/>
      <path id="Path_54202" data-name="Path 54202" d="M283.83,51.716l-.19-.046.181.046Z" transform="translate(-275.972 -50.018)" fill="none"/>
      <path id="Path_54203" data-name="Path 54203" d="M288.36,53.47Z" transform="translate(-278.501 -50.983)" fill="none"/>
      <path id="Path_54204" data-name="Path 54204" d="M302.38,106.459q.2-.065.39-.139Q302.58,106.4,302.38,106.459Z" transform="translate(-286.013 -79.3)" fill="none"/>
      <path id="Path_54205" data-name="Path 54205" d="M305.574,70.774h0l-.084-.144h0Z" transform="translate(-287.679 -60.177)" fill="none"/>
      <path id="Path_54206" data-name="Path 54206" d="M304.452,68.942l-.1-.162h0Z" transform="translate(-287.068 -59.186)" fill="none"/>
      <path id="Path_54207" data-name="Path 54207" d="M297.333,60.084,297.24,60Z" transform="translate(-283.259 -54.481)" fill="none"/>
      <path id="Path_54208" data-name="Path 54208" d="M298.635,61.415l0,0,0,0Z" transform="translate(-284.004 -55.237)" fill="none"/>
      <path id="Path_54209" data-name="Path 54209" d="M301.63,64.94Z" transform="translate(-285.611 -57.128)" fill="none"/>
      <path id="Path_54210" data-name="Path 54210" d="M300,107a2.675,2.675,0,0,0,.432-.051C300.283,106.973,300.144,106.973,300,107Z" transform="translate(-284.738 -79.638)" fill="none"/>
      <path id="Path_54211" data-name="Path 54211" d="M282.81,99c.218.209.436.418.664.613C283.246,99.4,283.028,99.19,282.81,99Z" transform="translate(-275.527 -75.378)" fill="none"/>
      <path id="Path_54212" data-name="Path 54212" d="M289.65,104.23c.209.121.413.227.617.33C290.063,104.457,289.859,104.351,289.65,104.23Z" transform="translate(-279.192 -78.181)" fill="none"/>
      <path id="Path_54213" data-name="Path 54213" d="M288,103.2a8.8,8.8,0,0,0,.761.464C288.511,103.53,288.255,103.367,288,103.2Z" transform="translate(-278.308 -77.629)" fill="none"/>
      <path id="Path_54214" data-name="Path 54214" d="M296.38,106.84l.223.042Z" transform="translate(-282.798 -79.579)" fill="none"/>
      <path id="Path_54215" data-name="Path 54215" d="M307.548,74.46l-.028-.06h0Z" transform="translate(-288.767 -62.197)" fill="none"/>
      <path id="Path_54216" data-name="Path 54216" d="M277.62,51.3Z" transform="translate(-272.746 -49.82)" fill="none"/>
      <path id="Path_54217" data-name="Path 54217" d="M280.625,51.19H280.6Z" transform="translate(-274.284 -49.761)" fill="none"/>
      <path id="Path_54218" data-name="Path 54218" d="M278.721,51.17Z" transform="translate(-273.271 -49.75)" fill="none"/>
      <path id="Path_54219" data-name="Path 54219" d="M281.748,51.288h0l-.218-.028h.195Z" transform="translate(-274.841 -49.798)" fill="none"/>
      <path id="Path_54220" data-name="Path 54220" d="M276.079,51.62Z" transform="translate(-271.878 -49.991)" fill="none"/>
      <path id="Path_54221" data-name="Path 54221" d="M275.034,52l-.074.028.065-.028Z" transform="translate(-271.321 -50.195)" fill="none"/>
      <path id="Path_54222" data-name="Path 54222" d="M291.838,55.533l-.028-.023Z" transform="translate(-280.349 -52.076)" fill="none"/>
      <path id="Path_54223" data-name="Path 54223" d="M311.941,97.57a1.66,1.66,0,0,1-.051.3A.834.834,0,0,1,311.941,97.57Z" transform="translate(-291.109 -74.612)" fill="none"/>
      <path id="Path_54224" data-name="Path 54224" d="M311.364,99.81c-.023.088-.046.176-.074.265C311.318,99.986,311.341,99.9,311.364,99.81Z" transform="translate(-290.787 -75.812)" fill="none"/>
      <path id="Path_54225" data-name="Path 54225" d="M311.655,98.73a1.119,1.119,0,0,1-.065.274C311.613,98.916,311.636,98.823,311.655,98.73Z" transform="translate(-290.948 -75.234)" fill="none"/>
      <path id="Path_54226" data-name="Path 54226" d="M310.627,101.82l-.1.232Z" transform="translate(-290.38 -76.889)" fill="none"/>
      <path id="Path_54227" data-name="Path 54227" d="M311.018,100.84c-.028.084-.056.167-.088.251C310.962,101.007,310.99,100.914,311.018,100.84Z" transform="translate(-290.594 -76.364)" fill="none"/>
      <path id="Path_54228" data-name="Path 54228" d="M310.181,102.74c-.037.074-.07.149-.111.218C310.112,102.889,310.144,102.814,310.181,102.74Z" transform="translate(-290.133 -77.382)" fill="none"/>
      <path id="Path_54229" data-name="Path 54229" d="M310.18,80.9v0Z" transform="translate(-290.192 -65.68)" fill="none"/>
      <path id="Path_54230" data-name="Path 54230" d="M289.79,54.24c.149.084.292.172.436.265C290.082,54.412,289.939,54.324,289.79,54.24Z" transform="translate(-279.267 -51.395)" fill="none"/>
      <path id="Path_54231" data-name="Path 54231" d="M312.228,95l-.028.395Z" transform="translate(-291.275 -73.235)" fill="none"/>
      <path id="Path_54232" data-name="Path 54232" d="M312.092,96.31l-.042.343Z" transform="translate(-291.194 -73.937)" fill="none"/>
      <path id="Path_54233" data-name="Path 54233" d="M312.32,93.26v0Z" transform="translate(-291.339 -72.303)" fill="none"/>
      <path id="Path_54234" data-name="Path 54234" d="M312.258,91.23v-.06A.285.285,0,0,0,312.258,91.23Z" transform="translate(-291.305 -71.183)" fill="none"/>
      <path id="Path_54235" data-name="Path 54235" d="M312,88.866v0Z" transform="translate(-291.167 -69.886)" fill="none"/>
      <path id="Path_54236" data-name="Path 54236" d="M307.81,106l.153-.158Z" transform="translate(-288.922 -79.043)" fill="none"/>
      <path id="Path_54237" data-name="Path 54237" d="M311.55,85.925v0Z" transform="translate(-290.926 -68.338)" fill="none"/>
      <path id="Path_54238" data-name="Path 54238" d="M311.771,87.163h0a1.585,1.585,0,0,0-.051-.283h0C311.739,86.977,311.753,87.07,311.771,87.163Z" transform="translate(-291.017 -68.884)" fill="none"/>
      <path id="Path_54239" data-name="Path 54239" d="M309.691,103.6c-.037.07-.079.139-.121.2C309.612,103.739,309.654,103.67,309.691,103.6Z" transform="translate(-289.865 -77.843)" fill="none"/>
      <path id="Path_54240" data-name="Path 54240" d="M306.606,107l-.176.13Z" transform="translate(-288.183 -79.665)" fill="none"/>
      <path id="Path_54241" data-name="Path 54241" d="M308.584,105.15a1.751,1.751,0,0,1-.144.172A1.755,1.755,0,0,0,308.584,105.15Z" transform="translate(-289.26 -78.674)" fill="none"/>
      <path id="Path_54242" data-name="Path 54242" d="M309.16,104.41c-.042.06-.084.125-.13.186C309.076,104.535,309.118,104.47,309.16,104.41Z" transform="translate(-289.576 -78.277)" fill="none"/>
      <path id="Path_54243" data-name="Path 54243" d="M307.3,106.46a1.569,1.569,0,0,1-.162.144,1.571,1.571,0,0,0,.162-.144Z" transform="translate(-288.563 -79.375)" fill="none"/>
      <path id="Path_54244" data-name="Path 54244" d="M274.413,54.93l-.153.1Z" transform="translate(-270.946 -51.765)" fill="none"/>
      <path id="Path_54245" data-name="Path 54245" d="M271.118,80.5c-.1-.269-.2-.538-.288-.808C270.918,79.959,271.016,80.228,271.118,80.5Z" transform="translate(-269.108 -65.032)" fill="none"/>
      <path id="Path_54246" data-name="Path 54246" d="M270.485,78.586h0c-.093-.279-.176-.557-.255-.836h0C270.309,78.029,270.392,78.33,270.485,78.586Z" transform="translate(-268.786 -63.992)" fill="none"/>
      <path id="Path_54247" data-name="Path 54247" d="M289.255,76.733a4.407,4.407,0,0,1-.441.051h-.784a5.311,5.311,0,0,1-.65-.065,2.109,2.109,0,0,1-.436-.079L286.8,76.6l-.306-.074c-.172-.046-.348-.1-.525-.162l-.107-.037-.427-.162-.162-.07-.464-.214-.172-.084c-.2-.107-.408-.214-.617-.334s-.511-.311-.766-.464l-.125-.084c-.241-.167-.464-.339-.715-.52l-.139-.107c-.237-.19-.464-.381-.706-.585l-.06-.056c-.227-.2-.464-.408-.664-.617-.037-.037-.074-.07-.107-.107-.167-.162-.334-.334-.5-.506l-.028-.028-.464-.506-.093-.111c-.246-.283-.464-.571-.715-.868l-.074-.1c-.186-.241-.362-.464-.538-.733l-.079-.107c-.167-.241-.33-.464-.492-.733l-.111-.176c-.13-.2-.255-.413-.376-.617-.028-.046-.056-.088-.079-.135-.139-.237-.274-.464-.4-.719l-.093-.181c-.1-.195-.2-.39-.3-.585-.033-.065-.065-.13-.093-.195-.121-.246-.232-.492-.344-.743l-.042-.107c-.1-.227-.19-.464-.279-.678-.028-.065-.051-.135-.079-.2-.1-.265-.2-.534-.288-.808a.1.1,0,0,0-.023-.065c-.093-.279-.176-.557-.255-.831a1.675,1.675,0,0,0-.046-.162c-.088-.325-.167-.65-.237-.97a.835.835,0,0,0-.046-.214l-.07-.381a1.754,1.754,0,0,0-.046-.265c-.014-.088-.042-.26-.06-.39s-.023-.153-.033-.232c-.037-.279-.065-.557-.084-.831v-.176c0-.283-.028-.566-.028-.845a7.746,7.746,0,0,1,1.666-5.264,7.869,7.869,0,0,1,5.5,1.212c5.357,3.091,9.692,10.593,9.674,16.752a7.732,7.732,0,0,1-1.662,5.259l-.139.032Z" transform="translate(-270.994 -50.916)" fill="none"/>
      <path id="Path_54248" data-name="Path 54248" d="M275.506,89.677c-.13-.2-.255-.408-.376-.617C275.251,89.269,275.376,89.473,275.506,89.677Z" transform="translate(-271.412 -70.052)" fill="none"/>
      <path id="Path_54249" data-name="Path 54249" d="M279.445,95.248c-.246-.283-.464-.571-.715-.868C278.962,94.677,279.194,94.965,279.445,95.248Z" transform="translate(-273.341 -72.903)" fill="none"/>
      <path id="Path_54250" data-name="Path 54250" d="M273.25,85.58c.1.195.195.39.3.58C273.445,85.97,273.347,85.775,273.25,85.58Z" transform="translate(-270.405 -68.188)" fill="none"/>
      <path id="Path_54251" data-name="Path 54251" d="M274.534,87.949h0c-.139-.237-.274-.464-.4-.719h0A5.314,5.314,0,0,0,274.534,87.949Z" transform="translate(-270.876 -69.072)" fill="none"/>
      <path id="Path_54252" data-name="Path 54252" d="M303.857,105.82h.033c-.13.07-.265.135-.4.195h0C303.62,105.941,303.727,105.9,303.857,105.82Z" transform="translate(-286.608 -79.033)" fill="none"/>
      <path id="Path_54253" data-name="Path 54253" d="M276.677,91.513c-.167-.241-.33-.464-.487-.733C276.348,91.026,276.51,91.272,276.677,91.513Z" transform="translate(-271.98 -70.974)" fill="none"/>
      <path id="Path_54254" data-name="Path 54254" d="M280.914,96.991c-.153-.162-.3-.33-.464-.5h0C280.612,96.662,280.761,96.829,280.914,96.991Z" transform="translate(-274.262 -74.033)" fill="none"/>
      <path id="Path_54255" data-name="Path 54255" d="M285.033,100.952c-.251-.2-.5-.4-.743-.622a.276.276,0,0,0,.037.037C284.559,100.567,284.8,100.762,285.033,100.952Z" transform="translate(-276.32 -76.091)" fill="none"/>
      <path id="Path_54256" data-name="Path 54256" d="M286.8,102.32l.093.06c-.3-.2-.6-.422-.9-.65l.088.07C286.325,101.99,286.562,102.162,286.8,102.32Z" transform="translate(-277.236 -76.841)" fill="none"/>
      <path id="Path_54257" data-name="Path 54257" d="M304.45,105.74Z" transform="translate(-287.122 -78.99)" fill="none"/>
      <path id="Path_54258" data-name="Path 54258" d="M282.007,98.146c-.167-.162-.334-.334-.5-.506C281.672,97.807,281.84,97.983,282.007,98.146Z" transform="translate(-274.83 -74.65)" fill="none"/>
      <path id="Path_54259" data-name="Path 54259" d="M291.7,105.275h0c-.19-.084-.376-.167-.566-.265l.1.051Q291.469,105.177,291.7,105.275Z" transform="translate(-279.985 -78.599)" fill="none"/>
      <path id="Path_54260" data-name="Path 54260" d="M293.126,105.9l.107.037c.172.06.344.111.515.162a9.92,9.92,0,0,1-1.058-.367h0Z" transform="translate(-280.821 -78.984)" fill="none"/>
      <path id="Path_54261" data-name="Path 54261" d="M297.926,107.07h0Z" transform="translate(-283.462 -79.702)" fill="none"/>
      <path id="Path_54262" data-name="Path 54262" d="M299.1,107.08h-.562C298.754,107.089,298.921,107.089,299.1,107.08Z" transform="translate(-283.955 -79.708)" fill="none"/>
      <path id="Path_54263" data-name="Path 54263" d="M301.694,106.67c-.158.042-.32.079-.464.111h0C301.383,106.749,301.541,106.712,301.694,106.67Z" transform="translate(-285.397 -79.488)" fill="none"/>
      <path id="Path_54264" data-name="Path 54264" d="M295.727,106.7a.735.735,0,0,1-.167-.042h.037Z" transform="translate(-282.359 -79.483)" fill="none"/>
      <path id="Path_54265" data-name="Path 54265" d="M277.948,93.313h0c-.186-.241-.362-.464-.538-.733h0C277.586,92.835,277.763,93.077,277.948,93.313Z" transform="translate(-272.634 -71.938)" fill="none"/>
      <path id="Path_54266" data-name="Path 54266" d="M271.461,57.83l-.111.158Z" transform="translate(-269.387 -53.319)" fill="none"/>
      <path id="Path_54267" data-name="Path 54267" d="M271.981,57.14c-.042.051-.084.1-.121.149A.85.85,0,0,1,271.981,57.14Z" transform="translate(-269.66 -52.949)" fill="none"/>
      <path id="Path_54268" data-name="Path 54268" d="M270.992,58.58l-.1.167Z" transform="translate(-269.14 -53.721)" fill="none"/>
      <path id="Path_54269" data-name="Path 54269" d="M273.119,55.92l-.139.125Z" transform="translate(-270.26 -52.295)" fill="none"/>
      <path id="Path_54270" data-name="Path 54270" d="M273.749,55.4l-.149.111Z" transform="translate(-270.592 -52.017)" fill="none"/>
      <path id="Path_54271" data-name="Path 54271" d="M272.53,56.5c-.042.046-.088.088-.13.139C272.442,56.588,272.488,56.546,272.53,56.5Z" transform="translate(-269.949 -52.606)" fill="none"/>
      <path id="Path_54272" data-name="Path 54272" d="M271.62,81.87c.088.227.181.464.279.678C271.8,82.32,271.708,82.1,271.62,81.87Z" transform="translate(-269.531 -66.2)" fill="none"/>
      <path id="Path_54273" data-name="Path 54273" d="M272.31,83.56c.111.251.223.5.344.743C272.533,84.057,272.421,83.811,272.31,83.56Z" transform="translate(-269.901 -67.105)" fill="none"/>
      <path id="Path_54274" data-name="Path 54274" d="M274.677,74.032c-.153-.162-.3-.33-.464-.5h0l-.1-.111h0c-.246-.283-.464-.571-.715-.868l-.074-.1h0c-.186-.237-.362-.464-.538-.729h0l-.079-.107h0c-.167-.241-.33-.464-.487-.733-.042-.06-.079-.121-.116-.181h0c-.13-.2-.255-.408-.376-.617a1.208,1.208,0,0,1-.079-.13h0c-.139-.237-.274-.464-.4-.719h0l-.093-.186c-.1-.19-.2-.385-.3-.58l-.093-.195c-.121-.246-.232-.492-.344-.743l-.042-.107c-.1-.227-.19-.464-.279-.678l-.079-.2h0c-.1-.269-.2-.538-.288-.808a.1.1,0,0,0-.023-.065h0c-.093-.279-.176-.557-.255-.836h0l-.042-.158c-.093-.325-.172-.65-.241-.97h0a.836.836,0,0,0-.046-.214l-.07-.381a2.4,2.4,0,0,0-.042-.241h0a2.829,2.829,0,0,0-.06-.39c-.019-.13-.023-.153-.033-.232-.037-.279-.06-.557-.084-.831v-.176c0-.283-.028-.566-.028-.845v-.771a1.338,1.338,0,0,1,.028-.334c.028-.107,0-.139.023-.209s0-.214.037-.316a.708.708,0,0,0,.037-.214c.009-.07.033-.19.051-.283s.033-.144.046-.218.042-.172.06-.26.042-.139.06-.209.046-.162.074-.241l.07-.2c.028-.074.051-.153.084-.227s.056-.125.079-.19.06-.144.093-.214.06-.121.093-.181.065-.135.1-.2l.1-.167.111-.19.111-.158c.042-.056.079-.116.125-.172s.079-.1.121-.149.084-.107.13-.158.088-.093.13-.139l.139-.144.139-.125.149-.13.149-.111.158-.116.153-.1a4.8,4.8,0,0,1,1.555-.627,7.828,7.828,0,0,0-1.666,5.264c0,.279,0,.562.028.845v.176a6.382,6.382,0,0,0,.084.831,1.858,1.858,0,0,0,.033.232c.009.074.037.26.06.39s.028.176.046.265l.07.381a1.264,1.264,0,0,0,.046.214c.07.32.149.645.237.97a1.649,1.649,0,0,1,.046.162c.079.274.162.552.255.831a.1.1,0,0,0,.023.065c.088.274.186.543.288.808.028.07.051.139.079.2.088.227.181.464.279.678l.042.107c.111.251.223.5.344.743.028.065.06.13.093.195.1.195.195.39.3.585l.093.181c.13.241.265.464.4.719.023.046.051.088.079.135.121.2.246.413.376.617l.111.176c.162.246.325.492.492.733l.079.107c.176.251.353.492.538.733l.074.1c.232.3.464.585.715.868l.093.111.464.506.028.028c.162.172.33.343.5.506.032.037.07.07.107.107.218.209.436.418.664.617l.06.056c.232.2.464.395.706.585l.139.107c.232.181.464.353.715.52l.125.084c.255.167.511.33.766.464s.413.227.617.334l.172.084.464.214.162.07.427.162.107.037c.176.06.353.116.525.162l.306.074.139.037c.149.032.292.056.436.079a5.31,5.31,0,0,0,.65.065h.784a4.409,4.409,0,0,0,.441-.051h.135l.139-.032a4.758,4.758,0,0,1-1.2.984h0l-.046.023h-.033c-.116.065-.237.121-.357.176h0l-.125.051q-.19.079-.39.139h-.07c-.153.042-.311.079-.464.107h-.125c-.144,0-.283.037-.432.051H282.2l-.353-.042-.223-.042-.214-.042-.13-.032h-.037l-.274-.065c-.172-.051-.344-.1-.515-.162l-.107-.037-.432-.162h0l-.153-.065h0q-.232-.1-.464-.209l-.1-.051a.371.371,0,0,1-.074-.037c-.2-.1-.408-.209-.617-.33s-.511-.311-.761-.464H277.7l-.093-.06c-.241-.167-.464-.339-.715-.52l-.088-.07-.051-.037c-.237-.19-.464-.385-.706-.585a.28.28,0,0,1-.037-.037h-.023c-.227-.195-.464-.4-.664-.613l-.107-.107c-.167-.162-.334-.334-.5-.506Z" transform="translate(-268.026 -51.074)" fill="#ebebeb"/>
      <path id="Path_54275" data-name="Path 54275" d="M306.7,86.16v.6l1.685.97v-.6Z" transform="translate(-288.328 -68.498)" fill="#fff"/>
      <path id="Path_54276" data-name="Path 54276" d="M277.05,59.04l-.26.362,1.458,1.815.26-.367Z" transform="translate(-272.301 -53.967)" fill="#fff"/>
      <path id="Path_54277" data-name="Path 54277" d="M290.992,69.785c0,6.16-4.377,8.643-9.748,5.57s-9.678-10.616-9.664-16.776,4.377-8.643,9.748-5.57S291.011,63.625,290.992,69.785Zm-14.111-5.946a.58.58,0,0,0,.241.316.218.218,0,0,0,.1.032l4.122.325a.135.135,0,0,0,.153-.06l2.7-4.572a.518.518,0,0,0-.232-.562c-.093-.051-.186-.046-.232.032l-2.65,4.5-4.062-.32c-.13,0-.195.13-.139.316m7.928-4.038.845-1.188-.464-.557-.812,1.2.464.557m.348,15.03.464-.037-.882-2.182-.464.037.836,2.163m-10.913-9.7,1.462-.125-.255-.668-1.467.125.26.668m14.083,8.132.26-.367-1.458-1.815-.26.367,1.458,1.815M274.258,55.084l-.26.362,1.458,1.815.26-.367-1.458-1.81m12.881,8.94L288.6,63.9l-.26-.664-1.462.121.26.668m-9.748-10.491-.464.037.836,2.163.464-.037-.84-2.163m-.042,16.776.849-1.193-.464-.552-.849,1.188.464.557m-2.655-9.655v-.58l-1.685-.97V59.7l1.685.975m14.877,7.993-1.685-.975v.6l1.685.97v-.594M281,73.549l.515.3V71.911l-.515-.3v1.94m.571-18.734-.515-.3v1.959l.515.3v-1.94" transform="translate(-269.51 -50.03)" fill="#e0e0e0"/>
      <path id="Path_54278" data-name="Path 54278" d="M291.985,57.78l0,1.936.515.3.009-1.94Z" transform="translate(-280.44 -53.292)" fill="#fff"/>
      <path id="Path_54279" data-name="Path 54279" d="M300,65.4l-.849,1.188.45.557.845-1.188Z" transform="translate(-284.282 -57.375)" fill="#fff"/>
      <path id="Path_54280" data-name="Path 54280" d="M306,76.56l-1.462.121.26.668,1.462-.125Z" transform="translate(-287.17 -63.355)" fill="#fff"/>
      <path id="Path_54281" data-name="Path 54281" d="M304.75,93.47l-.26.367,1.458,1.815.26-.367Z" transform="translate(-287.143 -72.415)" fill="#fff"/>
      <path id="Path_54282" data-name="Path 54282" d="M299.52,96.8l-.45.037L299.906,99l.45-.037Z" transform="translate(-284.239 -74.199)" fill="#fff"/>
      <path id="Path_54283" data-name="Path 54283" d="M291.885,94.6l0,1.94.515.3,0-1.936Z" transform="translate(-280.387 -73.021)" fill="#fff"/>
      <path id="Path_54284" data-name="Path 54284" d="M283.889,88.04l-.849,1.188.446.557.849-1.193Z" transform="translate(-275.65 -69.506)" fill="#fff"/>
      <path id="Path_54285" data-name="Path 54285" d="M278.192,78.94l-1.462.125.26.668,1.462-.125Z" transform="translate(-272.269 -64.63)" fill="#fff"/>
      <path id="Path_54286" data-name="Path 54286" d="M274.65,67.66v.594l1.685.975v-.6Z" transform="translate(-271.155 -58.586)" fill="#fff"/>
      <path id="Path_54287" data-name="Path 54287" d="M283.586,55.66l-.446.037.836,2.163.45-.037Z" transform="translate(-275.704 -52.156)" fill="#fff"/>
      <path id="Path_54288" data-name="Path 54288" d="M287.4,77.593a.218.218,0,0,0-.1-.032h-.084l-4.062-.32c-.13,0-.195.13-.139.316a.58.58,0,0,0,.241.316.218.218,0,0,0,.1.032l4.122.325h0c.13,0,.19-.125.135-.311a.557.557,0,0,0-.214-.325Z" transform="translate(-275.627 -63.719)" fill="#fff"/>
      <path id="Path_54289" data-name="Path 54289" d="M294.973,68.071c-.093-.051-.186-.046-.232.032l-2.65,4.5h.084a.218.218,0,0,1,.1.032.557.557,0,0,1,.237.316c.056.186,0,.325-.135.311h0a.135.135,0,0,0,.153-.06l2.7-4.572a.455.455,0,0,0-.255-.557Z" transform="translate(-280.499 -58.788)" fill="#f5f5f5"/>
      <path id="Path_54290" data-name="Path 54290" d="M289.187,75.446l.153-.121a1.569,1.569,0,0,0,.162-.144c.051-.042.1-.084.149-.13l.153-.158.139-.149a1.759,1.759,0,0,0,.144-.172c.042-.051.088-.1.13-.158s.088-.125.13-.186.084-.111.121-.172.084-.135.121-.2.079-.121.111-.181.074-.144.111-.218l.1-.195.1-.232c.028-.07.06-.135.088-.2s.06-.167.088-.251.056-.144.079-.214.051-.176.074-.265.046-.149.065-.227.046-.181.065-.274l.056-.241a1.66,1.66,0,0,1,.051-.3l.042-.241.042-.343.028-.218.028-.395v-.8c0-.3,0-.6-.028-.928h0a.289.289,0,0,1,0-.06c-.023-.339-.051-.682-.1-1.03h0v-.116l-.084-.562h0a1.585,1.585,0,0,0-.051-.283h0c-.028-.135-.051-.274-.079-.413h0V65.6a20.737,20.737,0,0,0-.622-2.293h0a23.673,23.673,0,0,0-1.207-2.957l-.028-.06h0c-.269-.543-.552-1.082-.859-1.606h0l-.084-.144h0c-.139-.237-.283-.464-.427-.7l-.1-.162h0c-.4-.617-.817-1.212-1.263-1.782h0a20.854,20.854,0,0,0-1.393-1.611h0c-.181-.195-.367-.381-.552-.571h0l-.093-.084c-.241-.241-.487-.464-.743-.7h-.028c-.26-.232-.529-.464-.8-.668h0l-.144-.116h0c-.255-.195-.511-.381-.775-.557h0l-.028-.023c-.167-.111-.334-.223-.5-.325s-.288-.181-.436-.265c-.223-.13-.464-.246-.664-.357h0a10.931,10.931,0,0,0-1.982-.78h0l-.181-.046-.288-.07h0l-.2-.037-.269-.046h-.218l-.343-.037h-.135a6.687,6.687,0,0,0-.747,0h-.107a3.023,3.023,0,0,0-.464.051h0a4.888,4.888,0,0,0-.65.139h-.079c-.144.046-.283.1-.422.153h0l-.065.028c-.19.084-.381.172-.562.274h0l2.572-1.495.056-.032.07-.037c.125-.065.255-.13.385-.186a.552.552,0,0,1,.074-.037h.06q.232-.093.464-.167h0a5.05,5.05,0,0,1,.525-.121h.144a4.113,4.113,0,0,1,.464-.056h.1a5.308,5.308,0,0,1,.608,0h.4a2.745,2.745,0,0,1,.427.051h0l.464.088.149.037.3.074h.028c.186.051.376.107.566.172l.116.046c.153.051.306.111.464.176l.065.023.116.051c.162.07.33.149.5.227l.19.093c.218.111.464.227.664.357s.552.334.826.52l.139.093c.26.176.52.362.775.557l.144.116c.26.2.515.413.766.636a.4.4,0,0,1,.065.06c.246.214.464.436.719.668l.07.065.046.046c.181.176.357.357.534.548l.028.028c.167.181.33.362.492.548l.046.051.056.07c.265.306.525.617.775.928v.028a.777.777,0,0,1,.056.074q.3.39.585.794l.06.079a.19.19,0,0,1,.023.042c.186.255.362.52.534.789a.421.421,0,0,0,.051.074l.07.121c.139.218.274.464.408.664l.06.1a.187.187,0,0,1,0,.042c.153.26.3.52.436.78l.033.065.07.13.32.631c0,.042.042.088.065.13s.023.056.037.079c.125.269.251.538.367.808h0a.621.621,0,0,0,.033.084c.107.246.2.492.3.738,0,.042.033.079.051.121a.517.517,0,0,1,.033.1c.111.288.218.58.316.873h0v.051q.153.464.279.928l.033.116a.3.3,0,0,1,0,.06c.093.353.181.7.255,1.049a.683.683,0,0,1,0,.093l.028.139c.028.135.051.274.079.408s.032.19.051.288.042.283.06.422a1.616,1.616,0,0,0,.033.2.21.21,0,0,0,0,.051c.037.3.065.6.088.9v.19c0,.306.033.608.033.928,0,3.31-1.179,5.635-3.059,6.731l-2.572,1.495.162-.107c.056-.032.111-.065.162-.1Z" transform="translate(-270.764 -48.111)" fill="#ebebeb"/>
      <path id="Path_54291" data-name="Path 54291" d="M267.12,58.634c0,6.656,4.642,14.766,10.458,18.1,3,1.731,5.709,1.857,7.627.627a1.913,1.913,0,0,0,.162-.1l.176-.13.153-.121a1.57,1.57,0,0,0,.162-.144c.051-.042.1-.084.149-.13l.153-.158.139-.149a1.755,1.755,0,0,0,.144-.172c.042-.051.088-.1.13-.158s.088-.125.13-.186.084-.111.121-.172.084-.135.121-.2.079-.121.111-.181.074-.144.111-.218l.1-.195.1-.232c.028-.07.06-.135.088-.2s.06-.167.088-.251.056-.144.079-.214.051-.176.074-.265.046-.149.065-.227.046-.181.065-.274l.056-.241a1.66,1.66,0,0,1,.051-.3l.042-.241.042-.343.028-.218.028-.395v-.8c0-.3,0-.6-.028-.928v-.06c-.023-.339-.051-.682-.1-1.03V68.6l-.084-.562a1.585,1.585,0,0,0-.051-.283c-.019-.1-.051-.274-.079-.413v-.065a20.738,20.738,0,0,0-.622-2.293h0a23.669,23.669,0,0,0-1.207-2.957l-.028-.06c-.269-.543-.552-1.082-.859-1.606l-.084-.144c-.139-.237-.283-.464-.427-.7l-.1-.162c-.4-.617-.817-1.212-1.263-1.782h0a20.86,20.86,0,0,0-1.393-1.611h0c-.181-.195-.367-.381-.552-.571l-.093-.084c-.241-.241-.487-.464-.743-.7h-.028c-.26-.232-.529-.464-.8-.668a1.818,1.818,0,0,1-.149-.116c-.255-.195-.511-.381-.775-.557l-.028-.023c-.167-.111-.334-.223-.5-.325s-.288-.181-.436-.265c-.223-.13-.464-.246-.664-.357h0a10.932,10.932,0,0,0-1.982-.78l-.19-.046-.288-.07a1.11,1.11,0,0,1-.209-.042l-.269-.046-.218-.028-.343-.037h-.135a6.69,6.69,0,0,0-.747,0h-.121a3.022,3.022,0,0,0-.464.051h0a4.889,4.889,0,0,0-.65.139h-.079c-.144.046-.283.1-.422.153l-.074.028c-.19.084-.381.172-.562.274C268.3,52.989,267.129,55.31,267.12,58.634Zm6.68,14.148-.028-.032c-.153-.162-.3-.33-.464-.5l-.1-.111c-.246-.283-.464-.571-.715-.868l-.074-.1c-.186-.241-.362-.464-.538-.733l-.079-.107c-.167-.241-.33-.464-.487-.733-.042-.06-.079-.121-.116-.181-.13-.2-.255-.408-.376-.617a1.213,1.213,0,0,1-.079-.13c-.139-.237-.274-.464-.4-.719l-.093-.186c-.1-.19-.2-.385-.3-.58l-.093-.195c-.121-.246-.232-.492-.343-.743l-.042-.107c-.1-.227-.19-.464-.279-.678l-.079-.2c-.1-.269-.2-.538-.288-.808a.1.1,0,0,0-.023-.065c-.093-.279-.176-.557-.255-.836l-.042-.158c-.093-.325-.172-.65-.241-.97a.835.835,0,0,0-.046-.214l-.07-.381a2.4,2.4,0,0,0-.042-.241c-.009-.084-.046-.274-.065-.413s-.023-.153-.032-.232c-.037-.279-.06-.557-.084-.831v-.176c0-.283-.028-.566-.028-.845v-.771a1.337,1.337,0,0,1,.028-.334c.028-.107,0-.139.023-.209s0-.214.037-.316a.708.708,0,0,0,.037-.214c.009-.07.033-.19.051-.283s.033-.144.046-.218.042-.172.06-.26.042-.139.06-.209.046-.162.074-.241l.07-.2c.028-.074.051-.153.084-.227s.056-.125.079-.19.06-.144.093-.214.06-.121.093-.181.065-.135.1-.2l.1-.167.111-.19.111-.158c.042-.056.079-.116.125-.172s.079-.1.121-.149.084-.107.13-.158.088-.093.13-.139l.139-.144.139-.125.149-.13.149-.111.158-.116.153-.1a4.8,4.8,0,0,1,1.555-.627,7.869,7.869,0,0,1,5.5,1.212c5.357,3.091,9.692,10.593,9.674,16.752a7.732,7.732,0,0,1-1.662,5.259,4.758,4.758,0,0,1-1.2.984h0l-.046.023c-.13.07-.265.135-.4.195l-.125.051q-.19.079-.39.139h-.07c-.158.042-.32.079-.464.111H282.8c-.144,0-.283.037-.432.051h-1.1l-.353-.042-.223-.042-.214-.042a.734.734,0,0,1-.167-.042l-.274-.065a9.925,9.925,0,0,1-1.058-.367l-.153-.065c-.19-.084-.376-.167-.566-.265a.371.371,0,0,1-.074-.037c-.2-.1-.408-.209-.617-.33s-.511-.311-.761-.464h-.037c-.3-.2-.6-.422-.9-.65l-.051-.037c-.251-.2-.5-.4-.743-.622h-.023c-.227-.195-.464-.4-.664-.613l-.107-.107C274.129,73.126,273.962,72.949,273.8,72.782Z" transform="translate(-267.12 -49.792)" fill="#fff"/>
    </g>
    <g id="freepik--Pictures--inject-3" transform="translate(204.603 55.779)">
      <path id="Path_54292" data-name="Path 54292" d="M426.058,143.34l14.19,8.193-.032,10.843-14.185-8.193Z" transform="translate(-423.12 -117.109)" fill="none"/>
      <path id="Path_54293" data-name="Path 54293" d="M424.542,142.472l-.028,10.843-1.314.766.032-12.361Z" transform="translate(-421.603 -116.241)" fill="#f0f0f0"/>
      <path id="Path_54294" data-name="Path 54294" d="M438.7,174.893l0,1.518L423.2,167.466l1.314-.766Z" transform="translate(-421.603 -129.626)" fill="#f5f5f5"/>
      <path id="Path_54295" data-name="Path 54295" d="M419.76,151.82,438.439,162.6l.046-16.01L419.811,135.81Zm1.6-.928.032-12.366,1.309.757,14.19,8.221-.033,10.843v1.518Z" transform="translate(-419.76 -113.074)" fill="#e0e0e0"/>
      <path id="Path_54296" data-name="Path 54296" d="M419.86,134.931l1.314-.761,18.674,10.783-1.314.761Z" transform="translate(-419.814 -112.196)" fill="#f5f5f5"/>
      <path id="Path_54297" data-name="Path 54297" d="M461.35,157.4l-.046,16.005-1.314.766.046-16.01Z" transform="translate(-441.316 -124.643)" fill="#f0f0f0"/>
      <path id="Path_54298" data-name="Path 54298" d="M427.258,96.01l14.19,8.193-.032,10.839-14.185-8.188Z" transform="translate(-423.763 -91.749)" fill="none"/>
      <path id="Path_54299" data-name="Path 54299" d="M425.736,95.137l-.028,10.843-1.318.761.037-12.361Z" transform="translate(-422.241 -90.875)" fill="#f0f0f0"/>
      <path id="Path_54300" data-name="Path 54300" d="M439.894,127.558l0,1.523-15.5-8.949,1.318-.761Z" transform="translate(-422.241 -104.265)" fill="#f5f5f5"/>
      <path id="Path_54301" data-name="Path 54301" d="M421,104.5l18.674,10.783.046-16.01-18.693-10.8Zm1.592-.928.037-12.361,1.29.757,14.19,8.193L438.077,111v1.523Z" transform="translate(-420.424 -87.714)" fill="#e0e0e0"/>
      <path id="Path_54302" data-name="Path 54302" d="M421.06,87.6l1.314-.766,18.674,10.783-1.314.766Z" transform="translate(-420.457 -86.83)" fill="#f5f5f5"/>
      <path id="Path_54303" data-name="Path 54303" d="M462.55,110.06l-.046,16.01-1.314.761.046-16.005Z" transform="translate(-441.959 -99.277)" fill="#f0f0f0"/>
      <path id="Path_54304" data-name="Path 54304" d="M431.331,152.21l-3.871,3.05-.009,2.975,12.867,7.427.009-2.975-2.451-4.869-2.2,1.708.775,2.418-1.128-2.145Z" transform="translate(-423.88 -121.862)" fill="#e0e0e0"/>
      <path id="Path_54305" data-name="Path 54305" d="M443.64,155.268c-.6-.348-1.1-.065-1.1.631a2.4,2.4,0,0,0,1.1,1.889c.6.353,1.1.07,1.1-.627a2.414,2.414,0,0,0-1.1-1.894Z" transform="translate(-431.966 -123.42)" fill="#e0e0e0"/>
      <path id="Path_54306" data-name="Path 54306" d="M432.526,104.88l-3.867,3.045-.009,2.975,12.867,7.432.009-2.975-2.451-4.874-2.2,1.713.78,2.418-1.128-2.149Z" transform="translate(-424.523 -96.501)" fill="#e0e0e0"/>
      <path id="Path_54307" data-name="Path 54307" d="M444.84,107.937c-.608-.348-1.1-.07-1.1.627a2.4,2.4,0,0,0,1.091,1.894c.608.348,1.1.07,1.1-.627A2.4,2.4,0,0,0,444.84,107.937Z" transform="translate(-432.609 -98.059)" fill="#e0e0e0"/>
    </g>
    <g id="freepik--speech-bubble--inject-3" transform="translate(164.076 47.292)">
      <path id="Path_54308" data-name="Path 54308" d="M337.115,68.808l27.791,16.07a3.105,3.105,0,0,1,1.55,2.678V115.5a3.05,3.05,0,0,1-4.642,2.511l-11.6-6.888-.251.4-.037.037h-.028c-.464.3-1.249.729-1.425.822h0a.167.167,0,0,1-.209-.1l-1.012-2.869h0L334,101.978A3.087,3.087,0,0,1,332.45,99.3V71.319C332.45,69.091,335.727,68.009,337.115,68.808Z" transform="translate(-332.45 -68.546)" fill="#938c78"/>
      <path id="Path_54309" data-name="Path 54309" d="M396.45,107.77Z" transform="translate(-366.742 -89.563)" fill="none"/>
      <path id="Path_54310" data-name="Path 54310" d="M368.36,160.09l-.037.037H368.3c-.464.3-1.249.729-1.425.822h0a.144.144,0,0,0,.1-.07l.979-1.587-.195-.111h0l.863.492Z" transform="translate(-350.893 -117.109)" fill="#fff" opacity="0.2"/>
      <path id="Path_54311" data-name="Path 54311" d="M362.984,87.788a3.184,3.184,0,0,0-.826-1.035h0a2.821,2.821,0,0,0-.376-.255L333.991,70.423a1.031,1.031,0,0,0-1.541.9c0-2.228,3.277-3.31,4.665-2.511l27.791,16.07a3.114,3.114,0,0,1,1.151,1.165Z" transform="translate(-332.45 -68.546)" fill="#fff" opacity="0.4"/>
      <path id="Path_54312" data-name="Path 54312" d="M397.248,137.317V109.378a2.952,2.952,0,0,0-.348-1.393l3.073-1.745a3.1,3.1,0,0,1,.4,1.513V135.7a3.05,3.05,0,0,1-4.642,2.511,1.031,1.031,0,0,0,1.518-.891Z" transform="translate(-366.356 -88.743)" fill="#fff" opacity="0.2"/>
      <path id="Path_54313" data-name="Path 54313" d="M341.939,90.819l16.13,9.312-.97,11.057c-.056.673-.576.928-1.193.557L343.55,104.6a2.261,2.261,0,0,1-.636-.58l.023.316a4.744,4.744,0,0,0,2.135,3.481l.543.311a2.1,2.1,0,0,1,.58.232,2.865,2.865,0,0,1,.58.464l5.788,3.342a1.922,1.922,0,0,1,.58.232,3.019,3.019,0,0,1,.58.436l1.23.71a1.049,1.049,0,0,1,.464.826c0,.3-.218.422-.464.274l-.1-.056a3.286,3.286,0,0,1,.214,1.147c0,1.225-.868,1.722-1.94,1.1A4.261,4.261,0,0,1,351.2,113.5a1.7,1.7,0,0,1,.223-.9l-3.537-2.042a3.439,3.439,0,0,1,.214,1.147c0,1.23-.873,1.722-1.94,1.1a4.233,4.233,0,0,1-1.926-3.337,1.676,1.676,0,0,1,.246-.928,7,7,0,0,1-2.516-4.642l-1.1-14.854a2.107,2.107,0,0,0-.952-1.546l-2-1.156a1.049,1.049,0,0,1-.464-.822c0-.306.218-.427.464-.274l2,1.151a4.229,4.229,0,0,1,1.9,3.1Zm8.443,15.74.023-8.857a1.43,1.43,0,0,0-.645-1.119c-.357-.2-.645-.042-.65.371l-.023,8.857a1.434,1.434,0,0,0,.645,1.1c.357.2.65.037.65-.371m2.785,1.615.023-8.857a1.43,1.43,0,0,0-.645-1.119c-.357-.2-.65-.042-.65.371v8.857a1.42,1.42,0,0,0,.645,1.119c.357.2.645.037.65-.371m2.785,1.615L356,100.92a1.43,1.43,0,0,0-.655-1.1c-.357-.2-.65-.042-.65.371l-.023,8.857a1.42,1.42,0,0,0,.673,1.123c.353.2.645.037.645-.371m-8.392-4.846.023-8.857a1.393,1.393,0,0,0-.645-1.119c-.357-.2-.645-.042-.65.371V104.2a1.434,1.434,0,0,0,.645,1.119c.357.2.65.037.65-.371m-2.785-1.615.028-8.857a1.439,1.439,0,0,0-.645-1.119c-.357-.2-.65-.042-.65.371l-.028,8.857a1.42,1.42,0,0,0,.645,1.114c.357.209.65.042.65-.367m1.393,6.429c-.4-.232-.724-.046-.729.413a1.606,1.606,0,0,0,.724,1.253c.4.232.724.046.729-.413a1.592,1.592,0,0,0-.724-1.253m6.963,4.024c-.4-.232-.724-.046-.724.413a1.587,1.587,0,0,0,.719,1.253c.4.232.729.046.729-.418a1.6,1.6,0,0,0-.724-1.249" transform="translate(-335.134 -77.463)" fill="#fff"/>
      <path id="Path_54314" data-name="Path 54314" d="M383.952,116.436a1.392,1.392,0,0,1,.5.52c.274.464.274.984,0,1.137l-4.1,2.321a.492.492,0,0,1-.5-.051,1.453,1.453,0,0,1-.5-.52l-2.005-3.481c-.279-.464-.274-.984,0-1.142a.5.5,0,0,1,.5.051,1.453,1.453,0,0,1,.5.52l1.518,2.646,3.6-2.052A.492.492,0,0,1,383.952,116.436Z" transform="translate(-356.398 -93.531)" fill="#fff"/>
      <path id="Path_54315" data-name="Path 54315" d="M379.527,107.858a10.864,10.864,0,0,1,4.93,8.541c-.009,3.138-2.228,4.4-4.962,2.822a10.844,10.844,0,0,1-4.925-8.536C374.579,107.542,376.8,106.284,379.527,107.858Zm-.58,8.29,4.1-2.321c.279-.153.279-.664,0-1.137a1.392,1.392,0,0,0-.5-.52.492.492,0,0,0-.5-.051l-3.57,2.033-1.513-2.627a1.453,1.453,0,0,0-.5-.52.5.5,0,0,0-.5-.051c-.274.158-.279.664,0,1.142l2.005,3.481a1.453,1.453,0,0,0,.5.52.492.492,0,0,0,.5.051" transform="translate(-355.019 -89.247)" fill="#938c78"/>
      <path id="Path_54316" data-name="Path 54316" d="M379.527,107.858a10.864,10.864,0,0,1,4.93,8.541c-.009,3.138-2.228,4.4-4.962,2.822a10.844,10.844,0,0,1-4.925-8.536C374.579,107.542,376.8,106.284,379.527,107.858Zm-.58,8.29,4.1-2.321c.279-.153.279-.664,0-1.137a1.392,1.392,0,0,0-.5-.52.492.492,0,0,0-.5-.051l-3.57,2.033-1.513-2.627a1.453,1.453,0,0,0-.5-.52.5.5,0,0,0-.5-.051c-.274.158-.279.664,0,1.142l2.005,3.481a1.453,1.453,0,0,0,.5.52.492.492,0,0,0,.5.051" transform="translate(-355.019 -89.247)" fill="#fff" opacity="0.3"/>
    </g>
    <g id="freepik--character-2--inject-3" transform="translate(46.647 49.155)">
      <path id="Path_54317" data-name="Path 54317" d="M132.313,75.851h0a5.967,5.967,0,0,0-4.976-3.282,2.006,2.006,0,0,0-.65.13L81.666,98.3a4.247,4.247,0,0,0-1.731,1.857,4.3,4.3,0,0,0-.464,1.889v97.409a4.145,4.145,0,0,0,5.547,3.713h0a.926.926,0,0,0,.176-.07l45.026-25.66a4.312,4.312,0,0,0,2.172-3.741V76.32a1.044,1.044,0,0,0-.079-.469Z" transform="translate(-79.47 -72.564)" fill="#455a64"/>
      <path id="Path_54318" data-name="Path 54318" d="M93,128.492a2.144,2.144,0,0,1,1.086-1.857l41.828-23.8a1.077,1.077,0,0,1,1.611.928V182.3a2.168,2.168,0,0,1-1.086,1.857L94.629,208a1.077,1.077,0,0,1-1.611-.928Z" transform="translate(-86.72 -88.706)" fill="#938c78"/>
      <path id="Path_54319" data-name="Path 54319" d="M93,128.492a2.144,2.144,0,0,1,1.086-1.857l41.828-23.8a1.077,1.077,0,0,1,1.611.928V182.3a2.168,2.168,0,0,1-1.086,1.857L94.629,208a1.077,1.077,0,0,1-1.611-.928Z" transform="translate(-86.72 -88.706)" opacity="0.2"/>
      <path id="Path_54320" data-name="Path 54320" d="M93,128.492a2.144,2.144,0,0,1,1.086-1.857l41.828-23.8a1.077,1.077,0,0,1,1.611.928V182.3a2.168,2.168,0,0,1-1.086,1.857L94.629,208a1.077,1.077,0,0,1-1.611-.928Z" transform="translate(-86.72 -88.706)" fill="#fff" opacity="0.1"/>
      <path id="Path_54321" data-name="Path 54321" d="M79.51,133.9v97.4a4.145,4.145,0,0,0,5.547,3.713h0a1.068,1.068,0,0,1-1.434-1V136.591a4.294,4.294,0,0,1,.757-2.377L79.956,132a4.3,4.3,0,0,0-.446,1.9Z" transform="translate(-79.491 -104.408)" opacity="0.3"/>
      <path id="Path_54322" data-name="Path 54322" d="M127.877,72.559a2.005,2.005,0,0,0-.65.13L82.2,98.293a4.247,4.247,0,0,0-1.731,1.857l4.424,2.214a4.284,4.284,0,0,1,1.453-1.393l45.026-25.614a1.068,1.068,0,0,1,1.495.464h0A6.037,6.037,0,0,0,127.877,72.559Z" transform="translate(-80.006 -72.558)" fill="#fff" opacity="0.1"/>
      <path id="Path_54323" data-name="Path 54323" d="M142.1,113.19c.32-.181.58-.037.58.325a1.29,1.29,0,0,1-.576,1l-8.819,5.106c-.316.186-.571.032-.571-.334a1.258,1.258,0,0,1,.566-.984Z" transform="translate(-107.997 -94.288)" fill="#263238"/>
      <path id="Path_54324" data-name="Path 54324" d="M128.336,127c.316-.181.571-.037.571.33a1.276,1.276,0,0,1-.571.993c-.316.181-.576.032-.576-.33A1.253,1.253,0,0,1,128.336,127Z" transform="translate(-105.345 -101.687)" fill="#263238"/>
      <path id="Path_54325" data-name="Path 54325" d="M139.871,111.507c.631-.367,1.142-.074,1.142.65a2.516,2.516,0,0,1-1.137,1.982c-.631.367-1.156.07-1.156-.659A2.525,2.525,0,0,1,139.871,111.507Z" transform="translate(-111.217 -93.343)" fill="#263238"/>
      <path id="Path_54326" data-name="Path 54326" d="M138.478,308.851c1.29-.743,2.321-.149,2.321,1.328a5.143,5.143,0,0,1-2.321,4.043c-1.286.743-2.353.135-2.358-1.346A5.143,5.143,0,0,1,138.478,308.851Z" transform="translate(-109.824 -198.996)" fill="#263238"/>
      <path id="Path_54327" data-name="Path 54327" d="M182.228,100.34l15.207,12.621-5.542,3.2-15.2-12.621Z" transform="translate(-131.562 -87.444)" fill="#938c78"/>
      <path id="Path_54328" data-name="Path 54328" d="M158.358,114.14l15.2,12.617-5.542,3.2-15.2-12.617Z" transform="translate(-118.772 -94.839)" fill="#938c78"/>
      <path id="Path_54329" data-name="Path 54329" d="M146.422,121.04l15.2,12.617-5.542,3.2-15.2-12.616Z" transform="translate(-112.375 -98.536)" fill="#fff"/>
      <path id="Path_54330" data-name="Path 54330" d="M170.292,107.24l15.2,12.621-5.542,3.2-15.2-12.617Z" transform="translate(-125.164 -91.141)" fill="#fff"/>
      <path id="Path_54331" data-name="Path 54331" d="M110.612,141.73l15.193,12.617-5.542,3.2L105.07,144.933Z" transform="translate(-93.187 -109.622)" fill="#938c78"/>
      <path id="Path_54332" data-name="Path 54332" d="M134.482,127.94l15.2,12.616-5.542,3.2-15.2-12.617Z" transform="translate(-105.977 -102.233)" fill="#938c78"/>
      <path id="Path_54333" data-name="Path 54333" d="M92.91,151.893l5.644-3.263,15.193,12.616-5.658,3.268Z" transform="translate(-86.671 -113.319)" fill="#fff"/>
      <path id="Path_54334" data-name="Path 54334" d="M122.548,134.83l15.2,12.617-5.542,3.2L117.01,138.033Z" transform="translate(-99.585 -105.925)" fill="#fff"/>
      <path id="Path_54335" data-name="Path 54335" d="M214.982,127.53l-5.542,3.2h0a2.14,2.14,0,0,0,3.208,1.857h0a4.684,4.684,0,0,0,2.321-4.048Z" transform="translate(-149.11 -102.013)" fill="#938c78"/>
      <path id="Path_54336" data-name="Path 54336" d="M203.042,134.43l-5.542,3.2h0a2.14,2.14,0,0,0,3.208,1.857h0a4.674,4.674,0,0,0,2.321-4.048Z" transform="translate(-142.712 -105.71)" fill="#e0e0e0"/>
      <path id="Path_54337" data-name="Path 54337" d="M191.1,141.33l-5.542,3.2h0a2.14,2.14,0,0,0,3.208,1.857h0a4.674,4.674,0,0,0,2.321-4.048Z" transform="translate(-136.315 -109.407)" fill="#938c78"/>
      <path id="Path_54338" data-name="Path 54338" d="M179.162,148.22l-5.542,3.2h0a2.135,2.135,0,0,0,3.208,1.857h0a4.67,4.67,0,0,0,2.321-4.043Z" transform="translate(-129.917 -113.099)" fill="#e0e0e0"/>
      <path id="Path_54339" data-name="Path 54339" d="M167.222,155.12l-5.542,3.194h0a2.14,2.14,0,0,0,3.207,1.857h0a4.674,4.674,0,0,0,2.321-4.048Z" transform="translate(-123.519 -116.796)" fill="#938c78"/>
      <path id="Path_54340" data-name="Path 54340" d="M155.282,162l-5.542,3.2h0a2.14,2.14,0,0,0,3.208,1.857h0a4.684,4.684,0,0,0,2.321-4.048Z" transform="translate(-117.122 -120.483)" fill="#e0e0e0"/>
      <path id="Path_54341" data-name="Path 54341" d="M143.342,168.91l-5.542,3.2h0a2.135,2.135,0,0,0,3.208,1.857h0a4.642,4.642,0,0,0,2.321-4.048Z" transform="translate(-110.724 -124.185)" fill="#938c78"/>
      <path id="Path_54342" data-name="Path 54342" d="M214.982,127.53l-5.542,3.2h0a2.14,2.14,0,0,0,3.208,1.857h0a4.684,4.684,0,0,0,2.321-4.048Z" transform="translate(-149.11 -102.013)" opacity="0.2"/>
      <path id="Path_54343" data-name="Path 54343" d="M191.1,141.33l-5.542,3.2h0a2.14,2.14,0,0,0,3.208,1.857h0a4.674,4.674,0,0,0,2.321-4.048Z" transform="translate(-136.315 -109.407)" opacity="0.2"/>
      <path id="Path_54344" data-name="Path 54344" d="M167.222,155.12l-5.542,3.194h0a2.14,2.14,0,0,0,3.207,1.857h0a4.674,4.674,0,0,0,2.321-4.048Z" transform="translate(-123.519 -116.796)" opacity="0.2"/>
      <path id="Path_54345" data-name="Path 54345" d="M143.342,168.91l-5.542,3.2h0a2.135,2.135,0,0,0,3.208,1.857h0a4.642,4.642,0,0,0,2.321-4.048Z" transform="translate(-110.724 -124.185)" opacity="0.2"/>
      <path id="Path_54346" data-name="Path 54346" d="M131.268,175.81l-5.658,3.249h0a2.135,2.135,0,0,0,3.2,1.857h0a4.911,4.911,0,0,0,2.456-4.257Z" transform="translate(-104.193 -127.882)" fill="#e0e0e0"/>
      <path id="Path_54347" data-name="Path 54347" d="M136.954,211a13.652,13.652,0,0,0-4.707,1.453,15.044,15.044,0,0,0-7.306,8.411,13.684,13.684,0,0,0-.775,4.865,23.037,23.037,0,0,1,1.574-4.54,19.324,19.324,0,0,1,6.94-7.993,23.265,23.265,0,0,1,4.275-2.2Z" transform="translate(-103.417 -146.738)" fill="#938c78"/>
      <path id="Path_54348" data-name="Path 54348" d="M133.309,255.43a8.634,8.634,0,0,1-2.65-.464,7.464,7.464,0,0,1-4.373-3.839,8.513,8.513,0,0,1-.8-2.567,6.034,6.034,0,0,0,.357,2.757,6.5,6.5,0,0,0,4.688,4.113,6.034,6.034,0,0,0,2.78,0Z" transform="translate(-104.107 -166.863)" fill="#938c78"/>
      <path id="Path_54349" data-name="Path 54349" d="M152.163,231.2a21.1,21.1,0,0,1-.056,3.713,18.8,18.8,0,0,1-2.674,7.863,21.079,21.079,0,0,1-2.223,2.994A11.637,11.637,0,0,0,150,243.153a13.508,13.508,0,0,0,2.785-8.188A11.647,11.647,0,0,0,152.163,231.2Z" transform="translate(-115.766 -157.561)" fill="#938c78"/>
      <path id="Path_54350" data-name="Path 54350" d="M121.786,220.16a12.867,12.867,0,0,0-2.706,3.76,14.176,14.176,0,0,0-.733,10.458,13.062,13.062,0,0,0,2.158,4.1,22.28,22.28,0,0,1-1.393-4.308,18.242,18.242,0,0,1,.7-9.938,21.612,21.612,0,0,1,1.977-4.076Z" transform="translate(-99.941 -151.646)" fill="#938c78"/>
      <path id="Path_54351" data-name="Path 54351" d="M150.354,213.491a7.148,7.148,0,0,0-1.318-3.514,7.631,7.631,0,0,0-7.743-3.143,7.218,7.218,0,0,0-3.393,1.606,9.668,9.668,0,0,1,3.481-.956,8.4,8.4,0,0,1,7.144,2.9A9.646,9.646,0,0,1,150.354,213.491Z" transform="translate(-110.778 -144.429)" fill="#938c78"/>
      <path id="Path_54352" data-name="Path 54352" d="M206.3,189.965h0a5.863,5.863,0,0,1,6.364,4.8l2.154,12.069,13.508,9.446-3.017,3.672L212.462,213.2a6.4,6.4,0,0,1-3.161-3.843l-4.141-13.967Z" transform="translate(-146.817 -135.45)" fill="#ffa8a7"/>
      <path id="Path_54353" data-name="Path 54353" d="M211.315,202.934a6.262,6.262,0,0,0,2.725-2.864l-1.212-5.533a5.863,5.863,0,0,0-6.322-4.572l-.2.023-1.142,5.436,1.782,8A6.3,6.3,0,0,0,211.315,202.934Z" transform="translate(-146.817 -135.45)" fill="#455a64"/>
      <path id="Path_54354" data-name="Path 54354" d="M213.373,214.623a6.3,6.3,0,0,1-4.373.492l.464,1.973c1.676.376,5.969.251,7.088-3.3l-.464-2.042A6.262,6.262,0,0,1,213.373,214.623Z" transform="translate(-148.874 -147.14)" fill="#455a64"/>
      <path id="Path_54355" data-name="Path 54355" d="M211.315,202.934a6.262,6.262,0,0,0,2.725-2.864l-1.212-5.533a5.863,5.863,0,0,0-6.322-4.572l-.2.023-1.142,5.436,1.782,8A6.3,6.3,0,0,0,211.315,202.934Z" transform="translate(-146.817 -135.45)" fill="#fff" opacity="0.2"/>
      <path id="Path_54356" data-name="Path 54356" d="M213.373,214.623a6.3,6.3,0,0,1-4.373.492l.464,1.973c1.676.376,5.969.251,7.088-3.3l-.464-2.042A6.262,6.262,0,0,1,213.373,214.623Z" transform="translate(-148.874 -147.14)" fill="#fff" opacity="0.5"/>
      <path id="Path_54357" data-name="Path 54357" d="M169.737,195.21s-.538-4.108-2.989-5.18c0,0-5.867,1.759-10.732,3.607a56.4,56.4,0,0,0-5.644,2.414,46.483,46.483,0,0,1-5.765,4.568,7.079,7.079,0,0,1-2.321.7h0a8.1,8.1,0,0,0-2.887,1.054c-4.465,2.581-8.072,8.819-8.058,13.958,0,3.365,1.578,5.4,3.913,5.686h.107a5.242,5.242,0,0,0,1.109,0c4.062-.037,10.574-.07,13.132-.8C161.549,217.7,170.944,209.048,169.737,195.21Z" transform="translate(-107.263 -135.502)" fill="#455a64"/>
      <path id="Path_54358" data-name="Path 54358" d="M189.007,193.9l1.75-3.175,7.042,4.744-2.785,3.741a4.688,4.688,0,0,1-3.778.153,4.809,4.809,0,0,1-2.553-2.859A3.356,3.356,0,0,1,189.007,193.9Z" transform="translate(-137.919 -135.871)" fill="#ffa8a7"/>
      <path id="Path_54359" data-name="Path 54359" d="M194.72,191.67c0,3.825,3.04,5.617,4.9,6.294l1.485-1.991Z" transform="translate(-141.223 -136.38)" opacity="0.2"/>
      <path id="Path_54360" data-name="Path 54360" d="M187.456,170.335a12.921,12.921,0,0,1-.227-4.619,4.364,4.364,0,0,1,2.785-3.454,5.208,5.208,0,0,1,3.143-2.753,14.329,14.329,0,0,1,4.127-.5,20,20,0,0,1,4.6.255,6.8,6.8,0,0,1,3.936,2.233,6.554,6.554,0,0,1,1.142,5.041,14.738,14.738,0,0,1-1.908,4.934c-2.952.209-5.96.548-8.912.757a23.79,23.79,0,0,1-4.526.042A8.416,8.416,0,0,1,187.456,170.335Z" transform="translate(-137.138 -118.861)" fill="#263238"/>
      <path id="Path_54361" data-name="Path 54361" d="M204.39,168.073a25.238,25.238,0,0,1-1.448,13.485,4.9,4.9,0,0,1-1.834,2.539,5.163,5.163,0,0,1-3.249.274,16.766,16.766,0,0,1-5.166-1.453,7.046,7.046,0,0,1-3.574-3.853,3.105,3.105,0,0,1-3.133-1.23,5.858,5.858,0,0,1-1.017-3.416c0-.775.144-1.69.84-2.028a1.882,1.882,0,0,1,1.982.492,5.89,5.89,0,0,1,1.931,2.9c.511-1.889,1.3-3.713,1.815-5.57a3.239,3.239,0,0,1,1.1-1.963,3.573,3.573,0,0,1,2.734,0,17.955,17.955,0,0,0,9.019-.172Z" transform="translate(-135.997 -123.678)" fill="#ffa8a7"/>
      <path id="Path_54362" data-name="Path 54362" d="M214.482,180.53l2.2,3.709-2.627.5Z" transform="translate(-151.586 -130.411)" fill="#f28f8f"/>
      <path id="Path_54363" data-name="Path 54363" d="M208.518,192.34l2,.97a1.3,1.3,0,0,1-1.513.432,1.179,1.179,0,0,1-.483-1.4Z" transform="translate(-148.578 -136.739)" fill="#f28f8f"/>
      <path id="Path_54364" data-name="Path 54364" d="M208.518,192.34l2,.97a1.3,1.3,0,0,1-1.513.432,1.179,1.179,0,0,1-.483-1.4Z" transform="translate(-148.578 -136.739)" opacity="0.3"/>
      <path id="Path_54365" data-name="Path 54365" d="M209.706,194.209a1.2,1.2,0,0,1-.692-.065,1.058,1.058,0,0,1-.534-1.054,1.281,1.281,0,0,1,.789.274,1.267,1.267,0,0,1,.436.845Z" transform="translate(-148.592 -137.141)" fill="#f28f8f"/>
      <path id="Path_54366" data-name="Path 54366" d="M206.766,180.064a.757.757,0,1,0,.826-.678A.757.757,0,0,0,206.766,180.064Z" transform="translate(-147.675 -129.796)" fill="#263238"/>
      <path id="Path_54367" data-name="Path 54367" d="M220.406,180.908a.752.752,0,1,0,.273-.508.752.752,0,0,0-.273.508Z" transform="translate(-154.984 -130.251)" fill="#263238"/>
      <path id="Path_54368" data-name="Path 54368" d="M222.63,175.246l1.55,1.318a1.077,1.077,0,0,0-.209-1.212,1.276,1.276,0,0,0-1.341-.107Z" transform="translate(-156.178 -127.504)" fill="#263238"/>
      <path id="Path_54369" data-name="Path 54369" d="M207.242,174.866l-1.778.984a1.077,1.077,0,0,1,.441-1.147A1.281,1.281,0,0,1,207.242,174.866Z" transform="translate(-146.963 -127.226)" fill="#263238"/>
      <path id="Path_54370" data-name="Path 54370" d="M207.346,159.4a61.671,61.671,0,0,1-19.5,0c.3-7.891,3.853-10.477,9.98-10.477S207.415,152.206,207.346,159.4Z" transform="translate(-137.542 -113.474)" fill="#455a64"/>
      <path id="Path_54371" data-name="Path 54371" d="M213.379,162.183a12.323,12.323,0,0,0-1.731-7.028l-2.567-.719a8.466,8.466,0,0,0-3.713-.195l-2.446.409a3.9,3.9,0,0,0-3.249,3.393l-.562,4.763h0A62,62,0,0,0,213.379,162.183Z" transform="translate(-143.575 -116.261)" fill="#455a64"/>
      <path id="Path_54372" data-name="Path 54372" d="M213.379,162.183a12.323,12.323,0,0,0-1.731-7.028l-2.567-.719a8.466,8.466,0,0,0-3.713-.195l-2.446.409a3.9,3.9,0,0,0-3.249,3.393l-.562,4.763h0A62,62,0,0,0,213.379,162.183Z" transform="translate(-143.575 -116.261)" fill="#fff" opacity="0.29"/>
      <path id="Path_54373" data-name="Path 54373" d="M214.2,157.18h-1.133a9.482,9.482,0,0,0-1.091.042,15.058,15.058,0,0,0-8.949,3.8l-3.816,3.426a62,62,0,0,0,14.223-.622l2.483-3.013a2.228,2.228,0,0,0-1.717-3.63Z" transform="translate(-143.629 -117.9)" fill="#455a64"/>
      <path id="Path_54374" data-name="Path 54374" d="M214.2,157.18h-1.133a9.482,9.482,0,0,0-1.091.042,15.058,15.058,0,0,0-8.949,3.8l-3.816,3.426a62,62,0,0,0,14.223-.622l2.483-3.013a2.228,2.228,0,0,0-1.717-3.63Z" transform="translate(-143.629 -117.9)" opacity="0.2"/>
      <path id="Path_54375" data-name="Path 54375" d="M233.691,236.449l-17.3,10.054L198.97,236.449l17.3-10.059Z" transform="translate(-143.5 -154.984)" fill="#938c78"/>
      <g id="Group_38978" data-name="Group 38978" transform="translate(55.47 71.406)" opacity="0.3">
        <path id="Path_54376" data-name="Path 54376" d="M233.691,236.449l-17.3,10.054L198.97,236.449l17.3-10.059Z" transform="translate(-198.97 -226.39)" fill="#fff"/>
      </g>
      <path id="Path_54377" data-name="Path 54377" d="M253.736,248.06l-.051,17.6-17.3,10.054.051-17.6Z" transform="translate(-163.545 -166.595)" fill="#938c78"/>
      <g id="Group_38979" data-name="Group 38979" transform="translate(72.835 81.465)" opacity="0.1">
        <path id="Path_54378" data-name="Path 54378" d="M253.736,248.06l-.051,17.6-17.3,10.054.051-17.6Z" transform="translate(-236.38 -248.06)" fill="#fff"/>
      </g>
      <path id="Path_54379" data-name="Path 54379" d="M216.327,258.114l-.051,17.6L198.86,265.662l.051-17.6Z" transform="translate(-143.441 -166.595)" fill="#938c78"/>
      <path id="Path_54380" data-name="Path 54380" d="M239.5,239.156l5.858-3.579-2.989-1.727-5.881,3.509Z" transform="translate(-163.604 -158.981)" fill="#e0e0e0"/>
      <path id="Path_54381" data-name="Path 54381" d="M229.167,239.091l-3.013-1.8-5.974-3.565-2.98,1.731,5.937,3.63,3.017,1.843,7.965,4.874,3.194-1.857Z" transform="translate(-153.268 -158.917)" fill="#fff"/>
      <path id="Path_54382" data-name="Path 54382" d="M220.549,245.28l-8.179,4.879,3.2,1.852,7.993-4.888Z" transform="translate(-150.68 -165.106)" fill="#e0e0e0"/>
      <path id="Path_54383" data-name="Path 54383" d="M256.844,255.75l-3.194,1.857.028.014.046,17.514,3.231-1.875-.046-17.476Z" transform="translate(-172.799 -170.716)" fill="#e0e0e0"/>
      <path id="Path_54384" data-name="Path 54384" d="M215.482,257.642l-3.2-1.852-.028.014-.051,17.579,3.231,1.861.051-17.6Z" transform="translate(-150.589 -170.737)" fill="#fff"/>
      <path id="Path_54385" data-name="Path 54385" d="M215.482,257.642l-3.2-1.852-.028.014-.051,17.579,3.231,1.861.051-17.6Z" transform="translate(-150.589 -170.737)" opacity="0.2"/>
      <path id="Path_54386" data-name="Path 54386" d="M232.291,256.74l-3.621,2.214,3.621,2.093,3.611-2.1Z" transform="translate(-159.414 -171.246)" fill="#fff"/>
      <path id="Path_54387" data-name="Path 54387" d="M162.63,227.469s1.351-19.658,1.634-20.888a4.33,4.33,0,0,1,8.5.413c.265,1.94-2.832,20.781-2.832,20.781l11.215,11.865,2.27,2.084,2.024-.408,4.614.436a.566.566,0,0,1,.5.464h0a.571.571,0,0,1-.418.668l-3.05.743,2.2,1.5a2.66,2.66,0,0,0,1.026.422l3.449.654a.631.631,0,0,1,.515.664h0a.636.636,0,0,1-.408.557l-1.857.692a8.926,8.926,0,0,1-7.427-.529l-3.992-2.219a9.874,9.874,0,0,1-1.648-1.114l-14.311-11.837a5.6,5.6,0,0,1-2.01-4.953Z" transform="translate(-124.01 -142.583)" fill="#ffa8a7"/>
      <path id="Path_54388" data-name="Path 54388" d="M171.6,219.651l1.434-10.676a5.581,5.581,0,1,0-11.08-1.355l-1.2,10.894a13.35,13.35,0,0,0,10.843,1.123Z" transform="translate(-123.027 -142.298)" fill="#455a64"/>
      <path id="Path_54389" data-name="Path 54389" d="M171.6,219.651l1.434-10.676a5.581,5.581,0,1,0-11.08-1.355l-1.2,10.894a13.35,13.35,0,0,0,10.843,1.123Z" transform="translate(-123.027 -142.298)" fill="#fff" opacity="0.2"/>
      <path id="Path_54390" data-name="Path 54390" d="M165.5,238.474a13.656,13.656,0,0,1-5.106-1.694l-.274,2.511c4.823,3.713,10.737,1.42,10.737,1.42l.381-2.808a13.614,13.614,0,0,1-5.737.571Z" transform="translate(-122.684 -160.551)" fill="#455a64"/>
      <path id="Path_54391" data-name="Path 54391" d="M165.5,238.474a13.656,13.656,0,0,1-5.106-1.694l-.274,2.511c4.823,3.713,10.737,1.42,10.737,1.42l.381-2.808a13.614,13.614,0,0,1-5.737.571Z" transform="translate(-122.684 -160.551)" fill="#fff" opacity="0.5"/>
    </g>
    <g id="freepik--Plants--inject-3" transform="translate(23.117 137.003)">
      <path id="Path_54392" data-name="Path 54392" d="M441.87,317.77l7.529.223,7.529-.223c.32,5.106-.668,10.268-2.038,12.8h0a3.43,3.43,0,0,1-1.49,1.513,8.822,8.822,0,0,1-8.021,0,3.347,3.347,0,0,1-1.485-1.555C442.529,327.982,441.549,322.83,441.87,317.77Z" transform="translate(-250.088 -291.795)" fill="#fff"/>
      <path id="Path_54393" data-name="Path 54393" d="M444.165,309.655c-2.948,1.7-2.966,4.465-.037,6.169a11.746,11.746,0,0,0,10.648,0c2.952-1.7,2.966-4.465.033-6.169A11.722,11.722,0,0,0,444.165,309.655Z" transform="translate(-250.159 -286.762)" fill="#ebebeb"/>
      <path id="Path_54394" data-name="Path 54394" d="M447.227,311.441c-2.321,1.328-2.321,3.481-.028,4.814a9.151,9.151,0,0,0,8.309,0c2.3-1.328,2.321-3.486.023-4.814A9.155,9.155,0,0,0,447.227,311.441Z" transform="translate(-252.056 -287.87)" fill="#e0e0e0"/>
      <g id="Group_38980" data-name="Group 38980" transform="translate(193.426 22.575)" opacity="0.15">
        <path id="Path_54395" data-name="Path 54395" d="M447.227,311.441c-2.321,1.328-2.321,3.481-.028,4.814a9.151,9.151,0,0,0,8.309,0c2.3-1.328,2.321-3.486.023-4.814A9.155,9.155,0,0,0,447.227,311.441Z" transform="translate(-445.482 -310.445)"/>
      </g>
      <path id="Path_54396" data-name="Path 54396" d="M455.222,272.385c1.225-1.523,2.646-2.887,3.769-4.484a4.783,4.783,0,0,0,1.082-3.713,3.319,3.319,0,0,0-2.632-2.321,5.046,5.046,0,0,0-3.537.789,10.793,10.793,0,0,0-2.674,2.544,26.565,26.565,0,0,0-5.6,18.98,4,4,0,0,0,.7,2.182,2.186,2.186,0,0,0,2.251.687c2.052-.608,1.778-3.379,2.112-5.009a22.783,22.783,0,0,1,2.358-6.392A22.07,22.07,0,0,1,455.222,272.385Z" transform="translate(-252.072 -261.811)" fill="#938c78"/>
      <path id="Path_54397" data-name="Path 54397" d="M455.222,272.385c1.225-1.523,2.646-2.887,3.769-4.484a4.783,4.783,0,0,0,1.082-3.713,3.319,3.319,0,0,0-2.632-2.321,5.046,5.046,0,0,0-3.537.789,10.793,10.793,0,0,0-2.674,2.544,26.565,26.565,0,0,0-5.6,18.98,4,4,0,0,0,.7,2.182,2.186,2.186,0,0,0,2.251.687c2.052-.608,1.778-3.379,2.112-5.009a22.783,22.783,0,0,1,2.358-6.392A22.07,22.07,0,0,1,455.222,272.385Z" transform="translate(-252.072 -261.811)" fill="#fff" opacity="0.2"/>
      <path id="Path_54398" data-name="Path 54398" d="M451.6,287.022a.181.181,0,0,0,.144-.172c.144-3.291,1.216-14.524,8.959-20.888a.172.172,0,0,0,.023-.251.176.176,0,0,0-.251-.028c-7.859,6.471-8.945,17.839-9.089,21.167a.181.181,0,0,0,.172.186Z" transform="translate(-255.221 -263.865)" fill="#f0f0f0"/>
      <path id="Path_54399" data-name="Path 54399" d="M449.159,297.615a5.477,5.477,0,0,0,2.511,3.486,7.042,7.042,0,0,0,3.806.641,16.836,16.836,0,0,0,3.862-.928c.622-.209,1.309-.487,1.393-1.258a1.392,1.392,0,0,0-.441-1.082,4.2,4.2,0,0,0-.4-.348.395.395,0,0,1,.209-.71,9.635,9.635,0,0,0,1.1-.139,4.8,4.8,0,0,0,2.321-1.044,3.834,3.834,0,0,0,1.068-1.578,1.487,1.487,0,0,0-.153-1.555,1.657,1.657,0,0,0-.854-.371c-.274-.06-.552-.111-.826-.153a.367.367,0,0,1-.088-.7l1.17-.487a2.173,2.173,0,0,0,.887-.552,1.931,1.931,0,0,0,.223-1.606c-.144-.733-.395-1.439-.566-2.163a4.642,4.642,0,0,1-.1-2.2,18.567,18.567,0,0,0-6.54.436,4.754,4.754,0,0,0-1.787.78,2.6,2.6,0,0,0-.84,2.409.167.167,0,0,1-.316.088l-.729-1.393a.887.887,0,0,0-1.16-.371,5.394,5.394,0,0,0-1.708,1.346,2.957,2.957,0,0,0-.729,2.182,19.22,19.22,0,0,0,.543,3.208.292.292,0,0,1-.464.311h-.032a1,1,0,0,0-.706-.2c-.659.079-.826.747-.873,1.318a11.059,11.059,0,0,0,.218,2.637Z" transform="translate(-253.905 -274.105)" fill="#938c78"/>
      <path id="Path_54400" data-name="Path 54400" d="M449.159,297.615a5.477,5.477,0,0,0,2.511,3.486,7.042,7.042,0,0,0,3.806.641,16.836,16.836,0,0,0,3.862-.928c.622-.209,1.309-.487,1.393-1.258a1.392,1.392,0,0,0-.441-1.082,4.2,4.2,0,0,0-.4-.348.395.395,0,0,1,.209-.71,9.635,9.635,0,0,0,1.1-.139,4.8,4.8,0,0,0,2.321-1.044,3.834,3.834,0,0,0,1.068-1.578,1.487,1.487,0,0,0-.153-1.555,1.657,1.657,0,0,0-.854-.371c-.274-.06-.552-.111-.826-.153a.367.367,0,0,1-.088-.7l1.17-.487a2.173,2.173,0,0,0,.887-.552,1.931,1.931,0,0,0,.223-1.606c-.144-.733-.395-1.439-.566-2.163a4.642,4.642,0,0,1-.1-2.2,18.567,18.567,0,0,0-6.54.436,4.754,4.754,0,0,0-1.787.78,2.6,2.6,0,0,0-.84,2.409.167.167,0,0,1-.316.088l-.729-1.393a.887.887,0,0,0-1.16-.371,5.394,5.394,0,0,0-1.708,1.346,2.957,2.957,0,0,0-.729,2.182,19.22,19.22,0,0,0,.543,3.208.292.292,0,0,1-.464.311h-.032a1,1,0,0,0-.706-.2c-.659.079-.826.747-.873,1.318a11.059,11.059,0,0,0,.218,2.637Z" transform="translate(-253.905 -274.105)" opacity="0.2"/>
      <path id="Path_54401" data-name="Path 54401" d="M449.159,297.615a5.477,5.477,0,0,0,2.511,3.486,7.042,7.042,0,0,0,3.806.641,16.836,16.836,0,0,0,3.862-.928c.622-.209,1.309-.487,1.393-1.258a1.392,1.392,0,0,0-.441-1.082,4.2,4.2,0,0,0-.4-.348.395.395,0,0,1,.209-.71,9.635,9.635,0,0,0,1.1-.139,4.8,4.8,0,0,0,2.321-1.044,3.834,3.834,0,0,0,1.068-1.578,1.487,1.487,0,0,0-.153-1.555,1.657,1.657,0,0,0-.854-.371c-.274-.06-.552-.111-.826-.153a.367.367,0,0,1-.088-.7l1.17-.487a2.173,2.173,0,0,0,.887-.552,1.931,1.931,0,0,0,.223-1.606c-.144-.733-.395-1.439-.566-2.163a4.642,4.642,0,0,1-.1-2.2,18.567,18.567,0,0,0-6.54.436,4.754,4.754,0,0,0-1.787.78,2.6,2.6,0,0,0-.84,2.409.167.167,0,0,1-.316.088l-.729-1.393a.887.887,0,0,0-1.16-.371,5.394,5.394,0,0,0-1.708,1.346,2.957,2.957,0,0,0-.729,2.182,19.22,19.22,0,0,0,.543,3.208.292.292,0,0,1-.464.311h-.032a1,1,0,0,0-.706-.2c-.659.079-.826.747-.873,1.318a11.059,11.059,0,0,0,.218,2.637Z" transform="translate(-253.905 -274.105)" fill="#fff" opacity="0.2"/>
      <path id="Path_54402" data-name="Path 54402" d="M456.887,302.091a26.373,26.373,0,0,1,1.759-5.106.19.19,0,0,1,.06-.135l.125-.265a16.515,16.515,0,0,0-1.745-5.839.186.186,0,0,1,.065-.246.181.181,0,0,1,.246.07A16.641,16.641,0,0,1,459.115,296a23.758,23.758,0,0,1,7.534-9.033.181.181,0,0,1,.251.046.176.176,0,0,1-.046.246,23.749,23.749,0,0,0-7.617,9.311,11.015,11.015,0,0,1,6.234-.845.186.186,0,0,1,.144.214.176.176,0,0,1-.144.139h-.07a10.722,10.722,0,0,0-6.415,1.026,26,26,0,0,0-1.745,5.055.186.186,0,0,1-.144.139h-.07A.176.176,0,0,1,456.887,302.091Z" transform="translate(-258.165 -275.272)" fill="#f0f0f0"/>
      <path id="Path_54403" data-name="Path 54403" d="M67.471,350.91l-8.569.251-8.564-.251c-.371,5.784.761,11.679,2.321,14.561h0a3.89,3.89,0,0,0,1.7,1.727,10.032,10.032,0,0,0,9.121,0,3.778,3.778,0,0,0,1.694-1.769C66.719,362.529,67.838,356.666,67.471,350.91Z" transform="translate(-40.293 -309.552)" fill="#fff"/>
      <path id="Path_54404" data-name="Path 54404" d="M65.024,341.672c3.356,1.94,3.375,5.078.042,7.018a13.35,13.35,0,0,1-12.115,0c-3.356-1.936-3.375-5.078-.042-7.018A13.35,13.35,0,0,1,65.024,341.672Z" transform="translate(-40.376 -303.823)" fill="#ebebeb"/>
      <path id="Path_54405" data-name="Path 54405" d="M65.851,343.694c2.618,1.513,2.632,3.964.032,5.477a10.419,10.419,0,0,1-9.451,0c-2.618-1.509-2.632-3.964-.032-5.477A10.433,10.433,0,0,1,65.851,343.694Z" transform="translate(-42.54 -305.079)" fill="#e0e0e0"/>
      <g id="Group_38981" data-name="Group 38981" transform="translate(11.92 37.483)" opacity="0.15">
        <path id="Path_54406" data-name="Path 54406" d="M65.851,343.694c2.618,1.513,2.632,3.964.032,5.477a10.419,10.419,0,0,1-9.451,0c-2.618-1.509-2.632-3.964-.032-5.477A10.433,10.433,0,0,1,65.851,343.694Z" transform="translate(-54.46 -342.563)"/>
      </g>
      <path id="Path_54407" data-name="Path 54407" d="M79.084,272.16c-19.305,6.322-19.5,19.236-15.128,28.431,1.1,1.857,4.419,2.864,7.306-8.573l-5.069.65,5.909-3,1.536-4.586-4.93.367,6.257-2.632a92.192,92.192,0,0,1,4.117-10.658Z" transform="translate(-46.387 -267.356)" fill="#938c78"/>
      <path id="Path_54408" data-name="Path 54408" d="M79.084,272.16c-19.305,6.322-19.5,19.236-15.128,28.431,1.1,1.857,4.419,2.864,7.306-8.573l-5.069.65,5.909-3,1.536-4.586-4.93.367,6.257-2.632a92.192,92.192,0,0,1,4.117-10.658Z" transform="translate(-46.387 -267.356)" opacity="0.2"/>
      <path id="Path_54409" data-name="Path 54409" d="M79.084,272.16c-19.305,6.322-19.5,19.236-15.128,28.431,1.1,1.857,4.419,2.864,7.306-8.573l-5.069.65,5.909-3,1.536-4.586-4.93.367,6.257-2.632a92.192,92.192,0,0,1,4.117-10.658Z" transform="translate(-46.387 -267.356)" fill="#fff" opacity="0.2"/>
      <path id="Path_54410" data-name="Path 54410" d="M76.323,279.12c-10.18,7.724-11.1,16.585-8.221,25.832C67.085,296.81,65.985,288.575,76.323,279.12Z" transform="translate(-49.089 -271.086)" fill="#fff"/>
      <path id="Path_54411" data-name="Path 54411" d="M28.78,300.42C47.811,303.1,50.132,315.1,47.589,324.386c-.71,1.917-3.639,3.4-8.23-6.772L44.2,317.4l-6.034-1.829-2.191-4.02,4.642-.464-6.262-1.393a88.59,88.59,0,0,0-5.575-9.274Z" transform="translate(-28.78 -282.499)" fill="#938c78"/>
      <path id="Path_54412" data-name="Path 54412" d="M28.78,300.42C47.811,303.1,50.132,315.1,47.589,324.386c-.71,1.917-3.639,3.4-8.23-6.772L44.2,317.4l-6.034-1.829-2.191-4.02,4.642-.464-6.262-1.393a88.59,88.59,0,0,0-5.575-9.274Z" transform="translate(-28.78 -282.499)" fill="#fff" opacity="0.2"/>
      <path id="Path_54413" data-name="Path 54413" d="M28.78,300.42C47.811,303.1,50.132,315.1,47.589,324.386c-.71,1.917-3.639,3.4-8.23-6.772L44.2,317.4l-6.034-1.829-2.191-4.02,4.642-.464-6.262-1.393a88.59,88.59,0,0,0-5.575-9.274Z" transform="translate(-28.78 -282.499)" opacity="0.1"/>
      <path id="Path_54414" data-name="Path 54414" d="M40.89,305c10.764,5.505,13.09,13.6,11.948,22.689C52.434,319.914,52.081,312.065,40.89,305Z" transform="translate(-35.269 -284.953)" fill="#fff"/>
      <path id="Path_54415" data-name="Path 54415" d="M88.277,310.11c-17.449.283-20.888,10.839-19.635,19.5.427,1.806,2.9,3.472,8.179-5.185l-4.331-.752,5.612-.961,2.428-3.365-4.141-.952,5.8-.571a79.791,79.791,0,0,1,6.085-7.71Z" transform="translate(-50.014 -287.691)" fill="#938c78"/>
      <path id="Path_54416" data-name="Path 54416" d="M84.428,312.83c-10.319,3.755-13.322,10.8-13.308,19.115C72.35,325.005,73.538,317.969,84.428,312.83Z" transform="translate(-51.466 -289.148)" fill="#fff"/>
      <path id="Path_54417" data-name="Path 54417" d="M88.277,310.11c-17.449.283-20.888,10.839-19.635,19.5.427,1.806,2.9,3.472,8.179-5.185l-4.331-.752,5.612-.961,2.428-3.365-4.141-.952,5.8-.571a79.791,79.791,0,0,1,6.085-7.71Z" transform="translate(-50.014 -287.691)" fill="#fff" opacity="0.2"/>
    </g>
    <g id="freepik--character-1--inject-3" transform="translate(135.21 97.498)">
      <path id="Path_54418" data-name="Path 54418" d="M305.806,253.895c-4.581,3.184-9.748,5.385-13.568,9.65-7.144,7.965-7.311,20.786-1.7,29.9s16.051,14.585,26.681,15.838a42.837,42.837,0,0,0,31.6-8.819,38.281,38.281,0,0,0,14.311-29.244,34.607,34.607,0,0,0-15.16-28.547c-8.583-5.57-20.911-7.19-29.522-.789-4.349,3.249-7.255,8.016-11.6,11.266C306.53,253.4,306.178,253.644,305.806,253.895Z" transform="translate(-279.006 -209.41)" fill="#938c78"/>
      <path id="Path_54419" data-name="Path 54419" d="M305.806,253.895c-4.581,3.184-9.748,5.385-13.568,9.65-7.144,7.965-7.311,20.786-1.7,29.9s16.051,14.585,26.681,15.838a42.837,42.837,0,0,0,31.6-8.819,38.281,38.281,0,0,0,14.311-29.244,34.607,34.607,0,0,0-15.16-28.547c-8.583-5.57-20.911-7.19-29.522-.789-4.349,3.249-7.255,8.016-11.6,11.266C306.53,253.4,306.178,253.644,305.806,253.895Z" transform="translate(-279.006 -209.41)" opacity="0.2"/>
      <path id="Path_54420" data-name="Path 54420" d="M305.806,253.895c-4.581,3.184-9.748,5.385-13.568,9.65-7.144,7.965-7.311,20.786-1.7,29.9s16.051,14.585,26.681,15.838a42.837,42.837,0,0,0,31.6-8.819,38.281,38.281,0,0,0,14.311-29.244,34.607,34.607,0,0,0-15.16-28.547c-8.583-5.57-20.911-7.19-29.522-.789-4.349,3.249-7.255,8.016-11.6,11.266C306.53,253.4,306.178,253.644,305.806,253.895Z" transform="translate(-279.006 -209.41)" fill="#fff" opacity="0.1"/>
      <path id="Path_54421" data-name="Path 54421" d="M316.023,313.029a1.789,1.789,0,0,1,.032-.227,12.069,12.069,0,0,1,9.771-10.036,38.064,38.064,0,0,0,12.533-4.8c2.734-1.652,5.32-3.681,8.388-4.577a13.68,13.68,0,0,1,9.042.525,10.489,10.489,0,0,0-10.532-2.674,34.722,34.722,0,0,0,5.44-12.166c.845-4.391.241-9.214-2.4-12.816a12.9,12.9,0,0,0-19.918-1.1c-2.623,2.869-4.1,6.907-5.821,10.388-1.239,2.5-2.516,5.064-4.558,6.963-3.073,2.878-7.5,3.913-10.676,6.666-3.616,3.124-5.176,8.114-5.19,12.89a37.779,37.779,0,0,0,1.393,9.53,36.164,36.164,0,0,0,13.081,8A14.176,14.176,0,0,1,316.023,313.029Z" transform="translate(-287.338 -221.861)" opacity="0.1"/>
      <path id="Path_54422" data-name="Path 54422" d="M391.814,269.81A32.781,32.781,0,0,0,363.857,238a24.02,24.02,0,0,0-3.161.529,31.95,31.95,0,0,1,30.251,31.309c.209,10.449-4.906,21.1-13.675,28.492-6.87,5.793-16,9.636-26.031,11.015.214.032.432.06.645.084.9.107,1.806.181,2.716.232a50.892,50.892,0,0,0,23.209-10.676C386.8,291.423,392.023,280.519,391.814,269.81Z" transform="translate(-313.652 -209.548)" fill="#fff"/>
      <path id="Path_54423" data-name="Path 54423" d="M323.34,383.771l1.151,2.279a6.291,6.291,0,0,0,1.917-2.715c-.525-1.857-1.137-3.746-1.444-4.665-.153,1.281-1.026,2.381-1.393,3.63A6.351,6.351,0,0,0,323.34,383.771Z" transform="translate(-298.703 -284.921)" fill="#37474f"/>
      <path id="Path_54424" data-name="Path 54424" d="M323.385,391.995l1.1-.056-1.151-2.279C323.3,390.431,323.362,391.21,323.385,391.995Z" transform="translate(-298.693 -290.81)" fill="#263238"/>
      <path id="Path_54425" data-name="Path 54425" d="M311.637,371.047a10.072,10.072,0,0,0-1.36-1.588,5.505,5.505,0,0,1-.023,3.04c-.339,1.318-.956,2.558-1.267,3.885-.376,1.615-.288,3.351-.975,4.865a5.2,5.2,0,0,1-3.644,2.906,2.293,2.293,0,0,1-1.736-.209,1.23,1.23,0,0,1-.464-.645,11.439,11.439,0,0,1-1.249,2.033c-.538.7-1.212,1.467-1.063,2.321a1.857,1.857,0,0,0,1.523,1.393,4.921,4.921,0,0,0,2.168-.181,13.518,13.518,0,0,0,4.34-1.769,6.5,6.5,0,0,0,2.757-3.713,8.3,8.3,0,0,0,.167-2.251c0-.78-.088-1.564-.056-2.321a6.348,6.348,0,0,1,.227-1.471c.371-1.249,1.244-2.349,1.393-3.63,0-.07.023-.135.028-.2A4.178,4.178,0,0,0,311.637,371.047Z" transform="translate(-286.109 -279.986)" fill="#455a64"/>
      <path id="Path_54426" data-name="Path 54426" d="M311.637,371.047a10.072,10.072,0,0,0-1.36-1.588,5.505,5.505,0,0,1-.023,3.04c-.339,1.318-.956,2.558-1.267,3.885-.376,1.615-.288,3.351-.975,4.865a5.2,5.2,0,0,1-3.644,2.906,2.293,2.293,0,0,1-1.736-.209,1.23,1.23,0,0,1-.464-.645,11.439,11.439,0,0,1-1.249,2.033c-.538.7-1.212,1.467-1.063,2.321a1.857,1.857,0,0,0,1.523,1.393,4.921,4.921,0,0,0,2.168-.181,13.518,13.518,0,0,0,4.34-1.769,6.5,6.5,0,0,0,2.757-3.713,8.3,8.3,0,0,0,.167-2.251c0-.78-.088-1.564-.056-2.321a6.348,6.348,0,0,1,.227-1.471c.371-1.249,1.244-2.349,1.393-3.63,0-.07.023-.135.028-.2A4.178,4.178,0,0,0,311.637,371.047Z" transform="translate(-286.109 -279.986)" opacity="0.1"/>
      <path id="Path_54427" data-name="Path 54427" d="M307.049,383.711a5.2,5.2,0,0,0,3.644-2.906c.687-1.513.6-3.249.975-4.865.311-1.328.928-2.567,1.267-3.885a5.505,5.505,0,0,0,.023-3.04c-.13-.13-.26-.26-.395-.385a46.5,46.5,0,0,0-5.965,3.147,42.534,42.534,0,0,1-.436,6.833,16.132,16.132,0,0,1-1.323,4.247,1.23,1.23,0,0,0,.464.645A2.293,2.293,0,0,0,307.049,383.711Z" transform="translate(-288.79 -279.542)" fill="#ab6160"/>
      <path id="Path_54428" data-name="Path 54428" d="M293.229,388.14a45.323,45.323,0,0,1-1.769,5.737s6.782.274,6.935-.037l1.991-3.082Z" transform="translate(-281.621 -289.995)" fill="#c48281"/>
      <path id="Path_54429" data-name="Path 54429" d="M313.96,291.26l-17.291,9.627a8.574,8.574,0,0,0-4.257,9.056l3.356,18.1-2.753,8.75c2.377,3.184,7.831,3.347,7.831,3.347,3.045-6.1,5.278-8.694,7-13.809s2.883-8.643,2.883-8.643l14.39-3.927a17.035,17.035,0,0,0,12.454-14.492c.246-2.172.255-3.653.255-3.653Z" transform="translate(-282.054 -238.085)" fill="#455a64"/>
      <path id="Path_54430" data-name="Path 54430" d="M316.841,303.53a8.179,8.179,0,0,0,1.936,5.273l-10.9,6.81a8.782,8.782,0,0,0-3.741,4.874l-4.322,14.134,3.9-15.74a7.135,7.135,0,0,1,3.175-4.354l9.971-6.137A5.842,5.842,0,0,1,316.841,303.53Z" transform="translate(-286.095 -244.66)" opacity="0.2"/>
      <path id="Path_54431" data-name="Path 54431" d="M299.39,414.717l.158,2.544a6.25,6.25,0,0,0,2.832-1.741c.246-1.917.427-3.895.511-4.86-.65,1.119-1.885,1.787-2.715,2.785a5.947,5.947,0,0,0-.784,1.272Z" transform="translate(-285.87 -302.062)" fill="#37474f"/>
      <path id="Path_54432" data-name="Path 54432" d="M297.52,421.563l1.026.381-.158-2.544C298.054,420.092,297.8,420.839,297.52,421.563Z" transform="translate(-284.868 -306.745)" fill="#263238"/>
      <path id="Path_54433" data-name="Path 54433" d="M287.66,402.411a10.215,10.215,0,0,0-.622-1.991,5.524,5.524,0,0,1-1.216,2.785c-.831,1.077-1.889,1.973-2.692,3.068-.984,1.341-1.587,2.971-2.808,4.089a5.218,5.218,0,0,1-4.5,1.244,2.293,2.293,0,0,1-1.509-.877,1.24,1.24,0,0,1-.186-.78,11.6,11.6,0,0,1-1.945,1.393c-.771.432-1.694.873-1.9,1.731a1.857,1.857,0,0,0,.854,1.857,4.912,4.912,0,0,0,2.061.687,13.489,13.489,0,0,0,4.688.079,6.457,6.457,0,0,0,3.983-2.321,8.318,8.318,0,0,0,1.044-2.005c.283-.724.534-1.471.868-2.163a5.947,5.947,0,0,1,.784-1.267c.831-1,2.066-1.671,2.715-2.785.032-.056.074-.111.107-.176a4.178,4.178,0,0,0,.269-2.567Z" transform="translate(-270.264 -296.575)" fill="#455a64"/>
      <path id="Path_54434" data-name="Path 54434" d="M280.278,411.027a5.217,5.217,0,0,0,4.5-1.244c1.221-1.119,1.824-2.748,2.808-4.089.8-1.1,1.857-1.991,2.692-3.068a5.524,5.524,0,0,0,1.216-2.785l-.209-.511a45.7,45.7,0,0,0-6.726.548,42.086,42.086,0,0,1-3.087,6.109,15.906,15.906,0,0,1-2.887,3.389,1.24,1.24,0,0,0,.186.78A2.293,2.293,0,0,0,280.278,411.027Z" transform="translate(-274.719 -295.991)" fill="#c48281"/>
      <path id="Path_54435" data-name="Path 54435" d="M349.646,204.317a27.531,27.531,0,0,0,.464-20.61,11.291,11.291,0,0,0-3.82-5.463c-2.4-1.615-5.491-1.592-8.379-1.509a14.32,14.32,0,0,0-4.535.622,4.674,4.674,0,0,0-2.994,3.152,4.017,4.017,0,0,0-4.3,2.994,6.311,6.311,0,0,0,1.332,5.389,15.53,15.53,0,0,0,4.438,3.611,4.891,4.891,0,0,0-2.07,2.785,4.391,4.391,0,0,0,.227,3.249,4.349,4.349,0,0,0-4.052,2.887,5.468,5.468,0,0,0,.979,4.92,7.956,7.956,0,0,0,4.345,2.72,14.854,14.854,0,0,0,5.19.278c1.792,1.736,5.074,1.7,7.325.622A13.012,13.012,0,0,0,349.646,204.317Z" transform="translate(-299.989 -176.705)" fill="#263238"/>
      <path id="Path_54436" data-name="Path 54436" d="M324.188,226.8h-.441c-2.948.032-6.68,2.042-8.5,7.186l-7.083,13.721,8.086,3.583,4.424-12.951Z" transform="translate(-290.569 -203.547)" fill="#c48281"/>
      <path id="Path_54437" data-name="Path 54437" d="M320.178,241.035a18.321,18.321,0,0,0-.687,5.106,13.61,13.61,0,0,1-1.072,5.306,4.869,4.869,0,0,0-5.83.214,4.493,4.493,0,0,0-1.309,1.857l6.638,2.943,4.424-12.951,2.177-7.139A8.281,8.281,0,0,0,320.178,241.035Z" transform="translate(-292.241 -208.674)" fill="#ab6160"/>
      <path id="Path_54438" data-name="Path 54438" d="M315.59,270.771a4.818,4.818,0,0,0-3.658-2.957,5.134,5.134,0,0,0-4.5,1.857,3.558,3.558,0,0,0-.186,3.774A4.707,4.707,0,0,0,312.638,276C314.727,275.408,316.379,272.79,315.59,270.771Z" transform="translate(-289.839 -225.497)" fill="#c48281"/>
      <path id="Path_54439" data-name="Path 54439" d="M336.633,226.067c-3.119.5-5.055,8.388-6.067,11.386-1.049,3.1.376,5.343,1.964,7.213h0a3.2,3.2,0,0,1,.729,2.479L330,259.34c8.959,6.652,23.98,3.43,28.055,1.258a28.779,28.779,0,0,0-2.632-12.347,20.336,20.336,0,0,1-1.987-7.989l-.153-4.475,1.082-7.724-7.78-1.857-6.856-.306a27.288,27.288,0,0,0-3.1.167Z" transform="translate(-302.272 -203.064)" fill="#938c78"/>
      <path id="Path_54440" data-name="Path 54440" d="M336.633,226.067c-3.119.5-5.055,8.388-6.067,11.386-1.049,3.1.376,5.343,1.964,7.213h0a3.2,3.2,0,0,1,.729,2.479L330,259.34c8.959,6.652,23.98,3.43,28.055,1.258a28.779,28.779,0,0,0-2.632-12.347,20.336,20.336,0,0,1-1.987-7.989l-.153-4.475,1.082-7.724-7.78-1.857-6.856-.306a27.288,27.288,0,0,0-3.1.167Z" transform="translate(-302.272 -203.064)" opacity="0.4"/>
      <g id="Group_38982" data-name="Group 38982" transform="translate(20.392 43.65)">
        <path id="Path_54441" data-name="Path 54441" d="M328.095,285.325h0v-.162h0l-5.292-9.855v-.084l-.023-.032v-.033l-.046-.065-.028-.028-.023-.032v-.07h0l-.079-.07h-.111l-.032-.023h-.037L315.5,270.74h-.464a.144.144,0,0,0-.093.037l-.724.831h.023c-.06.046-.065.144.023.306l5.292,9.855a3.412,3.412,0,0,0,1.17,1.1l6.085,3.426c.311.176.5.181.529.051v.056h0l.729-.831a.093.093,0,0,0,0-.037.08.08,0,0,0,0-.033Zm-13.721-13.888h0Zm6.963,3.932c.056.046.116.093.167.144h0a.917.917,0,0,0-.153-.144Zm.381.371.074.079h0Zm5.649,10.439a.542.542,0,0,0-.065-.2.575.575,0,0,1,.065.181h0S327.361,286.151,327.366,286.179Z" transform="translate(-314.194 -270.74)" fill="#455a64"/>
      </g>
      <path id="Path_54442" data-name="Path 54442" d="M337.1,290.6h0v-.162h0l-5.292-9.855-.808.8,5.3,9.855a.575.575,0,0,1,.065.181h0a.121.121,0,0,1-.023.111h0l.729-.831a.093.093,0,0,0,0-.037.079.079,0,0,0,0-.033Z" transform="translate(-302.807 -232.363)" fill="#fff" opacity="0.15"/>
      <path id="Path_54443" data-name="Path 54443" d="M322.739,275.247v-.056l-.023-.033v-.032l-.046-.065-.028-.028-.023-.033v-.07h0l-.079-.07h-.111l-.033-.023h-.037l-6.837-4.1h-.464a.144.144,0,0,0-.093.037l-.724.831q.051-.056.181-.028h0a1.288,1.288,0,0,1,.334.139l6.085,3.426a2.479,2.479,0,0,1,.348.227h0a3.921,3.921,0,0,1,.334.288h0a2.928,2.928,0,0,1,.288.306h0a1.806,1.806,0,0,1,.2.288l.729-.831Z" transform="translate(-293.827 -227.09)" fill="#fff" opacity="0.2"/>
      <path id="Path_54444" data-name="Path 54444" d="M354.921,232.948a4.761,4.761,0,0,0-3.713-2.748s-2.785,1.448-2.785,8.021l.186,16.446h0c-.4.162-.808.334-1.207.5a49.2,49.2,0,0,1-10.579,3.2,10.449,10.449,0,0,0-6.675-2.265l.9,1.671c-1.7,1.091-5.542-.873-5.542-.873a6.74,6.74,0,0,0,3.333,6.141c2.061,1.258,21.715-.59,25.883-3.286,2.743-1.773,2.093-18.73,2.093-18.73a14.185,14.185,0,0,0-1.889-8.077Z" transform="translate(-299.843 -205.368)" fill="#c48281"/>
      <path id="Path_54445" data-name="Path 54445" d="M316.333,277a11.362,11.362,0,0,0-.223,1.964A7.19,7.19,0,0,0,318,283.169a2.135,2.135,0,0,0,.817.576.928.928,0,0,0,.928-.149,1.425,1.425,0,0,0,.33-.989,5.222,5.222,0,0,0-.088-1.592,2.2,2.2,0,0,0-.84-1.323,4.744,4.744,0,0,0-1.063-.464,2.6,2.6,0,0,1-.928-.687Z" transform="translate(-294.829 -230.445)" fill="#c48281"/>
      <path id="Path_54446" data-name="Path 54446" d="M349.468,215.938v6.211a3.327,3.327,0,0,0-1.249,2.056,2.145,2.145,0,0,0,1.109,1.936,3.022,3.022,0,0,0,2.284.223,5.208,5.208,0,0,0,2.019-1.17,8.392,8.392,0,0,0,2.692-5.9V213Z" transform="translate(-312.033 -196.152)" fill="#c48281"/>
      <path id="Path_54447" data-name="Path 54447" d="M357.5,213c-.65,3.416-1.982,6.378-6.591,7.427v-4.512Z" transform="translate(-313.475 -196.152)" fill="#ab6160"/>
      <path id="Path_54448" data-name="Path 54448" d="M347.727,196.285a6.748,6.748,0,0,0,0,1.648,1.95,1.95,0,0,0,.59,1.077,1.23,1.23,0,0,0,1.123.283,2.149,2.149,0,0,1,4.127-1.188,2.683,2.683,0,0,1-.357,2.251,5.106,5.106,0,0,1-1.731,1.569,1.815,1.815,0,0,1-2.2-.761c-1.982,2.734-5.542,4.869-8.963,4.721a4.883,4.883,0,0,1-2.632-.808c-1.328-.928-1.485-2.446-1.708-3.932a20.921,20.921,0,0,1-.19-5.672,11.093,11.093,0,0,1,3.3-6.963C340.467,194.089,345.731,195.951,347.727,196.285Z" transform="translate(-305.311 -183.03)" fill="#c48281"/>
      <path id="Path_54449" data-name="Path 54449" d="M343.719,204.5l-2.219,2.975,2.2.659Z" transform="translate(-308.433 -191.598)" fill="#ab6160"/>
      <path id="Path_54450" data-name="Path 54450" d="M348.6,215.18l-1.8.65a1.128,1.128,0,0,0,1.258.5,1.012,1.012,0,0,0,.538-1.151Z" transform="translate(-311.273 -197.32)" fill="#ab6160"/>
      <path id="Path_54451" data-name="Path 54451" d="M348.6,215.18l-1.8.65a1.128,1.128,0,0,0,1.258.5,1.012,1.012,0,0,0,.538-1.151Z" transform="translate(-311.273 -197.32)" opacity="0.3"/>
      <path id="Path_54452" data-name="Path 54452" d="M348.22,216.66a1.054,1.054,0,0,0,.6,0,.928.928,0,0,0,.548-.849,1.035,1.035,0,0,0-1.147.845Z" transform="translate(-312.034 -197.654)" fill="#ab6160"/>
      <path id="Path_54453" data-name="Path 54453" d="M351.76,204.76a.645.645,0,1,1-.187-.459A.65.65,0,0,1,351.76,204.76Z" transform="translate(-313.234 -191.389)" fill="#263238"/>
      <path id="Path_54454" data-name="Path 54454" d="M340.024,204.244a.652.652,0,1,1-.654-.654A.655.655,0,0,1,340.024,204.244Z" transform="translate(-306.944 -191.11)" fill="#263238"/>
      <path id="Path_54455" data-name="Path 54455" d="M338.466,199.233l-1.444.989a.928.928,0,0,1,.288-1.017A1.1,1.1,0,0,1,338.466,199.233Z" transform="translate(-306.007 -188.68)" fill="#263238"/>
      <path id="Path_54456" data-name="Path 54456" d="M352.16,199.118l1.434,1a.928.928,0,0,0-.274-1.021A1.1,1.1,0,0,0,352.16,199.118Z" transform="translate(-314.145 -188.62)" fill="#263238"/>
    </g>
  </g>
</svg>
