<svg xmlns="http://www.w3.org/2000/svg" xmlns:xlink="http://www.w3.org/1999/xlink" width="366.484" height="261.096" viewBox="0 0 366.484 261.096">
  <defs>
    <linearGradient id="linear-gradient" y1="0.5" x2="1" y2="0.5" gradientUnits="objectBoundingBox">
      <stop offset="0" stop-color="#e39a65"/>
      <stop offset="1" stop-color="#e95f8d"/>
    </linearGradient>
    <radialGradient id="radial-gradient" cx="0.193" cy="-0.023" r="1.117" gradientTransform="translate(-0.04) scale(1.08 1)" gradientUnits="objectBoundingBox">
      <stop offset="0" stop-color="#e39a65"/>
      <stop offset="0.474" stop-color="#a92ffb"/>
      <stop offset="0.595" stop-color="#881bfa"/>
      <stop offset="0.742" stop-color="#6507fa"/>
      <stop offset="0.802" stop-color="#0d0c6f"/>
    </radialGradient>
    <radialGradient id="radial-gradient-2" cx="0.01" cy="0.384" r="1.712" gradientTransform="translate(0.213) scale(0.573 1)" gradientUnits="objectBoundingBox">
      <stop offset="0" stop-color="#e39a65"/>
      <stop offset="0.474" stop-color="#a92ffb"/>
      <stop offset="0.568" stop-color="#881bfa"/>
      <stop offset="0.683" stop-color="#6507fa"/>
      <stop offset="0.738" stop-color="#0d0c6f"/>
    </radialGradient>
    <radialGradient id="radial-gradient-3" cx="0.101" cy="0.074" r="1.524" gradientTransform="translate(0.211) scale(0.577 1)" gradientUnits="objectBoundingBox">
      <stop offset="0" stop-color="#e39a65"/>
      <stop offset="0.474" stop-color="#a92ffb"/>
      <stop offset="0.588" stop-color="#881bfa"/>
      <stop offset="0.726" stop-color="#6507fa"/>
      <stop offset="1" stop-color="#3919bb"/>
    </radialGradient>
    <radialGradient id="radial-gradient-4" cx="-0.116" cy="0.206" r="1.121" gradientTransform="translate(-0.038) scale(1.077 1)" xlink:href="#radial-gradient-3"/>
    <linearGradient id="linear-gradient-6" y1="0.5" x2="1" y2="0.5" gradientUnits="objectBoundingBox">
      <stop offset="0" stop-color="#3919bb"/>
      <stop offset="1" stop-color="#6507fa"/>
    </linearGradient>
    <radialGradient id="radial-gradient-5" cx="-1.084" cy="-0.321" r="2.658" gradientTransform="translate(-0.038) scale(1.077 1)" xlink:href="#radial-gradient-3"/>
    <radialGradient id="radial-gradient-6" cx="-0.082" cy="0.242" r="2.243" gradientTransform="translate(-0.159) scale(1.318 1)" gradientUnits="objectBoundingBox">
      <stop offset="0" stop-color="#e39a65"/>
      <stop offset="0.153" stop-color="#a92ffb"/>
      <stop offset="0.409" stop-color="#3919bb"/>
      <stop offset="0.931" stop-color="#3919bb"/>
    </radialGradient>
    <linearGradient id="linear-gradient-8" y1="0.5" x2="1" y2="0.5" gradientUnits="objectBoundingBox">
      <stop offset="0" stop-color="#e39a65"/>
      <stop offset="0.252" stop-color="#a92ffb"/>
      <stop offset="0.556" stop-color="#3919bb"/>
    </linearGradient>
    <linearGradient id="linear-gradient-9" y1="0.5" x2="1" y2="0.5" gradientUnits="objectBoundingBox">
      <stop offset="0" stop-color="#4f1fec"/>
      <stop offset="1" stop-color="#a92ffb"/>
    </linearGradient>
    <linearGradient id="linear-gradient-11" y1="0.5" x2="1.261" y2="0.5" gradientUnits="objectBoundingBox">
      <stop offset="0" stop-color="#131060"/>
      <stop offset="0.186" stop-color="#140f62"/>
      <stop offset="0.282" stop-color="#190f6a"/>
      <stop offset="0.358" stop-color="#220f77"/>
      <stop offset="0.424" stop-color="#2e0f8a"/>
      <stop offset="0.482" stop-color="#3d0ea3"/>
      <stop offset="0.536" stop-color="#510ec1"/>
      <stop offset="0.585" stop-color="#670de5"/>
      <stop offset="0.607" stop-color="#740df8"/>
      <stop offset="0.618" stop-color="#7a14ef"/>
      <stop offset="0.683" stop-color="#9b3bc2"/>
      <stop offset="0.748" stop-color="#b75c9d"/>
      <stop offset="0.812" stop-color="#cc7680"/>
      <stop offset="0.876" stop-color="#db886b"/>
      <stop offset="0.939" stop-color="#e4935f"/>
      <stop offset="1" stop-color="#e8975b"/>
    </linearGradient>
    <radialGradient id="radial-gradient-7" cx="-0.135" cy="0.092" r="3.209" gradientTransform="translate(0.211) scale(0.577 1)" gradientUnits="objectBoundingBox">
      <stop offset="0" stop-color="#e39a65"/>
      <stop offset="0.252" stop-color="#a92ffb"/>
      <stop offset="0.736" stop-color="#3919bb"/>
    </radialGradient>
    <linearGradient id="linear-gradient-12" x1="-0.089" y1="0.5" x2="1.209" y2="0.5" xlink:href="#linear-gradient-11"/>
    <radialGradient id="radial-gradient-8" cx="-0.017" cy="0.579" r="1.096" gradientTransform="translate(0.211) scale(0.577 1)" xlink:href="#radial-gradient-2"/>
    <radialGradient id="radial-gradient-9" cx="0.146" cy="0.327" r="1.954" gradientTransform="matrix(-0.408, 0.707, 0.471, 0.817, 56.609, -27.188)" gradientUnits="objectBoundingBox">
      <stop offset="0" stop-color="#e39a65"/>
      <stop offset="0.401" stop-color="#a92ffb"/>
      <stop offset="0.547" stop-color="#881bfa"/>
      <stop offset="0.726" stop-color="#6507fa"/>
      <stop offset="1" stop-color="#3919bb"/>
    </radialGradient>
    <radialGradient id="radial-gradient-10" cx="0.052" cy="0.537" r="7.112" gradientTransform="matrix(-0.408, 0.707, 0.468, 0.811, 328.924, -154.129)" gradientUnits="objectBoundingBox">
      <stop offset="0" stop-color="#e39a65"/>
      <stop offset="0.136" stop-color="#d47e8c"/>
      <stop offset="0.401" stop-color="#a92ffb"/>
      <stop offset="0.559" stop-color="#861afa"/>
      <stop offset="0.726" stop-color="#6507fa"/>
      <stop offset="1" stop-color="#3919bb"/>
    </radialGradient>
  </defs>
  <g id="Group_36832" data-name="Group 36832" transform="translate(-79.827 -65.264)">
    <path id="Path_41158" data-name="Path 41158" d="M499.329,313.356a5.821,5.821,0,0,1-2.91-.778l-9.809-5.663a1.816,1.816,0,0,1,0-3.147l9.809-5.663a5.836,5.836,0,0,1,5.819,0l9.81,5.663a1.816,1.816,0,0,1,0,3.147l-9.81,5.663A5.813,5.813,0,0,1,499.329,313.356Zm0-14.474a4.266,4.266,0,0,0-2.133.568l-9.809,5.664a.261.261,0,0,0,0,.453l9.81,5.663h0a4.273,4.273,0,0,0,4.262,0l9.811-5.663a.262.262,0,0,0,0-.453l-9.811-5.664A4.265,4.265,0,0,0,499.329,298.882Z" transform="translate(-66.646 -38.105)" fill="url(#linear-gradient)"/>
    <path id="Path_41159" data-name="Path 41159" d="M463.942,272.855a9.441,9.441,0,0,1-4.726-1.263l-16.882-9.747a2.565,2.565,0,0,1,0-4.443l16.881-9.746a9.474,9.474,0,0,1,9.454,0l16.881,9.746a2.565,2.565,0,0,1,0,4.444l-16.881,9.746A9.446,9.446,0,0,1,463.942,272.855Zm0-24.908A7.9,7.9,0,0,0,459.992,249l-16.882,9.746a1.012,1.012,0,0,0,0,1.75l16.883,9.747h0a7.929,7.929,0,0,0,7.9,0l16.881-9.746a1.011,1.011,0,0,0,0-1.751L467.891,249A7.9,7.9,0,0,0,463.941,247.947Z" transform="translate(-59.314 -29.742)" fill="url(#linear-gradient)"/>
    <path id="Path_41160" data-name="Path 41160" d="M102.719,276.757a9.455,9.455,0,0,1-4.727-1.263h0L81.11,265.747a2.565,2.565,0,0,1,0-4.443l16.881-9.746a9.474,9.474,0,0,1,9.454,0l16.881,9.746a2.565,2.565,0,0,1,0,4.443l-16.881,9.747A9.448,9.448,0,0,1,102.719,276.757Zm-3.95-2.609a7.923,7.923,0,0,0,7.9,0l16.881-9.747a1.011,1.011,0,0,0,0-1.75L106.668,252.9a7.925,7.925,0,0,0-7.9,0L81.887,262.65a1.011,1.011,0,0,0,0,1.75Z" transform="translate(0 -30.383)" fill="url(#linear-gradient)"/>
    <path id="Path_41161" data-name="Path 41161" d="M224.055,124.436a13.046,13.046,0,0,1-6.529-1.744h0l-23.9-13.8a3.309,3.309,0,0,1,0-5.73l23.9-13.8a13.094,13.094,0,0,1,13.06,0l23.9,13.8a3.308,3.308,0,0,1,0,5.73l-23.9,13.8A13.056,13.056,0,0,1,224.055,124.436Zm-5.753-3.091a11.546,11.546,0,0,0,11.506,0l23.9-13.8a1.754,1.754,0,0,0,0-3.037l-23.9-13.8a11.538,11.538,0,0,0-11.506,0l-23.9,13.8a1.754,1.754,0,0,0,0,3.037Z" transform="translate(-18.414 -3.671)" fill="url(#linear-gradient)"/>
    <g id="Group_36821" data-name="Group 36821" transform="translate(133.129 65.264)">
      <path id="Path_41162" data-name="Path 41162" d="M287.813,323.831,167.1,254.137c-1.76-1.016-1.539-2.791.492-3.963l77.476-44.731a7.629,7.629,0,0,1,6.864-.284l120.715,69.695c1.759,1.016,1.539,2.79-.493,3.963l-77.476,44.73A7.632,7.632,0,0,1,287.813,323.831Z" transform="translate(-147.264 -88.122)" fill="#020230" opacity="0.6"/>
      <path id="Path_41163" data-name="Path 41163" d="M286.915,334.331a7.715,7.715,0,0,1-3.8-.89L145.346,253.9a3.08,3.08,0,0,1-1.745-2.638,3.974,3.974,0,0,1,2.307-3.233l93.914-55.022c2.576-1.488,6.361-1.631,8.617-.327l137.77,79.543a3.077,3.077,0,0,1,1.745,2.637,3.972,3.972,0,0,1-2.308,3.232l-93.913,55.022A9.856,9.856,0,0,1,286.915,334.331ZM244.658,193.35a8.383,8.383,0,0,0-4.054,1l-93.913,55.022c-.963.556-1.535,1.26-1.534,1.888a1.643,1.643,0,0,0,.966,1.29l137.77,79.542h0c1.762,1.017,4.992.869,7.057-.324l93.914-55.022c.963-.556,1.534-1.26,1.534-1.888a1.644,1.644,0,0,0-.966-1.29l-137.77-79.543A6.16,6.16,0,0,0,244.658,193.35Z" transform="translate(-143.601 -86.039)" fill="url(#linear-gradient)"/>
      <path id="Path_41164" data-name="Path 41164" d="M421.713,135.151,301.473,65.73a3.114,3.114,0,0,0-2.454-.353h0l-.011,0-2.227.776.784.186a3.883,3.883,0,0,0-.735,1.375L269.639,156a5.325,5.325,0,0,0,2.2,5.941l120.239,69.42a3.542,3.542,0,0,0,.885.362l-.3.649,2.127-.747-.005,0a3.4,3.4,0,0,0,1.935-2.249l27.191-88.286A5.325,5.325,0,0,0,421.713,135.151Z" transform="translate(-164.262 -65.264)" fill="url(#radial-gradient)"/>
      <path id="Path_41165" data-name="Path 41165" d="M370.788,254.347l.043.051L252.066,185.829a7.576,7.576,0,0,0-6.817.283l-76.734,44.3-2.558-.977.719,3.59,0,0a2.149,2.149,0,0,0,1.152,1.437l119.863,69.2a7.577,7.577,0,0,0,6.816-.283l76.929-44.415a3.077,3.077,0,0,0,1.63-1.9l.005.005.734-3.494Z" transform="translate(-147.272 -84.949)" fill="url(#radial-gradient-2)"/>
      <path id="Path_41166" data-name="Path 41166" d="M287.813,299.721,167.1,230.026c-1.76-1.016-1.539-2.79.492-3.963l77.476-44.731a7.629,7.629,0,0,1,6.864-.284l120.715,69.695c1.759,1.015,1.539,2.79-.493,3.962l-77.476,44.731A7.629,7.629,0,0,1,287.813,299.721Z" transform="translate(-147.264 -84.163)" fill="url(#radial-gradient-3)"/>
      <path id="Path_41167" data-name="Path 41167" d="M372.157,263.092l-77.476,44.73a7.629,7.629,0,0,1-6.864.285L167.1,238.413a2.257,2.257,0,0,1-1.1-1.252,1.882,1.882,0,0,0,1.1,2.191l120.714,69.7a7.632,7.632,0,0,0,6.864-.285l77.476-44.73c1.34-.774,1.874-1.805,1.591-2.711A3.2,3.2,0,0,1,372.157,263.092Z" transform="translate(-147.268 -93.49)" fill="#fff"/>
      <g id="Group_36817" data-name="Group 36817" transform="translate(73.117 112.428)" opacity="0.4">
        <path id="Path_41168" data-name="Path 41168" d="M235.379,225.063,231.3,222.71c-.328-.189-.286-.519.092-.737l4.81-2.777a1.42,1.42,0,0,1,1.277-.053l4.075,2.353c.327.189.286.519-.092.737l-4.81,2.777A1.42,1.42,0,0,1,235.379,225.063Z" transform="translate(-231.083 -202.938)" fill="#06033e"/>
        <path id="Path_41169" data-name="Path 41169" d="M242.909,229.411l-4.075-2.354c-.327-.189-.286-.518.092-.736l4.81-2.777a1.42,1.42,0,0,1,1.277-.053l4.075,2.354c.328.189.286.518-.092.736l-4.81,2.777A1.418,1.418,0,0,1,242.909,229.411Z" transform="translate(-232.319 -203.652)" fill="#06033e"/>
        <path id="Path_41170" data-name="Path 41170" d="M250.44,233.758l-4.076-2.353c-.327-.189-.286-.519.092-.737l4.811-2.777a1.418,1.418,0,0,1,1.276-.053l4.075,2.353c.328.189.287.519-.091.737l-4.811,2.777A1.418,1.418,0,0,1,250.44,233.758Z" transform="translate(-233.556 -204.366)" fill="#06033e"/>
        <path id="Path_41171" data-name="Path 41171" d="M260.854,230.255l-4.075-2.353c-.327-.189-.286-.519.092-.737l4.038-2.332a1.42,1.42,0,0,1,1.277-.053l4.075,2.353c.327.189.286.519-.092.737l-4.038,2.332A1.42,1.42,0,0,1,260.854,230.255Z" transform="translate(-235.266 -203.864)" fill="#06033e"/>
        <path id="Path_41172" data-name="Path 41172" d="M268.385,234.6l-4.076-2.353c-.327-.189-.286-.519.092-.737l4.039-2.331a1.418,1.418,0,0,1,1.276-.053l4.075,2.353c.328.189.287.519-.091.737l-4.039,2.331A1.416,1.416,0,0,1,268.385,234.6Z" transform="translate(-236.502 -204.578)" fill="#06033e"/>
        <path id="Path_41173" data-name="Path 41173" d="M275.915,238.95,271.84,236.6c-.328-.189-.287-.519.091-.737l4.039-2.331a1.419,1.419,0,0,1,1.276-.053l4.076,2.354c.327.188.286.518-.092.736l-4.039,2.332A1.418,1.418,0,0,1,275.915,238.95Z" transform="translate(-237.739 -205.292)" fill="#06033e"/>
        <path id="Path_41174" data-name="Path 41174" d="M283.445,243.3l-4.075-2.353c-.327-.189-.286-.519.092-.737l4.038-2.332a1.42,1.42,0,0,1,1.277-.053l4.075,2.353c.327.189.286.519-.092.737l-4.038,2.331A1.42,1.42,0,0,1,283.445,243.3Z" transform="translate(-238.975 -206.005)" fill="#06033e"/>
        <path id="Path_41175" data-name="Path 41175" d="M290.975,247.645l-4.075-2.353c-.327-.189-.286-.519.092-.737l4.038-2.331a1.417,1.417,0,0,1,1.277-.053l4.075,2.353c.328.189.286.519-.092.737l-4.038,2.331A1.42,1.42,0,0,1,290.975,247.645Z" transform="translate(-240.212 -206.719)" fill="#06033e"/>
        <path id="Path_41176" data-name="Path 41176" d="M298.506,251.993l-4.075-2.353c-.328-.189-.287-.519.091-.737l4.039-2.332a1.418,1.418,0,0,1,1.276-.053l4.075,2.353c.328.189.287.519-.091.737l-4.039,2.332A1.418,1.418,0,0,1,298.506,251.993Z" transform="translate(-241.448 -207.433)" fill="#06033e"/>
        <path id="Path_41177" data-name="Path 41177" d="M306.036,256.341l-4.075-2.354c-.328-.189-.287-.519.091-.737l4.039-2.331a1.418,1.418,0,0,1,1.276-.053l4.076,2.353c.327.189.286.519-.092.737l-4.039,2.331A1.418,1.418,0,0,1,306.036,256.341Z" transform="translate(-242.685 -208.147)" fill="#06033e"/>
        <path id="Path_41178" data-name="Path 41178" d="M313.566,260.688l-4.075-2.353c-.327-.189-.286-.519.092-.737l4.038-2.331a1.42,1.42,0,0,1,1.277-.053l4.075,2.354c.327.189.286.518-.092.736l-4.038,2.332A1.42,1.42,0,0,1,313.566,260.688Z" transform="translate(-243.921 -208.861)" fill="#06033e"/>
        <path id="Path_41179" data-name="Path 41179" d="M321.1,265.036l-4.076-2.353c-.327-.19-.286-.519.092-.737l4.038-2.332a1.42,1.42,0,0,1,1.277-.053l4.075,2.353c.328.189.287.519-.092.737l-4.038,2.332A1.418,1.418,0,0,1,321.1,265.036Z" transform="translate(-245.158 -209.575)" fill="#06033e"/>
        <path id="Path_41180" data-name="Path 41180" d="M328.627,269.383l-4.075-2.353c-.328-.189-.287-.519.091-.737l4.039-2.331a1.418,1.418,0,0,1,1.276-.053l4.075,2.354c.328.189.287.519-.091.737l-4.039,2.331A1.418,1.418,0,0,1,328.627,269.383Z" transform="translate(-246.394 -210.289)" fill="#06033e"/>
        <path id="Path_41181" data-name="Path 41181" d="M271.95,228.2l-4.075-2.354c-.328-.189-.287-.519.091-.737L272,222.776a1.418,1.418,0,0,1,1.276-.053l4.075,2.353c.328.189.287.519-.091.737l-4.039,2.331A1.418,1.418,0,0,1,271.95,228.2Z" transform="translate(-237.088 -203.526)" fill="#06033e"/>
        <path id="Path_41182" data-name="Path 41182" d="M264.307,223.784l-4.075-2.353c-.328-.189-.286-.519.092-.737l4.038-2.331a1.417,1.417,0,0,1,1.277-.053l4.075,2.353c.327.19.286.519-.092.737l-4.038,2.332A1.42,1.42,0,0,1,264.307,223.784Z" transform="translate(-235.833 -202.801)" fill="#06033e"/>
        <path id="Path_41183" data-name="Path 41183" d="M255.728,218.831l-8.778-5.067c-.328-.189-.286-.519.092-.737l4.038-2.331a1.42,1.42,0,0,1,1.277-.053l8.778,5.068c.327.189.286.519-.092.737L257,218.778A1.418,1.418,0,0,1,255.728,218.831Z" transform="translate(-233.652 -201.542)" fill="#06033e"/>
        <path id="Path_41184" data-name="Path 41184" d="M261.4,213.645l-7.123-4.113c-.327-.189-.286-.519.092-.737l4.038-2.331a1.42,1.42,0,0,1,1.277-.053l7.123,4.113c.328.189.287.519-.091.737l-4.039,2.331A1.418,1.418,0,0,1,261.4,213.645Z" transform="translate(-234.856 -200.847)" fill="#06033e"/>
        <path id="Path_41185" data-name="Path 41185" d="M279.48,232.544l-4.075-2.353c-.328-.189-.287-.519.092-.737l4.038-2.331a1.418,1.418,0,0,1,1.276-.053l4.076,2.354c.327.189.286.519-.092.736l-4.039,2.332A1.418,1.418,0,0,1,279.48,232.544Z" transform="translate(-238.324 -204.24)" fill="#06033e"/>
        <path id="Path_41186" data-name="Path 41186" d="M287.01,236.892l-4.075-2.353c-.327-.19-.286-.519.092-.737l4.038-2.332a1.42,1.42,0,0,1,1.277-.053l4.075,2.353c.327.189.286.519-.092.737l-4.038,2.332A1.42,1.42,0,0,1,287.01,236.892Z" transform="translate(-239.561 -204.954)" fill="#06033e"/>
        <path id="Path_41187" data-name="Path 41187" d="M294.541,241.24l-4.076-2.353c-.327-.189-.286-.519.092-.737l4.039-2.331a1.421,1.421,0,0,1,1.276-.054l4.075,2.354c.328.189.287.519-.092.737l-4.038,2.331A1.416,1.416,0,0,1,294.541,241.24Z" transform="translate(-240.797 -205.667)" fill="#06033e"/>
        <path id="Path_41188" data-name="Path 41188" d="M302.071,245.587,298,243.235c-.328-.189-.287-.519.091-.737l4.039-2.332a1.418,1.418,0,0,1,1.276-.053l4.075,2.353c.328.189.287.519-.091.737l-4.039,2.332A1.418,1.418,0,0,1,302.071,245.587Z" transform="translate(-242.034 -206.381)" fill="#06033e"/>
        <path id="Path_41189" data-name="Path 41189" d="M309.6,249.935l-4.075-2.354c-.328-.189-.286-.518.092-.737l4.038-2.331a1.42,1.42,0,0,1,1.277-.053l4.075,2.353c.327.189.286.519-.092.737l-4.038,2.331A1.42,1.42,0,0,1,309.6,249.935Z" transform="translate(-243.27 -207.095)" fill="#06033e"/>
        <path id="Path_41190" data-name="Path 41190" d="M317.131,254.282l-4.075-2.353c-.327-.189-.286-.519.092-.737l4.038-2.331a1.42,1.42,0,0,1,1.277-.054l4.075,2.354c.327.189.286.519-.092.737l-4.038,2.331A1.42,1.42,0,0,1,317.131,254.282Z" transform="translate(-244.507 -207.809)" fill="#06033e"/>
        <path id="Path_41191" data-name="Path 41191" d="M324.662,258.63l-4.076-2.353c-.327-.189-.286-.519.092-.737l4.039-2.332a1.418,1.418,0,0,1,1.276-.053l4.075,2.353c.328.189.287.519-.091.737l-4.039,2.331A1.416,1.416,0,0,1,324.662,258.63Z" transform="translate(-245.743 -208.523)" fill="#06033e"/>
        <path id="Path_41192" data-name="Path 41192" d="M332.192,262.977l-4.075-2.353c-.328-.189-.287-.519.091-.737l4.039-2.331a1.416,1.416,0,0,1,1.276-.053l4.076,2.353c.327.189.286.519-.092.737l-4.039,2.331A1.415,1.415,0,0,1,332.192,262.977Z" transform="translate(-246.98 -209.237)" fill="#06033e"/>
        <path id="Path_41193" data-name="Path 41193" d="M339.722,267.325l-4.075-2.353c-.328-.189-.286-.519.092-.737l4.038-2.331a1.42,1.42,0,0,1,1.277-.053l4.075,2.353c.327.189.286.519-.092.737L341,267.273A1.42,1.42,0,0,1,339.722,267.325Z" transform="translate(-248.216 -209.951)" fill="#06033e"/>
        <path id="Path_41194" data-name="Path 41194" d="M352.163,274.508l-8.892-5.133c-.328-.19-.286-.519.092-.737l4.038-2.332a1.42,1.42,0,0,1,1.277-.053l8.892,5.134c.327.188.286.518-.092.736l-4.038,2.332A1.42,1.42,0,0,1,352.163,274.508Z" transform="translate(-249.468 -210.674)" fill="#06033e"/>
        <path id="Path_41195" data-name="Path 41195" d="M367.1,266.2l-7.505-4.334c-.328-.189-.287-.519.091-.737l4.039-2.331a1.418,1.418,0,0,1,1.276-.053l7.505,4.333c.328.189.287.519-.091.737l-4.039,2.332A1.418,1.418,0,0,1,367.1,266.2Z" transform="translate(-252.148 -209.441)" fill="#06033e"/>
        <path id="Path_41196" data-name="Path 41196" d="M292.667,231.694l-4.075-2.354c-.328-.189-.286-.518.092-.737l4.038-2.331A1.42,1.42,0,0,1,294,226.22l4.075,2.353c.327.189.286.519-.092.737l-4.038,2.331A1.42,1.42,0,0,1,292.667,231.694Z" transform="translate(-240.489 -204.1)" fill="#06033e"/>
        <path id="Path_41197" data-name="Path 41197" d="M284.95,227.238l-4.076-2.353c-.327-.19-.286-.519.092-.737L285,221.817a1.418,1.418,0,0,1,1.276-.053l4.075,2.353c.328.189.287.519-.092.737l-4.038,2.331A1.416,1.416,0,0,1,284.95,227.238Z" transform="translate(-239.222 -203.368)" fill="#06033e"/>
        <path id="Path_41198" data-name="Path 41198" d="M277.232,222.782l-4.075-2.353c-.328-.189-.287-.519.091-.737l4.039-2.332a1.421,1.421,0,0,1,1.276-.053l4.076,2.353c.327.189.286.519-.092.737l-4.039,2.332A1.418,1.418,0,0,1,277.232,222.782Z" transform="translate(-237.955 -202.637)" fill="#06033e"/>
        <path id="Path_41199" data-name="Path 41199" d="M269.514,218.326l-4.075-2.353c-.327-.189-.286-.519.092-.737l4.038-2.331a1.42,1.42,0,0,1,1.277-.053l4.075,2.354c.327.189.286.519-.092.737l-4.038,2.331A1.42,1.42,0,0,1,269.514,218.326Z" transform="translate(-236.688 -201.905)" fill="#06033e"/>
        <path id="Path_41200" data-name="Path 41200" d="M300.2,236.041l-4.075-2.353c-.327-.189-.286-.519.092-.737l4.038-2.331a1.42,1.42,0,0,1,1.277-.053l4.075,2.354c.328.189.286.518-.092.736l-4.038,2.332A1.42,1.42,0,0,1,300.2,236.041Z" transform="translate(-241.726 -204.814)" fill="#06033e"/>
        <path id="Path_41201" data-name="Path 41201" d="M307.728,240.389l-4.075-2.353c-.328-.189-.287-.519.091-.737l4.039-2.332a1.418,1.418,0,0,1,1.276-.053l4.075,2.353c.328.189.287.519-.091.737L309,240.336A1.416,1.416,0,0,1,307.728,240.389Z" transform="translate(-242.963 -205.528)" fill="#06033e"/>
        <path id="Path_41202" data-name="Path 41202" d="M315.258,244.736l-4.075-2.353c-.328-.189-.287-.519.091-.737l4.039-2.331a1.416,1.416,0,0,1,1.276-.053l4.076,2.353c.327.189.286.519-.092.737l-4.039,2.331A1.418,1.418,0,0,1,315.258,244.736Z" transform="translate(-244.199 -206.242)" fill="#06033e"/>
        <path id="Path_41203" data-name="Path 41203" d="M322.788,249.084l-4.075-2.353c-.327-.189-.286-.519.092-.737l4.038-2.332a1.42,1.42,0,0,1,1.277-.053l4.075,2.353c.327.189.286.519-.092.737l-4.038,2.332A1.42,1.42,0,0,1,322.788,249.084Z" transform="translate(-245.436 -206.956)" fill="#06033e"/>
        <path id="Path_41204" data-name="Path 41204" d="M330.318,253.432l-4.075-2.354c-.327-.189-.286-.519.092-.736l4.038-2.332a1.42,1.42,0,0,1,1.277-.053l4.075,2.353c.328.189.286.519-.092.737l-4.038,2.331A1.42,1.42,0,0,1,330.318,253.432Z" transform="translate(-246.672 -207.669)" fill="#06033e"/>
        <path id="Path_41205" data-name="Path 41205" d="M337.849,257.779l-4.075-2.353c-.328-.189-.287-.519.091-.737l4.039-2.331a1.418,1.418,0,0,1,1.276-.053l4.075,2.354c.328.189.287.518-.091.736l-4.039,2.332A1.418,1.418,0,0,1,337.849,257.779Z" transform="translate(-247.908 -208.383)" fill="#06033e"/>
        <path id="Path_41206" data-name="Path 41206" d="M345.379,262.127l-4.075-2.353c-.328-.19-.287-.519.092-.737l4.038-2.332a1.418,1.418,0,0,1,1.276-.053l4.076,2.353c.327.189.286.519-.092.737l-4.039,2.331A1.416,1.416,0,0,1,345.379,262.127Z" transform="translate(-249.145 -209.097)" fill="#06033e"/>
        <path id="Path_41207" data-name="Path 41207" d="M352.909,266.475l-4.075-2.353c-.327-.189-.286-.519.092-.737l4.038-2.331A1.423,1.423,0,0,1,354.24,261l4.075,2.354c.327.189.286.519-.092.737l-4.038,2.331A1.42,1.42,0,0,1,352.909,266.475Z" transform="translate(-250.381 -209.811)" fill="#06033e"/>
        <path id="Path_41208" data-name="Path 41208" d="M360.44,270.822l-4.076-2.353c-.327-.189-.286-.519.092-.737l4.039-2.332a1.418,1.418,0,0,1,1.276-.053l4.075,2.353c.328.189.287.519-.092.737l-4.038,2.332A1.418,1.418,0,0,1,360.44,270.822Z" transform="translate(-251.618 -210.525)" fill="#06033e"/>
        <path id="Path_41209" data-name="Path 41209" d="M288.7,220.94l-4.075-2.353c-.328-.189-.287-.519.091-.737l4.039-2.331a1.416,1.416,0,0,1,1.276-.053l4.076,2.353c.327.19.286.519-.092.737l-4.039,2.332A1.418,1.418,0,0,1,288.7,220.94Z" transform="translate(-239.838 -202.334)" fill="#06033e"/>
        <path id="Path_41210" data-name="Path 41210" d="M281.209,216.614l-4.075-2.353c-.327-.189-.286-.519.092-.737l4.038-2.331a1.418,1.418,0,0,1,1.277-.053l4.075,2.353c.327.19.286.519-.092.737l-4.038,2.332A1.42,1.42,0,0,1,281.209,216.614Z" transform="translate(-238.608 -201.624)" fill="#06033e"/>
        <path id="Path_41211" data-name="Path 41211" d="M273.716,212.288l-4.075-2.353c-.327-.189-.286-.519.092-.737l4.038-2.331a1.418,1.418,0,0,1,1.277-.053l4.075,2.353c.327.19.286.519-.092.737l-4.038,2.332A1.42,1.42,0,0,1,273.716,212.288Z" transform="translate(-237.378 -200.914)" fill="#06033e"/>
        <path id="Path_41212" data-name="Path 41212" d="M266.224,207.962l-4.076-2.353c-.327-.189-.286-.519.092-.737l4.039-2.331a1.416,1.416,0,0,1,1.276-.053l4.075,2.353c.328.19.287.519-.091.737L267.5,207.91A1.418,1.418,0,0,1,266.224,207.962Z" transform="translate(-236.147 -200.203)" fill="#06033e"/>
        <path id="Path_41213" data-name="Path 41213" d="M273.928,203.821l-4.075-2.353c-.327-.19-.286-.519.092-.737l1.335-.771a1.418,1.418,0,0,1,1.277-.053l4.075,2.353c.327.189.286.519-.092.737l-1.335.771A1.42,1.42,0,0,1,273.928,203.821Z" transform="translate(-237.413 -199.779)" fill="#06033e"/>
        <path id="Path_41214" data-name="Path 41214" d="M283.707,209.466l-4.076-2.353c-.327-.189-.286-.519.092-.737l1.335-.771a1.417,1.417,0,0,1,1.277-.053l4.075,2.353c.327.189.286.519-.092.737l-1.335.771A1.418,1.418,0,0,1,283.707,209.466Z" transform="translate(-239.018 -200.706)" fill="#06033e"/>
        <path id="Path_41215" data-name="Path 41215" d="M291.168,213.774l-4.075-2.353c-.328-.189-.286-.519.092-.737l1.335-.771a1.416,1.416,0,0,1,1.276-.053l4.075,2.353c.328.189.287.519-.091.737l-1.335.771A1.42,1.42,0,0,1,291.168,213.774Z" transform="translate(-240.243 -201.414)" fill="#06033e"/>
        <path id="Path_41216" data-name="Path 41216" d="M298.63,218.082l-4.075-2.353c-.328-.189-.287-.519.091-.737l1.335-.771a1.42,1.42,0,0,1,1.277-.053l4.075,2.354c.328.189.286.519-.092.737l-1.335.771A1.418,1.418,0,0,1,298.63,218.082Z" transform="translate(-241.469 -202.121)" fill="#06033e"/>
        <path id="Path_41217" data-name="Path 41217" d="M306.091,222.39l-4.075-2.353c-.327-.189-.286-.519.092-.737l1.335-.771a1.418,1.418,0,0,1,1.276-.053l4.076,2.354c.327.189.286.519-.092.737l-1.335.771A1.42,1.42,0,0,1,306.091,222.39Z" transform="translate(-242.694 -202.829)" fill="#06033e"/>
        <path id="Path_41218" data-name="Path 41218" d="M347.748,246.441l-4.075-2.354c-.327-.189-.286-.519.092-.737l1.335-.771a1.418,1.418,0,0,1,1.276-.053l4.075,2.353c.328.189.287.519-.091.737l-1.335.771A1.42,1.42,0,0,1,347.748,246.441Z" transform="translate(-249.534 -206.778)" fill="#06033e"/>
        <path id="Path_41219" data-name="Path 41219" d="M355.21,250.748l-4.075-2.353c-.328-.189-.287-.519.091-.737l1.335-.771a1.42,1.42,0,0,1,1.277-.053l4.075,2.353c.328.189.286.519-.092.737l-1.335.771A1.416,1.416,0,0,1,355.21,250.748Z" transform="translate(-250.759 -207.485)" fill="#06033e"/>
        <path id="Path_41220" data-name="Path 41220" d="M362.671,255.057,358.6,252.7c-.327-.189-.286-.519.092-.737l1.335-.771a1.418,1.418,0,0,1,1.276-.053l4.076,2.353c.327.189.286.519-.092.737l-1.335.771A1.423,1.423,0,0,1,362.671,255.057Z" transform="translate(-251.984 -208.192)" fill="#06033e"/>
        <path id="Path_41221" data-name="Path 41221" d="M370.133,259.364l-4.075-2.353c-.328-.189-.287-.519.091-.737l1.336-.771a1.418,1.418,0,0,1,1.276-.053l4.075,2.353c.328.189.287.519-.091.737l-1.336.771A1.416,1.416,0,0,1,370.133,259.364Z" transform="translate(-253.21 -208.9)" fill="#06033e"/>
        <path id="Path_41222" data-name="Path 41222" d="M296.232,225.288l-4.075-2.354c-.327-.189-.286-.518.092-.737l4.038-2.331a1.42,1.42,0,0,1,1.277-.053l4.075,2.353c.327.189.286.519-.092.737l-4.038,2.331A1.42,1.42,0,0,1,296.232,225.288Z" transform="translate(-241.075 -203.048)" fill="#06033e"/>
        <path id="Path_41223" data-name="Path 41223" d="M303.763,229.635l-4.076-2.353c-.327-.189-.286-.519.092-.737l4.038-2.331a1.42,1.42,0,0,1,1.277-.053l4.075,2.354c.328.189.287.519-.092.736l-4.038,2.332A1.418,1.418,0,0,1,303.763,229.635Z" transform="translate(-242.311 -203.762)" fill="#06033e"/>
        <path id="Path_41224" data-name="Path 41224" d="M311.293,233.983l-4.075-2.353c-.328-.189-.287-.519.091-.737l4.039-2.332a1.418,1.418,0,0,1,1.276-.053l4.075,2.353c.328.189.287.519-.091.737l-4.039,2.332A1.418,1.418,0,0,1,311.293,233.983Z" transform="translate(-243.548 -204.476)" fill="#06033e"/>
        <path id="Path_41225" data-name="Path 41225" d="M318.823,238.331l-4.075-2.353c-.328-.189-.287-.519.092-.737l4.038-2.331a1.418,1.418,0,0,1,1.276-.053l4.076,2.353c.327.189.286.519-.092.737l-4.038,2.331A1.417,1.417,0,0,1,318.823,238.331Z" transform="translate(-244.784 -205.19)" fill="#06033e"/>
        <path id="Path_41226" data-name="Path 41226" d="M326.353,242.678l-4.075-2.353c-.327-.189-.286-.519.092-.737l4.038-2.332a1.423,1.423,0,0,1,1.277-.053l4.075,2.353c.327.189.286.519-.092.737l-4.038,2.332A1.42,1.42,0,0,1,326.353,242.678Z" transform="translate(-246.021 -205.904)" fill="#06033e"/>
        <path id="Path_41227" data-name="Path 41227" d="M333.884,247.026l-4.076-2.354c-.327-.189-.286-.518.092-.736l4.039-2.332a1.418,1.418,0,0,1,1.276-.053l4.075,2.353c.328.189.287.519-.091.737l-4.039,2.331A1.418,1.418,0,0,1,333.884,247.026Z" transform="translate(-247.257 -206.618)" fill="#06033e"/>
        <path id="Path_41228" data-name="Path 41228" d="M341.414,251.373l-4.075-2.353c-.328-.189-.287-.519.091-.737l4.039-2.331a1.418,1.418,0,0,1,1.276-.053l4.075,2.354c.328.189.287.518-.091.737l-4.039,2.331A1.418,1.418,0,0,1,341.414,251.373Z" transform="translate(-248.494 -207.331)" fill="#06033e"/>
        <path id="Path_41229" data-name="Path 41229" d="M348.944,255.721l-4.075-2.353c-.328-.189-.286-.519.092-.737L349,250.3a1.42,1.42,0,0,1,1.277-.053l4.075,2.353c.327.189.286.519-.092.737l-4.038,2.332A1.42,1.42,0,0,1,348.944,255.721Z" transform="translate(-249.73 -208.045)" fill="#06033e"/>
        <path id="Path_41230" data-name="Path 41230" d="M356.474,260.069l-4.075-2.353c-.327-.189-.286-.519.092-.737l4.038-2.331a1.42,1.42,0,0,1,1.277-.053l4.075,2.353c.328.189.286.519-.092.737l-4.038,2.331A1.42,1.42,0,0,1,356.474,260.069Z" transform="translate(-250.967 -208.759)" fill="#06033e"/>
        <path id="Path_41231" data-name="Path 41231" d="M251.623,224.925l-12-6.93c-.328-.189-.287-.519.091-.737l4.039-2.331a1.416,1.416,0,0,1,1.276-.053l12,6.93c.328.189.287.519-.092.737l-4.038,2.331A1.42,1.42,0,0,1,251.623,224.925Z" transform="translate(-232.448 -202.237)" fill="#06033e"/>
        <path id="Path_41232" data-name="Path 41232" d="M344.134,278.337l-12-6.93c-.328-.19-.287-.519.092-.737l4.038-2.332a1.418,1.418,0,0,1,1.276-.053l12,6.93c.328.189.287.519-.091.737l-4.039,2.331A1.418,1.418,0,0,1,344.134,278.337Z" transform="translate(-247.639 -211.007)" fill="#06033e"/>
        <path id="Path_41233" data-name="Path 41233" d="M315.577,271.366l-4.075-2.354c-.328-.189-.287-.519.092-.737l4.81-2.777a1.42,1.42,0,0,1,1.277-.053l4.075,2.353c.327.189.286.519-.092.737l-4.81,2.777A1.42,1.42,0,0,1,315.577,271.366Z" transform="translate(-244.251 -210.541)" fill="#06033e"/>
        <path id="Path_41234" data-name="Path 41234" d="M260.412,239.516l-6.518-3.763c-.328-.189-.287-.519.091-.737l4.811-2.777a1.416,1.416,0,0,1,1.276-.053l6.518,3.763c.327.189.286.519-.092.737l-4.81,2.777A1.42,1.42,0,0,1,260.412,239.516Z" transform="translate(-234.792 -205.08)" fill="#06033e"/>
        <path id="Path_41235" data-name="Path 41235" d="M307.842,266.9l-6.518-3.763c-.327-.189-.286-.519.092-.737l4.81-2.777a1.42,1.42,0,0,1,1.277-.053l6.518,3.763c.328.189.287.519-.091.737l-4.811,2.777A1.416,1.416,0,0,1,307.842,266.9Z" transform="translate(-242.58 -209.576)" fill="#06033e"/>
        <path id="Path_41236" data-name="Path 41236" d="M271.277,245.789l-6.518-3.764c-.327-.189-.286-.519.092-.736l4.811-2.777a1.416,1.416,0,0,1,1.276-.053l6.518,3.764c.328.189.287.518-.091.737l-4.811,2.777A1.419,1.419,0,0,1,271.277,245.789Z" transform="translate(-236.576 -206.11)" fill="#06033e"/>
        <path id="Path_41237" data-name="Path 41237" d="M271.034,238.514l28.338,16.361a.388.388,0,0,1,0,.735l-4.905,2.833a1.407,1.407,0,0,1-1.274,0l-28.338-16.361Z" transform="translate(-236.628 -206.14)" fill="#06033e"/>
        <path id="Path_41238" data-name="Path 41238" d="M336.824,280.415l4.539,2.621c.268.155.235.425-.074.6l-1.968,1.136a1.164,1.164,0,0,1-1.046.043l-4.539-2.621c-.268-.155-.235-.425.074-.6l1.968-1.136A1.164,1.164,0,0,1,336.824,280.415Z" transform="translate(-247.909 -213.003)" fill="#06033e"/>
        <path id="Path_41239" data-name="Path 41239" d="M329.231,276.032l4.54,2.621c.268.155.234.425-.075.6l-1.968,1.137a1.166,1.166,0,0,1-1.046.043l-4.539-2.621c-.268-.155-.235-.425.075-.6l1.967-1.137A1.166,1.166,0,0,1,329.231,276.032Z" transform="translate(-246.662 -212.283)" fill="#06033e"/>
        <path id="Path_41240" data-name="Path 41240" d="M321.7,271.684l4.54,2.621c.267.155.234.425-.075.6l-1.968,1.136a1.164,1.164,0,0,1-1.046.043l-4.539-2.621c-.268-.155-.235-.425.075-.6l1.967-1.136A1.164,1.164,0,0,1,321.7,271.684Z" transform="translate(-245.426 -211.569)" fill="#06033e"/>
        <path id="Path_41241" data-name="Path 41241" d="M333.39,273.631l4.539,2.621c.268.155.235.425-.075.6l-1.967,1.137a1.164,1.164,0,0,1-1.046.044l-4.54-2.621c-.268-.155-.234-.425.075-.6l1.968-1.136A1.161,1.161,0,0,1,333.39,273.631Z" transform="translate(-247.345 -211.889)" fill="#06033e"/>
      </g>
      <g id="Group_36818" data-name="Group 36818" transform="translate(73.117 112.428)" opacity="0.4">
        <path id="Path_41242" data-name="Path 41242" d="M235.379,225.063,231.3,222.71c-.328-.189-.286-.519.092-.737l4.81-2.777a1.42,1.42,0,0,1,1.277-.053l4.075,2.353c.327.189.286.519-.092.737l-4.81,2.777A1.42,1.42,0,0,1,235.379,225.063Z" transform="translate(-231.083 -202.938)" fill="#06033e"/>
        <path id="Path_41243" data-name="Path 41243" d="M242.909,229.411l-4.075-2.354c-.327-.189-.286-.518.092-.736l4.81-2.777a1.42,1.42,0,0,1,1.277-.053l4.075,2.354c.328.189.286.518-.092.736l-4.81,2.777A1.418,1.418,0,0,1,242.909,229.411Z" transform="translate(-232.319 -203.652)" fill="#06033e"/>
        <path id="Path_41244" data-name="Path 41244" d="M250.44,233.758l-4.076-2.353c-.327-.189-.286-.519.092-.737l4.811-2.777a1.418,1.418,0,0,1,1.276-.053l4.075,2.353c.328.189.287.519-.091.737l-4.811,2.777A1.418,1.418,0,0,1,250.44,233.758Z" transform="translate(-233.556 -204.366)" fill="#06033e"/>
        <path id="Path_41245" data-name="Path 41245" d="M260.854,230.255l-4.075-2.353c-.327-.189-.286-.519.092-.737l4.038-2.332a1.42,1.42,0,0,1,1.277-.053l4.075,2.353c.327.189.286.519-.092.737l-4.038,2.332A1.42,1.42,0,0,1,260.854,230.255Z" transform="translate(-235.266 -203.864)" fill="#06033e"/>
        <path id="Path_41246" data-name="Path 41246" d="M268.385,234.6l-4.076-2.353c-.327-.189-.286-.519.092-.737l4.039-2.331a1.418,1.418,0,0,1,1.276-.053l4.075,2.353c.328.189.287.519-.091.737l-4.039,2.331A1.416,1.416,0,0,1,268.385,234.6Z" transform="translate(-236.502 -204.578)" fill="#06033e"/>
        <path id="Path_41247" data-name="Path 41247" d="M275.915,238.95,271.84,236.6c-.328-.189-.287-.519.091-.737l4.039-2.331a1.419,1.419,0,0,1,1.276-.053l4.076,2.354c.327.188.286.518-.092.736l-4.039,2.332A1.418,1.418,0,0,1,275.915,238.95Z" transform="translate(-237.739 -205.292)" fill="#06033e"/>
        <path id="Path_41248" data-name="Path 41248" d="M283.445,243.3l-4.075-2.353c-.327-.189-.286-.519.092-.737l4.038-2.332a1.42,1.42,0,0,1,1.277-.053l4.075,2.353c.327.189.286.519-.092.737l-4.038,2.331A1.42,1.42,0,0,1,283.445,243.3Z" transform="translate(-238.975 -206.005)" fill="#06033e"/>
        <path id="Path_41249" data-name="Path 41249" d="M290.975,247.645l-4.075-2.353c-.327-.189-.286-.519.092-.737l4.038-2.331a1.417,1.417,0,0,1,1.277-.053l4.075,2.353c.328.189.286.519-.092.737l-4.038,2.331A1.42,1.42,0,0,1,290.975,247.645Z" transform="translate(-240.212 -206.719)" fill="#06033e"/>
        <path id="Path_41250" data-name="Path 41250" d="M298.506,251.993l-4.075-2.353c-.328-.189-.287-.519.091-.737l4.039-2.332a1.418,1.418,0,0,1,1.276-.053l4.075,2.353c.328.189.287.519-.091.737l-4.039,2.332A1.418,1.418,0,0,1,298.506,251.993Z" transform="translate(-241.448 -207.433)" fill="#06033e"/>
        <path id="Path_41251" data-name="Path 41251" d="M306.036,256.341l-4.075-2.354c-.328-.189-.287-.519.091-.737l4.039-2.331a1.418,1.418,0,0,1,1.276-.053l4.076,2.353c.327.189.286.519-.092.737l-4.039,2.331A1.418,1.418,0,0,1,306.036,256.341Z" transform="translate(-242.685 -208.147)" fill="#06033e"/>
        <path id="Path_41252" data-name="Path 41252" d="M313.566,260.688l-4.075-2.353c-.327-.189-.286-.519.092-.737l4.038-2.331a1.42,1.42,0,0,1,1.277-.053l4.075,2.354c.327.189.286.518-.092.736l-4.038,2.332A1.42,1.42,0,0,1,313.566,260.688Z" transform="translate(-243.921 -208.861)" fill="#06033e"/>
        <path id="Path_41253" data-name="Path 41253" d="M321.1,265.036l-4.076-2.353c-.327-.19-.286-.519.092-.737l4.038-2.332a1.42,1.42,0,0,1,1.277-.053l4.075,2.353c.328.189.287.519-.092.737l-4.038,2.332A1.418,1.418,0,0,1,321.1,265.036Z" transform="translate(-245.158 -209.575)" fill="#06033e"/>
        <path id="Path_41254" data-name="Path 41254" d="M328.627,269.383l-4.075-2.353c-.328-.189-.287-.519.091-.737l4.039-2.331a1.418,1.418,0,0,1,1.276-.053l4.075,2.354c.328.189.287.519-.091.737l-4.039,2.331A1.418,1.418,0,0,1,328.627,269.383Z" transform="translate(-246.394 -210.289)" fill="#06033e"/>
        <path id="Path_41255" data-name="Path 41255" d="M271.95,228.2l-4.075-2.354c-.328-.189-.287-.519.091-.737L272,222.776a1.418,1.418,0,0,1,1.276-.053l4.075,2.353c.328.189.287.519-.091.737l-4.039,2.331A1.418,1.418,0,0,1,271.95,228.2Z" transform="translate(-237.088 -203.526)" fill="#06033e"/>
        <path id="Path_41256" data-name="Path 41256" d="M264.307,223.784l-4.075-2.353c-.328-.189-.286-.519.092-.737l4.038-2.331a1.417,1.417,0,0,1,1.277-.053l4.075,2.353c.327.19.286.519-.092.737l-4.038,2.332A1.42,1.42,0,0,1,264.307,223.784Z" transform="translate(-235.833 -202.801)" fill="#06033e"/>
        <path id="Path_41257" data-name="Path 41257" d="M255.728,218.831l-8.778-5.067c-.328-.189-.286-.519.092-.737l4.038-2.331a1.42,1.42,0,0,1,1.277-.053l8.778,5.068c.327.189.286.519-.092.737L257,218.778A1.418,1.418,0,0,1,255.728,218.831Z" transform="translate(-233.652 -201.542)" fill="#06033e"/>
        <path id="Path_41258" data-name="Path 41258" d="M261.4,213.645l-7.123-4.113c-.327-.189-.286-.519.092-.737l4.038-2.331a1.42,1.42,0,0,1,1.277-.053l7.123,4.113c.328.189.287.519-.091.737l-4.039,2.331A1.418,1.418,0,0,1,261.4,213.645Z" transform="translate(-234.856 -200.847)" fill="#06033e"/>
        <path id="Path_41259" data-name="Path 41259" d="M279.48,232.544l-4.075-2.353c-.328-.189-.287-.519.092-.737l4.038-2.331a1.418,1.418,0,0,1,1.276-.053l4.076,2.354c.327.189.286.519-.092.736l-4.039,2.332A1.418,1.418,0,0,1,279.48,232.544Z" transform="translate(-238.324 -204.24)" fill="#06033e"/>
        <path id="Path_41260" data-name="Path 41260" d="M287.01,236.892l-4.075-2.353c-.327-.19-.286-.519.092-.737l4.038-2.332a1.42,1.42,0,0,1,1.277-.053l4.075,2.353c.327.189.286.519-.092.737l-4.038,2.332A1.42,1.42,0,0,1,287.01,236.892Z" transform="translate(-239.561 -204.954)" fill="#06033e"/>
        <path id="Path_41261" data-name="Path 41261" d="M294.541,241.24l-4.076-2.353c-.327-.189-.286-.519.092-.737l4.039-2.331a1.421,1.421,0,0,1,1.276-.054l4.075,2.354c.328.189.287.519-.092.737l-4.038,2.331A1.416,1.416,0,0,1,294.541,241.24Z" transform="translate(-240.797 -205.667)" fill="#06033e"/>
        <path id="Path_41262" data-name="Path 41262" d="M302.071,245.587,298,243.235c-.328-.189-.287-.519.091-.737l4.039-2.332a1.418,1.418,0,0,1,1.276-.053l4.075,2.353c.328.189.287.519-.091.737l-4.039,2.332A1.418,1.418,0,0,1,302.071,245.587Z" transform="translate(-242.034 -206.381)" fill="#06033e"/>
        <path id="Path_41263" data-name="Path 41263" d="M309.6,249.935l-4.075-2.354c-.328-.189-.286-.518.092-.737l4.038-2.331a1.42,1.42,0,0,1,1.277-.053l4.075,2.353c.327.189.286.519-.092.737l-4.038,2.331A1.42,1.42,0,0,1,309.6,249.935Z" transform="translate(-243.27 -207.095)" fill="#06033e"/>
        <path id="Path_41264" data-name="Path 41264" d="M317.131,254.282l-4.075-2.353c-.327-.189-.286-.519.092-.737l4.038-2.331a1.42,1.42,0,0,1,1.277-.054l4.075,2.354c.327.189.286.519-.092.737l-4.038,2.331A1.42,1.42,0,0,1,317.131,254.282Z" transform="translate(-244.507 -207.809)" fill="#06033e"/>
        <path id="Path_41265" data-name="Path 41265" d="M324.662,258.63l-4.076-2.353c-.327-.189-.286-.519.092-.737l4.039-2.332a1.418,1.418,0,0,1,1.276-.053l4.075,2.353c.328.189.287.519-.091.737l-4.039,2.331A1.416,1.416,0,0,1,324.662,258.63Z" transform="translate(-245.743 -208.523)" fill="#06033e"/>
        <path id="Path_41266" data-name="Path 41266" d="M332.192,262.977l-4.075-2.353c-.328-.189-.287-.519.091-.737l4.039-2.331a1.416,1.416,0,0,1,1.276-.053l4.076,2.353c.327.189.286.519-.092.737l-4.039,2.331A1.415,1.415,0,0,1,332.192,262.977Z" transform="translate(-246.98 -209.237)" fill="#06033e"/>
        <path id="Path_41267" data-name="Path 41267" d="M339.722,267.325l-4.075-2.353c-.328-.189-.286-.519.092-.737l4.038-2.331a1.42,1.42,0,0,1,1.277-.053l4.075,2.353c.327.189.286.519-.092.737L341,267.273A1.42,1.42,0,0,1,339.722,267.325Z" transform="translate(-248.216 -209.951)" fill="#06033e"/>
        <path id="Path_41268" data-name="Path 41268" d="M352.163,274.508l-8.892-5.133c-.328-.19-.286-.519.092-.737l4.038-2.332a1.42,1.42,0,0,1,1.277-.053l8.892,5.134c.327.188.286.518-.092.736l-4.038,2.332A1.42,1.42,0,0,1,352.163,274.508Z" transform="translate(-249.468 -210.674)" fill="#06033e"/>
        <path id="Path_41269" data-name="Path 41269" d="M367.1,266.2l-7.505-4.334c-.328-.189-.287-.519.091-.737l4.039-2.331a1.418,1.418,0,0,1,1.276-.053l7.505,4.333c.328.189.287.519-.091.737l-4.039,2.332A1.418,1.418,0,0,1,367.1,266.2Z" transform="translate(-252.148 -209.441)" fill="#06033e"/>
        <path id="Path_41270" data-name="Path 41270" d="M292.667,231.694l-4.075-2.354c-.328-.189-.286-.518.092-.737l4.038-2.331A1.42,1.42,0,0,1,294,226.22l4.075,2.353c.327.189.286.519-.092.737l-4.038,2.331A1.42,1.42,0,0,1,292.667,231.694Z" transform="translate(-240.489 -204.1)" fill="#06033e"/>
        <path id="Path_41271" data-name="Path 41271" d="M284.95,227.238l-4.076-2.353c-.327-.19-.286-.519.092-.737L285,221.817a1.418,1.418,0,0,1,1.276-.053l4.075,2.353c.328.189.287.519-.092.737l-4.038,2.331A1.416,1.416,0,0,1,284.95,227.238Z" transform="translate(-239.222 -203.368)" fill="#06033e"/>
        <path id="Path_41272" data-name="Path 41272" d="M277.232,222.782l-4.075-2.353c-.328-.189-.287-.519.091-.737l4.039-2.332a1.421,1.421,0,0,1,1.276-.053l4.076,2.353c.327.189.286.519-.092.737l-4.039,2.332A1.418,1.418,0,0,1,277.232,222.782Z" transform="translate(-237.955 -202.637)" fill="#06033e"/>
        <path id="Path_41273" data-name="Path 41273" d="M269.514,218.326l-4.075-2.353c-.327-.189-.286-.519.092-.737l4.038-2.331a1.42,1.42,0,0,1,1.277-.053l4.075,2.354c.327.189.286.519-.092.737l-4.038,2.331A1.42,1.42,0,0,1,269.514,218.326Z" transform="translate(-236.688 -201.905)" fill="#06033e"/>
        <path id="Path_41274" data-name="Path 41274" d="M300.2,236.041l-4.075-2.353c-.327-.189-.286-.519.092-.737l4.038-2.331a1.42,1.42,0,0,1,1.277-.053l4.075,2.354c.328.189.286.518-.092.736l-4.038,2.332A1.42,1.42,0,0,1,300.2,236.041Z" transform="translate(-241.726 -204.814)" fill="#06033e"/>
        <path id="Path_41275" data-name="Path 41275" d="M307.728,240.389l-4.075-2.353c-.328-.189-.287-.519.091-.737l4.039-2.332a1.418,1.418,0,0,1,1.276-.053l4.075,2.353c.328.189.287.519-.091.737L309,240.336A1.416,1.416,0,0,1,307.728,240.389Z" transform="translate(-242.963 -205.528)" fill="#06033e"/>
        <path id="Path_41276" data-name="Path 41276" d="M315.258,244.736l-4.075-2.353c-.328-.189-.287-.519.091-.737l4.039-2.331a1.416,1.416,0,0,1,1.276-.053l4.076,2.353c.327.189.286.519-.092.737l-4.039,2.331A1.418,1.418,0,0,1,315.258,244.736Z" transform="translate(-244.199 -206.242)" fill="#06033e"/>
        <path id="Path_41277" data-name="Path 41277" d="M322.788,249.084l-4.075-2.353c-.327-.189-.286-.519.092-.737l4.038-2.332a1.42,1.42,0,0,1,1.277-.053l4.075,2.353c.327.189.286.519-.092.737l-4.038,2.332A1.42,1.42,0,0,1,322.788,249.084Z" transform="translate(-245.436 -206.956)" fill="#06033e"/>
        <path id="Path_41278" data-name="Path 41278" d="M330.318,253.432l-4.075-2.354c-.327-.189-.286-.519.092-.736l4.038-2.332a1.42,1.42,0,0,1,1.277-.053l4.075,2.353c.328.189.286.519-.092.737l-4.038,2.331A1.42,1.42,0,0,1,330.318,253.432Z" transform="translate(-246.672 -207.669)" fill="#06033e"/>
        <path id="Path_41279" data-name="Path 41279" d="M337.849,257.779l-4.075-2.353c-.328-.189-.287-.519.091-.737l4.039-2.331a1.418,1.418,0,0,1,1.276-.053l4.075,2.354c.328.189.287.518-.091.736l-4.039,2.332A1.418,1.418,0,0,1,337.849,257.779Z" transform="translate(-247.908 -208.383)" fill="#06033e"/>
        <path id="Path_41280" data-name="Path 41280" d="M345.379,262.127l-4.075-2.353c-.328-.19-.287-.519.092-.737l4.038-2.332a1.418,1.418,0,0,1,1.276-.053l4.076,2.353c.327.189.286.519-.092.737l-4.039,2.331A1.416,1.416,0,0,1,345.379,262.127Z" transform="translate(-249.145 -209.097)" fill="#06033e"/>
        <path id="Path_41281" data-name="Path 41281" d="M352.909,266.475l-4.075-2.353c-.327-.189-.286-.519.092-.737l4.038-2.331A1.423,1.423,0,0,1,354.24,261l4.075,2.354c.327.189.286.519-.092.737l-4.038,2.331A1.42,1.42,0,0,1,352.909,266.475Z" transform="translate(-250.381 -209.811)" fill="#06033e"/>
        <path id="Path_41282" data-name="Path 41282" d="M360.44,270.822l-4.076-2.353c-.327-.189-.286-.519.092-.737l4.039-2.332a1.418,1.418,0,0,1,1.276-.053l4.075,2.353c.328.189.287.519-.092.737l-4.038,2.332A1.418,1.418,0,0,1,360.44,270.822Z" transform="translate(-251.618 -210.525)" fill="#06033e"/>
        <path id="Path_41283" data-name="Path 41283" d="M288.7,220.94l-4.075-2.353c-.328-.189-.287-.519.091-.737l4.039-2.331a1.416,1.416,0,0,1,1.276-.053l4.076,2.353c.327.19.286.519-.092.737l-4.039,2.332A1.418,1.418,0,0,1,288.7,220.94Z" transform="translate(-239.838 -202.334)" fill="#06033e"/>
        <path id="Path_41284" data-name="Path 41284" d="M281.209,216.614l-4.075-2.353c-.327-.189-.286-.519.092-.737l4.038-2.331a1.418,1.418,0,0,1,1.277-.053l4.075,2.353c.327.19.286.519-.092.737l-4.038,2.332A1.42,1.42,0,0,1,281.209,216.614Z" transform="translate(-238.608 -201.624)" fill="#06033e"/>
        <path id="Path_41285" data-name="Path 41285" d="M273.716,212.288l-4.075-2.353c-.327-.189-.286-.519.092-.737l4.038-2.331a1.418,1.418,0,0,1,1.277-.053l4.075,2.353c.327.19.286.519-.092.737l-4.038,2.332A1.42,1.42,0,0,1,273.716,212.288Z" transform="translate(-237.378 -200.914)" fill="#06033e"/>
        <path id="Path_41286" data-name="Path 41286" d="M266.224,207.962l-4.076-2.353c-.327-.189-.286-.519.092-.737l4.039-2.331a1.416,1.416,0,0,1,1.276-.053l4.075,2.353c.328.19.287.519-.091.737L267.5,207.91A1.418,1.418,0,0,1,266.224,207.962Z" transform="translate(-236.147 -200.203)" fill="#06033e"/>
        <path id="Path_41287" data-name="Path 41287" d="M273.928,203.821l-4.075-2.353c-.327-.19-.286-.519.092-.737l1.335-.771a1.418,1.418,0,0,1,1.277-.053l4.075,2.353c.327.189.286.519-.092.737l-1.335.771A1.42,1.42,0,0,1,273.928,203.821Z" transform="translate(-237.413 -199.779)" fill="#06033e"/>
        <path id="Path_41288" data-name="Path 41288" d="M283.707,209.466l-4.076-2.353c-.327-.189-.286-.519.092-.737l1.335-.771a1.417,1.417,0,0,1,1.277-.053l4.075,2.353c.327.189.286.519-.092.737l-1.335.771A1.418,1.418,0,0,1,283.707,209.466Z" transform="translate(-239.018 -200.706)" fill="#06033e"/>
        <path id="Path_41289" data-name="Path 41289" d="M291.168,213.774l-4.075-2.353c-.328-.189-.286-.519.092-.737l1.335-.771a1.416,1.416,0,0,1,1.276-.053l4.075,2.353c.328.189.287.519-.091.737l-1.335.771A1.42,1.42,0,0,1,291.168,213.774Z" transform="translate(-240.243 -201.414)" fill="#06033e"/>
        <path id="Path_41290" data-name="Path 41290" d="M298.63,218.082l-4.075-2.353c-.328-.189-.287-.519.091-.737l1.335-.771a1.42,1.42,0,0,1,1.277-.053l4.075,2.354c.328.189.286.519-.092.737l-1.335.771A1.418,1.418,0,0,1,298.63,218.082Z" transform="translate(-241.469 -202.121)" fill="#06033e"/>
        <path id="Path_41291" data-name="Path 41291" d="M306.091,222.39l-4.075-2.353c-.327-.189-.286-.519.092-.737l1.335-.771a1.418,1.418,0,0,1,1.276-.053l4.076,2.354c.327.189.286.519-.092.737l-1.335.771A1.42,1.42,0,0,1,306.091,222.39Z" transform="translate(-242.694 -202.829)" fill="#06033e"/>
        <path id="Path_41292" data-name="Path 41292" d="M347.748,246.441l-4.075-2.354c-.327-.189-.286-.519.092-.737l1.335-.771a1.418,1.418,0,0,1,1.276-.053l4.075,2.353c.328.189.287.519-.091.737l-1.335.771A1.42,1.42,0,0,1,347.748,246.441Z" transform="translate(-249.534 -206.778)" fill="#06033e"/>
        <path id="Path_41293" data-name="Path 41293" d="M355.21,250.748l-4.075-2.353c-.328-.189-.287-.519.091-.737l1.335-.771a1.42,1.42,0,0,1,1.277-.053l4.075,2.353c.328.189.286.519-.092.737l-1.335.771A1.416,1.416,0,0,1,355.21,250.748Z" transform="translate(-250.759 -207.485)" fill="#06033e"/>
        <path id="Path_41294" data-name="Path 41294" d="M362.671,255.057,358.6,252.7c-.327-.189-.286-.519.092-.737l1.335-.771a1.418,1.418,0,0,1,1.276-.053l4.076,2.353c.327.189.286.519-.092.737l-1.335.771A1.423,1.423,0,0,1,362.671,255.057Z" transform="translate(-251.984 -208.192)" fill="#06033e"/>
        <path id="Path_41295" data-name="Path 41295" d="M370.133,259.364l-4.075-2.353c-.328-.189-.287-.519.091-.737l1.336-.771a1.418,1.418,0,0,1,1.276-.053l4.075,2.353c.328.189.287.519-.091.737l-1.336.771A1.416,1.416,0,0,1,370.133,259.364Z" transform="translate(-253.21 -208.9)" fill="#06033e"/>
        <path id="Path_41296" data-name="Path 41296" d="M296.232,225.288l-4.075-2.354c-.327-.189-.286-.518.092-.737l4.038-2.331a1.42,1.42,0,0,1,1.277-.053l4.075,2.353c.327.189.286.519-.092.737l-4.038,2.331A1.42,1.42,0,0,1,296.232,225.288Z" transform="translate(-241.075 -203.048)" fill="#06033e"/>
        <path id="Path_41297" data-name="Path 41297" d="M303.763,229.635l-4.076-2.353c-.327-.189-.286-.519.092-.737l4.038-2.331a1.42,1.42,0,0,1,1.277-.053l4.075,2.354c.328.189.287.519-.092.736l-4.038,2.332A1.418,1.418,0,0,1,303.763,229.635Z" transform="translate(-242.311 -203.762)" fill="#06033e"/>
        <path id="Path_41298" data-name="Path 41298" d="M311.293,233.983l-4.075-2.353c-.328-.189-.287-.519.091-.737l4.039-2.332a1.418,1.418,0,0,1,1.276-.053l4.075,2.353c.328.189.287.519-.091.737l-4.039,2.332A1.418,1.418,0,0,1,311.293,233.983Z" transform="translate(-243.548 -204.476)" fill="#06033e"/>
        <path id="Path_41299" data-name="Path 41299" d="M318.823,238.331l-4.075-2.353c-.328-.189-.287-.519.092-.737l4.038-2.331a1.418,1.418,0,0,1,1.276-.053l4.076,2.353c.327.189.286.519-.092.737l-4.038,2.331A1.417,1.417,0,0,1,318.823,238.331Z" transform="translate(-244.784 -205.19)" fill="#06033e"/>
        <path id="Path_41300" data-name="Path 41300" d="M326.353,242.678l-4.075-2.353c-.327-.189-.286-.519.092-.737l4.038-2.332a1.423,1.423,0,0,1,1.277-.053l4.075,2.353c.327.189.286.519-.092.737l-4.038,2.332A1.42,1.42,0,0,1,326.353,242.678Z" transform="translate(-246.021 -205.904)" fill="#06033e"/>
        <path id="Path_41301" data-name="Path 41301" d="M333.884,247.026l-4.076-2.354c-.327-.189-.286-.518.092-.736l4.039-2.332a1.418,1.418,0,0,1,1.276-.053l4.075,2.353c.328.189.287.519-.091.737l-4.039,2.331A1.418,1.418,0,0,1,333.884,247.026Z" transform="translate(-247.257 -206.618)" fill="#06033e"/>
        <path id="Path_41302" data-name="Path 41302" d="M341.414,251.373l-4.075-2.353c-.328-.189-.287-.519.091-.737l4.039-2.331a1.418,1.418,0,0,1,1.276-.053l4.075,2.354c.328.189.287.518-.091.737l-4.039,2.331A1.418,1.418,0,0,1,341.414,251.373Z" transform="translate(-248.494 -207.331)" fill="#06033e"/>
        <path id="Path_41303" data-name="Path 41303" d="M348.944,255.721l-4.075-2.353c-.328-.189-.286-.519.092-.737L349,250.3a1.42,1.42,0,0,1,1.277-.053l4.075,2.353c.327.189.286.519-.092.737l-4.038,2.332A1.42,1.42,0,0,1,348.944,255.721Z" transform="translate(-249.73 -208.045)" fill="#06033e"/>
        <path id="Path_41304" data-name="Path 41304" d="M356.474,260.069l-4.075-2.353c-.327-.189-.286-.519.092-.737l4.038-2.331a1.42,1.42,0,0,1,1.277-.053l4.075,2.353c.328.189.286.519-.092.737l-4.038,2.331A1.42,1.42,0,0,1,356.474,260.069Z" transform="translate(-250.967 -208.759)" fill="#06033e"/>
        <path id="Path_41305" data-name="Path 41305" d="M251.623,224.925l-12-6.93c-.328-.189-.287-.519.091-.737l4.039-2.331a1.416,1.416,0,0,1,1.276-.053l12,6.93c.328.189.287.519-.092.737l-4.038,2.331A1.42,1.42,0,0,1,251.623,224.925Z" transform="translate(-232.448 -202.237)" fill="#06033e"/>
        <path id="Path_41306" data-name="Path 41306" d="M344.134,278.337l-12-6.93c-.328-.19-.287-.519.092-.737l4.038-2.332a1.418,1.418,0,0,1,1.276-.053l12,6.93c.328.189.287.519-.091.737l-4.039,2.331A1.418,1.418,0,0,1,344.134,278.337Z" transform="translate(-247.639 -211.007)" fill="#06033e"/>
        <path id="Path_41307" data-name="Path 41307" d="M315.577,271.366l-4.075-2.354c-.328-.189-.287-.519.092-.737l4.81-2.777a1.42,1.42,0,0,1,1.277-.053l4.075,2.353c.327.189.286.519-.092.737l-4.81,2.777A1.42,1.42,0,0,1,315.577,271.366Z" transform="translate(-244.251 -210.541)" fill="#06033e"/>
        <path id="Path_41308" data-name="Path 41308" d="M260.412,239.516l-6.518-3.763c-.328-.189-.287-.519.091-.737l4.811-2.777a1.416,1.416,0,0,1,1.276-.053l6.518,3.763c.327.189.286.519-.092.737l-4.81,2.777A1.42,1.42,0,0,1,260.412,239.516Z" transform="translate(-234.792 -205.08)" fill="#06033e"/>
        <path id="Path_41309" data-name="Path 41309" d="M307.842,266.9l-6.518-3.763c-.327-.189-.286-.519.092-.737l4.81-2.777a1.42,1.42,0,0,1,1.277-.053l6.518,3.763c.328.189.287.519-.091.737l-4.811,2.777A1.416,1.416,0,0,1,307.842,266.9Z" transform="translate(-242.58 -209.576)" fill="#06033e"/>
        <path id="Path_41310" data-name="Path 41310" d="M271.277,245.789l-6.518-3.764c-.327-.189-.286-.519.092-.736l4.811-2.777a1.416,1.416,0,0,1,1.276-.053l6.518,3.764c.328.189.287.518-.091.737l-4.811,2.777A1.419,1.419,0,0,1,271.277,245.789Z" transform="translate(-236.576 -206.11)" fill="#06033e"/>
        <path id="Path_41311" data-name="Path 41311" d="M271.034,238.514l28.338,16.361a.388.388,0,0,1,0,.735l-4.905,2.833a1.407,1.407,0,0,1-1.274,0l-28.338-16.361Z" transform="translate(-236.628 -206.14)" fill="#06033e"/>
        <path id="Path_41312" data-name="Path 41312" d="M336.824,280.415l4.539,2.621c.268.155.235.425-.074.6l-1.968,1.136a1.164,1.164,0,0,1-1.046.043l-4.539-2.621c-.268-.155-.235-.425.074-.6l1.968-1.136A1.164,1.164,0,0,1,336.824,280.415Z" transform="translate(-247.909 -213.003)" fill="#06033e"/>
        <path id="Path_41313" data-name="Path 41313" d="M329.231,276.032l4.54,2.621c.268.155.234.425-.075.6l-1.968,1.137a1.166,1.166,0,0,1-1.046.043l-4.539-2.621c-.268-.155-.235-.425.075-.6l1.967-1.137A1.166,1.166,0,0,1,329.231,276.032Z" transform="translate(-246.662 -212.283)" fill="#06033e"/>
        <path id="Path_41314" data-name="Path 41314" d="M321.7,271.684l4.54,2.621c.267.155.234.425-.075.6l-1.968,1.136a1.164,1.164,0,0,1-1.046.043l-4.539-2.621c-.268-.155-.235-.425.075-.6l1.967-1.136A1.164,1.164,0,0,1,321.7,271.684Z" transform="translate(-245.426 -211.569)" fill="#06033e"/>
        <path id="Path_41315" data-name="Path 41315" d="M333.39,273.631l4.539,2.621c.268.155.235.425-.075.6l-1.967,1.137a1.164,1.164,0,0,1-1.046.044l-4.54-2.621c-.268-.155-.234-.425.075-.6l1.968-1.136A1.161,1.161,0,0,1,333.39,273.631Z" transform="translate(-247.345 -211.889)" fill="#06033e"/>
      </g>
      <path id="Path_41316" data-name="Path 41316" d="M389.631,232.223,269.391,162.8a5.326,5.326,0,0,1-2.2-5.941l27.192-88.287a3.087,3.087,0,0,1,4.643-1.988l120.239,69.42a5.325,5.325,0,0,1,2.2,5.941l-27.192,88.286A3.087,3.087,0,0,1,389.631,232.223Z" transform="translate(-163.859 -65.405)" fill="url(#radial-gradient-4)"/>
      <path id="Path_41317" data-name="Path 41317" d="M389.005,229.757l-116.626-67.39a5.1,5.1,0,0,1-2.109-5.685l26-84.4a2.954,2.954,0,0,1,4.443-1.9l116.625,67.389a5.1,5.1,0,0,1,2.109,5.686l-26,84.4A2.954,2.954,0,0,1,389.005,229.757Z" transform="translate(-164.367 -66.031)" fill="url(#linear-gradient-6)"/>
      <path id="Path_41318" data-name="Path 41318" d="M389.005,229.757l-116.626-67.39a5.1,5.1,0,0,1-2.109-5.685l26-84.4a2.954,2.954,0,0,1,4.443-1.9l116.625,67.389a5.1,5.1,0,0,1,2.109,5.686l-26,84.4A2.954,2.954,0,0,1,389.005,229.757Z" transform="translate(-164.367 -66.031)" fill="#06033e" opacity="0.4"/>
      <path id="Path_41319" data-name="Path 41319" d="M389.005,229.757l-116.626-67.39a5.1,5.1,0,0,1-2.109-5.685l26-84.4a2.954,2.954,0,0,1,4.443-1.9l116.625,67.389a5.1,5.1,0,0,1,2.109,5.686l-26,84.4A2.954,2.954,0,0,1,389.005,229.757Z" transform="translate(-164.367 -66.031)" fill="#06033e" opacity="0.4"/>
      <path id="Path_41320" data-name="Path 41320" d="M389.053,205.146,310.1,159.565a3.5,3.5,0,0,1-1.448-3.9L326.51,97.7a2.028,2.028,0,0,1,3.049-1.306l78.949,45.582a3.5,3.5,0,0,1,1.447,3.9L392.1,203.842A2.026,2.026,0,0,1,389.053,205.146Z" transform="translate(-170.681 -70.325)" fill="#06033e" opacity="0.5"/>
      <g id="Group_36819" data-name="Group 36819" transform="translate(127.17 30.271)">
        <path id="Path_41321" data-name="Path 41321" d="M376.29,210.544,297.34,164.963a3.5,3.5,0,0,1-1.447-3.9l17.853-57.968a2.028,2.028,0,0,1,3.049-1.306l78.949,45.582a3.5,3.5,0,0,1,1.447,3.9l-17.853,57.968A2.027,2.027,0,0,1,376.29,210.544Z" transform="translate(-295.755 -101.482)" fill="url(#radial-gradient-5)"/>
      </g>
      <g id="Group_36820" data-name="Group 36820" transform="translate(127.17 30.271)" opacity="0.5">
        <path id="Path_41322" data-name="Path 41322" d="M376.29,210.544,297.34,164.963a3.5,3.5,0,0,1-1.447-3.9l17.853-57.968a2.028,2.028,0,0,1,3.049-1.306l78.949,45.582a3.5,3.5,0,0,1,1.447,3.9l-17.853,57.968A2.027,2.027,0,0,1,376.29,210.544Z" transform="translate(-295.755 -101.482)" fill="#06033e"/>
      </g>
      <path id="Path_41323" data-name="Path 41323" d="M399.443,147.37l-78.949-45.582a1.966,1.966,0,0,0-2.222.076,2.128,2.128,0,0,1,1.14.292l78.949,45.582a3.5,3.5,0,0,1,1.447,3.9l-17.853,57.968a2.382,2.382,0,0,1-.827,1.229,2.089,2.089,0,0,0,1.909-1.6L400.89,151.27A3.5,3.5,0,0,0,399.443,147.37Z" transform="translate(-172.282 -71.211)" fill="#fff"/>
      <path id="Path_41324" data-name="Path 41324" d="M265.931,282a5.952,5.952,0,0,1-2.925-.685l-31.63-18.261a2.287,2.287,0,0,1-1.3-1.949,2.99,2.99,0,0,1,1.744-2.418l16.281-9.4a7.292,7.292,0,0,1,6.65-.257l31.631,18.262a2.285,2.285,0,0,1,1.3,1.949,2.989,2.989,0,0,1-1.744,2.417l-16.282,9.4A7.631,7.631,0,0,1,265.931,282Zm-14.089-32.731a6.791,6.791,0,0,0-3.283.808l-16.281,9.4c-.819.473-1.289,1.066-1.289,1.627a1.442,1.442,0,0,0,.844,1.157l31.63,18.262a6.488,6.488,0,0,0,5.737-.257l16.281-9.4c.819-.472,1.289-1.066,1.289-1.626a1.444,1.444,0,0,0-.844-1.158L254.3,249.818A5.018,5.018,0,0,0,251.842,249.265Z" transform="translate(-157.8 -95.326)" fill="#06033e" opacity="0.4"/>
    </g>
    <g id="Group_36822" data-name="Group 36822" transform="translate(282.77 104.743)">
      <path id="Path_41325" data-name="Path 41325" d="M385.681,149.961l-3.568-2.06a.93.93,0,0,1-.4-1.026h0a.528.528,0,0,1,.8-.334l3.568,2.06a.93.93,0,0,1,.4,1.025h0A.528.528,0,0,1,385.681,149.961Z" transform="translate(-332.336 -118.075)" fill="#fff"/>
      <path id="Path_41326" data-name="Path 41326" d="M332.89,119.595l-9.82-5.652a.931.931,0,0,1-.4-1.026h0a.528.528,0,0,1,.8-.333l9.819,5.652a.931.931,0,0,1,.4,1.026h0A.527.527,0,0,1,332.89,119.595Z" transform="translate(-322.641 -112.499)" fill="#fff"/>
      <path id="Path_41327" data-name="Path 41327" d="M393.823,154.662l-3.568-2.06a.93.93,0,0,1-.4-1.026h0a.528.528,0,0,1,.8-.334l3.568,2.06a.93.93,0,0,1,.4,1.025h0A.528.528,0,0,1,393.823,154.662Z" transform="translate(-333.673 -118.847)" fill="#fff"/>
      <path id="Path_41328" data-name="Path 41328" d="M401.965,159.362,398.4,157.3a.93.93,0,0,1-.4-1.026h0a.528.528,0,0,1,.8-.334L402.37,158a.932.932,0,0,1,.4,1.026h0A.528.528,0,0,1,401.965,159.362Z" transform="translate(-335.01 -119.619)" fill="#fff"/>
      <path id="Path_41329" data-name="Path 41329" d="M406.646,162.068l-.107-.064a.93.93,0,0,1-.4-1.026h0a.528.528,0,0,1,.8-.333l.107.064a.931.931,0,0,1,.4,1.026h0A.528.528,0,0,1,406.646,162.068Z" transform="translate(-336.346 -120.391)" fill="#f8359e"/>
    </g>
    <path id="Path_41330" data-name="Path 41330" d="M420.979,370.422a13.057,13.057,0,0,1-6.529-1.744h0l-23.9-13.8a3.308,3.308,0,0,1,0-5.731l23.9-13.8a13.09,13.09,0,0,1,13.06,0l23.9,13.8a3.308,3.308,0,0,1,0,5.732l-23.9,13.8A13.062,13.062,0,0,1,420.979,370.422Zm-5.753-3.092a11.542,11.542,0,0,0,11.506,0l23.9-13.8a1.754,1.754,0,0,0,0-3.037l-23.9-13.8a11.537,11.537,0,0,0-11.5,0l-23.9,13.8a1.754,1.754,0,0,0,0,3.037Z" transform="translate(-50.75 -44.062)" fill="url(#linear-gradient)"/>
    <g id="Group_36825" data-name="Group 36825" transform="translate(346.4 222.116)">
      <ellipse id="Ellipse_255" data-name="Ellipse 255" cx="16.416" cy="9.478" rx="16.416" ry="9.478" transform="translate(7.413 76.914)" fill="#020230" opacity="0.6"/>
      <path id="Path_41331" data-name="Path 41331" d="M447.21,275.478H400.454L404.8,326.1h0c0,2.812,1.858,5.623,5.574,7.768,7.431,4.291,19.48,4.291,26.912,0,3.715-2.146,5.573-4.957,5.573-7.77Z" transform="translate(-399.048 -256.634)" fill="url(#radial-gradient-6)"/>
      <path id="Path_41332" data-name="Path 41332" d="M447.21,275.478H400.454l.715,8.328a18.176,18.176,0,0,0,4.334,3.9c8.934,5.927,23.676,7.069,33.735,2.8l-1.555,37.026a7.27,7.27,0,0,1-1.671,4.415c-1.514,1.783-4.433,3.88-10.042,5.066a26.392,26.392,0,0,0,11.318-3.141c3.715-2.146,5.573-4.957,5.573-7.77l3.487-40.6h0Z" transform="translate(-399.048 -256.634)" fill="#06033e" opacity="0.4"/>
      <ellipse id="Ellipse_256" data-name="Ellipse 256" cx="23.378" cy="13.497" rx="23.378" ry="13.497" transform="translate(1.406 5.346)" fill="#06033e" opacity="0.4"/>
      <ellipse id="Ellipse_257" data-name="Ellipse 257" cx="20.136" cy="11.626" rx="20.136" ry="11.626" transform="translate(4.648 2.46)" fill="#06033e" opacity="0.4"/>
      <path id="Path_41333" data-name="Path 41333" d="M448.319,271.152l0,0,0-.041-.008-.069-.449-4.533-.019.051c-.2-3.431-2.563-6.828-7.1-9.446-9.492-5.48-24.882-5.48-34.374,0-4.65,2.685-7.016,6.187-7.109,9.706l-.006-.012-.427,4.036c-.012.1-.026.21-.033.314l-.008.067.005,0c-.257,3.845,2.153,7.739,7.238,10.674,9.68,5.59,25.376,5.59,35.056,0C446.2,278.945,448.611,275.021,448.319,271.152Z" transform="translate(-398.772 -252.944)" fill="url(#linear-gradient-8)"/>
      <ellipse id="Ellipse_258" data-name="Ellipse 258" cx="20.136" cy="11.626" rx="20.136" ry="11.626" transform="translate(4.648 2.46)" fill="url(#linear-gradient-9)"/>
      <ellipse id="Ellipse_259" data-name="Ellipse 259" cx="20.136" cy="11.626" rx="20.136" ry="11.626" transform="translate(3.692 2.46)" fill="url(#linear-gradient-9)"/>
      <path id="Path_41334" data-name="Path 41334" d="M412.62,261.013c7.863-4.54,20.613-4.54,28.476,0,.1.058.184.121.282.18a16.022,16.022,0,0,0-2.67-1.911c-7.863-4.54-20.613-4.54-28.476,0-7.764,4.482-7.847,11.709-.282,16.26C404.9,271.037,405.784,264.959,412.62,261.013Z" transform="translate(-399.686 -253.415)" fill="#06033e" opacity="0.4"/>
      <path id="Path_41335" data-name="Path 41335" d="M410.231,261.3c7.863-4.54,20.613-4.54,28.476,0,3.487,2.013,5.424,4.581,5.82,7.212.495-3.3-1.443-6.7-5.82-9.23-7.863-4.54-20.613-4.541-28.476,0-4.377,2.527-6.314,5.927-5.819,9.23C404.807,265.879,406.744,263.311,410.231,261.3Z" transform="translate(-399.686 -253.415)" fill="url(#linear-gradient-11)"/>
      <path id="Path_41336" data-name="Path 41336" d="M440.969,257.21c-9.479-5.584-24.924-5.72-34.5-.3s-9.653,14.334-.175,19.918,24.923,5.72,34.5.3S450.447,262.8,440.969,257.21Zm-3.1,18.028a26.266,26.266,0,0,1-9.156,3.018l-.366-1.2a1.15,1.15,0,0,0-1.1-.817h-7.23a1.151,1.151,0,0,0-1.1.817l-.365,1.2a26.238,26.238,0,0,1-9.155-3.017c-7.864-4.54-7.865-11.9,0-16.441s20.613-4.54,28.476,0S445.734,270.7,437.871,275.239Z" transform="translate(-398.848 -252.932)" fill="url(#radial-gradient-7)"/>
      <g id="Group_36823" data-name="Group 36823" transform="translate(0.396 1.6)">
        <path id="Path_41337" data-name="Path 41337" d="M438.708,258.251c-7.863-4.54-20.613-4.54-28.476,0-4.121,2.379-6.079,5.533-5.88,8.65.181-2.83,2.138-5.63,5.88-7.79,7.863-4.54,20.613-4.54,28.476,0,3.743,2.161,5.7,4.96,5.881,7.79C444.787,263.785,442.83,260.631,438.708,258.251Z" transform="translate(-400.082 -254.846)" fill="#fff"/>
        <path id="Path_41338" data-name="Path 41338" d="M440.8,278.927c-9.575,5.416-25.02,5.28-34.5-.3-4.511-2.657-6.852-6.07-7.041-9.5-.186,3.716,2.153,7.482,7.041,10.361,9.478,5.584,24.923,5.72,34.5.3,5.019-2.839,7.424-6.64,7.215-10.418C447.835,272.859,445.433,276.3,440.8,278.927Z" transform="translate(-399.246 -257.19)" fill="#fff"/>
      </g>
      <path id="Rectangle_3657" data-name="Rectangle 3657" d="M.584,0H4.83a.584.584,0,0,1,.584.584v0a.584.584,0,0,1-.584.584H.584A.584.584,0,0,1,0,.584v0A.584.584,0,0,1,.584,0Z" transform="translate(22.077 24.782)" fill="#0c0a78"/>
      <path id="Path_41339" data-name="Path 41339" d="M430.054,282.582h-4.322a.546.546,0,0,0-.546.547v.076a.528.528,0,0,0,.029.145.538.538,0,0,1,.516-.4h4.322a.538.538,0,0,1,.516.4.529.529,0,0,0,.03-.145v-.076A.547.547,0,0,0,430.054,282.582Z" transform="translate(-403.109 -257.8)" fill="url(#linear-gradient-12)"/>
      <g id="Group_36824" data-name="Group 36824" transform="translate(16.407 54.611)">
        <path id="Path_41340" data-name="Path 41340" d="M427.774,329.012a3.735,3.735,0,0,1-7.22-1.92c.53-1.993,2.41-2.558,4.4-2.028S428.3,327.018,427.774,329.012Z" transform="translate(-418.735 -319.356)" fill="#e8975b"/>
        <path id="Path_41341" data-name="Path 41341" d="M432.174,324.5a1.654,1.654,0,1,1-2.312-2.366c.752-.735,2.181-1.1,2.82-.444S432.927,323.763,432.174,324.5Z" transform="translate(-420.195 -318.777)" fill="#e8975b"/>
        <path id="Path_41342" data-name="Path 41342" d="M427.415,320.867a1.654,1.654,0,1,1-3.256-.579c.184-1.036,1.137-2.161,2.036-2S427.6,319.832,427.415,320.867Z" transform="translate(-419.342 -318.272)" fill="#e8975b"/>
        <path id="Path_41343" data-name="Path 41343" d="M421.66,320.491a1.654,1.654,0,1,1-3.059,1.259c-.4-.973-.2-2.434.644-2.782S421.26,319.519,421.66,320.491Z" transform="translate(-418.402 -318.374)" fill="#e8975b"/>
      </g>
    </g>
    <path id="Path_41344" data-name="Path 41344" d="M413.19,267.093s13.072-4.38,7.78-19.4-15.6-19.6-11.447-31.613c0,0-6.506,9.727-.426,22.887s7.413,11.649,7.342,17.942a11.356,11.356,0,0,1-6.126,10.184Z" transform="translate(-53.641 -24.764)" fill="#fff" opacity="0.5"/>
    <path id="Path_41345" data-name="Path 41345" d="M415.9,215.035s-1.362-8.985,7.067-18.04c0,0-7.453,16.647-5.015,24.865C417.947,221.86,415.975,216.636,415.9,215.035Z" transform="translate(-55.17 -21.631)" fill="#fff" opacity="0.5"/>
    <g id="Group_36828" data-name="Group 36828" transform="translate(97.02 132.876)">
      <path id="Path_41346" data-name="Path 41346" d="M118.413,186.4l51.022-29.453a5.406,5.406,0,0,1,4.9,0l29.2,16.861c1.351.781,1.352,2.046,0,2.827l-51.022,29.453a5.411,5.411,0,0,1-4.9,0l-29.2-16.861C117.06,188.447,117.06,187.181,118.413,186.4Z" transform="translate(-103.19 -147.835)" fill="#020230" opacity="0.6"/>
      <path id="Path_41347" data-name="Path 41347" d="M147.5,213.867a7.023,7.023,0,0,1-3.454-.838L102.056,188.75a2.627,2.627,0,0,1,0-4.884L165.921,147a7.526,7.526,0,0,1,6.905,0l41.993,24.278a2.629,2.629,0,0,1,0,4.885l-63.865,36.867A7.034,7.034,0,0,1,147.5,213.867Zm21.873-66.149a5.5,5.5,0,0,0-2.675.628l-63.865,36.867h0c-.559.323-.88.722-.88,1.095s.321.773.88,1.1l41.992,24.278a6.014,6.014,0,0,0,5.352,0l63.864-36.868c.559-.323.88-.722.88-1.1s-.321-.772-.881-1.1l-41.991-24.277A5.493,5.493,0,0,0,169.374,147.718Zm-66.929,36.821h0Z" transform="translate(-100.398 -146.159)" fill="url(#linear-gradient)"/>
      <path id="Path_41348" data-name="Path 41348" d="M204.549,166.837v-.931l-.224.226a2.278,2.278,0,0,0-.79-.71l-29.2-16.861a5.411,5.411,0,0,0-4.9,0l-51.022,29.453a2.374,2.374,0,0,0-.738.634l-.274-.125v.888a1.708,1.708,0,0,0,1.012,1.429l29.2,16.861a5.411,5.411,0,0,0,4.9,0l51.022-29.453a1.728,1.728,0,0,0,1.013-1.4h0v-.01h0Z" transform="translate(-103.19 -146.458)" fill="url(#radial-gradient-8)"/>
      <path id="Path_41349" data-name="Path 41349" d="M118.413,176.886l51.022-29.453a5.411,5.411,0,0,1,4.9,0l29.2,16.861c1.351.781,1.352,2.046,0,2.827l-51.022,29.454a5.411,5.411,0,0,1-4.9,0l-29.2-16.861C117.06,178.932,117.06,177.667,118.413,176.886Z" transform="translate(-103.19 -146.272)" fill="url(#radial-gradient-9)"/>
      <path id="Path_41350" data-name="Path 41350" d="M203.535,170.017,152.513,199.47a5.411,5.411,0,0,1-4.9,0l-29.2-16.861a1.975,1.975,0,0,1-.954-1.046c-.2.626.115,1.3.954,1.782l29.2,16.861a5.411,5.411,0,0,0,4.9,0l51.022-29.454c.839-.484,1.156-1.155.954-1.781A1.971,1.971,0,0,1,203.535,170.017Z" transform="translate(-103.19 -149.905)" fill="#ffe7d7"/>
      <path id="Path_41351" data-name="Path 41351" d="M150.249,186.95l5.494-3.173c.649-.374.568-1.028-.181-1.46l-3.141-1.813a2.808,2.808,0,0,0-2.529-.105l-5.495,3.172c-.648.374-.567,1.028.182,1.461l3.141,1.813A2.813,2.813,0,0,0,150.249,186.95Z" transform="translate(-107.551 -151.74)" fill="url(#radial-gradient-10)"/>
      <g id="Group_36826" data-name="Group 36826" transform="translate(25.066 25.134)">
        <path id="Path_41352" data-name="Path 41352" d="M133.707,183.838l-3.318-1.916.812-.47a2.6,2.6,0,0,1,.442-.207,1.86,1.86,0,0,1,.44-.1,1.394,1.394,0,0,1,.464.036,1.778,1.778,0,0,1,.473.2q.612.356.2.679a1.5,1.5,0,0,1,.7-.105,1.772,1.772,0,0,1,.712.242q.475.272.481.551t-.449.542Zm-1.361-1.484.188-.109c.177-.1.262-.195.252-.277s-.1-.176-.284-.28a1.069,1.069,0,0,0-.26-.112.578.578,0,0,0-.242-.011.964.964,0,0,0-.231.066,2.531,2.531,0,0,0-.267.138l-.084.048Zm1.539.888.222-.129q.27-.155.248-.288c-.015-.089-.119-.189-.313-.3a1.221,1.221,0,0,0-.552-.183.971.971,0,0,0-.528.149l-.19.109Z" transform="translate(-130.389 -177.037)" fill="#ffe7d7"/>
        <path id="Path_41353" data-name="Path 41353" d="M136.352,182.394l-2.644-2.305.63-.364,3.991,1.528-.562.324-.905-.367-.574.331.634.524Zm-.394-1.117.445-.257-1.586-.659Z" transform="translate(-130.934 -176.805)" fill="#ffe7d7"/>
        <path id="Path_41354" data-name="Path 41354" d="M138.975,180.754l-3.318-1.917.416-.24,2.691.616-1.879-1.086.5-.288,3.318,1.916-.4.229-2.8-.667,1.976,1.14Z" transform="translate(-131.254 -176.495)" fill="#ffe7d7"/>
        <path id="Path_41355" data-name="Path 41355" d="M141.638,179.2l-3.319-1.916.605-.349,1.441.832-.789-1.209.577-.333.85,1.224,2.534.654-.6.348-2.133-.571.1.195,1.345.776Z" transform="translate(-131.691 -176.231)" fill="#ffe7d7"/>
      </g>
      <g id="Group_36827" data-name="Group 36827" transform="translate(44.865 17.766)">
        <path id="Path_41356" data-name="Path 41356" d="M163.944,190.884a1.146,1.146,0,0,0-1.037,0l-4.81,2.777-.415.239-3.389,1.957a.316.316,0,0,0,0,.6,1.145,1.145,0,0,0,1.037,0l3.39-1.957.415-.24,4.809-2.777A.316.316,0,0,0,163.944,190.884Z" transform="translate(-154.078 -171.249)" fill="#06033e" opacity="0.4"/>
        <path id="Path_41357" data-name="Path 41357" d="M177.325,183.1a1.146,1.146,0,0,0-1.037,0l-4.81,2.777-.415.24-3.389,1.957a.316.316,0,0,0,0,.6,1.148,1.148,0,0,0,1.037,0l3.389-1.957.415-.239,4.81-2.777A.316.316,0,0,0,177.325,183.1Z" transform="translate(-156.275 -169.971)" fill="#06033e" opacity="0.4"/>
        <path id="Path_41358" data-name="Path 41358" d="M190.7,175.322a1.146,1.146,0,0,0-1.037,0l-4.809,2.777-.415.239-3.39,1.957a.316.316,0,0,0,0,.6,1.147,1.147,0,0,0,1.038,0l3.389-1.957.415-.239,4.809-2.777A.316.316,0,0,0,190.7,175.322Z" transform="translate(-158.472 -168.693)" fill="#06033e" opacity="0.4"/>
        <path id="Path_41359" data-name="Path 41359" d="M204.086,167.54a1.146,1.146,0,0,0-1.037,0l-4.81,2.777-.415.239-3.389,1.957a.316.316,0,0,0,0,.6,1.146,1.146,0,0,0,1.037,0l3.39-1.957.415-.24,4.809-2.777A.316.316,0,0,0,204.086,167.54Z" transform="translate(-160.669 -167.415)" fill="#06033e" opacity="0.4"/>
      </g>
      <path id="Path_41360" data-name="Path 41360" d="M179.081,156.488a1.146,1.146,0,0,0-1.037,0l-2.459,1.42-.415.239-3.389,1.957a.316.316,0,0,0,0,.6,1.146,1.146,0,0,0,1.037,0l3.389-1.957.415-.24,2.459-1.419A.316.316,0,0,0,179.081,156.488Z" transform="translate(-112.084 -147.835)" fill="#ffe7d7"/>
      <path id="Path_41361" data-name="Path 41361" d="M169.459,162.485a1.146,1.146,0,0,0-1.037,0l-2.459,1.419-.415.239-.354.206a.316.316,0,0,0,0,.6,1.147,1.147,0,0,0,1.038,0l.354-.206L167,164.5l2.458-1.42A.316.316,0,0,0,169.459,162.485Z" transform="translate(-111.002 -148.82)" fill="#ffe7d7"/>
      <path id="Path_41362" data-name="Path 41362" d="M160.574,199.781l1.88-1.086c.175-.1.153-.276-.048-.393h0a.755.755,0,0,0-.68-.028l-1.88,1.085c-.175.1-.152.277.049.393h0A.756.756,0,0,0,160.574,199.781Z" transform="translate(-110.14 -154.706)" fill="#ffe7d7"/>
      <path id="Path_41363" data-name="Path 41363" d="M164.082,197.883l.753-.435c.175-.1.153-.277-.048-.393h0a.758.758,0,0,0-.68-.028l-.754.435c-.174.1-.152.277.049.393h0A.758.758,0,0,0,164.082,197.883Z" transform="translate(-110.716 -154.501)" fill="#ffe7d7"/>
    </g>
    <g id="Group_36830" data-name="Group 36830" transform="translate(290.947 130.372)">
      <g id="Group_36829" data-name="Group 36829">
        <path id="Path_41364" data-name="Path 41364" d="M355.586,183.675a.413.413,0,0,1-.209-.056l-17.568-10.143a3.7,3.7,0,0,1-1.829-3.469l2.5-20.864a2.88,2.88,0,0,0-1.418-2.645l-4.426-2.555a.418.418,0,1,1,.418-.723l4.426,2.554a3.7,3.7,0,0,1,1.829,3.469l-2.5,20.865a2.879,2.879,0,0,0,1.418,2.645L355.795,182.9a.418.418,0,0,1-.209.78Z" transform="translate(-332.424 -143.164)" fill="#e8975b"/>
        <path id="Path_41365" data-name="Path 41365" d="M358.074,181.418a3.774,3.774,0,0,1-1.878-.534l-18.968-10.951a.417.417,0,0,1-.206-.411l1.709-14.28a.417.417,0,0,1,.624-.312l23.427,13.525h0a1.654,1.654,0,0,1,.756,1.925l-2.775,9.035a2.749,2.749,0,0,1-1.625,1.808A2.9,2.9,0,0,1,358.074,181.418Zm-20.19-12.071,18.729,10.814a2.591,2.591,0,0,0,2.218.283,1.932,1.932,0,0,0,1.132-1.274l2.776-9.036a.823.823,0,0,0-.375-.956l-22.878-13.209Z" transform="translate(-333.179 -145.086)" fill="#e8975b"/>
        <path id="Path_41366" data-name="Path 41366" d="M339.29,187.452a2.568,2.568,0,0,1-1.275-.359,3.193,3.193,0,0,1-1.546-3.511,1.9,1.9,0,0,1,1.126-1.25,2.334,2.334,0,0,1,2.009.224,3.192,3.192,0,0,1,1.546,3.511h0a1.9,1.9,0,0,1-1.126,1.249A2,2,0,0,1,339.29,187.452Zm-.959-4.421a1.19,1.19,0,0,0-.431.079,1.073,1.073,0,0,0-.633.717,2.4,2.4,0,0,0,1.166,2.542,1.507,1.507,0,0,0,1.285.171,1.075,1.075,0,0,0,.634-.718,2.4,2.4,0,0,0-1.166-2.542A1.739,1.739,0,0,0,338.331,183.031Zm2.42,2.914h0Z" transform="translate(-333.071 -149.573)" fill="#e8975b"/>
        <path id="Path_41367" data-name="Path 41367" d="M354.687,196.343a2.562,2.562,0,0,1-1.274-.36,3.192,3.192,0,0,1-1.546-3.511,1.9,1.9,0,0,1,1.126-1.25,2.336,2.336,0,0,1,2.009.225,3.192,3.192,0,0,1,1.546,3.511h0a1.9,1.9,0,0,1-1.125,1.25A2.023,2.023,0,0,1,354.687,196.343Zm-.958-4.421a1.168,1.168,0,0,0-.43.079,1.069,1.069,0,0,0-.633.717,2.4,2.4,0,0,0,1.165,2.542,1.5,1.5,0,0,0,1.286.171,1.07,1.07,0,0,0,.633-.716,2.4,2.4,0,0,0-1.166-2.542A1.739,1.739,0,0,0,353.729,191.922Zm2.42,2.914h0Z" transform="translate(-335.599 -151.033)" fill="#e8975b"/>
      </g>
      <path id="Path_41368" data-name="Path 41368" d="M343.169,173.557a.393.393,0,0,1-.123-.019.417.417,0,0,1-.277-.522l3.981-12.962a.412.412,0,0,1,.522-.277.417.417,0,0,1,.277.522l-3.981,12.962A.416.416,0,0,1,343.169,173.557Z" transform="translate(-334.12 -145.888)" fill="#e8975b"/>
      <path id="Path_41369" data-name="Path 41369" d="M350.109,177.564a.388.388,0,0,1-.122-.019.416.416,0,0,1-.277-.522l3.981-12.962a.417.417,0,0,1,.8.245l-3.981,12.962A.418.418,0,0,1,350.109,177.564Z" transform="translate(-335.26 -146.546)" fill="#e8975b"/>
      <path id="Path_41370" data-name="Path 41370" d="M357.051,181.571a.392.392,0,0,1-.123-.018.416.416,0,0,1-.277-.522l3.982-12.962a.417.417,0,1,1,.8.245l-3.982,12.962A.416.416,0,0,1,357.051,181.571Z" transform="translate(-336.399 -147.204)" fill="#e8975b"/>
      <path id="Path_41371" data-name="Path 41371" d="M360.891,180.3a.413.413,0,0,1-.209-.056L338,167.148a.418.418,0,1,1,.418-.723L361.1,179.517a.418.418,0,0,1-.209.779Z" transform="translate(-333.306 -146.974)" fill="#e8975b"/>
    </g>
    <path id="Path_41372" data-name="Path 41372" d="M379.8,172.762a5.576,5.576,0,0,1-2.767-.789,8,8,0,0,1-3.761-8.366,4.259,4.259,0,0,1,2.447-2.961,4.962,4.962,0,0,1,4.385.475,7.992,7.992,0,0,1,3.761,8.365,4.252,4.252,0,0,1-2.447,2.961A4.173,4.173,0,0,1,379.8,172.762Zm-2.46-11.654a3.43,3.43,0,0,0-1.321.255,3.5,3.5,0,0,0-1.993,2.441,7.171,7.171,0,0,0,3.4,7.494,4.208,4.208,0,0,0,3.7.431,3.5,3.5,0,0,0,1.993-2.441h0a7.172,7.172,0,0,0-3.4-7.495A4.8,4.8,0,0,0,377.342,161.109Z" transform="translate(-48.154 -15.61)" fill="#fff"/>
    <g id="Group_36831" data-name="Group 36831" transform="translate(328.783 148.744)">
      <path id="Path_41373" data-name="Path 41373" d="M377.694,169.151l.156-.592,1.458-1.058c.016-.013.074-.053.17-.12s.16-.115.192-.142.081-.072.145-.135a.81.81,0,0,0,.15-.191.955.955,0,0,0,.083-.217.673.673,0,0,0,0-.4.4.4,0,0,0-.183-.221.317.317,0,0,0-.044-.023c-.229-.108-.4.044-.508.458l-.053.2-.79-.456.056-.212a1.83,1.83,0,0,1,.207-.506.929.929,0,0,1,.308-.311.674.674,0,0,1,.435-.076,1.483,1.483,0,0,1,.555.206,1.73,1.73,0,0,1,.759.79,1.521,1.521,0,0,1,.059,1.021,1.541,1.541,0,0,1-.132.339,1.1,1.1,0,0,1-.206.268,2.536,2.536,0,0,1-.221.195c-.066.05-.153.112-.264.186l-.079.053-1.158.807,1.252.724-.176.666Z" transform="translate(-377.694 -165.144)" fill="#fff"/>
    </g>
  </g>
</svg>
