<svg xmlns="http://www.w3.org/2000/svg" width="62" height="62" viewBox="0 0 62 62">
  <g id="international_payments" transform="translate(-1 -1)">
    <g id="Group_38673" data-name="Group 38673">
      <g id="Group_38672" data-name="Group 38672">
        <path id="Path_53004" data-name="Path 53004" d="M52,23A11,11,0,1,1,63,12,11.013,11.013,0,0,1,52,23Z" fill="#ded4b7"/>
      </g>
    </g>
    <g id="Group_38675" data-name="Group 38675">
      <g id="Group_38674" data-name="Group 38674">
        <path id="Path_53005" data-name="Path 53005" d="M52,63A11,11,0,1,1,63,52,11.013,11.013,0,0,1,52,63Z" fill="#ded4b7"/>
      </g>
    </g>
    <g id="Group_38676" data-name="Group 38676">
      <path id="Path_53006" data-name="Path 53006" d="M40,21a11.007,11.007,0,0,0-10,6.444v9.112A11,11,0,1,0,40,21Z" fill="#ded4b7"/>
    </g>
    <g id="Group_38678" data-name="Group 38678">
      <g id="Group_38677" data-name="Group 38677">
        <path id="Path_53007" data-name="Path 53007" d="M27,25H21V19h6Z" fill="#ded4b7"/>
      </g>
    </g>
    <g id="Group_38679" data-name="Group 38679">
      <path id="Path_53008" data-name="Path 53008" d="M22,31h5V41H22Z" fill="#ded4b7"/>
    </g>
    <g id="Group_38680" data-name="Group 38680">
      <path id="Path_53009" data-name="Path 53009" d="M21.372,2.343a2.766,2.766,0,0,0-4.744,0L10.233,13H27.766ZM18.343,3.372a.8.8,0,0,1,1.314,0L24.233,11H13.767Z"/>
      <path id="Path_53010" data-name="Path 53010" d="M51,16.855V19h2V16.855a2.844,2.844,0,0,0,.422-5.262l-1.949-.975A.854.854,0,0,1,51.854,9h.291A.856.856,0,0,1,53,9.854V11h2V9.854a2.849,2.849,0,0,0-2-2.709V5H51V7.145a2.844,2.844,0,0,0-.422,5.262l1.949.975A.854.854,0,0,1,52.146,15h-.291A.856.856,0,0,1,51,14.146V13H49v1.146A2.849,2.849,0,0,0,51,16.855Z"/>
      <path id="Path_53011" data-name="Path 53011" d="M28,15H10a3,3,0,0,0-3,3V29.586l-2.761,2.76A10.987,10.987,0,0,0,1,40.167a11.2,11.2,0,0,0,.15,1.818l1.556,9.332a18.271,18.271,0,0,0,1.061,3.792L5,58.193V63H19V58.193l.69-1.726a18.213,18.213,0,0,0,1.31-6.8q0-.7-.054-1.4L20.695,45H28a3,3,0,0,0,3-3V18a3,3,0,0,0-3-3ZM15,35.557a3.323,3.323,0,0,0-1.413,1.976L13,39.878V17h2ZM9,44.816A2.966,2.966,0,0,0,10,45h1.325c-.222.516-.456,1.026-.707,1.527A.854.854,0,0,1,9,46.146ZM9,18a1,1,0,0,1,1-1h1V43H10a1,1,0,0,1-1-1Zm8,43H7V59H17Zm.833-5.275L17.323,57H6.677L5.624,54.367a16.3,16.3,0,0,1-.945-3.378L3.123,41.657a9.067,9.067,0,0,1,2.53-7.9L7,32.414V46.146a2.854,2.854,0,0,0,5.407,1.276,31.332,31.332,0,0,0,2.369-6.407l.75-3a1.344,1.344,0,0,1,2.643.223l.783,10.174c.032.416.048.834.048,1.251a16.246,16.246,0,0,1-1.167,6.06ZM29,42a1,1,0,0,1-1,1H20.541l-.378-4.913A3.35,3.35,0,0,0,17,35.017V17H28a1,1,0,0,1,1,1Z"/>
      <path id="Path_53012" data-name="Path 53012" d="M25,35h2v2H25Z"/>
      <path id="Path_53013" data-name="Path 53013" d="M25,39h2v2H25Z"/>
      <path id="Path_53014" data-name="Path 53014" d="M25,31h2v2H25Z"/>
      <path id="Path_53015" data-name="Path 53015" d="M21,31h2V41H21Z"/>
      <path id="Path_53016" data-name="Path 53016" d="M41,25a4,4,0,0,0-4,4H35v2h2v2H35v2h2a4,4,0,0,0,8,0V34H43v1a2,2,0,0,1-4,0h2V33H39V31h2V29H39a2,2,0,0,1,4,0v1h2V29A4,4,0,0,0,41,25Z"/>
      <path id="Path_53017" data-name="Path 53017" d="M56.781,46.625l-1.562-1.25L52,49.4l-3.219-4.024-1.562,1.25L50.719,51H49v2h2v2H49v2h2v2h2V57h2V55H53V53h2V51H53.281Z"/>
    </g>
  </g>
</svg>
