<svg xmlns="http://www.w3.org/2000/svg" width="378.561" height="368.307" viewBox="0 0 378.561 368.307">
  <g id="polygon_three" transform="translate(139.798) rotate(34)" fill="none" opacity="0.3">
    <path d="M135.335,15.044a10,10,0,0,1,17.331,0l126.7,219.965A10,10,0,0,1,270.7,250H17.3a10,10,0,0,1-8.665-14.991Z" stroke="none"/>
    <path d="M 144 60.10546875 L 51.90077209472656 220 L 236.0992431640625 220 L 144 60.10546875 M 144 10.03518676757813 C 147.3709869384766 10.03518676757813 150.7419738769531 11.70477294921875 152.6653289794922 15.04393005371094 L 279.3650512695313 235.0088043212891 C 283.205078125 241.6753997802734 278.3932800292969 250 270.6997375488281 250 L 17.30026245117188 250 C 9.606719970703125 250 4.794921875 241.6753997802734 8.634918212890625 235.0088043212891 L 135.3346710205078 15.04393005371094 C 137.2580261230469 11.70477294921875 140.6290130615234 10.03518676757813 144 10.03518676757813 Z" stroke="none" fill="#938c78"/>
  </g>
</svg>
