<svg xmlns="http://www.w3.org/2000/svg" width="98.509" height="196.701" viewBox="0 0 98.509 196.701">
  <g id="portfolio_circle" transform="translate(-26.971 -869.779)">
    <g id="Group_10" data-name="Group 10" transform="translate(528.22 695.484) rotate(90)">
      <path id="Path_759" data-name="Path 759" d="M370.991,500.243c-.46-53.764-44.577-97.5-98.344-97.5s-97.886,43.739-98.345,97.5L174.3,501h2.072l.007-.744c.452-52.628,43.639-95.444,96.272-95.444s95.819,42.816,96.271,95.444l.007.744H371Z" fill="#fff"/>
      <path id="Path_760" data-name="Path 760" d="M272.647,412.349c-48.47,0-88.276,39.429-88.735,87.893L183.9,501h2.074l.006-.743a86.666,86.666,0,0,1,173.325,0l.007.743h2.073l-.008-.758C360.922,451.778,321.116,412.349,272.647,412.349Z" fill="#fff"/>
      <path id="Path_761" data-name="Path 761" d="M272.647,421.959a79.391,79.391,0,0,0-79.126,78.283l-.008.758h2.073l.008-.742a77.057,77.057,0,0,1,154.105,0l.008.742h2.073l-.008-.758A79.392,79.392,0,0,0,272.647,421.959Z" fill="#fff"/>
      <path id="Path_762" data-name="Path 762" d="M272.647,431.568a69.773,69.773,0,0,0-69.517,68.673l-.009.759h2.073l.009-.741a67.449,67.449,0,0,1,134.887,0l.009.741h2.073l-.009-.759A69.773,69.773,0,0,0,272.647,431.568Z" fill="#fff"/>
      <path id="Path_763" data-name="Path 763" d="M272.647,441.177a60.15,60.15,0,0,0-59.9,59.062l-.01.761h2.073l.01-.739a57.829,57.829,0,0,1,115.647,0l.01.739h2.073l-.011-.761A60.149,60.149,0,0,0,272.647,441.177Z" fill="#fff"/>
      <path id="Path_764" data-name="Path 764" d="M272.647,450.787a50.53,50.53,0,0,0-50.287,49.45l-.013.763h2.073l.012-.738a48.221,48.221,0,0,1,96.428,0l.013.738h2.073l-.013-.763A50.53,50.53,0,0,0,272.647,450.787Z" fill="#fff"/>
      <path id="Path_765" data-name="Path 765" d="M272.647,460.4a40.912,40.912,0,0,0-40.678,39.838l-.016.766h2.073l.016-.734a38.613,38.613,0,0,1,77.209,0l.016.734h2.072l-.015-.766A40.912,40.912,0,0,0,272.647,460.4Z" fill="#fff"/>
      <path id="Path_766" data-name="Path 766" d="M272.647,470.006a31.293,31.293,0,0,0-31.068,30.223l-.021.771h2.072l.021-.729a29.007,29.007,0,0,1,57.991,0l.02.729h2.073l-.021-.771A31.293,31.293,0,0,0,272.647,470.006Z" fill="#fff"/>
      <path id="Path_767" data-name="Path 767" d="M272.647,479.615a21.416,21.416,0,0,0-21.458,20.6l-.032.781h2.073l.03-.72a19.4,19.4,0,0,1,38.773,0l.029.72h2.074l-.032-.781A21.415,21.415,0,0,0,272.647,479.615Z" fill="#fff"/>
      <path id="Path_768" data-name="Path 768" d="M272.647,489.224a11.915,11.915,0,0,0-11.826,10.969l-.061.807h2.074l.055-.69a9.788,9.788,0,0,1,19.514,0l.056.691h2.074l-.061-.807A11.914,11.914,0,0,0,272.647,489.224Z" fill="#fff"/>
    </g>
    <path id="Path_769" data-name="Path 769" d="M323.165,501.057c-.39-27.979-22.9-50.621-50.518-50.621s-50.129,22.642-50.519,50.621Z" transform="translate(528.029 695.484) rotate(90)" fill="#fff"/>
  </g>
</svg>
