<svg xmlns="http://www.w3.org/2000/svg" width="62" height="62" viewBox="0 0 62 62">
  <g id="promotion_marketing" transform="translate(-1 -1)">
    <g id="Group_36781" data-name="Group 36781">
      <path id="Path_40809" data-name="Path 40809" d="M52.544,17H50V44a2,2,0,0,1-2,2H16a2,2,0,0,1-2-2V17H11a2,2,0,0,0-2,2V49a2,2,0,0,0,2,2H53a2,2,0,0,0,2-2V19a2,2,0,0,0-.333-1.1A18.294,18.294,0,0,0,52.544,17Z" fill="#ded4b7"/>
    </g>
    <g id="Group_36782" data-name="Group 36782">
      <path id="Path_40810" data-name="Path 40810" d="M60,23a3,3,0,0,0,3-3V4a3,3,0,0,0-5.945-.547A17.308,17.308,0,0,1,46.6,7H16a3,3,0,0,0-3,3v3H10a5.006,5.006,0,0,0-5,5V53H4a3,3,0,0,0-3,3,7.008,7.008,0,0,0,7,7H56a7.008,7.008,0,0,0,7-7,3,3,0,0,0-3-3H59V22.816A2.966,2.966,0,0,0,60,23Zm-1-3.961V4a1,1,0,0,1,2,0V20a1,1,0,0,1-2,0ZM47,8.983a19.338,19.338,0,0,0,10-3.05V18.068a19.319,19.319,0,0,0-10-3.05ZM46,17h.6a17.055,17.055,0,0,1,2.4.184V24H46.8l-1.556-7ZM44,9h1v6H44a3,3,0,0,1,0-6ZM15,10a1,1,0,0,1,1-1H40.026a4.9,4.9,0,0,0,0,6H15Zm0,7H43.2l2,9H49V44a1,1,0,0,1-1,1H16a1,1,0,0,1-1-1ZM7,18a3,3,0,0,1,3-3h3V44a3,3,0,0,0,3,3H48a3,3,0,0,0,3-3V17.578a17.31,17.31,0,0,1,6,2.928V53H7ZM39,55v1a1,1,0,0,1-1,1H26a1,1,0,0,1-1-1V55Zm21,0a1,1,0,0,1,1,1,5.006,5.006,0,0,1-5,5H8a5.006,5.006,0,0,1-5-5,1,1,0,0,1,1-1H23v1a3,3,0,0,0,3,3H38a3,3,0,0,0,3-3V55Z"/>
      <circle id="Ellipse_247" data-name="Ellipse 247" cx="1" cy="1" r="1" transform="translate(55 57)"/>
      <circle id="Ellipse_248" data-name="Ellipse 248" cx="1" cy="1" r="1" transform="translate(51 57)"/>
      <circle id="Ellipse_249" data-name="Ellipse 249" cx="1" cy="1" r="1" transform="translate(47 57)"/>
      <path id="Path_40811" data-name="Path 40811" d="M21,11h2v2H21Z"/>
      <path id="Path_40812" data-name="Path 40812" d="M25,11h2v2H25Z"/>
      <path id="Path_40813" data-name="Path 40813" d="M17,11h2v2H17Z"/>
      <path id="Path_40814" data-name="Path 40814" d="M23,31h4v2h2V27a4,4,0,0,0-8,0v6h2Zm0-4a2,2,0,0,1,4,0v2H23Z"/>
      <path id="Path_40815" data-name="Path 40815" d="M39,28a5.006,5.006,0,0,0-5-5H31V33h3A5.006,5.006,0,0,0,39,28Zm-6-3h1a3,3,0,0,1,0,6H33Z"/>
      <path id="Path_40816" data-name="Path 40816" d="M20,37h4v1.465a2.535,2.535,0,0,0,3.941,2.109L33.3,37H40a3,3,0,0,0,3-3V22a3,3,0,0,0-3-3H20a3,3,0,0,0-3,3V34A3,3,0,0,0,20,37ZM19,22a1,1,0,0,1,1-1H40a1,1,0,0,1,1,1V34a1,1,0,0,1-1,1H32.7l-5.865,3.91A.553.553,0,0,1,26,38.465V35H20a1,1,0,0,1-1-1Z"/>
    </g>
  </g>
</svg>
