<svg xmlns="http://www.w3.org/2000/svg" width="79.967" height="62" viewBox="0 0 79.967 62">
  <g id="shipping_taxes" transform="translate(0 -0.5)">
    <path id="Path_50215" data-name="Path 50215" d="M118.571,26.914,80,36.955v9.089l14.143,3.9V41.8L134,31.069Zm0,0" transform="translate(-67.016 -22.127)" fill="#ded4b7"/>
    <path id="Path_50216" data-name="Path 50216" d="M80,272.781v9.089l14.282,3.9v-9.089Zm0,0" transform="translate(-67.121 -228.504)" fill="#ded4b7"/>
    <path id="Path_50217" data-name="Path 50217" d="M39.983.5,0,11.163V51.839L39.651,62.411l.333.089L79.967,51.838V11.163ZM73.672,12.153,39.983,21.137,6.3,12.153,39.983,3.17ZM2.58,13.832l36.114,9.631V59.487L2.58,49.855ZM41.273,59.486V23.462l36.114-9.631V49.855Zm0,0"/>
    <path id="Path_50218" data-name="Path 50218" d="M448,280.781h2.6v2.6H448Zm0,0" transform="translate(-375.823 -235.106)"/>
    <path id="Path_50219" data-name="Path 50219" d="M416,288.781h2.6v2.6H416Zm0,0" transform="translate(-349.017 -241.817)"/>
    <path id="Path_50220" data-name="Path 50220" d="M384,296.781h2.6v2.6H384Zm0,0" transform="translate(-322.104 -248.527)"/>
  </g>
</svg>
