<svg xmlns="http://www.w3.org/2000/svg" width="58.872" height="57.93" viewBox="0 0 58.872 57.93">
  <g id="we_re_hiring" transform="translate(0 -4.096)">
    <g id="Group_36736" data-name="Group 36736" transform="translate(3.107 4.548)">
      <path id="Path_40517" data-name="Path 40517" d="M27.907,32.768a.888.888,0,0,1-.607-1.536L51.854,8.264a.888.888,0,0,1,1.213,1.3L28.513,32.529A.885.885,0,0,1,27.907,32.768Z" transform="translate(-27.019 -8.024)" fill="#eceaec"/>
    </g>
    <g id="Group_36737" data-name="Group 36737" transform="translate(29.513 4.593)">
      <path id="Path_40518" data-name="Path 40518" d="M282.117,33.16a.885.885,0,0,1-.606-.239L256.957,9.952a.888.888,0,1,1,1.213-1.3l24.554,22.969a.888.888,0,0,1-.607,1.536Z" transform="translate(-256.676 -8.416)" fill="#eceaec"/>
    </g>
    <path id="Path_40519" data-name="Path 40519" d="M55.636,245.461,3.2,245.411A3.206,3.206,0,0,1,0,242.2l.027-27.635a3.206,3.206,0,0,1,3.209-3.2l52.433.051a3.206,3.206,0,0,1,3.2,3.209l-.027,27.635A3.206,3.206,0,0,1,55.636,245.461Z" transform="translate(0 -183.436)" fill="#ded4b7"/>
    <path id="Path_40520" data-name="Path 40520" d="M148.617,211.593l-17.394-.027a3.371,3.371,0,0,1,3.352,3.25,30.84,30.84,0,0,1-29.55,30.782l43.56.042a3.206,3.206,0,0,0,3.209-3.2l.027-27.635A3.206,3.206,0,0,0,148.617,211.593Z" transform="translate(-92.948 -183.614)" fill="#d1c6a6"/>
    <circle id="Ellipse_226" data-name="Ellipse 226" cx="2.001" cy="2.001" r="2.001" transform="translate(27.435 4.096)" fill="#938c78"/>
    <g id="Group_36749" data-name="Group 36749" transform="translate(5.156 33.536)">
      <g id="Group_36738" data-name="Group 36738" transform="translate(6.821 1.623)">
        <path id="Path_40521" data-name="Path 40521" d="M114.376,274.343a.9.9,0,0,0-1.15.6l-1.4,4-1.349-3.956a.983.983,0,0,0-.642-.707.906.906,0,0,0-1.1.612l-1.454,4.08c-.169-.492-1.38-4.072-1.472-4.231a.9.9,0,0,0-1.486-.071c-.332.46-.06.982.1,1.448.243.706,1.842,5.366,1.995,5.8a.9.9,0,0,0,1.042.6.962.962,0,0,0,.685-.687l1.429-4.01c.29.851,1.414,4.164,1.472,4.267a.9.9,0,0,0,1.135.374,1.2,1.2,0,0,0,.587-.834l2.055-5.862a1.153,1.153,0,0,0,.031-1.043A.893.893,0,0,0,114.376,274.343Z" transform="translate(-104.16 -274.245)" fill="#27292c"/>
        <path id="Path_40522" data-name="Path 40522" d="M213.992,281.266h-1.8v-1.413h1.6a.888.888,0,0,0,0-1.775h-1.6v-1.413h1.8a.888.888,0,0,0,0-1.775H211.3a.888.888,0,0,0-.888.888v6.377a.888.888,0,0,0,.888.888h2.687a.888.888,0,0,0,0-1.776Z" transform="translate(-198.199 -274.815)" fill="#27292c"/>
        <path id="Path_40523" data-name="Path 40523" d="M361.814,281.266h-1.8v-1.413h1.6a.888.888,0,0,0,0-1.775h-1.6v-1.413h1.8a.888.888,0,0,0,0-1.775h-2.687a.888.888,0,0,0-.888.888v6.377a.888.888,0,0,0,.888.888h2.687a.888.888,0,0,0,0-1.776Z" transform="translate(-329.025 -274.815)" fill="#27292c"/>
        <path id="Path_40524" data-name="Path 40524" d="M302.422,279.608a2.572,2.572,0,0,0,1.772-2.414,2.612,2.612,0,0,0-2.655-2.56h-1.712a.888.888,0,0,0-.888.888v6.436a.888.888,0,0,0,1.775,0v-1.6l1.925,2.188a.888.888,0,1,0,1.333-1.173Zm-.883-3.2a.79.79,0,1,1,0,1.57l-.816,0c0-.3,0-.6,0-.787,0-.158,0-.472,0-.785Z" transform="translate(-276.543 -274.588)" fill="#27292c"/>
      </g>
      <path id="Path_40525" data-name="Path 40525" d="M177.554,375.312a3.107,3.107,0,0,0-.641-6.17h-2.281a.888.888,0,0,0-.888.888V378.6a.888.888,0,0,0,1.775,0v-2.914l3.081,3.5a.888.888,0,0,0,1.333-1.173Zm-.641-4.394a1.346,1.346,0,1,1,0,2.68c-.319,0-.89,0-1.379,0,0-.48-.007-2.183-.008-2.685h1.388Z" transform="translate(-158.923 -356.607)" fill="#27292c"/>
      <g id="Group_36740" data-name="Group 36740" transform="translate(10.377 12.535)">
        <g id="Group_36739" data-name="Group 36739">
          <path id="Path_40526" data-name="Path 40526" d="M135.974,379.489a.888.888,0,0,1-.888-.888v-8.572a.888.888,0,0,1,1.776,0V378.6A.888.888,0,0,1,135.974,379.489Z" transform="translate(-135.086 -369.141)" fill="#27292c"/>
        </g>
      </g>
      <g id="Group_36742" data-name="Group 36742" transform="translate(23.902 12.535)">
        <g id="Group_36741" data-name="Group 36741">
          <path id="Path_40527" data-name="Path 40527" d="M253.6,379.489a.888.888,0,0,1-.888-.888v-8.572a.888.888,0,1,1,1.776,0V378.6A.888.888,0,0,1,253.6,379.489Z" transform="translate(-252.709 -369.141)" fill="#27292c"/>
        </g>
      </g>
      <path id="Path_40528" data-name="Path 40528" d="M51.659,369.141a.888.888,0,0,0-.888.888v3.251H46.614v-3.251a.888.888,0,0,0-1.775,0V378.6a.888.888,0,0,0,1.775,0v-3.545h4.157V378.6a.888.888,0,0,0,1.775,0v-8.572A.888.888,0,0,0,51.659,369.141Z" transform="translate(-44.839 -356.606)" fill="#27292c"/>
      <g id="Group_36744" data-name="Group 36744" transform="translate(28.347 12.535)">
        <g id="Group_36743" data-name="Group 36743">
          <path id="Path_40529" data-name="Path 40529" d="M292.255,379.488a.888.888,0,0,1-.888-.888v-8.556a.888.888,0,0,1,1.618-.5l4.365,6.321-.056-5.824a.888.888,0,1,1,1.775-.017l.08,8.283a1.047,1.047,0,0,1-.707,1.045,1,1,0,0,1-1.132-.422l-4.167-6.035V378.6A.888.888,0,0,1,292.255,379.488Z" transform="translate(-291.367 -369.141)" fill="#27292c"/>
        </g>
      </g>
      <g id="Group_36746" data-name="Group 36746" transform="translate(38.799 12.535)">
        <g id="Group_36745" data-name="Group 36745">
          <path id="Path_40530" data-name="Path 40530" d="M387.44,379.489a5.174,5.174,0,1,1,2.893-9.464.888.888,0,0,1-.994,1.471,3.4,3.4,0,1,0-1.9,6.217,2.73,2.73,0,0,0,2.732-2.511h-1.6a.888.888,0,1,1,0-1.775h2.564a.888.888,0,0,1,.888.888C392.028,377.361,390.141,379.489,387.44,379.489Z" transform="translate(-382.266 -369.141)" fill="#27292c"/>
        </g>
      </g>
      <g id="Group_36748" data-name="Group 36748" transform="translate(24.615)">
        <g id="Group_36747" data-name="Group 36747">
          <path id="Path_40531" data-name="Path 40531" d="M259.8,265.15a.888.888,0,0,1-.807-1.257l1.483-3.244a.888.888,0,1,1,1.615.738l-1.483,3.244A.888.888,0,0,1,259.8,265.15Z" transform="translate(-258.913 -260.13)" fill="#27292c"/>
        </g>
      </g>
    </g>
  </g>
</svg>
