<svg xmlns="http://www.w3.org/2000/svg" width="80" height="80" viewBox="0 0 80 80">
  <g id="authenticity" transform="translate(-4 -4)">
    <g id="Group_61173" data-name="Group 61173" transform="translate(4 4)">
      <g id="Group_61146" data-name="Group 61146" transform="translate(11.429 5.714)">
        <path id="Path_52734" data-name="Path 52734" d="M57.714,8H25.084A14.269,14.269,0,0,1,12,28V82.286H61.366a5.655,5.655,0,0,1-.794-2.857V72.734a17.125,17.125,0,0,1,8.571-33.047V19.429Z" transform="translate(-12 -8)" fill="#f0f0f0"/>
      </g>
      <g id="Group_61147" data-name="Group 61147" transform="translate(62.857 65.714)">
        <path id="Path_52735" data-name="Path 52735" d="M50.857,64.286a2.856,2.856,0,0,0,2.857-2.857V50H48V61.429A2.856,2.856,0,0,0,50.857,64.286Z" transform="translate(-48 -50)" fill="#505050"/>
      </g>
      <g id="Group_61148" data-name="Group 61148" transform="translate(62.857 65.714)">
        <path id="Path_52736" data-name="Path 52736" d="M50.857,61.429V50H48V61.429a2.84,2.84,0,0,0,4.286,2.461A2.848,2.848,0,0,1,50.857,61.429Z" transform="translate(-48 -50)" fill="#3c3c3c"/>
      </g>
      <g id="Group_61149" data-name="Group 61149" transform="translate(62.857 71.429)">
        <path id="Path_52737" data-name="Path 52737" d="M48,54h5.714v2.857H48Z" transform="translate(-48 -54)" fill="#fab400"/>
      </g>
      <g id="Group_61150" data-name="Group 61150" transform="translate(62.857 71.429)">
        <path id="Path_52738" data-name="Path 52738" d="M48,54h2.857v2.857H48Z" transform="translate(-48 -54)" fill="#dc9600"/>
      </g>
      <g id="Group_61151" data-name="Group 61151" transform="translate(51.429 40)">
        <path id="Path_52739" data-name="Path 52739" d="M54.286,60.571A14.286,14.286,0,1,1,68.571,46.286,14.3,14.3,0,0,1,54.286,60.571Z" transform="translate(-40 -32)" fill="#505050"/>
      </g>
      <g id="Group_61152" data-name="Group 61152" transform="translate(51.429 40)">
        <path id="Path_52740" data-name="Path 52740" d="M42.857,46.286A14.3,14.3,0,0,1,55.714,32.073a14.286,14.286,0,1,0,0,28.426A14.3,14.3,0,0,1,42.857,46.286Z" transform="translate(-40 -32)" fill="#3c3c3c"/>
      </g>
      <g id="Group_61153" data-name="Group 61153" transform="translate(54.286 42.857)">
        <circle id="Ellipse_667" data-name="Ellipse 667" cx="11.429" cy="11.429" r="11.429" fill="#fab400"/>
      </g>
      <g id="Group_61154" data-name="Group 61154" transform="translate(22.857 20)">
        <path id="Path_52741" data-name="Path 52741" d="M20,18H54.286v5.714H20Z" transform="translate(-20 -18)" fill="#fa6450"/>
      </g>
      <g id="Group_61155" data-name="Group 61155" transform="translate(45.714 28.571)">
        <path id="Path_52742" data-name="Path 52742" d="M36,24H47.429v2.857H36Z" transform="translate(-36 -24)" fill="#d2d2d2"/>
      </g>
      <g id="Group_61156" data-name="Group 61156" transform="translate(45.714 34.286)">
        <path id="Path_52743" data-name="Path 52743" d="M36,28H47.429v2.857H36Z" transform="translate(-36 -28)" fill="#d2d2d2"/>
      </g>
      <g id="Group_61157" data-name="Group 61157" transform="translate(45.714 40)">
        <path id="Path_52744" data-name="Path 52744" d="M36,34.857h7.259A17.226,17.226,0,0,1,46.544,32H36Z" transform="translate(-36 -32)" fill="#d2d2d2"/>
      </g>
      <g id="Group_61158" data-name="Group 61158" transform="translate(45.714 45.714)">
        <path id="Path_52745" data-name="Path 52745" d="M36,38.857h3.857A17.061,17.061,0,0,1,41.176,36H36Z" transform="translate(-36 -36)" fill="#d2d2d2"/>
      </g>
      <g id="Group_61159" data-name="Group 61159" transform="translate(22.857 51.429)">
        <path id="Path_52746" data-name="Path 52746" d="M20,42.857H45.714A17.122,17.122,0,0,1,45.973,40H20Z" transform="translate(-20 -40)" fill="#d2d2d2"/>
      </g>
      <g id="Group_61160" data-name="Group 61160" transform="translate(22.857 57.143)">
        <path id="Path_52747" data-name="Path 52747" d="M20,46.857H46.714A17.047,17.047,0,0,1,45.961,44H20Z" transform="translate(-20 -44)" fill="#d2d2d2"/>
      </g>
      <g id="Group_61161" data-name="Group 61161" transform="translate(22.857 62.857)">
        <path id="Path_52748" data-name="Path 52748" d="M20,50.857H50.116A17.332,17.332,0,0,1,48.036,48H20Z" transform="translate(-20 -48)" fill="#d2d2d2"/>
      </g>
      <g id="Group_61162" data-name="Group 61162" transform="translate(57.143 5.714)">
        <path id="Path_52749" data-name="Path 52749" d="M44,8V19.429H55.429Z" transform="translate(-44 -8)" fill="#d2d2d2"/>
      </g>
      <g id="Group_61163" data-name="Group 61163" transform="translate(64.286 45.714)">
        <path id="Path_52750" data-name="Path 52750" d="M49,36h2.857v2.857H49Z" transform="translate(-49 -36)" fill="#f0f0f0"/>
      </g>
      <g id="Group_61164" data-name="Group 61164" transform="translate(62.857 51.429)">
        <path id="Path_52751" data-name="Path 52751" d="M53.714,42.857V40H48v2.857h1.429v5.714H48v2.857h5.714V48.571H52.286V42.857Z" transform="translate(-48 -40)" fill="#f0f0f0"/>
      </g>
      <g id="Group_61165" data-name="Group 61165" transform="translate(11.429 24.513)">
        <path id="Path_52752" data-name="Path 52752" d="M12,22.36V76.646h5.714V21.159A14.185,14.185,0,0,1,12,22.36Z" transform="translate(-12 -21.159)" fill="#d2d2d2"/>
      </g>
      <g id="Group_61166" data-name="Group 61166" transform="translate(0 0)">
        <circle id="Ellipse_668" data-name="Ellipse 668" cx="11.429" cy="11.429" r="11.429" fill="#3cc8b4"/>
      </g>
      <g id="Group_61167" data-name="Group 61167">
        <path id="Path_52753" data-name="Path 52753" d="M6.857,15.429a11.424,11.424,0,0,1,10-11.33,11.429,11.429,0,1,0,0,22.66A11.424,11.424,0,0,1,6.857,15.429Z" transform="translate(-4 -4)" fill="#1eaa96"/>
      </g>
      <g id="Group_61168" data-name="Group 61168" transform="translate(4.286 5.714)">
        <path id="Path_52754" data-name="Path 52754" d="M21.286,10.857l-8.571,8.571L7,13.714l2.857-2.857,2.857,2.857L18.429,8Z" transform="translate(-7 -8)" fill="#f0f0f0"/>
      </g>
      <g id="Group_61169" data-name="Group 61169" transform="translate(22.857 28.571)">
        <path id="Path_52755" data-name="Path 52755" d="M20,24H40V44H20Z" transform="translate(-20 -24)" fill="#008c78"/>
      </g>
      <g id="Group_61170" data-name="Group 61170" transform="translate(22.857 37.143)">
        <path id="Path_52756" data-name="Path 52756" d="M20,35.714v5.714H37.143L25.714,30Z" transform="translate(-20 -30)" fill="#1eaa96"/>
      </g>
      <g id="Group_61171" data-name="Group 61171" transform="translate(25.714 37.143)">
        <path id="Path_52757" data-name="Path 52757" d="M33.429,30,22,41.429H39.143V35.714Z" transform="translate(-22 -30)" fill="#3cc8b4"/>
      </g>
      <g id="Group_61172" data-name="Group 61172" transform="translate(30 31.429)">
        <path id="Path_52758" data-name="Path 52758" d="M27.857,31.714a2.857,2.857,0,1,1,2.857-2.857A2.856,2.856,0,0,1,27.857,31.714Z" transform="translate(-25 -26)" fill="#fab400"/>
      </g>
    </g>
  </g>
</svg>
