<svg xmlns="http://www.w3.org/2000/svg" width="58.55" height="80" viewBox="0 0 58.55 80">
  <g id="automated" transform="translate(-68.641)">
    <g id="Group_61185" data-name="Group 61185" transform="translate(91.103 8.453)">
      <path id="Path_52814" data-name="Path 52814" d="M214.967,54.9a4.52,4.52,0,0,1-2.57-.8v4.572h5.14V54.1A4.52,4.52,0,0,1,214.967,54.9Z" transform="translate(-212.397 -54.099)" fill="#d7aa02"/>
    </g>
    <path id="Path_52815" data-name="Path 52815" d="M117.122,134.421a.639.639,0,0,0-.785,0l-3.854,3a.322.322,0,0,1-.2.07.329.329,0,0,1-.329-.327V123.7l-.083-.044a10.3,10.3,0,0,1,6.832-19.2V95.306a.8.8,0,0,0-.8-.8H106.139v5.89a.649.649,0,0,1-.649.649H81.856a.649.649,0,0,1-.649-.649V94.5H69.446a.8.8,0,0,0-.8.8V158.93a.8.8,0,0,0,.8.8H117.9a.8.8,0,0,0,.8-.8V135.654Z" transform="translate(0 -79.735)" fill="#f6a96c"/>
    <path id="Path_52816" data-name="Path 52816" d="M75.539,158.93v-3.375H73.3a.483.483,0,0,1-.483-.483V99.164a.483.483,0,0,1,.483-.483h2.235V95.306a.8.8,0,0,1,.8-.8h-6.9a.8.8,0,0,0-.8.8V158.93a.8.8,0,0,0,.8.8h6.9A.8.8,0,0,1,75.539,158.93Z" transform="translate(0 -79.735)" fill="#ea9b58"/>
    <path id="Path_52817" data-name="Path 52817" d="M135.054,160a.322.322,0,0,1-.2.07.329.329,0,0,1-.329-.327V146.271l-.083-.044a10.3,10.3,0,0,1,2.652-19.155v-5.336a.483.483,0,0,0-.483-.483h-7.9v1.71a.649.649,0,0,1-.649.649H104.427a.649.649,0,0,1-.649-.649v-1.71h-7.9a.483.483,0,0,0-.483.483v55.908a.483.483,0,0,0,.483.483h40.737a.483.483,0,0,0,.483-.483V158.4Z" transform="translate(-22.572 -102.307)" fill="#dff6fd"/>
    <g id="Group_61186" data-name="Group 61186" transform="translate(72.821 18.946)">
      <path id="Path_52818" data-name="Path 52818" d="M100.222,177.645V121.737a.483.483,0,0,1,.483-.483H95.876a.483.483,0,0,0-.483.483v55.908a.483.483,0,0,0,.483.483H100.7A.483.483,0,0,1,100.222,177.645Z" transform="translate(-95.393 -121.254)" fill="#c8effe"/>
    </g>
    <g id="Group_61187" data-name="Group 61187" transform="translate(81.051 12.864)">
      <path id="Path_52819" data-name="Path 52819" d="M172.5,90.927H148.868a.8.8,0,0,1-.8-.8V83.135a.8.8,0,0,1,.8-.8H172.5a.8.8,0,0,1,.8.8v6.987A.8.8,0,0,1,172.5,90.927Z" transform="translate(-148.063 -82.33)" fill="#fac600"/>
    </g>
    <g id="Group_61188" data-name="Group 61188" transform="translate(81.051 12.864)">
      <path id="Path_52820" data-name="Path 52820" d="M152.212,90.122V83.135a.8.8,0,0,1,.8-.8h-4.149a.8.8,0,0,0-.8.8v6.987a.8.8,0,0,0,.8.8h4.149A.8.8,0,0,1,152.212,90.122Z" transform="translate(-148.063 -82.33)" fill="#e8b800"/>
    </g>
    <g id="Group_61191" data-name="Group 61191" transform="translate(78.541 28.432)">
      <g id="Group_61189" data-name="Group 61189" transform="translate(0 0.2)">
        <path id="Path_52821" data-name="Path 52821" d="M135.49,189.177a1.171,1.171,0,0,1-.829-.343l-2.316-2.316A1.172,1.172,0,1,1,134,184.861l1.487,1.487,2.761-2.761a1.172,1.172,0,0,1,1.657,1.657l-3.59,3.59a1.171,1.171,0,0,1-.828.343Z" transform="translate(-132.002 -183.244)" fill="#47a920"/>
      </g>
      <g id="Group_61190" data-name="Group 61190" transform="translate(10.633)">
        <path id="Path_52822" data-name="Path 52822" d="M219.3,182.272a1.167,1.167,0,0,0-.79-.308H201.226a1.172,1.172,0,0,0,0,2.344h16.91A10.3,10.3,0,0,1,219.3,182.272Z" transform="translate(-200.054 -181.964)" fill="#01d0fb"/>
        <path id="Path_52823" data-name="Path 52823" d="M217.591,207.495H201.226a1.172,1.172,0,0,0,0,2.344h16.08A10.283,10.283,0,0,1,217.591,207.495Z" transform="translate(-200.054 -203.506)" fill="#01d0fb"/>
      </g>
    </g>
    <g id="Group_61195" data-name="Group 61195" transform="translate(78.541 39.61)">
      <g id="Group_61192" data-name="Group 61192" transform="translate(0 0.2)">
        <path id="Path_52824" data-name="Path 52824" d="M135.49,260.716a1.168,1.168,0,0,1-.829-.343l-2.316-2.316A1.172,1.172,0,1,1,134,256.4l1.487,1.487,2.761-2.761a1.172,1.172,0,0,1,1.657,1.657l-3.59,3.589a1.168,1.168,0,0,1-.828.343Z" transform="translate(-132.002 -254.783)" fill="#47a920"/>
      </g>
      <g id="Group_61194" data-name="Group 61194" transform="translate(10.633)">
        <path id="Path_52825" data-name="Path 52825" d="M218.479,253.5H201.226a1.172,1.172,0,0,0,0,2.344h17.286a1.171,1.171,0,0,0,1.059-.673A10.274,10.274,0,0,1,218.479,253.5Z" transform="translate(-200.054 -253.503)" fill="#01d0fb"/>
        <g id="Group_61193" data-name="Group 61193" transform="translate(0 3.989)">
          <path id="Path_52826" data-name="Path 52826" d="M218.512,281.378H201.226a1.172,1.172,0,0,1,0-2.344h17.286a1.172,1.172,0,0,1,0,2.344Z" transform="translate(-200.054 -279.034)" fill="#01d0fb"/>
        </g>
      </g>
    </g>
    <g id="Group_61200" data-name="Group 61200" transform="translate(78.541 50.788)">
      <g id="Group_61196" data-name="Group 61196" transform="translate(0 0.2)">
        <path id="Path_52827" data-name="Path 52827" d="M135.49,332.255a1.168,1.168,0,0,1-.829-.343l-2.316-2.316A1.172,1.172,0,0,1,134,327.939l1.487,1.487,2.761-2.761a1.172,1.172,0,1,1,1.657,1.657l-3.59,3.59a1.168,1.168,0,0,1-.828.343Z" transform="translate(-132.002 -326.322)" fill="#47a920"/>
      </g>
      <g id="Group_61199" data-name="Group 61199" transform="translate(10.633)">
        <g id="Group_61197" data-name="Group 61197">
          <path id="Path_52828" data-name="Path 52828" d="M218.512,327.386H201.226a1.172,1.172,0,0,1,0-2.344h17.286a1.172,1.172,0,0,1,0,2.344Z" transform="translate(-200.054 -325.042)" fill="#01d0fb"/>
        </g>
        <g id="Group_61198" data-name="Group 61198" transform="translate(0 3.989)">
          <path id="Path_52829" data-name="Path 52829" d="M218.512,352.917H201.226a1.172,1.172,0,0,1,0-2.344h17.286a1.172,1.172,0,0,1,0,2.344Z" transform="translate(-200.054 -350.573)" fill="#01d0fb"/>
        </g>
      </g>
    </g>
    <g id="Group_61205" data-name="Group 61205" transform="translate(78.541 61.966)">
      <g id="Group_61201" data-name="Group 61201" transform="translate(0 0.2)">
        <path id="Path_52830" data-name="Path 52830" d="M135.49,403.794a1.171,1.171,0,0,1-.829-.343l-2.316-2.316A1.172,1.172,0,0,1,134,399.478l1.487,1.487,2.761-2.761a1.172,1.172,0,0,1,1.657,1.657l-3.59,3.59a1.171,1.171,0,0,1-.828.343Z" transform="translate(-132.002 -397.861)" fill="#47a920"/>
      </g>
      <g id="Group_61204" data-name="Group 61204" transform="translate(10.633)">
        <g id="Group_61202" data-name="Group 61202">
          <path id="Path_52831" data-name="Path 52831" d="M218.512,398.926H201.226a1.172,1.172,0,0,1,0-2.344h17.286a1.172,1.172,0,0,1,0,2.344Z" transform="translate(-200.054 -396.582)" fill="#01d0fb"/>
        </g>
        <g id="Group_61203" data-name="Group 61203" transform="translate(0 3.989)">
          <path id="Path_52832" data-name="Path 52832" d="M218.512,424.456H201.226a1.172,1.172,0,1,1,0-2.344h17.286a1.172,1.172,0,0,1,0,2.344Z" transform="translate(-200.054 -422.112)" fill="#01d0fb"/>
        </g>
      </g>
    </g>
    <path id="Path_52833" data-name="Path 52833" d="M349.781,282.069a10.241,10.241,0,0,1-4.93-1.258v13.553a.483.483,0,0,0,.78.381l3.854-3a.483.483,0,0,1,.593,0l3.854,3a.483.483,0,0,0,.78-.381V280.811A10.242,10.242,0,0,1,349.781,282.069Z" transform="translate(-233.052 -236.934)" fill="#fb2b3a"/>
    <path id="Path_52834" data-name="Path 52834" d="M344.851,280.81v13.553a.483.483,0,0,0,.78.381l3.324-2.588V282.032A10.223,10.223,0,0,1,344.851,280.81Z" transform="translate(-233.052 -236.933)" fill="#e41f2d"/>
    <g id="Group_61209" data-name="Group 61209" transform="translate(106.268 24.368)">
      <g id="Group_61206" data-name="Group 61206">
        <circle id="Ellipse_671" data-name="Ellipse 671" cx="10.462" cy="10.462" r="10.462" fill="#4fc123"/>
      </g>
      <g id="Group_61207" data-name="Group 61207" transform="translate(0 0)">
        <path id="Path_52835" data-name="Path 52835" d="M314.785,166.419a10.465,10.465,0,0,1,7.8-10.117,10.462,10.462,0,1,0,0,20.235,10.465,10.465,0,0,1-7.8-10.118Z" transform="translate(-309.452 -155.958)" fill="#47a920"/>
      </g>
      <g id="Group_61208" data-name="Group 61208" transform="translate(5.309 6.962)">
        <path id="Path_52836" data-name="Path 52836" d="M348.043,208.186a1.168,1.168,0,0,1-.829-.343l-3.439-3.439a1.172,1.172,0,0,1,1.657-1.657l2.611,2.611,4.5-4.5a1.172,1.172,0,1,1,1.657,1.657l-5.331,5.331a1.167,1.167,0,0,1-.828.343Z" transform="translate(-343.432 -200.511)" fill="#fff"/>
      </g>
    </g>
    <g id="Group_61210" data-name="Group 61210" transform="translate(88.966 0)">
      <circle id="Ellipse_672" data-name="Ellipse 672" cx="4.706" cy="4.706" r="4.706" fill="#fac600"/>
    </g>
    <g id="Group_61211" data-name="Group 61211" transform="translate(88.966 0)">
      <path id="Path_52837" data-name="Path 52837" d="M202.767,4.706A4.706,4.706,0,0,1,205.451.456a4.706,4.706,0,1,0,0,8.5A4.706,4.706,0,0,1,202.767,4.706Z" transform="translate(-198.723 0)" fill="#e8b800"/>
    </g>
    <g id="Group_61212" data-name="Group 61212" transform="translate(86.749 15.99)">
      <path id="Path_52838" data-name="Path 52838" d="M197.206,104.683H185.7a1.172,1.172,0,0,1,0-2.344h11.5a1.172,1.172,0,0,1,0,2.344Z" transform="translate(-184.53 -102.339)" fill="#e8b800"/>
    </g>
  </g>
</svg>
