<svg xmlns="http://www.w3.org/2000/svg" width="85.517" height="80" viewBox="0 0 85.517 80">
  <g id="create_economic" transform="translate(-1 -3)">
    <circle id="Ellipse_658" data-name="Ellipse 658" cx="15.172" cy="15.172" r="15.172" transform="translate(56.172 3)" fill="#ffbe1d"/>
    <path id="Path_52692" data-name="Path 52692" d="M13.655,35.93v26.3H4V44.3Z" transform="translate(1.138 12.491)" fill="#44b260"/>
    <path id="Path_52693" data-name="Path 52693" d="M20.655,29.87V64.532H11v-26.3Z" transform="translate(3.793 10.192)" fill="#8dc691"/>
    <path id="Path_52694" data-name="Path 52694" d="M27.655,34.793V64.862H18V30.2L19.379,29Z" transform="translate(6.448 9.862)" fill="#44b260"/>
    <path id="Path_52695" data-name="Path 52695" d="M34.655,33.19V63.273H25V33.2l5.517,3.862Z" transform="translate(9.103 11.451)" fill="#8dc691"/>
    <path id="Path_52696" data-name="Path 52696" d="M48.655,23.778V67.612H39V28.481l7.172-6.731A14.107,14.107,0,0,0,48.655,23.778Z" transform="translate(14.414 7.112)" fill="#8dc691"/>
    <path id="Path_52697" data-name="Path 52697" d="M55.655,25.606V67.054H46V23.22a15.006,15.006,0,0,0,8.276,2.455C54.745,25.675,55.2,25.648,55.655,25.606Z" transform="translate(17.069 7.67)" fill="#44b260"/>
    <path id="Path_52698" data-name="Path 52698" d="M4,44.3v6.39l9.655-8.372V35.93Z" transform="translate(1.138 12.491)" fill="#379b4a"/>
    <path id="Path_52699" data-name="Path 52699" d="M11,38.229v6.39l3.16-2.741,6.5-5.622V29.87Z" transform="translate(3.793 10.192)" fill="#79a879"/>
    <path id="Path_52700" data-name="Path 52700" d="M19.379,29,18,30.2v6.386l1.7-1.47,7.957,5.57V34.793Z" transform="translate(6.448 9.862)" fill="#379b4a"/>
    <path id="Path_52701" data-name="Path 52701" d="M46.172,21.75,39,28.481v6.611l6.17-5.782a2.386,2.386,0,0,1,2.7-.408c.254.13.523.223.781.341V23.778a14.107,14.107,0,0,1-2.483-2.028Z" transform="translate(14.414 7.112)" fill="#79a879"/>
    <path id="Path_52702" data-name="Path 52702" d="M30.517,37.066,25,33.2V39.1l3.937,2.756a3.041,3.041,0,0,0,3.822-.272l1.9-1.778V33.19Z" transform="translate(9.103 11.451)" fill="#79a879"/>
    <path id="Path_52703" data-name="Path 52703" d="M54.276,25.675A15.006,15.006,0,0,1,46,23.22v5.466A19.9,19.9,0,0,0,54.276,30.5c.466,0,.921-.04,1.379-.072V25.606c-.455.041-.91.069-1.379.069Z" transform="translate(17.069 7.67)" fill="#379b4a"/>
    <path id="Path_52704" data-name="Path 52704" d="M32,35.678v6.612l9.655-9.05V26.63Z" transform="translate(11.759 8.963)" fill="#379b4a"/>
    <circle id="Ellipse_659" data-name="Ellipse 659" cx="9.655" cy="9.655" r="9.655" transform="translate(61.69 8.517)" fill="#f4971e"/>
    <path id="Path_52705" data-name="Path 52705" d="M1,55H76.862v8.276H1Z" transform="translate(0 19.724)" fill="#7f99a5"/>
    <path id="Path_52706" data-name="Path 52706" d="M1,55H76.862v4.138H1Z" transform="translate(0 19.724)" fill="#aec4cc"/>
    <path id="Path_52707" data-name="Path 52707" d="M53.414,31.041,43.759,40.09l-4.138,3.876L34.1,40.1,25.828,34.31l-1.379,1.2-9.655,8.359L5.138,52.241,1,45.345l24.828-20.69L39.621,34.31l13.214-11.9-8.607-1.738L45.138,15,56.49,16.738a15.006,15.006,0,0,0,4.1,7.572Z" transform="translate(0 4.552)" fill="#0d9b50"/>
    <path id="Path_52708" data-name="Path 52708" d="M41.655,26.63V65.761H32V35.678Z" transform="translate(11.759 8.963)" fill="#44b260"/>
    <path id="Path_52709" data-name="Path 52709" d="M9.38,27.295a1.379,1.379,0,0,1-.9-2.426l12.414-10.64a1.376,1.376,0,0,1,1.759-.029L28.7,19.037l9.657-7.512L33.693,9.66A1.379,1.379,0,0,1,34.717,7.1l6.9,2.759a1.38,1.38,0,0,1,.335,2.37L29.535,21.883a1.382,1.382,0,0,1-1.708-.012l-6.006-4.8-11.546,9.9a1.373,1.373,0,0,1-.9.331Z" transform="translate(2.655 1.517)" fill="#8dc691"/>
    <path id="Path_52710" data-name="Path 52710" d="M4.38,27.517a1.379,1.379,0,0,1-.9-2.426L6.7,22.332a1.379,1.379,0,0,1,1.8,2.094L5.276,27.185a1.367,1.367,0,0,1-.9.332Z" transform="translate(0.758 7.207)" fill="#8dc691"/>
    <path id="Path_52711" data-name="Path 52711" d="M56.655,15.276H51.138a1.379,1.379,0,0,1,0-2.759h6.9a1.379,1.379,0,1,0,0-2.759H55.276V8.379a1.379,1.379,0,0,0-2.759,0V9.759H51.138a4.138,4.138,0,0,0,0,8.276h5.517a1.379,1.379,0,0,1,0,2.759h-6.9a1.379,1.379,0,0,0,0,2.759h2.759v1.379a1.379,1.379,0,0,0,2.759,0V23.552h1.379a4.138,4.138,0,1,0,0-8.276Z" transform="translate(17.448 1.517)" fill="#89512b"/>
  </g>
</svg>
