<svg xmlns="http://www.w3.org/2000/svg" width="79.984" height="80" viewBox="0 0 79.984 80">
  <g id="customized_blockchain" transform="translate(-0.051)">
    <g id="Group_40128" data-name="Group 40128" transform="translate(9.129 9.859)">
      <path id="Path_52530" data-name="Path 52530" d="M313.179,309.311l-15.256-14.562A1.207,1.207,0,0,1,299.59,293l15.256,14.562a1.207,1.207,0,1,1-1.667,1.746Z" transform="translate(-260.153 -256.808)" fill="#dfebfa"/>
      <path id="Path_52531" data-name="Path 52531" d="M122.392,126.364,107.1,111.72a1.207,1.207,0,0,1,1.67-1.743l15.287,14.645a1.207,1.207,0,0,1-1.67,1.743Z" transform="translate(-99.145 -102.372)" fill="#dfebfa"/>
      <path id="Path_52532" data-name="Path 52532" d="M101.775,309.271a1.207,1.207,0,0,1,.04-1.707L117.072,293a1.207,1.207,0,1,1,1.667,1.746l-15.257,14.562A1.207,1.207,0,0,1,101.775,309.271Z" transform="translate(-94.68 -256.808)" fill="#dfebfa"/>
      <path id="Path_52533" data-name="Path 52533" d="M289.528,126.756a1.207,1.207,0,0,1,.037-1.707L305.3,109.975a1.207,1.207,0,1,1,1.67,1.743l-15.735,15.074A1.207,1.207,0,0,1,289.528,126.756Z" transform="translate(-253.102 -102.371)" fill="#dfebfa"/>
      <path id="Path_52534" data-name="Path 52534" d="M157.218,65.527H115.7a1.207,1.207,0,0,1,0-2.414h41.521a1.207,1.207,0,0,1,0,2.414Z" transform="translate(-105.691 -63.113)" fill="#dfebfa"/>
      <path id="Path_52535" data-name="Path 52535" d="M157.218,435.85H115.7a1.207,1.207,0,0,1,0-2.414h41.521a1.207,1.207,0,0,1,0,2.414Z" transform="translate(-105.691 -375.585)" fill="#dfebfa"/>
      <path id="Path_52536" data-name="Path 52536" d="M59.371,170.081a1.207,1.207,0,0,1-1.207-1.207V132.825a1.207,1.207,0,0,1,2.414,0v36.049A1.207,1.207,0,0,1,59.371,170.081Z" transform="translate(-58.164 -120.916)" fill="#dfebfa"/>
      <path id="Path_52537" data-name="Path 52537" d="M439.693,170.081a1.207,1.207,0,0,1-1.207-1.207V132.825a1.207,1.207,0,0,1,2.414,0v36.049A1.207,1.207,0,0,1,439.693,170.081Z" transform="translate(-379.073 -120.916)" fill="#dfebfa"/>
    </g>
    <path id="Path_52538" data-name="Path 52538" d="M21.538,4.835,13.194.15a1.176,1.176,0,0,0-1.151,0L3.7,4.835a2.328,2.328,0,0,0-.944.992l9.863,5.723,9.863-5.723A2.328,2.328,0,0,0,21.538,4.835Z" transform="translate(-2.282 0)" fill="#fee55a"/>
    <path id="Path_52539" data-name="Path 52539" d="M7.7,8.511a2.429,2.429,0,0,1,.985-1.035l8.707-4.889c.025-.014.05-.024.076-.036L13.194.15a1.176,1.176,0,0,0-1.151,0L3.7,4.835a2.328,2.328,0,0,0-.944.992L7.635,8.657c.022-.049.044-.1.068-.146Z" transform="translate(-2.282)" fill="#ffd301"/>
    <path id="Path_52540" data-name="Path 52540" d="M.474,37.3a4.025,4.025,0,0,0-.423,1.8v9.7a1.175,1.175,0,0,0,.624,1.038L8.824,54.16a3.225,3.225,0,0,0,1.513.377l.214-11.9Z" transform="translate(0 -31.471)" fill="#ffc20c"/>
    <path id="Path_52541" data-name="Path 52541" d="M4.98,51.978V41.855a4.2,4.2,0,0,1,.441-1.874c.008-.017.018-.032.027-.049L.474,37.3a4.025,4.025,0,0,0-.422,1.8v9.7a1.175,1.175,0,0,0,.624,1.038L4.99,52.122A1.191,1.191,0,0,1,4.98,51.978Z" transform="translate(-0.001 -31.471)" fill="#ffa90f"/>
    <path id="Path_52542" data-name="Path 52542" d="M75.754,37.3l-9.863,5.24v12A3.223,3.223,0,0,0,67.4,54.16l8.149-4.329a1.175,1.175,0,0,0,.624-1.038v-9.7a4.028,4.028,0,0,0-.423-1.8Z" transform="translate(-55.555 -31.471)" fill="#ffd301"/>
    <path id="Path_52543" data-name="Path 52543" d="M211.7,187.112l-8.344-4.684a1.176,1.176,0,0,0-1.151,0l-8.344,4.684a2.328,2.328,0,0,0-.944.992l9.863,5.723,9.863-5.723A2.328,2.328,0,0,0,211.7,187.112Z" transform="translate(-162.737 -153.802)" fill="#60b8fe"/>
    <path id="Path_52544" data-name="Path 52544" d="M197.864,190.787a2.429,2.429,0,0,1,.985-1.035l8.707-4.889c.025-.014.05-.024.076-.036l-4.276-2.4a1.176,1.176,0,0,0-1.151,0l-8.344,4.684a2.328,2.328,0,0,0-.944.992l4.879,2.831C197.818,190.884,197.84,190.835,197.864,190.787Z" transform="translate(-162.738 -153.801)" fill="#22a7ff"/>
    <path id="Path_52545" data-name="Path 52545" d="M190.635,219.573a4.025,4.025,0,0,0-.423,1.8v9.7a1.175,1.175,0,0,0,.624,1.038l8.149,4.329a3.225,3.225,0,0,0,1.513.377l.214-11.9Z" transform="translate(-160.454 -185.272)" fill="#0094fd"/>
    <path id="Path_52546" data-name="Path 52546" d="M195.14,234.254V224.131a4.2,4.2,0,0,1,.441-1.874c.008-.017.018-.032.027-.049l-4.973-2.635a4.025,4.025,0,0,0-.422,1.8v9.7a1.175,1.175,0,0,0,.624,1.038l4.314,2.292a1.224,1.224,0,0,1-.01-.144Z" transform="translate(-160.454 -185.272)" fill="#0084fd"/>
    <path id="Path_52547" data-name="Path 52547" d="M265.914,219.573l-9.863,5.24v12a3.223,3.223,0,0,0,1.513-.377l8.149-4.329a1.175,1.175,0,0,0,.624-1.038v-9.7A4.025,4.025,0,0,0,265.914,219.573Z" transform="translate(-216.008 -185.272)" fill="#22a7ff"/>
    <path id="Path_52548" data-name="Path 52548" d="M21.538,369.285,13.194,364.6a1.176,1.176,0,0,0-1.151,0L3.7,369.285a2.328,2.328,0,0,0-.944.991L12.619,376l9.863-5.723A2.33,2.33,0,0,0,21.538,369.285Z" transform="translate(-2.282 -307.516)" fill="#fee55a"/>
    <path id="Path_52549" data-name="Path 52549" d="M7.7,372.96a2.429,2.429,0,0,1,.985-1.035l8.707-4.889c.025-.014.05-.024.076-.036L13.2,364.6a1.176,1.176,0,0,0-1.151,0L3.7,369.284a2.328,2.328,0,0,0-.944.992l4.879,2.831c.022-.049.043-.1.067-.146Z" transform="translate(-2.283 -307.515)" fill="#ffd301"/>
    <path id="Path_52550" data-name="Path 52550" d="M.474,401.746a4.025,4.025,0,0,0-.423,1.8v9.7a1.175,1.175,0,0,0,.624,1.038l8.149,4.329a3.225,3.225,0,0,0,1.513.377l.214-11.9Z" transform="translate(0 -338.986)" fill="#ffc20c"/>
    <path id="Path_52551" data-name="Path 52551" d="M4.979,416.428V406.305a4.2,4.2,0,0,1,.441-1.874c.008-.017.018-.033.027-.049L.473,401.747a4.025,4.025,0,0,0-.422,1.8v9.7a1.175,1.175,0,0,0,.624,1.038l4.314,2.292a1.223,1.223,0,0,1-.01-.144Z" transform="translate(0 -338.987)" fill="#ffa90f"/>
    <path id="Path_52552" data-name="Path 52552" d="M75.753,401.746l-9.863,5.24v12a3.223,3.223,0,0,0,1.513-.377l8.149-4.329a1.175,1.175,0,0,0,.624-1.038v-9.7A4.026,4.026,0,0,0,75.753,401.746Z" transform="translate(-55.554 -338.986)" fill="#ffd301"/>
    <path id="Path_52553" data-name="Path 52553" d="M401.859,4.836,393.515.151a1.176,1.176,0,0,0-1.151,0l-8.344,4.684a2.328,2.328,0,0,0-.944.992l9.863,5.723L402.8,5.827A2.327,2.327,0,0,0,401.859,4.836Z" transform="translate(-323.19 -0.001)" fill="#fee55a"/>
    <path id="Path_52554" data-name="Path 52554" d="M388.024,8.511a2.429,2.429,0,0,1,.985-1.035l8.707-4.889c.025-.014.05-.024.076-.036L393.516.15a1.176,1.176,0,0,0-1.151,0l-8.344,4.684a2.328,2.328,0,0,0-.944.992l4.879,2.831C387.979,8.608,388,8.559,388.024,8.511Z" transform="translate(-323.191)" fill="#ffd301"/>
    <path id="Path_52555" data-name="Path 52555" d="M380.795,37.3a4.026,4.026,0,0,0-.423,1.8v9.7A1.175,1.175,0,0,0,381,49.831l8.149,4.329a3.225,3.225,0,0,0,1.513.377l.214-11.9Z" transform="translate(-320.908 -31.471)" fill="#ffc20c"/>
    <path id="Path_52556" data-name="Path 52556" d="M385.3,51.978V41.855a4.2,4.2,0,0,1,.441-1.874c.008-.017.018-.032.027-.049L380.8,37.3a4.026,4.026,0,0,0-.422,1.8v9.7A1.175,1.175,0,0,0,381,49.831l4.314,2.292A1.187,1.187,0,0,1,385.3,51.978Z" transform="translate(-320.909 -31.471)" fill="#ffa90f"/>
    <path id="Path_52557" data-name="Path 52557" d="M456.075,37.3l-9.863,5.24v12a3.223,3.223,0,0,0,1.513-.377l8.149-4.329a1.175,1.175,0,0,0,.624-1.038v-9.7a4.03,4.03,0,0,0-.423-1.8Z" transform="translate(-376.462 -31.471)" fill="#ffd301"/>
    <path id="Path_52558" data-name="Path 52558" d="M401.859,369.285l-8.344-4.684a1.176,1.176,0,0,0-1.151,0l-8.344,4.684a2.328,2.328,0,0,0-.944.991L392.94,376l9.863-5.723A2.328,2.328,0,0,0,401.859,369.285Z" transform="translate(-323.19 -307.516)" fill="#fee55a"/>
    <path id="Path_52559" data-name="Path 52559" d="M388.024,372.96a2.429,2.429,0,0,1,.985-1.035l8.707-4.889c.025-.014.05-.024.076-.036l-4.276-2.4a1.176,1.176,0,0,0-1.151,0l-8.344,4.684a2.328,2.328,0,0,0-.944.992l4.879,2.831C387.979,373.057,388,373.008,388.024,372.96Z" transform="translate(-323.191 -307.515)" fill="#ffd301"/>
    <path id="Path_52560" data-name="Path 52560" d="M380.795,401.746a4.026,4.026,0,0,0-.423,1.8v9.7A1.175,1.175,0,0,0,381,414.28l8.149,4.329a3.225,3.225,0,0,0,1.513.377l.214-11.9Z" transform="translate(-320.908 -338.986)" fill="#ffc20c"/>
    <path id="Path_52561" data-name="Path 52561" d="M385.3,416.428V406.305a4.2,4.2,0,0,1,.441-1.874c.008-.017.018-.033.027-.049l-4.973-2.635a4.026,4.026,0,0,0-.422,1.8v9.7a1.175,1.175,0,0,0,.624,1.038l4.314,2.292A1.187,1.187,0,0,1,385.3,416.428Z" transform="translate(-320.909 -338.987)" fill="#ffa90f"/>
    <path id="Path_52562" data-name="Path 52562" d="M456.075,401.746l-9.863,5.24v12a3.223,3.223,0,0,0,1.513-.377l8.149-4.329a1.175,1.175,0,0,0,.624-1.038v-9.7A4.031,4.031,0,0,0,456.075,401.746Z" transform="translate(-376.462 -338.986)" fill="#ffd301"/>
  </g>
</svg>
