<svg xmlns="http://www.w3.org/2000/svg" width="241.688" height="36.185" viewBox="0 0 241.688 36.185">
  <g id="dots" transform="translate(964 -538.052) rotate(90)">
    <path id="Path_55794" data-name="Path 55794" d="M171.151,0a1.087,1.087,0,1,1-1.086,1.087A1.087,1.087,0,0,1,171.151,0" transform="translate(402 722.313)" fill="#fff"/>
    <path id="Path_55795" data-name="Path 55795" d="M171.151,19.959a1.087,1.087,0,1,1-1.086,1.086,1.086,1.086,0,0,1,1.086-1.086" transform="translate(402 722.313)" fill="#fff"/>
    <path id="Path_55796" data-name="Path 55796" d="M171.151,39.919a1.087,1.087,0,1,1-1.086,1.086,1.086,1.086,0,0,1,1.086-1.086" transform="translate(402 722.313)" fill="#fff"/>
    <path id="Path_55797" data-name="Path 55797" d="M171.151,59.878a1.087,1.087,0,1,1-1.086,1.086,1.086,1.086,0,0,1,1.086-1.086" transform="translate(402 722.313)" fill="#fff"/>
    <path id="Path_55798" data-name="Path 55798" d="M171.151,79.838a1.086,1.086,0,1,1-1.086,1.086,1.086,1.086,0,0,1,1.086-1.086" transform="translate(402 722.313)" fill="#fff"/>
    <path id="Path_55799" data-name="Path 55799" d="M171.151,99.8a1.086,1.086,0,1,1-1.086,1.086,1.086,1.086,0,0,1,1.086-1.086" transform="translate(402 722.313)" fill="#fff"/>
    <path id="Path_55800" data-name="Path 55800" d="M171.151,119.757a1.086,1.086,0,1,1-1.086,1.086,1.086,1.086,0,0,1,1.086-1.086" transform="translate(402 722.313)" fill="#fff"/>
    <path id="Path_55801" data-name="Path 55801" d="M171.151,139.717a1.086,1.086,0,1,1-1.086,1.086,1.086,1.086,0,0,1,1.086-1.086" transform="translate(402 722.313)" fill="#fff"/>
    <path id="Path_55802" data-name="Path 55802" d="M171.151,159.676a1.086,1.086,0,1,1-1.086,1.086,1.086,1.086,0,0,1,1.086-1.086" transform="translate(402 722.313)" fill="#fff"/>
    <path id="Path_55803" data-name="Path 55803" d="M171.151,179.636a1.086,1.086,0,1,1-1.086,1.086,1.086,1.086,0,0,1,1.086-1.086" transform="translate(402 722.313)" fill="#fff"/>
    <path id="Path_55804" data-name="Path 55804" d="M171.151,199.6a1.086,1.086,0,1,1-1.086,1.086,1.086,1.086,0,0,1,1.086-1.086" transform="translate(402 722.313)" fill="#fff"/>
    <path id="Path_55805" data-name="Path 55805" d="M171.151,219.555a1.087,1.087,0,1,1-1.086,1.086,1.086,1.086,0,0,1,1.086-1.086" transform="translate(402 722.313)" fill="#fff"/>
    <path id="Path_55806" data-name="Path 55806" d="M171.151,239.514a1.086,1.086,0,1,1-1.086,1.086,1.086,1.086,0,0,1,1.086-1.086" transform="translate(402 722.313)" fill="#fff"/>
    <path id="Path_55807" data-name="Path 55807" d="M154.144,0a1.087,1.087,0,1,1-1.086,1.087A1.087,1.087,0,0,1,154.144,0" transform="translate(402 722.313)" fill="#fff"/>
    <path id="Path_55808" data-name="Path 55808" d="M154.144,19.959a1.087,1.087,0,1,1-1.086,1.086,1.086,1.086,0,0,1,1.086-1.086" transform="translate(402 722.313)" fill="#fff"/>
    <path id="Path_55809" data-name="Path 55809" d="M154.144,39.919a1.087,1.087,0,1,1-1.086,1.086,1.086,1.086,0,0,1,1.086-1.086" transform="translate(402 722.313)" fill="#fff"/>
    <path id="Path_55810" data-name="Path 55810" d="M154.144,59.878a1.087,1.087,0,1,1-1.086,1.086,1.086,1.086,0,0,1,1.086-1.086" transform="translate(402 722.313)" fill="#fff"/>
    <path id="Path_55811" data-name="Path 55811" d="M154.144,79.838a1.086,1.086,0,1,1-1.086,1.086,1.086,1.086,0,0,1,1.086-1.086" transform="translate(402 722.313)" fill="#fff"/>
    <path id="Path_55812" data-name="Path 55812" d="M154.144,99.8a1.086,1.086,0,1,1-1.086,1.086,1.086,1.086,0,0,1,1.086-1.086" transform="translate(402 722.313)" fill="#fff"/>
    <path id="Path_55813" data-name="Path 55813" d="M154.144,119.757a1.086,1.086,0,1,1-1.086,1.086,1.086,1.086,0,0,1,1.086-1.086" transform="translate(402 722.313)" fill="#fff"/>
    <path id="Path_55814" data-name="Path 55814" d="M154.144,139.717a1.086,1.086,0,1,1-1.086,1.086,1.086,1.086,0,0,1,1.086-1.086" transform="translate(402 722.313)" fill="#fff"/>
    <path id="Path_55815" data-name="Path 55815" d="M154.144,159.676a1.086,1.086,0,1,1-1.086,1.086,1.086,1.086,0,0,1,1.086-1.086" transform="translate(402 722.313)" fill="#fff"/>
    <path id="Path_55816" data-name="Path 55816" d="M154.144,179.636a1.086,1.086,0,1,1-1.086,1.086,1.086,1.086,0,0,1,1.086-1.086" transform="translate(402 722.313)" fill="#fff"/>
    <path id="Path_55817" data-name="Path 55817" d="M154.144,199.6a1.086,1.086,0,1,1-1.086,1.086,1.086,1.086,0,0,1,1.086-1.086" transform="translate(402 722.313)" fill="#fff"/>
    <path id="Path_55818" data-name="Path 55818" d="M154.144,219.555a1.087,1.087,0,1,1-1.086,1.086,1.086,1.086,0,0,1,1.086-1.086" transform="translate(402 722.313)" fill="#fff"/>
    <path id="Path_55819" data-name="Path 55819" d="M154.144,239.514a1.086,1.086,0,1,1-1.086,1.086,1.086,1.086,0,0,1,1.086-1.086" transform="translate(402 722.313)" fill="#fff"/>
    <path id="Path_55820" data-name="Path 55820" d="M137.138,0a1.087,1.087,0,1,1-1.086,1.087A1.087,1.087,0,0,1,137.138,0" transform="translate(402 722.313)" fill="#fff"/>
    <path id="Path_55821" data-name="Path 55821" d="M137.138,19.959a1.087,1.087,0,1,1-1.086,1.086,1.086,1.086,0,0,1,1.086-1.086" transform="translate(402 722.313)" fill="#fff"/>
    <path id="Path_55822" data-name="Path 55822" d="M137.138,39.919a1.087,1.087,0,1,1-1.086,1.086,1.086,1.086,0,0,1,1.086-1.086" transform="translate(402 722.313)" fill="#fff"/>
    <path id="Path_55823" data-name="Path 55823" d="M137.138,59.878a1.087,1.087,0,1,1-1.086,1.086,1.086,1.086,0,0,1,1.086-1.086" transform="translate(402 722.313)" fill="#fff"/>
    <path id="Path_55824" data-name="Path 55824" d="M137.138,79.838a1.086,1.086,0,1,1-1.086,1.086,1.086,1.086,0,0,1,1.086-1.086" transform="translate(402 722.313)" fill="#fff"/>
    <path id="Path_55825" data-name="Path 55825" d="M137.138,99.8a1.086,1.086,0,1,1-1.086,1.086,1.086,1.086,0,0,1,1.086-1.086" transform="translate(402 722.313)" fill="#fff"/>
    <path id="Path_55826" data-name="Path 55826" d="M137.138,119.757a1.086,1.086,0,1,1-1.086,1.086,1.086,1.086,0,0,1,1.086-1.086" transform="translate(402 722.313)" fill="#fff"/>
    <path id="Path_55827" data-name="Path 55827" d="M137.138,139.717a1.086,1.086,0,1,1-1.086,1.086,1.086,1.086,0,0,1,1.086-1.086" transform="translate(402 722.313)" fill="#fff"/>
    <path id="Path_55828" data-name="Path 55828" d="M137.138,159.676a1.086,1.086,0,1,1-1.086,1.086,1.086,1.086,0,0,1,1.086-1.086" transform="translate(402 722.313)" fill="#fff"/>
    <path id="Path_55829" data-name="Path 55829" d="M137.138,179.636a1.086,1.086,0,1,1-1.086,1.086,1.086,1.086,0,0,1,1.086-1.086" transform="translate(402 722.313)" fill="#fff"/>
    <path id="Path_55830" data-name="Path 55830" d="M137.138,199.6a1.086,1.086,0,1,1-1.086,1.086,1.086,1.086,0,0,1,1.086-1.086" transform="translate(402 722.313)" fill="#fff"/>
    <path id="Path_55831" data-name="Path 55831" d="M137.138,219.555a1.087,1.087,0,1,1-1.086,1.086,1.086,1.086,0,0,1,1.086-1.086" transform="translate(402 722.313)" fill="#fff"/>
    <path id="Path_55832" data-name="Path 55832" d="M137.138,239.514a1.086,1.086,0,1,1-1.086,1.086,1.086,1.086,0,0,1,1.086-1.086" transform="translate(402 722.313)" fill="#fff"/>
  </g>
</svg>
