<svg id="fractionalization_" data-name="fractionalization " xmlns="http://www.w3.org/2000/svg" width="80" height="80" viewBox="0 0 80 80">
  <path id="Path_52880" data-name="Path 52880" d="M307.156,37.656H274.344A2.342,2.342,0,0,1,272,35.313V2.344A2.342,2.342,0,0,1,274.344,0,35.329,35.329,0,0,1,309.5,35.313,2.342,2.342,0,0,1,307.156,37.656Z" transform="translate(-229.5)" fill="#fe9923"/>
  <path id="Path_52881" data-name="Path 52881" d="M49.2,126.219,37.813,95.734V63.344A2.321,2.321,0,0,0,35.469,61C16.063,61,0,76.75,0,96.156a35.571,35.571,0,0,0,35.469,35.313c.8,0,1.547-.047,2.344-.094a33.387,33.387,0,0,0,9.984-2.156A2.348,2.348,0,0,0,49.2,126.219Z" transform="translate(0 -51.469)" fill="#fd003a"/>
  <path id="Path_52882" data-name="Path 52882" d="M285.863,306.569a2.352,2.352,0,0,1-2.195-1.52l-11.522-30.881A2.344,2.344,0,0,1,274.341,271h32.813a2.342,2.342,0,0,1,2.344,2.344,35.56,35.56,0,0,1-22.808,33.074A2.347,2.347,0,0,1,285.863,306.569Z" transform="translate(-229.497 -228.656)" fill="#1689fc"/>
  <path id="Path_52883" data-name="Path 52883" d="M251.984,316.784A33.4,33.4,0,0,1,242,318.941V283.3l11.391,30.484A2.348,2.348,0,0,1,251.984,316.784Z" transform="translate(-204.188 -239.034)" fill="#e50027"/>
</svg>
