<svg xmlns="http://www.w3.org/2000/svg" width="81.356" height="80" viewBox="0 0 81.356 80">
  <g id="global_capital" transform="translate(-16 -24)">
    <path id="Path_52857" data-name="Path 52857" d="M408,72h2.712V92.339H408Z" transform="translate(-325.559 -39.864)" fill="#008afe"/>
    <path id="Path_52858" data-name="Path 52858" d="M16,480H97.356v2.712H16Z" transform="translate(0 -378.712)" fill="#edad2e"/>
    <path id="Path_52859" data-name="Path 52859" d="M360,288h18.983v33.9H360Z" transform="translate(-285.695 -219.254)" fill="#f4c44d"/>
    <g id="Group_61213" data-name="Group 61213" transform="translate(74.305 68.746)">
      <path id="Path_52860" data-name="Path 52860" d="M360,448h18.983v6.78H360Z" transform="translate(-360 -420.881)" fill="#edad2e"/>
      <path id="Path_52861" data-name="Path 52861" d="M360,368h18.983v6.78H360Z" transform="translate(-360 -354.441)" fill="#edad2e"/>
      <path id="Path_52862" data-name="Path 52862" d="M360,288h18.983v6.78H360Z" transform="translate(-360 -288)" fill="#edad2e"/>
    </g>
    <path id="Path_52863" data-name="Path 52863" d="M157.831,81.248H142.915l-.435-.435a3.22,3.22,0,0,0-4.554,0L134.78,83.96H128V97.519h8.368a2.712,2.712,0,0,1,1.918.794l1.24,1.24a6.944,6.944,0,0,0,4.91,2.034H153.6a6.944,6.944,0,0,0,6.944-6.944V83.96a2.712,2.712,0,0,0-2.712-2.712Z" transform="translate(-93.017 -46.401)" fill="#f9c7b2"/>
    <path id="Path_52864" data-name="Path 52864" d="M16,88H34.983v18.983H16Z" transform="translate(0 -53.153)" fill="#008afe"/>
    <path id="Path_52865" data-name="Path 52865" d="M64,88H74.847v18.983H64Z" transform="translate(-39.864 -53.153)" fill="#006cda"/>
    <path id="Path_52866" data-name="Path 52866" d="M40,408H58.983v13.559H40Z" transform="translate(-19.932 -318.915)" fill="#f4c44d"/>
    <path id="Path_52867" data-name="Path 52867" d="M200,408h18.983v13.559H200Z" transform="translate(-152.814 -318.915)" fill="#f4c44d"/>
    <circle id="Ellipse_676" data-name="Ellipse 676" cx="9.492" cy="9.492" r="9.492" transform="translate(74.305 49.763)" fill="#f4c44d"/>
    <path id="Path_52868" data-name="Path 52868" d="M416,68.2V65.259A9.259,9.259,0,0,1,425.259,56H428.2v2.945a9.259,9.259,0,0,1-9.259,9.259Z" transform="translate(-332.203 -26.576)" fill="#006cda"/>
    <path id="Path_52869" data-name="Path 52869" d="M344,56h2.945a9.259,9.259,0,0,1,9.259,9.259V68.2h-2.945A9.259,9.259,0,0,1,344,58.945Z" transform="translate(-272.407 -26.576)" fill="#006cda"/>
    <path id="Path_52870" data-name="Path 52870" d="M40,448H58.983v6.78H40Z" transform="translate(-19.932 -352.136)" fill="#edad2e"/>
    <path id="Path_52871" data-name="Path 52871" d="M401.951,24a7.167,7.167,0,0,0-1.663,9.709l1.663,2.495,1.663-2.495A7.167,7.167,0,0,0,401.951,24Z" transform="translate(-318.154)" fill="#008afe"/>
    <path id="Path_52872" data-name="Path 52872" d="M50.847,252.068H46.78V248H44.068v4.068H40v2.712h4.068v4.068H46.78V254.78h4.068Z" transform="translate(-19.932 -186.034)" fill="#f4c44d"/>
    <path id="Path_52873" data-name="Path 52873" d="M389.424,237.424A5.43,5.43,0,0,1,384,232h2.712a2.715,2.715,0,0,0,2.712,2.712Z" transform="translate(-305.627 -172.746)" fill="#edad2e"/>
    <path id="Path_52874" data-name="Path 52874" d="M149.424,83.661A5.424,5.424,0,0,1,144,78.237V64.921a31.2,31.2,0,0,1,10.213-23.086l4.7-4.275a13.888,13.888,0,0,1-4.068-9.821V26.712A2.712,2.712,0,0,1,157.559,24h10.847a2.712,2.712,0,0,1,2.712,2.712v1.027a13.888,13.888,0,0,1-4.068,9.821l4.7,4.275a31.2,31.2,0,0,1,10.213,23.086V78.237a5.424,5.424,0,0,1-5.424,5.424Z" transform="translate(-106.305 0)" fill="#008afe"/>
    <path id="Path_52875" data-name="Path 52875" d="M51.255,256v2.712h6.154A60.81,60.81,0,0,1,16,274.983v2.712a63.524,63.524,0,0,0,43.39-17.122v6.275H62.1V256Z" transform="translate(-0.001 -192.678)" fill="#f4c44d"/>
    <path id="Path_52876" data-name="Path 52876" d="M220.068,104l-3.295,5.491a5.424,5.424,0,0,0-.773,2.79v12.057h1.356a5.424,5.424,0,0,0,5.424-5.424v-6.633a5.424,5.424,0,0,1,.773-2.791L226.847,104Z" transform="translate(-166.102 -66.441)" fill="#ededed"/>
    <path id="Path_52877" data-name="Path 52877" d="M223.2,98.712h11.119l-1.492-1.356A13.871,13.871,0,0,0,234.012,96H223.506a13.87,13.87,0,0,0,1.185,1.356Z" transform="translate(-172.081 -59.797)" fill="#006cda"/>
    <path id="Path_52878" data-name="Path 52878" d="M179.526,84.638,175.7,80.813a3.22,3.22,0,0,0-4.554,0L168,83.96l.228,1.139a3.079,3.079,0,0,0,5.2,1.573l1.981,1.981a2.938,2.938,0,0,0,4.16.014,2.876,2.876,0,0,0-.038-4.029Z" transform="translate(-126.237 -46.401)" fill="#edb6a4"/>
    <path id="Path_52879" data-name="Path 52879" d="M200,448h18.983v6.78H200Z" transform="translate(-152.814 -352.136)" fill="#edad2e"/>
  </g>
</svg>
