<svg xmlns="http://www.w3.org/2000/svg" width="24.76" height="192.743" viewBox="0 0 24.76 192.743">
  <g id="lines" transform="translate(0 0)">
    <path id="Path_55755" data-name="Path 55755" d="M0,0V1.414l24.76,24.76V24.76Z" fill="#ff9190"/>
    <path id="Path_55756" data-name="Path 55756" d="M0,14.227,24.76,38.986V37.572L0,12.813Z" fill="#ff9190"/>
    <path id="Path_55757" data-name="Path 55757" d="M0,27.04,24.76,51.8V50.385L0,25.626Z" fill="#ff9190"/>
    <path id="Path_55758" data-name="Path 55758" d="M0,39.853l24.76,24.76V63.2L0,38.439Z" fill="#ff9190"/>
    <path id="Path_55759" data-name="Path 55759" d="M0,52.666l24.76,24.76V76.011L0,51.252Z" fill="#ff9190"/>
    <path id="Path_55760" data-name="Path 55760" d="M0,65.478,24.76,90.239V88.825L0,64.064Z" fill="#ff9190"/>
    <path id="Path_55761" data-name="Path 55761" d="M0,78.293l24.76,24.759v-1.414L0,76.878Z" fill="#ff9190"/>
    <path id="Path_55762" data-name="Path 55762" d="M0,91.105l24.76,24.76v-1.414L0,89.691Z" fill="#ff9190"/>
    <path id="Path_55763" data-name="Path 55763" d="M0,103.918l24.76,24.759v-1.414L0,102.5Z" fill="#ff9190"/>
    <path id="Path_55764" data-name="Path 55764" d="M0,116.731l24.76,24.76v-1.414L0,115.317Z" fill="#ff9190"/>
    <path id="Path_55765" data-name="Path 55765" d="M0,129.544,24.76,154.3v-1.415L0,128.13Z" fill="#ff9190"/>
    <path id="Path_55766" data-name="Path 55766" d="M0,142.356l24.76,24.761V165.7L0,140.943Z" fill="#ff9190"/>
    <path id="Path_55767" data-name="Path 55767" d="M0,155.17l24.76,24.76v-1.414L0,153.756Z" fill="#ff9190"/>
    <path id="Path_55768" data-name="Path 55768" d="M0,167.983l24.76,24.76v-1.414L0,166.569Z" fill="#ff9190"/>
  </g>
</svg>
