<svg xmlns="http://www.w3.org/2000/svg" width="78.546" height="80" viewBox="0 0 78.546 80">
  <g id="liquidity" transform="translate(-40 -36)">
    <path id="Path_52884" data-name="Path 52884" d="M216,36.727A2.483,2.483,0,0,0,214.244,36h-8.551a1.454,1.454,0,0,0-1.029,2.483l2.733,2.733L194.908,53.7l-9.579-9.579a2.909,2.909,0,0,0-4.114,0L160.851,64.489a2.909,2.909,0,1,0,4.114,4.114L183.272,50.3l9.579,9.579a2.909,2.909,0,0,0,4.114,0L211.511,45.33l2.733,2.733a1.455,1.455,0,0,0,2.483-1.029V38.483A2.484,2.484,0,0,0,216,36.727Z" transform="translate(-98.181)" fill="#555a6e"/>
    <g id="Group_61214" data-name="Group 61214" transform="translate(40 41.818)">
      <path id="Path_52885" data-name="Path 52885" d="M63.273,102.909H57.455a17.455,17.455,0,0,1,0-34.909h5.818a17.455,17.455,0,0,1,0,34.909Z" transform="translate(-40 -68)" fill="#3cb44b"/>
    </g>
    <g id="Group_61215" data-name="Group 61215" transform="translate(40 41.818)">
      <circle id="Ellipse_677" data-name="Ellipse 677" cx="17.455" cy="17.455" r="17.455" transform="translate(0 0)" fill="#d7e123"/>
    </g>
    <path id="Path_52886" data-name="Path 52886" d="M109.091,95.636a1.455,1.455,0,0,0,1.455-1.455V93.9a5.545,5.545,0,0,0-5.539-5.539h-.28V85.455a1.455,1.455,0,1,0-2.909,0v2.909h-.28A5.539,5.539,0,0,0,100.2,99.275l5.449,1.362a2.629,2.629,0,0,1-.638,5.18h-3.468a2.633,2.633,0,0,1-2.629-2.629v-.28a1.455,1.455,0,1,0-2.909,0v.28a5.545,5.545,0,0,0,5.539,5.539h.28v2.909a1.455,1.455,0,0,0,2.909,0v-2.909h.28a5.539,5.539,0,0,0,1.343-10.912L100.9,96.453a2.629,2.629,0,0,1,.638-5.18h3.468a2.633,2.633,0,0,1,2.629,2.629v.28a1.455,1.455,0,0,0,1.455,1.455Z" transform="translate(-45.818 -39.273)" fill="#3cb44b"/>
    <g id="Group_61222" data-name="Group 61222" transform="translate(48.727 62.182)">
      <g id="Group_61216" data-name="Group 61216" transform="translate(0 23.273)">
        <path id="Path_52887" data-name="Path 52887" d="M90.909,308h23.273a2.909,2.909,0,0,1,2.909,2.909v24.727a2.909,2.909,0,0,1-2.909,2.909H90.909A2.909,2.909,0,0,1,88,335.636V310.909A2.909,2.909,0,0,1,90.909,308Z" transform="translate(-88 -308)" fill="#3cb44b"/>
      </g>
      <g id="Group_61217" data-name="Group 61217" transform="translate(0 23.273)">
        <path id="Path_52888" data-name="Path 52888" d="M90.909,308h8.727a2.909,2.909,0,0,1,2.909,2.909v24.727a2.909,2.909,0,0,1-2.909,2.909H90.909A2.909,2.909,0,0,1,88,335.636V310.909A2.909,2.909,0,0,1,90.909,308Z" transform="translate(-88 -308)" fill="#d7e123"/>
      </g>
      <g id="Group_61218" data-name="Group 61218" transform="translate(20.364 11.636)">
        <path id="Path_52889" data-name="Path 52889" d="M202.909,244h23.273a2.909,2.909,0,0,1,2.909,2.909v36.364a2.909,2.909,0,0,1-2.909,2.909H202.909A2.909,2.909,0,0,1,200,283.273V246.909A2.909,2.909,0,0,1,202.909,244Z" transform="translate(-200 -244)" fill="#2387c3"/>
      </g>
      <g id="Group_61219" data-name="Group 61219" transform="translate(20.364 11.636)">
        <path id="Path_52890" data-name="Path 52890" d="M202.909,244h8.727a2.909,2.909,0,0,1,2.909,2.909v36.364a2.909,2.909,0,0,1-2.909,2.909h-8.727A2.909,2.909,0,0,1,200,283.273V246.909A2.909,2.909,0,0,1,202.909,244Z" transform="translate(-200 -244)" fill="#5ad7ff"/>
      </g>
      <g id="Group_61220" data-name="Group 61220" transform="translate(40.727)">
        <path id="Path_52891" data-name="Path 52891" d="M314.909,180h23.273a2.909,2.909,0,0,1,2.909,2.909v48a2.909,2.909,0,0,1-2.909,2.909H314.909A2.909,2.909,0,0,1,312,230.909v-48A2.909,2.909,0,0,1,314.909,180Z" transform="translate(-312 -180)" fill="#3cb44b"/>
      </g>
      <g id="Group_61221" data-name="Group 61221" transform="translate(40.727)">
        <path id="Path_52892" data-name="Path 52892" d="M314.909,180h8.727a2.909,2.909,0,0,1,2.909,2.909v48a2.909,2.909,0,0,1-2.909,2.909h-8.727A2.909,2.909,0,0,1,312,230.909v-48A2.909,2.909,0,0,1,314.909,180Z" transform="translate(-312 -180)" fill="#d7e123"/>
      </g>
    </g>
  </g>
</svg>
