<svg xmlns="http://www.w3.org/2000/svg" width="115.93" height="60" viewBox="0 0 115.93 60">
  <g id="nftit_logo" transform="translate(-98.341 -211.854)">
    <path id="_dbHH01i2xlTP3TKjYS3EL" d="M9.135-21.394H4.967A1.048,1.048,0,0,1,4.2-21.63a1.048,1.048,0,0,1-.236-.764h0v-18A1.048,1.048,0,0,1,4.2-41.16a1.048,1.048,0,0,1,.764-.236H7.857a2.214,2.214,0,0,1,.9.167,2.17,2.17,0,0,1,.736.583h0l5.39,6.168V-40.4a1.048,1.048,0,0,1,.236-.764,1.048,1.048,0,0,1,.764-.236h4.167a1.048,1.048,0,0,1,.764.236,1.048,1.048,0,0,1,.236.764h0v18a1.048,1.048,0,0,1-.236.764,1.048,1.048,0,0,1-.764.236H15.886a1.048,1.048,0,0,1-.764-.236,1.048,1.048,0,0,1-.236-.764h0v-3.417l-4.751-5.751v9.168a1.048,1.048,0,0,1-.236.764A1.048,1.048,0,0,1,9.135-21.394Zm21.059,0H25.887a1.048,1.048,0,0,1-.764-.236,1.048,1.048,0,0,1-.236-.764h0v-18a1.048,1.048,0,0,1,.236-.764,1.048,1.048,0,0,1,.764-.236H38.278a1.048,1.048,0,0,1,.764.236,1.048,1.048,0,0,1,.236.764h0v3.306a1.048,1.048,0,0,1-.236.764,1.048,1.048,0,0,1-.764.236H31.193V-33.2h4.834a1.048,1.048,0,0,1,.764.236,1.048,1.048,0,0,1,.236.764h0v3.334a1.048,1.048,0,0,1-.236.764,1.048,1.048,0,0,1-.764.236H31.193v5.473a1.048,1.048,0,0,1-.236.764A1.048,1.048,0,0,1,30.193-21.394Zm21.309,0H47a1.048,1.048,0,0,1-.764-.236A1.048,1.048,0,0,1,46-22.394h0V-36.035H41.917a1.048,1.048,0,0,1-.764-.236,1.048,1.048,0,0,1-.236-.764h0V-40.4a1.048,1.048,0,0,1,.236-.764,1.048,1.048,0,0,1,.764-.236H56.586a1.048,1.048,0,0,1,.764.236,1.048,1.048,0,0,1,.236.764h0v3.362a1.048,1.048,0,0,1-.236.764,1.048,1.048,0,0,1-.764.236H52.5v13.641a1.048,1.048,0,0,1-.236.764A1.048,1.048,0,0,1,51.5-21.394Zm18.919,0h-4.5a1.048,1.048,0,0,1-.764-.236,1.048,1.048,0,0,1-.236-.764h0V-25.95l-4.251-5.7a5.544,5.544,0,0,1-.847-1.5,6.6,6.6,0,0,1-.208-1.917h0V-40.4a1.048,1.048,0,0,1,.236-.764,1.048,1.048,0,0,1,.764-.236h4.278a1.048,1.048,0,0,1,.764.236,1.048,1.048,0,0,1,.236.764h0v4.556q0,.278.028.583a1.2,1.2,0,0,0,.222.583h0l1.278,2a1.1,1.1,0,0,0,.292.361.62.62,0,0,0,.375.111h.278a.62.62,0,0,0,.375-.111,1.1,1.1,0,0,0,.292-.361h0l1.278-2a1.2,1.2,0,0,0,.222-.583q.028-.306.028-.583h0V-40.4a1.048,1.048,0,0,1,.236-.764,1.048,1.048,0,0,1,.764-.236H75.7a1.048,1.048,0,0,1,.764.236,1.048,1.048,0,0,1,.236.764h0v5.334a6.206,6.206,0,0,1-.222,1.917,6.3,6.3,0,0,1-.833,1.5h0l-4.223,5.723v3.528a1.048,1.048,0,0,1-.236.764A1.048,1.048,0,0,1,70.421-21.394Z" transform="translate(137.571 262.33)" fill="#fff"/>
    <path id="_LT9703mBXXvD2CqRzN1-_" d="M15.882-21.394H4.047a1.048,1.048,0,0,1-.764-.236,1.048,1.048,0,0,1-.236-.764h0V-25.7a1.048,1.048,0,0,1,.236-.764,1.048,1.048,0,0,1,.764-.236H6.8v-9.335H4.047a1.048,1.048,0,0,1-.764-.236,1.048,1.048,0,0,1-.236-.764h0V-40.4a1.048,1.048,0,0,1,.236-.764,1.048,1.048,0,0,1,.764-.236H15.882a1.048,1.048,0,0,1,.764.236,1.048,1.048,0,0,1,.236.764h0v3.362a1.048,1.048,0,0,1-.236.764,1.048,1.048,0,0,1-.764.236H13.188V-26.7h2.695a1.048,1.048,0,0,1,.764.236,1.048,1.048,0,0,1,.236.764h0v3.306a1.048,1.048,0,0,1-.236.764,1.048,1.048,0,0,1-.764.236Zm13.863,0h-4.5a1.048,1.048,0,0,1-.764-.236,1.048,1.048,0,0,1-.236-.764h0V-36.035H20.161a1.048,1.048,0,0,1-.764-.236,1.048,1.048,0,0,1-.236-.764h0V-40.4a1.048,1.048,0,0,1,.236-.764,1.048,1.048,0,0,1,.764-.236H34.83a1.048,1.048,0,0,1,.764.236,1.048,1.048,0,0,1,.236.764h0v3.362a1.048,1.048,0,0,1-.236.764,1.048,1.048,0,0,1-.764.236H30.746v13.641a1.048,1.048,0,0,1-.236.764A1.048,1.048,0,0,1,29.745-21.394Z" transform="translate(137.525 286.329)" fill="#fff"/>
    <path id="Subtraction_3" data-name="Subtraction 3" d="M14.131,26.713h0c-.656-.515-1.146-.9-1.59-1.247a77.971,77.971,0,0,1-8.013-6.785A16.032,16.032,0,0,1,.541,12.017,11.918,11.918,0,0,1,.116,6.881,8.415,8.415,0,0,1,1.7,3.045,7.513,7.513,0,0,1,7.646,0a6.617,6.617,0,0,1,3.7,1.117,7.752,7.752,0,0,1,2.786,3.508,7.752,7.752,0,0,1,2.785-3.508A6.617,6.617,0,0,1,20.615,0a7.519,7.519,0,0,1,5.951,3.044,8.436,8.436,0,0,1,1.58,3.836,11.935,11.935,0,0,1-.424,5.136,16.058,16.058,0,0,1-3.989,6.664,77.787,77.787,0,0,1-8.014,6.785l-.325.255q-.614.481-1.264.992Zm-1.9-14.7h0l3.353,4.06v2.413a.765.765,0,0,0,.163.538.745.745,0,0,0,.541.169h2.942a.72.72,0,0,0,.538-.169.729.729,0,0,0,.169-.538V5.78a.731.731,0,0,0-.169-.538.719.719,0,0,0-.538-.169H16.29a.746.746,0,0,0-.541.169.755.755,0,0,0-.163.538V9.956L11.779,5.605a1.523,1.523,0,0,0-.521-.414,1.548,1.548,0,0,0-.636-.118H8.583a.74.74,0,0,0-.54.169.74.74,0,0,0-.167.538V18.491a.737.737,0,0,0,.167.538.739.739,0,0,0,.54.169h2.943a.609.609,0,0,0,.706-.707V12.018Z" transform="translate(107.018 230.582)" fill="#fff"/>
    <g id="Group_38494" data-name="Group 38494" transform="translate(98.341 211.855)">
      <path id="Path_6517" data-name="Path 6517" d="M89.208,74.3a2.259,2.259,0,0,1,0,3.2,22.172,22.172,0,0,1-9.379,5.479v6.555a2.288,2.288,0,0,1-4.575,0v-5.66c-.677.063-1.354.1-2.04.1a23,23,0,0,1-2.745-.172v5.732a2.288,2.288,0,0,1-4.575,0V82.723a22.088,22.088,0,0,1,.018-41.881v-6.79a2.288,2.288,0,0,1,4.575,0v5.732a21.535,21.535,0,0,1,4.767-.072v-5.66a2.288,2.288,0,0,1,4.575,0V40.6A22.133,22.133,0,0,1,89.208,46.1a2.241,2.241,0,0,1,0,3.2,2.307,2.307,0,0,1-3.235,0,17.733,17.733,0,0,0-8.893-4.729h0a17.364,17.364,0,0,0-8.29.136,18,18,0,0,0-8.1,4.593,17.533,17.533,0,0,0-4.607,17.1,17.785,17.785,0,0,0,12.7,12.477,17.188,17.188,0,0,0,8.235.145,17.625,17.625,0,0,0,8.958-4.72,2.307,2.307,0,0,1,3.239,0Z" transform="translate(-50.843 -31.791)" fill="#fff"/>
    </g>
  </g>
</svg>
