<svg xmlns="http://www.w3.org/2000/svg" width="70.402" height="70" viewBox="0 0 70.402 70">
  <g id="tailored" transform="translate(0 -0.332)">
    <path id="Path_52563" data-name="Path 52563" d="M2.414.332H50.69A2.414,2.414,0,0,1,53.1,2.746V67.918a2.414,2.414,0,0,1-2.414,2.414H2.414A2.414,2.414,0,0,1,0,67.918V2.746A2.414,2.414,0,0,1,2.414.332Zm0,0" transform="translate(0 0)" fill="#57b7eb"/>
    <path id="Path_52564" data-name="Path 52564" d="M30.172,60.677A21.724,21.724,0,0,1,8.448,38.953V.332H2.414A2.414,2.414,0,0,0,0,2.746V67.918a2.414,2.414,0,0,0,2.414,2.414H50.69A2.414,2.414,0,0,0,53.1,67.918V60.677Zm0,0" fill="#4891d3"/>
    <path id="Path_52565" data-name="Path 52565" d="M72,48.332h31.379V53.16H72Zm0,0" transform="translate(-61.138 -40.759)" fill="#f9e109"/>
    <g id="Group_40129" data-name="Group 40129" transform="translate(7.241 16.022)">
      <path id="Path_52566" data-name="Path 52566" d="M113.345,106.746H89.207a1.207,1.207,0,0,1,0-2.414h24.138a1.207,1.207,0,1,1,0,2.414Zm0,0" transform="translate(-81.966 -104.332)" fill="#39519d"/>
      <path id="Path_52567" data-name="Path 52567" d="M147.759,162.746H121.207a1.207,1.207,0,1,1,0-2.414h26.552a1.207,1.207,0,1,1,0,2.414Zm0,0" transform="translate(-109.138 -151.884)" fill="#39519d"/>
      <path id="Path_52568" data-name="Path 52568" d="M73.345,210.746H49.207a1.207,1.207,0,0,1,0-2.414H73.345a1.207,1.207,0,1,1,0,2.414Zm0,0" transform="translate(-48 -192.642)" fill="#39519d"/>
      <path id="Path_52569" data-name="Path 52569" d="M249.655,210.746h-8.448a1.207,1.207,0,1,1,0-2.414h8.448a1.207,1.207,0,0,1,0,2.414Zm0,0" transform="translate(-211.034 -192.642)" fill="#39519d"/>
      <path id="Path_52570" data-name="Path 52570" d="M61.276,250.746H49.207a1.207,1.207,0,0,1,0-2.414H61.276a1.207,1.207,0,1,1,0,2.414Zm0,0" transform="translate(-48 -226.608)" fill="#39519d"/>
      <path id="Path_52571" data-name="Path 52571" d="M169.655,250.746h-8.448a1.207,1.207,0,1,1,0-2.414h8.448a1.207,1.207,0,1,1,0,2.414Zm0,0" transform="translate(-143.103 -226.608)" fill="#39519d"/>
    </g>
    <path id="Path_52572" data-name="Path 52572" d="M103.379,53.16H72V48.332Zm0,0" transform="translate(-61.138 -40.759)" fill="#fcbc04"/>
    <path id="Path_52573" data-name="Path 52573" d="M50.1,321.384a9.052,9.052,0,1,1-9.052-9.052A9.052,9.052,0,0,1,50.1,321.384Zm0,0" transform="translate(-27.172 -264.931)" fill="#f9e109"/>
    <path id="Path_52574" data-name="Path 52574" d="M41.042,334.17a9.051,9.051,0,0,0,8.605-6.252A21.722,21.722,0,0,1,37.638,316.73a9.052,9.052,0,0,0,3.4,17.44Zm0,0" transform="translate(-27.162 -268.666)" fill="#fcbc04"/>
    <path id="Path_52575" data-name="Path 52575" d="M185.2,340.02a1.038,1.038,0,0,1-.386-.061,1.207,1.207,0,0,1-.761-1.52l2.969-8.907a2.414,2.414,0,0,1,4.695.567l.411,4.828.434-.736a2.393,2.393,0,0,1,4.308.3l.773,1.907,3.512-4.466a1.207,1.207,0,0,1,1.895,1.5l-3.524,4.478a2.414,2.414,0,0,1-4.127-.616l-.748-1.895-.447.736a2.414,2.414,0,0,1-4.478-.941l-.41-4.9-2.909,8.858a1.207,1.207,0,0,1-1.207.869Zm0,0" transform="translate(-156.239 -278.137)" fill="#39519d"/>
    <path id="Path_52576" data-name="Path 52576" d="M63.93,355.853a2.413,2.413,0,0,1-1.7-.7l-2.559-2.559a1.208,1.208,0,1,1,1.7-1.714l2.559,2.559,4.272-4.26a1.207,1.207,0,0,1,1.7,1.7l-4.26,4.272a2.414,2.414,0,0,1-1.714.7Zm0,0" transform="translate(-50.364 -295.973)" fill="#39519d"/>
    <path id="Path_52577" data-name="Path 52577" d="M334.112,155.738l6.271,3.621-10.862,18.814-6.271-3.621Zm0,0" transform="translate(-274.484 -131.961)" fill="#fcbc04"/>
    <path id="Path_52578" data-name="Path 52578" d="M328.872,215.371l-5.673,9.8,6.276,3.621,1.835-3.2A32.575,32.575,0,0,1,328.872,215.371Zm0,0" transform="translate(-274.441 -182.598)" fill="#e59730"/>
    <path id="Path_52579" data-name="Path 52579" d="M315.007,284.113l-6.276-3.621-2.571,6.867,4.176,2.414Zm0,0" transform="translate(-259.972 -237.894)" fill="#a1d51c"/>
    <path id="Path_52580" data-name="Path 52580" d="M298.79,327.465l4.2,2.414-1.207,2.1a2.422,2.422,0,1,1-4.2-2.414Zm0,0" transform="translate(-252.415 -277.781)" fill="#e59730"/>
    <path id="Path_52581" data-name="Path 52581" d="M398.8,114.2l6.271,3.621-3.621,6.271-6.271-3.621Zm0,0" transform="translate(-335.562 -96.692)" fill="#fcbc04"/>
    <path id="Path_52582" data-name="Path 52582" d="M430.614,96.672a2.414,2.414,0,0,1,.883,3.3l-1.207,2.09-4.181-2.414,1.207-2.09a2.413,2.413,0,0,1,3.3-.883Zm0,0" transform="translate(-361.826 -81.531)" fill="#c4f236"/>
    <path id="Path_52583" data-name="Path 52583" d="M384.32,162.989l1.207-2.09,6.271,3.621-1.207,2.09Zm0,0" transform="translate(-326.341 -136.343)" fill="#e59730"/>
    <path id="Path_52584" data-name="Path 52584" d="M381.068,159.846a1.2,1.2,0,0,1-1.038-1.81l4.828-8.364a1.209,1.209,0,0,0-.447-1.653l-10.452-6.034a1.206,1.206,0,1,1,1.207-2.088l10.452,6.034a3.619,3.619,0,0,1,1.328,4.948l-4.828,8.364a1.208,1.208,0,0,1-1.05.6Zm0,0" transform="translate(-317.03 -118.371)" fill="#39519d"/>
    <path id="Path_52585" data-name="Path 52585" d="M429.455,97.508a4.913,4.913,0,0,1,.169-1.207,2.414,2.414,0,0,0-2.257,1.207L426.16,99.6l4.176,2.414.6-1.038a4.756,4.756,0,0,1-1.484-3.464Zm0,0" transform="translate(-361.869 -81.486)" fill="#a1d51c"/>
  </g>
</svg>
