<svg id="app_store" xmlns="http://www.w3.org/2000/svg" width="24" height="24" viewBox="0 0 24 24">
  <path id="Path_55661" data-name="Path 55661" d="M19.078,0H4.922A4.927,4.927,0,0,0,0,4.922V19.078A4.927,4.927,0,0,0,4.922,24H19.078A4.927,4.927,0,0,0,24,19.078V4.922A4.927,4.927,0,0,0,19.078,0ZM7.39,18.493a1.172,1.172,0,0,1-2.03-1.172l.23-.4H8.3ZM5.18,15.984a1.172,1.172,0,1,1,0-2.344H7.485l3.162-5.477L9.79,6.68a1.173,1.173,0,0,1,.429-1.6h0a1.173,1.173,0,0,1,1.6.429L12,5.82l.18-.312A1.172,1.172,0,1,1,14.21,6.68l-4.019,6.961h2.535l1.353,2.344Zm13.641,0h-.952l.772,1.337a1.172,1.172,0,1,1-2.03,1.172l-4.069-7.048L13.894,9.1l2.621,4.539H18.82a1.172,1.172,0,1,1,0,2.344Z"/>
</svg>
