<svg xmlns="http://www.w3.org/2000/svg" width="22.503" height="24" viewBox="0 0 22.503 24">
  <g id="google_play" transform="translate(-16.014)">
    <g id="Group_39787" data-name="Group 39787" transform="translate(17.527)">
      <g id="Group_39786" data-name="Group 39786">
        <path id="Path_55662" data-name="Path 55662" d="M51.276.384A3.047,3.047,0,0,0,48.3.392L59.236,10.479,62.91,6.8Z" transform="translate(-48.302)"/>
      </g>
    </g>
    <g id="Group_39789" data-name="Group 39789" transform="translate(16.014 1.424)">
      <g id="Group_39788" data-name="Group 39788">
        <path id="Path_55663" data-name="Path 55663" d="M16.434,30.365a2.8,2.8,0,0,0-.42,1.465V50.048a2.806,2.806,0,0,0,.391,1.429l11-11Z" transform="translate(-16.014 -30.365)"/>
      </g>
    </g>
    <g id="Group_39791" data-name="Group 39791" transform="translate(29.564 7.56)">
      <g id="Group_39790" data-name="Group 39790">
        <path id="Path_55664" data-name="Path 55664" d="M312.543,163.21l-3.5-1.933-3.937,3.936,4.825,4.45,2.617-1.444a2.834,2.834,0,0,0,0-5.008Z" transform="translate(-305.102 -161.277)"/>
      </g>
    </g>
    <g id="Group_39793" data-name="Group 39793" transform="translate(17.478 12.557)">
      <g id="Group_39792" data-name="Group 39792">
        <path id="Path_55665" data-name="Path 55665" d="M58.272,267.9,47.246,278.927a3.04,3.04,0,0,0,3.024.029l12.5-6.9Z" transform="translate(-47.246 -267.901)"/>
      </g>
    </g>
  </g>
</svg>
