<svg xmlns="http://www.w3.org/2000/svg" width="22.499" height="24"><g data-name="Group 39787"><g data-name="Group 39786"><path data-name="Path 55662" d="M4.487.384a3.047 3.047 0 0 0-2.976.008l10.936 10.087 3.674-3.674Z" fill="#fff"/></g></g><g data-name="Group 39789"><g data-name="Group 39788"><path data-name="Path 55663" d="M.42 1.424A2.8 2.8 0 0 0 0 2.889v18.218a2.806 2.806 0 0 0 .391 1.429l11-11Z" fill="#fff"/></g></g><g data-name="Group 39791"><g data-name="Group 39790"><path data-name="Path 55664" d="m20.991 9.493-3.5-1.933-3.937 3.936 4.825 4.45 2.617-1.444a2.834 2.834 0 0 0 0-5.008Z" fill="#fff"/></g></g><g data-name="Group 39793"><g data-name="Group 39792"><path data-name="Path 55665" d="M12.49 12.556 1.464 23.583a3.04 3.04 0 0 0 3.024.029l12.5-6.9Z" fill="#fff"/></g></g></svg>