<svg xmlns="http://www.w3.org/2000/svg" width="24.612" height="24"><g fill="#fff"><path data-name="Path 55666" d="M16.725 7.078C15.859 3.057 14.013.514 12.306.514S8.753 3.057 7.887 7.078Z"/><path data-name="Path 55667" d="M7.383 12a24.642 24.642 0 0 0 .22 3.286h9.407a24.625 24.625 0 0 0 .219-3.282 24.642 24.642 0 0 0-.22-3.286H7.602A24.625 24.625 0 0 0 7.383 12Z"/><path data-name="Path 55668" d="M7.887 16.923c.866 4.02 2.712 6.564 4.419 6.564s3.553-2.544 4.419-6.564Z"/><path data-name="Path 55669" d="M18.405 7.077h5.169A12.354 12.354 0 0 0 15.001 0c1.556 1.369 2.777 3.901 3.404 7.077Z"/><path data-name="Path 55670" d="M24.164 8.718h-5.5a26.527 26.527 0 0 1 .2 3.282 26.537 26.537 0 0 1-.2 3.284h5.5a12.225 12.225 0 0 0 0-6.564Z"/><path data-name="Path 55671" d="M15.001 24a12.354 12.354 0 0 0 8.575-7.077h-5.169c-.629 3.176-1.85 5.708-3.406 7.077Z"/><path data-name="Path 55672" d="M6.207 16.923H1.038A12.354 12.354 0 0 0 9.613 24c-1.558-1.369-2.779-3.901-3.406-7.077Z"/><path data-name="Path 55673" d="M9.611 0a12.354 12.354 0 0 0-8.575 7.077h5.169C6.833 3.901 8.054 1.369 9.611 0Z"/><path data-name="Path 55674" d="M5.742 12a26.538 26.538 0 0 1 .204-3.281h-5.5a12.225 12.225 0 0 0 0 6.564h5.5a26.528 26.528 0 0 1-.2-3.282Z"/></g></svg>