<svg xmlns="http://www.w3.org/2000/svg" width="487.999" height="350.362" viewBox="0 0 487.999 350.362">
  <g id="zero_three" transform="translate(-53.1 -97.94)">
    <g id="freepik--Machine--inject-2" transform="translate(65.42 255.23)">
      <path id="Path_52477" data-name="Path 52477" d="M219,306.537l1.539-.709-.325-1.851-1.707-.132a7.116,7.116,0,0,0-.853-1.611l.877-1.49-1.334-1.334-1.49.889a7.608,7.608,0,0,0-2.861-1.2l-.433-1.707h-1.875l-.433,1.719a7.752,7.752,0,0,0-1.695.541l-1.346-1.2-1.551,1.082.637,1.659a8.75,8.75,0,0,0-1.082,1.406l-1.767-.18-.649,1.767,1.466,1a8.621,8.621,0,0,0-.1,1.2c0,.18,0,.361,0,.529l-1.539.865.481,1.815h1.755a6.685,6.685,0,0,0,.962,1.526l-.757,1.575,1.442,1.2,1.394-1a7.68,7.68,0,0,0,1.683.709l.288,1.695,1.875.156.565-1.6a6.982,6.982,0,0,0,1.8-.385l1.2,1.2,1.635-.938-.445-1.623a7.945,7.945,0,0,0,1.2-1.37l1.659.3.793-1.707-1.3-1.07A7.692,7.692,0,0,0,219,306.537Zm-2.789,0a4.712,4.712,0,1,1-4.7-4.7A4.712,4.712,0,0,1,216.206,306.537Z" transform="translate(-35.25 -214.947)" fill="#263238"/>
      <path id="Path_52478" data-name="Path 52478" d="M330.933,306.537l1.551-.709-.324-1.851-1.707-.132a7.115,7.115,0,0,0-.853-1.611l.877-1.49-1.334-1.334-1.49.889a7.608,7.608,0,0,0-2.861-1.2l-.433-1.707h-1.875l-.433,1.719a7.752,7.752,0,0,0-1.695.541l-1.346-1.2-1.551,1.082.637,1.659a8.748,8.748,0,0,0-1.082,1.406l-1.767-.18-.649,1.767,1.466,1a8.613,8.613,0,0,0-.1,1.2v.529l-1.539.865.481,1.815h1.755a6.682,6.682,0,0,0,.962,1.526l-.757,1.575,1.442,1.2,1.394-1a7.681,7.681,0,0,0,1.683.709l.288,1.695,1.875.156.565-1.6a6.984,6.984,0,0,0,1.8-.385l1.2,1.2,1.635-.938-.445-1.623a7.943,7.943,0,0,0,1.2-1.37l1.659.3.793-1.707-1.3-1.07A7.114,7.114,0,0,0,330.933,306.537Zm-2.777,0a4.712,4.712,0,1,1-4.7-4.7,4.712,4.712,0,0,1,4.7,4.7Z" transform="translate(-12.64 -214.947)" fill="#263238"/>
      <rect id="Rectangle_4495" data-name="Rectangle 4495" width="12.02" height="60.988" transform="translate(244.18 83.188)" fill="#263238"/>
      <path id="Path_52479" data-name="Path 52479" d="M278.621,359.7H266.6a.6.6,0,0,1-.6-.6v-61a.6.6,0,0,1,.6-.6h12.02a.6.6,0,0,1,.6.6v60.988a.6.6,0,0,1-.6.613ZM267.2,358.5H278.02V298.714H267.2Z" transform="translate(-22.421 -214.925)" fill="#263238"/>
      <rect id="Rectangle_4496" data-name="Rectangle 4496" width="28.823" height="84.33" transform="translate(235.778 103.982)" fill="#fff"/>
      <path id="Path_52480" data-name="Path 52480" d="M288.438,400.378H259.591a.6.6,0,0,1-.6-.6V315.411a.6.6,0,0,1,.6-.6h28.847a.6.6,0,0,1,.6.6v84.33a.6.6,0,0,1-.6.637Zm-28.234-1.2h27.645V316.012H260.2Z" transform="translate(-23.837 -211.429)" fill="#263238"/>
      <rect id="Rectangle_4497" data-name="Rectangle 4497" width="4.291" height="84.33" transform="translate(248.038 103.982)" fill="#fff"/>
      <path id="Path_52481" data-name="Path 52481" d="M274.114,400.378h-4.3a.613.613,0,0,1-.6-.6V315.411a.6.6,0,0,1,.6-.6h4.3a.6.6,0,0,1,.6.6v84.33a.613.613,0,0,1-.6.637Zm-3.7-1.2h3.1V316.012h-3.1Z" transform="translate(-21.773 -211.429)" fill="#263238"/>
      <rect id="Rectangle_4498" data-name="Rectangle 4498" width="301.49" height="10.421" transform="translate(129.392 80.736)" fill="#938c78"/>
      <path id="Path_52482" data-name="Path 52482" d="M472.591,307.087H171.1a.6.6,0,0,1-.6-.6V296.1a.6.6,0,0,1,.6-.6h301.49a.6.6,0,0,1,.6.6v10.421a.6.6,0,0,1-.6.565Zm-300.889-1.2H471.99v-9.219H171.7Z" transform="translate(-41.709 -215.329)" fill="#263238"/>
      <path id="Path_52483" data-name="Path 52483" d="M202.221,306.942a.6.6,0,0,1-.6-.6v-9.76a.6.6,0,1,1,1.2,0v9.76A.6.6,0,0,1,202.221,306.942Z" transform="translate(-35.424 -215.232)" fill="#263238"/>
      <path id="Path_52484" data-name="Path 52484" d="M210.561,306.942a.6.6,0,0,1-.6-.6v-9.76a.613.613,0,0,1,.6-.6.6.6,0,0,1,.6.6v9.76A.6.6,0,0,1,210.561,306.942Z" transform="translate(-33.739 -215.232)" fill="#263238"/>
      <path id="Path_52485" data-name="Path 52485" d="M218.911,306.942a.6.6,0,0,1-.6-.6v-9.76a.6.6,0,0,1,.6-.6.613.613,0,0,1,.6.6v9.76A.6.6,0,0,1,218.911,306.942Z" transform="translate(-32.053 -215.232)" fill="#263238"/>
      <path id="Path_52486" data-name="Path 52486" d="M227.251,306.942a.6.6,0,0,1-.6-.6v-9.76a.6.6,0,0,1,.6-.6.613.613,0,0,1,.6.6v9.76A.6.6,0,0,1,227.251,306.942Z" transform="translate(-30.369 -215.232)" fill="#263238"/>
      <path id="Path_52487" data-name="Path 52487" d="M235.591,306.942a.6.6,0,0,1-.6-.6v-9.76a.6.6,0,0,1,1.2,0v9.76A.6.6,0,0,1,235.591,306.942Z" transform="translate(-28.684 -215.232)" fill="#263238"/>
      <path id="Path_52488" data-name="Path 52488" d="M243.931,306.942a.6.6,0,0,1-.6-.6v-9.76a.6.6,0,1,1,1.2,0v9.76A.6.6,0,0,1,243.931,306.942Z" transform="translate(-27 -215.232)" fill="#263238"/>
      <path id="Path_52489" data-name="Path 52489" d="M252.271,306.942a.6.6,0,0,1-.6-.6v-9.76a.613.613,0,0,1,.6-.6.6.6,0,0,1,.6.6v9.76A.6.6,0,0,1,252.271,306.942Z" transform="translate(-25.315 -215.232)" fill="#263238"/>
      <path id="Path_52490" data-name="Path 52490" d="M260.611,306.942a.6.6,0,0,1-.6-.6v-9.76a.613.613,0,0,1,.6-.6.6.6,0,0,1,.6.6v9.76A.6.6,0,0,1,260.611,306.942Z" transform="translate(-23.631 -215.232)" fill="#263238"/>
      <path id="Path_52491" data-name="Path 52491" d="M268.961,306.942a.6.6,0,0,1-.6-.6v-9.76a.6.6,0,0,1,.6-.6.613.613,0,0,1,.6.6v9.76A.6.6,0,0,1,268.961,306.942Z" transform="translate(-21.944 -215.232)" fill="#263238"/>
      <path id="Path_52492" data-name="Path 52492" d="M277.3,306.942a.6.6,0,0,1-.6-.6v-9.76a.6.6,0,0,1,1.2,0v9.76A.6.6,0,0,1,277.3,306.942Z" transform="translate(-20.26 -215.232)" fill="#263238"/>
      <path id="Path_52493" data-name="Path 52493" d="M285.641,306.942a.6.6,0,0,1-.6-.6v-9.76a.6.6,0,0,1,1.2,0v9.76A.6.6,0,0,1,285.641,306.942Z" transform="translate(-18.576 -215.232)" fill="#263238"/>
      <path id="Path_52494" data-name="Path 52494" d="M293.981,306.942a.6.6,0,0,1-.6-.6v-9.76a.613.613,0,0,1,.6-.6.6.6,0,0,1,.6.6v9.76A.6.6,0,0,1,293.981,306.942Z" transform="translate(-16.891 -215.232)" fill="#263238"/>
      <path id="Path_52495" data-name="Path 52495" d="M302.321,306.942a.6.6,0,0,1-.6-.6v-9.76a.613.613,0,0,1,.6-.6.6.6,0,0,1,.6.6v9.76A.6.6,0,0,1,302.321,306.942Z" transform="translate(-15.207 -215.232)" fill="#263238"/>
      <path id="Path_52496" data-name="Path 52496" d="M310.671,306.942a.6.6,0,0,1-.6-.6v-9.76a.6.6,0,0,1,.6-.6.613.613,0,0,1,.6.6v9.76A.6.6,0,0,1,310.671,306.942Z" transform="translate(-13.52 -215.232)" fill="#263238"/>
      <path id="Path_52497" data-name="Path 52497" d="M319.011,306.942a.6.6,0,0,1-.6-.6v-9.76a.6.6,0,0,1,1.2,0v9.76A.6.6,0,0,1,319.011,306.942Z" transform="translate(-11.836 -215.232)" fill="#263238"/>
      <path id="Path_52498" data-name="Path 52498" d="M327.351,306.942a.6.6,0,0,1-.6-.6v-9.76a.6.6,0,1,1,1.2,0v9.76A.6.6,0,0,1,327.351,306.942Z" transform="translate(-10.152 -215.232)" fill="#263238"/>
      <path id="Path_52499" data-name="Path 52499" d="M335.691,306.942a.6.6,0,0,1-.6-.6v-9.76a.613.613,0,0,1,.6-.6.6.6,0,0,1,.6.6v9.76A.6.6,0,0,1,335.691,306.942Z" transform="translate(-8.467 -215.232)" fill="#263238"/>
      <path id="Path_52500" data-name="Path 52500" d="M344.031,306.942a.6.6,0,0,1-.6-.6v-9.76a.613.613,0,0,1,.6-.6.6.6,0,0,1,.6.6v9.76A.6.6,0,0,1,344.031,306.942Z" transform="translate(-6.783 -215.232)" fill="#263238"/>
      <path id="Path_52501" data-name="Path 52501" d="M352.381,306.942a.6.6,0,0,1-.6-.6v-9.76a.6.6,0,0,1,.6-.6.613.613,0,0,1,.6.6v9.76A.6.6,0,0,1,352.381,306.942Z" transform="translate(-5.096 -215.232)" fill="#263238"/>
      <path id="Path_52502" data-name="Path 52502" d="M360.721,306.942a.6.6,0,0,1-.6-.6v-9.76a.6.6,0,1,1,1.2,0v9.76A.6.6,0,0,1,360.721,306.942Z" transform="translate(-3.412 -215.232)" fill="#263238"/>
      <path id="Path_52503" data-name="Path 52503" d="M212.245,230.9h-101.9L63.85,291.251V416.688h148.4V230.9Z" transform="translate(-63.249 -228.376)" fill="#fff"/>
      <path id="Path_52504" data-name="Path 52504" d="M212.346,417.426H63.951a.6.6,0,0,1-.6-.6V291.352a.613.613,0,0,1,.12-.361l46.5-60.351a.565.565,0,0,1,.469-.24h101.9a.6.6,0,0,1,.6.6V416.789a.6.6,0,0,1-.6.637ZM64.5,416.224H211.745V231.6H110.78L64.552,291.556Z" transform="translate(-63.35 -228.477)" fill="#263238"/>
      <rect id="Rectangle_4499" data-name="Rectangle 4499" width="8.81" height="100.965" transform="translate(145.414 0.601)" fill="#263238"/>
      <path id="Path_52505" data-name="Path 52505" d="M193.253,330.967h-8.822a.6.6,0,0,1-.6-.6V229.4a.613.613,0,0,1,.6-.6h8.822a.613.613,0,0,1,.6.6V330.366A.6.6,0,0,1,193.253,330.967Zm-8.221-1.2h7.62V230h-7.62Z" transform="translate(-39.017 -228.8)" fill="#263238"/>
      <circle id="Ellipse_1177" data-name="Ellipse 1177" cx="5.108" cy="5.108" r="5.108" transform="translate(17.008 97.768)" fill="#263238"/>
      <path id="Path_52506" data-name="Path 52506" d="M82.709,321.059a5.709,5.709,0,1,1,5.709-5.709,5.709,5.709,0,0,1-5.709,5.709Zm0-10.217a4.507,4.507,0,1,0,4.507,4.507A4.507,4.507,0,0,0,82.709,310.842Z" transform="translate(-60.593 -212.473)" fill="#263238"/>
      <circle id="Ellipse_1178" data-name="Ellipse 1178" cx="5.108" cy="5.108" r="5.108" transform="translate(17.008 123.61)" fill="#263238"/>
      <path id="Path_52507" data-name="Path 52507" d="M82.709,342.559a5.709,5.709,0,1,1,5.709-5.709,5.709,5.709,0,0,1-5.709,5.709Zm0-10.217a4.507,4.507,0,1,0,4.507,4.507,4.507,4.507,0,0,0-4.507-4.507Z" transform="translate(-60.593 -208.131)" fill="#263238"/>
      <path id="Path_52508" data-name="Path 52508" d="M95.1,416.945a.6.6,0,0,1-.6-.6V309.97a.6.6,0,0,1,.6-.6h29.448V231.241a.6.6,0,0,1,1.2,0V309.97a.6.6,0,0,1-.6.6H95.7V416.344A.6.6,0,0,1,95.1,416.945Z" transform="translate(-57.059 -228.428)" fill="#263238"/>
      <path id="Path_52509" data-name="Path 52509" d="M101.014,370.342H64.041a.6.6,0,1,1,0-1.2h36.973a.6.6,0,1,1,0,1.2Z" transform="translate(-63.332 -200.456)" fill="#263238"/>
      <rect id="Rectangle_4500" data-name="Rectangle 4500" width="6.01" height="6.01" transform="translate(43.247 134.428)" fill="#fff"/>
      <path id="Path_52510" data-name="Path 52510" d="M105.441,347.352h-6.01a.613.613,0,0,1-.6-.6v-6.01a.6.6,0,0,1,.6-.6h6.01a.6.6,0,0,1,.6.6v6.01A.6.6,0,0,1,105.441,347.352Zm-5.409-1.2h4.808v-4.808h-4.808Z" transform="translate(-56.184 -206.313)" fill="#263238"/>
      <rect id="Rectangle_4501" data-name="Rectangle 4501" width="6.01" height="6.01" transform="translate(52.466 134.428)" fill="#fff"/>
      <path id="Path_52511" data-name="Path 52511" d="M113.111,347.352H107.1a.6.6,0,0,1-.6-.6v-6.01a.6.6,0,0,1,.6-.6h6.01a.6.6,0,0,1,.6.6v6.01A.6.6,0,0,1,113.111,347.352Zm-5.409-1.2h4.808v-4.808H107.7Z" transform="translate(-54.635 -206.313)" fill="#263238"/>
      <rect id="Rectangle_4502" data-name="Rectangle 4502" width="6.01" height="6.01" transform="translate(61.685 134.428)" fill="#fff"/>
      <path id="Path_52512" data-name="Path 52512" d="M120.781,347.352h-6.01a.6.6,0,0,1-.6-.6v-6.01a.6.6,0,0,1,.6-.6h6.01a.6.6,0,0,1,.6.6v6.01a.613.613,0,0,1-.6.6Zm-5.409-1.2h4.808v-4.808h-4.808Z" transform="translate(-53.086 -206.313)" fill="#263238"/>
      <rect id="Rectangle_4503" data-name="Rectangle 4503" width="6.01" height="6.01" transform="translate(43.247 145.643)" fill="#fff"/>
      <path id="Path_52513" data-name="Path 52513" d="M105.441,356.682h-6.01a.6.6,0,0,1-.6-.6v-6.01a.6.6,0,0,1,.6-.6h6.01a.6.6,0,0,1,.6.6v6.01A.6.6,0,0,1,105.441,356.682Zm-5.409-1.2h4.808v-4.808h-4.808Z" transform="translate(-56.184 -204.428)" fill="#263238"/>
      <rect id="Rectangle_4504" data-name="Rectangle 4504" width="6.01" height="6.01" transform="translate(52.466 145.643)" fill="#fff"/>
      <path id="Path_52514" data-name="Path 52514" d="M113.111,356.682H107.1a.6.6,0,0,1-.6-.6v-6.01a.6.6,0,0,1,.6-.6h6.01a.6.6,0,0,1,.6.6v6.01A.6.6,0,0,1,113.111,356.682Zm-5.409-1.2h4.808v-4.808H107.7Z" transform="translate(-54.635 -204.428)" fill="#263238"/>
      <rect id="Rectangle_4505" data-name="Rectangle 4505" width="6.01" height="6.01" transform="translate(61.685 145.643)" fill="#fff"/>
      <path id="Path_52515" data-name="Path 52515" d="M120.781,356.682h-6.01a.6.6,0,0,1-.6-.6v-6.01a.6.6,0,0,1,.6-.6h6.01a.6.6,0,0,1,.6.6v6.01A.6.6,0,0,1,120.781,356.682Zm-5.409-1.2h4.808v-4.808h-4.808Z" transform="translate(-53.086 -204.428)" fill="#263238"/>
      <rect id="Rectangle_4506" data-name="Rectangle 4506" width="6.01" height="6.01" transform="translate(43.247 156.857)" fill="#fff"/>
      <path id="Path_52516" data-name="Path 52516" d="M105.441,366.012h-6.01a.6.6,0,0,1-.6-.6V359.4a.613.613,0,0,1,.6-.6h6.01a.6.6,0,0,1,.6.6v6.01A.6.6,0,0,1,105.441,366.012Zm-5.409-1.2h4.808V360h-4.808Z" transform="translate(-56.184 -202.544)" fill="#263238"/>
      <rect id="Rectangle_4507" data-name="Rectangle 4507" width="6.01" height="6.01" transform="translate(52.466 156.857)" fill="#fff"/>
      <path id="Path_52517" data-name="Path 52517" d="M113.111,366.012H107.1a.6.6,0,0,1-.6-.6V359.4a.6.6,0,0,1,.6-.6h6.01a.6.6,0,0,1,.6.6v6.01A.6.6,0,0,1,113.111,366.012Zm-5.409-1.2h4.808V360H107.7Z" transform="translate(-54.635 -202.544)" fill="#263238"/>
      <rect id="Rectangle_4508" data-name="Rectangle 4508" width="6.01" height="6.01" transform="translate(61.685 156.857)" fill="#fff"/>
      <path id="Path_52518" data-name="Path 52518" d="M120.781,366.012h-6.01a.6.6,0,0,1-.6-.6V359.4a.6.6,0,0,1,.6-.6h6.01a.613.613,0,0,1,.6.6v6.01A.6.6,0,0,1,120.781,366.012Zm-5.409-1.2h4.808V360h-4.808Z" transform="translate(-53.086 -202.544)" fill="#263238"/>
    </g>
    <g id="freepik--Character--inject-2" transform="translate(148.404 223.873)">
      <path id="Path_52519" data-name="Path 52519" d="M143.582,375.489a22.405,22.405,0,0,0,5.709,5.168c2.993,1.635,8.161,3.534,8.161,4.892v1.37H133.51l.276-12.02Z" transform="translate(-132.164 -167.936)" fill="#fff"/>
      <path id="Path_52520" data-name="Path 52520" d="M157.554,387.622H133.611a.613.613,0,0,1-.6-.625l.276-12.02a.577.577,0,0,1,.192-.421.553.553,0,0,1,.445-.156l9.8.541a.649.649,0,0,1,.445.228,21.876,21.876,0,0,0,5.517,5.012c.841.457,1.887.95,2.9,1.43,3.462,1.635,5.577,2.7,5.577,3.991v1.37a.6.6,0,0,1-.6.649Zm-23.33-1.2h22.729v-.769c-.1-.637-3.221-2.115-4.892-2.909-1.022-.481-2.079-.986-2.957-1.454a22.14,22.14,0,0,1-5.721-5.108l-8.907-.5Z" transform="translate(-132.265 -168.038)" fill="#263238"/>
      <path id="Path_52521" data-name="Path 52521" d="M133.51,385.346h23.943v-1.37c0-.385-.433-.829-1.118-1.286H133.57Z" transform="translate(-132.164 -166.363)" fill="#fff"/>
      <path id="Path_52522" data-name="Path 52522" d="M157.554,386.048H133.611a.613.613,0,0,1-.6-.625l.06-2.656a.6.6,0,0,1,.6-.577h22.765a.649.649,0,0,1,.337.1c.649.445,1.382,1.046,1.382,1.791v1.37A.6.6,0,0,1,157.554,386.048Zm-23.33-1.2h22.729v-.769s0-.216-.709-.685H134.26Z" transform="translate(-132.265 -166.464)" fill="#263238"/>
      <path id="Path_52523" data-name="Path 52523" d="M140.062,299.785s.805,30.842.805,34.448-3.606,10.818-4.411,18.03S133.74,391.5,133.74,391.5h9.616s6.719-32.814,10.325-47.646,6.01-50.879,6.01-50.879H141.264Z" transform="translate(-132.117 -184.483)" fill="#263238"/>
      <path id="Path_52524" data-name="Path 52524" d="M143.457,392.2h-9.616a.613.613,0,0,1-.6-.637c0-.325,1.923-32.117,2.716-39.256a58.643,58.643,0,0,1,2.729-11.106,28.008,28.008,0,0,0,1.683-6.863c0-3.606-.793-34.124-.805-34.436a.409.409,0,0,1,0-.12l1.2-6.815a.589.589,0,0,1,.589-.493H159.78a.625.625,0,0,1,.445.192.6.6,0,0,1,.156.445c0,.361-2.4,36.287-6.01,50.987s-10.253,47.285-10.325,47.622A.6.6,0,0,1,143.457,392.2Zm-8.979-1.2h8.486c.853-4.123,6.911-33.5,10.241-47.189s5.6-45.23,6.01-50.134H141.87l-1.106,6.25c0,1.539.805,30.915.805,34.412a28.391,28.391,0,0,1-1.743,7.212,57.236,57.236,0,0,0-2.668,10.818C136.425,358.987,134.755,386.44,134.478,391Z" transform="translate(-132.218 -184.584)" fill="#263238"/>
      <path id="Path_52525" data-name="Path 52525" d="M135.414,279s-.541,13.33,1.094,17.957,4.075,13.606,4.075,13.606,2.993,22.309,2.993,25.854-3.534,12.789-3.534,20.133,2.993,37.826,2.993,37.826l9.8.541s5.445-37.549,7.885-51.432,2.728-34.857,1.911-41.36-.541-22.585-.541-22.585Z" transform="translate(-131.797 -187.305)" fill="#263238"/>
      <path id="Path_52526" data-name="Path 52526" d="M152.932,395.57h0l-9.8-.553a.6.6,0,0,1-.565-.541c-.12-1.2-2.993-30.578-2.993-37.874,0-4.411,1.2-9.5,2.26-13.582a35.756,35.756,0,0,0,1.274-6.551c0-3.462-2.957-25.554-2.981-25.77,0,0-2.4-8.943-4.063-13.486s-1.2-17.633-1.118-18.186a.577.577,0,0,1,.613-.577l26.672.541a.625.625,0,0,1,.589.613c0,.156-.264,16.082.541,22.5.769,6.178.625,27.152-1.911,41.54-2.4,13.714-7.837,51.036-7.9,51.408a.589.589,0,0,1-.625.517Zm-9.243-1.719,8.726.481c.685-4.676,5.553-38.078,7.813-50.891,2.524-14.279,2.668-35.073,1.9-41.191-.733-5.854-.6-19.051-.553-22.068l-25.482-.517c-.072,2.62-.3,13.222,1.082,17.152,1.623,4.592,4.063,13.546,4.087,13.642.144.986,3.017,22.465,3.017,26.011a35.662,35.662,0,0,1-1.31,6.839c-.986,4.027-2.224,9.027-2.224,13.294,0,6.707,2.548,33.222,2.945,37.249Z" transform="translate(-131.897 -187.416)" fill="#263238"/>
      <path id="Path_52527" data-name="Path 52527" d="M168.965,277.405l-6.635-8.474,19.9-15.481,10.313,7.56Z" transform="translate(-126.343 -192.465)" fill="#263238"/>
      <path id="Path_52528" data-name="Path 52528" d="M169.066,278.106a.6.6,0,0,1-.481-.228l-6.623-8.474a.613.613,0,0,1-.132-.445.637.637,0,0,1,.228-.4l19.9-15.481a.589.589,0,0,1,.721,0l10.325,7.56a.6.6,0,0,1,0,.974L169.415,278.01a.565.565,0,0,1-.349.1Zm-5.83-8.967,6.01,7.548,22.429-15.626-9.267-6.791Z" transform="translate(-126.445 -192.565)" fill="#263238"/>
      <path id="Path_52529" data-name="Path 52529" d="M169.68,275.336l-5.83-7.44,17.489-13.606,9.063,6.647Z" transform="translate(-126.036 -192.296)" fill="#fff"/>
      <path id="Path_52530" data-name="Path 52530" d="M169.721,275.685a.3.3,0,0,1-.228-.108l-5.83-7.452a.288.288,0,0,1,0-.216.312.312,0,0,1,.108-.2L181.26,254.11a.313.313,0,0,1,.361,0l9.063,6.635a.277.277,0,0,1,.12.252.3.3,0,0,1-.12.24l-20.722,14.424A.336.336,0,0,1,169.721,275.685Zm-5.4-7.693,5.469,6.983,20.133-14-8.534-6.25Z" transform="translate(-126.078 -192.344)" fill="#263238"/>
      <path id="Path_52531" data-name="Path 52531" d="M164.866,260.552s4.423-2.764,5.9-2.957,7.56.553,7.921,1.3,0,1.659-.733,1.659-5.709-1.106-5.709-1.106l-3.317,2.765s6.815-.192,6.815.914-1.839,1.286-2.765,1.106a36.451,36.451,0,0,0-4.243-.18c-.553,0-3.125,1.839-5.156,1.839h-3.125l-.745-2.765Z" transform="translate(-126.872 -191.634)" fill="#fff"/>
      <path id="Path_52532" data-name="Path 52532" d="M163.691,266.6h-3.125a.6.6,0,0,1-.589-.445l-.733-2.764a.613.613,0,0,1,.313-.7l5.132-2.56c.565-.361,4.579-2.825,6.118-3.017,1-.12,7.9.337,8.534,1.611a1.923,1.923,0,0,1,0,1.839,1.43,1.43,0,0,1-1.2.685c-.7,0-4.3-.769-5.553-1.046l-1.791,1.49c2.043,0,4.724.18,5.445.877a.914.914,0,0,1,.288.661,1.467,1.467,0,0,1-.565,1.2,3.966,3.966,0,0,1-2.921.529,30.665,30.665,0,0,0-4.123-.168,7.307,7.307,0,0,0-.9.433,10.361,10.361,0,0,1-4.327,1.37Zm-2.668-1.2h2.668a9.689,9.689,0,0,0,3.714-1.274,3.691,3.691,0,0,1,1.442-.565,33.258,33.258,0,0,1,4.363.192,2.825,2.825,0,0,0,1.911-.276.265.265,0,0,0,.1-.108,22.166,22.166,0,0,0-6.166-.457.6.6,0,0,1-.577-.385.577.577,0,0,1,.18-.673l3.317-2.764a.565.565,0,0,1,.517-.12c2.4.529,5.144,1.082,5.577,1.082a.2.2,0,0,0,.192-.12.7.7,0,0,0,0-.661,25.013,25.013,0,0,0-7.32-.962,25.868,25.868,0,0,0-5.649,2.861h0l-4.724,2.4ZM164.965,260.587Z" transform="translate(-126.97 -191.729)" fill="#263238"/>
      <path id="Path_52533" data-name="Path 52533" d="M162.323,264.955l-11.8,3.69.553-6.455h10.505Z" transform="translate(-128.728 -190.7)" fill="#fff"/>
      <path id="Path_52534" data-name="Path 52534" d="M150.62,269.347a.613.613,0,0,1-.373-.132.6.6,0,0,1-.216-.529l.553-6.443a.589.589,0,0,1,.589-.553h10.505a.6.6,0,0,1,.589.445L163,264.9a.6.6,0,0,1-.409.733L150.8,269.274Zm1.106-6.455L151.3,267.9l10.385-3.245-.469-1.767Z" transform="translate(-128.828 -190.801)" fill="#263238"/>
      <path id="Path_52535" data-name="Path 52535" d="M157.13,240.286s4.892,10.613,5.445,18.775,1.9,26.672,2.176,28.294-2.176,3.269-2.993,3.546-20.95,1.082-23.4.541-5.445-4.351-5.445-6.262,3.269-39.449,3.534-43.271,9.207-9.988,9.207-9.988Z" transform="translate(-132.285 -196.814)" fill="#938c78"/>
      <path id="Path_52536" data-name="Path 52536" d="M143.112,292.322a35.059,35.059,0,0,1-4.808-.192c-2.741-.613-5.914-4.664-5.914-6.851,0-1.2,1.322-16.828,2.4-29.388.565-6.731,1.058-12.549,1.2-13.919.288-3.979,8.522-9.784,9.459-10.433a.6.6,0,0,1,.7,0l11.479,8.354a.5.5,0,0,1,.192.228c.2.445,4.952,10.818,5.505,18.991.565,8.57,1.9,26.66,2.164,28.234.361,2.164-2.608,3.942-3.4,4.207S149.867,292.322,143.112,292.322Zm2.632-59.546c-2.62,1.863-8.414,6.527-8.594,9.279-.1,1.382-.589,7.212-1.2,13.943-1.01,11.851-2.4,28.09-2.4,29.28,0,1.551,2.68,5.168,4.976,5.673s21.852-.24,23.1-.529c.721-.24,2.753-1.707,2.56-2.861-.276-1.671-1.611-19.881-2.176-28.366-.5-7.452-4.808-17.14-5.325-18.414Z" transform="translate(-132.39 -196.913)" fill="#263238"/>
      <path id="Path_52537" data-name="Path 52537" d="M142.47,217.458l2.993,9.447-1.743,8.45,9.447,7.957,4.471-9.94-.252-18.4Z" transform="translate(-130.354 -200.237)" fill="#fff"/>
      <path id="Path_52538" data-name="Path 52538" d="M153.268,244.014a.625.625,0,0,1-.385-.132l-9.459-7.957a.6.6,0,0,1-.192-.589l1.707-8.294-2.933-9.3a.553.553,0,0,1,.06-.493.6.6,0,0,1,.409-.288l14.916-2.476a.589.589,0,0,1,.7.577l.252,18.4a.589.589,0,0,1,0,.252l-4.483,9.952a.577.577,0,0,1-.409.337Zm-8.786-8.786,8.558,7.212,4.1-9.1-.24-17.561-13.546,2.26,2.777,8.786a.517.517,0,0,1,0,.3Z" transform="translate(-130.455 -200.338)" fill="#263238"/>
      <path id="Path_52539" data-name="Path 52539" d="M147.981,221.18l-5.721,2.728,1.25,2.981,5.469-2.728Z" transform="translate(-130.397 -198.983)" fill="#fff"/>
      <path id="Path_52540" data-name="Path 52540" d="M143.6,227.586a.566.566,0,0,1-.2,0,.613.613,0,0,1-.349-.325l-1.2-2.993a.6.6,0,0,1,.3-.769l5.721-2.741a.637.637,0,0,1,.493,0,.649.649,0,0,1,.337.373l1,2.981a.6.6,0,0,1-.312.721l-5.469,2.741a.505.505,0,0,1-.313.012Zm-.469-3.281.769,1.863,4.435-2.224-.613-1.839Z" transform="translate(-130.489 -199.078)" fill="#263238"/>
      <path id="Path_52541" data-name="Path 52541" d="M164.931,215.59l1.2,5.469s2.74,2,1.983,2.981a17.536,17.536,0,0,1-2.236,2.248s-1.743,8.2-2.981,8.414a15.95,15.95,0,0,1-8.414-1.2c-2.741-1.49-5.721-6.959-5.721-6.959l-.5-9.7Z" transform="translate(-129.185 -200.112)" fill="#fff"/>
      <path id="Path_52542" data-name="Path 52542" d="M161.272,235.554a15.625,15.625,0,0,1-6.947-1.442c-2.861-1.551-5.842-6.971-6.01-7.212a.469.469,0,0,1-.072-.252l-.493-9.7a.589.589,0,0,1,.553-.625l16.659-1.2a.6.6,0,0,1,.625.469l1.2,5.253c.577.445,2,1.635,2.164,2.716a1.262,1.262,0,0,1-.24.974,17.355,17.355,0,0,1-2.164,2.212c-.841,3.87-2.091,8.414-3.414,8.714A10.47,10.47,0,0,1,161.272,235.554Zm-11.791-9.1c.445.793,3.077,5.337,5.421,6.611a15.818,15.818,0,0,0,8.041,1.2c.553-.385,1.767-4.447,2.512-7.993a.685.685,0,0,1,.2-.337,16.4,16.4,0,0,0,2.152-2.139c-.084-.613-1.2-1.623-1.863-2.128a.661.661,0,0,1-.24-.361l-1.13-4.964-15.553,1.2Z" transform="translate(-129.288 -200.207)" fill="#263238"/>
      <path id="Path_52543" data-name="Path 52543" d="M154.09,218.069l.769,4.159s8.342.926,10.818-.613,1.082-5.709,0-6.322S154.09,218.069,154.09,218.069Z" transform="translate(-128.007 -200.187)" fill="#fff"/>
      <path id="Path_52544" data-name="Path 52544" d="M160.086,223.214a51.135,51.135,0,0,1-5.156-.288.6.6,0,0,1-.529-.493l-.769-4.159a.6.6,0,0,1,.409-.685c4.015-1.3,10.914-3.378,12.02-2.728a5.18,5.18,0,0,1,1.683,3.93,3.762,3.762,0,0,1-1.647,3.474C164.894,223,162.358,223.214,160.086,223.214Zm-4.579-1.442c2.548.252,8.209.529,9.976-.565a2.656,2.656,0,0,0,1.094-2.4,4.243,4.243,0,0,0-1.082-2.909c-.745-.2-5.878,1.2-10.589,2.668Z" transform="translate(-128.102 -200.284)" fill="#263238"/>
      <path id="Path_52545" data-name="Path 52545" d="M141.954,221.07l32.826-3.233-6.2-2.728-3.738-10.193a4.315,4.315,0,0,0-2.981-1c-1.983,0-10.193-2-14.916.745S140.212,210.877,141.954,221.07Z" transform="translate(-130.584 -202.611)" fill="#938c78"/>
      <path id="Path_52546" data-name="Path 52546" d="M142.055,221.773a.589.589,0,0,1-.589-.493c-1.827-10.7.445-14.243,5.265-17.032,3.87-2.248,9.724-1.49,13.222-1.046a19.886,19.886,0,0,0,2,.216,4.988,4.988,0,0,1,3.414,1.2.5.5,0,0,1,.132.216l3.606,9.952,6.01,2.644a.6.6,0,0,1-.18,1.142L142.1,221.809Zm11.839-17.849a13.4,13.4,0,0,0-6.563,1.358c-4.375,2.536-6.322,5.613-4.808,15.241l29.977-2.957-4.111-1.815a.529.529,0,0,1-.325-.337l-3.678-10.048a3.954,3.954,0,0,0-2.476-.745,20.862,20.862,0,0,1-2.152-.216,44.474,44.474,0,0,0-5.866-.481Z" transform="translate(-130.684 -202.713)" fill="#263238"/>
      <path id="Path_52547" data-name="Path 52547" d="M157.036,221.749l-13.113-.613-.613-1.851,12.957-1.695Z" transform="translate(-130.185 -199.708)" fill="#263238"/>
      <path id="Path_52548" data-name="Path 52548" d="M157.143,222.452h0l-13.137-.661a.6.6,0,0,1-.541-.409l-.625-1.851a.6.6,0,0,1,0-.517.625.625,0,0,1,.433-.276l12.993-1.647a.589.589,0,0,1,.661.493l.781,4.159a.637.637,0,0,1-.144.5A.589.589,0,0,1,157.143,222.452Zm-12.669-1.791,11.948.553-.529-2.861-11.647,1.539Z" transform="translate(-130.291 -199.81)" fill="#263238"/>
      <path id="Path_52549" data-name="Path 52549" d="M149.386,226.988h0a3.606,3.606,0,0,1-3.606-3.606v-2.777A3.606,3.606,0,0,1,149.386,217h0a3.606,3.606,0,0,1,3.606,3.606v2.728a3.606,3.606,0,0,1-3.606,3.654Z" transform="translate(-129.686 -199.827)" fill="#fff"/>
      <path id="Path_52550" data-name="Path 52550" d="M149.487,227.69a4.207,4.207,0,0,1-4.207-4.207v-2.777a4.207,4.207,0,0,1,8.414,0v2.728a4.207,4.207,0,0,1-4.207,4.255Zm0-9.94a3,3,0,0,0-3,3v2.728a3,3,0,0,0,6.01,0v-2.777a3,3,0,0,0-3-2.957Z" transform="translate(-129.787 -199.928)" fill="#263238"/>
      <path id="Path_52551" data-name="Path 52551" d="M142.252,229.01l14.82,9.568-1.082,5.565L140.87,233.493Z" transform="translate(-130.677 -197.401)" fill="#fff"/>
      <path id="Path_52552" data-name="Path 52552" d="M156.093,244.844a.553.553,0,0,1-.349-.12l-15.121-10.637a.589.589,0,0,1-.228-.673l1.382-4.471a.673.673,0,0,1,.373-.4.625.625,0,0,1,.529.06l14.82,9.616a.625.625,0,0,1,.264.625l-1.082,5.553a.6.6,0,0,1-.361.445.782.782,0,0,1-.228,0Zm-14.424-11.491,14.015,9.856.817-4.243-13.811-8.919Z" transform="translate(-130.779 -197.502)" fill="#263238"/>
      <path id="Path_52553" data-name="Path 52553" d="M141.812,240.245s-2.4-.541-3.81,2.993-2.4,42.718-1.9,44.894a6.154,6.154,0,0,0,5.168,4.087c1.911,0,33.2-12.525,33.2-12.525l-.817-3.534L147.8,277.254l2.4-25.854" transform="translate(-131.667 -195.138)" fill="#938c78"/>
      <path id="Path_52554" data-name="Path 52554" d="M141.376,292.943a6.743,6.743,0,0,1-5.745-4.543c-.661-2.62.565-41.72,1.923-45.254,1.2-3.185,3.474-3.606,4.5-3.366a.6.6,0,0,1,.457.721.613.613,0,0,1-.709.457c-.1,0-1.983-.337-3.125,2.62-1.2,3.233-2.488,42.069-1.887,44.473a5.565,5.565,0,0,0,4.592,3.606c1.454-.06,20.049-7.308,32.453-12.284l-.589-2.548-25.349,1.07a.613.613,0,0,1-.469-.192.565.565,0,0,1-.156-.469l2.4-25.854a.613.613,0,0,1,.661-.541.6.6,0,0,1,.541.661l-2.4,25.157,25.157-1.058a.625.625,0,0,1,.613.469l.817,3.534a.625.625,0,0,1-.361.7C169.551,282.449,143.324,292.943,141.376,292.943Z" transform="translate(-131.773 -195.238)" fill="#263238"/>
      <path id="Path_52555" data-name="Path 52555" d="M167.32,271.406s4.315-3.45,4.868-4.736,4.243-1.851,4.808-2.031,1.286-1.286,1.839-.733,0,1.839-.553,2.019-3.5,1.851-3.5,1.851l6.815-.553a1.2,1.2,0,0,1,.373,1.466c-.373.926-2.031,1.659-2.031,1.659s-1.466,1.3-2.945,2.4-8.846,2.188-8.846,2.188Z" transform="translate(-125.335 -190.384)" fill="#fff"/>
      <path id="Path_52556" data-name="Path 52556" d="M168.238,275.643a.6.6,0,0,1-.589-.457l-.817-3.546a.613.613,0,0,1,.216-.6c1.623-1.3,4.339-3.666,4.688-4.507.529-1.2,2.668-1.791,4.628-2.236l.529-.12a2.857,2.857,0,0,0,.421-.3c.421-.336,1.286-1.046,2.043-.3a1.635,1.635,0,0,1,.337,1.551,2.007,2.007,0,0,1-1.13,1.478,4.637,4.637,0,0,0-.913.445l3.991-.325a.589.589,0,0,1,.409.12,1.839,1.839,0,0,1,.565,2.176,4.736,4.736,0,0,1-2.248,1.947c-.312.264-1.611,1.382-2.921,2.4-1.551,1.2-8.354,2.188-9.123,2.308Zm-.144-3.906.6,2.632c2.837-.445,7.1-1.31,8.029-2,1.442-1.082,2.9-2.4,2.909-2.4a.42.42,0,0,1,.156-.1,3.787,3.787,0,0,0,1.707-1.334.637.637,0,0,0,0-.625l-6.539.529a.6.6,0,0,1-.349-1.13c.5-.276,3.029-1.695,3.606-1.887a1.118,1.118,0,0,0,.361-.685.493.493,0,0,0,0-.349,3.423,3.423,0,0,1-.433.373,2.994,2.994,0,0,1-.793.517l-.661.156c-.853.192-3.438.769-3.774,1.539C172.325,268.239,169.236,270.811,168.094,271.737Z" transform="translate(-125.436 -190.487)" fill="#263238"/>
      <path id="Path_52557" data-name="Path 52557" d="M151.582,375.489a22.4,22.4,0,0,0,5.709,5.168c2.993,1.635,8.161,3.534,8.161,4.892v1.37H141.51l.276-12.02Z" transform="translate(-130.548 -167.936)" fill="#fff"/>
      <path id="Path_52558" data-name="Path 52558" d="M165.554,387.622H141.611a.613.613,0,0,1-.6-.625l.276-12.02a.577.577,0,0,1,.192-.421.553.553,0,0,1,.445-.156l9.8.541a.649.649,0,0,1,.445.228,21.876,21.876,0,0,0,5.517,5.012c.841.457,1.887.95,2.9,1.43,3.462,1.635,5.577,2.7,5.577,3.991v1.37a.6.6,0,0,1-.6.649Zm-23.33-1.2h22.729v-.769c-.1-.637-3.221-2.115-4.892-2.909-1.022-.481-2.079-.986-2.957-1.454a22.141,22.141,0,0,1-5.721-5.108l-8.907-.5Z" transform="translate(-130.649 -168.038)" fill="#263238"/>
      <path id="Path_52559" data-name="Path 52559" d="M141.51,385.346h23.943v-1.37c0-.385-.433-.829-1.118-1.286H141.57Z" transform="translate(-130.548 -166.363)" fill="#fff"/>
      <path id="Path_52560" data-name="Path 52560" d="M165.554,386.048H141.611a.613.613,0,0,1-.6-.625l.06-2.656a.6.6,0,0,1,.6-.577h22.765a.649.649,0,0,1,.337.1c.649.445,1.382,1.046,1.382,1.791v1.37A.6.6,0,0,1,165.554,386.048Zm-23.33-1.2h22.729v-.769s0-.216-.709-.685H142.26Z" transform="translate(-130.649 -166.464)" fill="#263238"/>
    </g>
    <g id="freepik--Box--inject-2" transform="translate(339.349 304.895)">
      <rect id="Rectangle_4509" data-name="Rectangle 4509" width="36.323" height="30.506" transform="translate(0.601 0.601)" fill="#fff"/>
      <path id="Path_52561" data-name="Path 52561" d="M328.211,301.816h-36.36a.6.6,0,0,1-.6-.6V270.721a.6.6,0,0,1,.6-.6h36.36a.6.6,0,0,1,.6.6v30.506A.6.6,0,0,1,328.211,301.816Zm-35.735-1.2H327.61V271.322H292.452Z" transform="translate(-291.25 -270.12)" fill="#263238"/>
      <rect id="Rectangle_4510" data-name="Rectangle 4510" width="26.551" height="30.506" transform="translate(15.974 0.601)" fill="#263238"/>
      <path id="Path_52562" data-name="Path 52562" d="M331.192,301.816H304.641a.6.6,0,0,1-.6-.6V270.721a.6.6,0,0,1,.6-.6h26.551a.6.6,0,0,1,.6.6v30.506A.6.6,0,0,1,331.192,301.816Zm-25.95-1.2h25.349V271.322h-25.4Z" transform="translate(-288.667 -270.12)" fill="#263238"/>
    </g>
    <g id="freepik--robotic-arm-3--inject-2" transform="translate(372.107 241.191)">
      <path id="Path_52563" data-name="Path 52563" d="M373.45,266.48h47.237a15.926,15.926,0,0,1,15.926,15.926v61H367.5V272.49a6.01,6.01,0,0,1,5.95-6.01Z" transform="translate(-308.608 -207.151)" fill="#fff"/>
      <path id="Path_52564" data-name="Path 52564" d="M436.714,344.132H367.6a.6.6,0,0,1-.6-.6v-71a6.563,6.563,0,0,1,6.551-6.551h47.237a16.551,16.551,0,0,1,16.527,16.527v61a.6.6,0,0,1-.6.625Zm-68.512-1.2h67.911V282.507a15.337,15.337,0,0,0-15.325-15.3H373.551a5.361,5.361,0,0,0-5.349,5.349Z" transform="translate(-308.709 -207.252)" fill="#263238"/>
      <path id="Path_52565" data-name="Path 52565" d="M364.613,317h79.33a8.113,8.113,0,0,1,8.113,8.113v14.724H356.5V325.089A8.113,8.113,0,0,1,364.613,317Z" transform="translate(-310.83 -196.947)" fill="#938c78"/>
      <path id="Path_52566" data-name="Path 52566" d="M452.157,340.519H356.6a.6.6,0,0,1-.6-.6V325.194a8.726,8.726,0,0,1,8.714-8.714h79.33a8.726,8.726,0,0,1,8.714,8.714v14.748A.6.6,0,0,1,452.157,340.519Zm-94.955-1.2h94.355V325.194a7.512,7.512,0,0,0-7.512-7.512h-79.33a7.512,7.512,0,0,0-7.512,7.512Z" transform="translate(-310.931 -197.052)" fill="#263238"/>
      <path id="Path_52567" data-name="Path 52567" d="M348.608,334.48H465.2a5.108,5.108,0,0,1,5.108,5.108v56.18H343.5v-56.18A5.108,5.108,0,0,1,348.608,334.48Z" transform="translate(-313.456 -193.417)" fill="#263238"/>
      <path id="Path_52568" data-name="Path 52568" d="M470.409,396.506H343.6a.6.6,0,0,1-.6-.6V339.689a5.709,5.709,0,0,1,5.709-5.709H465.3a5.709,5.709,0,0,1,5.709,5.709v56.18a.6.6,0,0,1-.6.637ZM344.2,395.3H469.808V339.689a4.507,4.507,0,0,0-4.507-4.507H348.709a4.507,4.507,0,0,0-4.507,4.507Z" transform="translate(-313.557 -193.518)" fill="#263238"/>
      <path id="Path_52569" data-name="Path 52569" d="M390.221,327.377a.6.6,0,0,1-.6-.6V312.124a.6.6,0,0,1,.6-.6h26.443V266.581a.6.6,0,0,1,1.2,0v45.543a.6.6,0,0,1-.6.6H390.822v14.051A.6.6,0,0,1,390.221,327.377Z" transform="translate(-304.141 -207.252)" fill="#263238"/>
      <path id="Path_52570" data-name="Path 52570" d="M426.958,289.562H412.751a.6.6,0,0,1,0-1.2h14.207a.6.6,0,0,1,0,1.2Z" transform="translate(-299.59 -202.732)" fill="#263238"/>
      <rect id="Rectangle_4511" data-name="Rectangle 4511" width="54.485" height="10.421" transform="translate(42.473 8.017)" fill="#fff"/>
      <path id="Path_52571" data-name="Path 52571" d="M408.426,234.951H353.941a.6.6,0,0,1-.6-.6V223.941a.6.6,0,0,1,.6-.6h54.485a.6.6,0,0,1,.6.6V234.35A.6.6,0,0,1,408.426,234.951Zm-53.884-1.2h53.283v-9.207H354.542Z" transform="translate(-311.468 -215.864)" fill="#263238"/>
      <path id="Path_52572" data-name="Path 52572" d="M368.4,234.659a.613.613,0,0,1-.6-.6V223.781a.6.6,0,0,1,1.2,0v10.277A.6.6,0,0,1,368.4,234.659Z" transform="translate(-308.548 -215.896)" fill="#263238"/>
      <path id="Path_52573" data-name="Path 52573" d="M371.431,234.659a.6.6,0,0,1-.6-.6V223.781a.6.6,0,1,1,1.2,0v10.277A.6.6,0,0,1,371.431,234.659Z" transform="translate(-307.936 -215.896)" fill="#263238"/>
      <path id="Path_52574" data-name="Path 52574" d="M374.461,234.659a.6.6,0,0,1-.6-.6V223.781a.6.6,0,0,1,1.2,0v10.277a.613.613,0,0,1-.6.6Z" transform="translate(-307.324 -215.896)" fill="#263238"/>
      <path id="Path_52575" data-name="Path 52575" d="M377.481,234.659a.613.613,0,0,1-.6-.6V223.781a.6.6,0,1,1,1.2,0v10.277A.6.6,0,0,1,377.481,234.659Z" transform="translate(-306.714 -215.896)" fill="#263238"/>
      <path id="Path_52576" data-name="Path 52576" d="M380.511,234.659a.6.6,0,0,1-.6-.6V223.781a.6.6,0,0,1,1.2,0v10.277A.6.6,0,0,1,380.511,234.659Z" transform="translate(-306.102 -215.896)" fill="#263238"/>
      <path id="Path_52577" data-name="Path 52577" d="M383.541,234.659a.6.6,0,0,1-.6-.6V223.781a.6.6,0,1,1,1.2,0v10.277A.613.613,0,0,1,383.541,234.659Z" transform="translate(-305.49 -215.896)" fill="#263238"/>
      <path id="Path_52578" data-name="Path 52578" d="M386.561,234.659a.613.613,0,0,1-.6-.6V223.781a.6.6,0,1,1,1.2,0v10.277A.6.6,0,0,1,386.561,234.659Z" transform="translate(-304.88 -215.896)" fill="#263238"/>
      <path id="Path_52579" data-name="Path 52579" d="M413.828,233.018,397.6,291.638a11,11,0,0,1-14,6.815h0a11.01,11.01,0,0,1-6.827-14L393,225.818a11.022,11.022,0,0,1,14-6.827h0a11.022,11.022,0,0,1,6.827,14.027Z" transform="translate(-306.857 -216.864)" fill="#938c78"/>
      <path id="Path_52580" data-name="Path 52580" d="M387.283,299.757a11.827,11.827,0,0,1-3.774-.625,11.623,11.623,0,0,1-7.212-14.772l16.215-58.6a11.635,11.635,0,1,1,22.02,7.524l-16.215,58.62A11.671,11.671,0,0,1,387.283,299.757Zm16.227-80.664a10.445,10.445,0,0,0-9.844,7.031l-16.215,58.608a10.421,10.421,0,1,0,19.688,6.815l16.191-58.6a10.433,10.433,0,0,0-9.856-13.811Z" transform="translate(-306.96 -216.965)" fill="#263238"/>
      <path id="Path_52581" data-name="Path 52581" d="M327.67,272.492l14.748-8.69-12.5-8.282Z" transform="translate(-316.653 -209.364)" fill="#263238"/>
      <path id="Path_52582" data-name="Path 52582" d="M327.77,273.2a.637.637,0,0,1-.325-.1.589.589,0,0,1-.264-.577l2.248-16.972a.6.6,0,0,1,.337-.469.613.613,0,0,1,.589,0l12.5,8.282a.565.565,0,0,1,.264.5.589.589,0,0,1-.288.5l-14.748,8.69a.576.576,0,0,1-.312.132Zm2.716-16.539-1.959,14.8,12.861-7.572Z" transform="translate(-316.753 -209.468)" fill="#263238"/>
      <rect id="Rectangle_4512" data-name="Rectangle 4512" width="8.414" height="40.398" transform="translate(42.864 7.411) rotate(33.52)" fill="#fff"/>
      <path id="Path_52583" data-name="Path 52583" d="M342.729,262.309a.541.541,0,0,1-.324-.1l-7.02-4.64a.589.589,0,0,1-.252-.385.613.613,0,0,1,.084-.457l22.308-33.655a.589.589,0,0,1,.829-.18l7.02,4.652a.565.565,0,0,1,.252.385.577.577,0,0,1-.084.445l-22.309,33.655A.6.6,0,0,1,342.729,262.309ZM336.55,256.9l6.01,3.979,21.635-32.67-6.01-3.991Z" transform="translate(-315.148 -215.973)" fill="#263238"/>
      <path id="Path_52584" data-name="Path 52584" d="M0,0H18.03V28.487A2.115,2.115,0,0,1,15.914,30.6H2.115A2.115,2.115,0,0,1,0,28.487Z" transform="translate(28.719 20.145) rotate(33.52)" fill="#938c78"/>
      <path id="Path_52585" data-name="Path 52585" d="M342.681,269.211a2.716,2.716,0,0,1-1.49-.457l-11.467-7.584a2.741,2.741,0,0,1-.769-3.774l15.77-23.751a.613.613,0,0,1,.841-.168l14.989,9.928a.6.6,0,0,1,.168.829l-15.734,23.751a2.728,2.728,0,0,1-2.308,1.226Zm2.68-34.4-15.4,23.246a1.526,1.526,0,0,0-.228,1.2,1.5,1.5,0,0,0,.649.962l11.467,7.6h0a1.527,1.527,0,0,0,2.1-.433l15.4-23.246Z" transform="translate(-316.483 -213.837)" fill="#263238"/>
      <circle id="Ellipse_1179" data-name="Ellipse 1179" cx="11.419" cy="11.419" r="11.419" transform="translate(33.458 0.601)" fill="#fff"/>
      <path id="Path_52586" data-name="Path 52586" d="M357.86,241.159a12.02,12.02,0,1,1,12.02-12.02A12.02,12.02,0,0,1,357.86,241.159Zm0-22.837a10.818,10.818,0,1,0,10.818,10.818A10.818,10.818,0,0,0,357.86,218.322Z" transform="translate(-312.983 -217.12)" fill="#263238"/>
      <circle id="Ellipse_1180" data-name="Ellipse 1180" cx="5.409" cy="5.409" r="5.409" transform="translate(39.468 6.611)" fill="#263238"/>
      <path id="Path_52587" data-name="Path 52587" d="M356.85,234.14a6.01,6.01,0,1,1,6.01-6.01A6.01,6.01,0,0,1,356.85,234.14Zm0-10.818a4.808,4.808,0,1,0,4.808,4.808A4.808,4.808,0,0,0,356.85,223.322Z" transform="translate(-311.973 -216.11)" fill="#263238"/>
      <circle id="Ellipse_1181" data-name="Ellipse 1181" cx="11.419" cy="11.419" r="11.419" transform="translate(85.539 0.601)" fill="#fff"/>
      <path id="Path_52588" data-name="Path 52588" d="M401.19,241.159a12.02,12.02,0,1,1,12.02-12.02A12.02,12.02,0,0,1,401.19,241.159Zm0-22.837a10.818,10.818,0,1,0,10.818,10.818A10.818,10.818,0,0,0,401.19,218.322Z" transform="translate(-304.232 -217.12)" fill="#263238"/>
      <circle id="Ellipse_1182" data-name="Ellipse 1182" cx="5.409" cy="5.409" r="5.409" transform="translate(91.549 6.611)" fill="#263238"/>
      <path id="Path_52589" data-name="Path 52589" d="M400.18,234.14a6.01,6.01,0,1,1,6.01-6.01,6.01,6.01,0,0,1-6.01,6.01Zm0-10.818a4.808,4.808,0,1,0,4.808,4.808A4.808,4.808,0,0,0,400.18,223.322Z" transform="translate(-303.222 -216.11)" fill="#263238"/>
      <circle id="Ellipse_1183" data-name="Ellipse 1183" cx="11.419" cy="11.419" r="11.419" transform="translate(69 59.762)" fill="#fff"/>
      <path id="Path_52590" data-name="Path 52590" d="M387.43,290.379a12.02,12.02,0,1,1,12.02-12.02A12.02,12.02,0,0,1,387.43,290.379Zm0-22.837a10.818,10.818,0,1,0,10.818,10.818A10.818,10.818,0,0,0,387.43,267.542Z" transform="translate(-307.011 -207.179)" fill="#263238"/>
      <circle id="Ellipse_1184" data-name="Ellipse 1184" cx="5.409" cy="5.409" r="5.409" transform="translate(75.01 65.772)" fill="#263238"/>
      <path id="Path_52591" data-name="Path 52591" d="M386.42,283.36a6.01,6.01,0,1,1,6.01-6.01A6.01,6.01,0,0,1,386.42,283.36Zm0-10.818a4.808,4.808,0,1,0,4.808,4.808A4.808,4.808,0,0,0,386.42,272.542Z" transform="translate(-306.001 -206.169)" fill="#263238"/>
      <path id="Path_52592" data-name="Path 52592" d="M326.231,267.48a.6.6,0,0,1-.577-.421l-1.779-5.7a.589.589,0,0,1,.385-.757.613.613,0,0,1,.757.4l1.779,5.7a.613.613,0,0,1-.4.757Z" transform="translate(-317.426 -208.343)" fill="#263238"/>
      <path id="Path_52593" data-name="Path 52593" d="M324.1,268.907a.6.6,0,0,1-.349-.108l-5-3.606a.6.6,0,0,1,.709-.974l4.988,3.606a.613.613,0,0,1,.132.841.577.577,0,0,1-.481.24Z" transform="translate(-318.504 -207.631)" fill="#263238"/>
      <path id="Path_52594" data-name="Path 52594" d="M337.895,271.623h0l-6.01-.361a.6.6,0,1,1,.072-1.2l6.01.361a.6.6,0,0,1,.565.637.589.589,0,0,1-.637.565Z" transform="translate(-315.916 -206.428)" fill="#263238"/>
      <path id="Path_52595" data-name="Path 52595" d="M332.757,280.47a.6.6,0,0,1-.541-.337l-3.606-7.128a.613.613,0,0,1,.264-.805.6.6,0,0,1,.805.276l3.606,7.116a.613.613,0,0,1-.276.817A.649.649,0,0,1,332.757,280.47Z" transform="translate(-316.475 -206.008)" fill="#263238"/>
      <path id="Path_52596" data-name="Path 52596" d="M336.131,275.95a.649.649,0,0,1-.3-.072l-2.488-1.43a.589.589,0,0,1-.228-.817.613.613,0,0,1,.817-.228l2.5,1.43a.6.6,0,0,1-.3,1.118Z" transform="translate(-315.57 -205.767)" fill="#263238"/>
    </g>
    <g id="freepik--robotic-arm-2--inject-2" transform="translate(316.764 97.94)">
      <path id="Path_52597" data-name="Path 52597" d="M299.432,168.568h-5.541a.6.6,0,0,1-.6-.6V98.541a.6.6,0,0,1,1.2,0v68.825h4.339V98.853a.6.6,0,1,1,1.2,0v69.113A.6.6,0,0,1,299.432,168.568Z" transform="translate(-268.253 -97.94)" fill="#263238"/>
      <path id="Path_52598" data-name="Path 52598" d="M277.154,251.869a2.4,2.4,0,0,1-2.4-2.4V228.214a2.4,2.4,0,0,1,4.808,0v21.251a2.4,2.4,0,0,1-2.4,2.4Z" transform="translate(-271.997 -72.114)" fill="#263238"/>
      <path id="Path_52599" data-name="Path 52599" d="M277.657,232.555a2.4,2.4,0,0,1-1.286-4.447l22.621-14.2a2.406,2.406,0,1,1,2.56,4.075l-22.657,14.2A2.4,2.4,0,0,1,277.657,232.555Z" transform="translate(-271.9 -74.592)" fill="#263238"/>
      <path id="Path_52600" data-name="Path 52600" d="M282.071,228.575a4.555,4.555,0,1,0-4.555,4.555,4.555,4.555,0,0,0,4.555-4.555Z" transform="translate(-272.359 -72.476)" fill="#fff"/>
      <path id="Path_52601" data-name="Path 52601" d="M277.616,233.833a5.156,5.156,0,1,1,5.156-5.156,5.156,5.156,0,0,1-5.156,5.156Zm0-9.111a3.954,3.954,0,1,0,3.954,3.954,3.954,3.954,0,0,0-3.954-3.954Z" transform="translate(-272.46 -72.577)" fill="#263238"/>
      <path id="Path_52602" data-name="Path 52602" d="M279.267,228.174a2.152,2.152,0,1,0-.626,1.529A2.164,2.164,0,0,0,279.267,228.174Z" transform="translate(-271.959 -72.074)" fill="#fff"/>
      <path id="Path_52603" data-name="Path 52603" d="M277.217,231.039a2.765,2.765,0,1,1,2.753-2.765,2.764,2.764,0,0,1-2.753,2.765Zm0-4.315a1.563,1.563,0,1,0,1.551,1.551,1.562,1.562,0,0,0-1.551-1.551Z" transform="translate(-272.06 -72.175)" fill="#263238"/>
      <path id="Path_52604" data-name="Path 52604" d="M315.714,251.869a2.4,2.4,0,0,1-2.4-2.4V228.214a2.4,2.4,0,0,1,4.808,0v21.251a2.4,2.4,0,0,1-2.4,2.4Z" transform="translate(-264.21 -72.114)" fill="#263238"/>
      <path id="Path_52605" data-name="Path 52605" d="M319.009,232.548a2.4,2.4,0,0,1-1.274-.373l-22.645-14.2a2.4,2.4,0,0,1,2.548-4.075L320.3,228.1a2.4,2.4,0,0,1-1.286,4.447Z" transform="translate(-268.106 -74.585)" fill="#263238"/>
      <path id="Path_52606" data-name="Path 52606" d="M311.52,228.575a4.555,4.555,0,1,1,4.555,4.555,4.555,4.555,0,0,1-4.555-4.555Z" transform="translate(-264.571 -72.476)" fill="#fff"/>
      <path id="Path_52607" data-name="Path 52607" d="M316.176,233.833a5.156,5.156,0,1,1,5.156-5.156A5.156,5.156,0,0,1,316.176,233.833Zm0-9.111a3.954,3.954,0,1,0,3.955,3.954A3.954,3.954,0,0,0,316.176,224.722Z" transform="translate(-264.672 -72.577)" fill="#263238"/>
      <path id="Path_52608" data-name="Path 52608" d="M313.52,228.174a2.152,2.152,0,1,1,.626,1.529,2.164,2.164,0,0,1-.626-1.529Z" transform="translate(-264.167 -72.074)" fill="#fff"/>
      <path id="Path_52609" data-name="Path 52609" d="M315.775,231.039a2.765,2.765,0,1,1,2.765-2.765A2.765,2.765,0,0,1,315.775,231.039Zm0-4.315a1.551,1.551,0,1,0,1.1.45A1.563,1.563,0,0,0,315.775,226.724Z" transform="translate(-264.27 -72.175)" fill="#263238"/>
      <rect id="Rectangle_4513" data-name="Rectangle 4513" width="10.649" height="70.447" transform="translate(23.078 58.271)" fill="#263238"/>
      <path id="Path_52610" data-name="Path 52610" d="M302.41,217.581H291.761a.613.613,0,0,1-.6-.6V146.521a.613.613,0,0,1,.6-.6H302.41a.6.6,0,0,1,.6.6v70.411a.6.6,0,0,1-.6.649Zm-10.048-1.2h9.423V147.122h-9.447Z" transform="translate(-268.683 -88.25)" fill="#263238"/>
      <path id="Path_52611" data-name="Path 52611" d="M298.128,235.783h0A12.164,12.164,0,0,1,286,223.607V175.6h24.34v48.007a12.164,12.164,0,0,1-12.212,12.176Z" transform="translate(-269.725 -82.255)" fill="#938c78"/>
      <path id="Path_52612" data-name="Path 52612" d="M298.235,236.485a12.789,12.789,0,0,1-12.765-12.777V175.7a.6.6,0,0,1,.6-.6h24.34a.6.6,0,0,1,.6.6v48.007a12.789,12.789,0,0,1-12.777,12.777ZM286.672,176.3v47.406a11.575,11.575,0,1,0,23.138,0V176.3Z" transform="translate(-269.832 -82.356)" fill="#263238"/>
      <rect id="Rectangle_4514" data-name="Rectangle 4514" width="29.689" height="7.44" transform="translate(13.558 91.374)" fill="#fff"/>
      <path id="Path_52613" data-name="Path 52613" d="M313.53,182.094H283.841a.613.613,0,0,1-.6-.6V174.1a.6.6,0,0,1,.6-.6H313.53a.6.6,0,0,1,.6.6v7.44A.6.6,0,0,1,313.53,182.094Zm-29.088-1.2h28.487v-6.238H284.442Z" transform="translate(-270.283 -82.679)" fill="#263238"/>
      <circle id="Ellipse_1185" data-name="Ellipse 1185" cx="9.64" cy="9.64" r="9.64" transform="translate(18.763 131.712)" fill="#fff"/>
      <path id="Path_52614" data-name="Path 52614" d="M297.811,227.5a10.241,10.241,0,1,1,10.241-10.241A10.241,10.241,0,0,1,297.811,227.5Zm0-19.231a3.748,3.748,0,1,0,0-.072Z" transform="translate(-269.408 -75.909)" fill="#263238"/>
      <circle id="Ellipse_1186" data-name="Ellipse 1186" cx="4.567" cy="4.567" r="4.567" transform="translate(23.835 136.784)" fill="#263238"/>
      <path id="Path_52615" data-name="Path 52615" d="M296.958,221.577a5.168,5.168,0,1,1,5.168-5.168,5.168,5.168,0,0,1-5.168,5.168Zm0-9.123a3.966,3.966,0,1,0,3.966,3.954,3.966,3.966,0,0,0-3.966-3.954Z" transform="translate(-268.556 -75.057)" fill="#263238"/>
      <rect id="Rectangle_4515" data-name="Rectangle 4515" width="5.217" height="21.864" transform="translate(18.474 104.752)" fill="#263238"/>
      <path id="Path_52616" data-name="Path 52616" d="M293.16,207.644h-5.229a.6.6,0,0,1-.6-.6V185.191a.6.6,0,0,1,.6-.6h5.229a.6.6,0,0,1,.6.6v21.852a.6.6,0,0,1-.6.6Zm-4.628-1.2h4.027v-20.65h-4.027Z" transform="translate(-269.457 -80.439)" fill="#263238"/>
      <rect id="Rectangle_4516" data-name="Rectangle 4516" width="5.217" height="21.864" transform="translate(33.162 104.752)" fill="#263238"/>
      <path id="Path_52617" data-name="Path 52617" d="M305.368,207.644h-5.217a.6.6,0,0,1-.6-.6V185.191a.6.6,0,0,1,.6-.6h5.217a.6.6,0,0,1,.6.6v21.852a.6.6,0,0,1-.6.6Zm-4.616-1.2h4.015v-20.65h-4.015Z" transform="translate(-266.989 -80.439)" fill="#263238"/>
    </g>
    <g id="freepik--robotic-arm-1--inject-2" transform="translate(231.737 97.94)">
      <rect id="Rectangle_4517" data-name="Rectangle 4517" width="36.323" height="30.506" transform="translate(7.368 173.901)" fill="#fff"/>
      <path id="Path_52618" data-name="Path 52618" d="M244.274,273.816H207.951a.6.6,0,0,1-.6-.6V242.721a.6.6,0,0,1,.6-.6h36.324a.6.6,0,0,1,.6.6v30.506A.6.6,0,0,1,244.274,273.816Zm-35.723-1.2h35.122V243.322H208.552Z" transform="translate(-200.583 -68.82)" fill="#263238"/>
      <rect id="Rectangle_4518" data-name="Rectangle 4518" width="26.551" height="30.506" transform="translate(22.741 173.901)" fill="#263238"/>
      <path id="Path_52619" data-name="Path 52619" d="M247.28,273.816H220.741a.6.6,0,0,1-.6-.6V242.721a.6.6,0,0,1,.6-.6H247.28a.6.6,0,0,1,.6.6v30.506A.6.6,0,0,1,247.28,273.816Zm-25.938-1.2h25.337V243.322H221.342Z" transform="translate(-198 -68.82)" fill="#263238"/>
      <path id="Path_52620" data-name="Path 52620" d="M228.678,168.568H223.1a.6.6,0,0,1-.6-.6V98.541a.6.6,0,0,1,1.2,0v68.825h4.339V98.853a.6.6,0,1,1,1.2,0v69.113A.6.6,0,0,1,228.678,168.568Z" transform="translate(-197.523 -97.94)" fill="#263238"/>
      <path id="Path_52621" data-name="Path 52621" d="M206.4,251.869a2.4,2.4,0,0,1-2.4-2.4V228.214a2.4,2.4,0,0,1,4.808,0v21.251a2.4,2.4,0,0,1-2.4,2.4Z" transform="translate(-201.26 -72.114)" fill="#263238"/>
      <path id="Path_52622" data-name="Path 52622" d="M206.9,232.548a2.4,2.4,0,0,1-1.274-4.447l22.657-14.2a2.4,2.4,0,0,1,2.548,4.075l-22.657,14.2A2.4,2.4,0,0,1,206.9,232.548Z" transform="translate(-201.162 -74.585)" fill="#263238"/>
      <path id="Path_52623" data-name="Path 52623" d="M211.325,228.579a4.567,4.567,0,1,0-4.567,4.555A4.568,4.568,0,0,0,211.325,228.579Z" transform="translate(-201.625 -72.48)" fill="#fff"/>
      <path id="Path_52624" data-name="Path 52624" d="M206.864,233.833a5.156,5.156,0,1,1,5.168-5.156,5.156,5.156,0,0,1-5.168,5.156Zm0-9.111a3.954,3.954,0,1,0,3.966,3.954A3.954,3.954,0,0,0,206.864,224.722Z" transform="translate(-201.72 -72.577)" fill="#263238"/>
      <path id="Path_52625" data-name="Path 52625" d="M208.517,228.174a2.151,2.151,0,1,0-.63,1.533,2.164,2.164,0,0,0,.63-1.533Z" transform="translate(-201.221 -72.074)" fill="#fff"/>
      <path id="Path_52626" data-name="Path 52626" d="M206.465,231.039a2.765,2.765,0,1,1,2.765-2.765,2.765,2.765,0,0,1-2.765,2.765Zm0-4.315a1.551,1.551,0,1,0,1.1.45A1.562,1.562,0,0,0,206.465,226.724Z" transform="translate(-201.32 -72.175)" fill="#263238"/>
      <path id="Path_52627" data-name="Path 52627" d="M244.964,251.869a2.4,2.4,0,0,1-2.4-2.4V228.214a2.4,2.4,0,0,1,4.808,0v21.251a2.4,2.4,0,0,1-2.4,2.4Z" transform="translate(-193.472 -72.114)" fill="#263238"/>
      <path id="Path_52628" data-name="Path 52628" d="M248.27,232.555a2.4,2.4,0,0,1-1.274-.373l-22.657-14.2a2.406,2.406,0,0,1,2.56-4.075l22.645,14.2a2.4,2.4,0,0,1-1.274,4.447Z" transform="translate(-197.379 -74.592)" fill="#263238"/>
      <path id="Path_52629" data-name="Path 52629" d="M240.77,228.575a4.555,4.555,0,1,1,4.555,4.555,4.555,4.555,0,0,1-4.555-4.555Z" transform="translate(-193.833 -72.476)" fill="#fff"/>
      <path id="Path_52630" data-name="Path 52630" d="M245.426,233.833a5.156,5.156,0,1,1,5.156-5.156,5.156,5.156,0,0,1-5.156,5.156Zm0-9.111a3.954,3.954,0,1,0,3.954,3.954,3.954,3.954,0,0,0-3.954-3.954Z" transform="translate(-193.934 -72.577)" fill="#263238"/>
      <path id="Path_52631" data-name="Path 52631" d="M242.76,228.174a2.164,2.164,0,1,1,2.164,2.164A2.164,2.164,0,0,1,242.76,228.174Z" transform="translate(-193.431 -72.074)" fill="#fff"/>
      <path id="Path_52632" data-name="Path 52632" d="M245.027,231.039a2.765,2.765,0,1,1,2.753-2.765,2.765,2.765,0,0,1-2.753,2.765Zm0-4.315a1.563,1.563,0,1,0,1.551,1.551,1.562,1.562,0,0,0-1.551-1.551Z" transform="translate(-193.534 -72.175)" fill="#263238"/>
      <rect id="Rectangle_4519" data-name="Rectangle 4519" width="10.649" height="70.447" transform="translate(23.066 58.271)" fill="#263238"/>
      <path id="Path_52633" data-name="Path 52633" d="M231.66,217.581H221.011a.6.6,0,0,1-.6-.6V146.521a.6.6,0,0,1,.6-.6H231.66a.613.613,0,0,1,.6.6v70.411a.613.613,0,0,1-.6.649Zm-10.048-1.2h9.447V147.122h-9.447Z" transform="translate(-197.945 -88.25)" fill="#263238"/>
      <path id="Path_52634" data-name="Path 52634" d="M227.386,235.783h0a12.164,12.164,0,0,1-12.176-12.176V175.6h24.34v48.007a12.164,12.164,0,0,1-12.164,12.176Z" transform="translate(-198.995 -82.255)" fill="#938c78"/>
      <path id="Path_52635" data-name="Path 52635" d="M227.487,236.485a12.789,12.789,0,0,1-12.777-12.777V175.7a.6.6,0,0,1,.6-.6h24.34a.6.6,0,0,1,.6.6v48.007a12.789,12.789,0,0,1-12.765,12.777ZM215.912,176.3v47.406a11.575,11.575,0,1,0,23.138,0V176.3Z" transform="translate(-199.096 -82.356)" fill="#263238"/>
      <rect id="Rectangle_4520" data-name="Rectangle 4520" width="29.689" height="7.44" transform="translate(13.546 91.374)" fill="#fff"/>
      <path id="Path_52636" data-name="Path 52636" d="M242.778,182.094H213.1a.6.6,0,0,1-.6-.6V174.1a.6.6,0,0,1,.6-.6H242.79a.6.6,0,0,1,.6.6v7.44A.613.613,0,0,1,242.778,182.094Zm-29.088-1.2h28.487v-6.238H213.69Z" transform="translate(-199.543 -82.679)" fill="#263238"/>
      <circle id="Ellipse_1187" data-name="Ellipse 1187" cx="9.64" cy="9.64" r="9.64" transform="translate(18.751 131.712)" fill="#fff"/>
      <path id="Path_52637" data-name="Path 52637" d="M227.063,227.5a10.241,10.241,0,1,1,10.229-10.241A10.241,10.241,0,0,1,227.063,227.5Zm0-19.231a3.745,3.745,0,1,0,0-.072Z" transform="translate(-198.672 -75.909)" fill="#263238"/>
      <circle id="Ellipse_1188" data-name="Ellipse 1188" cx="4.567" cy="4.567" r="4.567" transform="translate(23.823 136.784)" fill="#263238"/>
      <path id="Path_52638" data-name="Path 52638" d="M226.208,221.577a5.168,5.168,0,1,1,5.168-5.168,5.168,5.168,0,0,1-5.168,5.168Zm0-9.123a3.966,3.966,0,1,0,3.967,3.954,3.966,3.966,0,0,0-3.967-3.954Z" transform="translate(-197.818 -75.057)" fill="#263238"/>
      <rect id="Rectangle_4521" data-name="Rectangle 4521" width="5.217" height="21.864" transform="translate(18.462 104.752)" fill="#263238"/>
      <path id="Path_52639" data-name="Path 52639" d="M222.4,207.644h-5.217a.6.6,0,0,1-.6-.6V185.191a.6.6,0,0,1,.6-.6H222.4a.6.6,0,0,1,.6.6v21.852a.6.6,0,0,1-.6.6Zm-4.616-1.2H221.8v-20.65h-4.015Z" transform="translate(-198.719 -80.439)" fill="#263238"/>
      <rect id="Rectangle_4522" data-name="Rectangle 4522" width="5.217" height="21.864" transform="translate(33.15 104.752)" fill="#263238"/>
      <path id="Path_52640" data-name="Path 52640" d="M234.62,207.644h-5.229a.6.6,0,0,1-.6-.6V185.191a.6.6,0,0,1,.6-.6h5.229a.6.6,0,0,1,.6.6v21.852a.6.6,0,0,1-.6.6Zm-4.628-1.2h4.027v-20.65h-4.027Z" transform="translate(-196.253 -80.439)" fill="#263238"/>
    </g>
    <g id="freepik--Floor--inject-2" transform="translate(53.1 442.292)">
      <rect id="Rectangle_4523" data-name="Rectangle 4523" width="486.785" height="4.856" transform="translate(0.613 0.553)" fill="#263238"/>
      <path id="Path_52641" data-name="Path 52641" d="M540.5,390.44H53.7a.6.6,0,0,1-.6-.6v-4.808a.6.6,0,0,1,.6-.6H540.5a.613.613,0,0,1,.6.6v4.808A.6.6,0,0,1,540.5,390.44Zm-486.184-1.2h485.6v-3.606H54.314Z" transform="translate(-53.1 -384.43)" fill="#263238"/>
    </g>
  </g>
</svg>
