<svg xmlns="http://www.w3.org/2000/svg" width="385.839" height="350.928" viewBox="0 0 385.839 350.928">
  <g id="zero_four" transform="translate(-90.92 -80.243)">
    <g id="freepik--Clouds--inject-11" transform="translate(158.568 80.243)">
      <path id="Path_53025" data-name="Path 53025" d="M349.46,170.517c-4.877-2.653-7.1-.44-8.874-2.653s4.877-7.994-8.434-13.752c0,0-.88-12.431-19.069-12.871s-13.311,12.419-18.189,15.524-6.21-1.773-11.087,1.332-2.665,9.268-6.662,10.207-9.268-4-14.192-.892-4.877,5.793-7.1,5.793-6.65-1.773-9.268,0-5.793,4-5.793,4H353.028S354.337,173.182,349.46,170.517Z" transform="translate(-134.889 -70.575)" fill="#fff"/>
      <path id="Path_53026" data-name="Path 53026" d="M308.4,100c-3.29-1.807-4.8-.3-5.99-1.807s3.29-5.387-5.688-9.268c0,0-.6-8.376-12.871-8.677s-8.99,8.388-12.28,10.427-4.194-1.159-7.484.9-1.8,6.291-4.5,6.882-6.279-2.688-9.581-.591-3.29,3.893-4.785,3.893-4.5-1.159-6.291,0-3.893,2.688-3.893,2.688H310.8S311.688,101.8,308.4,100Z" transform="translate(-135.801 -80.243)" fill="#fff"/>
      <path id="Path_53027" data-name="Path 53027" d="M385.016,110.307c-4.889-2.665-7.1-.44-8.874-2.665s4.877-7.982-8.434-13.752c0,0-.88-12.419-19.069-12.86S335.327,93.451,330.4,96.556s-6.21-1.773-11.087,1.332-2.665,9.268-6.662,10.2-9.268-3.985-14.192-.88-4.877,5.793-7.1,5.793-6.65-1.784-9.268,0-5.793,3.985-5.793,3.985H388.561S389.894,112.972,385.016,110.307Z" transform="translate(-129.26 -80.12)" fill="#fff"/>
      <path id="Path_53028" data-name="Path 53028" d="M258.05,135.7c-4.877-2.665-7.1-.44-8.874-2.665s4.877-7.982-8.434-13.752c0,0-.88-12.419-19.069-12.86s-13.311,12.419-18.189,15.524-6.21-1.773-11.087,1.332-2.665,9.268-6.662,10.207-9.268-4-14.192-.892-4.877,5.793-7.1,5.793-6.65-1.773-9.268,0-5.793,3.985-5.793,3.985H261.618S262.927,138.374,258.05,135.7Z" transform="translate(-149.38 -76.095)" fill="#fff"/>
      <g id="Group_38689" data-name="Group 38689" opacity="0.4">
        <path id="Path_53029" data-name="Path 53029" d="M349.46,170.517c-4.877-2.653-7.1-.44-8.874-2.653s4.877-7.994-8.434-13.752c0,0-.88-12.431-19.069-12.871s-13.311,12.419-18.189,15.524-6.21-1.773-11.087,1.332-2.665,9.268-6.662,10.207-9.268-4-14.192-.892-4.877,5.793-7.1,5.793-6.65-1.773-9.268,0-5.793,4-5.793,4H353.028S354.337,173.182,349.46,170.517Z" transform="translate(-134.889 -70.575)" fill="#fff"/>
        <path id="Path_53030" data-name="Path 53030" d="M308.4,100c-3.29-1.807-4.8-.3-5.99-1.807s3.29-5.387-5.688-9.268c0,0-.6-8.376-12.871-8.677s-8.99,8.388-12.28,10.427-4.194-1.159-7.484.9-1.8,6.291-4.5,6.882-6.279-2.688-9.581-.591-3.29,3.893-4.785,3.893-4.5-1.159-6.291,0-3.893,2.688-3.893,2.688H310.8S311.688,101.8,308.4,100Z" transform="translate(-135.801 -80.243)" fill="#fff"/>
        <path id="Path_53031" data-name="Path 53031" d="M385.016,110.307c-4.889-2.665-7.1-.44-8.874-2.665s4.877-7.982-8.434-13.752c0,0-.88-12.419-19.069-12.86S335.327,93.451,330.4,96.556s-6.21-1.773-11.087,1.332-2.665,9.268-6.662,10.2-9.268-3.985-14.192-.88-4.877,5.793-7.1,5.793-6.65-1.784-9.268,0-5.793,3.985-5.793,3.985H388.561S389.894,112.972,385.016,110.307Z" transform="translate(-129.26 -80.12)" fill="#fff"/>
        <path id="Path_53032" data-name="Path 53032" d="M258.05,135.7c-4.877-2.665-7.1-.44-8.874-2.665s4.877-7.982-8.434-13.752c0,0-.88-12.419-19.069-12.86s-13.311,12.419-18.189,15.524-6.21-1.773-11.087,1.332-2.665,9.268-6.662,10.207-9.268-4-14.192-.892-4.877,5.793-7.1,5.793-6.65-1.773-9.268,0-5.793,3.985-5.793,3.985H261.618S262.927,138.374,258.05,135.7Z" transform="translate(-149.38 -76.095)" fill="#fff"/>
      </g>
    </g>
    <g id="freepik--Buildings--inject-11" transform="translate(91.42 128.62)">
      <rect id="Rectangle_4581" data-name="Rectangle 4581" width="57.324" height="137.042" transform="translate(180.834 162.588)" fill="#fff" stroke="#263238" stroke-linecap="round" stroke-linejoin="round" stroke-width="1"/>
      <rect id="Rectangle_4582" data-name="Rectangle 4582" width="57.324" height="6.777" transform="translate(180.834 162.588)" fill="#fff" stroke="#27292c" stroke-linecap="round" stroke-linejoin="round" stroke-width="1"/>
      <path id="Path_53033" data-name="Path 53033" d="M247.51,275.11h14.47a8.457,8.457,0,0,1,8.457,8.457v7.264H247.51Z" transform="translate(-66.676 -97.728)" fill="#938c78" stroke="#27292c" stroke-linecap="round" stroke-linejoin="round" stroke-width="1"/>
      <path id="Path_53034" data-name="Path 53034" d="M278.037,275.11h22.151v15.721H269.58v-7.264a8.457,8.457,0,0,1,8.457-8.457Z" transform="translate(-63.177 -97.728)" fill="#938c78" stroke="#27292c" stroke-linecap="round" stroke-linejoin="round" stroke-width="1"/>
      <rect id="Rectangle_4583" data-name="Rectangle 4583" width="57.324" height="6.777" transform="translate(180.834 192.709)" fill="#fff" stroke="#27292c" stroke-linecap="round" stroke-linejoin="round" stroke-width="1"/>
      <path id="Path_53035" data-name="Path 53035" d="M247.51,297.18h14.47a8.457,8.457,0,0,1,8.457,8.457V312.9H247.51Z" transform="translate(-66.676 -94.229)" fill="#938c78" stroke="#27292c" stroke-linecap="round" stroke-linejoin="round" stroke-width="1"/>
      <path id="Path_53036" data-name="Path 53036" d="M278.037,297.18h22.151V312.9H269.58v-7.264a8.457,8.457,0,0,1,8.457-8.457Z" transform="translate(-63.177 -94.229)" fill="#938c78" stroke="#27292c" stroke-linecap="round" stroke-linejoin="round" stroke-width="1"/>
      <rect id="Rectangle_4584" data-name="Rectangle 4584" width="57.324" height="6.777" transform="translate(180.834 218.266)" fill="#fff" stroke="#27292c" stroke-linecap="round" stroke-linejoin="round" stroke-width="1"/>
      <path id="Path_53037" data-name="Path 53037" d="M247.51,319.25h14.47a8.457,8.457,0,0,1,8.457,8.457v7.264H247.51Z" transform="translate(-66.676 -90.731)" fill="#938c78" stroke="#27292c" stroke-linecap="round" stroke-linejoin="round" stroke-width="1"/>
      <path id="Path_53038" data-name="Path 53038" d="M278.037,319.25h22.151v15.721H269.58v-7.264a8.457,8.457,0,0,1,8.457-8.457Z" transform="translate(-63.177 -90.731)" fill="#263238" stroke="#263238" stroke-linecap="round" stroke-linejoin="round" stroke-width="1"/>
      <rect id="Rectangle_4585" data-name="Rectangle 4585" width="57.324" height="6.777" transform="translate(180.834 243.835)" fill="#fff" stroke="#263238" stroke-linecap="round" stroke-linejoin="round" stroke-width="1"/>
      <path id="Path_53039" data-name="Path 53039" d="M247.51,341.32h14.47a8.457,8.457,0,0,1,8.457,8.457v7.264H247.51Z" transform="translate(-66.676 -87.232)" fill="#938c78" stroke="#27292c" stroke-linecap="round" stroke-linejoin="round" stroke-width="1"/>
      <path id="Path_53040" data-name="Path 53040" d="M278.037,341.32h22.151v15.721H269.58v-7.264a8.457,8.457,0,0,1,8.457-8.457Z" transform="translate(-63.177 -87.232)" fill="#263238" stroke="#263238" stroke-linecap="round" stroke-linejoin="round" stroke-width="1"/>
      <rect id="Rectangle_4586" data-name="Rectangle 4586" width="57.324" height="6.777" transform="translate(180.834 269.404)" fill="#fff" stroke="#263238" stroke-linecap="round" stroke-linejoin="round" stroke-width="1"/>
      <rect id="Rectangle_4587" data-name="Rectangle 4587" width="43.213" height="180.116" transform="translate(143.877 121.935)" fill="#fff" stroke="#27292c" stroke-linecap="round" stroke-linejoin="round" stroke-width="1"/>
      <rect id="Rectangle_4588" data-name="Rectangle 4588" width="5.144" height="6.858" transform="translate(176.409 270.006)" fill="#263238" stroke="#263238" stroke-linecap="round" stroke-linejoin="round" stroke-width="1"/>
      <rect id="Rectangle_4589" data-name="Rectangle 4589" width="5.144" height="6.858" transform="translate(162.252 270.006)" fill="#263238" stroke="#263238" stroke-linecap="round" stroke-linejoin="round" stroke-width="1"/>
      <rect id="Rectangle_4590" data-name="Rectangle 4590" width="5.144" height="6.858" transform="translate(148.106 270.006)" fill="#263238" stroke="#263238" stroke-linecap="round" stroke-linejoin="round" stroke-width="1"/>
      <rect id="Rectangle_4591" data-name="Rectangle 4591" width="5.144" height="6.858" transform="translate(176.409 242.989)" fill="#263238" stroke="#263238" stroke-linecap="round" stroke-linejoin="round" stroke-width="1"/>
      <rect id="Rectangle_4592" data-name="Rectangle 4592" width="5.144" height="6.858" transform="translate(162.252 242.989)" fill="#263238" stroke="#263238" stroke-linecap="round" stroke-linejoin="round" stroke-width="1"/>
      <rect id="Rectangle_4593" data-name="Rectangle 4593" width="5.144" height="6.858" transform="translate(148.106 242.989)" fill="#263238" stroke="#263238" stroke-linecap="round" stroke-linejoin="round" stroke-width="1"/>
      <rect id="Rectangle_4594" data-name="Rectangle 4594" width="5.144" height="6.858" transform="translate(176.409 215.544)" fill="#938c78" stroke="#27292c" stroke-linecap="round" stroke-linejoin="round" stroke-width="1"/>
      <rect id="Rectangle_4595" data-name="Rectangle 4595" width="5.144" height="6.858" transform="translate(162.252 215.544)" fill="#263238" stroke="#263238" stroke-linecap="round" stroke-linejoin="round" stroke-width="1"/>
      <rect id="Rectangle_4596" data-name="Rectangle 4596" width="5.144" height="6.858" transform="translate(148.106 215.544)" fill="#263238" stroke="#263238" stroke-linecap="round" stroke-linejoin="round" stroke-width="1"/>
      <rect id="Rectangle_4597" data-name="Rectangle 4597" width="5.144" height="6.858" transform="translate(176.409 188.098)" fill="#938c78" stroke="#27292c" stroke-linecap="round" stroke-linejoin="round" stroke-width="1"/>
      <rect id="Rectangle_4598" data-name="Rectangle 4598" width="5.144" height="6.858" transform="translate(162.252 188.098)" fill="#938c78" stroke="#27292c" stroke-linecap="round" stroke-linejoin="round" stroke-width="1"/>
      <rect id="Rectangle_4599" data-name="Rectangle 4599" width="5.144" height="6.858" transform="translate(148.106 188.098)" fill="#938c78" stroke="#27292c" stroke-linecap="round" stroke-linejoin="round" stroke-width="1"/>
      <rect id="Rectangle_4600" data-name="Rectangle 4600" width="5.144" height="6.858" transform="translate(176.409 160.653)" fill="#938c78" stroke="#27292c" stroke-linecap="round" stroke-linejoin="round" stroke-width="1"/>
      <rect id="Rectangle_4601" data-name="Rectangle 4601" width="5.144" height="6.858" transform="translate(162.252 160.653)" fill="#938c78" stroke="#27292c" stroke-linecap="round" stroke-linejoin="round" stroke-width="1"/>
      <rect id="Rectangle_4602" data-name="Rectangle 4602" width="5.144" height="6.858" transform="translate(148.106 160.653)" fill="#938c78" stroke="#27292c" stroke-linecap="round" stroke-linejoin="round" stroke-width="1"/>
      <rect id="Rectangle_4603" data-name="Rectangle 4603" width="5.144" height="6.858" transform="translate(176.409 133.207)" fill="#938c78" stroke="#27292c" stroke-linecap="round" stroke-linejoin="round" stroke-width="1"/>
      <rect id="Rectangle_4604" data-name="Rectangle 4604" width="5.144" height="6.858" transform="translate(162.252 133.207)" fill="#938c78" stroke="#27292c" stroke-linecap="round" stroke-linejoin="round" stroke-width="1"/>
      <rect id="Rectangle_4605" data-name="Rectangle 4605" width="5.144" height="6.858" transform="translate(148.106 133.207)" fill="#938c78" stroke="#27292c" stroke-linecap="round" stroke-linejoin="round" stroke-width="1"/>
      <rect id="Rectangle_4606" data-name="Rectangle 4606" width="45.889" height="5.271" transform="translate(142.534 121.935)" fill="#fff" stroke="#27292c" stroke-linecap="round" stroke-linejoin="round" stroke-width="1"/>
      <rect id="Rectangle_4607" data-name="Rectangle 4607" width="45.889" height="5.271" transform="translate(142.534 148.952)" fill="#fff" stroke="#27292c" stroke-linecap="round" stroke-linejoin="round" stroke-width="1"/>
      <rect id="Rectangle_4608" data-name="Rectangle 4608" width="45.889" height="5.271" transform="translate(142.534 175.969)" fill="#fff" stroke="#27292c" stroke-linecap="round" stroke-linejoin="round" stroke-width="1"/>
      <rect id="Rectangle_4609" data-name="Rectangle 4609" width="45.889" height="5.271" transform="translate(142.534 202.985)" fill="#fff" stroke="#27292c" stroke-linecap="round" stroke-linejoin="round" stroke-width="1"/>
      <rect id="Rectangle_4610" data-name="Rectangle 4610" width="45.889" height="5.271" transform="translate(142.534 230.002)" fill="#fff" stroke="#263238" stroke-linecap="round" stroke-linejoin="round" stroke-width="1"/>
      <rect id="Rectangle_4611" data-name="Rectangle 4611" width="45.889" height="5.271" transform="translate(142.534 257.019)" fill="#fff" stroke="#263238" stroke-linecap="round" stroke-linejoin="round" stroke-width="1"/>
      <rect id="Rectangle_4612" data-name="Rectangle 4612" width="43.213" height="5.271" transform="translate(143.877 281.035)" fill="#fff" stroke="#263238" stroke-linecap="round" stroke-linejoin="round" stroke-width="1"/>
      <rect id="Rectangle_4613" data-name="Rectangle 4613" width="96.563" height="25.488" transform="translate(141.595 274.154)" fill="#fff" stroke="#263238" stroke-linecap="round" stroke-linejoin="round" stroke-width="1"/>
      <rect id="Rectangle_4614" data-name="Rectangle 4614" width="38.95" height="25.488" transform="translate(141.595 274.154)" fill="#938c78" stroke="#27292c" stroke-linecap="round" stroke-linejoin="round" stroke-width="1"/>
      <rect id="Rectangle_4615" data-name="Rectangle 4615" width="162.507" height="299.641" transform="translate(222.333)" fill="#938c78" stroke="#27292c" stroke-linecap="round" stroke-linejoin="round" stroke-width="1"/>
      <rect id="Rectangle_4616" data-name="Rectangle 4616" width="119.56" height="299.641" transform="translate(265.279)" fill="#fff" stroke="#27292c" stroke-linecap="round" stroke-linejoin="round" stroke-width="1"/>
      <rect id="Rectangle_4617" data-name="Rectangle 4617" width="91.211" height="28.639" transform="translate(293.629 271.003)" fill="#938c78" stroke="#27292c" stroke-linecap="round" stroke-linejoin="round" stroke-width="1"/>
      <rect id="Rectangle_4618" data-name="Rectangle 4618" width="4.958" height="28.639" transform="translate(314.725 271.003)" fill="#fff" stroke="#263238" stroke-linecap="round" stroke-linejoin="round" stroke-width="1"/>
      <rect id="Rectangle_4619" data-name="Rectangle 4619" width="4.958" height="28.639" transform="translate(340.34 271.003)" fill="#fff" stroke="#263238" stroke-linecap="round" stroke-linejoin="round" stroke-width="1"/>
      <rect id="Rectangle_4620" data-name="Rectangle 4620" width="4.958" height="28.639" transform="translate(365.944 271.003)" fill="#fff" stroke="#263238" stroke-linecap="round" stroke-linejoin="round" stroke-width="1"/>
      <line id="Line_407" data-name="Line 407" y1="270.307" transform="translate(310.798 0.695)" fill="none" stroke="#27292c" stroke-linecap="round" stroke-linejoin="round" stroke-width="1"/>
      <line id="Line_408" data-name="Line 408" y1="299.966" transform="translate(249.778 0.695)" fill="none" stroke="#fff" stroke-linecap="round" stroke-linejoin="round" stroke-width="1"/>
      <line id="Line_409" data-name="Line 409" y1="299.966" transform="translate(234.996 0.695)" fill="none" stroke="#fff" stroke-linecap="round" stroke-linejoin="round" stroke-width="1"/>
      <line id="Line_410" data-name="Line 410" y1="270.307" transform="translate(356.201 0.695)" fill="none" stroke="#27292c" stroke-linecap="round" stroke-linejoin="round" stroke-width="1"/>
      <line id="Line_411" data-name="Line 411" x2="118.251" transform="translate(265.893 31.431)" fill="none" stroke="#27292c" stroke-linecap="round" stroke-linejoin="round" stroke-width="1"/>
      <line id="Line_412" data-name="Line 412" x2="118.251" transform="translate(265.893 71.238)" fill="none" stroke="#27292c" stroke-linecap="round" stroke-linejoin="round" stroke-width="1"/>
      <line id="Line_413" data-name="Line 413" x2="118.251" transform="translate(265.893 111.056)" fill="none" stroke="#27292c" stroke-linecap="round" stroke-linejoin="round" stroke-width="1"/>
      <line id="Line_414" data-name="Line 414" x2="118.251" transform="translate(265.893 150.863)" fill="none" stroke="#27292c" stroke-linecap="round" stroke-linejoin="round" stroke-width="1"/>
      <line id="Line_415" data-name="Line 415" x2="118.251" transform="translate(265.893 190.682)" fill="none" stroke="#27292c" stroke-linecap="round" stroke-linejoin="round" stroke-width="1"/>
      <line id="Line_416" data-name="Line 416" x2="118.251" transform="translate(265.893 230.489)" fill="none" stroke="#27292c" stroke-linecap="round" stroke-linejoin="round" stroke-width="1"/>
      <line id="Line_417" data-name="Line 417" x1="43.758" transform="translate(222.136 31.431)" fill="none" stroke="#fff" stroke-linecap="round" stroke-linejoin="round" stroke-width="1"/>
      <line id="Line_418" data-name="Line 418" x1="43.758" transform="translate(222.136 71.238)" fill="none" stroke="#fff" stroke-linecap="round" stroke-linejoin="round" stroke-width="1"/>
      <line id="Line_419" data-name="Line 419" x1="43.758" transform="translate(222.136 111.056)" fill="none" stroke="#fff" stroke-linecap="round" stroke-linejoin="round" stroke-width="1"/>
      <line id="Line_420" data-name="Line 420" x1="43.758" transform="translate(222.136 150.863)" fill="none" stroke="#fff" stroke-linecap="round" stroke-linejoin="round" stroke-width="1"/>
      <line id="Line_421" data-name="Line 421" x1="43.758" transform="translate(222.136 190.682)" fill="none" stroke="#fff" stroke-linecap="round" stroke-linejoin="round" stroke-width="1"/>
      <line id="Line_422" data-name="Line 422" x1="43.758" transform="translate(222.136 230.489)" fill="none" stroke="#fff" stroke-linecap="round" stroke-linejoin="round" stroke-width="1"/>
      <line id="Line_423" data-name="Line 423" x2="161.348" transform="translate(222.796 270.307)" fill="none" stroke="#27292c" stroke-linecap="round" stroke-linejoin="round" stroke-width="1"/>
      <rect id="Rectangle_4621" data-name="Rectangle 4621" width="142.673" height="281.707" transform="translate(5.457 17.922)" fill="#938c78" stroke="#938c78" stroke-linecap="round" stroke-linejoin="round" stroke-width="1"/>
      <line id="Line_424" data-name="Line 424" x1="40.224" transform="translate(6.175 48.056)" fill="none" stroke="#fff" stroke-linecap="round" stroke-linejoin="round" stroke-width="1"/>
      <line id="Line_425" data-name="Line 425" x1="40.224" transform="translate(6.175 95.938)" fill="none" stroke="#fff" stroke-linecap="round" stroke-linejoin="round" stroke-width="1"/>
      <line id="Line_426" data-name="Line 426" x1="40.224" transform="translate(6.175 145.662)" fill="none" stroke="#fff" stroke-linecap="round" stroke-linejoin="round" stroke-width="1"/>
      <line id="Line_427" data-name="Line 427" x1="40.224" transform="translate(6.175 197.239)" fill="none" stroke="#fff" stroke-linecap="round" stroke-linejoin="round" stroke-width="1"/>
      <line id="Line_428" data-name="Line 428" x1="40.224" transform="translate(6.175 245.121)" fill="none" stroke="#fff" stroke-linecap="round" stroke-linejoin="round" stroke-width="1"/>
      <rect id="Rectangle_4622" data-name="Rectangle 4622" width="101.858" height="281.707" transform="translate(46.272 17.922)" fill="#fff" stroke="#27292c" stroke-linecap="round" stroke-linejoin="round" stroke-width="1"/>
      <rect id="Rectangle_4623" data-name="Rectangle 4623" width="101.858" height="15.849" transform="translate(46.272 17.922)" fill="#938c78" stroke="#27292c" stroke-linecap="round" stroke-linejoin="round" stroke-width="1"/>
      <rect id="Rectangle_4624" data-name="Rectangle 4624" width="101.858" height="15.849" transform="translate(46.272 67.241)" fill="#938c78" stroke="#27292c" stroke-linecap="round" stroke-linejoin="round" stroke-width="1"/>
      <rect id="Rectangle_4625" data-name="Rectangle 4625" width="101.858" height="15.849" transform="translate(46.272 117.776)" fill="#938c78" stroke="#27292c" stroke-linecap="round" stroke-linejoin="round" stroke-width="1"/>
      <rect id="Rectangle_4626" data-name="Rectangle 4626" width="101.858" height="15.849" transform="translate(46.272 167.083)" fill="#938c78" stroke="#27292c" stroke-linecap="round" stroke-linejoin="round" stroke-width="1"/>
      <rect id="Rectangle_4627" data-name="Rectangle 4627" width="101.858" height="13.555" transform="translate(46.272 267.99)" fill="#938c78" stroke="#27292c" stroke-linecap="round" stroke-linejoin="round" stroke-width="1"/>
      <path id="Path_53426" data-name="Path 53426" d="M0,0H101.858V15.849H0Z" transform="translate(46.272 216.401)" fill="#938c78" stroke="#27292c" stroke-linecap="round" stroke-width="1"/>
      <rect id="Rectangle_4629" data-name="Rectangle 4629" width="40.722" height="27.712" transform="translate(74.459 271.929)" fill="#938c78" stroke="#27292c" stroke-linecap="round" stroke-linejoin="round" stroke-width="1"/>
      <line id="Line_429" data-name="Line 429" y2="243.789" transform="translate(65.063 26.577)" fill="none" stroke="#27292c" stroke-linecap="round" stroke-linejoin="round" stroke-width="1"/>
      <line id="Line_430" data-name="Line 430" y2="243.789" transform="translate(96.389 26.577)" fill="none" stroke="#27292c" stroke-linecap="round" stroke-linejoin="round" stroke-width="1"/>
      <line id="Line_431" data-name="Line 431" y2="243.789" transform="translate(127.704 26.577)" fill="none" stroke="#27292c" stroke-linecap="round" stroke-linejoin="round" stroke-width="1"/>
      <line id="Line_432" data-name="Line 432" y2="243.789" transform="translate(16.521 26.577)" fill="none" stroke="#fff" stroke-linecap="round" stroke-linejoin="round" stroke-width="1"/>
      <line id="Line_433" data-name="Line 433" y2="243.789" transform="translate(26.438 26.577)" fill="none" stroke="#fff" stroke-linecap="round" stroke-linejoin="round" stroke-width="1"/>
      <line id="Line_434" data-name="Line 434" y2="243.789" transform="translate(36.355 26.577)" fill="none" stroke="#fff" stroke-linecap="round" stroke-linejoin="round" stroke-width="1"/>
      <rect id="Rectangle_4630" data-name="Rectangle 4630" width="152.763" height="13.462" transform="translate(0 14.69)" fill="#938c78" stroke="#938c78" stroke-linecap="round" stroke-linejoin="round" stroke-width="1"/>
      <rect id="Rectangle_4631" data-name="Rectangle 4631" width="111.184" height="13.462" transform="translate(41.568 14.69)" fill="#fff" stroke="#27292c" stroke-linecap="round" stroke-linejoin="round" stroke-width="1"/>
      <rect id="Rectangle_4632" data-name="Rectangle 4632" width="152.763" height="13.462" transform="translate(0 64.796)" fill="#938c78" stroke="#27292c" stroke-linecap="round" stroke-linejoin="round" stroke-width="1"/>
      <rect id="Rectangle_4633" data-name="Rectangle 4633" width="111.184" height="13.462" transform="translate(41.568 64.796)" fill="#fff" stroke="#27292c" stroke-linecap="round" stroke-linejoin="round" stroke-width="1"/>
      <rect id="Rectangle_4634" data-name="Rectangle 4634" width="152.763" height="13.462" transform="translate(0 114.914)" fill="#938c78" stroke="#27292c" stroke-linecap="round" stroke-linejoin="round" stroke-width="1"/>
      <rect id="Rectangle_4635" data-name="Rectangle 4635" width="111.184" height="13.462" transform="translate(41.568 114.914)" fill="#fff" stroke="#27292c" stroke-linecap="round" stroke-linejoin="round" stroke-width="1"/>
      <rect id="Rectangle_4636" data-name="Rectangle 4636" width="152.763" height="13.462" transform="translate(0 165.021)" fill="#938c78" stroke="#27292c" stroke-linecap="round" stroke-linejoin="round" stroke-width="1"/>
      <rect id="Rectangle_4637" data-name="Rectangle 4637" width="111.184" height="13.462" transform="translate(41.568 165.021)" fill="#fff" stroke="#27292c" stroke-linecap="round" stroke-linejoin="round" stroke-width="1"/>
      <rect id="Rectangle_4638" data-name="Rectangle 4638" width="152.763" height="13.462" transform="translate(0 215.138)" fill="#938c78" stroke="#27292c" stroke-linecap="round" stroke-linejoin="round" stroke-width="1"/>
      <rect id="Rectangle_4639" data-name="Rectangle 4639" width="111.184" height="13.462" transform="translate(41.568 215.138)" fill="#fff" stroke="#27292c" stroke-linecap="round" stroke-linejoin="round" stroke-width="1"/>
      <rect id="Rectangle_4640" data-name="Rectangle 4640" width="152.763" height="13.462" transform="translate(0 265.256)" fill="#938c78" stroke="#27292c" stroke-linecap="round" stroke-linejoin="round" stroke-width="1"/>
      <rect id="Rectangle_4641" data-name="Rectangle 4641" width="111.184" height="13.462" transform="translate(41.568 265.256)" fill="#fff" stroke="#27292c" stroke-linecap="round" stroke-linejoin="round" stroke-width="1"/>
      <line id="Line_435" data-name="Line 435" x2="100.861" transform="translate(46.399 48.056)" fill="none" stroke="#27292c" stroke-linecap="round" stroke-linejoin="round" stroke-width="1"/>
      <line id="Line_436" data-name="Line 436" x2="100.861" transform="translate(46.399 95.938)" fill="none" stroke="#27292c" stroke-linecap="round" stroke-linejoin="round" stroke-width="1"/>
      <line id="Line_437" data-name="Line 437" x2="100.861" transform="translate(46.399 145.662)" fill="none" stroke="#27292c" stroke-linecap="round" stroke-linejoin="round" stroke-width="1"/>
      <line id="Line_438" data-name="Line 438" x2="100.861" transform="translate(46.399 197.239)" fill="none" stroke="#27292c" stroke-linecap="round" stroke-linejoin="round" stroke-width="1"/>
      <line id="Line_439" data-name="Line 439" x2="100.861" transform="translate(46.399 245.121)" fill="none" stroke="#27292c" stroke-linecap="round" stroke-linejoin="round" stroke-width="1"/>
      <rect id="Rectangle_4642" data-name="Rectangle 4642" width="94.432" height="3.325" transform="translate(46.677 292.401)" fill="#fff" stroke="#263238" stroke-linecap="round" stroke-linejoin="round" stroke-width="1"/>
      <rect id="Rectangle_4643" data-name="Rectangle 4643" width="122.294" height="4.993" transform="translate(46.677 295.726)" fill="#fff" stroke="#263238" stroke-linecap="round" stroke-linejoin="round" stroke-width="1"/>
    </g>
    <g id="freepik--Trees--inject-11" transform="translate(120.241 326.583)">
      <path id="Path_53041" data-name="Path 53041" d="M123.587,359.956s16.683,1.657,25.14,12c0,0,8.932-11.991,24.989-11.747a32.439,32.439,0,1,0-50.141-.22Z" transform="translate(-116.298 -290.624)" fill="#fff"/>
      <path id="Path_53042" data-name="Path 53042" d="M123.587,359.956s16.683,1.657,25.14,12c0,0,8.932-11.991,24.989-11.747a32.439,32.439,0,1,0-50.141-.22Z" transform="translate(-116.298 -290.624)" fill="#ded4b7" opacity="0.5"/>
      <path id="Path_53043" data-name="Path 53043" d="M143.886,309.06l-.556,83.646h2.815Z" transform="translate(-112.012 -290.309)" fill="#263238"/>
      <path id="Path_53044" data-name="Path 53044" d="M144.578,362.16s5.642-10.137,15.779-13.23c0,0-10.7,2.537-16.057,11.261Z" transform="translate(-111.859 -283.989)" fill="#263238"/>
      <path id="Path_53045" data-name="Path 53045" d="M144.578,337.372s5.642-10.149,15.779-13.242c0,0-10.7,2.537-16.057,11.261Z" transform="translate(-111.859 -287.92)" fill="#263238"/>
      <path id="Path_53046" data-name="Path 53046" d="M144.578,349.812s5.642-10.149,15.779-13.242c0,0-10.7,2.537-16.057,11.261Z" transform="translate(-111.859 -285.948)" fill="#263238"/>
      <path id="Path_53047" data-name="Path 53047" d="M145.9,343.692s-5.433-10.137-15.211-13.242c0,0,10.322,2.537,15.49,11.272Z" transform="translate(-114.016 -286.918)" fill="#263238"/>
      <path id="Path_53048" data-name="Path 53048" d="M145.9,355.81s-5.433-10.137-15.211-13.23c0,0,10.322,2.537,15.49,11.261Z" transform="translate(-114.016 -284.995)" fill="#263238"/>
      <path id="Path_53049" data-name="Path 53049" d="M191.617,355.87s19.88,1.97,29.971,14.3c0,0,10.647-14.285,29.774-13.995a38.648,38.648,0,1,0-59.757-.266Z" transform="translate(-105.732 -292.875)" fill="#fff"/>
      <path id="Path_53050" data-name="Path 53050" d="M191.617,355.87s19.88,1.97,29.971,14.3c0,0,10.647-14.285,29.774-13.995a38.648,38.648,0,1,0-59.757-.266Z" transform="translate(-105.732 -292.875)" fill="#ded4b7" opacity="0.5"/>
      <path id="Path_53051" data-name="Path 53051" d="M215.822,295.21,215.15,394.9H218.5Z" transform="translate(-100.627 -292.505)" fill="#263238"/>
      <path id="Path_53052" data-name="Path 53052" d="M216.646,358.5s6.708-12.083,18.791-15.768c0,0-12.744,3.012-19.127,13.427Z" transform="translate(-100.443 -284.972)" fill="#263238"/>
      <path id="Path_53053" data-name="Path 53053" d="M216.646,328.949s6.708-12.083,18.791-15.779c0,0-12.744,3.024-19.127,13.427Z" transform="translate(-100.443 -289.658)" fill="#263238"/>
      <path id="Path_53054" data-name="Path 53054" d="M216.646,343.729s6.708-12.083,18.791-15.779c0,0-12.744,3.024-19.127,13.427Z" transform="translate(-100.443 -287.315)" fill="#263238"/>
      <path id="Path_53055" data-name="Path 53055" d="M218.223,336.478s-6.476-12.083-18.143-15.768c0,0,12.315,3.012,18.467,13.427Z" transform="translate(-103.016 -288.462)" fill="#263238"/>
      <path id="Path_53056" data-name="Path 53056" d="M218.223,350.969s-6.476-12.083-18.143-15.779c0,0,12.315,3.024,18.467,13.427Z" transform="translate(-103.016 -286.167)" fill="#263238"/>
      <path id="Path_53057" data-name="Path 53057" d="M260.36,363.295s14.088,1.39,21.213,10.114a27.248,27.248,0,0,1,21.085-9.905,27.364,27.364,0,1,0-42.3-.185Z" transform="translate(-94.433 -288.784)" fill="#fff"/>
      <path id="Path_53058" data-name="Path 53058" d="M260.36,363.295s14.088,1.39,21.213,10.114a27.248,27.248,0,0,1,21.085-9.905,27.364,27.364,0,1,0-42.3-.185Z" transform="translate(-94.433 -288.784)" fill="#ded4b7" opacity="0.5"/>
      <path id="Path_53059" data-name="Path 53059" d="M277.495,320.35l-.475,70.566h2.375Z" transform="translate(-90.819 -288.52)" fill="#263238"/>
      <path id="Path_53060" data-name="Path 53060" d="M278.083,365.147s4.75-8.55,13.3-11.157c0,0-9.025,2.132-13.543,9.5Z" transform="translate(-90.689 -283.187)" fill="#263238"/>
      <path id="Path_53061" data-name="Path 53061" d="M278.083,344.238s4.75-8.562,13.3-11.168c0,0-9.025,2.132-13.543,9.5Z" transform="translate(-90.689 -286.503)" fill="#263238"/>
      <path id="Path_53062" data-name="Path 53062" d="M278.083,354.7s4.75-8.562,13.3-11.168c0,0-9.025,2.132-13.543,9.5Z" transform="translate(-90.689 -284.845)" fill="#263238"/>
      <path id="Path_53063" data-name="Path 53063" d="M279.2,349.528s-4.634-8.562-12.836-11.168c0,0,8.712,2.132,13.068,9.5Z" transform="translate(-92.509 -285.664)" fill="#263238"/>
      <path id="Path_53064" data-name="Path 53064" d="M279.2,359.818s-4.634-8.55-12.836-11.168c0,0,8.712,2.143,13.068,9.511Z" transform="translate(-92.509 -284.033)" fill="#263238"/>
    </g>
    <g id="freepik--Streetlights--inject-11" transform="translate(104.152 360.927)">
      <rect id="Rectangle_4644" data-name="Rectangle 4644" width="2.062" height="65.132" transform="translate(266.033 1.773)" fill="#fff" stroke="#263238" stroke-linecap="round" stroke-linejoin="round" stroke-width="1"/>
      <path id="Path_53065" data-name="Path 53065" d="M329.886,324.44a1.252,1.252,0,0,0-.116.5c0,1.159,1.68,2.12,3.742,2.12s3.73-.95,3.73-2.12a1.251,1.251,0,0,0-.116-.5Z" transform="translate(-66.367 -322.216)" fill="#fff" stroke="#263238" stroke-linecap="round" stroke-linejoin="round" stroke-width="1"/>
      <path id="Path_53066" data-name="Path 53066" d="M333.948,322.52,326.51,325h14.875Z" transform="translate(-66.884 -322.52)" fill="#fff" stroke="#263238" stroke-linecap="round" stroke-linejoin="round" stroke-width="1"/>
      <rect id="Rectangle_4645" data-name="Rectangle 4645" width="2.062" height="65.132" transform="translate(352.586 1.773)" fill="#fff" stroke="#263238" stroke-linecap="round" stroke-linejoin="round" stroke-width="1"/>
      <path id="Path_53067" data-name="Path 53067" d="M404.586,324.44a1.251,1.251,0,0,0-.116.5c0,1.159,1.68,2.12,3.742,2.12s3.73-.95,3.73-2.12a1.252,1.252,0,0,0-.116-.5Z" transform="translate(-54.525 -322.216)" fill="#fff" stroke="#263238" stroke-linecap="round" stroke-linejoin="round" stroke-width="1"/>
      <path id="Path_53068" data-name="Path 53068" d="M408.648,322.52,401.21,325H416.1Z" transform="translate(-55.042 -322.52)" fill="#fff" stroke="#263238" stroke-linecap="round" stroke-linejoin="round" stroke-width="1"/>
      <rect id="Rectangle_4646" data-name="Rectangle 4646" width="2.062" height="65.132" transform="translate(92.949 1.773)" fill="#fff" stroke="#263238" stroke-linecap="round" stroke-linejoin="round" stroke-width="1"/>
      <path id="Path_53069" data-name="Path 53069" d="M180.486,324.44a1.252,1.252,0,0,0-.116.5c0,1.159,1.668,2.12,3.742,2.12s3.73-.95,3.73-2.12a1.251,1.251,0,0,0-.116-.5Z" transform="translate(-90.051 -322.216)" fill="#fff" stroke="#263238" stroke-linecap="round" stroke-linejoin="round" stroke-width="1"/>
      <path id="Path_53070" data-name="Path 53070" d="M184.548,322.52,177.11,325h14.875Z" transform="translate(-90.568 -322.52)" fill="#fff" stroke="#263238" stroke-linecap="round" stroke-linejoin="round" stroke-width="1"/>
      <rect id="Rectangle_4647" data-name="Rectangle 4647" width="2.062" height="65.132" transform="translate(6.407 1.773)" fill="#fff" stroke="#000" stroke-linecap="round" stroke-linejoin="round" stroke-width="1"/>
      <path id="Path_53071" data-name="Path 53071" d="M105.786,324.44a1.252,1.252,0,0,0-.116.5c0,1.159,1.668,2.12,3.73,2.12s3.742-.95,3.742-2.12a1.251,1.251,0,0,0-.116-.5Z" transform="translate(-101.893 -322.216)" fill="#fff" stroke="#000" stroke-linecap="round" stroke-linejoin="round" stroke-width="1"/>
      <path id="Path_53072" data-name="Path 53072" d="M109.848,322.52,102.41,325h14.875Z" transform="translate(-102.41 -322.52)" fill="#fff" stroke="#000" stroke-linecap="round" stroke-linejoin="round" stroke-width="1"/>
      <rect id="Rectangle_4648" data-name="Rectangle 4648" width="2.062" height="65.132" transform="translate(179.491 1.773)" fill="#fff" stroke="#263238" stroke-linecap="round" stroke-linejoin="round" stroke-width="1"/>
      <path id="Path_53073" data-name="Path 53073" d="M255.186,324.44a1.251,1.251,0,0,0-.116.5c0,1.159,1.68,2.12,3.742,2.12s3.73-.95,3.73-2.12a1.251,1.251,0,0,0-.116-.5Z" transform="translate(-78.209 -322.216)" fill="#fff" stroke="#263238" stroke-linecap="round" stroke-linejoin="round" stroke-width="1"/>
      <path id="Path_53074" data-name="Path 53074" d="M259.248,322.52,251.81,325h14.875Z" transform="translate(-78.726 -322.52)" fill="#fff" stroke="#263238" stroke-linecap="round" stroke-linejoin="round" stroke-width="1"/>
    </g>
  </g>
</svg>
