<svg xmlns="http://www.w3.org/2000/svg" width="528.443" height="500.777" viewBox="0 0 528.443 500.777">
  <g id="about_us" transform="translate(-674 -369)">
    <g id="Group_36044" data-name="Group 36044" transform="translate(674 369)">
      <g id="Background_Simple" data-name="Background Simple" transform="translate(0 6.408)">
        <g id="Group_36009" data-name="Group 36009">
          <path id="Path_39759" data-name="Path 39759" d="M571.245,281.31c-4.049-20.293-8.552-40.467-14.733-60.2-17.941-57.276-53.659-115.229-115-134.711-45.27-14.38-94.153-4.456-132.419,24.832C249.088,157.166,205.416,219.809,139.747,259.61c-54.824,33.23-83.528,86.907-65.087,162.772s80,120.06,147.352,114.629c56.012-4.516,114.56.309,162.976,27.493,43.261,24.289,119.717,3.2,182.961-63.194,36.836-38.674,33.27-87.845,21.267-133.829C581.815,339.136,576.988,310.1,571.245,281.31Z" transform="translate(-69.082 -79.887)" fill="#00d747"/>
          <path id="Path_39760" data-name="Path 39760" d="M571.245,281.31c-4.049-20.293-8.552-40.467-14.733-60.2-17.941-57.276-53.659-115.229-115-134.711-45.27-14.38-94.153-4.456-132.419,24.832C249.088,157.166,205.416,219.809,139.747,259.61c-54.824,33.23-83.528,86.907-65.087,162.772s80,120.06,147.352,114.629c56.012-4.516,114.56.309,162.976,27.493,43.261,24.289,119.717,3.2,182.961-63.194,36.836-38.674,33.27-87.845,21.267-133.829C581.815,339.136,576.988,310.1,571.245,281.31Z" transform="translate(-69.082 -79.887)" fill="#fff" opacity="0.9"/>
        </g>
      </g>
      <g id="Plants" transform="translate(8.049 0)">
        <g id="Group_36013" data-name="Group 36013">
          <g id="Group_36010" data-name="Group 36010">
            <path id="Path_39761" data-name="Path 39761" d="M143.677,102.321c.006,0,6.843-5.4,8.6-8.869,1.492-2.954,2.573-7.13,1.033-10.277a5.872,5.872,0,0,0-8.321-2.668c-4.213,2.62-4.664,11.557-3.591,15.856C141.487,96.734,143.605,102.376,143.677,102.321Z" transform="translate(-43.889 -73.581)" fill="#00d747"/>
            <path id="Path_39762" data-name="Path 39762" d="M101.533,131.768c.284.259,5.162,3.8,5.192,3.71,0-.006,2.727-8.28,2.276-12.139-.385-3.287-1.786-7.367-4.807-9.141a5.871,5.871,0,0,0-8.411,2.364C93.714,121.072,98.267,128.775,101.533,131.768Z" transform="translate(-65.012 -58.006)" fill="#00d747"/>
            <path id="Path_39763" data-name="Path 39763" d="M205.449,100.749s-25.052,25.859-24.916,57.624,25.411,57.406,25.411,57.406S231,189.919,230.859,158.155,205.449,100.749,205.449,100.749Z" transform="translate(-25.544 -63.823)" fill="#00d747"/>
            <path id="Path_39764" data-name="Path 39764" d="M218.772,189.08a9.4,9.4,0,0,0,.906-1.138c1.823-2.762,3.376-6.788,2.207-10.089a5.872,5.872,0,0,0-7.958-3.607c-3.4,1.606-5.069,7.061-5.429,11.523-1.358-.312-2.581-.547-3.631-.724q-.674-1.514-1.359-3.056c-.5-1.055-.84-2.118-1.274-3.192-.6-1.587-1.138-3.253-1.681-4.915,1.982-.885,7.752-3.584,9.9-5.96,2.219-2.455,4.365-6.2,3.71-9.639a5.871,5.871,0,0,0-7.32-4.772c-4.756,1.416-7.551,9.915-7.651,14.345,0,.145.073,1.083.174,2.194-.478-1.638-.964-3.272-1.394-4.949-1.223-4.756-2.32-9.639-3.441-14.526-.234-1.02-.483-2.033-.72-3.05,1.672-.737,7.948-3.606,10.2-6.1,2.219-2.455,4.365-6.2,3.71-9.639a5.871,5.871,0,0,0-7.32-4.77c-4.756,1.415-7.551,9.915-7.651,14.345,0,.158.089,1.279.2,2.531-.645-2.646-1.324-5.278-2.077-7.867a104.159,104.159,0,0,0-4.677-13.056c.591-.253,8.018-3.468,10.521-6.236,2.221-2.455,4.365-6.2,3.711-9.639a5.872,5.872,0,0,0-7.322-4.77c-4.754,1.415-7.551,9.915-7.651,14.345-.006.315.361,4.364.541,5.806-.022-.048-.038-.1-.061-.152a76.625,76.625,0,0,0-6.817-11.783,104.044,104.044,0,0,0-7.528-9.561c-2.468-2.847-4.9-5.3-7.072-7.45-1.185-1.156-2.289-2.191-3.331-3.147l.105-.01c.091-.009-2.317-5.534-2.509-5.865-2.224-3.834-8.77-9.933-13.619-8.881a5.873,5.873,0,0,0-4.114,7.709c1.085,3.331,4.769,5.576,7.9,6.656,3.205,1.107,10.209.572,11.946.418,1.061,1.014,2.184,2.109,3.4,3.347,2.118,2.194,4.49,4.69,6.886,7.578.641.768,1.3,1.619,1.95,2.434-1.384-1.144-3.3-2.687-3.508-2.816-3.739-2.379-12.36-4.775-16.178-1.606a5.871,5.871,0,0,0-.1,8.738c2.5,2.456,6.8,2.75,10.075,2.267,3.416-.5,9.519-4.317,10.846-5.165,1.416,1.826,2.829,3.733,4.185,5.809a75.69,75.69,0,0,1,6.479,11.776c.1.238.178.5.278.737-.587-.683-4.071-4.2-4.342-4.421-3.455-2.774-11.76-6.1-15.9-3.372a5.871,5.871,0,0,0-1.056,8.673c2.212,2.715,6.457,3.482,9.765,3.362,3.811-.139,11.32-3.928,11.6-4.071a103.549,103.549,0,0,1,4.235,12.725c.857,3.2,1.593,6.478,2.3,9.773-.784-.872-4.024-4.141-4.285-4.351-3.454-2.774-11.76-6.1-15.9-3.373a5.87,5.87,0,0,0-1.058,8.673c2.212,2.717,6.459,3.482,9.765,3.362,3.722-.135,10.932-3.733,11.538-4.038.32,1.5.648,2.989.957,4.491,1.012,4.9,2.007,9.826,3.136,14.652.391,1.672.838,3.306,1.279,4.944-1.216-1.27-3.47-3.539-3.685-3.713-3.455-2.774-11.761-6.1-15.9-3.373a5.872,5.872,0,0,0-1.058,8.675c2.212,2.715,6.459,3.482,9.765,3.362,3.322-.121,9.452-3.015,11.165-3.855.753,2.719,1.561,5.4,2.481,8,.421,1.113.78,2.276,1.245,3.322.236.56.465,1.11.7,1.666-.616-.069-.957-.092-.957-.092s-.066,1.551.082,4.073c-3.648-2.6-8.9-4.833-12.322-3.264a5.871,5.871,0,0,0-2.36,8.413,6.862,6.862,0,0,0,.765,1.053,22.794,22.794,0,0,0,4.71,10.5c.186.215,2.665,2.5,3.957,3.641-1.249-.677-2.491-1.346-3.779-2.073-1.862-1.031-3.795-2.183-5.674-3.286l-2.889-1.843c-.995-.606-1.868-1.3-2.823-1.96-1.375-.992-2.744-2.085-4.114-3.172,1.164-1.832,4.488-7.266,4.969-10.433.5-3.272.222-7.578-2.222-10.086a5.872,5.872,0,0,0-8.738.059c-3.186,3.8-.828,12.436,1.532,16.185.078.123.658.862,1.356,1.735-1.3-1.1-2.61-2.2-3.894-3.359-3.644-3.291-7.251-6.76-10.884-10.218-.756-.721-1.523-1.429-2.282-2.147.987-1.536,4.64-7.392,5.145-10.711.5-3.271.222-7.578-2.222-10.085a5.872,5.872,0,0,0-8.738.059c-3.186,3.8-.828,12.436,1.532,16.185.085.133.781,1.017,1.568,2-2-1.851-4.017-3.67-6.072-5.414a104.041,104.041,0,0,0-11.1-8.311c.354-.537,4.775-7.316,5.335-11.005.5-3.272.222-7.578-2.222-10.086a5.872,5.872,0,0,0-8.738.059c-3.186,3.8-.828,12.437,1.533,16.185.167.266,2.708,3.442,3.653,4.545-.045-.028-.088-.064-.133-.092a76.7,76.7,0,0,0-12.187-6.068,104.184,104.184,0,0,0-11.554-3.821c-3.629-1.014-7.01-1.716-10.007-2.314-1.627-.31-3.119-.565-4.514-.787l.082-.066c.07-.057-4.987-3.337-5.329-3.508-3.969-1.97-12.793-3.447-16.257.105a5.871,5.871,0,0,0,.822,8.7c2.741,2.18,7.052,2.02,10.258,1.2,3.284-.846,8.83-5.154,10.193-6.241,1.444.26,2.986.554,4.681.917,2.977.661,6.333,1.435,9.924,2.521.957.288,1.976.636,2.968.955-1.785-.19-4.238-.418-4.479-.414-4.43.079-12.942,2.837-14.379,7.585a5.87,5.87,0,0,0,4.738,7.342c3.436.671,7.19-1.457,9.653-3.666,2.572-2.3,5.559-8.852,6.2-10.291,2.188.74,4.419,1.552,6.7,2.535a75.72,75.72,0,0,1,11.9,6.249c.217.142.423.316.639.461-.867-.246-5.714-1.26-6.061-1.292-4.412-.408-13.176,1.4-15.125,5.961a5.87,5.87,0,0,0,3.9,7.818c3.343,1.044,7.307-.66,10-2.583,3.1-2.219,7.275-9.52,7.431-9.8a103.5,103.5,0,0,1,10.553,8.277c2.48,2.2,4.9,4.523,7.31,6.881-1.134-.3-5.639-1.235-5.973-1.265-4.411-.408-13.176,1.4-15.125,5.96a5.87,5.87,0,0,0,3.9,7.818c3.343,1.044,7.307-.658,10-2.583,3.028-2.165,7.058-9.143,7.395-9.732,1.094,1.071,2.19,2.136,3.277,3.218,3.55,3.533,7.093,7.089,10.7,10.492,1.249,1.179,2.523,2.294,3.795,3.419-1.714-.391-4.846-1.039-5.122-1.064-4.412-.408-13.176,1.4-15.126,5.96a5.871,5.871,0,0,0,3.9,7.818c3.343,1.044,7.307-.658,10-2.583s6.219-7.728,7.186-9.374c2.128,1.853,4.282,3.645,6.485,5.309.965.7,1.906,1.469,2.872,2.085q1.437.963,2.848,1.9c1.991,1.233,3.837,2.384,5.72,3.483.948.563,1.853,1.071,2.781,1.606-1.676-.655-4.352-1.649-4.605-1.712-4.3-1.072-13.236-.614-15.855,3.6a5.873,5.873,0,0,0,2.674,8.319c3.147,1.537,7.323.455,10.275-1.04,3.255-1.647,8.153-7.709,8.748-8.454,2.276,1.3,4.506,2.538,6.612,3.66,5.62,3.011,10.53,5.41,14.338,7.2,12.37,10.7,29.783,11.874,29.783,11.874s.92-20.855-11.359-34.581A42.973,42.973,0,0,0,218.772,189.08Zm-22.094,20.337c.388-.853,3.353-7.478,3.558-11.217.689-.126,1.38-.271,2.051-.426a48.293,48.293,0,0,0,7.681,18.363c-2.25-1.068-4.683-2.256-7.27-3.569C200.772,211.595,198.748,210.53,196.678,209.416Z" transform="translate(-74.584 -75.507)" fill="#00d747"/>
            <path id="Path_39765" data-name="Path 39765" d="M250.161,150.418s-20.866.639-33.639,13.909-12.614,34.145-12.614,34.145,20.866-.639,33.639-13.91S250.161,150.418,250.161,150.418Z" transform="translate(-14.724 -40.833)" fill="#00d747"/>
          </g>
          <g id="Group_36011" data-name="Group 36011" opacity="0.5">
            <path id="Path_39766" data-name="Path 39766" d="M143.677,102.321c.006,0,6.843-5.4,8.6-8.869,1.492-2.954,2.573-7.13,1.033-10.277a5.872,5.872,0,0,0-8.321-2.668c-4.213,2.62-4.664,11.557-3.591,15.856C141.487,96.734,143.605,102.376,143.677,102.321Z" transform="translate(-43.889 -73.581)" fill="#fff"/>
            <path id="Path_39767" data-name="Path 39767" d="M101.533,131.768c.284.259,5.162,3.8,5.192,3.71,0-.006,2.727-8.28,2.276-12.139-.385-3.287-1.786-7.367-4.807-9.141a5.871,5.871,0,0,0-8.411,2.364C93.714,121.072,98.267,128.775,101.533,131.768Z" transform="translate(-65.012 -58.006)" fill="#fff"/>
            <path id="Path_39768" data-name="Path 39768" d="M205.449,100.749s-25.052,25.859-24.916,57.624,25.411,57.406,25.411,57.406S231,189.919,230.859,158.155,205.449,100.749,205.449,100.749Z" transform="translate(-25.544 -63.823)" fill="#fff"/>
            <path id="Path_39769" data-name="Path 39769" d="M218.772,189.08a9.4,9.4,0,0,0,.906-1.138c1.823-2.762,3.376-6.788,2.207-10.089a5.872,5.872,0,0,0-7.958-3.607c-3.4,1.606-5.069,7.061-5.429,11.523-1.358-.312-2.581-.547-3.631-.724q-.674-1.514-1.359-3.056c-.5-1.055-.84-2.118-1.274-3.192-.6-1.587-1.138-3.253-1.681-4.915,1.982-.885,7.752-3.584,9.9-5.96,2.219-2.455,4.365-6.2,3.71-9.639a5.871,5.871,0,0,0-7.32-4.772c-4.756,1.416-7.551,9.915-7.651,14.345,0,.145.073,1.083.174,2.194-.478-1.638-.964-3.272-1.394-4.949-1.223-4.756-2.32-9.639-3.441-14.526-.234-1.02-.483-2.033-.72-3.05,1.672-.737,7.948-3.606,10.2-6.1,2.219-2.455,4.365-6.2,3.71-9.639a5.871,5.871,0,0,0-7.32-4.77c-4.756,1.415-7.551,9.915-7.651,14.345,0,.158.089,1.279.2,2.531-.645-2.646-1.324-5.278-2.077-7.867a104.159,104.159,0,0,0-4.677-13.056c.591-.253,8.018-3.468,10.521-6.236,2.221-2.455,4.365-6.2,3.711-9.639a5.872,5.872,0,0,0-7.322-4.77c-4.754,1.415-7.551,9.915-7.651,14.345-.006.315.361,4.364.541,5.806-.022-.048-.038-.1-.061-.152a76.625,76.625,0,0,0-6.817-11.783,104.044,104.044,0,0,0-7.528-9.561c-2.468-2.847-4.9-5.3-7.072-7.45-1.185-1.156-2.289-2.191-3.331-3.147l.105-.01c.091-.009-2.317-5.534-2.509-5.865-2.224-3.834-8.77-9.933-13.619-8.881a5.873,5.873,0,0,0-4.114,7.709c1.085,3.331,4.769,5.576,7.9,6.656,3.205,1.107,10.209.572,11.946.418,1.061,1.014,2.184,2.109,3.4,3.347,2.118,2.194,4.49,4.69,6.886,7.578.641.768,1.3,1.619,1.95,2.434-1.384-1.144-3.3-2.687-3.508-2.816-3.739-2.379-12.36-4.775-16.178-1.606a5.871,5.871,0,0,0-.1,8.738c2.5,2.456,6.8,2.75,10.075,2.267,3.416-.5,9.519-4.317,10.846-5.165,1.416,1.826,2.829,3.733,4.185,5.809a75.69,75.69,0,0,1,6.479,11.776c.1.238.178.5.278.737-.587-.683-4.071-4.2-4.342-4.421-3.455-2.774-11.76-6.1-15.9-3.372a5.871,5.871,0,0,0-1.056,8.673c2.212,2.715,6.457,3.482,9.765,3.362,3.811-.139,11.32-3.928,11.6-4.071a103.549,103.549,0,0,1,4.235,12.725c.857,3.2,1.593,6.478,2.3,9.773-.784-.872-4.024-4.141-4.285-4.351-3.454-2.774-11.76-6.1-15.9-3.373a5.87,5.87,0,0,0-1.058,8.673c2.212,2.717,6.459,3.482,9.765,3.362,3.722-.135,10.932-3.733,11.538-4.038.32,1.5.648,2.989.957,4.491,1.012,4.9,2.007,9.826,3.136,14.652.391,1.672.838,3.306,1.279,4.944-1.216-1.27-3.47-3.539-3.685-3.713-3.455-2.774-11.761-6.1-15.9-3.373a5.872,5.872,0,0,0-1.058,8.675c2.212,2.715,6.459,3.482,9.765,3.362,3.322-.121,9.452-3.015,11.165-3.855.753,2.719,1.561,5.4,2.481,8,.421,1.113.78,2.276,1.245,3.322.236.56.465,1.11.7,1.666-.616-.069-.957-.092-.957-.092s-.066,1.551.082,4.073c-3.648-2.6-8.9-4.833-12.322-3.264a5.871,5.871,0,0,0-2.36,8.413,6.862,6.862,0,0,0,.765,1.053,22.794,22.794,0,0,0,4.71,10.5c.186.215,2.665,2.5,3.957,3.641-1.249-.677-2.491-1.346-3.779-2.073-1.862-1.031-3.795-2.183-5.674-3.286l-2.889-1.843c-.995-.606-1.868-1.3-2.823-1.96-1.375-.992-2.744-2.085-4.114-3.172,1.164-1.832,4.488-7.266,4.969-10.433.5-3.272.222-7.578-2.222-10.086a5.872,5.872,0,0,0-8.738.059c-3.186,3.8-.828,12.436,1.532,16.185.078.123.658.862,1.356,1.735-1.3-1.1-2.61-2.2-3.894-3.359-3.644-3.291-7.251-6.76-10.884-10.218-.756-.721-1.523-1.429-2.282-2.147.987-1.536,4.64-7.392,5.145-10.711.5-3.271.222-7.578-2.222-10.085a5.872,5.872,0,0,0-8.738.059c-3.186,3.8-.828,12.436,1.532,16.185.085.133.781,1.017,1.568,2-2-1.851-4.017-3.67-6.072-5.414a104.041,104.041,0,0,0-11.1-8.311c.354-.537,4.775-7.316,5.335-11.005.5-3.272.222-7.578-2.222-10.086a5.872,5.872,0,0,0-8.738.059c-3.186,3.8-.828,12.437,1.533,16.185.167.266,2.708,3.442,3.653,4.545-.045-.028-.088-.064-.133-.092a76.7,76.7,0,0,0-12.187-6.068,104.184,104.184,0,0,0-11.554-3.821c-3.629-1.014-7.01-1.716-10.007-2.314-1.627-.31-3.119-.565-4.514-.787l.082-.066c.07-.057-4.987-3.337-5.329-3.508-3.969-1.97-12.793-3.447-16.257.105a5.871,5.871,0,0,0,.822,8.7c2.741,2.18,7.052,2.02,10.258,1.2,3.284-.846,8.83-5.154,10.193-6.241,1.444.26,2.986.554,4.681.917,2.977.661,6.333,1.435,9.924,2.521.957.288,1.976.636,2.968.955-1.785-.19-4.238-.418-4.479-.414-4.43.079-12.942,2.837-14.379,7.585a5.87,5.87,0,0,0,4.738,7.342c3.436.671,7.19-1.457,9.653-3.666,2.572-2.3,5.559-8.852,6.2-10.291,2.188.74,4.419,1.552,6.7,2.535a75.72,75.72,0,0,1,11.9,6.249c.217.142.423.316.639.461-.867-.246-5.714-1.26-6.061-1.292-4.412-.408-13.176,1.4-15.125,5.961a5.87,5.87,0,0,0,3.9,7.818c3.343,1.044,7.307-.66,10-2.583,3.1-2.219,7.275-9.52,7.431-9.8a103.5,103.5,0,0,1,10.553,8.277c2.48,2.2,4.9,4.523,7.31,6.881-1.134-.3-5.639-1.235-5.973-1.265-4.411-.408-13.176,1.4-15.125,5.96a5.87,5.87,0,0,0,3.9,7.818c3.343,1.044,7.307-.658,10-2.583,3.028-2.165,7.058-9.143,7.395-9.732,1.094,1.071,2.19,2.136,3.277,3.218,3.55,3.533,7.093,7.089,10.7,10.492,1.249,1.179,2.523,2.294,3.795,3.419-1.714-.391-4.846-1.039-5.122-1.064-4.412-.408-13.176,1.4-15.126,5.96a5.871,5.871,0,0,0,3.9,7.818c3.343,1.044,7.307-.658,10-2.583s6.219-7.728,7.186-9.374c2.128,1.853,4.282,3.645,6.485,5.309.965.7,1.906,1.469,2.872,2.085q1.437.963,2.848,1.9c1.991,1.233,3.837,2.384,5.72,3.483.948.563,1.853,1.071,2.781,1.606-1.676-.655-4.352-1.649-4.605-1.712-4.3-1.072-13.236-.614-15.855,3.6a5.873,5.873,0,0,0,2.674,8.319c3.147,1.537,7.323.455,10.275-1.04,3.255-1.647,8.153-7.709,8.748-8.454,2.276,1.3,4.506,2.538,6.612,3.66,5.62,3.011,10.53,5.41,14.338,7.2,12.37,10.7,29.783,11.874,29.783,11.874s.92-20.855-11.359-34.581A42.973,42.973,0,0,0,218.772,189.08Zm-22.094,20.337c.388-.853,3.353-7.478,3.558-11.217.689-.126,1.38-.271,2.051-.426a48.293,48.293,0,0,0,7.681,18.363c-2.25-1.068-4.683-2.256-7.27-3.569C200.772,211.595,198.748,210.53,196.678,209.416Z" transform="translate(-74.584 -75.507)" fill="#fff"/>
            <path id="Path_39770" data-name="Path 39770" d="M250.161,150.418s-20.866.639-33.639,13.909-12.614,34.145-12.614,34.145,20.866-.639,33.639-13.91S250.161,150.418,250.161,150.418Z" transform="translate(-14.724 -40.833)" fill="#fff"/>
          </g>
          <g id="Group_36012" data-name="Group 36012" transform="translate(125.919 36.923)">
            <path id="Path_39771" data-name="Path 39771" d="M205.245,186.849l20.494-18.426-.88-.977-19.626,17.646-.1-24.149.108.074,17.334-25.346-1.086-.743-16.365,23.929-.25-58.109-1.314.006.17,39.44L190.677,128.9l-.86.994,13.915,12.042.122,28.2-19.778-17.5-.871.983L203.861,171.9l.111,25.677-14.863-11.663-.811,1.034,15.682,12.305.071,16.529,1.314-.006-.125-28.933Z" transform="translate(-150.226 -100.747)" fill="#fff"/>
            <path id="Path_39772" data-name="Path 39772" d="M196.8,171.285l-1.306-.149-1.656,14.594-8.8-9.836.016,0-2.231-17.663-1.3.166,2,15.8-21.875-24.453-.98.877L175.5,167.207l-9.4.114.017,1.314,10.542-.128,10.407,11.634-14.694.017,0,1.314,15.866-.018,9.463,10.578-10.365.624.08,1.311,11.4-.687,6.3,7.045.98-.877-11.1-12.407Z" transform="translate(-160.661 -78.07)" fill="#fff"/>
            <path id="Path_39773" data-name="Path 39773" d="M226.452,176.318l17.447-3.543-.263-1.288-15.6,3.169,22.752-23.637-.945-.912L234.4,166.146l-.815-9.363-1.309.114.914,10.505-10.824,11.245L221.252,164l-1.311.1,1.2,15.822L211.3,190.143l-1.4-10.289-1.3.177,1.535,11.32-6.554,6.809.946.911,11.543-11.993,15.848.607.051-1.314-14.678-.562,9.153-9.509Z" transform="translate(-140.793 -77.9)" fill="#fff"/>
          </g>
        </g>
      </g>
      <g id="Characters" transform="translate(38.159 56.295)">
        <g id="Group_36043" data-name="Group 36043">
          <g id="Group_36015" data-name="Group 36015" transform="translate(142.201 3.134)">
            <ellipse id="Ellipse_218" data-name="Ellipse 218" cx="12.391" cy="12.517" rx="12.391" ry="12.517" transform="translate(35.797)" fill="#263238" stroke="#263238" stroke-linecap="round" stroke-linejoin="round" stroke-width="1"/>
            <path id="Path_39774" data-name="Path 39774" d="M250.856,148.112s5.816-.253,7.333,10.114,7.586,37.426,8.093,41.219-1.77,8.346-7.333,10.116-8.6-3.54-9.1-6.069-5.41-33.333-5.41-33.333Z" transform="translate(-168.277 -101.329)" fill="#263238" stroke="#263238" stroke-linecap="round" stroke-linejoin="round" stroke-width="1"/>
            <path id="Path_39775" data-name="Path 39775" d="M218,167.858s-25.629,10.844-25.629,14.787,15.773,42.388,15.773,42.388l68.017-17.745-7.632-42.6S258.419,152.086,218,167.858Z" transform="translate(-192.374 -95.863)" fill="#32cd32" stroke="#263238" stroke-linecap="round" stroke-linejoin="round" stroke-width="1"/>
            <path id="Path_39776" data-name="Path 39776" d="M234.667,150.12s-7.333,4.552-13.15,7.84S206.851,165.8,206.851,174.9s6.576,45.264,6.576,49.057.252,5.816.252,5.059,44.506-15.426,44.506-15.426,2.782-11.633,5.059-17.2,0-10.367,2.528-19.471,7.333-15.173,5.312-22-2.529-6.576-9.863-6.829S241.748,147.844,234.667,150.12Z" transform="translate(-185.673 -101.387)" fill="#263238" stroke="#263238" stroke-linecap="round" stroke-linejoin="round" stroke-width="1"/>
            <path id="Path_39777" data-name="Path 39777" d="M225.426,147.191s-3.287,1.77-4.552,9.861a155.433,155.433,0,0,0-1.264,19.472s13.656-7.586,15.679-7.84,16.69,5.816,16.69,5.816-2.023-11.633-5.059-19.724S228.46,143.651,225.426,147.191Z" transform="translate(-179.767 -102.432)" fill="#fff" stroke="#263238" stroke-linecap="round" stroke-linejoin="round" stroke-width="1"/>
            <path id="Path_39778" data-name="Path 39778" d="M221.857,145.346s.089.312.25.867c.983,3.419,4.656,16.089,6.832,22.4,2.528,7.333,6.321,10.369,6.321,10.369l3.793-15.173S224.133,149.392,221.857,145.346Z" transform="translate(-178.727 -102.61)" fill="#fff" stroke="#263238" stroke-linecap="round" stroke-linejoin="round" stroke-width="1"/>
            <path id="Path_39779" data-name="Path 39779" d="M236.558,123.245s-12.39-2.023-16.69,14.162,9.61,30.091,13.656,35.4,9.877,7,13.15,1.77c5.057-8.093,6.574-12.139,7.333-22.759s-.506-17.7-5.31-23.265S236.558,123.245,236.558,123.245Z" transform="translate(-180.025 -112.877)" fill="#fff" stroke="#263238" stroke-linecap="round" stroke-linejoin="round" stroke-width="1"/>
            <g id="Group_36014" data-name="Group 36014" transform="translate(39.03 10.287)">
              <path id="Path_39780" data-name="Path 39780" d="M248.7,128.555c-4.806-5.563-12.139-5.31-12.139-5.31s-12.39-2.023-16.69,14.162a25.521,25.521,0,0,0,.341,13.937c.449-1.157,1.132-2.052,2.188-2.052,3.034,0,3.287,4.3,4.3,4.046s5.059-3.793,4.3-7.08.253-4.8,5.563-4.8,6.576,2.275,8.346,1.77,3.034-4.046,4.8-4.046A5.982,5.982,0,0,1,253.9,141.1,22.482,22.482,0,0,0,248.7,128.555Z" transform="translate(-219.055 -123.164)" fill="#263238" stroke="#263238" stroke-linecap="round" stroke-linejoin="round" stroke-width="1"/>
            </g>
            <path id="Path_39781" data-name="Path 39781" d="M226.516,146.617s-2.022-5.057-4.3-5.563-3.54,1.012-2.276,5.31,3.034,6.069,4.046,6.069,1.517-1.517,1.517-1.517" transform="translate(-179.846 -104.639)" fill="#fff" stroke="#263238" stroke-linecap="round" stroke-linejoin="round" stroke-width="1"/>
            <path id="Path_39782" data-name="Path 39782" d="M211.658,180.264s1.265,8.093,6.829,11.633,13.15,1.77,13.15,1.77" transform="translate(-183.448 -86.447)" fill="none" stroke="#263238" stroke-linecap="round" stroke-linejoin="round" stroke-width="1"/>
            <path id="Path_39783" data-name="Path 39783" d="M231.019,168.337s3.54,13.4,2.782,19.218" transform="translate(-174.487 -91.968)" fill="none" stroke="#263238" stroke-linecap="round" stroke-linejoin="round" stroke-width="1"/>
          </g>
          <g id="Group_36016" data-name="Group 36016" transform="translate(46.717 75.933)">
            <path id="Path_39784" data-name="Path 39784" d="M181.82,166.06s3.072,1.28,5.376,9.216,8.448,22.528,9.984,28.16,1.024,12.8-5.632,14.592-13.824-16.384-14.848-17.92-3.584-15.872-2.3-23.552S179,165.036,181.82,166.06Z" transform="translate(-105.374 -165.897)" fill="#fff" stroke="#263238" stroke-linecap="round" stroke-linejoin="round" stroke-width="1"/>
            <path id="Path_39785" data-name="Path 39785" d="M167.087,184.183S127.1,223.192,127.1,229.043s23.527,54.249,30.11,53.152,36.206-32.672,36.206-32.672Z" transform="translate(-127.102 -157.432)" fill="#32cd32" stroke="#263238" stroke-linecap="round" stroke-linejoin="round" stroke-width="1"/>
            <path id="Path_39786" data-name="Path 39786" d="M164.318,172.177a251.417,251.417,0,0,0-21.5,21.5c-8.962,10.5-8.194,28.16-5.376,40.192s7.936,46.082,14.336,47.362,11.52-12.288,22.784-22.016S194.783,241.3,195.55,234.9s-.256-26.88.256-28.416,2.048-15.36,2.048-22.784-5.632-15.616-11.264-17.408S166.622,170.385,164.318,172.177Z" transform="translate(-123.2 -165.87)" fill="#fff" stroke="#263238" stroke-linecap="round" stroke-linejoin="round" stroke-width="1"/>
          </g>
          <path id="Path_39787" data-name="Path 39787" d="M213.859,336.223s-8.258,17.031-20.128,27.869-30.451,24.257-30.451,24.257,19.613,6.194,23.741,6.71,3.1,2.581-1.548,4.645-10.322,3.613-23.226,3.613-21.16,0-21.677-3.1,7.743-10.838,13.935-17.032,29.935-44.9,32-46.965S203.021,327.449,213.859,336.223Z" transform="translate(-74.161 -13.161)" fill="#fff" stroke="#263238" stroke-linecap="round" stroke-linejoin="round" stroke-width="1"/>
          <path id="Path_39788" data-name="Path 39788" d="M187.022,377.01c-3.4-.426-17.287-4.7-22.089-6.192l-3.716,8.256a18.347,18.347,0,0,1-15.61-4.9c-3.076,3.359-5.31,6.34-5.035,7.993.516,3.1,8.774,3.1,21.677,3.1s18.58-1.549,23.226-3.613S191.151,377.527,187.022,377.01Z" transform="translate(-74.161 4.888)" fill="#263238" stroke="#263238" stroke-linecap="round" stroke-linejoin="round" stroke-width="1"/>
          <g id="Group_36017" data-name="Group 36017" transform="translate(287.768 318.662)">
            <path id="Path_39789" data-name="Path 39789" d="M291.882,336.223s8.258,17.031,20.128,27.869,30.451,24.257,30.451,24.257-19.613,6.194-23.741,6.71-3.1,2.581,1.548,4.645,10.323,3.613,23.226,3.613,21.16,0,21.677-3.1-7.741-10.838-13.935-17.032-29.935-44.9-32-46.965S302.72,327.449,291.882,336.223Z" transform="translate(-291.882 -331.823)" fill="#fff" stroke="#263238" stroke-linecap="round" stroke-linejoin="round" stroke-width="1"/>
            <path id="Path_39790" data-name="Path 39790" d="M311.046,377.01c3.4-.426,17.287-4.7,22.089-6.192l3.716,8.256a18.347,18.347,0,0,0,15.61-4.9c3.076,3.359,5.31,6.34,5.035,7.993-.516,3.1-8.774,3.1-21.677,3.1s-18.58-1.549-23.226-3.613S306.918,377.527,311.046,377.01Z" transform="translate(-284.209 -313.774)" fill="#263238" stroke="#263238" stroke-linecap="round" stroke-linejoin="round" stroke-width="1"/>
          </g>
          <path id="Path_39791" data-name="Path 39791" d="M111.113,341.73s7.227,13.419,6.71,18.064c-.421,3.795-9.45,32.721-12.744,43.2a2.634,2.634,0,0,0,2.756,3.413h0a2.639,2.639,0,0,0,2.269-1.81l14.428-44.282s2.582-3.1,10.838-4.645c6.328-1.186,37.8-2.676,52.175-3.308a10.3,10.3,0,0,1,10.775,9.294c.006.069.01.138.016.208.458,5.958,10.28,36.747,12.471,43.564a1.629,1.629,0,0,0,1.826,1.1h0a1.63,1.63,0,0,0,1.333-1.959c-1.757-7.981-9.289-42.469-12.016-59.742,0,0-54.708,2.58-67.094-.516a77.487,77.487,0,0,1-21.162-8.774S110.6,335.536,111.113,341.73Z" transform="translate(-90.637 -11.443)" fill="#263238" stroke="#263238" stroke-linecap="round" stroke-linejoin="round" stroke-width="1"/>
          <path id="Path_39792" data-name="Path 39792" d="M111,278.765s-18.58,58.32-15.483,68.642,18.063,24.774,23.741,24.774,10.322-56.772,10.322-61.933-9.806-23.741-12.9-31.482S111,278.765,111,278.765Z" transform="translate(-95.167 -39.313)" fill="#32cd32" stroke="#263238" stroke-linecap="round" stroke-linejoin="round" stroke-width="1"/>
          <path id="Path_39793" data-name="Path 39793" d="M204.315,355.915c-.183,5.8-1.094,10.323-3.53,10.323-4.646,0-55.225,5.162-67.094,4.646s-20.645-6.71-20.645-15.483.516-47.483,9.291-52.644,55.223-5.677,66.065-5.677c13.341,0,13.921,25.779,14.484,34.515C203.051,334.169,204.607,346.665,204.315,355.915Z" transform="translate(-86.892 -29.243)" fill="#32cd32" stroke="#263238" stroke-linecap="round" stroke-linejoin="round" stroke-width="1"/>
          <path id="Path_39794" data-name="Path 39794" d="M168.115,345.015s33.032,1.033,35.612-4.128,0-16-6.709-18.065-34.579-.515-34.579-.515Z" transform="translate(-64.029 -17.825)" fill="#fff" stroke="#263238" stroke-linecap="round" stroke-linejoin="round" stroke-width="1"/>
          <path id="Path_39795" data-name="Path 39795" d="M112.469,310.184a68.267,68.267,0,0,0-2.58,21.16c.516,11.355,3.613,22.71,19.1,32s66.062-1.548,66.062-1.548l-3.612-67.611s-33.548-4.128-52.128-.516S112.985,308.119,112.469,310.184Z" transform="translate(-88.38 -31.508)" fill="#263238" stroke="#263238" stroke-linecap="round" stroke-linejoin="round" stroke-width="1"/>
          <g id="Group_36018" data-name="Group 36018" transform="translate(245.723)">
            <path id="Path_39796" data-name="Path 39796" d="M283.337,141.87a41.317,41.317,0,0,0-8.574,13.553c-2.766,7.744-11.893,30.976-11.617,35.4s4.149,9.958,8.021,6.915,13.276-19.361,13.828-20.19S286.1,165.1,286.1,157.912,286.657,141.593,283.337,141.87Z" transform="translate(-263.141 -101.087)" fill="#fff" stroke="#263238" stroke-linecap="round" stroke-linejoin="round" stroke-width="1"/>
            <path id="Path_39797" data-name="Path 39797" d="M286.188,158.854c3.03-.578,72.168,14.629,72.168,22.432S342.751,232,342.751,232l-66.316-17.554S277.766,160.463,286.188,158.854Z" transform="translate(-256.987 -93.231)" fill="#32cd32" stroke="#263238" stroke-linecap="round" stroke-linejoin="round" stroke-width="1"/>
            <path id="Path_39798" data-name="Path 39798" d="M310.329,135.963s-14.936-1.659-25.445,3.6-10.511,14.1-9.958,22.68,3.414,54.809,4.244,58.128,19.819,2.442,30.883,4.655,18.807-6.915,20.467-10.509,21.02-38.722,21.02-46.19-8.021-21.573-19.361-28.211A32.068,32.068,0,0,0,310.329,135.963Z" transform="translate(-257.772 -104.03)" fill="#fff" stroke="#263238" stroke-linecap="round" stroke-linejoin="round" stroke-width="1"/>
            <path id="Path_39799" data-name="Path 39799" d="M294.684,157.393l3.042,6.638-11.893,41.487,2.766,8.021,8.021-6.085,4.425-42.594,6.085-6.638-3.042-7.468Z" transform="translate(-252.637 -96.972)" fill="#263238" stroke="#263238" stroke-linecap="round" stroke-linejoin="round" stroke-width="1"/>
            <path id="Path_39800" data-name="Path 39800" d="M294.114,145.145a67,67,0,0,0-4.15,9.68c-1.106,3.872-1.106,11.064-1.106,11.064s8.85-4.149,11.34-4.149,7.468,11.34,7.468,11.34,7.468-11.064,8.574-19.085-7.468-13.828-13.552-13.828A9.8,9.8,0,0,0,294.114,145.145Z" transform="translate(-251.237 -101.873)" fill="#fff" stroke="#263238" stroke-linecap="round" stroke-linejoin="round" stroke-width="1"/>
            <path id="Path_39801" data-name="Path 39801" d="M315.492,138.7s2.766-4.149,3.319-.276-2.766,6.915-4.7,8.021a2.982,2.982,0,0,1-3.319,0" transform="translate(-241.086 -103.446)" fill="#fff" stroke="#263238" stroke-linecap="round" stroke-linejoin="round" stroke-width="1"/>
            <path id="Path_39802" data-name="Path 39802" d="M296.287,127.3s-2.765-2.212-4.425,2.213,1.107,9.956,1.107,9.956l2.765-5.808" transform="translate(-250.092 -108.086)" fill="#fff" stroke="#263238" stroke-linecap="round" stroke-linejoin="round" stroke-width="1"/>
            <path id="Path_39803" data-name="Path 39803" d="M294.745,154.285a2.8,2.8,0,0,0,2.766,3.6c3.6.277,11.064-7.468,11.617-9.127S294.745,154.285,294.745,154.285Z" transform="translate(-248.55 -98.013)" fill="#fff" stroke="#263238" stroke-linecap="round" stroke-linejoin="round" stroke-width="1"/>
            <path id="Path_39804" data-name="Path 39804" d="M309.207,116.328s-9.681,4.425-11.893,11.34-5.809,21.02-5.809,26.275,1.66,16.042,5.255,17.7,15.489-6.084,18.808-8.3,7.191-10.786,11.34-15.764,7.468-14.106,5.808-21.574S318.887,109.689,309.207,116.328Z" transform="translate(-250.012 -113.989)" fill="#fff" stroke="#263238" stroke-linecap="round" stroke-linejoin="round" stroke-width="1"/>
            <path id="Path_39805" data-name="Path 39805" d="M332,126.008c-1.659-7.468-13.828-16.318-23.508-9.68,0,0-9.681,4.425-11.893,11.34-1.052,3.286-2.414,8.2-3.556,13.011,1.893-2.959,5.023-7.986,5.215-9.139.276-1.66.276-1.937,2.213-1.937s5.531,5.531,10.509,6.638,11.617.276,11.617,3.041-3.872,7.191-1.382,8.575c1.935,1.075.2,4.817.37,6.432a61.625,61.625,0,0,1,4.608-6.709C330.344,142.6,333.663,133.476,332,126.008Z" transform="translate(-249.299 -113.989)" fill="#263238" stroke="#263238" stroke-linecap="round" stroke-linejoin="round" stroke-width="1"/>
            <path id="Path_39806" data-name="Path 39806" d="M297.025,134.176s9.681,4.7,14.383,6.362,9.4,3.6,7.744,6.638-7.191,4.425-10.511,3.041-2.488-8.3-4.425-8.574-3.319,3.319-6.915,3.319-7.466-5.531-6.913-9.4S297.025,134.176,297.025,134.176Z" transform="translate(-250.554 -105.01)" fill="#fff" stroke="#263238" stroke-linecap="round" stroke-linejoin="round" stroke-width="1"/>
            <line id="Line_204" data-name="Line 204" y1="6.361" x2="6.361" transform="translate(69.428 33.039)" fill="#fff" stroke="#263238" stroke-linecap="round" stroke-linejoin="round" stroke-width="1"/>
            <line id="Line_205" data-name="Line 205" y1="7.468" x2="3.319" transform="translate(41.493 21.422)" fill="#fff" stroke="#263238" stroke-linecap="round" stroke-linejoin="round" stroke-width="1"/>
          </g>
          <g id="Group_36021" data-name="Group 36021" transform="translate(337.656 65.937)">
            <path id="Path_39807" data-name="Path 39807" d="M352.786,173.841s-18.336,16.3-23.09,21.051-4.98,13.809-.452,15.846,18.788-6.337,21.052-8.148S358.671,174.972,352.786,173.841Z" transform="translate(-325.985 -152.223)" fill="#263238" stroke="#263238" stroke-linecap="round" stroke-linejoin="round" stroke-width="1"/>
            <g id="Group_36020" data-name="Group 36020" transform="translate(17.724)">
              <path id="Path_39808" data-name="Path 39808" d="M388.762,201.735s24.645,24.645,19.715,32.53S356.232,266.8,356.232,266.8l-8.871-38.446Z" transform="translate(-333.815 -139.312)" fill="#32cd32" stroke="#263238" stroke-linecap="round" stroke-linejoin="round" stroke-width="1"/>
              <path id="Path_39809" data-name="Path 39809" d="M361.439,172.923s-10.413-.906-14.261,1.586-6.565,25.578-7.244,39.388-2.49,24.9-1.584,27.616,24.447,32.37,27.843,36.444S396.978,240.38,400.827,232s1.358-16.072-3.622-27.617-15.619-22.183-21.958-28.069A14.557,14.557,0,0,0,361.439,172.923Z" transform="translate(-338.101 -152.89)" fill="#263238" stroke="#263238" stroke-linecap="round" stroke-linejoin="round" stroke-width="1"/>
              <path id="Path_39810" data-name="Path 39810" d="M354.513,196.36s-.06.315-.161.878c-.29,1.627-.919,5.331-1.423,9.535-.679,5.66-.453,13.129,1.358,13.129s25.58-17.2,26.032-32.822S356.324,189.8,354.513,196.36Z" transform="translate(-331.401 -148.937)" fill="#fff" stroke="#263238" stroke-linecap="round" stroke-linejoin="round" stroke-width="1"/>
              <g id="Group_36019" data-name="Group 36019" transform="translate(17.189)">
                <path id="Path_39811" data-name="Path 39811" d="M354.642,171.173s-2.263,8.376-2.263,9.734a29.446,29.446,0,0,0,.905,4.754s-3.849,6.112-3.4,6.791a12.922,12.922,0,0,0,1.811,1.811s-.453,8.6,1.358,10.413,9.28.679,9.28.679-3.621,4.528.453,4.754,14.94-8.828,18.109-14.035,2.943-14.714,0-19.468S360.527,165.288,354.642,171.173Z" transform="translate(-349.852 -154.536)" fill="#fff" stroke="#263238" stroke-linecap="round" stroke-linejoin="round" stroke-width="1"/>
                <path id="Path_39812" data-name="Path 39812" d="M373.352,159.4s-17.43,2.263-20.6,9.055,4.076,15.166,9.282,16.3a34.038,34.038,0,0,0,8.6.905s-5.433,4.753-2.038,5.885,4.98.453,4.98,1.584-3.4,4.754-.452,4.981,3.849-4.981,5.66-3.849-.68,5.66.225,5.885,9.507-8.828,13.129-18.336-1.358-15.392-4.98-18.561S377.653,158.27,373.352,159.4Z" transform="translate(-348.868 -159.063)" fill="#263238" stroke="#263238" stroke-linecap="round" stroke-linejoin="round" stroke-width="1"/>
                <path id="Path_39813" data-name="Path 39813" d="M367.306,188.238s3.169-7.244,5.206-5.66,1.358,6.791-.906,8.6-6.565-.227-6.565-.227" transform="translate(-342.821 -148.284)" fill="#fff" stroke="#263238" stroke-linecap="round" stroke-linejoin="round" stroke-width="1"/>
              </g>
              <path id="Path_39814" data-name="Path 39814" d="M352.817,201.138l7.244-3.622-1.132,10.866" transform="translate(-331.29 -141.265)" fill="#fff" stroke="#263238" stroke-linecap="round" stroke-linejoin="round" stroke-width="1"/>
            </g>
          </g>
          <path id="Path_39815" data-name="Path 39815" d="M426.587,333.375s-13.017,25.64-12.5,30.284c.421,3.795,9.45,32.721,12.746,43.2a2.635,2.635,0,0,1-2.758,3.413h0a2.639,2.639,0,0,1-2.269-1.81l-14.428-44.282s-2.581-3.1-10.838-4.645c-6.327-1.186-37.8-2.676-52.175-3.308a10.3,10.3,0,0,0-10.774,9.294c-.006.069-.012.138-.018.208-.458,5.958-10.278,36.747-12.471,43.564a1.629,1.629,0,0,1-1.826,1.1h0a1.63,1.63,0,0,1-1.333-1.959c1.758-7.981,9.289-42.469,12.016-59.742,0,0,54.708,2.581,67.1-.516s26.95-20.994,26.95-20.994S427.1,327.183,426.587,333.375Z" transform="translate(7.931 -15.309)" fill="#263238" stroke="#263238" stroke-linecap="round" stroke-linejoin="round" stroke-width="1"/>
          <path id="Path_39816" data-name="Path 39816" d="M404.79,274.479S419.048,334,415.2,344.072s-19.831,23.384-25.492,22.968-6.137-57.377-5.758-62.524,11.519-22.958,15.174-30.452S404.79,274.479,404.79,274.479Z" transform="translate(38.457 -41.39)" fill="#32cd32" stroke="#263238" stroke-linecap="round" stroke-linejoin="round" stroke-width="1"/>
          <path id="Path_39817" data-name="Path 39817" d="M321.981,355.915c.183,5.8,1.094,10.323,3.531,10.323,4.645,0,55.223,5.162,67.094,4.646s20.644-6.71,20.644-15.483-.516-47.483-9.291-52.644-55.223-5.677-66.065-5.677c-13.341,0-13.921,25.779-14.484,34.515C323.246,334.169,321.688,346.665,321.981,355.915Z" transform="translate(9.801 -29.243)" fill="#32cd32" stroke="#263238" stroke-linecap="round" stroke-linejoin="round" stroke-width="1"/>
          <path id="Path_39818" data-name="Path 39818" d="M410.744,310.035s-4.275,10.417-4.275,18.7-4.007,24.575-12.287,29.383-17.63,7.48-31.254,5.609-43.541-6.678-43.541-6.678,30.719-21.9,38.466-32.856,10.417-20.034,16.561-26.178S410.21,285.726,410.744,310.035Z" transform="translate(8.617 -31.365)" fill="#263238" stroke="#263238" stroke-linecap="round" stroke-linejoin="round" stroke-width="1"/>
          <ellipse id="Ellipse_219" data-name="Ellipse 219" cx="164.207" cy="126.904" rx="164.207" ry="126.904" transform="translate(71.341 107.803)" fill="#263238" stroke="#263238" stroke-linecap="round" stroke-linejoin="round" stroke-width="1"/>
          <ellipse id="Ellipse_220" data-name="Ellipse 220" cx="164.207" cy="126.904" rx="164.207" ry="126.904" transform="translate(71.341 104.003)" fill="#32cd32" stroke="#263238" stroke-linecap="round" stroke-linejoin="round" stroke-width="1"/>
          <g id="Group_36022" data-name="Group 36022" transform="translate(170.17 152.974)">
            <path id="Path_39819" data-name="Path 39819" d="M323.628,218.561l20.826,22.863-36.9,26.485L286.278,242.1Z" transform="translate(-176.878 -218.561)" fill="#fff" stroke="#263238" stroke-linecap="round" stroke-linejoin="round" stroke-width="1"/>
            <path id="Path_39820" data-name="Path 39820" d="M245.57,219.91l-34.077,17.525,30.182,37,35.05-23.367Z" transform="translate(-211.493 -217.936)" fill="#fff" stroke="#263238" stroke-linecap="round" stroke-linejoin="round" stroke-width="1"/>
            <path id="Path_39821" data-name="Path 39821" d="M280.9,245.243l-34.077,17.525,30.182,37,35.05-23.367Z" transform="translate(-195.139 -206.21)" fill="#fff" stroke="#263238" stroke-linecap="round" stroke-linejoin="round" stroke-width="1"/>
            <path id="Path_39822" data-name="Path 39822" d="M279.138,247.076l-36.713,10.979,22.886,41.905,38.741-16.543Z" transform="translate(-197.176 -205.362)" fill="#fff" stroke="#263238" stroke-linecap="round" stroke-linejoin="round" stroke-width="1"/>
          </g>
          <path id="Path_39823" data-name="Path 39823" d="M256.084,151.05" transform="translate(-20.684 -96.835)" fill="#fff" stroke="#263238" stroke-linecap="round" stroke-linejoin="round" stroke-width="1"/>
          <g id="Group_36024" data-name="Group 36024" transform="translate(147.656 63.066)">
            <path id="Path_39824" data-name="Path 39824" d="M239.8,206.145s6.621-2.482,6.621-.828,0,3.31-2.9,4.138-12.828-1.241-10.345-2.482S239.8,206.145,239.8,206.145Z" transform="translate(-179.124 -135.047)" fill="#fff" stroke="#263238" stroke-linecap="round" stroke-linejoin="round" stroke-width="1"/>
            <g id="Group_36023" data-name="Group 36023">
              <path id="Path_39825" data-name="Path 39825" d="M220.123,157.1s-8.6,3.034-12.9,8.344-6.323,19.219-7.333,25.289-5.563,29.08-3.035,31.861,29.586,12.139,34.9,13.656,11.633,3.793,15.173,3.54a16.435,16.435,0,0,0,7.08-2.781s6.069,2.781,7.586,2.781,3.54-2.781,1.77-5.563-6.7-6.856-9.481-6.856-13.024,1.546-13.024,1.546-17.449-8.85-22.506-12.39a63.452,63.452,0,0,1-8.852-7.586l10.369-32.369" transform="translate(-196.103 -157.101)" fill="#263238" stroke="#263238" stroke-linecap="round" stroke-linejoin="round" stroke-width="1"/>
              <path id="Path_39826" data-name="Path 39826" d="M242.855,205.409c-2.781,0-13.024,1.546-13.024,1.546s-1.925-.976-4.674-2.406c-1.842,1.4-4,3.486-4.683,5.947a14.33,14.33,0,0,0-.544,3.556c.3.091.573.173.8.237,5.312,1.517,11.633,3.793,15.173,3.54a16.435,16.435,0,0,0,7.08-2.781s6.069,2.781,7.586,2.781,3.54-2.781,1.77-5.563S245.635,205.409,242.855,205.409Z" transform="translate(-185.075 -135.139)" fill="#fff" stroke="#263238" stroke-linecap="round" stroke-linejoin="round" stroke-width="1"/>
            </g>
          </g>
          <g id="Group_36025" data-name="Group 36025" transform="translate(79.015 48.001)">
            <path id="Path_39827" data-name="Path 39827" d="M158.713,174.32c-.777.228-6.656,6.656-7.168,14.08s5.12,19.712,6.144,21.76-.256,5.632,2.3,5.632,10.5-11.776,10.5-11.776,8.96.512,9.984-1.792-7.168-15.1-8.96-20.48S163.065,173.04,158.713,174.32Z" transform="translate(-148.102 -134.193)" fill="#fff" stroke="#263238" stroke-linecap="round" stroke-linejoin="round" stroke-width="1"/>
            <path id="Path_39828" data-name="Path 39828" d="M156.616,172.256s0,6.912-1.024,10.5-1.28,5.376,2.56,11.008S170.7,208.1,170.7,208.1s.512-5.888.768-9.216,5.376-5.376,6.4-6.912-5.632-2.56-8.192-7.168-2.56-12.544-6.144-13.312S157.9,168.672,156.616,172.256Z" transform="translate(-146.516 -135.969)" fill="#fff" stroke="#263238" stroke-linecap="round" stroke-linejoin="round" stroke-width="1"/>
            <path id="Path_39829" data-name="Path 39829" d="M193.585,167.473s7.168-2.048,5.888-9.218-14.336-12.544-28.416-11.264-20.48,10.5-21.76,19.714,8.448,18.176,9.472,19.712-.256,3.072,2.816,4.1a11.854,11.854,0,0,0,6.4,0s2.56,3.84,6.912,2.816,3.072-9.728,4.864-10.752,3.072-4.352,8.448-7.424S193.585,167.473,193.585,167.473Z" transform="translate(-149.181 -146.803)" fill="#263238" stroke="#263238" stroke-linecap="round" stroke-linejoin="round" stroke-width="1"/>
            <path id="Path_39830" data-name="Path 39830" d="M167.3,182.181s.512-4.1-4.608-4.608-3.84,4.352-2.816,6.656,4.608,4.1,4.608,4.1,1.28,5.888,3.072,6.4,12.544,5.12,14.592,4.352,4.1-10.24,4.1-10.24,3.584-1.792,3.584-3.584-1.536-6.912-1.536-8.192,2.816-4.864,3.328-7.68-2.56-8.448-2.56-8.448-1.28,4.608-5.376,4.608a31.54,31.54,0,0,1-8.192-1.28s2.048,5.376.512,7.68-4.1,1.792-4.608,2.816-.256,5.632-.512,6.656S168.841,186.021,167.3,182.181Z" transform="translate(-144.661 -140.262)" fill="#fff" stroke="#263238" stroke-linecap="round" stroke-linejoin="round" stroke-width="1"/>
          </g>
          <g id="Group_36028" data-name="Group 36028" transform="translate(58.057 107.584)">
            <g id="Group_36026" data-name="Group 36026" transform="translate(68.434 0.768)">
              <path id="Path_39831" data-name="Path 39831" d="M181.635,197.53s1.28,10.24,3.84,14.336,13.314,19.97,13.314,19.97-.768,5.376,0,6.912,3.84,8.96,3.84,9.984,2.048,1.792,2.3.256a26.441,26.441,0,0,0,.256-3.584l4.352,6.656s2.3,1.792,3.072.256.256-9.728.768-13.056-2.048-7.936-4.1-9.984-4.608-5.633-5.376-6.4-4.1-12.8-5.632-20.994-5.633-13.312-8.706-13.824" transform="translate(-181.635 -188.058)" fill="#fff" stroke="#263238" stroke-linecap="round" stroke-linejoin="round" stroke-width="1"/>
              <path id="Path_39832" data-name="Path 39832" d="M207.712,240.838c.768-1.536.256-9.728.768-13.056s-2.048-7.936-4.1-9.984a61.689,61.689,0,0,1-4.166-4.943,16.69,16.69,0,0,0-7.995,5.041l1.665,2.462s-.768,5.376,0,6.912,3.84,8.96,3.84,9.984,2.048,1.792,2.3.256a26.438,26.438,0,0,0,.256-3.584l4.352,6.656S206.944,242.374,207.712,240.838Z" transform="translate(-176.734 -176.58)" fill="#fff" stroke="#263238" stroke-linecap="round" stroke-linejoin="round" stroke-width="1"/>
            </g>
            <g id="Group_36027" data-name="Group 36027">
              <path id="Path_39833" data-name="Path 39833" d="M141.848,187.533a18.8,18.8,0,0,0-6.658,10.5c-1.792,7.168,4.1,36.354,5.633,44.8s9.216,36.608,11.52,38.4,29.184-1.536,38.912-3.328,30.722-9.216,35.074-10.5,6.656-7.936,7.936-9.216,4.1-5.632,2.56-7.168-5.888,0-7.68,0-5.12-.256-8.7-.256a8.155,8.155,0,0,0-7.681,6.144,15.242,15.242,0,0,1-2.56,5.376s-26.368,3.584-32,3.584a88.548,88.548,0,0,1-11.008-.768s-3.072-17.664-5.376-28.672-4.352-19.458-6.144-22.274" transform="translate(-134.854 -187.533)" fill="#fff" stroke="#263238" stroke-linecap="round" stroke-linejoin="round" stroke-width="1"/>
              <path id="Path_39834" data-name="Path 39834" d="M205.892,231.15c-1.792,0-5.12-.256-8.7-.256a8.156,8.156,0,0,0-7.682,6.144,15.242,15.242,0,0,1-2.56,5.376s-.688.094-1.853.249a14.066,14.066,0,0,1,1.341,4.871,26.726,26.726,0,0,1-.336,5.519c7.572-2.4,14.652-4.835,16.978-5.519,4.352-1.28,6.656-7.936,7.936-9.216s4.1-5.632,2.56-7.168S207.684,231.15,205.892,231.15Z" transform="translate(-111.601 -167.66)" fill="#fff" stroke="#263238" stroke-linecap="round" stroke-linejoin="round" stroke-width="1"/>
            </g>
          </g>
          <g id="Group_36032" data-name="Group 36032" transform="translate(20.141 147.893)">
            <g id="Group_36029" data-name="Group 36029" transform="translate(56.833 50.269)">
              <path id="Path_39835" data-name="Path 39835" d="M187.473,266.516s6.595.55,8.793.55,17.313-1.649,15.114-4.122-18.725-4.672-18.725-4.672Z" transform="translate(-129.415 -245.369)" fill="#fff" stroke="#263238" stroke-linecap="round" stroke-linejoin="round" stroke-width="1"/>
              <path id="Path_39836" data-name="Path 39836" d="M225.231,253.763l-48.09,22.259,18.686,37.922,47.265-23.908Z" transform="translate(-134.197 -247.455)" fill="#fff" stroke="#263238" stroke-linecap="round" stroke-linejoin="round" stroke-width="1"/>
              <path id="Path_39837" data-name="Path 39837" d="M188.036,263.36s5.771,0,7.145.825,7.146,6.046,7.97,4.671-2.474-4.671-3.847-6.045-2.747-2.474-2.747-2.474" transform="translate(-129.154 -244.412)" fill="#fff" stroke="#263238" stroke-linecap="round" stroke-linejoin="round" stroke-width="1"/>
              <path id="Path_39838" data-name="Path 39838" d="M161.479,249.451l49.547,12.9-7.742,11.355-52.128-6.194S138.771,250.484,161.479,249.451Z" transform="translate(-147.785 -249.451)" fill="#fff" stroke="#263238" stroke-linecap="round" stroke-linejoin="round" stroke-width="1"/>
            </g>
            <g id="Group_36030" data-name="Group 36030">
              <path id="Path_39839" data-name="Path 39839" d="M144.41,251.8s-12.069,10.24-16.092,22.674-6.583,37.3-6.583,37.3-12.8,18.286-12.8,20.114,10.606,0,10.606,0L109.3,349.445s0,14.629,8.046,22.309,19.383,10.606,28.16,9.143,24.869-21.212,26.7-22.309-4.389-17.92-5.851-24.137,1.463-10.606,3.291-11.7,12.434-7.68,14.629-12.434,1.829-12.8,1.1-19.017S175.5,263.5,167.45,256.919,152.09,245.947,144.41,251.8Z" transform="translate(-108.935 -199.362)" fill="#fff" stroke="#263238" stroke-linecap="round" stroke-linejoin="round" stroke-width="1"/>
              <path id="Path_39840" data-name="Path 39840" d="M139.921,250.383s-5.486,8.046-5.486,13.9,4.754,15.36,8.411,19.749a75.085,75.085,0,0,0,6.949,7.314l8.046-1.829.366,6.217s1.829-3.291,6.949-1.1,8.411.731,8.411-.366a45.03,45.03,0,0,0,0-21.577c-2.926-12.8-6.217-14.994-10.971-19.749S146.869,246.36,139.921,250.383Z" transform="translate(-97.132 -199.774)" fill="#fff" stroke="#263238" stroke-linecap="round" stroke-linejoin="round" stroke-width="1"/>
              <path id="Path_39841" data-name="Path 39841" d="M141.471,251.164s-4.023,6.949-1.829,12.434,9.143,12.069,14.629,16.823,12.434,9.874,12.434,9.874,4.389-11.337-2.56-24.5S144.762,248.6,141.471,251.164Z" transform="translate(-95.025 -198.726)" fill="#fff" stroke="#263238" stroke-linecap="round" stroke-linejoin="round" stroke-width="1"/>
              <path id="Path_39842" data-name="Path 39842" d="M173.052,228.183s2.56,6.217,2.56,7.314v2.56s5.12,2.926,4.389,4.023-3.657,5.851-3.657,5.851.731,7.314-.366,12.069.366,6.949-3.657,6.949h-10.24s-1.1,15.36-3.657,15.36-14.263-5.486-16.457-8.411-2.926-5.851-2.194-8.046,4.389-11.337,5.851-17.92,12.434-11.7,14.994-12.8S173.052,228.183,173.052,228.183Z" transform="translate(-94.789 -209.026)" fill="#fff" stroke="#263238" stroke-linecap="round" stroke-linejoin="round" stroke-width="1"/>
              <path id="Path_39843" data-name="Path 39843" d="M141.975,246.229s-8.777-1.463-13.166-.731-9.874,6.949-9.874,13.166,4.754,9.874,12.434,10.606,12.8-5.851,12.8-9.509A42.591,42.591,0,0,0,141.975,246.229Z" transform="translate(-104.306 -201.106)" fill="#263238" stroke="#263238" stroke-linecap="round" stroke-linejoin="round" stroke-width="1"/>
              <path id="Path_39844" data-name="Path 39844" d="M159.907,258.382s13.9-14.994,18.286-24.137,2.926-18.652-4.023-18.652-14.629-2.194-27.794,2.56-18.652,20.114-17.92,28.16,12.8,24.5,19.017,25.6,6.217-9.874,6.217-9.874Z" transform="translate(-99.929 -215.087)" fill="#263238" stroke="#263238" stroke-linecap="round" stroke-linejoin="round" stroke-width="1"/>
              <path id="Path_39845" data-name="Path 39845" d="M154.066,248.183s-3.291-7.314-7.314-5.12-.366,10.24,2.194,12.069,6.583-1.1,6.583-1.1" transform="translate(-92.26 -202.329)" fill="#fff" stroke="#263238" stroke-linecap="round" stroke-linejoin="round" stroke-width="1"/>
              <path id="Path_39846" data-name="Path 39846" d="M165.226,234.933s-1.463,4.754-3.291,5.486" transform="translate(-84.403 -205.902)" fill="none" stroke="#263238" stroke-linecap="round" stroke-linejoin="round" stroke-width="1"/>
            </g>
            <g id="Group_36031" data-name="Group 36031" transform="translate(21.958 92.279)">
              <path id="Path_39847" data-name="Path 39847" d="M185.015,280.418s-2.8-1.868-3.176.56,2.428,5.044,2.428,5.044-3.55-3.922-3.736-1.681,2.054,4.671,2.054,4.671-2.8-1.308-2.8-.187,3.923,5.044,4.109,6.912,3.736-3.923,4.484-8.407S185.015,280.418,185.015,280.418Z" transform="translate(-98.099 -277.445)" fill="#fff" stroke="#263238" stroke-linecap="round" stroke-linejoin="round" stroke-width="1"/>
              <path id="Path_39848" data-name="Path 39848" d="M179.685,308.91s1.829-6.949,1.829-9.874,3.291-8.046,4.754-10.971-4.754-8.046-1.829-9.509,5.12,1.463,7.68,4.754,3.291,10.24,1.1,14.994a49.059,49.059,0,0,1-8.046,12.069,16.239,16.239,0,0,1-3.657,2.926Z" transform="translate(-98.145 -278.169)" fill="#fff" stroke="#263238" stroke-linecap="round" stroke-linejoin="round" stroke-width="1"/>
              <path id="Path_39849" data-name="Path 39849" d="M181.58,300.947v-9.269c0-4.634,2.6-11.476,2.6-11.476a2.609,2.609,0,0,1,2.848,3.3c-.546,3.545.546,9,.546,9" transform="translate(-97.268 -277.229)" fill="#fff" stroke="#263238" stroke-linecap="round" stroke-linejoin="round" stroke-width="1"/>
              <path id="Path_39850" data-name="Path 39850" d="M127.222,293.923s-5.12,7.314-2.56,15.36,39.132,56.686,44.252,56.686,42.057-47.909,44.252-50.835-7.314-10.24-7.314-10.24l-36.937,33.646s-9.874-39.5-13.9-46.812-13.532-8.046-13.532-8.046" transform="translate(-123.945 -275.616)" fill="#fff" stroke="#263238" stroke-linecap="round" stroke-linejoin="round" stroke-width="1"/>
              <path id="Path_39851" data-name="Path 39851" d="M183.1,292.461" transform="translate(-96.562 -271.553)" fill="#fff" stroke="#263238" stroke-linecap="round" stroke-linejoin="round" stroke-width="1"/>
            </g>
          </g>
          <g id="Group_36033" data-name="Group 36033" transform="translate(203.539 76.721)">
            <path id="Path_39852" data-name="Path 39852" d="M247.466,186.894s5.059-5.563,10.369-6.576,8.093,2.529,6.574,8.852-6.321,7.838-9.1,7.586-7.333-1.518-8.6-4.806S247.466,186.894,247.466,186.894Z" transform="translate(-228.755 -160.088)" fill="#263238" stroke="#263238" stroke-linecap="round" stroke-linejoin="round" stroke-width="1"/>
            <path id="Path_39853" data-name="Path 39853" d="M253.319,166.435" transform="translate(-225.503 -166.435)" fill="#fff" stroke="#263238" stroke-linecap="round" stroke-linejoin="round" stroke-width="1"/>
            <path id="Path_39854" data-name="Path 39854" d="M256.051,183.722s-10.873,1.517-13.4,3.287-8.344,11.633-8.344,12.9,3.54,2.529,5.31,2.529,6.321-6.069,6.321-6.069l-2.275,6.321s2.275-.252,2.528-1.264,3.793-7.84,3.793-7.84,6.576.253,8.346-2.781S261.361,185.745,256.051,183.722Z" transform="translate(-234.304 -158.433)" fill="#fff" stroke="#263238" stroke-linecap="round" stroke-linejoin="round" stroke-width="1"/>
          </g>
          <g id="Group_36034" data-name="Group 36034" transform="translate(237.709 60.144)">
            <path id="Path_39855" data-name="Path 39855" d="M265.808,172.308s-3.041,10.234-3.041,16.595,4.425,26.829,4.425,26.829a19.881,19.881,0,0,1-4.425,9.4c-3.6,3.872-2.49,9.127-.831,10.787s4.98,4.7,6.086,2.766.276-5.533,1.382-6.915,5.255-3.6,5.809-7.744-.277-16.871-.277-23.786,3.594-17.148-.278-24.339" transform="translate(-256.404 -147.139)" fill="#fff" stroke="#263238" stroke-linecap="round" stroke-linejoin="round" stroke-width="1"/>
            <path id="Path_39856" data-name="Path 39856" d="M275.259,199.842c-4.488-.884-6.962.63-8.281,2.263.135.636.214,1,.214,1a19.881,19.881,0,0,1-4.425,9.4c-3.6,3.872-2.49,9.127-.831,10.787s4.98,4.7,6.086,2.766.276-5.533,1.382-6.915,5.256-3.6,5.809-7.744A96.009,96.009,0,0,0,275.259,199.842Z" transform="translate(-256.404 -134.516)" fill="#fff" stroke="#263238" stroke-linecap="round" stroke-linejoin="round" stroke-width="1"/>
            <path id="Path_39857" data-name="Path 39857" d="M284.214,199.534l-26.552,30.147,26.828,19.084,25.722-32.637Z" transform="translate(-257.662 -134.537)" fill="#fff" stroke="#263238" stroke-linecap="round" stroke-linejoin="round" stroke-width="1"/>
            <path id="Path_39858" data-name="Path 39858" d="M267.872,209.617s.276,9.4.276,10.787,3.041,3.043,3.319-.276.277-4.7.553-5.533,1.935-6.084-.276-9.956" transform="translate(-252.936 -132.174)" fill="#fff" stroke="#263238" stroke-linecap="round" stroke-linejoin="round" stroke-width="1"/>
            <path id="Path_39859" data-name="Path 39859" d="M336.574,159.252s-7.468,8.3-11.064,16.042-6.361,27.658-6.361,27.658-14.383,23.51-16.318,25.445-.829,1.66-5.533,3.872-10.786,3.319-11.615,4.7-3.872,8.021-4.7,8.85,1.107,2.49,2.213,1.384,4.978-5.533,4.978-5.533l-4.7,11.064a1.457,1.457,0,0,0,1.659,1.382c1.66,0,5.809-1.935,5.809-1.935s4.7-1.106,6.361-3.319,7.744-14.1,7.744-14.1,16.042-10.234,21.851-17.148A63.268,63.268,0,0,0,337.4,199.356c.829-2.766,11.064-33.466,10.787-38.444s-2.766-5.809-2.766-5.809" transform="translate(-246.962 -155.103)" fill="#fff" stroke="#263238" stroke-linecap="round" stroke-linejoin="round" stroke-width="1"/>
            <path id="Path_39860" data-name="Path 39860" d="M302.006,205.81c-.9,1.036-.884,1.189-4.708,2.989-4.7,2.213-10.786,3.319-11.615,4.7s-3.872,8.021-4.7,8.85,1.107,2.49,2.213,1.384,4.978-5.533,4.978-5.533l-4.7,11.064a1.457,1.457,0,0,0,1.659,1.382c1.66,0,5.809-1.935,5.809-1.935s4.7-1.106,6.361-3.319,7.744-14.1,7.744-14.1,1-.642,2.6-1.712A11.277,11.277,0,0,0,302.006,205.81Z" transform="translate(-246.962 -131.632)" fill="#fff" stroke="#263238" stroke-linecap="round" stroke-linejoin="round" stroke-width="1"/>
          </g>
          <g id="Group_36037" data-name="Group 36037" transform="translate(299.693 108.153)">
            <g id="Group_36035" data-name="Group 36035" transform="translate(26.125 27.164)">
              <path id="Path_39861" data-name="Path 39861" d="M394.562,214.187s-6.113,11.545-7.244,16.072-2.943,9.507-2.943,9.507-11.318-1.811-21.052-2.943-23.542-3.621-26.937-4.3-9.734-2.49-11.091-1.358-.453.906,1.131,1.584a8.715,8.715,0,0,0,4.076.227s-2.264.679-4.754,1.584-7.017,2.49-7.7,3.4.905,4.074,3.4,4.074a46.378,46.378,0,0,1,5.66,0c1.358.227,2.036,1.586,6.564,1.586s10.866-3.622,10.866-3.622,21.277,9.734,33.276,11.77,13.808-.679,18.788-4.528,19.468-27.616,18.336-32.37a27.8,27.8,0,0,0-3.622-8.375" transform="translate(-317.892 -206.491)" fill="#263238" stroke="#263238" stroke-linecap="round" stroke-linejoin="round" stroke-width="1"/>
              <path id="Path_39862" data-name="Path 39862" d="M349.412,227.13c-5.917-.964-11.118-1.918-13.027-2.3-3.4-.679-9.734-2.49-11.091-1.358s-.453.906,1.131,1.584a8.715,8.715,0,0,0,4.076.227s-2.264.679-4.754,1.584-7.017,2.49-7.7,3.4.905,4.074,3.4,4.074a46.378,46.378,0,0,1,5.66,0c1.358.227,2.036,1.584,6.564,1.584s10.866-3.621,10.866-3.621,1.66.759,4.311,1.9Z" transform="translate(-317.892 -198.799)" fill="#fff" stroke="#263238" stroke-linecap="round" stroke-linejoin="round" stroke-width="1"/>
            </g>
            <g id="Group_36036" data-name="Group 36036">
              <path id="Path_39863" data-name="Path 39863" d="M338.692,187.922s-10.639,5.206-14.714,8.828-14.261,26.485-14.488,28.069,7.7,2.49,8.6,2.038,16.978-19.016,21.052-22.184,2.265-7.017,2.265-7.017" transform="translate(-295.659 -187.922)" fill="#263238" stroke="#263238" stroke-linecap="round" stroke-linejoin="round" stroke-width="1"/>
              <path id="Path_39864" data-name="Path 39864" d="M317.714,210.741a90.284,90.284,0,0,0-9.961,2.717c-2.717,1.132-9.054,9.282-7.469,9.734s5.885-4.753,5.885-4.753-3.4,4.98-3.849,6.791-.906,5.885.906,5.206,5.433-5.66,5.433-5.66,4.528-2.717,8.15-2.717,6.112-6.791,6.112-6.791,2.942-2.942,1.811-6.112S317.714,210.741,317.714,210.741Z" transform="translate(-300.034 -178.597)" fill="#fff" stroke="#263238" stroke-linecap="round" stroke-linejoin="round" stroke-width="1"/>
              <path id="Path_39865" data-name="Path 39865" d="M318.744,209.6a5.96,5.96,0,0,1-4.754-2.036c-1.811-2.264-2.942,0-2.942,2.263a3.223,3.223,0,0,0,2.263,2.943s-3.849,3.622-1.584,4.753,4.528-.679,4.528-.679" transform="translate(-294.952 -179.266)" fill="#fff" stroke="#263238" stroke-linecap="round" stroke-linejoin="round" stroke-width="1"/>
            </g>
          </g>
          <g id="Group_36038" data-name="Group 36038" transform="translate(365.463 158.389)">
            <path id="Path_39866" data-name="Path 39866" d="M382.6,249.93s-11.219-2.137-15.226-2.939-17.1,4.541-20.836,5.876,0,2.4,4.007,3.205,12.02-.8,12.02-.8-8.815,3.739-6.678,4.273,6.412-.534,10.151-.8,7.48-3.739,7.48-3.739,17.9,8.815,20.034,8.815,5.342-6.412.8-9.083A64.78,64.78,0,0,0,382.6,249.93Z" transform="translate(-344.994 -210.855)" fill="#fff" stroke="#263238" stroke-linecap="round" stroke-linejoin="round" stroke-width="1"/>
            <path id="Path_39867" data-name="Path 39867" d="M381.826,257.5a91.2,91.2,0,0,0-18.431,18.7c-7.747,10.952-9.083,33.124-7.48,39.534s2.671,13.89,10.417,18.966,13.356,7.212,26.713,0,20.3-31.254,18.965-49.685-12.554-31.254-18.431-32.856S381.826,257.5,381.826,257.5Z" transform="translate(-340.216 -208.538)" fill="#fff" stroke="#263238" stroke-linecap="round" stroke-linejoin="round" stroke-width="1"/>
            <path id="Path_39868" data-name="Path 39868" d="M376.791,258.469s-4.808.534-7.212,3.739-1.6,4.274,0,5.075a4.123,4.123,0,0,1,1.87,2.939s-5.61,9.083-2.671,10.952,16.027-4.275,19.5-8.815,1.87-12.02-.268-14.158S376.791,258.469,376.791,258.469Z" transform="translate(-334.379 -206.038)" fill="#fff" stroke="#263238" stroke-linecap="round" stroke-linejoin="round" stroke-width="1"/>
            <path id="Path_39869" data-name="Path 39869" d="M374.579,234.6s-3.205,3.741-5.342,4.808-4.808,2.137-2.671,3.741a35.427,35.427,0,0,1,3.473,2.937s-2.671,8.815-1.6,13.891,5.876,3.739,5.876,3.739-.8,13.356-1.87,17.363,4.007,3.739,8.014,1.336,4.541-12.288,6.144-19.5,11.219-15.759,4.541-23.773S374.579,234.6,374.579,234.6Z" transform="translate(-335.373 -216.898)" fill="#fff" stroke="#263238" stroke-linecap="round" stroke-linejoin="round" stroke-width="1"/>
            <path id="Path_39870" data-name="Path 39870" d="M417.2,230.885c-9.883-10.151-24.842-7.747-26.98-7.212,0,0-8.34-2.025-13.148-1.223s-6.618,14.579-3.681,22.325a12.627,12.627,0,0,0,5.6,6.517c-.484-.424-3.338-3.114-.591-5.252a12.775,12.775,0,0,1,5.648-2.658s-2.326,7.642-1.323,8.979c4.068,5.418-14.226,30.937-14.946,30.531,0,0,5.344,3.019,12.022,6.224,14.762,7.085,32.171-8.059,37.669-20.831C421.811,258.194,426.008,239.936,417.2,230.885Z" transform="translate(-334.448 -222.263)" fill="#263238" stroke="#263238" stroke-linecap="round" stroke-linejoin="round" stroke-width="1"/>
          </g>
          <g id="Group_36042" data-name="Group 36042" transform="translate(290.898 205.084)">
            <g id="Group_36040" data-name="Group 36040">
              <path id="Path_39871" data-name="Path 39871" d="M307.512,254.183,294.022,310.6l27.594,12.57,10.424-53.041Z" transform="translate(-294.022 -254.183)" fill="#fff" stroke="#263238" stroke-linecap="round" stroke-linejoin="round" stroke-width="1"/>
              <path id="Path_39872" data-name="Path 39872" d="M307.428,258.165l-11.212,46.886L319.15,315.5l8.664-44.083Z" transform="translate(-293.006 -252.34)" fill="#263238" stroke="#263238" stroke-linecap="round" stroke-linejoin="round" stroke-width="1"/>
              <path id="Path_39873" data-name="Path 39873" d="M323.309,265.081l37.711,1.84-7.358,54.268-40.777-3.066Z" transform="translate(-285.291 -249.138)" fill="#fff" stroke="#263238" stroke-linecap="round" stroke-linejoin="round" stroke-width="1"/>
              <g id="Group_36039" data-name="Group 36039" transform="translate(35.259 21.462)">
                <path id="Path_39874" data-name="Path 39874" d="M327.6,282.135l2.736.126.275-1.765-2.7-.189Z" transform="translate(-313.738 -263.552)" fill="#263238"/>
                <path id="Path_39875" data-name="Path 39875" d="M333.139,290.876l.439-2.67-3.813-.176-.4,2.582Z" transform="translate(-312.923 -259.978)" fill="#263238"/>
                <path id="Path_39876" data-name="Path 39876" d="M328.431,276.988l.326-1.887-3.416-.239-.35,1.967Z" transform="translate(-314.946 -266.073)" fill="#263238"/>
                <path id="Path_39877" data-name="Path 39877" d="M328.5,276.953l2.609.12.279-1.788-2.569-.18Z" transform="translate(-313.322 -265.96)" fill="#263238"/>
                <path id="Path_39878" data-name="Path 39878" d="M327.115,285.149l2.8.2.394-2.521-2.764-.128Z" transform="translate(-313.963 -262.446)" fill="#263238"/>
                <path id="Path_39879" data-name="Path 39879" d="M334.888,280.454l.432-2.629-3.936-.182-.4,2.537Z" transform="translate(-312.17 -264.785)" fill="#263238"/>
                <path id="Path_39880" data-name="Path 39880" d="M325.914,271.946l3.4.157.5-2.913-3.387-.175Z" transform="translate(-314.519 -268.779)" fill="#263238"/>
                <path id="Path_39881" data-name="Path 39881" d="M331.879,272.212l.451-2.892-2.431-.126-.5,2.9Z" transform="translate(-312.907 -268.696)" fill="#263238"/>
                <path id="Path_39882" data-name="Path 39882" d="M325.84,272.158l-.408,2.293,3.409.238.411-2.374Z" transform="translate(-314.742 -267.324)" fill="#263238"/>
                <path id="Path_39883" data-name="Path 39883" d="M331.072,277.629l-2.637-.122-.421,2.432,2.668.187Z" transform="translate(-313.547 -264.848)" fill="#263238"/>
                <path id="Path_39884" data-name="Path 39884" d="M331.842,272.434l-2.51-.116-.418,2.414,2.541.178Z" transform="translate(-313.13 -267.25)" fill="#263238"/>
                <path id="Path_39885" data-name="Path 39885" d="M334.013,285.666l.435-2.65-3.875-.179-.4,2.561Z" transform="translate(-312.547 -262.381)" fill="#263238"/>
                <path id="Path_39886" data-name="Path 39886" d="M323.229,285.244l-2.8-.2-.357,2.036,2.8.129Z" transform="translate(-317.222 -261.358)" fill="#263238"/>
                <path id="Path_39887" data-name="Path 39887" d="M322.8,287.708l-2.8-.129-.393,2.243,2.783.195Z" transform="translate(-317.439 -260.186)" fill="#263238"/>
                <path id="Path_39888" data-name="Path 39888" d="M322.3,290.444l-2.779-.194-.353,2.017,2.785.128Z" transform="translate(-317.643 -258.95)" fill="#263238"/>
                <path id="Path_39889" data-name="Path 39889" d="M321.872,292.9l-2.781-.128-.4,2.263,2.764.193Z" transform="translate(-317.861 -257.785)" fill="#263238"/>
                <path id="Path_39890" data-name="Path 39890" d="M323.727,282.52l-2.82-.13-.39,2.224,2.8.2Z" transform="translate(-317.017 -262.588)" fill="#263238"/>
                <path id="Path_39891" data-name="Path 39891" d="M324.654,277.334l-2.84-.131-.386,2.2,2.822.2Z" transform="translate(-316.595 -264.989)" fill="#263238"/>
                <path id="Path_39892" data-name="Path 39892" d="M325.581,272.146l-2.859-.132-.383,2.186,2.841.2Z" transform="translate(-316.174 -267.391)" fill="#263238"/>
                <path id="Path_39893" data-name="Path 39893" d="M324.16,280.043l-2.818-.2-.36,2.055,2.824.13Z" transform="translate(-316.801 -263.766)" fill="#263238"/>
                <path id="Path_39894" data-name="Path 39894" d="M325.092,274.844l-2.837-.2-.363,2.075,2.844.131Z" transform="translate(-316.381 -266.173)" fill="#263238"/>
                <path id="Path_39895" data-name="Path 39895" d="M336.191,272.635l-4-.184-.393,2.515,3.962.277Z" transform="translate(-311.794 -267.189)" fill="#263238"/>
                <path id="Path_39896" data-name="Path 39896" d="M321.426,295.644l-2.76-.193-.542,3.1,2.736.278Z" transform="translate(-318.124 -256.543)" fill="#263238"/>
                <path id="Path_39897" data-name="Path 39897" d="M330.626,282.242l3.888.18.268-1.632-3.887-.272Z" transform="translate(-312.338 -263.455)" fill="#263238"/>
                <path id="Path_39898" data-name="Path 39898" d="M329,292.613l3.764.173.261-1.59-3.764-.263Z" transform="translate(-313.088 -258.634)" fill="#263238"/>
                <path id="Path_39899" data-name="Path 39899" d="M329.815,287.428l3.826.177.265-1.611-3.825-.268Z" transform="translate(-312.713 -261.044)" fill="#263238"/>
                <path id="Path_39900" data-name="Path 39900" d="M329.84,285.708l-2.823-.2-.313,1.808,2.864.132Z" transform="translate(-314.153 -261.144)" fill="#263238"/>
                <path id="Path_39901" data-name="Path 39901" d="M332.707,293.395l-3.751-.173-.407,2.606,3.715.26Z" transform="translate(-313.299 -257.574)" fill="#263238"/>
                <path id="Path_39902" data-name="Path 39902" d="M328.547,296.142l-.554,3.553,3.654.372.6-3.666Z" transform="translate(-313.557 -256.223)" fill="#263238"/>
                <path id="Path_39903" data-name="Path 39903" d="M324.508,279.656l3.444.241.414-2.392-3.448-.159Z" transform="translate(-315.169 -264.923)" fill="#263238"/>
                <path id="Path_39904" data-name="Path 39904" d="M325.664,271.943l.523-2.941-2.868-.148-.518,2.957Z" transform="translate(-315.96 -268.854)" fill="#263238"/>
                <path id="Path_39905" data-name="Path 39905" d="M331.436,277.056l3.95.182.272-1.654-3.949-.276Z" transform="translate(-311.963 -265.866)" fill="#263238"/>
                <path id="Path_39906" data-name="Path 39906" d="M332.247,272.223l4.012.185.47-2.859-4.031-.208Z" transform="translate(-311.588 -268.629)" fill="#263238"/>
                <path id="Path_39907" data-name="Path 39907" d="M329.534,288.019l-2.891-.134-.427,2.471,2.922.2Z" transform="translate(-314.38 -260.045)" fill="#263238"/>
                <path id="Path_39908" data-name="Path 39908" d="M326.6,287.883l-3.52-.163-.417,2.348,3.516.246Z" transform="translate(-316.025 -260.121)" fill="#263238"/>
                <path id="Path_39909" data-name="Path 39909" d="M326.116,290.712l-.309,1.788,2.991.138.268-1.72Z" transform="translate(-314.568 -258.736)" fill="#263238"/>
                <path id="Path_39910" data-name="Path 39910" d="M328.765,293.213l-3.019-.139-.431,2.492,3.05.213Z" transform="translate(-314.796 -257.643)" fill="#263238"/>
                <path id="Path_39911" data-name="Path 39911" d="M321.735,295.276l3.552.249.424-2.452-3.556-.164Z" transform="translate(-316.453 -257.72)" fill="#263238"/>
                <path id="Path_39912" data-name="Path 39912" d="M326.089,290.709l-3.524-.247-.34,1.911,3.548.164Z" transform="translate(-316.226 -258.852)" fill="#263238"/>
                <path id="Path_39913" data-name="Path 39913" d="M323.147,287.192l3.512.162.32-1.848-3.488-.244Z" transform="translate(-315.799 -261.259)" fill="#263238"/>
                <path id="Path_39914" data-name="Path 39914" d="M321.715,295.663l-.575,3.233,3.556.361.579-3.346Z" transform="translate(-316.728 -256.444)" fill="#263238"/>
                <path id="Path_39915" data-name="Path 39915" d="M328.382,296.129l-3.077-.215-.588,3.4,3.119.317Z" transform="translate(-315.073 -256.328)" fill="#263238"/>
                <path id="Path_39916" data-name="Path 39916" d="M327.868,280.3l-3.452-.242-.346,1.948,3.476.16Z" transform="translate(-315.373 -263.666)" fill="#263238"/>
                <path id="Path_39917" data-name="Path 39917" d="M327.482,282.693,324,282.533l-.414,2.33,3.48.244Z" transform="translate(-315.597 -262.522)" fill="#263238"/>
              </g>
            </g>
            <g id="Group_36041" data-name="Group 36041" transform="translate(17.875 50.613)">
              <path id="Path_39918" data-name="Path 39918" d="M405.877,288.781s-3.473.266-9.349,5.075-29.115,45.41-29.115,45.41-21.1-13.088-26.446-16.827-9.617-10.419-12.554-14.425-3.473-4.541-7.48-4.809-6.946-2.937-7.48-1.068,1.068,2.671,2.137,3.205a8.229,8.229,0,0,0,2.939.534,10.236,10.236,0,0,1-7.213-1.6c-4.007-2.4-5.075-2.939-5.075-.268s2.937,6.946,5.075,9.617,14.425,3.739,14.425,3.739A227.343,227.343,0,0,0,340.7,342.2c8.015,11.219,25.11,23.239,29.919,21.637s30.185-33.39,37.129-42.205,16.029-19.234,13.891-25.11" transform="translate(-306.241 -288.781)" fill="#fff" stroke="#263238" stroke-linecap="round" stroke-linejoin="round" stroke-width="1"/>
              <path id="Path_39919" data-name="Path 39919" d="M333.774,311.29c-2.1-2.632-3.9-5.3-5.361-7.294-2.939-4.007-3.473-4.541-7.48-4.808s-6.946-2.937-7.48-1.068,1.068,2.671,2.137,3.205a8.229,8.229,0,0,0,2.939.534,10.236,10.236,0,0,1-7.213-1.6c-4.007-2.4-5.075-2.939-5.075-.268s2.937,6.946,5.075,9.617,14.425,3.739,14.425,3.739.537,1.05,1.46,2.769A15.772,15.772,0,0,1,333.774,311.29Z" transform="translate(-306.241 -284.764)" fill="#fff" stroke="#263238" stroke-linecap="round" stroke-linejoin="round" stroke-width="1"/>
            </g>
          </g>
        </g>
      </g>
    </g>
  </g>
</svg>
