<svg xmlns="http://www.w3.org/2000/svg" width="62" height="62" viewBox="0 0 62 62">
  <g id="digital_marketing" transform="translate(-1 -1)">
    <g id="Group_35868" data-name="Group 35868">
      <path id="Path_1639" data-name="Path 1639" d="M46.236,28l10-5L45,17.382V28Z" fill="#00d747"/>
    </g>
    <g id="Group_35869" data-name="Group 35869">
      <path id="Path_1640" data-name="Path 1640" d="M51,36h8v8H51Z" fill="#00d747"/>
    </g>
    <g id="Group_35871" data-name="Group 35871">
      <g id="Group_35870" data-name="Group 35870">
        <path id="Path_1641" data-name="Path 1641" d="M37,25H15V13H37Z" fill="#00d747"/>
      </g>
    </g>
    <g id="Group_35872" data-name="Group 35872">
      <path id="Path_1642" data-name="Path 1642" d="M28.88,36.716l.24,1.986a40.639,40.639,0,0,0,8.2-1.874l-.645-1.893a38.52,38.52,0,0,1-7.8,1.781Z"/>
      <path id="Path_1643" data-name="Path 1643" d="M38.626,34.211l.748,1.855q1.035-.417,2.05-.893l-.848-1.811q-.963.453-1.95.849Z"/>
      <path id="Path_1644" data-name="Path 1644" d="M58,5H31.414L28.879,2.465A4.969,4.969,0,0,0,25.343,1H16a5.006,5.006,0,0,0-5,5V43.75l-.333.25H9V41H1V63H9V60h1.586l.949.949A6.955,6.955,0,0,0,16.485,63H31a3,3,0,0,0,3-3,2.967,2.967,0,0,0-.4-1.471,2.955,2.955,0,0,0,1-4A2.994,2.994,0,0,0,36,52a2.961,2.961,0,0,0-.4-1.472,3.006,3.006,0,0,0,1.229-1.523,30.879,30.879,0,0,1,4.2,2.361c.817.516,1.663,1.05,2.488,1.508l.227.126H49V49h9a5.006,5.006,0,0,0,5-5V10A5.006,5.006,0,0,0,58,5ZM16,3h9.343a2.983,2.983,0,0,1,2.122.879L30.586,7H58a3,3,0,0,1,2.816,2H13V6A3,3,0,0,1,16,3ZM7,61H3V43H7Zm24,0H16.485a4.969,4.969,0,0,1-3.536-1.465L11.414,58H9V46h2.333L14,44a5.023,5.023,0,0,1,3-1h.685A7,7,0,0,0,24,47H34a1,1,0,0,1,0,2H26v2h7a1,1,0,0,1,0,2H26v2h6a1,1,0,0,1,0,2H26v2h5a1,1,0,0,1,0,2ZM24,45a5,5,0,0,1,0-10h.184c.273,0,.544-.023.816-.03V45Zm12.766,1.837A3.006,3.006,0,0,0,34,45H27V34.888a36.557,36.557,0,0,0,16-5.1V50.242c-.3-.185-.6-.372-.9-.567a26.962,26.962,0,0,0-5.329-2.838ZM41,23a8,8,0,1,1,8,8V27H43.7l-.252.168c-.294.2-.6.367-.9.554A7.984,7.984,0,0,1,41,23Zm6,28H45V29h2Zm11-4H49V33a10.02,10.02,0,1,0-8.179-4.26A34.592,34.592,0,0,1,24.184,33H24a6.948,6.948,0,0,0-6.92,8H17a7.021,7.021,0,0,0-4,1.275V11H61V44A3,3,0,0,1,58,47Z"/>
      <path id="Path_1645" data-name="Path 1645" d="M15,5h2V7H15Z"/>
      <path id="Path_1646" data-name="Path 1646" d="M19,5h2V7H19Z"/>
      <path id="Path_1647" data-name="Path 1647" d="M23,5h2V7H23Z"/>
      <path id="Path_1648" data-name="Path 1648" d="M51,43h8v2H51Z"/>
      <path id="Path_1649" data-name="Path 1649" d="M51,39h8v2H51Z"/>
      <path id="Path_1650" data-name="Path 1650" d="M51,35h8v2H51Z"/>
      <path id="Path_1651" data-name="Path 1651" d="M15,27h2v2H15Z"/>
      <path id="Path_1652" data-name="Path 1652" d="M19,27H37v2H19Z"/>
    </g>
  </g>
</svg>
