<svg id="linkedin" xmlns="http://www.w3.org/2000/svg" width="40" height="40" viewBox="0 0 40 40">
  <path id="Path_39769" data-name="Path 39769" d="M20,0A20,20,0,1,1,0,20,20,20,0,0,1,20,0Z" fill="#0e76a8"/>
  <path id="Path_39770" data-name="Path 39770" d="M81.953,90.31H85.7V77.827H81.953ZM96.543,77.4a5.621,5.621,0,0,0-4.6,2.129V77.786H88.187V90.31h3.759V83.538A2.973,2.973,0,0,1,94.9,80.71c1.642,0,2.048,1.4,2.048,2.793v6.806h3.745V83.224C100.692,78.3,98.362,77.4,96.543,77.4ZM83.808,76.58a1.875,1.875,0,1,0-1.875-1.875A1.876,1.876,0,0,0,83.808,76.58Z" transform="translate(-70.683 -62.83)" fill="#fff"/>
</svg>
