<svg xmlns="http://www.w3.org/2000/svg" width="62" height="62" viewBox="0 0 62 62">
  <g id="mobile_app" transform="translate(-1 -1)">
    <path id="Path_1568" data-name="Path 1568" d="M38,5h2V7H38Z"/>
    <path id="Path_1569" data-name="Path 1569" d="M28,5h8V7H28Z"/>
    <path id="Path_1570" data-name="Path 1570" d="M30,57h8v2H30Z"/>
    <path id="Path_1571" data-name="Path 1571" d="M44,57h2v2H44Z"/>
    <path id="Path_1572" data-name="Path 1572" d="M22,57h2v2H22Z"/>
    <path id="Path_1573" data-name="Path 1573" d="M36,33A12.992,12.992,0,0,1,48,20.051V13H20V51H48V45.949A12.992,12.992,0,0,1,36,33Z" fill="#00d747"/>
    <path id="Path_1574" data-name="Path 1574" d="M24,33h9v2H24Z"/>
    <path id="Path_1575" data-name="Path 1575" d="M24,37h9v2H24Z"/>
    <path id="Path_1576" data-name="Path 1576" d="M24,41h9v2H24Z"/>
    <path id="Path_1577" data-name="Path 1577" d="M24,45h9v2H24Z"/>
    <path id="Path_1578" data-name="Path 1578" d="M56,5h2v9H56Z"/>
    <path id="Path_1579" data-name="Path 1579" d="M56,1h2V3H56Z"/>
    <path id="Path_1580" data-name="Path 1580" d="M10,50h2v9H10Z"/>
    <path id="Path_1581" data-name="Path 1581" d="M57,19a3,3,0,1,1,3-3A3,3,0,0,1,57,19Z" fill="#00d747"/>
    <path id="Path_1582" data-name="Path 1582" d="M11,51a3,3,0,1,1,3-3A3,3,0,0,1,11,51Z" fill="#00d747"/>
    <path id="Path_1583" data-name="Path 1583" d="M10,61h2v2H10Z"/>
    <path id="Path_1584" data-name="Path 1584" d="M63,33A14.018,14.018,0,0,0,52,19.332V6a5.006,5.006,0,0,0-5-5H21a5.006,5.006,0,0,0-5,5V17H10.219l-.6,2.416L7.482,18.135,2.134,23.48l1.281,2.136L1,26.219v7.562l2.416.6L2.134,36.52l5.347,5.346,2.134-1.281.6,2.415H16V58a5.006,5.006,0,0,0,5,5H47a5.006,5.006,0,0,0,5-5V46.668A14.018,14.018,0,0,0,63,33Zm-2,0a11.911,11.911,0,0,1-1.305,5.414,4.989,4.989,0,0,0-3.482-3.141L52,34.219V33.98A5.005,5.005,0,0,0,54,30V28a5,5,0,0,0-5.444-4.981A5.144,5.144,0,0,0,44,28.207V30a5.005,5.005,0,0,0,2,3.979v.239l-4.213,1.054a4.989,4.989,0,0,0-3.482,3.141A11.994,11.994,0,1,1,61,33ZM35.59,29H26V19H42v1.894A14.049,14.049,0,0,0,35.59,29ZM21,3H47a3,3,0,0,1,3,3V9H18V6A3,3,0,0,1,21,3ZM16,34.572a5,5,0,1,1,0-9.144ZM11.781,41l-.487-1.949-.2-.535-1.142-.464-2.158,1.3L4.653,36.209l1.3-2.159-.5-1.22L3,32.219V27.781l2.446-.611.5-1.22-1.3-2.159,3.138-3.139,2.158,1.3,1.22-.5L11.781,19H16V23.3a7,7,0,1,0,0,13.39V41ZM47,61H21a3,3,0,0,1-3-3V55H50v3A3,3,0,0,1,47,61Zm3-8H18V11H50v8.051c-.332-.024-.662-.051-1-.051a13.894,13.894,0,0,0-5,.939V17H24V31H35.16A13.9,13.9,0,0,0,49,47c.338,0,.668-.027,1-.051Zm-1-8a11.966,11.966,0,0,1-9-4.089v-.788a3,3,0,0,1,2.272-2.911L48,35.781V32.87l-.5-.289A2.968,2.968,0,0,1,46,30V28.207a3.134,3.134,0,0,1,2.729-3.195A3,3,0,0,1,52,28v2a2.968,2.968,0,0,1-1.5,2.581l-.5.289v2.911l5.728,1.431A3,3,0,0,1,58,40.123v.788A11.966,11.966,0,0,1,49,45Z"/>
  </g>
</svg>
