<svg xmlns="http://www.w3.org/2000/svg" width="315.428" height="306.745" viewBox="0 0 315.428 306.745">
  <g id="Polygon_2" data-name="Polygon 2" transform="translate(116.312) rotate(34)" fill="none" opacity="0.3">
    <path d="M111.429,15a10,10,0,0,1,17.321,0L231.517,193a10,10,0,0,1-8.66,15H17.321a10,10,0,0,1-8.66-15Z" stroke="none"/>
    <path d="M 120.0888442993164 40.00003051757813 L 34.64100646972656 188.0000152587891 L 205.5366973876953 188.0000152587891 L 120.0888442993164 40.00003051757813 M 120.0888519287109 9.999984741210938 C 123.4567260742188 9.999984741210938 126.8246002197266 11.66667175292969 128.7490997314453 15.00001525878906 L 231.5174560546875 193.0000152587891 C 235.366455078125 199.6666564941406 230.5552062988281 208.0000152587891 222.8572082519531 208.0000152587891 L 17.32049560546875 208.0000152587891 C 9.62249755859375 208.0000152587891 4.811248779296875 199.6666564941406 8.660247802734375 193.0000152587891 L 111.4286041259766 15.00001525878906 C 113.3531036376953 11.66667175292969 116.7209777832031 9.999984741210938 120.0888519287109 9.999984741210938 Z" stroke="none" fill="#228b22"/>
  </g>
</svg>
