<svg xmlns="http://www.w3.org/2000/svg" width="179.605" height="179.605" viewBox="0 0 179.605 179.605">
  <g id="Polygon_1" data-name="Polygon 1" transform="translate(83.439) rotate(45)" fill="none" opacity="0.5">
    <path d="M59.336,15.035a10,10,0,0,1,17.329,0l50.7,87.972A10,10,0,0,1,118.7,118H17.3A10,10,0,0,1,8.64,103.007Z" stroke="none"/>
    <path d="M 68.00000762939453 28.03932952880859 L 24.22606658935547 103.9999847412109 L 111.77392578125 103.9999847412109 L 68.00000762939453 28.03932952880859 M 67.99999237060547 10.02810668945313 C 71.37033843994141 10.02810668945313 74.74069213867188 11.69710540771484 76.66429138183594 15.03510284423828 L 127.3599700927734 103.0070190429688 C 131.2017669677734 109.6736602783203 126.3900909423828 117.9999847412109 118.6956787109375 117.9999847412109 L 17.3043212890625 117.9999847412109 C 9.609909057617188 117.9999847412109 4.798202514648438 109.6736602783203 8.640029907226563 103.0070190429688 L 59.33570861816406 15.03510284423828 C 61.25929260253906 11.69710540771484 64.629638671875 10.02810668945313 67.99999237060547 10.02810668945313 Z" stroke="none" fill="#fff"/>
  </g>
</svg>
