<svg xmlns="http://www.w3.org/2000/svg" xmlns:xlink="http://www.w3.org/1999/xlink" width="294.641" height="133.985" viewBox="0 0 294.641 133.985">
  <defs>
    <linearGradient id="linear-gradient" y1="0.5" x2="1" y2="0.5" gradientUnits="objectBoundingBox">
      <stop offset="0" stop-color="#e39a65"/>
      <stop offset="1" stop-color="#e95f8d"/>
    </linearGradient>
    <radialGradient id="radial-gradient" cx="-0.009" cy="0.161" r="2.801" gradientTransform="translate(0.315) scale(0.37 1)" gradientUnits="objectBoundingBox">
      <stop offset="0.004" stop-color="#4c02f1"/>
      <stop offset="0.008" stop-color="#4b02ef"/>
      <stop offset="0.126" stop-color="#3802c3"/>
      <stop offset="0.249" stop-color="#29029e"/>
      <stop offset="0.377" stop-color="#1c037f"/>
      <stop offset="0.51" stop-color="#120367"/>
      <stop offset="0.651" stop-color="#0b0357"/>
      <stop offset="0.806" stop-color="#07034d"/>
      <stop offset="1" stop-color="#06044a"/>
    </radialGradient>
    <radialGradient id="radial-gradient-2" cx="0.865" cy="1.158" r="2.776" gradientTransform="translate(0.313) scale(0.374 1)" xlink:href="#radial-gradient"/>
    <radialGradient id="radial-gradient-3" cx="0.11" cy="-0.227" r="2.045" gradientTransform="translate(0.211) scale(0.577 1)" gradientUnits="objectBoundingBox">
      <stop offset="0" stop-color="#e39a65"/>
      <stop offset="0.474" stop-color="#a92ffb"/>
      <stop offset="0.588" stop-color="#881bfa"/>
      <stop offset="0.726" stop-color="#6507fa"/>
      <stop offset="1" stop-color="#3919bb"/>
    </radialGradient>
    <radialGradient id="radial-gradient-4" cx="0.11" cy="-0.227" r="2.045" xlink:href="#radial-gradient-3"/>
    <radialGradient id="radial-gradient-5" cx="0.11" cy="-0.227" r="2.165" gradientTransform="translate(0.236) scale(0.528 1)" xlink:href="#radial-gradient-3"/>
    <radialGradient id="radial-gradient-6" cx="1.012" cy="0.978" r="2.289" gradientTransform="translate(0.192) scale(0.615 1)" xlink:href="#radial-gradient-3"/>
  </defs>
  <g id="qa" transform="translate(-66.727 -126.264)">
    <path id="Path_39949" data-name="Path 39949" d="M484.436,251.443a4.613,4.613,0,0,1-2.309-.616h0l-7.784-4.495a1.441,1.441,0,0,1,0-2.5l7.784-4.494a4.629,4.629,0,0,1,4.617,0l7.784,4.494a1.441,1.441,0,0,1,0,2.5l-7.784,4.495A4.613,4.613,0,0,1,484.436,251.443Zm-1.692-1.685a3.393,3.393,0,0,0,3.384,0l7.784-4.494a.208.208,0,0,0,0-.359l-7.785-4.495a3.4,3.4,0,0,0-3.384,0l-7.784,4.495a.208.208,0,0,0,0,.359Z" transform="translate(-137.025 -37.872)" fill="url(#linear-gradient)"/>
    <path id="Path_39950" data-name="Path 39950" d="M294.525,317.617a7.492,7.492,0,0,1-3.751-1l-13.4-7.734a2.036,2.036,0,0,1,0-3.526l13.4-7.734a7.516,7.516,0,0,1,7.5,0l13.4,7.735a2.035,2.035,0,0,1,0,3.526l-13.4,7.734A7.5,7.5,0,0,1,294.525,317.617Zm0-19.765a6.27,6.27,0,0,0-3.134.837l-13.4,7.734a.8.8,0,0,0,0,1.389l13.4,7.734h0a6.286,6.286,0,0,0,6.267,0l13.4-7.734a.8.8,0,0,0,0-1.389l-13.4-7.735A6.271,6.271,0,0,0,294.525,297.851Z" transform="translate(-70.596 -57.368)" fill="url(#linear-gradient)"/>
    <path id="Path_39951" data-name="Path 39951" d="M291.4,316.393,278,308.658a1.419,1.419,0,0,1,0-2.457l13.4-7.734a6.883,6.883,0,0,1,6.885,0l13.4,7.734a1.419,1.419,0,0,1,0,2.458l-13.4,7.734A6.886,6.886,0,0,1,291.4,316.393Z" transform="translate(-70.909 -57.68)" opacity="0.3" fill="url(#linear-gradient)"/>
    <path id="Path_39952" data-name="Path 39952" d="M98.021,248.647a12.739,12.739,0,0,1-6.374-1.7l-23.3-13.452a3.242,3.242,0,0,1,0-5.614l23.3-13.451a12.78,12.78,0,0,1,12.748,0l23.3,13.452a3.241,3.241,0,0,1,0,5.614l-23.3,13.452A12.741,12.741,0,0,1,98.021,248.647Zm0-34.377a11.2,11.2,0,0,0-5.6,1.5l-23.3,13.452a1.695,1.695,0,0,0,0,2.935l23.3,13.453h0a11.232,11.232,0,0,0,11.2,0l23.3-13.453a1.694,1.694,0,0,0,0-2.934l-23.3-13.452A11.2,11.2,0,0,0,98.02,214.27Z" transform="translate(0 -29.116)" fill="url(#linear-gradient)"/>
    <path id="Path_39953" data-name="Path 39953" d="M164.9,167.668a10.363,10.363,0,0,1-5.182-1.384h0l-18.965-10.95a2.625,2.625,0,0,1,0-4.548l18.965-10.949a10.391,10.391,0,0,1,10.364,0l18.966,10.95a2.625,2.625,0,0,1,0,4.547l-18.965,10.95A10.366,10.366,0,0,1,164.9,167.668Zm-4.564-2.453a9.157,9.157,0,0,0,9.13,0l18.965-10.95a1.392,1.392,0,0,0,0-2.41L169.463,140.9a9.158,9.158,0,0,0-9.13,0l-18.965,10.949a1.393,1.393,0,0,0,0,2.411Z" transform="translate(-24.486 -4.104)" fill="url(#linear-gradient)"/>
    <path id="Path_39954" data-name="Path 39954" d="M160.338,166.06l-18.965-10.95a2.008,2.008,0,0,1,0-3.479l18.965-10.949a9.744,9.744,0,0,1,9.747,0l18.966,10.949a2.009,2.009,0,0,1,0,3.479L170.085,166.06A9.748,9.748,0,0,1,160.338,166.06Z" transform="translate(-24.8 -4.416)" opacity="0.3" fill="url(#linear-gradient)"/>
    <path id="Path_39955" data-name="Path 39955" d="M439.228,202.666a14.329,14.329,0,0,1-7.17-1.915h0l-26.7-15.417a3.445,3.445,0,0,1,0-5.967l26.7-15.417a14.376,14.376,0,0,1,14.341,0l26.7,15.418a3.446,3.446,0,0,1,0,5.967L446.4,200.75A14.33,14.33,0,0,1,439.228,202.666Zm-6.553-2.984a13.147,13.147,0,0,0,13.106,0l26.7-15.416a2.212,2.212,0,0,0,0-3.83l-26.7-15.418a13.146,13.146,0,0,0-13.107,0l-26.7,15.417a2.211,2.211,0,0,0,0,3.83Z" transform="translate(-113.456 -12.046)" fill="url(#linear-gradient)"/>
    <g id="Group_36496" data-name="Group 36496" transform="translate(190.913 163.922)">
      <path id="Path_39956" data-name="Path 39956" d="M288.5,185.528l17.065,9.852a3.942,3.942,0,0,0,3.566,0,1.087,1.087,0,0,0,0-2.059l-17.065-9.852a3.941,3.941,0,0,0-3.566,0A1.087,1.087,0,0,0,288.5,185.528Z" transform="translate(-265.349 -183.043)" fill="#e8975b"/>
      <path id="Path_39957" data-name="Path 39957" d="M277.236,189.973a1.087,1.087,0,0,0,0,2.059l26.25,15.156a3.941,3.941,0,0,0,3.566,0,1.087,1.087,0,0,0,0-2.059L280.8,189.973A3.943,3.943,0,0,0,277.236,189.973Z" transform="translate(-261.556 -185.233)" fill="#e8975b" opacity="0.6"/>
      <path id="Path_39958" data-name="Path 39958" d="M265.972,198.535l5.263,3.039a3.941,3.941,0,0,0,3.566,0,1.087,1.087,0,0,0,0-2.059l-5.263-3.039a3.942,3.942,0,0,0-3.566,0A1.087,1.087,0,0,0,265.972,198.535Z" transform="translate(-257.762 -187.423)" fill="#e8975b"/>
      <path id="Path_39959" data-name="Path 39959" d="M254.707,205.038l14.858,8.578a3.941,3.941,0,0,0,3.566,0,1.087,1.087,0,0,0,0-2.059l-14.857-8.578a3.942,3.942,0,0,0-3.566,0A1.087,1.087,0,0,0,254.707,205.038Z" transform="translate(-253.969 -189.613)" fill="#e82b88"/>
      <path id="Path_39960" data-name="Path 39960" d="M302.132,217.354a1.087,1.087,0,0,0,0-2.059l-14.857-8.578a3.944,3.944,0,0,0-3.566,0,1.087,1.087,0,0,0,0,2.059l14.858,8.578A3.941,3.941,0,0,0,302.132,217.354Z" transform="translate(-263.735 -190.872)" fill="#e8975b"/>
      <path id="Path_39961" data-name="Path 39961" d="M324.626,228.282l-.873-.5-4.221-2.437a3.941,3.941,0,0,0-3.566,0,1.087,1.087,0,0,0,0,2.059l4.221,2.437.873.5,4.221,2.437a3.941,3.941,0,0,0,3.566,0,1.087,1.087,0,0,0,0-2.059Z" transform="translate(-274.599 -197.144)" fill="#e8975b" opacity="0.6"/>
    </g>
    <g id="Group_36499" data-name="Group 36499" transform="translate(251.417 126.264)">
      <g id="Group_36497" data-name="Group 36497" transform="translate(22.086)">
        <path id="Path_39962" data-name="Path 39962" d="M448.857,127.7a3.5,3.5,0,0,1,3.166,0l1.559.907a.965.965,0,0,1,0,1.828,3.5,3.5,0,0,1-3.166,0l-1.559-.907A.965.965,0,0,1,448.857,127.7Z" transform="translate(-401.967 -126.621)" fill="#e8975b"/>
        <path id="Path_39963" data-name="Path 39963" d="M426.54,126.642a3.5,3.5,0,0,1,3.166,0l9.576,5.529a.964.964,0,0,1,0,1.827,3.5,3.5,0,0,1-3.166,0l-9.577-5.529A.965.965,0,0,1,426.54,126.642Z" transform="translate(-394.452 -126.264)" fill="#e8975b"/>
        <path id="Path_39964" data-name="Path 39964" d="M382.037,160a3.5,3.5,0,0,1,3.166,0l5.173,2.987a.965.965,0,0,1,0,1.828,3.5,3.5,0,0,1-3.166,0l-5.173-2.987A.965.965,0,0,1,382.037,160Z" transform="translate(-379.465 -137.498)" fill="#e8975b"/>
        <path id="Path_39965" data-name="Path 39965" d="M393.24,154.66a3.5,3.5,0,0,1,3.166,0l4.527,2.613a.965.965,0,0,1,0,1.828,3.5,3.5,0,0,1-3.166,0l-4.527-2.613A.965.965,0,0,1,393.24,154.66Z" transform="translate(-383.238 -135.699)" fill="#e8975b" opacity="0.4"/>
        <path id="Path_39966" data-name="Path 39966" d="M379.149,134.684a3.5,3.5,0,0,1,3.166,0l20.656,11.946a.965.965,0,0,1,0,1.828,3.5,3.5,0,0,1-3.166,0l-20.657-11.946A.965.965,0,0,1,379.149,134.684Z" transform="translate(-378.493 -128.972)" fill="#e8975b" opacity="0.4"/>
        <path id="Path_39967" data-name="Path 39967" d="M409.142,140.22a3.5,3.5,0,0,1,3.166,0l7.548,4.357a.965.965,0,0,1,0,1.828,3.5,3.5,0,0,1-3.166,0l-7.548-4.357A.964.964,0,0,1,409.142,140.22Z" transform="translate(-388.593 -130.836)" fill="#e8975b"/>
        <path id="Path_39968" data-name="Path 39968" d="M423.925,136.944a3.5,3.5,0,0,1,3.166,0l4.526,2.613a.965.965,0,0,1,0,1.828,3.5,3.5,0,0,1-3.166,0l-4.527-2.613A.965.965,0,0,1,423.925,136.944Z" transform="translate(-393.572 -129.733)" fill="#e8975b"/>
      </g>
      <g id="Group_36498" data-name="Group 36498" transform="translate(0 17.079)">
        <path id="Path_39969" data-name="Path 39969" d="M387.486,163.13a3.5,3.5,0,0,1,3.166,0l1.559.907a.965.965,0,0,1,0,1.828,3.5,3.5,0,0,1-3.166,0l-1.559-.907A.965.965,0,0,1,387.486,163.13Z" transform="translate(-359.214 -155.63)" fill="#e8975b"/>
        <path id="Path_39970" data-name="Path 39970" d="M348.463,152.393a3.5,3.5,0,0,1,3.166,0l20.657,11.946a.965.965,0,0,1,0,1.828,3.5,3.5,0,0,1-3.166,0l-20.657-11.946A.965.965,0,0,1,348.463,152.393Z" transform="translate(-346.073 -152.014)" fill="#e8975b" opacity="0.4"/>
        <path id="Path_39971" data-name="Path 39971" d="M345.848,162.694a3.5,3.5,0,0,1,3.166,0l15.606,9.03a.965.965,0,0,1,0,1.828,3.5,3.5,0,0,1-3.166,0l-15.607-9.03A.965.965,0,0,1,345.848,162.694Z" transform="translate(-345.193 -155.483)" fill="#e8975b"/>
      </g>
    </g>
    <g id="Group_36502" data-name="Group 36502" transform="translate(160.214 143.503)">
      <g id="Group_36500" data-name="Group 36500">
        <path id="Path_39972" data-name="Path 39972" d="M329.077,207.876c-.291-.751-.638-1.5-1.013-2.239a24.527,24.527,0,0,1-2.566,7.735,19.019,19.019,0,0,1-.06,5.05l-2.977,1.063-8.165,8.007-10.886,5.6-12.544,4.379-14.674,2.6H263.649l-14.792-2.722-17.04-4.26-13.608-9.467-5.31-4.71a19.192,19.192,0,0,1-.267-3.1,52.692,52.692,0,0,1-3.081-8.83q-.25.575-.466,1.155l-1.4-2.426v10.618l.026-.024c.279,8.86,6.262,17.67,17.973,24.432,24,13.855,62.906,13.856,86.9,0,12.052-6.959,18.039-16.088,17.982-25.207l.009.009v-9.829Z" transform="translate(-207.682 -170.233)" fill="url(#radial-gradient)"/>
        <path id="Path_39973" data-name="Path 39973" d="M230.114,175.213c22.072-12.743,57.859-12.743,79.932,0,10.032,5.792,15.49,13.219,16.4,20.8a24.528,24.528,0,0,0,2.566-7.735,27.217,27.217,0,0,0-2.172-3.589l1.777-.156-8.757-15.3-25.64-12.306-23.115-2.84-19.762,2.484L238.8,158.93l-10.177,4.734-10.532,7.692-5.206,10.295-.657,4.666a25.475,25.475,0,0,0-1.729,3.3,52.692,52.692,0,0,0,3.081,8.83C213.508,190.044,219.006,181.626,230.114,175.213Z" transform="translate(-208.631 -152.87)" fill="url(#radial-gradient-2)"/>
        <ellipse id="Ellipse_206" data-name="Ellipse 206" cx="56.52" cy="32.632" rx="56.52" ry="32.632" transform="translate(4.929 6.678)" opacity="0.5" fill="url(#radial-gradient-3)"/>
        <path id="Path_39974" data-name="Path 39974" d="M312.582,162.648c-24-13.855-62.9-13.856-86.9,0s-24,36.318,0,50.173,62.906,13.855,86.9,0S336.58,176.5,312.582,162.648ZM309.1,210.809c-22.072,12.743-57.859,12.743-79.932,0s-22.073-33.405,0-46.149,57.859-12.743,79.932,0S331.171,198.065,309.1,210.809Z" transform="translate(-207.682 -152.256)" fill="url(#radial-gradient-4)"/>
        <path id="Path_39975" data-name="Path 39975" d="M231.787,174.974c-9.739,5.623-15.174,12.787-16.318,20.133,1.145,7.345,6.58,14.51,16.32,20.133,22.073,12.743,57.86,12.744,79.932,0,9.739-5.623,15.174-12.787,16.318-20.133-1.145-7.345-6.58-14.51-16.32-20.133C289.646,162.231,253.86,162.231,231.787,174.974Z" transform="translate(-210.304 -156.688)" opacity="0.3" fill="url(#radial-gradient-5)"/>
      </g>
      <g id="Group_36501" data-name="Group 36501" transform="translate(98.65 64.322)">
        <path id="Path_39976" data-name="Path 39976" d="M436.82,301.047a3.762,3.762,0,0,1-1.89-.509L358.315,256.3a3.787,3.787,0,0,1,3.787-6.558l76.615,44.234a3.787,3.787,0,0,1-1.9,7.067Z" transform="translate(-356.421 -249.237)" fill="url(#radial-gradient-6)"/>
      </g>
      <path id="Path_39977" data-name="Path 39977" d="M362.1,249.746a3.787,3.787,0,0,0-3.787,6.558l5.522,3.188h0s-2.008-5.08,3.944-6.467h0Z" transform="translate(-257.771 -184.915)" fill="#020230" opacity="0.6"/>
    </g>
    <g id="Group_36507" data-name="Group 36507" transform="translate(118.67 203.502)">
      <g id="Group_36506" data-name="Group 36506" transform="translate(0 0)">
        <g id="Group_36505" data-name="Group 36505">
          <g id="Group_36503" data-name="Group 36503" transform="translate(1.835)">
            <path id="Path_39978" data-name="Path 39978" d="M192.808,243.1a3.485,3.485,0,0,1,3.154,0L216.545,255a.961.961,0,0,1,0,1.821,3.487,3.487,0,0,1-3.154,0l-20.582-11.9A.961.961,0,0,1,192.808,243.1Z" transform="translate(-162.744 -242.72)" fill="#e8975b"/>
            <path id="Path_39979" data-name="Path 39979" d="M148.464,276.339a3.487,3.487,0,0,1,3.154,0l16.2,9.37a.961.961,0,0,1,0,1.821,3.487,3.487,0,0,1-3.155,0l-16.194-9.37A.961.961,0,0,1,148.464,276.339Z" transform="translate(-147.811 -253.914)" fill="#e8975b"/>
            <path id="Path_39980" data-name="Path 39980" d="M176.273,280.656a3.487,3.487,0,0,1,3.154,0l4.511,2.6a.961.961,0,0,1,0,1.821,3.487,3.487,0,0,1-3.154,0l-4.51-2.6A.961.961,0,0,1,176.273,280.656Z" transform="translate(-157.176 -255.368)" fill="#e8975b" opacity="0.5"/>
            <path id="Path_39981" data-name="Path 39981" d="M178.878,270.391a3.487,3.487,0,0,1,3.154,0l9.542,5.51a.961.961,0,0,1,0,1.821,3.487,3.487,0,0,1-3.154,0l-9.542-5.51A.961.961,0,0,1,178.878,270.391Z" transform="translate(-158.053 -251.911)" fill="#e8975b"/>
            <path id="Path_39982" data-name="Path 39982" d="M192.118,266.267a3.488,3.488,0,0,1,3.155,0l7.52,4.342a.961.961,0,0,1,0,1.821,3.485,3.485,0,0,1-3.154,0l-7.52-4.342A.961.961,0,0,1,192.118,266.267Z" transform="translate(-162.512 -250.523)" fill="#e8975b"/>
            <path id="Path_39983" data-name="Path 39983" d="M190.2,253.362a3.487,3.487,0,0,1,3.154,0l15.55,9a.961.961,0,0,1,0,1.821,3.487,3.487,0,0,1-3.154,0l-15.551-9A.961.961,0,0,1,190.2,253.362Z" transform="translate(-161.866 -246.177)" fill="#e82b88" opacity="0.5"/>
          </g>
          <g id="Group_36504" data-name="Group 36504" transform="translate(0 24.463)">
            <path id="Path_39984" data-name="Path 39984" d="M154.2,279.632c.871-.5,13.324,5.891,14.2,6.394l1.553.9a.961.961,0,0,1,0,1.821,3.489,3.489,0,0,1-3.155,0l-1.553-.9C164.37,287.344,153.329,280.135,154.2,279.632Z" transform="translate(-148.111 -279.604)" fill="#e8975b"/>
            <path id="Path_39985" data-name="Path 39985" d="M148.3,288.036a3.486,3.486,0,0,1,3.155,0L161,293.545a.961.961,0,0,1,0,1.821,3.487,3.487,0,0,1-3.155,0l-9.542-5.509A.961.961,0,0,1,148.3,288.036Z" transform="translate(-145.921 -282.316)" fill="#e8975b"/>
            <path id="Path_39986" data-name="Path 39986" d="M145.7,298.3a3.487,3.487,0,0,1,3.154,0l4.511,2.6a.961.961,0,0,1,0,1.821,3.485,3.485,0,0,1-3.155,0l-4.51-2.6A.961.961,0,0,1,145.7,298.3Z" transform="translate(-145.044 -285.773)" fill="#e8975b"/>
          </g>
        </g>
      </g>
    </g>
    <g id="Group_36508" data-name="Group 36508" transform="translate(306.811 159.253)">
      <path id="Path_39987" data-name="Path 39987" d="M456.742,178.02l13.85,8a3.2,3.2,0,0,0,2.894,0,.882.882,0,0,0,0-1.671l-13.851-8a3.2,3.2,0,0,0-2.894,0A.882.882,0,0,0,456.742,178.02Z" transform="translate(-437.95 -176.003)" fill="#e8975b"/>
      <path id="Path_39988" data-name="Path 39988" d="M447.6,181.628a.882.882,0,0,0,0,1.671l11.825,6.859a3.2,3.2,0,0,0,2.894,0,.882.882,0,0,0,0-1.671l-11.825-6.859A3.2,3.2,0,0,0,447.6,181.628Z" transform="translate(-434.871 -177.781)" fill="#e8975b" opacity="0.6"/>
      <path id="Path_39989" data-name="Path 39989" d="M438.456,188.578l4.273,2.467a3.2,3.2,0,0,0,2.894,0,.882.882,0,0,0,0-1.671l-4.272-2.467a3.2,3.2,0,0,0-2.894,0A.882.882,0,0,0,438.456,188.578Z" transform="translate(-431.792 -179.559)" fill="#e8975b"/>
      <path id="Path_39990" data-name="Path 39990" d="M429.313,193.856l12.06,6.963a3.2,3.2,0,0,0,2.894,0,.882.882,0,0,0,0-1.671l-12.059-6.962a3.2,3.2,0,0,0-2.894,0A.882.882,0,0,0,429.313,193.856Z" transform="translate(-428.714 -181.336)" fill="#e82b88"/>
      <path id="Path_39991" data-name="Path 39991" d="M463.576,201.393a.882.882,0,0,0,0-1.671l-7.83-4.5a3.2,3.2,0,0,0-2.894,0,.882.882,0,0,0,0,1.671l7.83,4.5A3.2,3.2,0,0,0,463.576,201.393Z" transform="translate(-436.641 -182.358)" fill="#e8975b"/>
    </g>
    <path id="Path_39992" data-name="Path 39992" d="M106.575,232.357l13.85,8a3.2,3.2,0,0,0,2.894,0,.882.882,0,0,0,0-1.671l-13.85-8a3.2,3.2,0,0,0-2.894,0A.882.882,0,0,0,106.575,232.357Z" transform="translate(-13.217 -35.049)" fill="#e8975b"/>
    <path id="Path_39993" data-name="Path 39993" d="M97.432,235.965a.882.882,0,0,0,0,1.671l11.826,6.859a3.2,3.2,0,0,0,2.894,0,.882.882,0,0,0,0-1.671l-11.825-6.859A3.2,3.2,0,0,0,97.432,235.965Z" transform="translate(-10.138 -36.826)" fill="#e8975b" opacity="0.6"/>
  </g>
</svg>
