<svg xmlns="http://www.w3.org/2000/svg" width="510.557" height="500.777" viewBox="0 0 510.557 500.777">
  <g id="service" transform="translate(-60.94 -62.436)">
    <g id="freepik--background-simple--inject-296" transform="translate(96.332 62.436)">
      <path id="Path_40702" data-name="Path 40702" d="M90.972,326.917s15.2,81.9,92.274,126.313,172.866,33.857,250.725,27.255,130.415-59.211,129.295-126.534-62.974-77.7-106.376-147.9S412.562,110.74,337.986,74.89s-176.161,8.594-219.55,96.141S90.972,326.917,90.972,326.917Z" transform="translate(-88.118 -62.436)" fill="#00d747"/>
      <path id="Path_40703" data-name="Path 40703" d="M90.972,326.917s15.2,81.9,92.274,126.313,172.866,33.857,250.725,27.255,130.415-59.211,129.295-126.534-62.974-77.7-106.376-147.9S412.562,110.74,337.986,74.89s-176.161,8.594-219.55,96.141S90.972,326.917,90.972,326.917Z" transform="translate(-88.118 -62.436)" fill="#fff" opacity="0.9"/>
    </g>
    <g id="freepik--Floor--inject-296" transform="translate(80.968 533.992)">
      <ellipse id="Ellipse_242" data-name="Ellipse 242" cx="202.075" cy="14.611" rx="202.075" ry="14.611" fill="#32cd32"/>
      <ellipse id="Ellipse_243" data-name="Ellipse 243" cx="202.075" cy="14.611" rx="202.075" ry="14.611" fill="#fff" opacity="0.5"/>
    </g>
    <g id="freepik--Graphics--inject-296" transform="translate(221.605 80.75)">
      <rect id="Rectangle_3625" data-name="Rectangle 3625" width="330.341" height="427.576" rx="10" fill="none" stroke="#263238" stroke-linecap="round" stroke-linejoin="round" stroke-width="1.023"/>
      <path id="Path_40704" data-name="Path 40704" d="M291.138,166.73v1.328H289.81" transform="translate(-152.441 -49.233)" fill="none" stroke="#263238" stroke-linecap="round" stroke-linejoin="round" stroke-width="1.023"/>
      <line id="Line_270" data-name="Line 270" x1="77.468" transform="translate(57.271 118.825)" fill="none" stroke="#263238" stroke-linecap="round" stroke-linejoin="round" stroke-width="1.023" stroke-dasharray="2.017 2.017"/>
      <path id="Path_40705" data-name="Path 40705" d="M227.6,168.058H226.26V166.73" transform="translate(-171.646 -49.233)" fill="none" stroke="#263238" stroke-linecap="round" stroke-linejoin="round" stroke-width="1.023"/>
      <line id="Line_271" data-name="Line 271" y1="60.253" transform="translate(54.614 54.679)" fill="none" stroke="#263238" stroke-linecap="round" stroke-linejoin="round" stroke-width="1.023" stroke-dasharray="1.969 1.969"/>
      <path id="Path_40706" data-name="Path 40706" d="M226.26,117.808V116.48H227.6" transform="translate(-171.646 -64.418)" fill="none" stroke="#263238" stroke-linecap="round" stroke-linejoin="round" stroke-width="1.023"/>
      <line id="Line_272" data-name="Line 272" x2="77.481" transform="translate(58.573 52.062)" fill="none" stroke="#263238" stroke-linecap="round" stroke-linejoin="round" stroke-width="1.023" stroke-dasharray="2.017 2.017"/>
      <path id="Path_40707" data-name="Path 40707" d="M289.81,116.48h1.328v1.328" transform="translate(-152.441 -64.418)" fill="none" stroke="#263238" stroke-linecap="round" stroke-linejoin="round" stroke-width="1.023"/>
      <line id="Line_273" data-name="Line 273" y2="60.266" transform="translate(138.697 55.955)" fill="none" stroke="#263238" stroke-linecap="round" stroke-linejoin="round" stroke-width="1.023" stroke-dasharray="1.969 1.969"/>
      <rect id="Rectangle_3626" data-name="Rectangle 3626" width="57.231" height="45.447" transform="translate(68.04 62.727)" fill="#fff" stroke="#263238" stroke-linecap="round" stroke-linejoin="round" stroke-width="1.023"/>
      <line id="Line_274" data-name="Line 274" x1="19.637" y1="15.145" transform="translate(45.043 44.21)" fill="none" stroke="#263238" stroke-linecap="round" stroke-linejoin="round" stroke-width="1.023"/>
      <line id="Line_275" data-name="Line 275" x2="16.837" y2="14.585" transform="translate(129.204 110.413)" fill="none" stroke="#263238" stroke-linecap="round" stroke-linejoin="round" stroke-width="1.023"/>
      <path id="Path_40708" data-name="Path 40708" d="M218.443,115.776l-.573-6.446H224.6" transform="translate(-174.181 -66.579)" fill="none" stroke="#263238" stroke-linecap="round" stroke-linejoin="round" stroke-width="1.023"/>
      <path id="Path_40709" data-name="Path 40709" d="M298.452,167.81l1.159,7.032-8.191.3" transform="translate(-151.955 -48.907)" fill="none" stroke="#263238" stroke-linecap="round" stroke-linejoin="round" stroke-width="1.023"/>
      <rect id="Rectangle_3627" data-name="Rectangle 3627" width="27.789" height="10.027" transform="translate(168.361 290.207)" fill="#263238"/>
      <path id="Path_40710" data-name="Path 40710" d="M347.754,305.584,329.94,295.31v20.562Z" transform="translate(-140.314 -10.377)" fill="#263238"/>
      <rect id="Rectangle_3628" data-name="Rectangle 3628" width="81.96" height="159.962" rx="6.93" transform="translate(75.384 221.048)" fill="#263238" stroke="#263238" stroke-linecap="round" stroke-linejoin="round" stroke-width="0.829"/>
      <rect id="Rectangle_3629" data-name="Rectangle 3629" width="74.681" height="139.595" transform="translate(79.03 231.908)" fill="#fff" stroke="#263238" stroke-linecap="round" stroke-linejoin="round" stroke-width="0.829"/>
      <path id="Path_40711" data-name="Path 40711" d="M301.288,406.39l5.7-22.137a28.82,28.82,0,0,0,.938-7.305V350.4a4.064,4.064,0,0,0,.169-1.055,4.493,4.493,0,0,0-4.74-4.193,5,5,0,0,0-3.464,1.3,4.545,4.545,0,0,0-4.7-3.841,4.87,4.87,0,0,0-4,1.953,4.558,4.558,0,0,0-4.688-3.776,4.922,4.922,0,0,0-4.011,1.966c0-3.516,0-20.379-.586-21.76-1.719-4.44-10.418-2.409-8.868,2.3v39c0-2.735-2.031-6.342-2.878-9s-1.3-5.209-2.917-7.423c-2.683-3.828-7.41-1.719-7.136,2.266.221,3.5,2.761,6.264,4.128,9.441,2.526,5.86,1.016,11.993,3.4,17.879a105.8,105.8,0,0,0,6.589,10.808,33.454,33.454,0,0,1,3.06,7.214l-2.214,12.9" transform="translate(-161.419 -3.361)" fill="#fff" stroke="#263238" stroke-linecap="round" stroke-linejoin="round" stroke-width="1.023"/>
      <line id="Line_276" data-name="Line 276" y2="7.292" transform="translate(116.429 304.193)" fill="none" stroke="#263238" stroke-linecap="round" stroke-linejoin="round" stroke-width="1.023"/>
      <line id="Line_277" data-name="Line 277" x2="5.925" transform="translate(124.633 318.309)" fill="none" stroke="#263238" stroke-linecap="round" stroke-linejoin="round" stroke-width="1.023"/>
      <line id="Line_278" data-name="Line 278" x2="5.925" transform="translate(100.035 318.309)" fill="none" stroke="#263238" stroke-linecap="round" stroke-linejoin="round" stroke-width="1.023"/>
      <line id="Line_279" data-name="Line 279" x2="2.279" y2="3.633" transform="translate(108.238 310.574)" fill="none" stroke="#263238" stroke-linecap="round" stroke-linejoin="round" stroke-width="1.023"/>
      <line id="Line_280" data-name="Line 280" y1="4.089" x2="3.19" transform="translate(121.898 310.574)" fill="none" stroke="#263238" stroke-linecap="round" stroke-linejoin="round" stroke-width="1.023"/>
      <rect id="Rectangle_3630" data-name="Rectangle 3630" width="69.238" height="8.66" transform="translate(81.817 285.975)" fill="none" stroke="#263238" stroke-linecap="round" stroke-linejoin="round" stroke-width="1.023"/>
      <rect id="Rectangle_3631" data-name="Rectangle 3631" width="33.258" height="39.626" transform="translate(84.096 239.513)" fill="none" stroke="#263238" stroke-linecap="round" stroke-linejoin="round" stroke-width="1.023"/>
      <line id="Line_281" data-name="Line 281" x2="33.245" y2="39.626" transform="translate(84.096 239.513)" fill="none" stroke="#263238" stroke-linecap="round" stroke-linejoin="round" stroke-width="1.023"/>
      <path id="Path_40712" data-name="Path 40712" d="M248.2,362.739V306.25h67.415v56.033" transform="translate(-165.016 -7.071)" fill="none" stroke="#263238" stroke-linecap="round" stroke-linejoin="round" stroke-width="1.023"/>
      <rect id="Rectangle_3632" data-name="Rectangle 3632" width="81.96" height="159.962" rx="6.93" transform="translate(213.221 221.048)" fill="#263238" stroke="#263238" stroke-linecap="round" stroke-linejoin="round" stroke-width="0.829"/>
      <rect id="Rectangle_3633" data-name="Rectangle 3633" width="74.681" height="139.595" transform="translate(216.868 231.908)" fill="#fff" stroke="#263238" stroke-linecap="round" stroke-linejoin="round" stroke-width="0.829"/>
      <rect id="Rectangle_3634" data-name="Rectangle 3634" width="67.415" height="73.795" transform="translate(220.748 238.601)" fill="none" stroke="#263238" stroke-linecap="round" stroke-linejoin="round" stroke-width="1.023"/>
      <line id="Line_282" data-name="Line 282" x2="67.415" transform="translate(220.748 319.22)" fill="none" stroke="#263238" stroke-linecap="round" stroke-linejoin="round" stroke-width="1.023"/>
      <line id="Line_283" data-name="Line 283" x2="67.415" transform="translate(220.748 324.689)" fill="none" stroke="#263238" stroke-linecap="round" stroke-linejoin="round" stroke-width="1.023"/>
      <line id="Line_284" data-name="Line 284" x2="67.415" transform="translate(220.748 330.159)" fill="none" stroke="#263238" stroke-linecap="round" stroke-linejoin="round" stroke-width="1.023"/>
      <line id="Line_285" data-name="Line 285" x2="67.415" transform="translate(220.748 335.628)" fill="none" stroke="#263238" stroke-linecap="round" stroke-linejoin="round" stroke-width="1.023"/>
      <line id="Line_286" data-name="Line 286" x2="67.415" transform="translate(220.748 341.084)" fill="none" stroke="#263238" stroke-linecap="round" stroke-linejoin="round" stroke-width="1.023"/>
      <line id="Line_287" data-name="Line 287" x2="67.415" transform="translate(220.748 346.553)" fill="none" stroke="#263238" stroke-linecap="round" stroke-linejoin="round" stroke-width="1.023"/>
      <line id="Line_288" data-name="Line 288" x2="67.415" transform="translate(220.748 352.022)" fill="none" stroke="#263238" stroke-linecap="round" stroke-linejoin="round" stroke-width="1.023"/>
      <line id="Line_289" data-name="Line 289" y1="73.795" x2="67.415" transform="translate(220.748 238.601)" fill="none" stroke="#263238" stroke-linecap="round" stroke-linejoin="round" stroke-width="1.023"/>
      <rect id="Rectangle_3635" data-name="Rectangle 3635" width="81.96" height="159.962" rx="6.93" transform="translate(213.221 37.425)" fill="#263238" stroke="#263238" stroke-linecap="round" stroke-linejoin="round" stroke-width="0.829"/>
      <rect id="Rectangle_3636" data-name="Rectangle 3636" width="74.681" height="139.595" transform="translate(216.868 48.285)" fill="#fff" stroke="#263238" stroke-linecap="round" stroke-linejoin="round" stroke-width="0.829"/>
      <path id="Path_40713" data-name="Path 40713" d="M284.65,252.463V209.92h59.862" transform="translate(-154.001 -36.181)" fill="none" stroke="#263238" stroke-linecap="round" stroke-linejoin="round" stroke-width="1.023"/>
      <path id="Path_40714" data-name="Path 40714" d="M329.12,218.1l11.5-6.641-11.5-6.641Z" transform="translate(-140.562 -37.722)" fill="#263238"/>
      <line id="Line_290" data-name="Line 290" y1="32.659" transform="translate(252.691 182.503)" fill="none" stroke="#263238" stroke-linecap="round" stroke-linejoin="round" stroke-width="1.023"/>
      <path id="Path_40715" data-name="Path 40715" d="M386.552,220.821l-6.641-11.511-6.641,11.511Z" transform="translate(-127.22 -36.365)" fill="#263238"/>
      <line id="Line_291" data-name="Line 291" x2="30.198" transform="translate(221.829 395.568)" fill="none" stroke="#263238" stroke-linecap="round" stroke-linejoin="round" stroke-width="1.023"/>
      <line id="Line_292" data-name="Line 292" x2="30.198" transform="translate(221.829 402.365)" fill="none" stroke="#263238" stroke-linecap="round" stroke-linejoin="round" stroke-width="1.023"/>
      <line id="Line_293" data-name="Line 293" x2="30.198" transform="translate(221.829 409.15)" fill="none" stroke="#263238" stroke-linecap="round" stroke-linejoin="round" stroke-width="1.023"/>
      <line id="Line_294" data-name="Line 294" x2="30.198" transform="translate(148.606 395.568)" fill="none" stroke="#263238" stroke-linecap="round" stroke-linejoin="round" stroke-width="1.023"/>
      <line id="Line_295" data-name="Line 295" x2="30.198" transform="translate(148.606 402.365)" fill="none" stroke="#263238" stroke-linecap="round" stroke-linejoin="round" stroke-width="1.023"/>
      <line id="Line_296" data-name="Line 296" x2="30.198" transform="translate(148.606 409.15)" fill="none" stroke="#263238" stroke-linecap="round" stroke-linejoin="round" stroke-width="1.023"/>
      <line id="Line_297" data-name="Line 297" x2="30.198" transform="translate(140.298 187.217)" fill="none" stroke="#263238" stroke-linecap="round" stroke-linejoin="round" stroke-width="1.023"/>
      <line id="Line_298" data-name="Line 298" x2="30.198" transform="translate(140.298 194.001)" fill="none" stroke="#263238" stroke-linecap="round" stroke-linejoin="round" stroke-width="1.023"/>
      <line id="Line_299" data-name="Line 299" x2="30.198" transform="translate(140.298 200.798)" fill="none" stroke="#263238" stroke-linecap="round" stroke-linejoin="round" stroke-width="1.023"/>
      <line id="Line_300" data-name="Line 300" x2="30.198" transform="translate(162.944 104.931)" fill="none" stroke="#263238" stroke-linecap="round" stroke-linejoin="round" stroke-width="1.023"/>
      <line id="Line_301" data-name="Line 301" x2="30.198" transform="translate(162.944 111.728)" fill="none" stroke="#263238" stroke-linecap="round" stroke-linejoin="round" stroke-width="1.023"/>
      <line id="Line_302" data-name="Line 302" x2="30.198" transform="translate(162.944 118.513)" fill="none" stroke="#263238" stroke-linecap="round" stroke-linejoin="round" stroke-width="1.023"/>
      <line id="Line_303" data-name="Line 303" x2="30.198" transform="translate(54.236 128.331)" fill="none" stroke="#263238" stroke-linecap="round" stroke-linejoin="round" stroke-width="1.023"/>
      <line id="Line_304" data-name="Line 304" x2="30.198" transform="translate(54.236 135.129)" fill="none" stroke="#263238" stroke-linecap="round" stroke-linejoin="round" stroke-width="1.023"/>
      <line id="Line_305" data-name="Line 305" x2="30.198" transform="translate(54.236 141.913)" fill="none" stroke="#263238" stroke-linecap="round" stroke-linejoin="round" stroke-width="1.023"/>
    </g>
    <g id="freepik--Plants--inject-296" transform="translate(60.94 283.372)">
      <path id="Path_40716" data-name="Path 40716" d="M117.936,258.014s0-5.625-7.891-13.517-13.022-12.4-13.022-12.4-3.907,13.022,3.373,20.835a138.413,138.413,0,0,0,17.475,15.21Z" transform="translate(-50.352 -232.1)" fill="#32cd32"/>
      <path id="Path_40717" data-name="Path 40717" d="M109.143,285.077s0-5.638-7.891-13.53-13.009-12.4-13.009-12.4-3.907,13.022,3.373,20.835a139.648,139.648,0,0,0,17.475,15.21Z" transform="translate(-53.005 -223.926)" fill="#32cd32"/>
      <path id="Path_40718" data-name="Path 40718" d="M112.708,264.87s.6-5.6,9.272-12.605S136.173,241.3,136.173,241.3s2.6,13.308-5.56,20.379a138.29,138.29,0,0,1-18.973,13.282Z" transform="translate(-45.618 -229.32)" fill="#32cd32"/>
      <path id="Path_40719" data-name="Path 40719" d="M102.336,296.188s1.172-5.508,10.548-11.564,15.262-9.415,15.262-9.415,1.146,13.5-7.67,19.676A138.285,138.285,0,0,1,100.2,306.111Z" transform="translate(-49.075 -219.072)" fill="#32cd32"/>
      <path id="Path_40720" data-name="Path 40720" d="M103.83,332.137s0-5.638,7.891-13.53,13.022-12.4,13.022-12.4,3.907,13.022-3.373,20.835A139.076,139.076,0,0,1,103.9,342.268Z" transform="translate(-47.978 -209.704)" fill="#32cd32"/>
      <path id="Path_40721" data-name="Path 40721" d="M108.231,341.252s.807-5.573-5.886-14.506S91.276,312.63,91.276,312.63s-5.743,12.28.391,21.122A137.17,137.17,0,0,0,106.8,351.292Z" transform="translate(-52.51 -207.764)" fill="#32cd32"/>
      <path id="Path_40722" data-name="Path 40722" d="M97.76,365.807s0-5.638,7.891-13.53,13.022-12.4,13.022-12.4,3.907,12.957-3.386,20.835a137.754,137.754,0,0,1-17.462,15.21Z" transform="translate(-49.813 -199.529)" fill="#32cd32"/>
      <path id="Path_40723" data-name="Path 40723" d="M101.837,389.663s-1.419-5.456,4.167-15.118,9.4-15.275,9.4-15.275,7.1,11.537,2.018,21.017A138.374,138.374,0,0,1,104.4,399.43Z" transform="translate(-48.629 -193.67)" fill="#32cd32"/>
      <path id="Path_40724" data-name="Path 40724" d="M118.2,250.93a162.04,162.04,0,0,1-2.162,17.488c-3.125,16.108-10.912,26.513-14.038,41.058s5.834,33.31,3.438,52-9.675,29.091-7.592,41.566,13.022,46.254,13.022,46.254" transform="translate(-49.899 -226.41)" fill="none" stroke="#263238" stroke-linecap="round" stroke-linejoin="round" stroke-width="1.035"/>
      <line id="Line_306" data-name="Line 306" y1="6.524" x2="8.503" transform="translate(67.011 32.776)" fill="none" stroke="#263238" stroke-linecap="round" stroke-linejoin="round" stroke-width="1.035"/>
      <line id="Line_307" data-name="Line 307" x1="3.555" y1="6.329" transform="translate(63.847 25.458)" fill="none" stroke="#263238" stroke-linecap="round" stroke-linejoin="round" stroke-width="1.035"/>
      <path id="Path_40725" data-name="Path 40725" d="M101.31,297.858s7.123-5.339,14.441-10.678" transform="translate(-48.74 -215.455)" fill="none" stroke="#263238" stroke-linecap="round" stroke-linejoin="round" stroke-width="1.035"/>
      <path id="Path_40726" data-name="Path 40726" d="M106.987,291.338S101.049,279.709,94.33,272" transform="translate(-50.849 -220.042)" fill="none" stroke="#263238" stroke-linecap="round" stroke-linejoin="round" stroke-width="1.035"/>
      <path id="Path_40727" data-name="Path 40727" d="M104.05,337.006a87.78,87.78,0,0,1,15.223-20.366" transform="translate(-47.912 -206.552)" fill="none" stroke="#263238" stroke-linecap="round" stroke-linejoin="round" stroke-width="1.035"/>
      <path id="Path_40728" data-name="Path 40728" d="M105.892,343.351a100.087,100.087,0,0,0-7.722-14.637c-4.141-6.12-4.74-6.915-4.74-6.915" transform="translate(-51.121 -204.993)" fill="none" stroke="#263238" stroke-linecap="round" stroke-linejoin="round" stroke-width="1.035"/>
      <path id="Path_40729" data-name="Path 40729" d="M97.76,373.285a95.307,95.307,0,0,1,6.407-13.022,82.7,82.7,0,0,1,8.308-10.873" transform="translate(-49.813 -196.656)" fill="none" stroke="#263238" stroke-linecap="round" stroke-linejoin="round" stroke-width="1.035"/>
      <path id="Path_40730" data-name="Path 40730" d="M103.806,396.8a24.182,24.182,0,0,1,2.123-12.475c2.969-5.743,6.329-13.243,7.722-16.212" transform="translate(-48.02 -190.998)" fill="none" stroke="#263238" stroke-linecap="round" stroke-linejoin="round" stroke-width="1.035"/>
      <path id="Path_40731" data-name="Path 40731" d="M73.178,314.137s-.612-3.529,3.477-9.337,6.784-9.18,6.784-9.18,3.907,7.709.143,13.452A87.728,87.728,0,0,1,74.258,320.5Z" transform="translate(-57.251 -212.905)" fill="#32cd32"/>
      <path id="Path_40732" data-name="Path 40732" d="M81.617,330.137s-.6-3.542,3.49-9.337,6.771-9.18,6.771-9.18,3.907,7.7.143,13.439a88.188,88.188,0,0,1-9.3,11.433Z" transform="translate(-54.7 -208.069)" fill="#32cd32"/>
      <path id="Path_40733" data-name="Path 40733" d="M78.22,317.28s-.99-3.451-7.188-6.915S60.94,305,60.94,305s-.156,8.62,5.7,12.176a87.793,87.793,0,0,0,13.334,6.264Z" transform="translate(-60.94 -210.07)" fill="#32cd32"/>
      <path id="Path_40734" data-name="Path 40734" d="M88.6,335.692s-1.3-3.334-7.813-6.12-10.6-4.232-10.6-4.232.755,8.581,6.954,11.5a88.944,88.944,0,0,0,13.92,4.844Z" transform="translate(-58.144 -203.923)" fill="#32cd32"/>
      <path id="Path_40735" data-name="Path 40735" d="M90.566,358.566s-.612-3.529-6.42-7.618-9.467-6.368-9.467-6.368-1.068,8.555,4.375,12.709a88.326,88.326,0,0,0,12.605,7.644Z" transform="translate(-56.813 -198.109)" fill="#32cd32"/>
      <path id="Path_40736" data-name="Path 40736" d="M87.882,365.233S86.788,361.8,90,355.493s5.4-10.053,5.4-10.053,4.935,7.071,2.057,13.3a88.382,88.382,0,0,1-7.592,12.631Z" transform="translate(-52.852 -197.849)" fill="#32cd32"/>
      <path id="Path_40737" data-name="Path 40737" d="M95.616,385.981s.4-3.568,5.964-7.982,9.115-6.889,9.115-6.889,1.563,8.477-3.646,12.931A88.548,88.548,0,0,1,94.9,392.388Z" transform="translate(-50.677 -190.092)" fill="#32cd32"/>
      <path id="Path_40738" data-name="Path 40738" d="M98.026,379.038s-.612-3.542-6.407-7.631S82.14,365,82.14,365s-1.068,8.555,4.388,12.709a87.561,87.561,0,0,0,12.605,7.644Z" transform="translate(-54.559 -191.938)" fill="#32cd32"/>
      <path id="Path_40739" data-name="Path 40739" d="M97.274,394.607s.313-3.581-4.271-9-7.553-8.568-7.553-8.568-3.2,8.009,1.029,13.413a88.845,88.845,0,0,0,10.248,10.587Z" transform="translate(-53.884 -188.3)" fill="#32cd32"/>
      <path id="Path_40740" data-name="Path 40740" d="M72.7,309.21a105.93,105.93,0,0,0,3.255,10.73c3.711,9.766,9.727,15.444,13.256,24.234s0,21.512,3.49,32.972,9.233,17.189,9.272,25.237S98.848,432.8,98.848,432.8" transform="translate(-57.386 -208.798)" fill="none" stroke="#263238" stroke-linecap="round" stroke-linejoin="round" stroke-width="1.035"/>
      <line id="Line_308" data-name="Line 308" x1="6.042" y1="3.164" transform="translate(11.694 106.376)" fill="none" stroke="#263238" stroke-linecap="round" stroke-linejoin="round" stroke-width="1.035"/>
      <line id="Line_309" data-name="Line 309" y1="4.362" x2="1.55" transform="translate(16.668 100.516)" fill="none" stroke="#263238" stroke-linecap="round" stroke-linejoin="round" stroke-width="1.035"/>
      <path id="Path_40741" data-name="Path 40741" d="M87.469,336.971s-5.04-2.6-10.209-5.131" transform="translate(-56.008 -201.959)" fill="none" stroke="#263238" stroke-linecap="round" stroke-linejoin="round" stroke-width="1.035"/>
      <path id="Path_40742" data-name="Path 40742" d="M82.46,333.854a72.818,72.818,0,0,1,5.834-13.5" transform="translate(-54.436 -205.431)" fill="none" stroke="#263238" stroke-linecap="round" stroke-linejoin="round" stroke-width="1.035"/>
      <path id="Path_40743" data-name="Path 40743" d="M90.11,361.791A55.812,55.812,0,0,0,78.39,350.67" transform="translate(-55.666 -196.269)" fill="none" stroke="#263238" stroke-linecap="round" stroke-linejoin="round" stroke-width="1.035"/>
      <path id="Path_40744" data-name="Path 40744" d="M88.72,366.351a62.959,62.959,0,0,1,3.242-10.014c1.94-4.284,2.227-4.857,2.227-4.857" transform="translate(-52.545 -196.024)" fill="none" stroke="#263238" stroke-linecap="round" stroke-linejoin="round" stroke-width="1.035"/>
      <path id="Path_40745" data-name="Path 40745" d="M95,387.865a53.26,53.26,0,0,1,6.511-6.745,34.338,34.338,0,0,0,4.219-3.659" transform="translate(-50.647 -188.173)" fill="none" stroke="#263238" stroke-linecap="round" stroke-linejoin="round" stroke-width="1.035"/>
      <path id="Path_40746" data-name="Path 40746" d="M97.921,383.857a59.682,59.682,0,0,0-5.417-7.422,52.085,52.085,0,0,0-6.394-5.925" transform="translate(-53.333 -190.273)" fill="none" stroke="#263238" stroke-linecap="round" stroke-linejoin="round" stroke-width="1.035"/>
      <path id="Path_40747" data-name="Path 40747" d="M95.995,399.4a15.444,15.444,0,0,0-2.683-7.6c-2.487-3.269-5.417-7.618-6.6-9.324" transform="translate(-53.152 -186.659)" fill="none" stroke="#263238" stroke-linecap="round" stroke-linejoin="round" stroke-width="1.035"/>
      <path id="Path_40748" data-name="Path 40748" d="M80.41,401.13h51.554v38.818a3.907,3.907,0,0,1-3.907,3.907H84.369a3.907,3.907,0,0,1-3.907-3.907V401.13Z" transform="translate(-55.056 -181.02)" fill="#263238"/>
      <path id="Path_40749" data-name="Path 40749" d="M132.5,408.177H81.347a4.037,4.037,0,0,1-4.037-4.05h0a4.037,4.037,0,0,1,4.037-4.037H132.5a4.037,4.037,0,0,1,4.037,4.037h0a4.037,4.037,0,0,1-4.037,4.05Z" transform="translate(-55.993 -181.334)" fill="#263238"/>
    </g>
    <g id="freepik--Character--inject-296" transform="translate(150.572 108.867)">
      <path id="Path_40750" data-name="Path 40750" d="M132.655,424.508s-2.8,10.782-2.8,13.5-.677,4.545,5.209,5.678,9.766.456,10.678-2.266,1.589-16.369,1.589-16.369l-14.324-2.735Z" transform="translate(-129.753 -0.112)" fill="#fff" stroke="#263238" stroke-linecap="round" stroke-linejoin="round" stroke-width="1.035"/>
      <path id="Path_40751" data-name="Path 40751" d="M145.7,437.743a11.225,11.225,0,0,0,.391-1.9,96.366,96.366,0,0,1-16.3-1.3c0,2.6-.508,4.362,5.209,5.456S144.823,440.465,145.7,437.743Z" transform="translate(-129.771 3.581)" fill="#fff" stroke="#263238" stroke-linecap="round" stroke-linejoin="round" stroke-width="1.035"/>
      <path id="Path_40752" data-name="Path 40752" d="M241.641,424.78s4.545,1.589,11.147,3.633,20.041,4.323,21.343,4.545,1.3,2.956.221,4.1-7.045,4.545-14.09,6.355-30.927,3.412-32.972,2.057c-1.706-1.146-1.133-12.28-.456-14.78S241.641,424.78,241.641,424.78Z" transform="translate(-100.64 0.631)" fill="#fff" stroke="#263238" stroke-linecap="round" stroke-linejoin="round" stroke-width="1.035"/>
      <path id="Path_40753" data-name="Path 40753" d="M274.335,434.95a3.4,3.4,0,0,0,.677-3.19c-4.61,3.672-13.816,7.709-23.179,8.647a167.507,167.507,0,0,1-25.523-.13c.169,1.563.469,2.748.964,3.086,2.044,1.3,25.914-.234,32.972-2.057S273.2,436.083,274.335,434.95Z" transform="translate(-100.598 2.741)" fill="#fff" stroke="#263238" stroke-linecap="round" stroke-linejoin="round" stroke-width="1.035"/>
      <path id="Path_40754" data-name="Path 40754" d="M160.127,272.57s-3.907,23.778-.885,36.982c0,0-5.717,52.374-6.6,75.71,0,0-12.319,40.941-14.09,53.7a314.364,314.364,0,0,1-6.55,30.8,27.88,27.88,0,0,0,8.8,3.086c6.172,1.3,7.045-3.529,7.045-3.529s33.857-77.91,36.54-89.357,11.42-52.361,11.42-52.361l36.461,66.907s1.771,22.893,7.045,36.1,15.4,49.731,15.4,49.731a36.461,36.461,0,0,0,11.889-1.3c5.287-1.758,5.287-4.4,5.287-4.4s-7.93-29.495-7.93-39.17-3.073-42.7-5.274-51.945-17.176-57.661-19.377-62.948-7.045-22.007-7.045-22.007L229.2,272.583S191.38,283.144,160.127,272.57Z" transform="translate(-129.098 -45.366)" fill="#263238" stroke="#263238" stroke-linecap="round" stroke-linejoin="round" stroke-width="1.035"/>
      <path id="Path_40755" data-name="Path 40755" d="M182.13,213.112s-2.031-4.388-2.031-7.084-1.3-15.509-1.3-15.509,19.533-35.381,24.937-42.126a82.728,82.728,0,0,1,11.8-11.8s13.152-2.7,15.848-2.7,5.73-1.3,5.73-3.034-4.388-1.3-7.084-1.3-6.068-2.357-6.068-2.357,4.388-12.566,5.73-17.528c.716-2.6,3.034-8.087,1.3-8.087s-2.018,1.3-3.034,3.373-5.391,8.764-5.391,8.764l1-14.832s-1.3-2.018-2.357.339a101.452,101.452,0,0,0-3.373,11.121,8.139,8.139,0,0,1-1.68,3.2l-1.3-11.056s-2.292-2.435-2.7,1.784c-.221,2.344,0,10.118,0,11.459s-1.3-1.914-1.3-1.914-.794-3.659-1.68-4.154-1.68.677-1.3,3.373-.339,13.816-.339,13.816-2.018,2.7-5.053,6.407-27.346,25.614-36.461,32.7-10.105,12.814-11.459,19.885-2.7,48.181-2.7,63.039,1.3,38.415,2.357,46.176-.807,17.762-2.11,23.205,0,10.105,3.711,12.8,19.533,4.388,32.685,4.388,26.63-1.3,30.68-2.7,7.149-1.706,7.149-7.084-2.7-16.173-2.7-19.207,5.4-34.378,5.4-34.378,34.378,10.418,40.785,8.087,59.992-52.921,59.992-52.921,8.425-3.373,12.814-4.05,11.121-3.7,11.459-4.714-.677-.677-3.373-.677a31.773,31.773,0,0,0-7.084,1.3s9.207-5.834,10.8-6.407c1.094-.4,2.982-2.891.339-2.357-3.321.664-11.459,3.034-11.459,3.034l10.782-6.745s1.68-2.7-.339-2.7-12.136,6.068-12.136,6.068l7.813-7.318c1.524-1.406.247-3.4-1.55-2.357l-9.115,5.209a35.292,35.292,0,0,1-7.032,3.138l-1.68,1.016a44.559,44.559,0,0,0,.677-5.391c0-1.693-1.016-6.068-3.373-6.407s-.339,3.034-.339,4.714-3.373,10.418-3.373,11.8v4.05s-11.459,10.105-21.9,15.509S267.7,257.244,267.7,257.244s-26.955-13.829-33.024-18.882S221.86,227.241,215.14,221.85a83.654,83.654,0,0,0-11.121-7.813Z" transform="translate(-123.168 -98.092)" fill="#fff" stroke="#263238" stroke-linecap="round" stroke-linejoin="round" stroke-width="1.035"/>
      <path id="Path_40756" data-name="Path 40756" d="M294.769,225.67c-11.446,7.318-27.034,19.116-27.034,19.116s-26.955-13.829-33.024-18.882-12.814-11.121-19.533-16.512a83.649,83.649,0,0,0-11.121-7.813l-21.9-1s-2.031-4.388-2.031-7.084-1.3-15.509-1.3-15.509,10.092-18.231,17.775-31.057l-.612-.625c-3.776-3.763-9-5.795-13.556-6.9-6.355,5.639-12.67,11.069-16.421,13.986-9.115,7.071-10.105,12.814-11.459,19.885s-2.7,48.181-2.7,63.039,1.3,38.415,2.357,46.176-.794,17.866-2.1,23.309,0,10.105,3.711,12.8,19.533,4.388,32.685,4.388,26.63-1.3,30.68-2.7,7.149-1.706,7.149-7.084-2.7-16.173-2.7-19.207,5.4-34.378,5.4-34.378,34.378,10.418,40.785,8.087c3.412-1.3,20.314-16.277,35.3-29.951A46.071,46.071,0,0,0,294.769,225.67Z" transform="translate(-123.168 -85.609)" fill="#32cd32" stroke="#263238" stroke-linecap="round" stroke-linejoin="round" stroke-width="1.035"/>
      <path id="Path_40757" data-name="Path 40757" d="M206.324,197.76s-13.569,3.7-14.324,13.973" transform="translate(-110.966 -67.973)" fill="none" stroke="#263238" stroke-linecap="round" stroke-linejoin="round" stroke-width="1.035"/>
      <path id="Path_40758" data-name="Path 40758" d="M216.575,234.639s-15.809-4.349-24.025-12.579" transform="translate(-110.8 -60.63)" fill="none" stroke="#263238" stroke-linecap="round" stroke-linejoin="round" stroke-width="1.035"/>
      <path id="Path_40759" data-name="Path 40759" d="M210.271,230.284s-13.569,3.7-25.9-1.224" transform="translate(-113.272 -58.514)" fill="none" stroke="#263238" stroke-linecap="round" stroke-linejoin="round" stroke-width="1.035"/>
      <path id="Path_40760" data-name="Path 40760" d="M160.3,213.23s4.284,29.951,24.937,44.874" transform="translate(-120.545 -63.298)" fill="none" stroke="#263238" stroke-linecap="round" stroke-linejoin="round" stroke-width="1.035"/>
      <path id="Path_40761" data-name="Path 40761" d="M184.45,254c1.576.43,3.2.807,4.883,1.107" transform="translate(-113.247 -50.978)" fill="none" stroke="#263238" stroke-linecap="round" stroke-linejoin="round" stroke-width="1.035"/>
      <path id="Path_40762" data-name="Path 40762" d="M160.3,236.2a57.948,57.948,0,0,0,23.114,20" transform="translate(-120.545 -56.357)" fill="none" stroke="#263238" stroke-linecap="round" stroke-linejoin="round" stroke-width="1.035"/>
      <path id="Path_40763" data-name="Path 40763" d="M157.23,185.841s13.152-6.511,20.965-.417" transform="translate(-121.473 -72.488)" fill="none" stroke="#263238" stroke-linecap="round" stroke-linejoin="round" stroke-width="1.035"/>
      <path id="Path_40764" data-name="Path 40764" d="M160.07,162.1s11.928,4.115,15.21,12.332" transform="translate(-120.615 -78.749)" fill="none" stroke="#263238" stroke-linecap="round" stroke-linejoin="round" stroke-width="1.035"/>
      <path id="Path_40765" data-name="Path 40765" d="M166.07,159.89a16.8,16.8,0,0,1,5.756,9.037" transform="translate(-118.802 -79.417)" fill="none" stroke="#263238" stroke-linecap="round" stroke-linejoin="round" stroke-width="1.035"/>
      <path id="Path_40766" data-name="Path 40766" d="M221.334,146.631s2.031,11.459,2.031,14.493-3.373,4.05-2.031,8.087,4.388,4.388,3.711,7.813-5.053,5.391-5.053,5.391-2.357,9.441-4.727,13.478-11.121,1.016-11.121,1.016l-.677,10.782s-3.034,4.388-14.155,3.034a61.711,61.711,0,0,1-18.53-5.053l-1.693-2.357s8.764-4.388,9.115-7.423,0-10.105,0-20.223-3.034-29.664,13.478-34.717S221.334,146.631,221.334,146.631Z" transform="translate(-117.889 -85.548)" fill="#fff" stroke="#263238" stroke-linecap="round" stroke-linejoin="round" stroke-width="1.035"/>
      <path id="Path_40767" data-name="Path 40767" d="M200.432,176.425s-3.8-8.725-8.061-3.737c-2.761,3.242.677,12.814,2.357,14.155s5.391.677,5.391.677-5.391,5.391-11.121,5.391-10.782-5.391-14.493-14.832-6.407-25.614-2.357-35.394,24.95-10.105,29.664-10.105,11.8,2.7,11.8,2.7,15.171-1.3,15.509,3.711-2.031,5.391-2.031,5.391,10.8,5.73,5.73,8.087-12.8,1.016-17.866,1.016a7.227,7.227,0,0,0-6.732,3.7s4.714,3.034,3.034,4.388-7.813,4.037-8.425,6.407,2.357,6.068.326,7.813S200.432,176.425,200.432,176.425Z" transform="translate(-117.575 -87.67)" fill="#263238" stroke="#263238" stroke-linecap="round" stroke-linejoin="round" stroke-width="1.035"/>
      <path id="Path_40768" data-name="Path 40768" d="M208.534,163.842c0,1.719-.716,3.112-1.589,3.112s-1.576-1.393-1.576-3.112.716-3.112,1.576-3.112S208.534,162.123,208.534,163.842Z" transform="translate(-106.926 -79.163)" fill="#263238"/>
      <path id="Path_40769" data-name="Path 40769" d="M203.56,160.8s2.175-5.079,5.625-2.357" transform="translate(-107.472 -80.096)" fill="none" stroke="#263238" stroke-linecap="round" stroke-linejoin="round" stroke-width="1.035"/>
      <path id="Path_40770" data-name="Path 40770" d="M185.271,317.078l-3.086-5.73-15.4-3.959" transform="translate(-118.587 -34.843)" fill="none" stroke="#fff" stroke-linecap="round" stroke-linejoin="round" stroke-width="1.035"/>
    </g>
  </g>
</svg>
