<svg xmlns="http://www.w3.org/2000/svg" width="30.238" height="30.236" viewBox="0 0 30.238 30.236">
  <path id="skype" d="M29.362,18.325A14.321,14.321,0,0,0,12.811,1.265,8.374,8.374,0,0,0,0,8.247a8.131,8.131,0,0,0,1.149,4.171A14.325,14.325,0,0,0,17.917,29.255a8.434,8.434,0,0,0,3.954.979A8.256,8.256,0,0,0,29.362,18.325ZM15.237,25.042c-2.95,0-5.832-.712-7.538-3.148-2.542-3.6.81-5.394,2.455-4.023,1.373,1.158.942,3.958,4.975,3.958,1.777,0,3.972-.758,3.972-2.521,0-3.546-7.867-1.868-10.995-5.734a4.744,4.744,0,0,1,.045-5.725c2.459-3.164,9.674-3.357,12.777-.967,2.865,2.217,2.091,5.16-.22,5.16-2.78,0-1.319-3.638-5.807-3.638-3.254,0-4.534,2.314-2.242,3.44,3.05,1.514,11.022,1.042,11.022,7.058C23.671,23.13,19.591,25.042,15.237,25.042Z" transform="translate(0 0.002)" fill="#03a9f4"/>
</svg>
