<svg xmlns="http://www.w3.org/2000/svg" width="43.847" height="50.157" viewBox="0 0 43.847 50.157">
  <g id="support" transform="translate(-69.48 -13)">
    <g id="Group_36250" data-name="Group 36250" transform="translate(69.48 13)">
      <path id="Path_3294" data-name="Path 3294" d="M65.561,17.157a17.157,17.157,0,0,0-34.315,0c-2.45.305-4.766,1.906-4.766,5.624v8.96c0,4.194,2.936,5.719,5.719,5.719h2.764a.953.953,0,0,0,.953-.953V18.053a.953.953,0,0,0-.953-.953H33.152a15.251,15.251,0,0,1,30.5,0H61.843a.953.953,0,0,0-.953.953V36.478a.953.953,0,0,0,.953.953h1.811c-.267,6.548-3.412,8.083-9.694,8.359v-.639a1.906,1.906,0,0,0-1.906-1.906h-6a1.906,1.906,0,0,0-1.906,1.906v3.1a1.906,1.906,0,0,0,1.906,1.906h6.015a1.906,1.906,0,0,0,1.906-1.906V47.7c6.043-.276,11.267-1.525,11.581-10.323,2.45-.305,4.766-1.906,4.766-5.624v-8.96C70.327,19.054,68.02,17.462,65.561,17.157ZM34.01,18.94V35.525H32.151c-1.411,0-3.813-.5-3.813-3.813v-8.96c0-3.288,2.373-3.813,3.813-3.813ZM52.073,46.811V48.26H46.058v-3.1h6.015ZM68.42,31.741c0,3.288-2.373,3.813-3.813,3.813H62.8V19.007h1.859c1.411,0,3.813.5,3.813,3.813Z" transform="translate(-26.48)" fill="#32cd32"/>
    </g>
  </g>
</svg>
