<svg id="website_development" xmlns="http://www.w3.org/2000/svg" width="62" height="62" viewBox="0 0 62 62">
  <path id="Path_1614" data-name="Path 1614" d="M21,18H35V31H21Z" transform="translate(-1 -1)" fill="#00d747"/>
  <path id="Path_1615" data-name="Path 1615" d="M48,41V40a4,4,0,0,0-4-4H18l-1.8-2.4A4,4,0,0,0,13,32H6a4,4,0,0,0-4,4v5Z" transform="translate(-1 -1)" fill="#00d747"/>
  <path id="Path_1616" data-name="Path 1616" d="M15,37H13V35h2Zm-4,0H9V35h2ZM7,37H5V35H7Z" transform="translate(-1 -1)"/>
  <path id="Path_1617" data-name="Path 1617" d="M39.6,32.8l-1.2-1.6L41.333,29,38.4,26.8l1.2-1.6L44.667,29Z" transform="translate(-1 -1)"/>
  <path id="Path_1618" data-name="Path 1618" d="M21,17H35v2H21Z" transform="translate(-1 -1)"/>
  <path id="Path_1619" data-name="Path 1619" d="M21,21H35v2H21Z" transform="translate(-1 -1)"/>
  <path id="Path_1620" data-name="Path 1620" d="M21,25H35v2H21Z" transform="translate(-1 -1)"/>
  <path id="Path_1621" data-name="Path 1621" d="M21,29H31v2H21Z" transform="translate(-1 -1)"/>
  <path id="Path_1622" data-name="Path 1622" d="M33,29h2v2H33Z" transform="translate(-1 -1)"/>
  <path id="Path_1623" data-name="Path 1623" d="M29.64,56.769l-1.28-1.538L33.438,51,28.36,46.769l1.28-1.538L36.562,51Z" transform="translate(-1 -1)"/>
  <path id="Path_1624" data-name="Path 1624" d="M20.36,56.769,13.438,51l6.922-5.769,1.28,1.538L16.562,51l5.078,4.231Z" transform="translate(-1 -1)"/>
  <path id="Path_1625" data-name="Path 1625" d="M0,0H16.492V2H0Z" transform="translate(21.018 57.753) rotate(-75.992)"/>
  <path id="Path_1626" data-name="Path 1626" d="M7,53H5V51H7Zm0-4H5V47H7Zm0-4H5V43H7Z" transform="translate(-1 -1)"/>
  <path id="Path_1627" data-name="Path 1627" d="M45,59H43V57h2Zm0-4H43V53h2Zm0-4H43V49h2Z" transform="translate(-1 -1)"/>
  <path id="Path_1628" data-name="Path 1628" d="M55,24V58a3,3,0,1,1-6,0V40a5.006,5.006,0,0,0-5-5H18.5L17,33a5.024,5.024,0,0,0-4-2H11V15H25.414l2-2H38V11H26.586l-2,2H11V7H41.029V5H9V31H6a5.006,5.006,0,0,0-5,5V58a5.006,5.006,0,0,0,5,5H52a5.006,5.006,0,0,0,5-5V24ZM6,61a3,3,0,0,1-3-3V36a3,3,0,0,1,3-3h7a3.014,3.014,0,0,1,2.4,1.2L17.5,37H44a3,3,0,0,1,3,3V58a4.98,4.98,0,0,0,1,3Z" transform="translate(-1 -1)"/>
  <path id="Path_1629" data-name="Path 1629" d="M17,9h2v2H17Z" transform="translate(-1 -1)"/>
  <path id="Path_1630" data-name="Path 1630" d="M21,9h2v2H21Z" transform="translate(-1 -1)"/>
  <path id="Path_1631" data-name="Path 1631" d="M13,9h2v2H13Z" transform="translate(-1 -1)"/>
  <path id="Path_1632" data-name="Path 1632" d="M17.4,17.2,12.333,21,17.4,24.8l1.2-1.6L15.667,21,18.6,18.8Z" transform="translate(-1 -1)"/>
  <path id="Path_1633" data-name="Path 1633" d="M51,49h2v2H51Z" transform="translate(-1 -1)"/>
  <path id="Path_1634" data-name="Path 1634" d="M51,57h2v2H51Z" transform="translate(-1 -1)"/>
  <path id="Path_1635" data-name="Path 1635" d="M51,53h2v2H51Z" transform="translate(-1 -1)"/>
  <path id="Path_1636" data-name="Path 1636" d="M50,17a3,3,0,1,1,3-3A3,3,0,0,1,50,17Zm0-4a1,1,0,1,0,1,1A1,1,0,0,0,50,13Z" transform="translate(-1 -1)"/>
  <path id="Path_1637" data-name="Path 1637" d="M63,10.219l-2.416-.6L61.865,7.48,56.518,2.134,54.384,3.415,53.781,1H46.219l-.6,2.416L43.482,2.135,38.134,7.48l1.281,2.136-2.415.6v7.562l2.416.6L38.135,20.52l5.347,5.346,2.134-1.281.6,2.415h7.562l.6-2.416,2.134,1.281,5.347-5.346-1.281-2.136,2.416-.6ZM50,20a6,6,0,1,1,6-6A6,6,0,0,1,50,20Z" transform="translate(-1 -1)" fill="#00d747"/>
  <path id="Path_1638" data-name="Path 1638" d="M50,21a7,7,0,1,1,7-7A7.008,7.008,0,0,1,50,21ZM50,9a5,5,0,1,0,5,5A5.006,5.006,0,0,0,50,9Z" transform="translate(-1 -1)"/>
</svg>
