<svg xmlns="http://www.w3.org/2000/svg" width="80" height="80" viewBox="0 0 80 80">
  <g id="bost_inclusive" transform="translate(-24 -24.032)">
    <path id="Path_52759" data-name="Path 52759" d="M236.966,253.273h-4.138L228,248.446l29.182-29.182a11.035,11.035,0,0,1,7.8-3.232h2.326v2.326a11.035,11.035,0,0,1-3.232,7.8Z" transform="translate(-168.828 -158.897)" fill="#4356e6"/>
    <path id="Path_52760" data-name="Path 52760" d="M114.01,66.16a11.034,11.034,0,0,0,3.232-7.8V56.032h-2.326a11.034,11.034,0,0,0-7.8,3.232L80,86.377v4.138l4.828,4.828Z" transform="translate(-46.345 -26.483)" fill="#4356e6"/>
    <path id="Path_52761" data-name="Path 52761" d="M176.828,28.17V33.3a27.574,27.574,0,0,1-8.083,19.509L132.69,88.86,112,68.17l36.059-36.059a27.571,27.571,0,0,1,19.505-8.079h5.126a4.139,4.139,0,0,1,4.138,4.138Z" transform="translate(-72.828 0)" fill="#5771e5"/>
    <path id="Path_52762" data-name="Path 52762" d="M56.552,160.032,40,143.48l3.448-3.448L73.1,143.48Z" transform="translate(-13.241 -96)" fill="#89a8f5"/>
    <path id="Path_52763" data-name="Path 52763" d="M47.448,357.549v1.379a16.552,16.552,0,0,1-6.621,13.241h0a16.552,16.552,0,0,1-9.931,3.31H24v-6.9a16.552,16.552,0,0,1,3.31-9.931h0a16.552,16.552,0,0,1,13.241-6.621h1.379Z" transform="translate(0 -271.449)" fill="#f7c04a"/>
    <path id="Path_52764" data-name="Path 52764" d="M256,296.584l16.552,16.552L276,309.687l-3.448-29.655Z" transform="translate(-192 -211.862)" fill="#89a8f5"/>
    <path id="Path_52765" data-name="Path 52765" d="M307.034,156.446l1.379-1.379v-8.276l-2.759-2.759h-8.276L296,145.411Z" transform="translate(-225.103 -99.31)" fill="#96cffa"/>
    <path id="Path_52766" data-name="Path 52766" d="M126.069,300.722,124.69,302.1h-6.9L104,288.308v-6.9l1.379-1.379Z" transform="translate(-66.207 -211.862)" fill="#4356e6"/>
    <g id="Group_61174" data-name="Group 61174" transform="translate(35.027 24.032)">
      <path id="Path_52767" data-name="Path 52767" d="M370.756,28.17V33.3a27.6,27.6,0,0,1-4.538,15.16L346.33,28.572a27.6,27.6,0,0,1,15.162-4.54h5.126a4.139,4.139,0,0,1,4.138,4.138Z" transform="translate(-301.783 -24.032)" fill="#89a8f5"/>
      <path id="Path_52768" data-name="Path 52768" d="M0,0H27.309V5.852H0Z" transform="translate(0 64.823) rotate(-45)" fill="#89a8f5"/>
    </g>
  </g>
</svg>
