<svg xmlns="http://www.w3.org/2000/svg" xmlns:xlink="http://www.w3.org/1999/xlink" width="219.84" height="60" viewBox="0 0 219.84 60">
  <defs>
    <clipPath id="clip-path">
      <path id="Path_1799" data-name="Path 1799" d="M16.21,23.584h0a11.491,11.491,0,0,1,19.2-1.026l-8.582,4.29L16.3,32.106l-1.163.581a11.533,11.533,0,0,1,1.08-9.1M24.35.495A6.721,6.721,0,0,0,23.5.909L14.657,6.014l-9.841,5.68-1.428.822A6.785,6.785,0,0,0,0,18.393v23.22a6.758,6.758,0,0,0,.656,2.911l4.517-2.607,7.864-4.541.434.752a15.476,15.476,0,0,0,12.391,6.652h.3A15.442,15.442,0,0,0,41.545,29.115l-3.9.06a11.5,11.5,0,0,1-20.762,7.006L26.835,31.2l10.488-5.242,6.731-3.36A19.2,19.2,0,0,1,26.232,48.946c-.36,0-.72-.01-1.067-.028a19.106,19.106,0,0,1-9.931-3.435,19.442,19.442,0,0,1-3.762-3.455L4.631,45.974,2.745,47.062a7.233,7.233,0,0,0,.64.416L4.3,48,13.6,53.379l8.847,5.106,1.05.607a6.8,6.8,0,0,0,6.783,0l3.142-1.816L43.946,51.2l2.04-1.174L50.4,47.48a6.808,6.808,0,0,0,3.394-5.872V18.393c0-.205-.011-.406-.03-.607a6.8,6.8,0,0,0-1.974-4.2l-4.46,2.574L42.22,19.1l-.618.36-.029.014h0l-2.52,1.264-.112.056A15.4,15.4,0,0,0,11.615,34.45L8.135,36.186A19.22,19.22,0,0,1,15.55,13.777h0a19.107,19.107,0,0,1,10.186-3.24c.164,0,.33-.007.5-.007a19.178,19.178,0,0,1,13.936,5.995L47,12.583l1.757-1.014-1.989-1.146L35.4,3.862,30.282.909A6.776,6.776,0,0,0,24.35.495" transform="translate(0 0)" fill="none"/>
    </clipPath>
    <clipPath id="clip-path-2">
      <rect id="Rectangle_17593" data-name="Rectangle 17593" width="146.634" height="48.004" fill="none"/>
    </clipPath>
  </defs>
  <g id="everlens_logo" transform="translate(-455 -30)">
    <g id="Group_37331" data-name="Group 37331" transform="translate(455 30)">
      <g id="Group_37330" data-name="Group 37330" transform="translate(0 0)" clip-path="url(#clip-path)">
        <rect id="Rectangle_17588" data-name="Rectangle 17588" width="53.785" height="60.005" transform="translate(0 0.001)" fill="#fff"/>
      </g>
    </g>
    <g id="Group_37336" data-name="Group 37336" transform="translate(528.206 36.001)">
      <path id="Path_1821" data-name="Path 1821" d="M.84.084v29.98H16.993v-3.9H4.719V17H16.993V13.125H4.719V3.963H16.993V.084Z" transform="translate(-0.654 -0.065)" fill="#fff"/>
      <path id="Path_1822" data-name="Path 1822" d="M97.783,67.677,88.583,48.4h4.384l5.789,12.516L104.565,48.4h4.385L99.731,67.677Z" transform="translate(-68.966 -37.679)" fill="#fff"/>
      <g id="Group_37335" data-name="Group 37335">
        <g id="Group_37334" data-name="Group 37334" clip-path="url(#clip-path-2)">
          <path id="Path_1823" data-name="Path 1823" d="M197.916,57.776a5.444,5.444,0,0,0,3.541.862,6.493,6.493,0,0,0,4.74-1.949q.24-.262.992-1.162l3.879,1.386a25.107,25.107,0,0,1-2.062,2.6,10.672,10.672,0,1,1-.924-15.936q.468.394.918.84.187.187,1.068,1.181l-1.949,1.967ZM204.4,45.785a5.487,5.487,0,0,0-2.941-.506,6.686,6.686,0,0,0-6.67,6.689,5.544,5.544,0,0,0,.505,2.941Z" transform="translate(-148.545 -32.144)" fill="#fff"/>
          <path id="Path_1824" data-name="Path 1824" d="M306.53,49.289a6.887,6.887,0,0,1,5.34-3.091v4.029a4.95,4.95,0,0,0-3.372,1.368,6.333,6.333,0,0,0-1.967,4.46v9.912h-3.879V46.68h3.879Z" transform="translate(-235.63 -35.967)" fill="#fff"/>
          <rect id="Rectangle_17591" data-name="Rectangle 17591" width="3.898" height="29.998" transform="translate(80.38)" fill="#fff"/>
          <path id="Path_1825" data-name="Path 1825" d="M407.979,57.776a5.444,5.444,0,0,0,3.541.862,6.493,6.493,0,0,0,4.74-1.949q.24-.262.993-1.162l3.879,1.386a25.1,25.1,0,0,1-2.062,2.6,10.67,10.67,0,1,1-.922-15.936q.468.394.918.84.187.187,1.068,1.181l-1.949,1.967Zm6.481-11.991a5.487,5.487,0,0,0-2.941-.506,6.686,6.686,0,0,0-6.67,6.689,5.547,5.547,0,0,0,.505,2.941Z" transform="translate(-312.084 -32.144)" fill="#fff"/>
          <path id="Path_1826" data-name="Path 1826" d="M516.642,49.883v14.11h-3.9V44.71h3.9v2.249a4.749,4.749,0,0,1,4.89-3.3,6.134,6.134,0,0,1,4.975,2.22,8.664,8.664,0,0,1,1.9,5.574V63.992H524.53V51.606a3.853,3.853,0,0,0-1.218-2.855,4.151,4.151,0,0,0-5.789-.028,4.4,4.4,0,0,0-.881,1.162" transform="translate(-399.2 -33.993)" fill="#fff"/>
          <path id="Path_1827" data-name="Path 1827" d="M611.3,61.494a2.28,2.28,0,0,0,1.649.674,2.319,2.319,0,0,0,2.323-2.341,2.22,2.22,0,0,0-.674-1.63,13.591,13.591,0,0,0-2-1.44,13.561,13.561,0,0,1-2.98-2.023,5.032,5.032,0,0,1-1.536-3.692,5.261,5.261,0,0,1,5.247-5.265,4.873,4.873,0,0,1,3.616,1.462,4.654,4.654,0,0,1,1.312,2.305l-3.766,1.086a1.747,1.747,0,0,0-.263-.618,1.215,1.215,0,0,0-.9-.337,1.375,1.375,0,0,0-1.368,1.368,1.3,1.3,0,0,0,.394.96,13.223,13.223,0,0,0,1.612,1.143,15.359,15.359,0,0,1,3.372,2.323,6.2,6.2,0,1,1-8.769,8.769,6.082,6.082,0,0,1-1.649-3.129l3.859-.824A2.357,2.357,0,0,0,611.3,61.5" transform="translate(-472.52 -35.638)" fill="#fff"/>
          <path id="Path_1828" data-name="Path 1828" d="M0,171.168H.98L4.406,177.1v-5.927h1.08v8.3h-.94l-3.472-6v6H0Z" transform="translate(0 -133.263)" fill="#fff"/>
          <path id="Path_1829" data-name="Path 1829" d="M51.834,171.168v1.08H48.912v2.538h2.922v1.08H48.912v3.617h-1.08v-8.3Z" transform="translate(-37.245 -133.263)" fill="#fff"/>
          <path id="Path_1830" data-name="Path 1830" d="M89.033,172.242v7.229h-1.08v-7.229H86.018v-1.08H90.97v1.08Z" transform="translate(-66.97 -133.264)" fill="#fff"/>
          <path id="Path_1831" data-name="Path 1831" d="M165.719,171.168v1.08H162.8v2.538h2.922v1.08H162.8v3.617h-1.08v-8.3Z" transform="translate(-125.91 -133.263)" fill="#fff"/>
          <path id="Path_1832" data-name="Path 1832" d="M202.739,182.582a2.959,2.959,0,1,1-2.087.867,2.843,2.843,0,0,1,2.087-.867m-1.31,1.65a1.848,1.848,0,1,0,1.31-.545,1.788,1.788,0,0,0-1.311.545" transform="translate(-155.543 -142.151)" fill="#fff"/>
          <path id="Path_1833" data-name="Path 1833" d="M249.189,184.8a1.907,1.907,0,0,1,1.48-.857v1.116a1.372,1.372,0,0,0-.934.379,1.755,1.755,0,0,0-.545,1.235v2.741h-1.08v-5.34h1.08Z" transform="translate(-193.172 -143.208)" fill="#fff"/>
          <rect id="Rectangle_17592" data-name="Rectangle 17592" width="1.074" height="8.305" transform="translate(69.419 37.904)" fill="#fff"/>
          <path id="Path_1834" data-name="Path 1834" d="M342.97,184.962v3.908h-1.08v-5.34h1.08v.624a1.32,1.32,0,0,1,1.355-.913,1.7,1.7,0,0,1,1.378.614,2.4,2.4,0,0,1,.527,1.545v3.472h-1.08v-3.431a1.068,1.068,0,0,0-.337-.791,1.15,1.15,0,0,0-1.6-.007,1.214,1.214,0,0,0-.24.322" transform="translate(-266.18 -142.662)" fill="#fff"/>
          <path id="Path_1835" data-name="Path 1835" d="M385.223,188.178a.634.634,0,0,0,.457.187.642.642,0,0,0,.643-.649.616.616,0,0,0-.187-.451,3.764,3.764,0,0,0-.556-.4,3.761,3.761,0,0,1-.826-.56,1.394,1.394,0,0,1-.426-1.023,1.458,1.458,0,0,1,1.453-1.458,1.349,1.349,0,0,1,1,.4,1.286,1.286,0,0,1,.36.638l-1.043.3a.48.48,0,0,0-.073-.172.337.337,0,0,0-.25-.094.382.382,0,0,0-.379.379.36.36,0,0,0,.109.265,3.662,3.662,0,0,0,.446.317,4.246,4.246,0,0,1,.935.643,1.718,1.718,0,1,1-2.429,2.429,1.68,1.68,0,0,1-.456-.866l1.069-.228a.653.653,0,0,0,.145.337" transform="translate(-298.972 -143.118)" fill="#fff"/>
          <path id="Path_1836" data-name="Path 1836" d="M421.226,177.508V175.5h1.08v2h.96v1.08h-.96v4.266h-1.08v-4.266h-.96V177.5Z" transform="translate(-327.201 -136.64)" fill="#fff"/>
          <path id="Path_1837" data-name="Path 1837" d="M459.643,183.428v-.373h1.08V188.4h-1.08v-.67a2.441,2.441,0,0,1-1.8.8,2.953,2.953,0,1,1,0-5.907,2.448,2.448,0,0,1,1.8.8m0,2.548v-.788a1.739,1.739,0,0,0-.5-.913,1.847,1.847,0,1,0,0,2.616,1.739,1.739,0,0,0,.5-.913" transform="translate(-354.151 -142.187)" fill="#fff"/>
          <path id="Path_1838" data-name="Path 1838" d="M508.515,183.405v-.368h1.08v3.97a2.949,2.949,0,0,1-5.024,2.4,6.79,6.79,0,0,1-.565-.72l1.069-.384q.208.25.281.322a1.792,1.792,0,0,0,1.308.54q1.282,0,1.775-1.68a1.783,1.783,0,0,1-1.728.976,2.88,2.88,0,0,1-2.089-.84,2.77,2.77,0,0,1-.864-2.065,2.95,2.95,0,0,1,2.954-2.953,2.453,2.453,0,0,1,1.811.8m0,1.739a1.731,1.731,0,0,0-.5-.893,1.851,1.851,0,1,0,0,2.621,1.731,1.731,0,0,0,.5-.882Z" transform="translate(-392.198 -142.168)" fill="#fff"/>
          <path id="Path_1839" data-name="Path 1839" d="M554.374,184.8a1.907,1.907,0,0,1,1.48-.857v1.116a1.372,1.372,0,0,0-.934.379,1.754,1.754,0,0,0-.545,1.235v2.741h-1.08v-5.34h1.08Z" transform="translate(-430.774 -143.208)" fill="#fff"/>
          <path id="Path_1840" data-name="Path 1840" d="M589.748,183.428v-.373h1.08V188.4h-1.08v-.67a2.441,2.441,0,0,1-1.8.8,2.953,2.953,0,0,1,0-5.907,2.448,2.448,0,0,1,1.8.8m0,2.548v-.788a1.74,1.74,0,0,0-.5-.913,1.847,1.847,0,1,0,0,2.616,1.739,1.739,0,0,0,.5-.913" transform="translate(-455.445 -142.187)" fill="#fff"/>
          <path id="Path_1841" data-name="Path 1841" d="M634.443,183.55h1.08v.5a1.177,1.177,0,0,1,1.2-.784.9.9,0,0,1,.991.893,1.268,1.268,0,0,1,1.4-.893q1.132,0,1.132,1.375v4.251h-1.08v-3.758q0-.788-.638-.788a.633.633,0,0,0-.457.187q-.192.187-.192,1.257v3.1H636.8v-3.758q0-.788-.643-.788a.632.632,0,0,0-.457.187,1.406,1.406,0,0,0-.187.851v3.509h-1.08Z" transform="translate(-493.949 -142.68)" fill="#fff"/>
        </g>
      </g>
    </g>
  </g>
</svg>
