<svg xmlns="http://www.w3.org/2000/svg" width="80.294" height="80" viewBox="0 0 80.294 80">
  <g id="secure_wallet" transform="translate(-9.191 -9.34)">
    <path id="Path_52893" data-name="Path 52893" d="M81.355,18.285H25.231a8.253,8.253,0,0,0,0,16.506H81.355a8.256,8.256,0,0,1,8.256,8.256V26.541a8.256,8.256,0,0,0-8.256-8.256Z" transform="translate(-0.126 -0.145)" fill="#304651"/>
    <path id="Path_52894" data-name="Path 52894" d="M81.355,34.727H25.231a8.253,8.253,0,0,1-8.253-8.253V75.3a8.256,8.256,0,0,0,8.256,8.256H81.355A8.256,8.256,0,0,0,89.611,75.3V42.983a8.256,8.256,0,0,0-8.256-8.256Z" transform="translate(-0.126 -0.278)" fill="#344e5c"/>
    <path id="Path_52895" data-name="Path 52895" d="M72.717,53.056a6.516,6.516,0,1,0,0,13.032H90.41V53.056Z" transform="translate(-0.925 -0.709)" fill="#467080"/>
    <circle id="Ellipse_678" data-name="Ellipse 678" cx="3.428" cy="3.428" r="3.428" transform="translate(68.941 55.434)" fill="#dad7dc"/>
    <path id="Path_52896" data-name="Path 52896" d="M18.758,63.75V56.1a9.233,9.233,0,1,1,18.465,0V63.75h4.919V56.1a14.152,14.152,0,1,0-28.3,0V63.75Z" transform="translate(-0.075 -0.529)" fill="#ececec"/>
    <path id="Path_52897" data-name="Path 52897" d="M9.191,62.8H46.638v27.41H9.191Z" transform="translate(0 -0.867)" fill="#d6b251"/>
    <path id="Path_52898" data-name="Path 52898" d="M31.416,74.514a3.246,3.246,0,1,0-4.725,2.873v3.146a1.479,1.479,0,0,0,2.958,0V77.387a3.233,3.233,0,0,0,1.766-2.873Z" transform="translate(-0.255 -1.004)" fill="#293b44"/>
    <path id="Path_52899" data-name="Path 52899" d="M72.069,34.3a19.333,19.333,0,1,0-36.989,0Z" transform="translate(-0.406 0)" fill="#feed32"/>
    <path id="Path_52900" data-name="Path 52900" d="M66.657,34.388a14.166,14.166,0,1,0-25.994,0Z" transform="translate(-0.491 -0.085)" fill="#efba1b"/>
    <path id="Path_52901" data-name="Path 52901" d="M53.154,30.047v4.4H54.3V30.632A3.955,3.955,0,0,1,55.578,31.8a2.819,2.819,0,0,1,.358,1.493,2.567,2.567,0,0,1-.26,1.149h3.147a7.092,7.092,0,0,0,.194-1.638,5.026,5.026,0,0,0-1-3.189A11.468,11.468,0,0,0,54.3,26.929V22.044a1.325,1.325,0,0,1,1.081.609,2.808,2.808,0,0,1,.388,1.589v.251H58.6v-.346a4.535,4.535,0,0,0-1.075-3.26A4.205,4.205,0,0,0,54.4,19.739v-1.66h-1.35v1.636a4.327,4.327,0,0,0-3.123,1.326,4.687,4.687,0,0,0-1.129,3.3,4.976,4.976,0,0,0,1,3.1,10.554,10.554,0,0,0,3.356,2.609Zm-1.075-7.459a1.4,1.4,0,0,1,1.063-.567l.012,4.252a3.567,3.567,0,0,1-1.093-1.057,2.566,2.566,0,0,1,.018-2.628Z" transform="translate(-0.642 -0.142)" fill="#e6e7e8"/>
    <path id="Path_52902" data-name="Path 52902" d="M51.8,34.676a4.137,4.137,0,0,1-.317-1.758c0-.055,0-.147.012-.275s.012-.223.012-.287H48.6v.466a8.319,8.319,0,0,0,.2,1.853Z" transform="translate(-0.639 -0.373)" fill="#e6e7e8"/>
    <g id="Group_61223" data-name="Group 61223" transform="translate(35.276 10.539)">
      <path id="Path_52903" data-name="Path 52903" d="M54.057,13.329h-.34a.232.232,0,0,1-.231-.231V10.79a.232.232,0,0,1,.231-.231h.34a.232.232,0,0,1,.231.231V13.1a.232.232,0,0,1-.231.231Z" transform="translate(-35.995 -10.559)" fill="#efba1b"/>
      <path id="Path_52904" data-name="Path 52904" d="M48.691,14.214l-.32.116a.232.232,0,0,1-.3-.138l-.789-2.168a.232.232,0,0,1,.138-.3l.32-.116a.232.232,0,0,1,.3.138l.789,2.168A.232.232,0,0,1,48.691,14.214Z" transform="translate(-35.894 -10.576)" fill="#efba1b"/>
      <path id="Path_52905" data-name="Path 52905" d="M43.952,16.881l-.261.219a.232.232,0,0,1-.326-.028L41.882,15.3a.232.232,0,0,1,.028-.326l.261-.219a.232.232,0,0,1,.326.028l1.483,1.768a.232.232,0,0,1-.028.326Z" transform="translate(-35.806 -10.626)" fill="#efba1b"/>
      <path id="Path_52906" data-name="Path 52906" d="M40.412,21.009l-.17.295a.232.232,0,0,1-.316.085l-2-1.154a.232.232,0,0,1-.085-.316l.17-.295a.232.232,0,0,1,.316-.085l2,1.154A.232.232,0,0,1,40.412,21.009Z" transform="translate(-35.741 -10.704)" fill="#efba1b"/>
      <path id="Path_52907" data-name="Path 52907" d="M38.5,26.1l-.059.335a.232.232,0,0,1-.268.188l-2.272-.4a.232.232,0,0,1-.188-.268l.059-.335a.232.232,0,0,1,.268-.188l2.272.4A.232.232,0,0,1,38.5,26.1Z" transform="translate(-35.706 -10.8)" fill="#efba1b"/>
      <path id="Path_52908" data-name="Path 52908" d="M72.031,32.012l-.059.335a.232.232,0,0,1-.268.188l-2.272-.4a.232.232,0,0,1-.188-.268l.059-.335a.232.232,0,0,1,.268-.188l2.272.4A.232.232,0,0,1,72.031,32.012Z" transform="translate(-36.25 -10.896)" fill="#efba1b"/>
      <path id="Path_52909" data-name="Path 52909" d="M38.438,31.531l.059.335a.232.232,0,0,1-.188.268l-2.272.4a.232.232,0,0,1-.268-.188l-.059-.335a.232.232,0,0,1,.188-.268l2.272-.4a.232.232,0,0,1,.268.188Z" transform="translate(-35.706 -10.896)" fill="#efba1b"/>
      <path id="Path_52910" data-name="Path 52910" d="M71.971,25.618l.059.335a.232.232,0,0,1-.188.268l-2.272.4a.232.232,0,0,1-.268-.188l-.059-.335a.232.232,0,0,1,.188-.268l2.272-.4A.232.232,0,0,1,71.971,25.618Z" transform="translate(-36.25 -10.8)" fill="#efba1b"/>
      <path id="Path_52911" data-name="Path 52911" d="M69.73,19.624l.17.295a.232.232,0,0,1-.085.316l-2,1.154A.232.232,0,0,1,67.5,21.3l-.17-.295a.232.232,0,0,1,.085-.316l2-1.154a.232.232,0,0,1,.316.085Z" transform="translate(-36.219 -10.704)" fill="#efba1b"/>
      <path id="Path_52912" data-name="Path 52912" d="M65.579,14.759l.261.219a.232.232,0,0,1,.029.326l-1.483,1.768a.232.232,0,0,1-.326.028l-.261-.219a.232.232,0,0,1-.028-.326l1.483-1.768a.232.232,0,0,1,.326-.028Z" transform="translate(-36.161 -10.626)" fill="#efba1b"/>
      <path id="Path_52913" data-name="Path 52913" d="M60.017,11.611l.32.116a.232.232,0,0,1,.138.3l-.789,2.168a.232.232,0,0,1-.3.138l-.32-.116a.232.232,0,0,1-.138-.3l.789-2.168A.232.232,0,0,1,60.017,11.611Z" transform="translate(-36.083 -10.576)" fill="#efba1b"/>
    </g>
  </g>
</svg>
