<svg xmlns="http://www.w3.org/2000/svg" width="24.612" height="24" viewBox="0 0 24.612 24">
  <g id="web" transform="translate(-1.001 -1.374)">
    <path id="Path_55666" data-name="Path 55666" d="M19.452,8.564C18.586,4.543,16.74,2,15.033,2S11.48,4.543,10.614,8.564Z" transform="translate(-1.726 -0.112)" fill="#fff"/>
    <path id="Path_55667" data-name="Path 55667" d="M10,15.281a24.642,24.642,0,0,0,.22,3.286l9.407,0a24.625,24.625,0,0,0,.219-3.282,24.642,24.642,0,0,0-.22-3.286l-9.407,0A24.625,24.625,0,0,0,10,15.281Z" transform="translate(-1.616 -1.907)" fill="#fff"/>
    <path id="Path_55668" data-name="Path 55668" d="M10.614,22c.866,4.02,2.712,6.564,4.419,6.564S18.586,26.02,19.452,22Z" transform="translate(-1.726 -3.703)" fill="#fff"/>
    <path id="Path_55669" data-name="Path 55669" d="M22.689,8.451h5.169a12.354,12.354,0,0,0-8.573-7.077C20.841,2.743,22.062,5.275,22.689,8.451Z" transform="translate(-3.283)" fill="#fff"/>
    <path id="Path_55670" data-name="Path 55670" d="M29.25,12h-5.5a26.527,26.527,0,0,1,.2,3.282,26.537,26.537,0,0,1-.2,3.284l5.5,0a12.225,12.225,0,0,0,0-6.564Z" transform="translate(-4.085 -1.908)" fill="#fff"/>
    <path id="Path_55671" data-name="Path 55671" d="M19.285,29.077A12.354,12.354,0,0,0,27.86,22H22.691C22.062,25.176,20.841,27.708,19.285,29.077Z" transform="translate(-3.283 -3.703)" fill="#fff"/>
    <path id="Path_55672" data-name="Path 55672" d="M7.435,22H2.266a12.354,12.354,0,0,0,8.575,7.077C9.283,27.708,8.062,25.176,7.435,22Z" transform="translate(-0.227 -3.703)" fill="#fff"/>
    <path id="Path_55673" data-name="Path 55673" d="M10.839,1.374A12.354,12.354,0,0,0,2.264,8.451H7.433c.628-3.176,1.849-5.708,3.406-7.077Z" transform="translate(-0.227 0)" fill="#fff"/>
    <path id="Path_55674" data-name="Path 55674" d="M6.743,15.281A26.538,26.538,0,0,1,6.947,12l-5.5,0a12.225,12.225,0,0,0,0,6.564h5.5a26.528,26.528,0,0,1-.2-3.282Z" transform="translate(0 -1.907)" fill="#fff"/>
  </g>
</svg>
