<svg xmlns="http://www.w3.org/2000/svg" width="62" height="62" viewBox="0 0 62 62">
  <g id="instant_customer_support" transform="translate(-1 -1)">
    <g id="Group_38685" data-name="Group 38685">
      <path id="Path_53018" data-name="Path 53018" d="M31.076,25.058,29.529,23.9a4.51,4.51,0,0,0-2.691-.9h-.4A4.451,4.451,0,0,0,24,23.723,4.453,4.453,0,0,0,21.557,23h-.4a4.516,4.516,0,0,0-2.691.9l-1.547,1.16a4.81,4.81,0,0,0-1.89,4.419,4.54,4.54,0,0,0,1.539,2.8l.738.66A1.994,1.994,0,0,1,19,32h1.277A1.991,1.991,0,0,1,22,31a9.468,9.468,0,0,0,4.236,1H29a1.993,1.993,0,0,1,1.688.937l.737-.659a4.532,4.532,0,0,0,1.539-2.8A4.588,4.588,0,0,0,33,28.9a4.829,4.829,0,0,0-1.924-3.847Z" fill="#32cd32"/>
    </g>
    <g id="Group_38686" data-name="Group 38686">
      <path id="Path_53019" data-name="Path 53019" d="M63,22V4a3,3,0,0,0-3-3H38a3,3,0,0,0-3,3H27.226L26.3,7.589a27.656,27.656,0,0,0-9.648,4L13.457,9.7,6.7,16.455l1.883,3.193a27.656,27.656,0,0,0-4,9.649L1,30.226v9.549l3.59.928a27.651,27.651,0,0,0,4,9.648L6.7,53.544,8.159,55h2.828L9.213,53.226l1.74-2.952-.362-.526A25.707,25.707,0,0,1,6.434,39.712l-.115-.628L3,38.226V31.775l3.318-.857.115-.628A25.707,25.707,0,0,1,10.59,20.254l.362-.526-1.74-2.953,4.562-4.561,2.952,1.739.526-.362A25.7,25.7,0,0,1,27.287,9.435l.629-.115L28.774,6H35v7.228A22.29,22.29,0,0,0,32,13,22.025,22.025,0,0,0,10,35a21.784,21.784,0,0,0,2.09,9.354,4.9,4.9,0,0,0-.09.918V55h2V45.272a3.008,3.008,0,0,1,2.405-2.94l1.853-.376.994,6.854L24,45.25l4.748,3.561.994-6.852,1.85.373A3.129,3.129,0,0,1,32,42.45V50a3,3,0,0,0,2,2.816V55h2V53h3.367l-.25,2h2.015l.75-6h2.234l.75,6h2.015l-.25-2H51a3,3,0,0,0,2.673-1.665l1.115,1.891L53.013,55h2.828L57.3,53.544l-1.883-3.193a27.651,27.651,0,0,0,4-9.648L63,39.774V30.225L59.41,29.3A27.98,27.98,0,0,0,58.153,25H60a3,3,0,0,0,3-3ZM27,35a3,3,0,0,1-6,0V33a1,1,0,0,1,.81-.982A10.525,10.525,0,0,0,26.236,33H27Zm-3,5a4.922,4.922,0,0,0,1.541-.268,4.053,4.053,0,0,0,.268.4L24,42.4l-1.807-2.259a3.9,3.9,0,0,0,.267-.407A4.916,4.916,0,0,0,24,40Zm-3.782,1.54a4.134,4.134,0,0,0,.412-.152l1.945,2.431-1.826,1.37Zm5.208,2.279,1.952-2.441a4.176,4.176,0,0,0,.405.154l-.531,3.656ZM32,40v.374l-.011,0-3.538-.71a2,2,0,0,1-1.171-.918A5.008,5.008,0,0,0,28.576,37H29a3,3,0,0,0,0-6H26.236a8.5,8.5,0,0,1-3.789-.9l-.211-.1H22a2.985,2.985,0,0,0-2.22,1H19a3,3,0,1,0,0,6h.424a5.005,5.005,0,0,0,1.3,1.744,1.921,1.921,0,0,1-1.094.9l-3.617.729a4.976,4.976,0,0,0-2.753,1.611A19.823,19.823,0,0,1,12,35,19.88,19.88,0,0,1,35,15.246V22a3,3,0,0,0,3,3h3v4h3.414l4-4h.9A19.947,19.947,0,0,1,52,35a20.22,20.22,0,0,1-.125,2.145A2.987,2.987,0,0,0,51,37H35a3,3,0,0,0-3,3Zm-3-7a1,1,0,0,1,0,2ZM19,35a1,1,0,0,1,0-2ZM46,10a3,3,0,1,1,3,3A3,3,0,0,1,46,10Zm1.586,13-4,4H43V23H41a8,8,0,0,1,16,0ZM52,50a1,1,0,0,1-1,1H46.383l-.5-4H40.117l-.5,4H35a1,1,0,0,1-1-1V40a1,1,0,0,1,1-1H51a1,1,0,0,1,1,1Zm5.566-19.711.114.628,3.32.857v6.451l-3.318.857-.115.628A25.716,25.716,0,0,1,54,48.841V40a2.971,2.971,0,0,0-.32-1.322A22.4,22.4,0,0,0,54,35a21.968,21.968,0,0,0-2.407-10h4.4a25.806,25.806,0,0,1,1.578,5.289Zm-5.135-16.67a5,5,0,1,0-6.861,0A10.008,10.008,0,0,0,39,23H38a1,1,0,0,1-1-1V4a1,1,0,0,1,1-1H60a1,1,0,0,1,1,1V22a1,1,0,0,1-1,1H59a10.007,10.007,0,0,0-6.569-9.381Z"/>
      <path id="Path_53020" data-name="Path 53020" d="M23,47h2v2H23Z"/>
      <path id="Path_53021" data-name="Path 53021" d="M23,51h2v2H23Z"/>
    </g>
    <g id="Group_38688" data-name="Group 38688">
      <g id="Group_38687" data-name="Group 38687">
        <path id="Path_53022" data-name="Path 53022" d="M63,63H1V60a5.006,5.006,0,0,1,5-5H58a5.006,5.006,0,0,1,5,5Z" fill="#32cd32"/>
      </g>
    </g>
  </g>
</svg>
