<svg xmlns="http://www.w3.org/2000/svg" width="62" height="62" viewBox="0 0 62 62">
  <g id="product_cat" transform="translate(-1 -1)">
    <g id="Group_37909" data-name="Group 37909">
      <path id="Path_50164" data-name="Path 50164" d="M23,14h4v4H23Z" fill="#32cd32"/>
    </g>
    <g id="Group_37910" data-name="Group 37910">
      <path id="Path_50165" data-name="Path 50165" d="M33,14h4v4H33Z" fill="#32cd32"/>
    </g>
    <g id="Group_37911" data-name="Group 37911">
      <path id="Path_50166" data-name="Path 50166" d="M43,14h4v4H43Z" fill="#32cd32"/>
    </g>
    <g id="Group_37912" data-name="Group 37912">
      <path id="Path_50167" data-name="Path 50167" d="M53,14h4v4H53Z" fill="#32cd32"/>
    </g>
    <g id="Group_37913" data-name="Group 37913">
      <path id="Path_50168" data-name="Path 50168" d="M26,17.132l-1.555,1.036A10.878,10.878,0,0,1,18.4,20H12.57A6.577,6.577,0,0,0,6,26.569,7.572,7.572,0,0,0,7.822,31.5L12.54,37h.21L13,36h6l.25,1h.285l3.594-5.392A5.186,5.186,0,0,0,23.9,27.7,7.748,7.748,0,0,0,26,22.4Z" fill="#32cd32"/>
    </g>
    <g id="Group_37914" data-name="Group 37914">
      <path id="Path_50169" data-name="Path 50169" d="M13,14h4v4H13Z" fill="#32cd32"/>
    </g>
    <g id="Group_37915" data-name="Group 37915">
      <path id="Path_50170" data-name="Path 50170" d="M7,1V7H63V1ZM61,5H9V3H61Z"/>
      <path id="Path_50171" data-name="Path 50171" d="M53,13h4v2H53Z"/>
      <path id="Path_50172" data-name="Path 50172" d="M53,17h4v2H53Z"/>
      <path id="Path_50173" data-name="Path 50173" d="M43,13h4v2H43Z"/>
      <path id="Path_50174" data-name="Path 50174" d="M43,17h4v2H43Z"/>
      <path id="Path_50175" data-name="Path 50175" d="M33,13h4v2H33Z"/>
      <path id="Path_50176" data-name="Path 50176" d="M33,17h4v2H33Z"/>
      <path id="Path_50177" data-name="Path 50177" d="M23,13h4v2H23Z"/>
      <path id="Path_50178" data-name="Path 50178" d="M23,17h4v2H23Z"/>
      <path id="Path_50179" data-name="Path 50179" d="M13,13h4v2H13Z"/>
      <path id="Path_50180" data-name="Path 50180" d="M13,17h4v2H13Z"/>
      <path id="Path_50181" data-name="Path 50181" d="M61,9H9V21.062a6.535,6.535,0,0,1,2-.865V11h8v8.978a10.9,10.9,0,0,0,2-.3V11h8V21H26v1.4c0,.2-.013.4-.029.6h5.213A2.966,2.966,0,0,0,31,24v1H25.539a7.763,7.763,0,0,1-1.067,2h4.971a3.891,3.891,0,0,0,.7,4.559l.845.845A7.009,7.009,0,0,1,24,39H20.781l-1-4H12.219l-1.01,4.04A11.006,11.006,0,0,0,1,50v3a5.006,5.006,0,0,0,5,5H7v5H25V47H63V41H61V29H45a3.983,3.983,0,0,0-2.618,7,3.92,3.92,0,0,0-.826,5H35.982A14.869,14.869,0,0,0,39,32V27H63V21H61ZM41,21V11h8V21ZM51,11h8V21H51ZM31,21V11h8V21H31Zm1.053,6.091L33,26.619V24a1,1,0,0,1,1-1h2a1,1,0,0,1,1,1v7H32.414l-.856-.855a1.908,1.908,0,0,1,.5-3.054ZM16,43.4,14.08,41h3.839ZM13.781,37h4.438l.5,2H13.281ZM7,46v4H5v2H7v4H6a3,3,0,0,1-3-3V50a9.011,9.011,0,0,1,8.529-8.988L15,45.35V61H9V46ZM23,61H17V45.351L20.48,41H24a9.01,9.01,0,0,0,8.941-8h4.01A12.954,12.954,0,0,1,25,44.951V43H23ZM61,45H31.466a15.015,15.015,0,0,0,2.708-2H61ZM43,33a2,2,0,0,1,2-2H59v4H45A2,2,0,0,1,43,33Zm0,6a2,2,0,0,1,2-2H59v4H45A2,2,0,0,1,43,39ZM61,25H39V24a2.966,2.966,0,0,0-.184-1H61Z"/>
    </g>
  </g>
</svg>
