<svg xmlns="http://www.w3.org/2000/svg" width="62" height="62" viewBox="0 0 62 62">
  <g id="reports" transform="translate(0.001)">
    <g id="Group_38671" data-name="Group 38671" transform="translate(3.999 4)">
      <path id="Path_52986" data-name="Path 52986" d="M176,232h24v8H176Zm0,0" transform="translate(-158 -207)" fill="#32cd32"/>
      <path id="Path_52987" data-name="Path 52987" d="M176,376h11v8H176Zm0,0" transform="translate(-158 -333)" fill="#32cd32"/>
      <path id="Path_52988" data-name="Path 52988" d="M39,366a7,7,0,1,1,7-7A7.009,7.009,0,0,1,39,366Zm0,0" transform="translate(-32 -312)" fill="#32cd32"/>
      <path id="Path_52989" data-name="Path 52989" d="M39,222a7,7,0,1,1,7-7A7.009,7.009,0,0,1,39,222Zm0,0" transform="translate(-32 -186)" fill="#32cd32"/>
      <path id="Path_52990" data-name="Path 52990" d="M139,32H117a5.006,5.006,0,0,0-5,5v8a5.006,5.006,0,0,0,5,5h22a5.006,5.006,0,0,0,5-5V37A5.006,5.006,0,0,0,139,32ZM121,43h-4V39h4Zm9,0h-4V39h4Zm9,0h-4V39h4Zm0,0" transform="translate(-102 -32)" fill="#32cd32"/>
    </g>
    <path id="Path_52991" data-name="Path 52991" d="M62,34.494a4.535,4.535,0,0,0-7.742-3.207L50,35.545V0H10.585L0,10.586V62H50V48.373L60.671,37.7A4.506,4.506,0,0,0,62,34.494ZM37.5,51.869l2.6,2.6-3.642,1.063ZM42,53.543l-1.085-1.085L55.191,38.18l1.086,1.086Zm-2.5-2.5-1.086-1.086L52.692,35.68l1.086,1.086ZM10,3.414V10H3.414ZM48,60H2V12H12V2H48V37.545L36.108,49.435l-2.565,9.032,8.982-2.62L48,50.373ZM59.257,36.287l-1.565,1.565-3.586-3.586L55.671,32.7a2.536,2.536,0,0,1,3.586,3.586Zm0,0"/>
    <path id="Path_52992" data-name="Path 52992" d="M62.953,340.98l-2.284-1.522-1.11,1.664,3.716,2.478,10.579-11.637-1.48-1.346Zm0,0" transform="translate(-52.114 -289.29)"/>
    <path id="Path_52993" data-name="Path 52993" d="M62.953,196.98l-2.284-1.522-1.11,1.664,3.716,2.478,10.579-11.637-1.48-1.346Zm0,0" transform="translate(-52.114 -163.29)"/>
    <path id="Path_52994" data-name="Path 52994" d="M352,256h2v2h-2Zm0,0" transform="translate(-308.001 -224)"/>
    <path id="Path_52995" data-name="Path 52995" d="M176,256h20v2H176Zm0,0" transform="translate(-154.001 -224)"/>
    <path id="Path_52996" data-name="Path 52996" d="M176,224h24v2H176Zm0,0" transform="translate(-154.001 -196)"/>
    <path id="Path_52997" data-name="Path 52997" d="M176,288h24v2H176Zm0,0" transform="translate(-154.001 -252)"/>
    <path id="Path_52998" data-name="Path 52998" d="M176,400h11v2H176Zm0,0" transform="translate(-154.001 -350)"/>
    <path id="Path_52999" data-name="Path 52999" d="M176,432h11v2H176Zm0,0" transform="translate(-154.001 -378)"/>
    <path id="Path_53000" data-name="Path 53000" d="M176,368h11v2H176Zm0,0" transform="translate(-154.001 -322)"/>
    <path id="Path_53001" data-name="Path 53001" d="M294,80h-6v6h6Zm-2,4h-2V82h2Zm0,0" transform="translate(-252.001 -70)"/>
    <path id="Path_53002" data-name="Path 53002" d="M222,80h-6v6h6Zm-2,4h-2V82h2Zm0,0" transform="translate(-189.001 -70)"/>
    <path id="Path_53003" data-name="Path 53003" d="M150,80h-6v6h6Zm-2,4h-2V82h2Zm0,0" transform="translate(-126.001 -70)"/>
  </g>
</svg>
