<svg xmlns="http://www.w3.org/2000/svg" width="62" height="62" viewBox="0 0 62 62">
  <g id="responsive_design" transform="translate(-1 -1)">
    <g id="Group_37922" data-name="Group 37922">
      <path id="Path_50256" data-name="Path 50256" d="M49,29H39a2,2,0,0,0-2,2v2a2,2,0,0,0,2,2H49a2,2,0,0,0,2-2V31A2,2,0,0,0,49,29Z" fill="#32cd32"/>
      <path id="Path_50257" data-name="Path 50257" d="M49,41H39a2,2,0,0,0-2,2v2a2,2,0,0,0,2,2H49a2,2,0,0,0,2-2V43A2,2,0,0,0,49,41Z" fill="#32cd32"/>
      <path id="Path_50258" data-name="Path 50258" d="M42,53h8v2H42Z" fill="#32cd32"/>
    </g>
    <path id="Path_50259" data-name="Path 50259" d="M63,18A13.007,13.007,0,0,0,50.9,5.046,5.006,5.006,0,0,0,46,1H6A5.006,5.006,0,0,0,1,6V34a5.006,5.006,0,0,0,5,5H21v2H15.236a2.985,2.985,0,0,0-2.683,1.658L11,45.764V51H29v7a5.006,5.006,0,0,0,5,5H54a5.006,5.006,0,0,0,5-5V27.358A13.007,13.007,0,0,0,63,18Zm-6.318,3.8a23.731,23.731,0,0,0,.272-2.8h3.993a11.012,11.012,0,0,1-2.167,5.613,4.991,4.991,0,0,0-2.1-2.818ZM53.792,11H46.208C47.194,8.5,48.641,7,50,7S52.806,8.5,53.792,11Zm7.157,6H56.973a23.035,23.035,0,0,0-.495-4h3.307A10.881,10.881,0,0,1,60.949,17Zm-5.974,0H45.026a20.419,20.419,0,0,1,.556-4H54.42A20.574,20.574,0,0,1,54.975,17Zm-10.9-6H41.521A11.054,11.054,0,0,1,45.5,7.974,13.642,13.642,0,0,0,44.077,11Zm-3.863,2h3.307a23.132,23.132,0,0,0-.495,4H39.05A10.919,10.919,0,0,1,40.214,13Zm-.792,8a10.918,10.918,0,0,1-.374-2h3.995c.027.678.08,1.343.162,2Zm5.8,0q-.134-.981-.177-2h9.912q-.046,1.061-.188,2.078A4.838,4.838,0,0,0,54,21Zm13.26-10H55.923A13.553,13.553,0,0,0,54.5,7.974,11.062,11.062,0,0,1,58.479,11ZM3,34V31H17v1a3,3,0,0,0,3,3h9v2H6A3,3,0,0,1,3,34Zm26-3v2H25V31Zm-6,2H20a1,1,0,0,1-1-1V31h4Zm6,6v6H23V39ZM15.236,43H21v2H13.618l.724-1.447A.994.994,0,0,1,15.236,43ZM13,49V47H29v2ZM29.1,25H15V20H13v7H29v2H3V6A3,3,0,0,1,6,3H46a2.993,2.993,0,0,1,2.834,2.059A12.969,12.969,0,0,0,37.357,21H35V11H24v2h9v8.1A5.016,5.016,0,0,0,29.1,25ZM57,58a3,3,0,0,1-3,3H34a3,3,0,0,1-3-3V26a3,3,0,0,1,3-3H54a3,3,0,0,1,3,3Z"/>
    <path id="Path_50260" data-name="Path 50260" d="M53,25H35a2,2,0,0,0-2,2V57a2,2,0,0,0,2,2H53a2,2,0,0,0,2-2V27A2,2,0,0,0,53,25ZM35,27H53V37H35V27ZM53,39V49H35V39ZM35,57V51H53v6Z"/>
    <path id="Path_50261" data-name="Path 50261" d="M49,53h2v2H49Z"/>
    <path id="Path_50262" data-name="Path 50262" d="M41,53h2v2H41Z"/>
    <path id="Path_50263" data-name="Path 50263" d="M45,53h2v2H45Z"/>
    <path id="Path_50264" data-name="Path 50264" d="M35,5h2V7H35Z"/>
    <path id="Path_50265" data-name="Path 50265" d="M31,5h2V7H31Z"/>
    <path id="Path_50266" data-name="Path 50266" d="M39,5h2V7H39Z"/>
    <path id="Path_50267" data-name="Path 50267" d="M27,5h2V7H27Z"/>
    <path id="Path_50268" data-name="Path 50268" d="M25,21H5V5H25Z" fill="#32cd32"/>
  </g>
</svg>
