<svg xmlns="http://www.w3.org/2000/svg" width="62" height="62" viewBox="0 0 62 62">
  <g id="seller_dashboard" transform="translate(-1 -1)">
    <g id="Group_38668" data-name="Group 38668">
      <g id="Group_38667" data-name="Group 38667">
        <path id="Path_52971" data-name="Path 52971" d="M47,57A10,10,0,1,1,57,47,10.011,10.011,0,0,1,47,57Zm0-15a5,5,0,1,0,5,5A5.006,5.006,0,0,0,47,42Z" fill="#32cd32"/>
      </g>
    </g>
    <g id="Group_38669" data-name="Group 38669">
      <path id="Path_52972" data-name="Path 52972" d="M5,12H23V26H5Z" fill="#32cd32"/>
    </g>
    <g id="Group_38670" data-name="Group 38670">
      <path id="Path_52973" data-name="Path 52973" d="M47,41a6,6,0,1,0,6,6A6.006,6.006,0,0,0,47,41Zm0,10a4,4,0,1,1,4-4A4,4,0,0,1,47,51Z"/>
      <path id="Path_52974" data-name="Path 52974" d="M57,34.53V14.92A7,7,0,1,0,49,8H1V48H31.051A15.99,15.99,0,1,0,57,34.53ZM56,3a5,5,0,1,1-5,5A5.006,5.006,0,0,1,56,3ZM31.051,46H3V10H49.295A7,7,0,0,0,50.4,12.185L44.286,18.3a2.9,2.9,0,0,0-2.571,0L39.7,16.286A2.972,2.972,0,0,0,40,15a3,3,0,1,0-6,0,2.951,2.951,0,0,0,.3,1.285L29.286,21.3A2.972,2.972,0,0,0,28,21a3,3,0,1,0,3,3,2.951,2.951,0,0,0-.3-1.285L35.714,17.7a2.9,2.9,0,0,0,2.571,0L40.3,19.714A2.972,2.972,0,0,0,40,21a3,3,0,1,0,6,0,2.951,2.951,0,0,0-.3-1.285L51.816,13.6A6.957,6.957,0,0,0,55,14.921V33.166a15.9,15.9,0,0,0-20,3.287V32H29V44h2.292A15.856,15.856,0,0,0,31.051,46ZM44,21a1,1,0,1,1-1-1A1,1,0,0,1,44,21Zm-6-6a1,1,0,1,1-1-1A1,1,0,0,1,38,15Zm-9,9a1,1,0,1,1-1-1A1,1,0,0,1,29,24Zm2,18V34h2v5.271A15.879,15.879,0,0,0,31.811,42ZM59.578,53.107l-3.469-2a10.014,10.014,0,0,1-1,1.73l3.483,2.011a13.986,13.986,0,0,1-23.176,0l3.483-2.011a9.987,9.987,0,0,1-1-1.73l-3.469,2A13.952,13.952,0,0,1,46,33.051v4a9.83,9.83,0,0,1,2,0v-4A13.952,13.952,0,0,1,59.578,53.107Z"/>
      <path id="Path_52975" data-name="Path 52975" d="M5,12H7v2H5Z"/>
      <path id="Path_52976" data-name="Path 52976" d="M9,12H23v2H9Z"/>
      <path id="Path_52977" data-name="Path 52977" d="M5,16H7v2H5Z"/>
      <path id="Path_52978" data-name="Path 52978" d="M9,16H23v2H9Z"/>
      <path id="Path_52979" data-name="Path 52979" d="M5,20H7v2H5Z"/>
      <path id="Path_52980" data-name="Path 52980" d="M9,20H23v2H9Z"/>
      <path id="Path_52981" data-name="Path 52981" d="M5,24H7v2H5Z"/>
      <path id="Path_52982" data-name="Path 52982" d="M9,24H23v2H9Z"/>
      <path id="Path_52983" data-name="Path 52983" d="M5,44h6V34H5Zm2-8H9v6H7Z"/>
      <path id="Path_52984" data-name="Path 52984" d="M13,44h6V36H13Zm2-6h2v4H15Z"/>
      <path id="Path_52985" data-name="Path 52985" d="M21,44h6V28H21Zm2-14h2V42H23Z"/>
    </g>
  </g>
</svg>
