<svg xmlns="http://www.w3.org/2000/svg" width="429.128" height="183.501" viewBox="0 0 429.128 183.501">
  <g id="paper_image_right" transform="translate(28.295 28.461)">
    <path id="Path_39716" data-name="Path 39716" d="M354.64,95.21a97.828,97.828,0,0,1-35.992,55.117c-43.551,33.65-115.78,27.211-150.259-16.908-9.341-11.953-14.313-28.334-9.209-42.621,5.885-16.475,25.127-26.473,42.283-23.044s30.756,19.038,33.134,36.371-5.865,35.373-19.71,46.07c-19.778,15.281-47.312,15.349-71.947,11.127-26.749-4.584-54.211-13.006-78.7-25.981C41.446,123.26,8.724,103.752,3.149,76.219" transform="translate(45.708 -17.169)" fill="none" stroke="#000" stroke-miterlimit="10" stroke-width="1" stroke-dasharray="3 5"/>
    <g id="Group_35979" data-name="Group 35979" transform="translate(0 0)">
      <path id="Path_39717" data-name="Path 39717" d="M357.718,74.189,360.6,85.37l-8.28-7.959Z" transform="translate(-309.417 -17.169)" fill="#27292c"/>
      <path id="Path_39718" data-name="Path 39718" d="M369.881,70.468l-20.6-19.541-2.6,6.778,14.344,17.222,3,10.623Z" transform="translate(-313.068 -17.169)" fill="#938c78"/>
      <path id="Path_39719" data-name="Path 39719" d="M400.718,57.714l2.6-6.778L367.1,17.177Z" transform="translate(-366.919 -17.169)" fill="#b2b2b2" opacity="0.6" style="mix-blend-mode: multiply;isolation: isolate"/>
      <path id="Path_39720" data-name="Path 39720" d="M385.4,74.927,367.465,53.4,355.537,92.1Z" transform="translate(-337.439 -17.169)" fill="#938c78"/>
      <path id="Path_39721" data-name="Path 39721" d="M373.291,17.269l18.1,74.934L403.318,53.5Z" transform="translate(-373.112 -17.169)" fill="#b2b2b2" opacity="0.6" style="mix-blend-mode: multiply;isolation: isolate"/>
      <path id="Path_39722" data-name="Path 39722" d="M367.285,61.663,343.24,70.468l-20.6-19.541Z" transform="translate(-286.426 -17.169)" fill="#938c78"/>
      <path id="Path_39723" data-name="Path 39723" d="M322.464,17.361,358.675,51.12l44.647,10.736Z" transform="translate(-322.289 -17.169)" fill="#b2b2b2" opacity="0.6" style="mix-blend-mode: multiply;isolation: isolate"/>
      <path id="Path_39724" data-name="Path 39724" d="M373.471,17.169l18.1,74.933L403.5,53.4Z" transform="translate(-373.471 -17.169)" fill="#ded4b7"/>
      <path id="Path_39725" data-name="Path 39725" d="M400.9,57.705l2.6-6.778L367.285,17.169Z" transform="translate(-367.285 -17.169)" fill="#938c78"/>
      <path id="Path_39726" data-name="Path 39726" d="M322.638,17.169l36.212,33.759L403.5,61.663Z" transform="translate(-322.638 -17.169)" fill="#ded4b7"/>
      <g id="Group_35977" data-name="Group 35977" transform="translate(0 0)" opacity="0.7" style="mix-blend-mode: soft-light;isolation: isolate">
        <path id="Path_39727" data-name="Path 39727" d="M346.684,17.169l2.471,2.258,2.83,2.6c1.093,1,2.326,2.135,3.664,3.378s2.791,2.585,4.326,4.006l4.822,4.477,5.146,4.8,5.3,4.965,5.294,4.976,5.119,4.829c1.661,1.565,3.258,3.086,4.775,4.528l4.273,4.062c1.326,1.256,2.534,2.414,3.6,3.441l2.773,2.658,2.411,2.323-2.472-2.258-2.829-2.6c-1.093-1-2.327-2.134-3.665-3.377l-4.325-4.006c-1.535-1.421-3.156-2.919-4.824-4.477s-3.393-3.165-5.144-4.8-3.527-3.3-5.3-4.966l-5.294-4.976-5.118-4.829-4.775-4.527-4.274-4.062c-1.326-1.256-2.534-2.414-3.6-3.442s-2.005-1.921-2.774-2.657Z" transform="translate(-346.684 -17.169)" fill="#fff"/>
      </g>
      <g id="Group_35978" data-name="Group 35978" transform="translate(0 0)" opacity="0.7" style="mix-blend-mode: soft-light;isolation: isolate">
        <path id="Path_39728" data-name="Path 39728" d="M355.537,17.169l2.094,2.453,2.4,2.823c.926,1.089,1.971,2.318,3.1,3.666s2.36,2.8,3.659,4.347,2.669,3.168,4.078,4.857l4.348,5.2,4.478,5.381,4.468,5.392,4.317,5.23c1.4,1.695,2.747,3.341,4.024,4.9l3.6,4.4c1.117,1.36,2.134,2.612,3.034,3.723s1.687,2.078,2.334,2.875c1.29,1.6,2.026,2.51,2.026,2.51l-2.1-2.453-2.4-2.823c-.926-1.089-1.971-2.318-3.1-3.666l-3.659-4.347c-1.3-1.542-2.67-3.168-4.079-4.857s-2.866-3.433-4.347-5.2l-4.479-5.382L374.873,40.8l-4.316-5.23c-1.4-1.695-2.747-3.342-4.025-4.9s-2.485-3.034-3.6-4.395-2.134-2.612-3.035-3.722l-2.334-2.875Z" transform="translate(-355.537 -17.169)" fill="#fff"/>
      </g>
      <path id="Path_39729" data-name="Path 39729" d="M322.638,17.169l.324.178-.141-.17.241.225L403.5,61.663l-24.046,8.805L373.6,85.55l-7.742-7.893L340.736,92.1Z" transform="translate(-322.638 -17.169)" fill="none"/>
    </g>
  </g>
</svg>
