<svg xmlns="http://www.w3.org/2000/svg" width="530.53" height="353.467" viewBox="0 0 530.53 353.467">
  <g id="zero_two" transform="translate(-1141.315 -4106.803)">
    <g id="Group_38860" data-name="Group 38860" transform="translate(817.576 3805.913)">
      <path id="Path_53075" data-name="Path 53075" d="M880.1,903.018s8.261-23.107,28.014-20.539c0,0,28.679-38.512,59.26-5.135,0,0,32.509-8.27,56.584,7.161,16.051,10.288,21.353,21.08,21.353,21.08Z" transform="translate(-522.972 -394.694)" fill="#938c78" opacity="0.2"/>
      <path id="Path_53077" data-name="Path 53077" d="M1308.421,692.743s13.286-24.514,45.057-21.79c0,0,46.126-40.858,95.313-5.448,0,0,52.287-8.774,91.008,7.6,25.817,10.915,34.344,22.365,34.344,22.365Z" transform="translate(-735.588 -289.128)" fill="#938c78"/>
      <g id="Group_38848" data-name="Group 38848" transform="translate(324.739 301.89)">
        <path id="Rectangle_4651" data-name="Rectangle 4651" d="M59.626,0H468.9A59.625,59.625,0,0,1,528.53,59.625V291.841A59.625,59.625,0,0,1,468.9,351.467H59.625A59.625,59.625,0,0,1,0,291.842V59.626A59.626,59.626,0,0,1,59.626,0Z" transform="translate(0)" fill="none" stroke="#263238" stroke-width="2"/>
        <g id="Group_38810" data-name="Group 38810" transform="translate(41.381 32.379)">
          <path id="Path_53361" data-name="Path 53361" d="M1050.051,684.1a76.013,76.013,0,1,1-62.064-74.755c-9.493,34.592-22.09,80.4-22.935,83.261,1.567-2.468,47.815-23.2,79.4-37.173A75.59,75.59,0,0,1,1050.051,684.1Z" transform="translate(-897.958 -602.046)" fill="#938c78"/>
          <path id="Path_53362" data-name="Path 53362" d="M1122.759,641.216c-27.891,12.29-74.09,32.884-75.569,35.215.8-2.716,13.581-49.17,22.141-80.305A83.539,83.539,0,0,1,1122.759,641.216Z" transform="translate(-972.036 -596.126)" fill="#fff"/>
        </g>
        <g id="Group_38811" data-name="Group 38811" transform="translate(376.749 14.083)">
          <path id="Path_53363" data-name="Path 53363" d="M1563.887,571.313a6.319,6.319,0,1,1,6.319,6.319A6.319,6.319,0,0,1,1563.887,571.313Z" transform="translate(-1563.887 -562.376)" fill="#938c78"/>
          <path id="Path_53364" data-name="Path 53364" d="M1629.016,571.313a6.319,6.319,0,1,1,6.32,6.319A6.319,6.319,0,0,1,1629.016,571.313Z" transform="translate(-1596.216 -562.376)" fill="#938c78"/>
          <circle id="Ellipse_1206" data-name="Ellipse 1206" cx="6.319" cy="6.319" r="6.319" transform="translate(64.035 8.937) rotate(-45)" fill="#fff"/>
        </g>
        <g id="Group_38814" data-name="Group 38814" transform="translate(33.556 278.467)">
          <g id="Group_38812" data-name="Group 38812">
            <path id="Path_53365" data-name="Path 53365" d="M1029.566,1131.6H882.42v-46.823h147.146Zm-145.341-1.806h143.536v-43.212H884.225Z" transform="translate(-882.42 -1084.776)" fill="#938c78"/>
          </g>
          <g id="Group_38813" data-name="Group 38813" transform="translate(10.662 12.583)">
            <rect id="Rectangle_4652" data-name="Rectangle 4652" width="56.919" height="3.71" fill="#938c78"/>
            <rect id="Rectangle_4653" data-name="Rectangle 4653" width="40.387" height="3.71" transform="translate(62.911)" fill="#938c78"/>
            <rect id="Rectangle_4654" data-name="Rectangle 4654" width="31.412" height="3.71" transform="translate(0 10.599)" fill="#938c78"/>
            <rect id="Rectangle_4655" data-name="Rectangle 4655" width="40.387" height="3.71" transform="translate(36.725 10.599)" fill="#938c78"/>
            <rect id="Rectangle_4656" data-name="Rectangle 4656" width="40.387" height="3.71" transform="translate(81.295 10.599)" fill="#938c78"/>
          </g>
        </g>
        <g id="Group_38817" data-name="Group 38817" transform="translate(292.575 278.467)">
          <g id="Group_38815" data-name="Group 38815">
            <path id="Path_53366" data-name="Path 53366" d="M1469.6,1107.957h-72.85v-23.181h72.85Zm-71.955-.894H1468.7V1085.67H1397.64Z" transform="translate(-1396.746 -1084.776)" fill="#938c78"/>
          </g>
          <g id="Group_38816" data-name="Group 38816" transform="translate(5.278 6.229)">
            <rect id="Rectangle_4657" data-name="Rectangle 4657" width="28.179" height="1.837" fill="#938c78"/>
            <rect id="Rectangle_4658" data-name="Rectangle 4658" width="19.995" height="1.837" transform="translate(31.146)" fill="#938c78"/>
            <rect id="Rectangle_4659" data-name="Rectangle 4659" width="15.552" height="1.836" transform="translate(0 5.248)" fill="#938c78"/>
            <rect id="Rectangle_4660" data-name="Rectangle 4660" width="19.995" height="1.836" transform="translate(18.182 5.248)" fill="#938c78"/>
            <rect id="Rectangle_4661" data-name="Rectangle 4661" width="19.995" height="1.836" transform="translate(40.247 5.248)" fill="#938c78"/>
          </g>
        </g>
        <g id="Group_38820" data-name="Group 38820" transform="translate(379.442 278.467)">
          <g id="Group_38818" data-name="Group 38818">
            <path id="Path_53367" data-name="Path 53367" d="M1642.086,1107.957h-72.85v-23.181h72.85Zm-71.956-.894h71.062V1085.67H1570.13Z" transform="translate(-1569.236 -1084.776)" fill="#938c78"/>
          </g>
          <g id="Group_38819" data-name="Group 38819" transform="translate(5.279 6.229)">
            <rect id="Rectangle_4662" data-name="Rectangle 4662" width="28.179" height="1.837" fill="#938c78"/>
            <rect id="Rectangle_4663" data-name="Rectangle 4663" width="19.995" height="1.837" transform="translate(31.146)" fill="#938c78"/>
            <rect id="Rectangle_4664" data-name="Rectangle 4664" width="15.551" height="1.836" transform="translate(0 5.248)" fill="#938c78"/>
            <rect id="Rectangle_4665" data-name="Rectangle 4665" width="19.995" height="1.836" transform="translate(18.182 5.248)" fill="#938c78"/>
            <rect id="Rectangle_4666" data-name="Rectangle 4666" width="19.995" height="1.836" transform="translate(40.247 5.248)" fill="#938c78"/>
          </g>
        </g>
        <g id="Group_38823" data-name="Group 38823" transform="translate(292.575 175.363)">
          <g id="Group_38821" data-name="Group 38821">
            <path id="Path_53368" data-name="Path 53368" d="M1469.6,903.226h-72.85V880.045h72.85Zm-71.955-.894H1468.7V880.939H1397.64Z" transform="translate(-1396.746 -880.045)" fill="#938c78"/>
          </g>
          <g id="Group_38822" data-name="Group 38822" transform="translate(5.278 6.229)">
            <rect id="Rectangle_4667" data-name="Rectangle 4667" width="28.179" height="1.837" fill="#938c78"/>
            <rect id="Rectangle_4668" data-name="Rectangle 4668" width="19.995" height="1.837" transform="translate(31.146)" fill="#938c78"/>
            <rect id="Rectangle_4669" data-name="Rectangle 4669" width="15.552" height="1.837" transform="translate(0 5.247)" fill="#938c78"/>
            <rect id="Rectangle_4670" data-name="Rectangle 4670" width="19.995" height="1.837" transform="translate(18.182 5.247)" fill="#938c78"/>
            <rect id="Rectangle_4671" data-name="Rectangle 4671" width="19.995" height="1.837" transform="translate(40.247 5.247)" fill="#938c78"/>
          </g>
        </g>
        <g id="Group_38826" data-name="Group 38826" transform="translate(379.442 175.363)">
          <g id="Group_38824" data-name="Group 38824">
            <path id="Path_53369" data-name="Path 53369" d="M1642.086,903.226h-72.85V880.045h72.85Zm-71.956-.894h71.062V880.939H1570.13Z" transform="translate(-1569.236 -880.045)" fill="#938c78"/>
          </g>
          <g id="Group_38825" data-name="Group 38825" transform="translate(5.279 6.229)">
            <rect id="Rectangle_4672" data-name="Rectangle 4672" width="28.179" height="1.837" fill="#938c78"/>
            <rect id="Rectangle_4673" data-name="Rectangle 4673" width="19.995" height="1.837" transform="translate(31.146)" fill="#938c78"/>
            <rect id="Rectangle_4674" data-name="Rectangle 4674" width="15.551" height="1.837" transform="translate(0 5.247)" fill="#938c78"/>
            <rect id="Rectangle_4675" data-name="Rectangle 4675" width="19.995" height="1.837" transform="translate(18.182 5.247)" fill="#938c78"/>
            <rect id="Rectangle_4676" data-name="Rectangle 4676" width="19.995" height="1.837" transform="translate(40.247 5.247)" fill="#938c78"/>
          </g>
        </g>
        <g id="Group_38829" data-name="Group 38829" transform="translate(292.575 85.614)">
          <g id="Group_38827" data-name="Group 38827">
            <path id="Path_53370" data-name="Path 53370" d="M1469.6,725.013h-72.85V701.832h72.85Zm-71.955-.893H1468.7V702.725H1397.64Z" transform="translate(-1396.746 -701.832)" fill="#fff"/>
          </g>
          <g id="Group_38828" data-name="Group 38828" transform="translate(5.278 6.229)">
            <rect id="Rectangle_4677" data-name="Rectangle 4677" width="28.179" height="1.837" fill="#fff"/>
            <rect id="Rectangle_4678" data-name="Rectangle 4678" width="19.995" height="1.837" transform="translate(31.146)" fill="#fff"/>
            <rect id="Rectangle_4679" data-name="Rectangle 4679" width="15.552" height="1.837" transform="translate(0 5.247)" fill="#fff"/>
            <rect id="Rectangle_4680" data-name="Rectangle 4680" width="19.995" height="1.837" transform="translate(18.182 5.247)" fill="#fff"/>
            <rect id="Rectangle_4681" data-name="Rectangle 4681" width="19.995" height="1.837" transform="translate(40.247 5.247)" fill="#fff"/>
          </g>
        </g>
        <g id="Group_38832" data-name="Group 38832" transform="translate(379.442 85.614)">
          <g id="Group_38830" data-name="Group 38830">
            <path id="Path_53371" data-name="Path 53371" d="M1642.086,725.013h-72.85V701.832h72.85Zm-71.956-.893h71.062V702.725H1570.13Z" transform="translate(-1569.236 -701.832)" fill="#fff"/>
          </g>
          <g id="Group_38831" data-name="Group 38831" transform="translate(5.279 6.229)">
            <rect id="Rectangle_4682" data-name="Rectangle 4682" width="28.179" height="1.837" fill="#fff"/>
            <rect id="Rectangle_4683" data-name="Rectangle 4683" width="19.995" height="1.837" transform="translate(31.146)" fill="#fff"/>
            <rect id="Rectangle_4684" data-name="Rectangle 4684" width="15.551" height="1.837" transform="translate(0 5.247)" fill="#fff"/>
            <rect id="Rectangle_4685" data-name="Rectangle 4685" width="19.995" height="1.837" transform="translate(18.182 5.247)" fill="#fff"/>
            <rect id="Rectangle_4686" data-name="Rectangle 4686" width="19.995" height="1.837" transform="translate(40.247 5.247)" fill="#fff"/>
          </g>
        </g>
        <g id="Group_38840" data-name="Group 38840" transform="translate(222.297 41.057)">
          <g id="Group_38837" data-name="Group 38837">
            <path id="Path_53372" data-name="Path 53372" d="M1301.451,664.953a8.241,8.241,0,1,1,8.241,8.241A8.241,8.241,0,0,1,1301.451,664.953Z" transform="translate(-1279.165 -634.877)" fill="#fff"/>
            <g id="Group_38836" data-name="Group 38836">
              <rect id="Rectangle_4687" data-name="Rectangle 4687" width="3.445" height="18.023" rx="1.722" transform="translate(28.988)" fill="#fff"/>
              <rect id="Rectangle_4688" data-name="Rectangle 4688" width="3.445" height="18.023" rx="1.722" transform="translate(28.988 42.661)" fill="#fff"/>
              <g id="Group_38833" data-name="Group 38833" transform="translate(5.711 11.592)">
                <path id="Path_53373" data-name="Path 53373" d="M1337.221,687.5l.472-.648a1.325,1.325,0,0,1,1.846-.288l12.425,9.065a1.325,1.325,0,0,1,.289,1.846l-.473.648a1.325,1.325,0,0,1-1.846.289l-12.425-9.066A1.325,1.325,0,0,1,1337.221,687.5Z" transform="translate(-1302.506 -661.161)" fill="#fff"/>
                <path id="Path_53374" data-name="Path 53374" d="M1268.79,637.564l.473-.648a1.325,1.325,0,0,1,1.846-.289l12.424,9.065a1.325,1.325,0,0,1,.288,1.846l-.472.648a1.325,1.325,0,0,1-1.846.288l-12.424-9.065A1.325,1.325,0,0,1,1268.79,637.564Z" transform="translate(-1268.538 -636.375)" fill="#fff"/>
              </g>
              <g id="Group_38834" data-name="Group 38834" transform="translate(7.303 9.384)">
                <path id="Path_53375" data-name="Path 53375" d="M1285.472,688.88l.534.6a1.325,1.325,0,0,1-.1,1.866l-11.467,10.249a1.326,1.326,0,0,1-1.866-.1l-.534-.6a1.325,1.325,0,0,1,.1-1.865l11.468-10.25A1.325,1.325,0,0,1,1285.472,688.88Z" transform="translate(-1271.7 -660.012)" fill="#fff"/>
                <path id="Path_53376" data-name="Path 53376" d="M1348.632,632.429l.534.6a1.325,1.325,0,0,1-.1,1.866l-11.467,10.249a1.326,1.326,0,0,1-1.866-.1l-.534-.6a1.325,1.325,0,0,1,.1-1.866l11.468-10.25A1.325,1.325,0,0,1,1348.632,632.429Z" transform="translate(-1303.052 -631.99)" fill="#fff"/>
              </g>
              <g id="Group_38835" data-name="Group 38835" transform="translate(0 28.025)">
                <path id="Path_53377" data-name="Path 53377" d="M1275.229,670.516l-.009.8a1.325,1.325,0,0,1-1.336,1.307l-15.38-.173a1.325,1.325,0,0,1-1.307-1.336l.009-.8a1.326,1.326,0,0,1,1.337-1.307l15.379.174A1.325,1.325,0,0,1,1275.229,670.516Z" transform="translate(-1257.198 -669.006)" fill="#fff"/>
                <path id="Rectangle_4689" data-name="Rectangle 4689" d="M1.722,0h0A1.722,1.722,0,0,1,3.445,1.722V16.3a1.722,1.722,0,0,1-1.722,1.722h0A1.722,1.722,0,0,1,0,16.3V1.722A1.722,1.722,0,0,1,1.722,0Z" transform="matrix(0.011, -1, 1, 0.011, 42.643, 3.911)" fill="#fff"/>
              </g>
            </g>
          </g>
          <g id="Group_38839" data-name="Group 38839" transform="translate(70.278 22.042)">
            <g id="Group_38838" data-name="Group 38838">
              <path id="Path_53378" data-name="Path 53378" d="M1560.99,670.444H1396.746V657.125H1560.99ZM1398.3,668.886h161.127v-10.2H1398.3Z" transform="translate(-1396.746 -657.125)" fill="#fff"/>
            </g>
            <rect id="Rectangle_4690" data-name="Rectangle 4690" width="127.489" height="11.761" transform="translate(0.779 0.78)" fill="#fff"/>
          </g>
        </g>
        <g id="Group_38843" data-name="Group 38843" transform="translate(241.614 132.409)">
          <path id="Path_53379" data-name="Path 53379" d="M1295.554,825.808c0-10.763,16.506-31.055,16.506-31.055s16.506,20.292,16.506,31.055-7.39,19.487-16.506,19.487S1295.554,836.57,1295.554,825.808Z" transform="translate(-1295.554 -794.753)" fill="#938c78"/>
          <g id="Group_38842" data-name="Group 38842" transform="translate(50.961 18.611)">
            <g id="Group_38841" data-name="Group 38841">
              <path id="Path_53380" data-name="Path 53380" d="M1560.99,845.027H1396.746V831.708H1560.99ZM1398.3,843.469h161.127v-10.2H1398.3Z" transform="translate(-1396.746 -831.708)" fill="#fff"/>
            </g>
            <rect id="Rectangle_4691" data-name="Rectangle 4691" width="77.91" height="11.761" transform="translate(0.779 0.78)" fill="#fff"/>
          </g>
        </g>
        <g id="Group_38846" data-name="Group 38846" transform="translate(250.699 226.51)">
          <path id="Path_53381" data-name="Path 53381" d="M1328.056,1024.692V981.6h-9.3v43.087a9.812,9.812,0,1,0,9.3,0Z" transform="translate(-1313.595 -981.605)" fill="#938c78"/>
          <g id="Group_38845" data-name="Group 38845" transform="translate(41.876 24.11)">
            <g id="Group_38844" data-name="Group 38844">
              <path id="Path_53382" data-name="Path 53382" d="M1560.99,1042.8H1396.746v-13.319H1560.99ZM1398.3,1041.24h161.127v-10.2H1398.3Z" transform="translate(-1396.746 -1029.479)" fill="#938c78"/>
            </g>
            <rect id="Rectangle_4692" data-name="Rectangle 4692" width="106.895" height="11.761" transform="translate(0.779 0.779)" fill="#938c78"/>
          </g>
          <path id="Path_53383" data-name="Path 53383" d="M1320.44,1077.961a6.364,6.364,0,1,1,6.364,6.365A6.364,6.364,0,0,1,1320.44,1077.961Z" transform="translate(-1316.993 -1026.276)" fill="#fff"/>
          <rect id="Rectangle_4693" data-name="Rectangle 4693" width="3.794" height="19.936" transform="translate(7.774 28.891)" fill="#fff"/>
        </g>
        <g id="Group_38847" data-name="Group 38847" transform="translate(34.459 196.17)">
          <rect id="Rectangle_4694" data-name="Rectangle 4694" width="15.347" height="21.337" transform="translate(0 46.667)" fill="#938c78"/>
          <rect id="Rectangle_4695" data-name="Rectangle 4695" width="15.346" height="35.48" transform="translate(26.288 32.525)" fill="#938c78"/>
          <rect id="Rectangle_4696" data-name="Rectangle 4696" width="15.346" height="47.068" transform="translate(52.576 20.936)" fill="#fff"/>
          <rect id="Rectangle_4697" data-name="Rectangle 4697" width="15.347" height="37.664" transform="translate(78.865 30.34)" fill="#938c78"/>
          <rect id="Rectangle_4698" data-name="Rectangle 4698" width="15.347" height="57.709" transform="translate(105.153 10.296)" fill="#938c78"/>
          <rect id="Rectangle_4699" data-name="Rectangle 4699" width="15.347" height="68.004" transform="translate(131.441)" fill="#fff"/>
        </g>
        <rect id="Rectangle_4700" data-name="Rectangle 4700" width="32.38" height="2.971" transform="translate(80.943 148.049)" fill="#fff"/>
        <rect id="Rectangle_4701" data-name="Rectangle 4701" width="49.622" height="2.971" transform="translate(80.943 154.853)" fill="#fff"/>
        <rect id="Rectangle_4702" data-name="Rectangle 4702" width="32.38" height="2.971" transform="translate(138.418 58.212)" fill="#938c78"/>
        <rect id="Rectangle_4703" data-name="Rectangle 4703" width="20.271" height="2.971" transform="translate(138.418 65.015)" fill="#938c78"/>
      </g>
    </g>
  </g>
</svg>
