<svg xmlns="http://www.w3.org/2000/svg" width="404.432" height="352.1" viewBox="0 0 404.432 352.1">
  <g id="zero_one" transform="translate(-9.43 -38)">
    <g id="freepik--background-simple--inject-298" transform="translate(95.314 206.624)">
      <path id="Path_52368" data-name="Path 52368" d="M129.154,252.549a10.144,10.144,0,0,0,7.526-3.344l-2.249-2.51a6.833,6.833,0,0,1-10.872-.485l-2.358,2.425a10.178,10.178,0,0,0,7.954,3.914Z" transform="translate(-113.606 -240.698)" fill="#938c78"/>
      <path id="Path_52369" data-name="Path 52369" d="M129.88,246.434a4.9,4.9,0,0,0,3.931-1.982l-2.409-2.668a1.539,1.539,0,0,1-3.061-.243,1.832,1.832,0,0,1,0-.3l-2.7,2.768a4.884,4.884,0,0,0,4.24,2.425Z" transform="translate(-114.333 -239.885)" fill="#938c78"/>
      <path id="Path_52370" data-name="Path 52370" d="M130.451,239.62l-.151.159a1.3,1.3,0,0,1,.259,0Z" transform="translate(-115.095 -239.62)" fill="#938c78"/>
      <path id="Path_52371" data-name="Path 52371" d="M140.188,256.294a17.563,17.563,0,0,1-25.718-.744l-2.35,2.409a20.951,20.951,0,0,0,30.318.836Z" transform="translate(-112.12 -242.227)" fill="#938c78"/>
      <path id="Path_52372" data-name="Path 52372" d="M128.37,259.035a15.822,15.822,0,0,0,11.33-4.781l-2.247-2.512a12.487,12.487,0,0,1-18.709-.6l-2.333,2.392A15.815,15.815,0,0,0,128.37,259.035Z" transform="translate(-112.822 -241.505)" fill="#938c78"/>
    </g>
    <g id="freepik--Floor--inject-298" transform="translate(9.43 389.6)">
      <line id="Line_393" data-name="Line 393" x2="404.432" fill="none" stroke="#263238" stroke-linejoin="round" stroke-width="1"/>
    </g>
    <g id="freepik--Plant--inject-298" transform="translate(137.5 230.811)">
      <path id="Path_52373" data-name="Path 52373" d="M211.14,321.22s.284,35.3.284,44.627-.284,49.838-.284,49.838" transform="translate(-170.51 -277.161)" fill="none" stroke="#263238" stroke-linecap="round" stroke-linejoin="round" stroke-width="3"/>
      <path id="Path_52374" data-name="Path 52374" d="M225.72,321.64l-8.757-7.343,24.572,2.827-21.745-7.067L242.1,306.1H216.963l19.487-14.686-22.029,11.015,12.712-21.745-16.944,19.487,5.93-28.528L205.1,298.2l-1.129-29.657-2.258,30.217-12.018-26.7,8.347,29.239-17.981-19.6,15.723,24.129L173.532,289.95l20.842,20.106L170.78,297.168l21.611,14.586L172.846,309.2l18.985,5.378-15.2,2.534,15.765-.56-9.317,6.214,22.029-5.93Z" transform="translate(-163.905 -268.54)" fill="#938c78"/>
      <path id="Path_52375" data-name="Path 52375" d="M200.908,363.77s-.836,7.343-.276,10.17a52,52,0,0,1,.836,9.886c0,3.672.284,3.956.284,6.5s-.284,24.137-.284,26.111v6.774" transform="translate(-168.759 -284.125)" fill="none" stroke="#263238" stroke-linecap="round" stroke-linejoin="round" stroke-width="3"/>
      <path id="Path_52376" data-name="Path 52376" d="M202,387.111a66.459,66.459,0,0,1,2.258-9.041c1.129-2.827,1.974-1.974,2.258-5.361s.284-4.8.836-5.938a22.582,22.582,0,0,0,1.129-3.1l.569-2.258" transform="translate(-169.014 -283.739)" fill="none" stroke="#263238" stroke-linecap="round" stroke-linejoin="round" stroke-width="3"/>
      <path id="Path_52377" data-name="Path 52377" d="M215.618,362.16l-8.757-7.343,24.572,2.827-21.745-7.059L232,346.629H206.861l19.5-14.686-22.029,11.015,12.7-21.745L200.087,340.7l5.93-28.528L195,338.717l-1.129-29.657-2.258,30.226-8.757-27.4,5.085,29.941-15.531-22.314,13.273,26.83L165.3,333.03l18.968,17.555-21.026-8.606,19.044,10.3-19.729-1.706,19.169,4.533-13.323,3.036,13.883-1.062-9.317,6.214L195,357.359Z" transform="translate(-162.56 -275.171)" fill="#938c78"/>
      <path id="Path_52378" data-name="Path 52378" d="M190.392,425.062,184.345,435.1a6.691,6.691,0,0,0-.719,5.152l2.685,10.036a3.345,3.345,0,0,0,3.228,2.467h27.533a3.345,3.345,0,0,0,3.22-2.467l2.693-10.036a6.691,6.691,0,0,0-.728-5.152l-6.038-10.036a2.292,2.292,0,0,0-1.965-1.112h-21.9a2.275,2.275,0,0,0-1.957,1.112Z" transform="translate(-165.971 -293.973)" fill="#fff" stroke="#263238" stroke-linejoin="round" stroke-width="1"/>
    </g>
    <g id="freepik--Refrigerator--inject-298" transform="translate(26.073 114.986)">
      <path id="Path_52379" data-name="Path 52379" d="M30.25,130.39H141.283a.92.92,0,0,1,.92.92V403.189a1.53,1.53,0,0,1-1.53,1.53H30.861a1.531,1.531,0,0,1-1.531-1.531V131.31A.92.92,0,0,1,30.25,130.39Z" transform="translate(-29.33 -130.106)" fill="none" stroke="#263238" stroke-linejoin="round" stroke-width="1"/>
      <line id="Line_394" data-name="Line 394" y2="135.781" transform="translate(56.437 138.549)" fill="none" stroke="#263238" stroke-linejoin="round" stroke-width="1"/>
      <line id="Line_395" data-name="Line 395" y2="133.707" transform="translate(56.437)" fill="none" stroke="#263238" stroke-linejoin="round" stroke-width="1"/>
      <path id="Path_52380" data-name="Path 52380" d="M37.825,294.72H137.961a2.275,2.275,0,0,0,2.275-2.275h0a2.275,2.275,0,0,0-2.275-2.275H37.825a2.275,2.275,0,0,0-2.275,2.275h0A2.275,2.275,0,0,0,37.825,294.72Z" transform="translate(-30.348 -156.254)" fill="none" stroke="#263238" stroke-linejoin="round" stroke-width="1"/>
      <rect id="Rectangle_4472" data-name="Rectangle 4472" width="32.158" height="62.408" transform="translate(68.89 26.654)" fill="none" stroke="#263238" stroke-linejoin="round" stroke-width="1"/>
      <rect id="Rectangle_4473" data-name="Rectangle 4473" width="27.114" height="34.106" transform="translate(71.416 31.547)" fill="none" stroke="#263238" stroke-linejoin="round" stroke-width="1"/>
      <rect id="Rectangle_4474" data-name="Rectangle 4474" width="3.856" height="3.981" transform="translate(71.625 69.425)" fill="none" stroke="#263238" stroke-linejoin="round" stroke-width="1"/>
      <rect id="Rectangle_4475" data-name="Rectangle 4475" width="3.856" height="3.981" transform="translate(77.421 69.425)" fill="none" stroke="#263238" stroke-linejoin="round" stroke-width="1"/>
      <rect id="Rectangle_4476" data-name="Rectangle 4476" width="3.856" height="3.981" transform="translate(83.208 69.425)" fill="none" stroke="#263238" stroke-linejoin="round" stroke-width="1"/>
      <rect id="Rectangle_4477" data-name="Rectangle 4477" width="3.856" height="3.981" transform="translate(88.996 69.425)" fill="none" stroke="#263238" stroke-linejoin="round" stroke-width="1"/>
      <rect id="Rectangle_4478" data-name="Rectangle 4478" width="3.856" height="3.981" transform="translate(94.783 69.425)" fill="none" stroke="#263238" stroke-linejoin="round" stroke-width="1"/>
      <rect id="Rectangle_4479" data-name="Rectangle 4479" width="3.856" height="3.981" transform="translate(71.625 75.823)" fill="none" stroke="#263238" stroke-linejoin="round" stroke-width="1"/>
      <rect id="Rectangle_4480" data-name="Rectangle 4480" width="3.856" height="3.981" transform="translate(77.421 75.823)" fill="none" stroke="#263238" stroke-linejoin="round" stroke-width="1"/>
      <rect id="Rectangle_4481" data-name="Rectangle 4481" width="3.856" height="3.981" transform="translate(83.208 75.823)" fill="none" stroke="#263238" stroke-linejoin="round" stroke-width="1"/>
      <rect id="Rectangle_4482" data-name="Rectangle 4482" width="3.856" height="3.981" transform="translate(88.996 75.823)" fill="none" stroke="#263238" stroke-linejoin="round" stroke-width="1"/>
      <rect id="Rectangle_4483" data-name="Rectangle 4483" width="3.856" height="3.981" transform="translate(94.783 75.823)" fill="none" stroke="#263238" stroke-linejoin="round" stroke-width="1"/>
      <rect id="Rectangle_4484" data-name="Rectangle 4484" width="28.678" height="41.316" transform="translate(12.194 73.565)" fill="none" stroke="#263238" stroke-linejoin="round" stroke-width="1"/>
      <rect id="Rectangle_4485" data-name="Rectangle 4485" width="18.274" height="41.316" transform="translate(17.396 73.565)" fill="none" stroke="#263238" stroke-linejoin="round" stroke-width="1"/>
      <rect id="Rectangle_4486" data-name="Rectangle 4486" width="18.274" height="12.788" transform="translate(17.396 73.565)" fill="none" stroke="#263238" stroke-linejoin="round" stroke-width="1"/>
    </g>
    <g id="freepik--air-conditioner--inject-298" transform="translate(158.233 48.036)">
      <path id="Path_52381" data-name="Path 52381" d="M347.97,91.817H191.448a77.136,77.136,0,0,1-4.023-24.17l-.075-13.758A3.9,3.9,0,0,1,191.239,50H348.171a3.889,3.889,0,0,1,3.889,3.914l-.092,13.959a76.827,76.827,0,0,1-3.73,23.142Z" transform="translate(-187.35 -50)" fill="none" stroke="#263238" stroke-linejoin="round" stroke-width="1"/>
      <rect id="Rectangle_4487" data-name="Rectangle 4487" width="136.299" height="6.39" transform="translate(14.21 35.461)" fill="none" stroke="#263238" stroke-linejoin="round" stroke-width="1"/>
      <path id="Path_52382" data-name="Path 52382" d="M332.112,114.851a10.12,10.12,0,0,0,7.527-3.345L337.389,109a6.833,6.833,0,0,1-10.872-.477l-2.367,2.417A10.17,10.17,0,0,0,332.112,114.851Z" transform="translate(-209.738 -59.577)" fill="#938c78"/>
      <path id="Path_52383" data-name="Path 52383" d="M332.837,108.742a4.884,4.884,0,0,0,3.922-1.99l-2.409-2.66a1.539,1.539,0,0,1-3.061-.243,1.256,1.256,0,0,1,0-.309l-2.71,2.768A4.893,4.893,0,0,0,332.837,108.742Z" transform="translate(-210.463 -58.762)" fill="#938c78"/>
      <path id="Path_52384" data-name="Path 52384" d="M333.4,101.93l-.151.159a1.4,1.4,0,0,1,.259-.042Z" transform="translate(-211.227 -58.499)" fill="#228b22"/>
      <path id="Path_52385" data-name="Path 52385" d="M343.146,118.594a17.563,17.563,0,0,1-25.726-.744l-2.35,2.409a20.909,20.909,0,0,0,30.318.836Z" transform="translate(-208.252 -61.104)" fill="#938c78"/>
      <path id="Path_52386" data-name="Path 52386" d="M331.328,121.338a15.8,15.8,0,0,0,11.324-4.776l-2.25-2.509a12.487,12.487,0,0,1-18.7-.594l-2.342,2.392a15.832,15.832,0,0,0,11.968,5.486Z" transform="translate(-208.954 -60.385)" fill="#938c78"/>
    </g>
    <g id="freepik--music-box--inject-298" transform="translate(247.546 307.502)">
      <rect id="Rectangle_4488" data-name="Rectangle 4488" width="83.952" height="10.421" transform="translate(36.523 24.181)" fill="none" stroke="#263238" stroke-linejoin="round" stroke-width="1"/>
      <rect id="Rectangle_4489" data-name="Rectangle 4489" width="156.991" height="47.513" transform="translate(0 34.585)" fill="none" stroke="#263238" stroke-linejoin="round" stroke-width="1"/>
      <rect id="Rectangle_4490" data-name="Rectangle 4490" width="148.627" height="41.441" transform="translate(4.182 37.621)" fill="none" stroke="#263238" stroke-linejoin="round" stroke-width="1"/>
      <line id="Line_396" data-name="Line 396" y2="41.608" transform="translate(53.811 37.429)" fill="none" stroke="#263238" stroke-linejoin="round" stroke-width="1"/>
      <line id="Line_397" data-name="Line 397" y2="41.608" transform="translate(102.503 37.429)" fill="none" stroke="#263238" stroke-linejoin="round" stroke-width="1"/>
      <rect id="Rectangle_4491" data-name="Rectangle 4491" width="21.201" height="29.682" transform="translate(11.257 4.92)" fill="none" stroke="#263238" stroke-linejoin="round" stroke-width="1"/>
      <rect id="Rectangle_4492" data-name="Rectangle 4492" width="21.201" height="29.682" transform="translate(124.147 4.92)" fill="none" stroke="#263238" stroke-linejoin="round" stroke-width="1"/>
      <path id="Path_52387" data-name="Path 52387" d="M388.427,373.15a10.144,10.144,0,0,0-7.526,3.344L383.15,379a6.825,6.825,0,0,1,10.872.485l2.367-2.425A10.178,10.178,0,0,0,388.427,373.15Z" transform="translate(-308.339 -362.351)" fill="#938c78"/>
      <path id="Path_52388" data-name="Path 52388" d="M389.131,379.49a4.9,4.9,0,0,0-3.931,1.982l2.409,2.66a1.539,1.539,0,0,1,3.061.243,1.254,1.254,0,0,1,0,.309l2.71-2.768a4.893,4.893,0,0,0-4.249-2.425Z" transform="translate(-309.042 -363.388)" fill="#938c78"/>
      <path id="Path_52389" data-name="Path 52389" d="M390.109,387.281l.151-.151a1.3,1.3,0,0,1-.259,0Z" transform="translate(-309.828 -364.638)" fill="#228b22"/>
      <path id="Path_52390" data-name="Path 52390" d="M374.49,368.82a17.563,17.563,0,0,1,25.718.744l2.35-2.409a20.951,20.951,0,0,0-30.318-.836Z" transform="translate(-306.921 -360.237)" fill="#938c78"/>
      <path id="Path_52391" data-name="Path 52391" d="M387.683,366.36a15.821,15.821,0,0,0-11.33,4.781l2.247,2.512a12.478,12.478,0,0,1,18.7.6l2.342-2.392a15.832,15.832,0,0,0-11.96-5.5Z" transform="translate(-307.594 -361.239)" fill="#938c78"/>
    </g>
    <g id="freepik--Lamps--inject-298" transform="translate(59.519 38)">
      <path id="Path_52392" data-name="Path 52392" d="M474.542,70.941a4.851,4.851,0,1,1-4.851-4.851,4.851,4.851,0,0,1,4.851,4.851Z" transform="translate(-134.048 -42.597)" fill="none" stroke="#263238" stroke-linejoin="round" stroke-width="1"/>
      <path id="Path_52393" data-name="Path 52393" d="M480.287,108.744H456.2V89.733A12.043,12.043,0,0,1,468.243,77.69h0a12.043,12.043,0,0,1,12.043,12.043Z" transform="translate(-132.634 -44.495)" fill="none" stroke="#263238" stroke-linejoin="round" stroke-width="1"/>
      <line id="Line_398" data-name="Line 398" y1="23.493" transform="translate(335.642)" fill="none" stroke="#263238" stroke-linejoin="round" stroke-width="2"/>
      <path id="Path_52394" data-name="Path 52394" d="M87.622,70.941a4.851,4.851,0,1,1-4.851-4.851A4.851,4.851,0,0,1,87.622,70.941Z" transform="translate(-70.727 -42.597)" fill="none" stroke="#263238" stroke-linejoin="round" stroke-width="1"/>
      <path id="Path_52395" data-name="Path 52395" d="M93.407,108.744H69.32V89.733A12.043,12.043,0,0,1,81.363,77.69h0A12.043,12.043,0,0,1,93.407,89.733Z" transform="translate(-69.32 -44.495)" fill="none" stroke="#263238" stroke-linejoin="round" stroke-width="1"/>
      <line id="Line_399" data-name="Line 399" y1="23.493" transform="translate(12.043)" fill="none" stroke="#263238" stroke-linejoin="round" stroke-width="2"/>
      <path id="Path_52396" data-name="Path 52396" d="M116.591,108.857a10.144,10.144,0,0,0-3.344-7.526l-2.51,2.249a6.825,6.825,0,0,1-.477,10.872l2.417,2.358A10.162,10.162,0,0,0,116.591,108.857Z" transform="translate(-76.02 -48.364)" fill="#938c78"/>
      <path id="Path_52397" data-name="Path 52397" d="M110.472,109.561a4.9,4.9,0,0,0-1.991-3.931l-2.66,2.409a1.547,1.547,0,0,1-.243,3.069,1.951,1.951,0,0,1-.309,0l2.777,2.7A4.884,4.884,0,0,0,110.472,109.561Z" transform="translate(-75.203 -49.068)" fill="#938c78"/>
      <path id="Path_52398" data-name="Path 52398" d="M103.66,110.539l.159.151a.887.887,0,0,1,0-.259Z" transform="translate(-74.94 -49.853)" fill="#228b22"/>
      <path id="Path_52399" data-name="Path 52399" d="M120.333,94.92a17.563,17.563,0,0,1-.753,25.718L121.989,123a20.959,20.959,0,0,0,.836-30.326Z" transform="translate(-77.545 -46.947)" fill="#938c78"/>
      <path id="Path_52400" data-name="Path 52400" d="M123.075,108.113a15.822,15.822,0,0,0-4.781-11.33l-2.512,2.247a12.487,12.487,0,0,1-.6,18.709l2.392,2.333a15.815,15.815,0,0,0,5.5-11.96Z" transform="translate(-76.825 -47.62)" fill="#938c78"/>
    </g>
    <g id="freepik--TV--inject-298" transform="translate(258.394 125.179)">
      <rect id="Rectangle_4493" data-name="Rectangle 4493" width="139.871" height="93.788" transform="translate(0 23.679)" fill="none" stroke="#263238" stroke-linejoin="round" stroke-width="1"/>
      <rect id="Rectangle_4494" data-name="Rectangle 4494" width="132.277" height="85.868" transform="translate(3.797 27.635)" fill="none" stroke="#263238" stroke-linejoin="round" stroke-width="1"/>
      <path id="Path_52401" data-name="Path 52401" d="M388.427,155.15a10.144,10.144,0,0,0-7.526,3.344L383.15,161a6.825,6.825,0,0,1,10.872.485l2.367-2.425A10.178,10.178,0,0,0,388.427,155.15Z" transform="translate(-319.186 -144.351)" fill="#938c78"/>
      <path id="Path_52402" data-name="Path 52402" d="M389.131,161.49a4.9,4.9,0,0,0-3.931,1.982l2.409,2.66a1.539,1.539,0,0,1,3.061.243,1.254,1.254,0,0,1,0,.309l2.71-2.768A4.893,4.893,0,0,0,389.131,161.49Z" transform="translate(-319.89 -145.388)" fill="#938c78"/>
      <path id="Path_52403" data-name="Path 52403" d="M390.109,169.281l.151-.151H390Z" transform="translate(-320.675 -146.638)" fill="#228b22"/>
      <path id="Path_52404" data-name="Path 52404" d="M374.49,150.82a17.563,17.563,0,0,1,25.718.744l2.35-2.409a20.951,20.951,0,0,0-30.318-.836Z" transform="translate(-317.769 -142.237)" fill="#938c78"/>
      <path id="Path_52405" data-name="Path 52405" d="M387.683,148.36a15.822,15.822,0,0,0-11.33,4.781l2.247,2.512a12.478,12.478,0,0,1,18.7.6l2.342-2.392A15.832,15.832,0,0,0,387.683,148.36Z" transform="translate(-318.442 -143.239)" fill="#938c78"/>
    </g>
    <g id="freepik--Character--inject-298" transform="translate(132.552 119.466)">
      <path id="Path_52406" data-name="Path 52406" d="M229.711,146.98l-.226,59.422L194.25,160.546" transform="translate(-162.798 -137.301)" fill="none" stroke="#263238" stroke-miterlimit="10" stroke-width="1" stroke-dasharray="2"/>
      <path id="Path_52407" data-name="Path 52407" d="M174.358,228.451l50.181-13.524L174.09,195.8" transform="translate(-159.499 -145.29)" fill="none" stroke="#263238" stroke-miterlimit="10" stroke-width="1" stroke-dasharray="2"/>
      <line id="Line_400" data-name="Line 400" x1="29.364" y2="38.221" transform="translate(35.667 69.637)" fill="none" stroke="#263238" stroke-miterlimit="10" stroke-width="1" stroke-dasharray="2"/>
      <path id="Path_52408" data-name="Path 52408" d="M237.836,149.6H237" transform="translate(-169.794 -137.729)" fill="none" stroke="#263238" stroke-miterlimit="10" stroke-width="1"/>
      <path id="Path_52409" data-name="Path 52409" d="M224.654,149.62c-1.179,0-2.375.1-3.571.209a54.3,54.3,0,0,0-25.408,99.048" transform="translate(-159.121 -137.733)" fill="none" stroke="#263238" stroke-miterlimit="10" stroke-width="1" stroke-dasharray="2.008 2.008"/>
      <path id="Path_52410" data-name="Path 52410" d="M201.19,268.85l.7.46" transform="translate(-163.934 -157.245)" fill="none" stroke="#263238" stroke-miterlimit="10" stroke-width="1"/>
      <path id="Path_52411" data-name="Path 52411" d="M184.158,194.578a11.792,11.792,0,1,0-3.456,8.349A11.809,11.809,0,0,0,184.158,194.578Z" transform="translate(-157.281 -143.156)" fill="#938c78"/>
      <path id="Path_52412" data-name="Path 52412" d="M173.8,203.254a3.672,3.672,0,0,1-3.345-2.225,1.041,1.041,0,0,0-.092-.251l-.059-.176c-.4-1.238-.912-2.509-1-2.685a5.2,5.2,0,1,1,9.66-2.559,5.687,5.687,0,0,1-.519,2.266h0c-.134.318-.284.619-.435.928a8.1,8.1,0,0,0-.519,1.146q-.084.251-.151.5a5.578,5.578,0,0,1-.452,1.179,3.529,3.529,0,0,1-3.094,1.873Zm0-11.968a4.081,4.081,0,0,0-4.031,4.073,4.182,4.182,0,0,0,.544,2.041v.059c0,.059.594,1.405,1.054,2.818a.172.172,0,0,0,.042.142,1.232,1.232,0,0,0,.059.142,2.551,2.551,0,0,0,2.35,1.572,2.4,2.4,0,0,0,2.149-1.3,4.182,4.182,0,0,0,.343-.937c.05-.184.109-.368.176-.56a9.423,9.423,0,0,1,.577-1.288c.134-.276.276-.56.4-.836h0a4.742,4.742,0,0,0,.427-1.832,4.073,4.073,0,0,0-4.081-4.09Z" transform="translate(-158.594 -144.347)" fill="#263238"/>
      <path id="Path_52413" data-name="Path 52413" d="M174.729,189.085a.569.569,0,0,1-.569-.56V185.89a.56.56,0,0,1,1.121,0v2.6a.56.56,0,0,1-.552.594Z" transform="translate(-159.51 -143.577)" fill="#263238"/>
      <path id="Path_52414" data-name="Path 52414" d="M166.854,196.828h-2.032a.569.569,0,0,1,0-1.129h2.041a.569.569,0,1,1,0,1.129Z" transform="translate(-157.9 -145.273)" fill="#263238"/>
      <path id="Path_52415" data-name="Path 52415" d="M184.071,196.841H182.03a.56.56,0,0,1,0-1.121h2.041a.56.56,0,0,1,.56.56.569.569,0,0,1-.56.56Z" transform="translate(-160.707 -145.277)" fill="#263238"/>
      <path id="Path_52416" data-name="Path 52416" d="M168.689,190.956a.552.552,0,0,1-.393-.159l-1.622-1.623a.56.56,0,0,1,0-.836.569.569,0,0,1,.795,0l1.614,1.623a.56.56,0,0,1-.4.953Z" transform="translate(-158.254 -144.043)" fill="#263238"/>
      <path id="Path_52417" data-name="Path 52417" d="M180.61,190.974a.577.577,0,0,1-.4-.167.569.569,0,0,1,0-.795l1.622-1.614a.562.562,0,1,1,.795.795L181,190.806a.56.56,0,0,1-.393.167Z" transform="translate(-160.474 -144.052)" fill="#263238"/>
      <path id="Path_52418" data-name="Path 52418" d="M206.018,163.44a11.809,11.809,0,1,0-11.9,11.709A11.809,11.809,0,0,0,206.018,163.44Z" transform="translate(-160.859 -138.045)" fill="#938c78"/>
      <path id="Path_52419" data-name="Path 52419" d="M195.234,171.095a6.691,6.691,0,0,1-2.509-12.8.945.945,0,1,1,.719,1.74,4.776,4.776,0,1,0,3.981.167.945.945,0,0,1,.836-1.673,6.691,6.691,0,0,1-3.078,12.545Z" transform="translate(-161.9 -139.135)" fill="#263238"/>
      <path id="Path_52420" data-name="Path 52420" d="M196.388,162.832a.945.945,0,0,1-.928-.953v-5.7a.945.945,0,0,1,1.89,0l-.05,5.712a.945.945,0,0,1-.912.945Z" transform="translate(-162.996 -138.651)" fill="#263238"/>
      <circle id="Ellipse_1173" data-name="Ellipse 1173" cx="11.809" cy="11.809" r="11.809" transform="matrix(0.894, -0.447, 0.447, 0.894, 19.832, 104.029)" fill="#938c78"/>
      <path id="Path_52421" data-name="Path 52421" d="M201.9,261.2h-3.922v-2.258a3.161,3.161,0,0,0-3.145-3.161h-.176a3.145,3.145,0,0,0-3.161,3.136v2.86a.56.56,0,1,0,1.121,0v-2.86a2.032,2.032,0,0,1,2.032-2.016h.184a2.032,2.032,0,0,1,2.016,2.032v2.258h-1.765a1.28,1.28,0,0,0-1.28,1.28v6.808a1.28,1.28,0,0,0,1.271,1.288H201.9a1.28,1.28,0,0,0,1.28-1.28v-6.808A1.288,1.288,0,0,0,201.9,261.2Zm.125,8.1a.151.151,0,0,1-.159.151h-6.808a.159.159,0,0,1-.159-.151v-6.816a.159.159,0,0,1,.159-.151h6.816a.151.151,0,0,1,.151.151Z" transform="translate(-162.348 -155.106)" fill="#263238"/>
      <path id="Path_52422" data-name="Path 52422" d="M199.666,265.9a.953.953,0,0,0-.376,1.823v1.606h.736v-1.572a.953.953,0,0,0-.368-1.832Z" transform="translate(-163.531 -156.762)" fill="#263238"/>
      <circle id="Ellipse_1174" data-name="Ellipse 1174" cx="11.809" cy="11.809" r="11.809" transform="matrix(0.952, -0.305, 0.305, 0.952, 0, 75.535)" fill="#938c78"/>
      <path id="Path_52423" data-name="Path 52423" d="M174.76,233.415l.092-6.114a2.309,2.309,0,0,0-4.617-.067v.477h-1.388a.661.661,0,0,0-.661.644.644.644,0,0,0,.636.652h1.4v.953h-1.388a.644.644,0,0,0-.661.636.661.661,0,0,0,.636.661h1.4v.962h-1.388a.652.652,0,0,0,0,1.3h1.28a4.081,4.081,0,1,0,4.734-.092Zm-2.342,6.13A2.785,2.785,0,0,1,169.7,236.7a2.727,2.727,0,0,1,1.43-2.375l.318-.184.1-6.908a1.029,1.029,0,0,1,1.037-1,1.012,1.012,0,0,1,1,1.029l-.1,6.866.343.192a2.777,2.777,0,0,1-1.38,5.21Z" transform="translate(-158.53 -150.062)" fill="#263238"/>
      <path id="Path_52424" data-name="Path 52424" d="M180,226.86a2.584,2.584,0,1,0,1.821.783A2.584,2.584,0,0,0,180,226.86Zm-.059,3.881a1.3,1.3,0,1,1,1.3-1.255,1.3,1.3,0,0,1-1.3,1.255Z" transform="translate(-160.037 -150.373)" fill="#263238"/>
      <circle id="Ellipse_1175" data-name="Ellipse 1175" cx="11.809" cy="11.809" r="11.809" transform="translate(52.335 22.741) rotate(-74.33)" fill="#938c78"/>
      <path id="Path_52425" data-name="Path 52425" d="M240.594,152.99v-7.41h0v-.527a1.263,1.263,0,0,0-1.255-1.263h-7.469a1.263,1.263,0,0,0-1.263,1.246v6.632a3.345,3.345,0,0,0-1.623-.427,2.718,2.718,0,1,0,3.061,2.71,2.509,2.509,0,0,0-.209-.97v-4.868h0l7.469.042h0v3.563a3.463,3.463,0,0,0-1.623-.427,2.718,2.718,0,1,0,3.053,2.718A2.367,2.367,0,0,0,240.594,152.99Zm-11.625,2.367a1.505,1.505,0,1,1,1.84-1.447,1.673,1.673,0,0,1-1.84,1.447Zm10.413-8.5h0l-7.527-.059v-1.84l7.527.067Zm-1.673,8.547a1.505,1.505,0,1,1,1.848-1.455,1.673,1.673,0,0,1-1.84,1.455Z" transform="translate(-168.094 -136.779)" fill="#263238"/>
      <path id="Path_52426" data-name="Path 52426" d="M311.733,206.3a11.822,11.822,0,0,1,5.578,5.57c1.564,3.789,14.937,38.129,15.38,40.805s-14.268,26.763-14.268,26.763l-4.24-4.014,4.684-19.621-6.022-14.494-3.345-4.684" transform="translate(-181.659 -147.009)" fill="#938c78" stroke="#263238" stroke-linejoin="round" stroke-width="1"/>
      <path id="Path_52427" data-name="Path 52427" d="M330.072,271.263c-5.612-2.66-9.919-1.271-11.332-.652l-3.63,15.18,4.24,4.014S325.832,279.149,330.072,271.263Z" transform="translate(-182.577 -157.383)" fill="#fff" stroke="#263238" stroke-linejoin="round" stroke-width="1"/>
      <path id="Path_52428" data-name="Path 52428" d="M302.963,288.86s5.854,11.634,5.127,16.083-2.727,98.246-2.727,98.246l-12.863.493-12.119-92.55-3.471.493-5.687,93.044-14.352-2.225-4.458-91.061-.744-20.3Z" transform="translate(-172.195 -160.52)" fill="#263238" stroke="#263238" stroke-linejoin="round" stroke-width="1"/>
      <path id="Path_52429" data-name="Path 52429" d="M256.7,376.234a4.056,4.056,0,0,0,1.723-.711c.644-.552.552-.552,2.016.912s1.1,2.1,2.283,1.188.912-1.28,2.1.092.92,1.832,2.559,1.556,1.924-.736,1.924.636-.276,1.74.452,2.016a4.817,4.817,0,0,1,2.2,1.464c.544.728.836.36,1.1,1.188a3.1,3.1,0,0,0,.836,1.28Z" transform="translate(-173.018 -174.647)" fill="#5e5e5e" stroke="#263238" stroke-linejoin="round" stroke-width="1"/>
      <path id="Path_52430" data-name="Path 52430" d="M256.79,376.79a8.882,8.882,0,0,1,1.372,3.287c.276,1.74-.268,3.111.644,3.931s1.464.46,1.673,1.188-.276,1.464.184,1.74,2.283-.912,2.283-.368-.184.836.544.552.736-1.188,1.188-.276.836,2.1,1.1,1.924a5.938,5.938,0,0,1,2.827-1.1,3.346,3.346,0,0,1,1.74.368c.276.092.728.552,1,.092a14.2,14.2,0,0,1,2.718-1.723Z" transform="translate(-173.033 -174.91)" fill="#5e5e5e" stroke="#263238" stroke-linejoin="round" stroke-width="1"/>
      <path id="Path_52431" data-name="Path 52431" d="M256.7,376.44l17.329,9.9S261.409,387.078,256.7,376.44Z" transform="translate(-173.018 -174.853)" fill="#fff" stroke="#263238" stroke-linejoin="round" stroke-width="1"/>
      <path id="Path_52432" data-name="Path 52432" d="M295.54,357.148a3.973,3.973,0,0,0,.125-1.857c-.209-.836-.251-.736,1.715-1.4s2.367-.042,2.074-1.514-.736-1.388,1.02-1.84,2.041,0,2.509-1.606.192-2.041,1.422-1.43,1.439,1.012,2.007.485a4.9,4.9,0,0,1,2.283-1.321c.9-.159.694-.569,1.556-.452a3.11,3.11,0,0,0,1.514-.167Z" transform="translate(-179.375 -169.879)" fill="#5e5e5e" stroke="#263238" stroke-linejoin="round" stroke-width="1"/>
      <path id="Path_52433" data-name="Path 52433" d="M295.89,357.218a8.965,8.965,0,0,1,3.554.234c1.673.527,2.668,1.631,3.805,1.171s1.062-1.1,1.8-.945,1.188.9,1.673.611.192-2.451.686-2.208.661.527.736-.251-.736-1.179.284-1.179,2.25.192,2.208-.134a6.038,6.038,0,0,1,.276-3.028,3.22,3.22,0,0,1,1.1-1.388c.2-.209.836-.41.527-.836a13.03,13.03,0,0,1-.343-3.195Z" transform="translate(-179.432 -169.883)" fill="#5e5e5e" stroke="#263238" stroke-linejoin="round" stroke-width="1"/>
      <path id="Path_52434" data-name="Path 52434" d="M295.54,357.14,312.108,346S307.165,357.709,295.54,357.14Z" transform="translate(-179.375 -169.871)" fill="#fff" stroke="#263238" stroke-linejoin="round" stroke-width="1"/>
      <path id="Path_52435" data-name="Path 52435" d="M256.222,422.692s-3.713,1.238-3.713,2.727,1.731,13.858,1.731,13.858-8.414,4.7-9.15,5.938-.251,7.176-.251,7.176H270.08s.744-6.189.744-8.414a51.11,51.11,0,0,0-.744-6.431l1.48-12.62S264.385,419.48,256.222,422.692Z" transform="translate(-171.051 -182.256)" fill="#fff" stroke="#263238" stroke-linejoin="round" stroke-width="1"/>
      <path id="Path_52436" data-name="Path 52436" d="M244.841,457.819h25.241s.159-1.33.326-2.969H244.69C244.723,456.422,244.841,457.819,244.841,457.819Z" transform="translate(-171.053 -187.685)" fill="#fff" stroke="#263238" stroke-linejoin="round" stroke-width="1"/>
      <path id="Path_52437" data-name="Path 52437" d="M268.344,421.129a11.132,11.132,0,0,0-7.176-2.969c-4.182,0-5.938,2.509-5.938,2.509l2.509,12.37h6.691Z" transform="translate(-172.778 -181.68)" fill="#fff" stroke="#263238" stroke-linejoin="round" stroke-width="1"/>
      <path id="Path_52438" data-name="Path 52438" d="M265.543,437.007h-8.531a.7.7,0,0,1-.7-.694h0a.711.711,0,0,1,.7-.7h8.531a.7.7,0,0,1,.694.7h0A.694.694,0,0,1,265.543,437.007Z" transform="translate(-172.954 -184.536)" fill="#fff" stroke="#263238" stroke-linejoin="round" stroke-width="1"/>
      <path id="Path_52439" data-name="Path 52439" d="M265.543,439.047h-8.531a.7.7,0,0,1-.7-.694h0a.711.711,0,0,1,.7-.7h8.531a.7.7,0,0,1,.694.7h0a.694.694,0,0,1-.694.694Z" transform="translate(-172.954 -184.87)" fill="#fff" stroke="#263238" stroke-linejoin="round" stroke-width="1"/>
      <path id="Path_52440" data-name="Path 52440" d="M265.543,441.087h-8.531a.7.7,0,0,1-.7-.694h0a.711.711,0,0,1,.7-.7h8.531a.7.7,0,0,1,.694.7h0A.694.694,0,0,1,265.543,441.087Z" transform="translate(-172.954 -185.204)" fill="#fff" stroke="#263238" stroke-linejoin="round" stroke-width="1"/>
      <path id="Path_52441" data-name="Path 52441" d="M265.543,443.127h-8.531a.7.7,0,0,1-.7-.694h0a.711.711,0,0,1,.7-.7h8.531a.7.7,0,0,1,.694.7h0a.694.694,0,0,1-.694.694Z" transform="translate(-172.954 -185.538)" fill="#fff" stroke="#263238" stroke-linejoin="round" stroke-width="1"/>
      <path id="Path_52442" data-name="Path 52442" d="M313.575,422.692s3.705,1.238,3.705,2.727-1.731,13.858-1.731,13.858,8.414,4.7,9.158,5.938.251,7.176.251,7.176H299.709s-.744-6.189-.744-8.414a51.115,51.115,0,0,1,.744-6.431l-1.489-12.62S305.4,419.48,313.575,422.692Z" transform="translate(-179.813 -182.256)" fill="#fff" stroke="#263238" stroke-linejoin="round" stroke-width="1"/>
      <path id="Path_52443" data-name="Path 52443" d="M325.184,457.819H299.935s-.159-1.33-.335-2.969h25.726C325.293,456.422,325.184,457.819,325.184,457.819Z" transform="translate(-180.039 -187.685)" fill="#fff" stroke="#263238" stroke-linejoin="round" stroke-width="1"/>
      <path id="Path_52444" data-name="Path 52444" d="M304.15,421.129a11.132,11.132,0,0,1,7.176-2.969c4.182,0,5.938,2.509,5.938,2.509l-2.509,12.37h-6.691Z" transform="translate(-180.784 -181.68)" fill="#fff" stroke="#263238" stroke-linejoin="round" stroke-width="1"/>
      <path id="Path_52445" data-name="Path 52445" d="M315.983,437.007h-8.531a.7.7,0,0,1-.7-.694h0a.711.711,0,0,1,.7-.7h8.531a.7.7,0,0,1,.694.7h0A.694.694,0,0,1,315.983,437.007Z" transform="translate(-181.209 -184.536)" fill="#fff" stroke="#263238" stroke-linejoin="round" stroke-width="1"/>
      <path id="Path_52446" data-name="Path 52446" d="M315.983,439.047h-8.531a.7.7,0,0,1-.7-.694h0a.711.711,0,0,1,.7-.7h8.531a.7.7,0,0,1,.694.7h0a.694.694,0,0,1-.694.694Z" transform="translate(-181.209 -184.87)" fill="#fff" stroke="#263238" stroke-linejoin="round" stroke-width="1"/>
      <path id="Path_52447" data-name="Path 52447" d="M315.983,441.087h-8.531a.7.7,0,0,1-.7-.694h0a.711.711,0,0,1,.7-.7h8.531a.7.7,0,0,1,.694.7h0A.694.694,0,0,1,315.983,441.087Z" transform="translate(-181.209 -185.204)" fill="#fff" stroke="#263238" stroke-linejoin="round" stroke-width="1"/>
      <path id="Path_52448" data-name="Path 52448" d="M315.983,443.127h-8.531a.7.7,0,0,1-.7-.694h0a.711.711,0,0,1,.7-.7h8.531a.7.7,0,0,1,.694.7h0a.694.694,0,0,1-.694.694Z" transform="translate(-181.209 -185.538)" fill="#fff" stroke="#263238" stroke-linejoin="round" stroke-width="1"/>
      <path id="Path_52449" data-name="Path 52449" d="M269.508,178.373s-.644,11.349-.836,13.08-6.5,5.018-11.91,7.577-9.961,3.68-9.743,6.064,3.462,91.162,3.462,91.162,7.36-.217,18.191-4.324,17.312-9.309,22.724-13.858a44.526,44.526,0,0,1,10.831-6.691s.836-42,.836-49.344,1.514-14.937,1.087-17.965-13.423-6.691-16.668-8.23l-3.253-1.514s0-4.182,1.3-6.808l1.3-2.593-16.668-7.36Z" transform="translate(-171.433 -142.307)" fill="#938c78" stroke="#263238" stroke-linejoin="round" stroke-width="1"/>
      <path id="Path_52450" data-name="Path 52450" d="M291.956,296.265a44.528,44.528,0,0,1,10.831-6.691v-.694c-3.3.159-6.457,1.848-20.323,6.532a156.832,156.832,0,0,1-31.873,6.808c.268,7.427.443,12.244.443,12.244s7.36-.217,18.191-4.324S286.545,300.815,291.956,296.265Z" transform="translate(-172.018 -160.523)" fill="#fff" stroke="#263238" stroke-linejoin="round" stroke-width="1"/>
      <path id="Path_52451" data-name="Path 52451" d="M250.32,295.55s38.572-5.353,52.4-9.81" transform="translate(-171.974 -160.009)" fill="none" stroke="#263238" stroke-linejoin="round" stroke-width="1"/>
      <path id="Path_52452" data-name="Path 52452" d="M290.5,195.774l-3.253-1.514s0-4.182,1.3-6.808l1.3-2.593-16.668-7.36-.652.836s-.644,11.349-.836,13.08c-.142,1.129-2.869,2.91-6.247,4.725,2.091,2.317,7.6,7.778,14.034,9.133,5.185,1.087,9.685-4.525,12.353-8.982A10.592,10.592,0,0,1,290.5,195.774Z" transform="translate(-174.449 -142.295)" fill="#fff" stroke="#263238" stroke-linejoin="round" stroke-width="1"/>
      <path id="Path_52453" data-name="Path 52453" d="M283.887,220.7l.184-1.765a33.787,33.787,0,0,0,0-6.758l-.184-1.756s-4.09-.209-5.344,1.673-.636,5.42-.318,6.507C278.752,220.38,283.887,220.7,283.887,220.7Z" transform="translate(-176.469 -147.682)" fill="#263238" stroke="#263238" stroke-linejoin="round" stroke-width="1"/>
      <path id="Path_52454" data-name="Path 52454" d="M283.887,235.617l.184-1.756a33.787,33.787,0,0,0,0-6.758l-.184-1.765s-4.09-.209-5.344,1.673-.636,5.411-.318,6.507C278.752,235.308,283.887,235.617,283.887,235.617Z" transform="translate(-176.469 -150.123)" fill="#263238" stroke="#263238" stroke-linejoin="round" stroke-width="1"/>
      <line id="Line_401" data-name="Line 401" y2="2.2" transform="translate(107.417 73.016)" fill="none" stroke="#263238" stroke-linejoin="round" stroke-width="1"/>
      <line id="Line_402" data-name="Line 402" y2="1.991" transform="translate(106.163 73.016)" fill="none" stroke="#263238" stroke-linejoin="round" stroke-width="1"/>
      <path id="Path_52455" data-name="Path 52455" d="M289.934,187.452l1.3-2.593-16.668-7.36-.652.836h0l1.422,2.509s4.366,8.087,13.658,10.438A13.112,13.112,0,0,1,289.934,187.452Z" transform="translate(-175.835 -142.295)" fill="#263238" stroke="#263238" stroke-linejoin="round" stroke-width="1"/>
      <path id="Path_52456" data-name="Path 52456" d="M292.53,155.914s2.6,6.064,2.6,6.925a3.345,3.345,0,0,1-.652,1.731s3.9,3.68,3.68,4.55-2.166,1.949-2.166,1.949,1.514,8.012,1.514,9.091-3.028,3.68-9.091,3.028a17.94,17.94,0,0,1-9.953-4.541s-5.629-6.063-5.854-9.743,4.123-14.268,9.526-15.807S292.53,155.914,292.53,155.914Z" transform="translate(-175.62 -138.248)" fill="#fff" stroke="#263238" stroke-linejoin="round" stroke-width="1"/>
      <path id="Path_52457" data-name="Path 52457" d="M295.1,167.515c0,.778-.343,1.405-.761,1.405s-.761-.627-.761-1.405.343-1.405.761-1.405S295.1,166.737,295.1,167.515Z" transform="translate(-179.054 -140.431)" fill="#263238"/>
      <path id="Path_52458" data-name="Path 52458" d="M291.51,165.248s2.166-2.818,4.767-1.3" transform="translate(-178.715 -140.004)" fill="none" stroke="#263238" stroke-linejoin="round" stroke-width="1"/>
      <path id="Path_52459" data-name="Path 52459" d="M291,175.68s1.3,2.166,5.854,1.3" transform="translate(-178.632 -141.998)" fill="none" stroke="#263238" stroke-linejoin="round" stroke-width="1"/>
      <path id="Path_52460" data-name="Path 52460" d="M270.867,153.269s-6.925,2.6-7.577,6.691,5.194,9.743,6.064,10.6,5.854.836,7.142-.836-.652-4.55.644-5.629,3.036-.652,3.471-3.9-1.087-4.55,1.079-5.629,4.976,1.3,9.309-.652,3.028-9.526-1.731-12.336-12.336,1.079-12.545,2.593,1.3,3.462,0,3.68-4.115-.644-4.55,1.514A17.5,17.5,0,0,1,270.867,153.269Z" transform="translate(-174.088 -136.255)" fill="#263238" stroke="#263238" stroke-linejoin="round" stroke-width="1"/>
      <path id="Path_52461" data-name="Path 52461" d="M277.833,176.387s-2.384-4.767-5.629-4.332-2.384,7.577,0,9.091,5.629-1.514,5.629-1.514" transform="translate(-175.208 -141.4)" fill="#fff" stroke="#263238" stroke-linejoin="round" stroke-width="1"/>
      <path id="Path_52462" data-name="Path 52462" d="M245.594,207.12s-6.281,2.593-7.36,6.055-14.511,35.076-15.807,37.636.217,7.142,2.6,8.012,3.68,0,6.055-1.731,14.511-22.08,14.511-22.08" transform="translate(-167.331 -147.143)" fill="#938c78" stroke="#263238" stroke-linejoin="round" stroke-width="1"/>
      <path id="Path_52463" data-name="Path 52463" d="M1.572.008H9.2a1.564,1.564,0,0,1,1.564,1.564V22.381A1.564,1.564,0,0,1,9.2,23.945H1.572A1.572,1.572,0,0,1,0,22.372V1.572A1.572,1.572,0,0,1,1.572,0Z" transform="translate(61.075 60.534) rotate(-1)" fill="#263238" stroke="#263238" stroke-linejoin="round" stroke-width="1"/>
      <path id="Path_52464" data-name="Path 52464" d="M226.367,237.847s-.059-12.5-.151-14.268,2.041-3.58,3.345-4.458,6.85-3.437,7.527-3.136.452,1.388-.452,2.032-4.884,2.86-5.637,3.471-.694,2.986-.694,2.986,4.583-2.2,5.946-2.793,2.86-1.229,3.412-.753a1.255,1.255,0,0,1,.276,1.28,2.216,2.216,0,0,1,.485,1.531c-.125.778-3.345,3.864-4.332,4.675a27.759,27.759,0,0,0-2.108,1.957s6.08-1.489,6.507-1.581.928.836-.251,1.547a48.11,48.11,0,0,1-5.645,2.133,19.7,19.7,0,0,1-1.288,4.307,6.54,6.54,0,0,1-2.676,3.421s2.568,13.733.7,17.421-7.7,6.314-10.036,1.765-.878-10.095,1.439-13.131S226.367,237.847,226.367,237.847Z" transform="translate(-167.031 -148.59)" fill="#fff" stroke="#263238" stroke-linejoin="round" stroke-width="1"/>
      <path id="Path_52465" data-name="Path 52465" d="M231.846,256c-5.127,2.2-8.514.075-10.254-1.673-1.6,3.145-2.275,7.577-.335,11.349,2.342,4.55,8.171,1.924,10.036-1.765C232.064,262.417,232.089,259.231,231.846,256Z" transform="translate(-167.024 -154.869)" fill="#938c78" stroke="#263238" stroke-linejoin="round" stroke-width="1"/>
      <line id="Line_403" data-name="Line 403" x1="8.372" y2="5.269" transform="translate(64.513 73.618)" fill="none" stroke="#263238" stroke-linejoin="round" stroke-width="1"/>
      <line id="Line_404" data-name="Line 404" x1="8.372" y2="5.269" transform="translate(64.513 73.618)" fill="none" stroke="#263238" stroke-linejoin="round" stroke-width="1"/>
      <path id="Path_52466" data-name="Path 52466" d="M314.8,284.89l-6.975,1.48c-.744.151-5.788,4.893-6.381,5.788s1.037,1.48,1.781,1.48,4.742-2.961,4.742-2.961l-1.062,2.668,8.012,6.975s2.149-3.856,3.186-6.381a29.547,29.547,0,0,0,1.48-6.381" transform="translate(-180.32 -159.87)" fill="#fff" stroke="#263238" stroke-linejoin="round" stroke-width="1"/>
    </g>
  </g>
</svg>
