<svg xmlns="http://www.w3.org/2000/svg" width="62" height="62" viewBox="0 0 62 62">
  <g id="add_ons" transform="translate(-1 -1)">
    <path id="Path_50269" data-name="Path 50269" d="M60,41H34V39H60a1,1,0,0,0,1-1V4a1,1,0,0,0-1-1H26a1,1,0,0,0-1,1V32H23V4a3,3,0,0,1,3-3H60a3,3,0,0,1,3,3V38A3,3,0,0,1,60,41Z"/>
    <path id="Path_50270" data-name="Path 50270" d="M32,63H4a3,3,0,0,1-3-3V34a3,3,0,0,1,3-3H32a3,3,0,0,1,3,3V60A3,3,0,0,1,32,63Z" fill="#32cd32"/>
    <path id="Path_50271" data-name="Path 50271" d="M18,35a9.01,9.01,0,0,0-9,9v.193a9.035,9.035,0,0,0,1.972,5.623L13,52.351V54a5,5,0,0,0,10,0V52.351l2.028-2.534A9.038,9.038,0,0,0,27,44.193V44A9.01,9.01,0,0,0,18,35Zm0,22a3,3,0,0,1-3-3V53h6v1A3,3,0,0,1,18,57ZM17,44a1,1,0,1,1,1,1A1,1,0,0,1,17,44Zm8,.193a7.027,7.027,0,0,1-1.534,4.373L21.519,51H19V46.816a3,3,0,1,0-2,0V51H14.481l-1.946-2.434A7.022,7.022,0,0,1,11,44.193V44a7,7,0,0,1,14,0Z"/>
    <path id="Path_50272" data-name="Path 50272" d="M42.293,59.707,35.586,53H54a3,3,0,0,0,3-3V43h2v7a5.006,5.006,0,0,1-5,5H40.414l3.293,3.293Z"/>
    <path id="Path_50273" data-name="Path 50273" d="M37,49h2v2H37Z"/>
    <path id="Path_50274" data-name="Path 50274" d="M41,49h2v2H41Z"/>
    <path id="Path_50275" data-name="Path 50275" d="M53,51H45V49h8V43h2v6A2,2,0,0,1,53,51Z"/>
    <path id="Path_50276" data-name="Path 50276" d="M3,27H1V20a5.006,5.006,0,0,1,5-5H17.586l-3.293-3.293,1.414-1.414L22.414,17H6a3,3,0,0,0-3,3Z"/>
    <path id="Path_50277" data-name="Path 50277" d="M19,19h2v2H19Z"/>
    <path id="Path_50278" data-name="Path 50278" d="M15,19h2v2H15Z"/>
    <path id="Path_50279" data-name="Path 50279" d="M7,27H5V21a2,2,0,0,1,2-2h6v2H7Z"/>
    <path id="Path_50280" data-name="Path 50280" d="M43.051,5h-.1a11.948,11.948,0,0,0-9.072,19.725L37,28.37V31a6,6,0,1,0,12,0V28.37l3.123-3.645A11.948,11.948,0,0,0,43.051,5ZM43,35a4,4,0,0,1-4-4V29h8v2A4,4,0,0,1,43,35ZM41.335,18h3.33l-.6,9H41.935Zm9.27,5.425L47.54,27H46.069l.6-9H48a3,3,0,0,0,0-6h-.129a3.006,3.006,0,0,0-2.993,2.8L44.8,16H41.2l-.08-1.2A3.006,3.006,0,0,0,38.129,12H38a3,3,0,0,0,0,6h1.331l.6,9H38.46l-3.065-3.575A9.95,9.95,0,0,1,42.949,7h.1A9.95,9.95,0,0,1,50.6,23.425ZM46.8,16l.071-1.067a1,1,0,0,1,1-.933H48a1,1,0,0,1,0,2ZM39.2,16H38a1,1,0,0,1,0-2h.129a1,1,0,0,1,1,.934Z"/>
    <path id="Path_50281" data-name="Path 50281" d="M7,59H5V57H7Zm0-4H5V53H7Zm0-4H5V49H7Z"/>
    <path id="Path_50282" data-name="Path 50282" d="M31,45H29V43h2Zm0-4H29V39h2Zm0-4H29V35h2Z"/>
    <path id="Path_50283" data-name="Path 50283" d="M59,37H57V35h2Zm0-4H57V31h2Zm0-4H57V27h2Z"/>
    <path id="Path_50284" data-name="Path 50284" d="M29,15H27V13h2Zm0-4H27V9h2Zm0-4H27V5h2Z"/>
  </g>
</svg>
