<svg xmlns="http://www.w3.org/2000/svg" width="48.32" height="62.414" viewBox="0 0 48.32 62.414">
  <g id="contact_seller" transform="translate(-0.001 0)">
    <path id="Path_50252" data-name="Path 50252" d="M171.02,214.04a3.02,3.02,0,1,1,3.02-3.02A3.024,3.024,0,0,1,171.02,214.04Zm0,0" transform="translate(-146.859 -181.827)" fill="#32cd32"/>
    <path id="Path_50253" data-name="Path 50253" d="M48.321,32H27.181v2.013H44.788L30.418,47.627a9.1,9.1,0,0,1-12.515,0L3.534,34.013H21.208V32H0V66.227h9.06v4.609a9.026,9.026,0,0,0,1.522,5.026l2.5,3.757v4.728H15.1V79.008l-2.843-4.264a7.019,7.019,0,0,1-1.184-3.909V58.174a2.013,2.013,0,1,1,4.027,0V69.247h1.007a5.039,5.039,0,0,1,5.033,5.033h2.013a7.058,7.058,0,0,0-6.04-6.975V66.227H37.248v4.609a7.019,7.019,0,0,1-1.184,3.909l-2.843,4.264v5.339h2.013V79.619l2.5-3.757a9.029,9.029,0,0,0,1.522-5.026V66.227h9.06ZM31.8,49.088,46.308,35.347V63.155L30.059,50.437A11.136,11.136,0,0,0,31.8,49.088ZM3.927,64.214,9.061,60.2v4.018Zm5.193-6.621L2.014,63.155V35.347L16.519,49.088a11.2,11.2,0,0,0,1.743,1.349l-4.79,3.749a3.68,3.68,0,0,0-.385-.039,4.02,4.02,0,0,0-3.968,3.446Zm6.5-2.527,4.652-3.642a11.026,11.026,0,0,0,7.784,0L44.4,64.214H17.114v-6.04a4,4,0,0,0-1.5-3.108Zm0,0" transform="translate(0 -27.974)"/>
    <g id="Group_37921" data-name="Group 37921" transform="translate(11.074 0)">
      <path id="Path_50254" data-name="Path 50254" d="M164.027,20.133a3.166,3.166,0,0,1-3.152-2.949l-.866-12.994C160,4.11,160,4.019,160,3.929A3.934,3.934,0,0,1,163.929,0h.195a3.934,3.934,0,0,1,3.93,3.929c0,.091,0,.181-.01.271l-.865,12.985a3.166,3.166,0,0,1-3.152,2.949Zm0,0" transform="translate(-150.94 0)" fill="#32cd32"/>
      <path id="Path_50255" data-name="Path 50255" d="M114.174,454.04H88V448h26.174Zm0,0" transform="translate(-88 -391.626)" fill="#32cd32"/>
    </g>
  </g>
</svg>
