<svg xmlns="http://www.w3.org/2000/svg" width="62.414" height="62.414" viewBox="0 0 62.414 62.414">
  <g id="multi_theme_support" transform="translate(0)">
    <path id="Path_50236" data-name="Path 50236" d="M176,368h2.013v2.013H176Zm0,0" transform="translate(-153.853 -321.693)"/>
    <path id="Path_50237" data-name="Path 50237" d="M144,368h2.013v2.013H144Zm0,0" transform="translate(-125.88 -321.693)"/>
    <path id="Path_50238" data-name="Path 50238" d="M112,368h2.013v2.013H112Zm0,0" transform="translate(-97.907 -321.693)"/>
    <path id="Path_50239" data-name="Path 50239" d="M31.207,0A31.2,31.2,0,0,0,15.879,4.027H4.026V15.879A31.205,31.205,0,1,0,31.207,0ZM50.334,9.18a29.119,29.119,0,0,1,6.957,35.114H27.485l-3.02-2.013H12.08V40.267H50.334Zm.974,43.167a29.292,29.292,0,0,1-5,3.836V52.347Zm-21.04-2.013v2.013H44.293v4.027H28.187v-6.04H15.1a3.024,3.024,0,0,1-3.02-3.02v-3.02H23.855l3.02,2.013H56.182a29.352,29.352,0,0,1-2.95,4.027Zm.939-48.321A29.026,29.026,0,0,1,41.839,4.027H20.575A29.235,29.235,0,0,1,31.207,2.013ZM6.04,6.04H45.976q1.211.713,2.345,1.537v4.5H6.04Zm0,8.053H48.32v24.16H46.307V30.2H36.9v2.013h7.392v6.04H31.207a3.024,3.024,0,0,1-3.02-3.02H26.173a4.983,4.983,0,0,0,1.033,3.02H6.04ZM2.013,31.207A29.235,29.235,0,0,1,4.026,20.575V40.267h6.04v7.047A5.039,5.039,0,0,0,15.1,52.347H26.173v4.027H22.147v2.013H41.839A29.176,29.176,0,0,1,2.013,31.207Zm0,0"/>
    <path id="Path_50240" data-name="Path 50240" d="M64,64h2.013v2.013H64Zm0,0" transform="translate(-55.947 -55.947)"/>
    <path id="Path_50241" data-name="Path 50241" d="M104,64h2.013v2.013H104Zm0,0" transform="translate(-90.914 -55.947)"/>
    <path id="Path_50242" data-name="Path 50242" d="M136,64h2.013v2.013H136Zm0,0" transform="translate(-118.887 -55.947)"/>
    <path id="Path_50243" data-name="Path 50243" d="M221.02,144.23l-5.938,5.94v7.118a4.027,4.027,0,0,1-4.027,4.027,3.927,3.927,0,0,1-.439-.044l-.273.756a5.039,5.039,0,0,0,7.118,0l10.677-10.677Zm0,0" transform="translate(-183.875 -126.081)" fill="#32cd32"/>
    <path id="Path_50244" data-name="Path 50244" d="M64,136H76.08v9.06H64Zm0,0" transform="translate(-55.947 -118.886)" fill="#32cd32"/>
    <path id="Path_50245" data-name="Path 50245" d="M392,128h8.593v2.013H392Zm0,0" transform="translate(-342.673 -111.893)"/>
    <path id="Path_50246" data-name="Path 50246" d="M181.033,148.134A5.039,5.039,0,0,1,176,143.1V128h10.067v15.1A5.039,5.039,0,0,1,181.033,148.134Zm-3.02-18.12V143.1a3.02,3.02,0,1,0,6.04,0V130.013Zm0,0" transform="translate(-153.853 -111.893)"/>
    <path id="Path_50247" data-name="Path 50247" d="M210.013,241.007A1.007,1.007,0,1,1,209.007,240,1.007,1.007,0,0,1,210.013,241.007Zm0,0" transform="translate(-181.827 -209.8)"/>
    <path id="Path_50248" data-name="Path 50248" d="M64,128H76.08v2.013H64Zm0,0" transform="translate(-55.947 -111.893)"/>
    <path id="Path_50249" data-name="Path 50249" d="M64,160H76.08v2.013H64Zm0,0" transform="translate(-55.947 -139.866)"/>
    <path id="Path_50250" data-name="Path 50250" d="M144,192h2.013v2.013H144Zm0,0" transform="translate(-125.88 -167.84)"/>
    <path id="Path_50251" data-name="Path 50251" d="M64,192h8.053v2.013H64Zm0,0" transform="translate(-55.947 -167.84)"/>
  </g>
</svg>
