<svg xmlns="http://www.w3.org/2000/svg" width="40.001" height="40" viewBox="0 0 40.001 40">
  <g id="right_arrow" transform="translate(0 0.074)">
    <path id="Path_8" data-name="Path 8" d="M107.428,140.485a.927.927,0,0,0-1.311,1.311l7.024,7.024H94.478a.93.93,0,1,0,0,1.861h18.653l-7.024,7.024a.926.926,0,0,0,0,1.312.914.914,0,0,0,.661.27.953.953,0,0,0,.66-.27l8.605-8.605a.922.922,0,0,0,.27-.661.959.959,0,0,0-.27-.66Zm0,0" transform="translate(-86.569 -129.823)" fill="#32cd32"/>
    <path id="Path_9" data-name="Path 9" d="M20-.074A20,20,0,1,0,34.143,5.787,20,20,0,0,0,20-.074Zm0,38.143A18.141,18.141,0,1,1,38.144,19.927,18.165,18.165,0,0,1,20,38.069Zm0,0" transform="translate(0 0)" fill="#32cd32"/>
  </g>
</svg>
