<svg xmlns="http://www.w3.org/2000/svg" width="62.414" height="62.414" viewBox="0 0 62.414 62.414">
  <g id="seller_microsite" transform="translate(-1 -1)">
    <g id="Group_37905" data-name="Group 37905">
      <path id="Path_50145" data-name="Path 50145" d="M5,17H31V31H5Z" fill="#32cd32"/>
    </g>
    <g id="Group_37907" data-name="Group 37907">
      <g id="Group_37906" data-name="Group 37906">
        <path id="Path_50146" data-name="Path 50146" d="M19,41H5V33H19Z" fill="#32cd32"/>
      </g>
    </g>
    <g id="Group_37908" data-name="Group 37908">
      <path id="Path_50147" data-name="Path 50147" d="M36,37a9,9,0,1,0,9,9A9.011,9.011,0,0,0,36,37ZM34.411,49a11.214,11.214,0,0,1-.362-2h3.9a11.214,11.214,0,0,1-.362,2Zm2.408,2A11.3,11.3,0,0,1,36,52.4a11.292,11.292,0,0,1-.819-1.4Zm-2.77-6a11.214,11.214,0,0,1,.362-2h3.177a11.214,11.214,0,0,1,.362,2Zm1.133-4A11.3,11.3,0,0,1,36,39.6a11.175,11.175,0,0,1,.818,1.4Zm-2.2,0H31.11a7.009,7.009,0,0,1,2.67-1.633A13.246,13.246,0,0,0,32.979,41Zm-.632,2a13.072,13.072,0,0,0-.309,2H29.08a6.937,6.937,0,0,1,.6-2Zm-.309,4a13.073,13.073,0,0,0,.309,2H29.685a6.937,6.937,0,0,1-.6-2Zm.941,4a13.246,13.246,0,0,0,.8,1.633A7,7,0,0,1,31.11,51Zm6.042,0H40.89a7.009,7.009,0,0,1-2.67,1.633,13.246,13.246,0,0,0,.8-1.633Zm.632-2a13.072,13.072,0,0,0,.309-2H42.92a6.937,6.937,0,0,1-.6,2Zm.309-4a13.073,13.073,0,0,0-.309-2h2.662a6.937,6.937,0,0,1,.6,2Zm-.941-4a13.246,13.246,0,0,0-.8-1.633A7,7,0,0,1,40.89,41Z"/>
      <path id="Path_50148" data-name="Path 50148" d="M58.414,53l3.667-3.667L51,47.486V45h9a3,3,0,0,0,3-3V4a3,3,0,0,0-3-3H4A3,3,0,0,0,1,4V42a3,3,0,0,0,3,3H21V56a3,3,0,0,0,3,3H48.82l.513,3.081L53,58.414l5,5L63.414,58ZM4,3H60a1,1,0,0,1,1,1v9H3V4A1,1,0,0,1,4,3ZM4,43a1,1,0,0,1-1-1V15H61V42a1,1,0,0,1-1,1H51V36a3,3,0,0,0-3-3H24a3,3,0,0,0-3,3v7ZM24,57a1,1,0,0,1-1-1V36a1,1,0,0,1,1-1H48a1,1,0,0,1,1,1V47.153l-2.216-.369L48.486,57Zm29-1.414-2.333,2.333-1.451-8.7,8.7,1.451L55.586,53l5,5L58,60.586Z"/>
      <path id="Path_50149" data-name="Path 50149" d="M11,5H5v6h6ZM9,9H7V7H9Z"/>
      <path id="Path_50150" data-name="Path 50150" d="M19,5H13v6h6ZM17,9H15V7h2Z"/>
      <path id="Path_50151" data-name="Path 50151" d="M27,5H21v6h6ZM25,9H23V7h2Z"/>
      <path id="Path_50152" data-name="Path 50152" d="M59,17H33V31H59ZM57,29H35V19H57Z"/>
      <path id="Path_50153" data-name="Path 50153" d="M5,17H7v2H5Z"/>
      <path id="Path_50154" data-name="Path 50154" d="M9,17H31v2H9Z"/>
      <path id="Path_50155" data-name="Path 50155" d="M5,21H31v2H5Z"/>
      <path id="Path_50156" data-name="Path 50156" d="M9,25h2v2H9Z"/>
      <path id="Path_50157" data-name="Path 50157" d="M5,25H7v2H5Z"/>
      <path id="Path_50158" data-name="Path 50158" d="M13,25H31v2H13Z"/>
      <path id="Path_50159" data-name="Path 50159" d="M29,29h2v2H29Z"/>
      <path id="Path_50160" data-name="Path 50160" d="M5,29H27v2H5Z"/>
      <path id="Path_50161" data-name="Path 50161" d="M25,37h2v2H25Z"/>
      <path id="Path_50162" data-name="Path 50162" d="M45,37h2v2H45Z"/>
      <path id="Path_50163" data-name="Path 50163" d="M25,53h2v2H25Z"/>
    </g>
  </g>
</svg>
