<svg xmlns="http://www.w3.org/2000/svg" width="58" height="62" viewBox="0 0 58 62">
  <g id="seller_commission" transform="translate(-3 -1)">
    <path id="Path_50200" data-name="Path 50200" d="M28.473,44.292A5.047,5.047,0,0,0,29,42.056V26a2.986,2.986,0,0,0-.793-2.031l-1.471,1.354A1,1,0,0,1,27,26V42.056a3.022,3.022,0,0,1-.316,1.342L25,46.764V49H11V46.667L8.438,43.25a2.994,2.994,0,0,1-.577-1.427l-.709-5.669A6.472,6.472,0,0,0,6.12,33.377L5.09,31.832A.535.535,0,0,1,5.535,31a4.46,4.46,0,0,1,4.36,3.574l1.248,6.242.614.154A4.275,4.275,0,0,1,15,45.123V47h2V45.123a6.264,6.264,0,0,0-4-5.842V26a1,1,0,0,1,.264-.676l-1.471-1.355A2.984,2.984,0,0,0,11,26v6.043A6.463,6.463,0,0,0,5.535,29a2.535,2.535,0,0,0-2.109,3.941l1.029,1.543A4.469,4.469,0,0,1,5.167,36.4l.709,5.669a4.984,4.984,0,0,0,.962,2.38L9,47.333V49H7V63H29V49H27V47.236ZM27,51v2H9V51ZM9,61V55H27v6Z"/>
    <path id="Path_50201" data-name="Path 50201" d="M15,27.167h2V38H15Z"/>
    <path id="Path_50202" data-name="Path 50202" d="M19,28h2V38H19Z"/>
    <path id="Path_50203" data-name="Path 50203" d="M23,27.168h2V38H23Z"/>
    <path id="Path_50204" data-name="Path 50204" d="M60.574,31.059l-1.029-1.543a4.47,4.47,0,0,1-.712-1.916l-.709-5.669a4.984,4.984,0,0,0-.962-2.38L55,16.667V15h2V1H35V15h2v1.764l-1.473,2.945A5.04,5.04,0,0,0,35,21.944V38a3,3,0,0,0,.07.622c.014.066.037.13.056.195a2.9,2.9,0,0,0,.144.4c.014.032.019.066.035.1l.011-.006a2.968,2.968,0,0,0,.477.719l1.471-1.354a.992.992,0,0,1-.17-.273A.981.981,0,0,1,37,38V21.944a3.022,3.022,0,0,1,.316-1.342L39,17.236V15H53v2.333l2.562,3.417a2.994,2.994,0,0,1,.577,1.427l.709,5.669a6.472,6.472,0,0,0,1.032,2.777l1.029,1.543a.537.537,0,0,1-.444.834,4.46,4.46,0,0,1-4.36-3.574l-1.248-6.242-.614-.154A4.275,4.275,0,0,1,49,18.877V17H47v1.877a6.264,6.264,0,0,0,4,5.842V38a1.117,1.117,0,0,1-.264.677l1.471,1.355a3,3,0,0,0,.479-.722l.011.006c.015-.031.02-.065.034-.1a2.862,2.862,0,0,0,.143-.4c.018-.065.042-.128.055-.193A2.944,2.944,0,0,0,53,38V31.957A6.463,6.463,0,0,0,58.465,35a2.535,2.535,0,0,0,2.109-3.941ZM55,3V13H37V9h8V7H37V3Z"/>
    <path id="Path_50205" data-name="Path 50205" d="M47,36.683v.15h2V26H47Z"/>
    <path id="Path_50206" data-name="Path 50206" d="M43,26h2V36H43Z"/>
    <path id="Path_50207" data-name="Path 50207" d="M39,36.683v.149h2V26H39Z"/>
    <path id="Path_50208" data-name="Path 50208" d="M50,11a3,3,0,1,0-3-3A3,3,0,0,0,50,11Zm0-4a1,1,0,1,1-1,1A1,1,0,0,1,50,7Z"/>
    <path id="Path_50209" data-name="Path 50209" d="M20,29A11,11,0,1,1,31,18,11.013,11.013,0,0,1,20,29Z" fill="#32cd32"/>
    <path id="Path_50210" data-name="Path 50210" d="M20,17a1,1,0,0,1-1-1V15h1a1,1,0,0,1,1,1h2a3,3,0,0,0-2-2.816V11H19v2H17v3a3,3,0,0,0,3,3,1,1,0,0,1,1,1v1H20a1,1,0,0,1-1-1H17a3,3,0,0,0,2,2.816V25h2V23h2V20A3,3,0,0,0,20,17Z"/>
    <path id="Path_50211" data-name="Path 50211" d="M44,61A13,13,0,1,1,57,48,13.015,13.015,0,0,1,44,61Z" fill="#32cd32"/>
    <path id="Path_50212" data-name="Path 50212" d="M35.515,47H52.486v2H35.515Z" transform="translate(-21.054 45.172) rotate(-45)"/>
    <path id="Path_50213" data-name="Path 50213" d="M48,55a3,3,0,1,1,3-3A3,3,0,0,1,48,55Zm0-4a1,1,0,1,0,1,1A1,1,0,0,0,48,51Z"/>
    <path id="Path_50214" data-name="Path 50214" d="M40,47a3,3,0,1,1,3-3A3,3,0,0,1,40,47Zm0-4a1,1,0,1,0,1,1A1,1,0,0,0,40,43Z"/>
  </g>
</svg>
